<svg width="278" height="240" viewBox="0 0 278 240" fill="none" xmlns="http://www.w3.org/2000/svg">
<path d="M36.3 50.6C43.0931 50.6 48.6 45.0931 48.6 38.3C48.6 31.5069 43.0931 26 36.3 26C29.5069 26 24 31.5069 24 38.3C24 45.0931 29.5069 50.6 36.3 50.6Z" fill="#B5E2B7"/>
<path d="M231.667 34.585C241.2 34.585 248.928 26.8568 248.928 17.3236C248.928 7.79034 241.2 0.0621338 231.667 0.0621338C222.133 0.0621338 214.405 7.79034 214.405 17.3236C214.405 26.8568 222.133 34.585 231.667 34.585Z" fill="#B5E2B7"/>
<path d="M240.29 199.334C245.775 195.545 250.7 190.705 255.177 184.917C275.996 157.977 290.883 113.568 261.669 86.8382C255.513 81.2607 248.461 76.5252 242.865 70.3164C230.328 56.7411 236.149 40.535 229.545 24.8551C218.016 -2.29537 184.997 17.8044 166.08 23.0661C149.179 27.8017 131.382 27.1703 114.257 24.6446C97.8028 22.2242 82.2444 15.8049 65.7907 20.1196C49.6727 24.3289 34.5621 34.4314 24.4884 47.5857C15.5339 59.2668 12.5118 72.4211 15.8697 86.8382C18.4441 97.5721 23.2571 107.569 25.6077 118.303C28.1821 130.195 27.6224 142.612 24.0406 154.293C20.3469 166.29 14.9743 175.972 19.3396 189.021C30.6445 221.012 72.2826 211.541 99.4817 210.699C102.28 210.278 104.966 209.752 107.765 209.226C110.451 208.7 113.249 208.279 115.935 207.858C142.911 203.859 167.423 209.962 194.063 211.33C211.524 212.172 227.194 208.489 240.29 199.334Z" fill="#EBFCEB" fill-opacity="0.5"/>
<path d="M43.0308 200.067C37.5651 196.488 32.6572 191.961 28.1954 186.382C7.44812 160.905 -7.38729 118.796 21.7258 93.6351C27.8608 88.2661 34.8881 83.8446 40.4653 78.0545C52.9583 65.211 47.1579 49.841 53.7391 34.9974C65.2281 9.31045 98.1338 28.3651 116.985 33.313C133.828 37.7345 151.564 37.2081 168.63 34.7868C185.027 32.4708 200.532 26.3649 216.929 30.4706C232.991 34.471 248.049 44.0509 258.088 56.4733C267.012 67.5271 270.024 80.0547 266.677 93.6351C264.112 103.741 259.315 113.321 256.973 123.428C254.408 134.587 254.965 146.483 258.535 157.431C262.216 168.801 267.57 177.96 263.22 190.277C251.954 220.49 210.459 211.647 183.354 210.805C180.565 210.384 177.888 209.858 175.099 209.437C172.422 209.016 169.634 208.489 166.957 208.173C140.074 204.384 115.646 210.174 89.0986 211.437C71.8093 212.279 56.0815 208.805 43.0308 200.067Z" fill="#EBFCEB"/>
<path d="M273.992 173.627H251.204V214.028H273.992V173.627Z" fill="#B8EABC"/>
<path d="M257.751 121.203H225.258V214.831H257.751V121.203Z" fill="#90C394"/>
<path d="M241.51 110.874H233.056V127.093H241.51V110.874Z" fill="#90C394"/>
<path d="M170.797 133.714H148.883V111.009L122.176 90.9117L121.974 106.022L121.885 122.711H96.3007V208.108L170.797 208.028V133.714Z" fill="#B8EABC"/>
<path d="M229.352 91.3653H207.345V214.63H229.352V91.3653Z" fill="#B8EABC"/>
<path d="M211.606 91.3653H170.502V214.63H211.606V91.3653Z" fill="#90C394"/>
<path d="M231.784 87.5842H167.29V91.9344H231.784V87.5842Z" fill="#B8EABC"/>
<path d="M181.947 98.6381H173.391V100.936H181.947V98.6381Z" fill="#B8EABC"/>
<path d="M207.981 105.487H201.768V107.785H207.981V105.487Z" fill="#B8EABC"/>
<path d="M184.824 112.346H173.391V114.644H184.824V112.346Z" fill="#B8EABC"/>
<path d="M207.981 142.306H173.391V144.604H207.981V142.306Z" fill="#B8EABC"/>
<path d="M207.981 149.992H173.391V152.29H207.981V149.992Z" fill="#B8EABC"/>
<path d="M207.981 156.851H173.391V159.149H207.981V156.851Z" fill="#B8EABC"/>
<path d="M207.981 163.712H173.391V166.009H207.981V163.712Z" fill="#CFE0E8"/>
<path d="M207.981 170.571H173.391V172.869H207.981V170.571Z" fill="#CFE0E8"/>
<path d="M207.981 177.431H173.391V179.729H207.981V177.431Z" fill="#CFE0E8"/>
<path d="M207.981 98.6381H185.583V100.936H207.981V98.6381Z" fill="#B8EABC"/>
<path d="M199.436 105.487H193.223V107.785H199.436V105.487Z" fill="#B8EABC"/>
<path d="M189.9 105.487H173.391V107.785H189.9V105.487Z" fill="#B8EABC"/>
<path d="M207.98 112.346H187.39V114.644H207.98V112.346Z" fill="#B8EABC"/>
<path d="M181.947 119.842H173.391V122.14H181.947V119.842Z" fill="#B8EABC"/>
<path d="M207.981 126.702H201.768V129H207.981V126.702Z" fill="#B8EABC"/>
<path d="M184.824 133.562H173.391V135.86H184.824V133.562Z" fill="#CFE0E8"/>
<path d="M207.981 119.842H185.583V122.14H207.981V119.842Z" fill="#B8EABC"/>
<path d="M199.436 126.702H193.223V129H199.436V126.702Z" fill="#B8EABC"/>
<path d="M189.9 126.702H173.391V129H189.9V126.702Z" fill="#B8EABC"/>
<path d="M207.98 133.562H187.39V135.86H207.98V133.562Z" fill="#B8EABC"/>
<path d="M55.9051 76.7649H30.9978V214.619H55.9051V76.7649Z" fill="#B8EABC"/>
<path d="M97.5995 76.7649H51.0866V214.619H97.5995V76.7649Z" fill="#90C394"/>
<path d="M101.235 72.4932H28.2426V77.4122H101.235V72.4932Z" fill="#B8EABC"/>
<path d="M94.3311 84.9969H55.1799V87.5958H94.3311V84.9969Z" fill="#B8EABC"/>
<path d="M94.3311 92.7597H55.1799V95.3586H94.3311V92.7597Z" fill="#B8EABC"/>
<path d="M94.3311 100.523H55.1799V103.122H94.3311V100.523Z" fill="#B8EABC"/>
<path d="M94.3311 108.287H55.1799V110.886H94.3311V108.287Z" fill="#B8EABC"/>
<path d="M94.3311 116.039H55.1799V118.638H94.3311V116.039Z" fill="#B8EABC"/>
<path d="M94.3311 123.803H55.1799V126.402H94.3311V123.803Z" fill="#B8EABC"/>
<path d="M94.3311 131.565H55.1799V134.164H94.3311V131.565Z" fill="#B8EABC"/>
<path d="M94.3311 139.329H55.1799V141.928H94.3311V139.329Z" fill="#B8EABC"/>
<path d="M94.3311 147.091H55.1799V149.69H94.3311V147.091Z" fill="#B8EABC"/>
<path d="M94.3311 154.855H55.1799V157.454H94.3311V154.855Z" fill="#B8EABC"/>
<path d="M94.3311 162.619H55.1799V165.218H94.3311V162.619Z" fill="#B8EABC"/>
<path d="M94.3311 170.382H55.1799V172.981H94.3311V170.382Z" fill="#B8EABC"/>
<path d="M94.3311 178.145H55.1799V180.744H94.3311V178.145Z" fill="#B8EABC"/>
<path d="M40.1553 133.529H13.9095V214.631H40.1553V133.529Z" fill="#90C394"/>
<path fill-rule="evenodd" clip-rule="evenodd" d="M256.48 145.842C256.48 145.842 232.063 208.138 256.48 208.138C280.908 208.138 256.48 145.842 256.48 145.842Z" fill="url(#paint0_linear)"/>
<path d="M256.48 208.361C252.843 208.361 250.055 206.989 248.214 204.268C246.05 201.089 245.125 196.025 245.482 189.221C245.76 183.8 246.854 177.263 248.705 169.779C251.862 157.052 256.234 145.864 256.279 145.753C256.312 145.664 256.39 145.608 256.491 145.608C256.591 145.608 256.669 145.664 256.703 145.753C256.747 145.864 261.109 157.052 264.276 169.779C266.139 177.252 267.221 183.8 267.5 189.221C267.857 196.025 266.931 201.089 264.767 204.268C262.904 206.978 260.116 208.361 256.48 208.361ZM256.48 146.456C255.576 148.843 251.895 158.781 249.14 169.891C247.289 177.342 246.207 183.856 245.928 189.243C245.582 195.947 246.474 200.921 248.582 204.011C250.345 206.599 253 207.904 256.48 207.904C259.96 207.904 262.614 206.588 264.377 204.011C266.485 200.91 267.377 195.947 267.031 189.232C266.753 183.844 265.671 177.33 263.819 169.879C261.064 158.781 257.394 148.843 256.48 146.456Z" fill="#1F4D67"/>
<path fill-rule="evenodd" clip-rule="evenodd" d="M267.043 189.243C266.82 185.027 266.117 180.119 264.924 174.62C265.972 179.695 266.608 184.235 266.809 188.183C267.154 194.887 266.262 199.862 264.154 202.963C262.392 205.55 259.737 206.855 256.257 206.855C252.777 206.855 250.122 205.539 248.36 202.963C247.478 201.68 246.82 200.074 246.363 198.144C246.809 200.542 247.545 202.505 248.583 204.022C250.345 206.61 253 207.915 256.48 207.915C259.96 207.915 262.615 206.599 264.377 204.022C266.496 200.921 267.389 195.947 267.043 189.243Z" fill="white"/>
<path d="M256.48 214.942C256.358 214.942 256.257 214.842 256.257 214.719V165.262C256.257 165.139 256.358 165.039 256.48 165.039C256.603 165.039 256.703 165.139 256.703 165.262V214.719C256.703 214.842 256.603 214.942 256.48 214.942Z" fill="#1F4D67"/>
<path d="M256.48 180.733C256.413 180.733 256.335 180.699 256.29 180.632L252.431 174.999C252.364 174.899 252.386 174.754 252.487 174.687C252.587 174.62 252.732 174.642 252.799 174.743L256.658 180.376C256.725 180.476 256.703 180.621 256.603 180.688C256.569 180.721 256.524 180.733 256.48 180.733Z" fill="#1F4D67"/>
<path d="M256.48 180.566C256.435 180.566 256.39 180.554 256.357 180.532C256.257 180.465 256.234 180.32 256.301 180.22L260.161 174.587C260.227 174.487 260.372 174.464 260.473 174.531C260.573 174.598 260.596 174.743 260.529 174.843L256.669 180.476C256.625 180.532 256.558 180.566 256.48 180.566Z" fill="#1F4D67"/>
<path d="M256.48 189.879C256.413 189.879 256.335 189.846 256.29 189.779L252.431 184.146C252.364 184.046 252.386 183.901 252.487 183.834C252.587 183.767 252.732 183.789 252.799 183.889L256.658 189.522C256.725 189.623 256.703 189.768 256.603 189.835C256.569 189.868 256.524 189.879 256.48 189.879Z" fill="#1F4D67"/>
<path d="M256.48 189.711C256.435 189.711 256.39 189.7 256.357 189.678C256.257 189.611 256.234 189.466 256.301 189.366L260.161 183.733C260.227 183.632 260.372 183.61 260.473 183.677C260.573 183.744 260.596 183.889 260.529 183.989L256.669 189.622C256.625 189.678 256.558 189.711 256.48 189.711Z" fill="#1F4D67"/>
<path d="M256.48 199.037C256.413 199.037 256.335 199.003 256.29 198.936L252.431 193.303C252.364 193.203 252.386 193.058 252.487 192.991C252.587 192.924 252.732 192.946 252.799 193.047L256.658 198.68C256.725 198.78 256.703 198.925 256.603 198.992C256.569 199.025 256.524 199.037 256.48 199.037Z" fill="#1F4D67"/>
<path d="M256.48 198.869C256.435 198.869 256.39 198.858 256.357 198.836C256.257 198.769 256.234 198.624 256.301 198.523L260.161 192.891C260.227 192.79 260.372 192.768 260.473 192.835C260.573 192.902 260.596 193.047 260.529 193.147L256.669 198.78C256.625 198.836 256.558 198.869 256.48 198.869Z" fill="#1F4D67"/>
<path fill-rule="evenodd" clip-rule="evenodd" d="M38.5381 154.03C38.5381 154.03 17.7355 207.09 38.5381 207.09C59.3406 207.09 38.5381 154.03 38.5381 154.03Z" fill="url(#paint1_linear)"/>
<path d="M38.538 207.302C35.426 207.302 33.0502 206.12 31.4663 203.8C29.6147 201.089 28.8339 196.773 29.135 190.961C29.3804 186.344 30.2951 180.766 31.879 174.397C34.5671 163.556 38.2926 154.03 38.3261 153.929C38.3595 153.84 38.4376 153.784 38.538 153.784C38.6384 153.784 38.7165 153.84 38.7499 153.929C38.7834 154.03 42.5089 163.556 45.1971 174.397C46.781 180.766 47.7067 186.344 47.941 190.961C48.2421 196.762 47.4614 201.089 45.6098 203.8C44.0259 206.131 41.65 207.302 38.538 207.302ZM38.538 154.655C37.7126 156.818 34.6341 165.184 32.314 174.52C28.767 188.786 28.6108 198.825 31.8344 203.554C33.329 205.752 35.5822 206.856 38.538 206.856C41.4939 206.856 43.747 205.741 45.2417 203.554C48.4652 198.825 48.3091 188.775 44.762 174.52C42.442 165.184 39.3634 156.818 38.538 154.655Z" fill="#1F4D67"/>
<path fill-rule="evenodd" clip-rule="evenodd" d="M47.5284 190.995C47.3388 187.403 46.7365 183.231 45.7326 178.535C46.6249 182.852 47.1715 186.723 47.3388 190.091C47.64 195.802 46.8703 200.041 45.0745 202.673C43.5687 204.87 41.3044 205.986 38.3485 205.986C35.3815 205.986 33.1172 204.87 31.6226 202.673C30.8752 201.58 30.3064 200.208 29.9271 198.568C30.3064 200.61 30.9422 202.283 31.8233 203.577C33.3291 205.774 35.5934 206.889 38.5493 206.889C41.5052 206.889 43.7806 205.774 45.2753 203.577C47.0711 200.933 47.8296 196.706 47.5284 190.995Z" fill="white"/>
<path d="M38.5381 212.913C38.4155 212.913 38.3151 212.812 38.3151 212.69V170.571C38.3151 170.449 38.4155 170.348 38.5381 170.348C38.6608 170.348 38.7612 170.449 38.7612 170.571V212.69C38.7612 212.812 38.6608 212.913 38.5381 212.913Z" fill="#1F4D67"/>
<path d="M38.538 183.778C38.471 183.778 38.3929 183.744 38.3483 183.677L35.0578 178.881C34.9909 178.781 35.0132 178.636 35.1136 178.569C35.214 178.502 35.359 178.524 35.4259 178.625L38.7164 183.421C38.7833 183.521 38.761 183.666 38.6606 183.733C38.6272 183.767 38.5826 183.778 38.538 183.778Z" fill="#1F4D67"/>
<path d="M38.5383 183.633C38.4937 183.633 38.4491 183.622 38.4156 183.6C38.3152 183.533 38.2929 183.388 38.3598 183.287L41.6503 178.491C41.7173 178.391 41.8623 178.368 41.9627 178.435C42.063 178.502 42.0853 178.647 42.0184 178.748L38.7279 183.544C38.6833 183.6 38.6164 183.633 38.5383 183.633Z" fill="#1F4D67"/>
<path d="M38.538 191.564C38.471 191.564 38.3929 191.53 38.3483 191.463L35.0578 186.667C34.9909 186.567 35.0132 186.422 35.1136 186.355C35.214 186.288 35.359 186.31 35.4259 186.411L38.7164 191.207C38.7833 191.307 38.761 191.452 38.6606 191.519C38.6272 191.553 38.5826 191.564 38.538 191.564Z" fill="#1F4D67"/>
<path d="M38.5383 191.43C38.4937 191.43 38.4491 191.418 38.4156 191.396C38.3152 191.329 38.2929 191.184 38.3598 191.084L41.6503 186.288C41.7173 186.187 41.8623 186.165 41.9627 186.232C42.063 186.299 42.0853 186.444 42.0184 186.544L38.7279 191.34C38.6833 191.396 38.6164 191.43 38.5383 191.43Z" fill="#1F4D67"/>
<path d="M38.538 199.36C38.471 199.36 38.3929 199.327 38.3483 199.26L35.0578 194.464C34.9909 194.363 35.0132 194.218 35.1136 194.151C35.214 194.084 35.359 194.107 35.4259 194.207L38.7164 199.003C38.7833 199.104 38.761 199.249 38.6606 199.316C38.6272 199.349 38.5826 199.36 38.538 199.36Z" fill="#1F4D67"/>
<path d="M38.5383 199.227C38.4937 199.227 38.4491 199.215 38.4156 199.193C38.3152 199.126 38.2929 198.981 38.3598 198.881L41.6503 194.085C41.7173 193.984 41.8623 193.962 41.9627 194.029C42.063 194.096 42.0853 194.241 42.0184 194.341L38.7279 199.137C38.6833 199.193 38.6164 199.227 38.5383 199.227Z" fill="#1F4D67"/>
<path d="M31.9008 214.875C31.9008 214.875 32.4251 203.431 47.0036 196.459C61.5821 189.488 63.9802 203.319 81.7265 183.443C81.7265 183.443 90.6164 174.664 112.189 183.376C133.761 192.087 127.86 192.277 147.782 188.64C167.703 185.004 171.651 183.509 187.803 191.462C203.954 199.415 203.519 195.768 216.781 190.023C220.027 188.618 223.641 189.399 226.597 191.005C229.72 192.7 232.029 195.299 235.096 197.118C238.465 199.125 242.224 200.609 246.15 201.657C254.315 203.844 259.981 206.744 256.892 214.886H31.9008V214.875Z" fill="url(#paint2_linear)"/>
<path d="M256.869 207.871C255.954 206.098 254.17 204.815 251.972 203.811C253.344 204.648 254.437 205.663 255.095 206.934C256.032 208.764 255.988 210.994 254.973 213.749H32.246C32.168 214.173 32.1233 214.497 32.1122 214.686H256.746C257.761 211.92 257.806 209.7 256.869 207.871Z" fill="white"/>
<path d="M277.07 215.099H0.223145C0.100449 215.099 6.10352e-05 214.998 6.10352e-05 214.876C6.10352e-05 214.753 0.100449 214.653 0.223145 214.653H277.07C277.193 214.653 277.293 214.753 277.293 214.876C277.293 214.998 277.204 215.099 277.07 215.099Z" fill="#1F4D67"/>
<path d="M256.289 225.082H204.166C204.043 225.082 203.943 224.981 203.943 224.859C203.943 224.736 204.043 224.636 204.166 224.636H256.289C256.412 224.636 256.512 224.736 256.512 224.859C256.512 224.981 256.412 225.082 256.289 225.082Z" fill="#57DD98"/>
<path d="M244.901 228.974H195.455C195.332 228.974 195.232 228.874 195.232 228.751C195.232 228.628 195.332 228.528 195.455 228.528H244.901C245.024 228.528 245.124 228.628 245.124 228.751C245.124 228.874 245.024 228.974 244.901 228.974Z" fill="#57DD98"/>
<path d="M67.3265 230.436H46.7359C46.6132 230.436 46.5128 230.335 46.5128 230.213C46.5128 230.09 46.6132 229.99 46.7359 229.99H67.3265C67.4492 229.99 67.5496 230.09 67.5496 230.213C67.5496 230.335 67.4492 230.436 67.3265 230.436Z" fill="#57DD98"/>
<path d="M169.61 236.336H149.02C148.897 236.336 148.797 236.235 148.797 236.113C148.797 235.99 148.897 235.89 149.02 235.89H169.61C169.733 235.89 169.833 235.99 169.833 236.113C169.833 236.235 169.733 236.336 169.61 236.336Z" fill="#57DD98"/>
<path d="M102.73 239.582H74.376C74.2533 239.582 74.153 239.482 74.153 239.359C74.153 239.236 74.2533 239.136 74.376 239.136H102.73C102.853 239.136 102.953 239.236 102.953 239.359C102.953 239.482 102.853 239.582 102.73 239.582Z" fill="#57DD98"/>
<path d="M175.567 230.436H163.699C163.576 230.436 163.475 230.335 163.475 230.213C163.475 230.09 163.576 229.99 163.699 229.99H175.567C175.689 229.99 175.79 230.09 175.79 230.213C175.79 230.335 175.689 230.436 175.567 230.436Z" fill="#57DD98"/>
<path d="M136.237 223.966H131.173C131.05 223.966 130.95 223.865 130.95 223.743C130.95 223.62 131.05 223.52 131.173 223.52H136.237C136.36 223.52 136.46 223.62 136.46 223.743C136.46 223.865 136.36 223.966 136.237 223.966Z" fill="#57DD98"/>
<path d="M76.9527 225.082H65.0735C64.9508 225.082 64.8504 224.981 64.8504 224.859C64.8504 224.736 64.9508 224.636 65.0735 224.636H76.9415C77.0642 224.636 77.1646 224.736 77.1646 224.859C77.1646 224.981 77.0754 225.082 76.9527 225.082Z" fill="#57DD98"/>
<path d="M61.0579 120.812C62.1421 120.812 63.021 119.933 63.021 118.849C63.021 117.765 62.1421 116.886 61.0579 116.886C59.9737 116.886 59.0948 117.765 59.0948 118.849C59.0948 119.933 59.9737 120.812 61.0579 120.812Z" fill="white"/>
<path d="M61.0579 121.001C59.8644 121.001 58.9051 120.031 58.9051 118.849C58.9051 117.655 59.8755 116.696 61.0579 116.696C62.2402 116.696 63.2106 117.666 63.2106 118.849C63.2106 120.042 62.2402 121.001 61.0579 121.001ZM61.0579 117.075C60.0763 117.075 59.2844 117.867 59.2844 118.849C59.2844 119.83 60.0763 120.622 61.0579 120.622C62.0394 120.622 62.8314 119.83 62.8314 118.849C62.8202 117.878 62.0283 117.075 61.0579 117.075Z" fill="white"/>
<path d="M58.2916 133.327C58.7352 133.327 59.0947 132.968 59.0947 132.524C59.0947 132.08 58.7352 131.721 58.2916 131.721C57.8481 131.721 57.4885 132.08 57.4885 132.524C57.4885 132.968 57.8481 133.327 58.2916 133.327Z" fill="white"/>
<path d="M58.2918 133.517C57.7453 133.517 57.2991 133.071 57.2991 132.524C57.2991 131.978 57.7453 131.531 58.2918 131.531C58.8384 131.531 59.2845 131.978 59.2845 132.524C59.2845 133.071 58.8384 133.517 58.2918 133.517ZM58.2918 131.922C57.9572 131.922 57.6895 132.19 57.6895 132.524C57.6895 132.859 57.9572 133.127 58.2918 133.127C58.6264 133.127 58.8941 132.859 58.8941 132.524C58.8941 132.19 58.6264 131.922 58.2918 131.922Z" fill="white"/>
<path d="M224.656 174.219C225.1 174.219 225.46 173.859 225.46 173.416C225.46 172.972 225.1 172.613 224.656 172.613C224.213 172.613 223.853 172.972 223.853 173.416C223.853 173.859 224.213 174.219 224.656 174.219Z" fill="white"/>
<path d="M224.656 174.409C224.11 174.409 223.664 173.962 223.664 173.416C223.664 172.869 224.11 172.423 224.656 172.423C225.203 172.423 225.649 172.869 225.649 173.416C225.649 173.962 225.203 174.409 224.656 174.409ZM224.656 172.814C224.322 172.814 224.054 173.081 224.054 173.416C224.054 173.751 224.322 174.018 224.656 174.018C224.991 174.018 225.259 173.751 225.259 173.416C225.259 173.081 224.991 172.814 224.656 172.814Z" fill="white"/>
<path d="M145.863 124.046C146.306 124.046 146.666 123.687 146.666 123.243C146.666 122.8 146.306 122.44 145.863 122.44C145.419 122.44 145.06 122.8 145.06 123.243C145.06 123.687 145.419 124.046 145.863 124.046Z" fill="white"/>
<path d="M145.863 124.226C145.317 124.226 144.87 123.779 144.87 123.233C144.87 122.686 145.317 122.24 145.863 122.24C146.41 122.24 146.856 122.686 146.856 123.233C146.856 123.779 146.399 124.226 145.863 124.226ZM145.863 122.63C145.529 122.63 145.261 122.898 145.261 123.233C145.261 123.567 145.529 123.835 145.863 123.835C146.198 123.835 146.466 123.567 146.466 123.233C146.466 122.909 146.187 122.63 145.863 122.63Z" fill="white"/>
<path d="M156.872 116.151C157.704 116.151 158.378 115.477 158.378 114.645C158.378 113.813 157.704 113.139 156.872 113.139C156.041 113.139 155.367 113.813 155.367 114.645C155.367 115.477 156.041 116.151 156.872 116.151Z" fill="white"/>
<path d="M156.872 116.351C155.935 116.351 155.166 115.593 155.166 114.645C155.166 113.696 155.924 112.938 156.872 112.938C157.809 112.938 158.579 113.696 158.579 114.645C158.579 115.593 157.821 116.351 156.872 116.351ZM156.872 113.328C156.147 113.328 155.556 113.92 155.556 114.645C155.556 115.37 156.147 115.961 156.872 115.961C157.597 115.961 158.189 115.37 158.189 114.645C158.189 113.92 157.609 113.328 156.872 113.328Z" fill="white"/>
<path d="M231.551 162.975C232.382 162.975 233.056 162.301 233.056 161.47C233.056 160.638 232.382 159.964 231.551 159.964C230.719 159.964 230.045 160.638 230.045 161.47C230.045 162.301 230.719 162.975 231.551 162.975Z" fill="white"/>
<path d="M231.55 163.176C230.613 163.176 229.843 162.417 229.843 161.469C229.843 160.532 230.602 159.763 231.55 159.763C232.487 159.763 233.257 160.521 233.257 161.469C233.245 162.406 232.487 163.176 231.55 163.176ZM231.55 160.153C230.825 160.153 230.234 160.744 230.234 161.469C230.234 162.194 230.825 162.785 231.55 162.785C232.275 162.785 232.866 162.194 232.866 161.469C232.866 160.744 232.275 160.153 231.55 160.153Z" fill="white"/>
<path d="M164.882 132.144C165.19 132.144 165.439 131.895 165.439 131.587C165.439 131.279 165.19 131.029 164.882 131.029C164.573 131.029 164.324 131.279 164.324 131.587C164.324 131.895 164.573 132.144 164.882 132.144Z" fill="white"/>
<path d="M164.881 132.335C164.468 132.335 164.134 132 164.134 131.587C164.134 131.175 164.468 130.84 164.881 130.84C165.294 130.84 165.628 131.175 165.628 131.587C165.64 132 165.294 132.335 164.881 132.335ZM164.881 131.219C164.68 131.219 164.513 131.387 164.513 131.587C164.513 131.788 164.68 131.955 164.881 131.955C165.082 131.955 165.249 131.788 165.249 131.587C165.249 131.387 165.082 131.219 164.881 131.219Z" fill="white"/>
<path d="M238.856 181.402C239.164 181.402 239.414 181.153 239.414 180.845C239.414 180.537 239.164 180.287 238.856 180.287C238.548 180.287 238.298 180.537 238.298 180.845C238.298 181.153 238.548 181.402 238.856 181.402Z" fill="white"/>
<path d="M238.856 181.591C238.443 181.591 238.109 181.257 238.109 180.844C238.109 180.431 238.443 180.097 238.856 180.097C239.269 180.097 239.603 180.431 239.603 180.844C239.603 181.257 239.269 181.591 238.856 181.591ZM238.856 180.476C238.655 180.476 238.488 180.643 238.488 180.844C238.488 181.045 238.655 181.212 238.856 181.212C239.057 181.212 239.224 181.045 239.224 180.844C239.224 180.632 239.057 180.476 238.856 180.476Z" fill="white"/>
<path d="M49.3348 119.664C49.6429 119.664 49.8925 119.414 49.8925 119.106C49.8925 118.798 49.6429 118.548 49.3348 118.548C49.0268 118.548 48.7771 118.798 48.7771 119.106C48.7771 119.414 49.0268 119.664 49.3348 119.664Z" fill="white"/>
<path d="M49.3349 119.853C48.9222 119.853 48.5876 119.518 48.5876 119.105C48.5876 118.693 48.9222 118.358 49.3349 118.358C49.7476 118.358 50.0822 118.693 50.0822 119.105C50.0934 119.518 49.7587 119.853 49.3349 119.853ZM49.3349 118.737C49.1341 118.737 48.9668 118.905 48.9668 119.105C48.9668 119.306 49.1341 119.474 49.3349 119.474C49.5357 119.474 49.703 119.306 49.703 119.105C49.703 118.905 49.5468 118.737 49.3349 118.737Z" fill="white"/>
<path d="M121.201 115.503C121.509 115.503 121.759 115.253 121.759 114.945C121.759 114.637 121.509 114.387 121.201 114.387C120.893 114.387 120.644 114.637 120.644 114.945C120.644 115.253 120.893 115.503 121.201 115.503Z" fill="white"/>
<path d="M121.201 115.693C120.788 115.693 120.454 115.358 120.454 114.945C120.454 114.533 120.788 114.198 121.201 114.198C121.614 114.198 121.948 114.533 121.948 114.945C121.948 115.358 121.614 115.693 121.201 115.693ZM121.201 114.577C121 114.577 120.833 114.745 120.833 114.945C120.833 115.146 121 115.313 121.201 115.313C121.402 115.313 121.569 115.146 121.569 114.945C121.569 114.745 121.402 114.577 121.201 114.577Z" fill="white"/>
<path fill-rule="evenodd" clip-rule="evenodd" d="M22.9002 145.809C22.9002 145.809 -1.51626 208.105 22.9002 208.105C47.3167 208.105 22.9002 145.809 22.9002 145.809Z" fill="url(#paint3_linear)"/>
<path d="M22.8996 208.328C19.2633 208.328 16.4748 206.956 14.6344 204.234C12.4704 201.055 11.5446 195.991 11.9016 189.187C12.1804 183.766 13.2735 177.23 15.1251 169.745C18.2818 157.018 22.6542 145.831 22.6988 145.719C22.7323 145.63 22.8104 145.574 22.9107 145.574C23.0111 145.574 23.0892 145.63 23.1227 145.719C23.1673 145.831 27.5286 157.018 30.6964 169.745C32.5591 177.219 33.6411 183.766 33.9199 189.187C34.2769 195.991 33.3511 201.055 31.1871 204.234C29.3244 206.956 26.5359 208.328 22.8996 208.328ZM22.8996 146.433C21.9961 148.82 18.3152 158.758 15.5601 169.868C13.7086 177.319 12.6266 183.833 12.3477 189.22C12.002 195.924 12.8943 200.899 15.0024 203.989C16.7648 206.576 19.4195 207.881 22.8996 207.881C26.3797 207.881 29.0344 206.565 30.7968 203.989C32.9049 200.888 33.7972 195.924 33.4514 189.209C33.1726 183.822 32.0906 177.308 30.239 169.857C27.484 158.747 23.8031 148.82 22.8996 146.433Z" fill="#1F4D67"/>
<path fill-rule="evenodd" clip-rule="evenodd" d="M33.463 189.21C33.2399 184.993 32.5372 180.085 31.3437 174.586C32.3922 179.662 33.028 184.201 33.2287 188.15C33.5745 194.854 32.6822 199.828 30.5741 202.929C28.8117 205.517 26.157 206.822 22.6769 206.822C19.1968 206.822 16.5421 205.506 14.7797 202.929C13.8986 201.646 13.2405 200.04 12.7831 198.111C13.2293 200.509 13.9655 202.472 15.0028 203.989C16.7652 206.577 19.4199 207.882 22.9 207.882C26.3801 207.882 29.0348 206.565 30.7971 203.989C32.9164 200.888 33.8088 195.924 33.463 189.21Z" fill="white"/>
<path d="M22.9001 214.921C22.7775 214.921 22.6771 214.82 22.6771 214.697V165.24C22.6771 165.117 22.7775 165.017 22.9001 165.017C23.0228 165.017 23.1232 165.117 23.1232 165.24V214.697C23.1232 214.82 23.0228 214.921 22.9001 214.921Z" fill="#1F4D67"/>
<path d="M22.9002 180.699C22.8333 180.699 22.7552 180.666 22.7106 180.599L18.8512 174.966C18.7843 174.866 18.8066 174.721 18.907 174.654C19.0074 174.587 19.1524 174.609 19.2193 174.709L23.0787 180.342C23.1456 180.443 23.1233 180.588 23.0229 180.655C22.9894 180.688 22.9448 180.699 22.9002 180.699Z" fill="#1F4D67"/>
<path d="M22.9003 180.532C22.8556 180.532 22.811 180.521 22.7776 180.498C22.6772 180.431 22.6549 180.286 22.7218 180.186L26.5811 174.553C26.6481 174.453 26.7931 174.43 26.8934 174.497C26.9938 174.564 27.0161 174.709 26.9492 174.81L23.0899 180.443C23.0453 180.498 22.9672 180.532 22.9003 180.532Z" fill="#1F4D67"/>
<path d="M22.9002 189.857C22.8333 189.857 22.7552 189.824 22.7106 189.757L18.8512 184.124C18.7843 184.023 18.8066 183.878 18.907 183.811C19.0074 183.745 19.1524 183.767 19.2193 183.867L23.0787 189.5C23.1456 189.6 23.1233 189.745 23.0229 189.812C22.9894 189.835 22.9448 189.857 22.9002 189.857Z" fill="#1F4D67"/>
<path d="M22.9003 189.689C22.8556 189.689 22.811 189.678 22.7776 189.656C22.6772 189.589 22.6549 189.444 22.7218 189.343L26.5811 183.71C26.6481 183.61 26.7931 183.588 26.8934 183.655C26.9938 183.722 27.0161 183.867 26.9492 183.967L23.0899 189.6C23.0453 189.656 22.9672 189.689 22.9003 189.689Z" fill="#1F4D67"/>
<path d="M22.9002 199.003C22.8333 199.003 22.7552 198.969 22.7106 198.902L18.8512 193.27C18.7843 193.169 18.8066 193.024 18.907 192.957C19.0074 192.89 19.1524 192.913 19.2193 193.013L23.0787 198.646C23.1456 198.746 23.1233 198.891 23.0229 198.958C22.9894 198.992 22.9448 199.003 22.9002 199.003Z" fill="#1F4D67"/>
<path d="M22.9003 198.836C22.8556 198.836 22.811 198.825 22.7776 198.802C22.6772 198.736 22.6549 198.591 22.7218 198.49L26.5811 192.857C26.6481 192.757 26.7931 192.735 26.8934 192.801C26.9938 192.868 27.0161 193.013 26.9492 193.114L23.0899 198.747C23.0453 198.802 22.9672 198.836 22.9003 198.836Z" fill="#1F4D67"/>
<path d="M63.371 215.078H217.187L220.105 197.942C220.105 197.942 220.105 182.444 220.105 178.874C220.105 175.304 201.518 171.104 201.518 171.104C201.518 171.104 190.805 156.698 187.367 153.842C183.61 150.692 172.058 150.146 158.547 150.146C145.076 150.146 128.927 152.708 119.013 156.698C109.1 160.688 92.0317 174.758 92.0317 174.758C92.0317 174.758 67.2884 178.874 62.6515 181.772C57.8148 184.796 55.3764 189.038 54.8168 192.566C54.2572 196.094 54.8168 207.224 54.8168 207.224L63.371 215.078Z" fill="#FFE48E"/>
<path d="M63.371 215.078L54.8568 207.224C54.8568 207.224 54.3771 197.732 54.7368 193.49L58.1346 191.348L73.0845 184.838H220.105C220.105 190.592 220.105 197.942 220.105 197.942L217.187 215.078H63.371Z" fill="#F8D872"/>
<path d="M54.8567 206.006H76.762L77.3216 215.918C77.3216 215.918 64.7701 215.918 62.0119 215.918C59.2538 215.918 51.4191 206.006 54.8567 206.006Z" fill="#5A5054"/>
<path d="M98.7471 216.044H181.611L179.093 209.744H100.026L98.7471 216.044Z" fill="#5A5054"/>
<path d="M203.157 205.334C203.157 205.334 218.147 204.41 219.066 204.536C219.985 204.62 221.384 205.544 221.944 206.342C222.504 207.14 218.706 216.884 217.787 217.304C216.867 217.724 201.078 217.304 201.078 217.304L203.157 205.334Z" fill="#5A5054"/>
<path d="M192.204 223.898C184.698 223.898 178.613 217.505 178.613 209.618C178.613 201.731 184.698 195.338 192.204 195.338C199.71 195.338 205.795 201.731 205.795 209.618C205.795 217.505 199.71 223.898 192.204 223.898Z" fill="#5A5054"/>
<path d="M192.204 218.438C187.568 218.438 183.81 214.489 183.81 209.618C183.81 204.747 187.568 200.798 192.204 200.798C196.84 200.798 200.598 204.747 200.598 209.618C200.598 214.489 196.84 218.438 192.204 218.438Z" fill="white"/>
<path d="M189.069 210.401C188.658 208.573 189.735 206.74 191.476 206.308C193.216 205.877 194.96 207.009 195.371 208.837C195.782 210.666 194.704 212.498 192.964 212.93C191.224 213.362 189.48 212.23 189.069 210.401Z" fill="#5A5054"/>
<path d="M87.5547 223.898C80.0487 223.898 73.9639 217.505 73.9639 209.618C73.9639 201.731 80.0487 195.338 87.5547 195.338C95.0607 195.338 101.146 201.731 101.146 209.618C101.146 217.505 95.0607 223.898 87.5547 223.898Z" fill="#5A5054"/>
<path d="M87.5547 218.438C82.9186 218.438 79.1604 214.489 79.1604 209.618C79.1604 204.747 82.9186 200.798 87.5547 200.798C92.1908 200.798 95.949 204.747 95.949 209.618C95.949 214.489 92.1908 218.438 87.5547 218.438Z" fill="white"/>
<path d="M85.2736 212.021C84.0092 210.693 84.0092 208.539 85.2736 207.21C86.538 205.881 88.5881 205.881 89.8525 207.21C91.1169 208.539 91.1169 210.693 89.8525 212.021C88.5881 213.35 86.538 213.35 85.2736 212.021Z" fill="#5A5054"/>
<path d="M148.034 155.102L146.475 175.514L100.706 176.816C100.706 176.816 115.696 155.9 148.034 155.102Z" fill="white"/>
<path d="M153.31 175.724L153.71 155.018C153.71 155.018 177.974 154.472 182.011 156.824C185.609 158.924 192.164 171.356 192.164 171.356C192.164 171.356 187.527 177.194 153.31 175.724Z" fill="white"/>
<path d="M110.099 178.622H102.744C101.465 178.622 100.426 177.53 100.426 176.186V173.33C100.426 171.986 101.465 170.894 102.744 170.894H110.099C111.379 170.894 112.418 171.986 112.418 173.33V176.186C112.418 177.53 111.379 178.622 110.099 178.622Z" fill="#F8D872"/>
<path d="M143.717 183.452H137.521C136.881 183.452 136.322 182.906 136.322 182.192V181.982C136.322 181.31 136.841 180.722 137.521 180.722H143.717C144.356 180.722 144.916 181.268 144.916 181.982V182.192C144.916 182.864 144.396 183.452 143.717 183.452Z" fill="#5A5054"/>
<path d="M186.648 183.452H180.452C179.812 183.452 179.253 182.906 179.253 182.192V181.982C179.253 181.31 179.772 180.722 180.452 180.722H186.648C187.287 180.722 187.847 181.268 187.847 181.982V182.192C187.807 182.864 187.287 183.452 186.648 183.452Z" fill="#5A5054"/>
<path d="M77.3616 182.276C77.3616 182.276 71.5255 192.776 58.1345 191.306C58.1345 191.348 61.972 180.68 77.3616 182.276Z" fill="white"/>
<path d="M220.345 178.916C221.025 179.252 220.865 191.012 220.585 192.944C220.305 194.876 214.589 194.876 214.149 194.33C213.71 193.784 213.07 187.022 213.11 185.804C213.15 181.73 218.107 177.824 220.345 178.916Z" fill="#F9E7B1"/>
<path d="M139.919 158.546C140.319 158.168 140.919 158.126 141.318 158.546C142.518 159.806 143.677 161.024 144.876 162.284C144.916 162.326 144.956 162.368 144.996 162.41L145.036 162.452C145.396 162.83 145.436 163.502 145.036 163.88C144.636 164.258 144.037 164.3 143.677 163.88L143.637 163.838C143.597 163.796 143.557 163.754 143.517 163.712C142.318 162.452 141.158 161.234 139.959 159.974C139.56 159.596 139.52 158.924 139.919 158.546Z" fill="#E8EAEF"/>
<path d="M132.085 159.344C132.764 158.672 133.843 158.63 134.563 159.344C135.482 160.31 136.402 161.276 137.321 162.242C139.72 164.762 142.118 167.24 144.476 169.802C144.796 170.138 144.956 170.642 144.956 171.146C145.356 172.196 144.236 173.372 143.277 172.91C142.837 172.91 142.398 172.742 142.038 172.406C139.6 169.928 137.241 167.408 134.843 164.888C133.923 163.922 133.004 162.956 132.085 161.99C131.445 161.276 131.405 160.016 132.085 159.344Z" fill="#E8EAEF"/>
<path d="M176.735 157.958C177.334 157.37 178.094 157.454 178.733 157.958C179.373 158.504 179.932 159.176 180.532 159.806C181.132 160.436 181.731 161.108 182.331 161.78C183.49 163.082 184.689 164.384 185.848 165.686C186.328 166.19 186.328 167.114 185.848 167.576C185.329 168.08 184.569 168.08 184.05 167.576C182.81 166.358 181.571 165.098 180.332 163.88C179.733 163.25 179.133 162.662 178.533 162.032C177.934 161.402 177.254 160.772 176.735 160.1C176.255 159.47 176.135 158.546 176.735 157.958Z" fill="#E8EAEF"/>
<path d="M165.422 156.782C166.262 155.984 167.541 155.9 168.38 156.782C172.617 161.234 177.014 165.644 180.932 170.432C181.531 171.188 181.691 172.364 180.932 173.12C180.252 173.75 179.053 173.918 178.373 173.12C173.817 169.004 169.659 164.384 165.382 159.932C164.663 159.05 164.583 157.58 165.422 156.782Z" fill="#E8EAEF"/>
<path d="M66.8486 185.426C66.9286 185.09 67.1285 184.754 67.3683 184.502C67.4882 184.376 67.6481 184.292 67.768 184.166C68.0878 183.956 68.4076 183.872 68.7673 183.872C69.0472 183.872 69.287 183.914 69.5268 184.04C69.7667 184.124 70.0065 184.25 70.1664 184.46C70.3663 184.67 70.4862 184.88 70.5661 185.132C70.6861 185.384 70.766 185.636 70.726 185.93C70.686 186.098 70.686 186.308 70.6461 186.476C70.5661 186.854 70.3663 187.148 70.1264 187.4C70.0065 187.526 69.8466 187.61 69.7267 187.736C69.4069 187.946 69.0871 188.03 68.7274 188.03C68.4476 188.03 68.2077 187.988 67.9679 187.862C67.728 187.778 67.4882 187.652 67.3283 187.442C67.1284 187.232 67.0085 187.022 66.9286 186.77C66.8087 186.518 66.7287 186.266 66.7687 185.972C66.8087 185.804 66.8486 185.636 66.8486 185.426Z" fill="#F9E7B1"/>
<path d="M63.1711 187.652C63.2511 187.4 63.371 187.19 63.5309 187.022C63.6108 186.938 63.7307 186.854 63.8107 186.812C64.0105 186.686 64.2504 186.602 64.5302 186.602C64.7301 186.602 64.89 186.644 65.0898 186.728C65.2497 186.77 65.4096 186.896 65.5295 187.022C65.6494 187.148 65.7694 187.316 65.8093 187.484C65.8893 187.652 65.9293 187.862 65.9293 188.072C65.9293 188.198 65.8893 188.324 65.8893 188.45C65.8093 188.702 65.6894 188.912 65.5295 189.08C65.4496 189.164 65.3297 189.248 65.2497 189.29C65.0498 189.416 64.81 189.5 64.5302 189.5C64.3303 189.5 64.1704 189.458 63.9706 189.374C63.8107 189.332 63.6508 189.206 63.5309 189.08C63.411 188.954 63.291 188.786 63.2511 188.618C63.1711 188.45 63.1311 188.24 63.1311 188.03C63.1311 187.904 63.1312 187.778 63.1711 187.652Z" fill="#F9E7B1"/>
<defs>
<linearGradient id="paint0_linear" x1="256.482" y1="145.842" x2="256.482" y2="208.138" gradientUnits="userSpaceOnUse">
<stop stop-color="#6EAA58"/>
<stop offset="1" stop-color="#649E67"/>
</linearGradient>
<linearGradient id="paint1_linear" x1="38.5381" y1="154.03" x2="38.5381" y2="207.09" gradientUnits="userSpaceOnUse">
<stop stop-color="#6FAC55"/>
<stop offset="1" stop-color="#639D68"/>
</linearGradient>
<linearGradient id="paint2_linear" x1="144.824" y1="179.521" x2="144.824" y2="214.886" gradientUnits="userSpaceOnUse">
<stop stop-color="#C6F4C6"/>
<stop offset="1" stop-color="#FAFEFA"/>
</linearGradient>
<linearGradient id="paint3_linear" x1="22.9002" y1="145.809" x2="22.9002" y2="208.105" gradientUnits="userSpaceOnUse">
<stop stop-color="#5C9572"/>
<stop offset="1" stop-color="#71AE52"/>
</linearGradient>
</defs>
</svg>
