<svg width="48" height="24" viewBox="0 0 48 24" fill="none" xmlns="http://www.w3.org/2000/svg">
<path d="M46.2 21.2C46.2 21.7523 45.7523 22.2 45.2 22.2H26.8C26.2477 22.2 25.8 21.7523 25.8 21.2V2.8C25.8 2.24771 26.2477 1.8 26.8 1.8H41.7667C42.2637 1.8 42.6667 1.39706 42.6667 0.9C42.6667 0.402944 42.2637 0 41.7667 0H26.6667C25.2 0 24 1.2 24 2.66667V21.3333C24 22.8 25.2 24 26.6667 24H45.3333C46.8 24 48 22.8 48 21.3333V10.2333C48 9.73628 47.5971 9.33333 47.1 9.33333C46.6029 9.33333 46.2 9.73628 46.2 10.2333V21.2Z" fill="#00A550"/>
<path d="M31.0891 12.2842C30.6878 11.8899 30.0357 11.8899 29.6345 12.2842C29.2332 12.6785 29.2332 13.3192 29.6345 13.7135L34.3747 18.371C34.5753 18.5681 34.8261 18.6667 35.102 18.6667C35.1271 18.6667 35.1271 18.6667 35.1521 18.6667C35.428 18.642 35.7039 18.5188 35.9046 18.297L47.7676 4.32449C48.1187 3.90556 48.0686 3.26485 47.6422 2.8952C47.2158 2.5502 46.5637 2.59949 46.1875 3.01842L35.0267 16.1531L31.0891 12.2842Z" fill="#00A550"/>
<path d="M22.2 21.2C22.2 21.7523 21.7523 22.2 21.2 22.2H2.8C2.24771 22.2 1.8 21.7523 1.8 21.2V2.8C1.8 2.24771 2.24772 1.8 2.8 1.8H17.7667C18.2637 1.8 18.6667 1.39706 18.6667 0.9C18.6667 0.402944 18.2637 0 17.7667 0H2.66667C1.2 0 0 1.2 0 2.66667V21.3333C0 22.8 1.2 24 2.66667 24H21.3333C22.8 24 24 22.8 24 21.3333V10.2333C24 9.73628 23.5971 9.33333 23.1 9.33333C22.6029 9.33333 22.2 9.73628 22.2 10.2333V21.2Z" fill="#141414"/>
</svg>
