<svg width="20" height="20" viewBox="0 0 24 24" fill="none" xmlns="http://www.w3.org/2000/svg">
<path d="M22.2 21.2C22.2 21.7523 21.7523 22.2 21.2 22.2H2.8C2.24771 22.2 1.8 21.7523 1.8 21.2V2.8C1.8 2.24771 2.24772 1.8 2.8 1.8H17.7667C18.2637 1.8 18.6667 1.39706 18.6667 0.9C18.6667 0.402944 18.2637 0 17.7667 0H2.66667C1.2 0 0 1.2 0 2.66667V21.3333C0 22.8 1.2 24 2.66667 24H21.3333C22.8 24 24 22.8 24 21.3333V10.2333C24 9.73628 23.5971 9.33333 23.1 9.33333C22.6029 9.33333 22.2 9.73628 22.2 10.2333V21.2Z" fill="#141414"/>
</svg>
