<svg width="24" height="24" viewBox="0 0 24 24" fill="none" xmlns="http://www.w3.org/2000/svg">
<path fill-rule="evenodd" clip-rule="evenodd" d="M6.82784 4.98114H2.1978C0.996337 4.98114 0 5.94624 0 7.17454V19.1066C0 20.3057 0.996337 21.3 2.1978 21.3H21.8022C23.0037 21.3 24 20.3057 24 19.1066V7.17454C24 5.97548 23.0037 4.98114 21.8022 4.98114H17.1722V4.27926C17.1722 3.4019 16.4689 2.70001 15.5897 2.70001H8.41026C7.53114 2.70001 6.82784 3.4019 6.82784 4.27926V4.98114ZM12 8.69299C13.3134 8.69299 14.5075 9.17508 15.3731 9.99746C16.209 10.8199 16.7463 11.9542 16.7761 13.2303C16.7761 14.4781 16.2388 15.6124 15.3731 16.4348C14.5075 17.2572 13.3134 17.7676 12 17.7676C10.6866 17.7676 9.49254 17.2572 8.62687 16.4348C7.76119 15.6124 7.22388 14.4781 7.22388 13.2303C7.22388 11.9825 7.76119 10.8482 8.62687 10.0258C9.49254 9.20343 10.6866 8.69299 12 8.69299ZM16.2388 9.17508C15.1642 8.12582 13.6418 7.50194 12 7.50194C10.3582 7.50194 8.83582 8.12582 7.76119 9.17508C6.65672 10.196 6 11.6422 6 13.2019C6 14.7616 6.68657 16.2079 7.76119 17.2288C8.83582 18.2781 10.3582 18.9019 12 18.9019C13.6418 18.9019 15.1642 18.2497 16.2388 17.2288C17.3433 16.2079 18 14.7616 18 13.2019C18 11.6422 17.3134 10.196 16.2388 9.17508ZM20.5715 9.55674C21.2189 9.55674 21.7437 9.03195 21.7437 8.38458C21.7437 7.73721 21.2189 7.21242 20.5715 7.21242C19.9242 7.21242 19.3994 7.73721 19.3994 8.38458C19.3994 9.03195 19.9242 9.55674 20.5715 9.55674ZM15.2387 13.1629C15.2387 14.9431 13.7955 16.3863 12.0153 16.3863C10.235 16.3863 8.79182 14.9431 8.79182 13.1629C8.79182 11.3826 10.235 9.93944 12.0153 9.93944C13.7955 9.93944 15.2387 11.3826 15.2387 13.1629Z" fill="#6E6E6E"/>
</svg>
