<svg width="240" height="240" viewBox="0 0 240 240" fill="none" xmlns="http://www.w3.org/2000/svg"><path d="M235.5 9.705c-2.491 0-4.5-2.137-4.5-4.786 0-2.65 2.009-4.786 4.5-4.786s4.5 2.136 4.5 4.786c0 2.65-2.009 4.786-4.5 4.786zm0 35.085c-2.491 0-4.5-2.137-4.5-4.786 0-2.65 2.009-4.786 4.5-4.786s4.5 2.136 4.5 4.786c0 2.65-2.009 4.786-4.5 4.786zm0 35.128c-2.491 0-4.5-2.137-4.5-4.787s2.009-4.786 4.5-4.786 4.5 2.137 4.5 4.786c0 2.65-2.009 4.787-4.5 4.787zm0 35.084c-2.491 0-4.5-2.136-4.5-4.786 0-2.649 2.009-4.786 4.5-4.786s4.5 2.137 4.5 4.786c0 2.65-2.009 4.786-4.5 4.786zm0 35.085c-2.491 0-4.5-2.137-4.5-4.786 0-2.65 2.009-4.786 4.5-4.786s4.5 2.136 4.5 4.786c0 2.649-2.009 4.786-4.5 4.786zm0 35.128c-2.491 0-4.5-2.137-4.5-4.787 0-2.649 2.009-4.786 4.5-4.786s4.5 2.137 4.5 4.786c0 2.65-2.009 4.787-4.5 4.787zM207.001 5.045c.062-2.643-1.901-4.838-4.386-4.904-2.485-.066-4.549 2.022-4.611 4.665-.063 2.642 1.901 4.838 4.386 4.904 2.485.066 4.549-2.022 4.611-4.665zm.029 35.098c.062-2.643-1.901-4.838-4.386-4.904-2.485-.066-4.549 2.022-4.611 4.665-.063 2.642 1.901 4.838 4.386 4.904 2.485.066 4.549-2.023 4.611-4.665zm-.011 35.097c.062-2.643-1.901-4.839-4.386-4.905-2.485-.066-4.549 2.023-4.611 4.666-.062 2.642 1.901 4.838 4.386 4.904 2.485.066 4.549-2.023 4.611-4.665zm-4.508 39.762c-2.491 0-4.5-2.136-4.5-4.786 0-2.649 2.009-4.786 4.5-4.786 2.492 0 4.501 2.137 4.501 4.786 0 2.65-2.009 4.786-4.501 4.786zm4.492 30.398c.054-2.642-1.917-4.831-4.402-4.889-2.485-.057-4.543 2.039-4.597 4.681-.054 2.643 1.917 4.832 4.402 4.89 2.484.057 4.543-2.039 4.597-4.682zm-4.492 39.815c-2.491 0-4.5-2.137-4.5-4.787 0-2.649 2.009-4.786 4.5-4.786 2.492 0 4.501 2.137 4.501 4.786 0 2.65-2.009 4.787-4.501 4.787zm32.989 28.717c-2.491 0-4.5-2.137-4.5-4.786 0-2.65 2.009-4.786 4.5-4.786s4.5 2.136 4.5 4.786c0 2.649-2.009 4.786-4.5 4.786zm0 26.068c-2.491 0-4.5-2.137-4.5-4.786 0-2.65 2.009-4.786 4.5-4.786s4.5 2.136 4.5 4.786c0 2.649-2.009 4.786-4.5 4.786zm-28.507-30.704c.057-2.642-1.912-4.833-4.396-4.893-2.485-.06-4.545 2.033-4.601 4.676-.057 2.642 1.912 4.833 4.396 4.893 2.485.06 4.545-2.033 4.601-4.676zM169.637 9.702c2.485-.074 4.443-2.275 4.374-4.917-.069-2.643-2.139-4.725-4.623-4.652-2.485.073-4.443 2.275-4.374 4.917.069 2.642 2.139 4.725 4.623 4.652zm.002 35.127c2.484-.074 4.442-2.275 4.373-4.918-.069-2.642-2.139-4.724-4.623-4.651-2.485.073-4.443 2.275-4.374 4.917.069 2.642 2.139 4.725 4.624 4.652zm-.001 35.084c2.484-.073 4.443-2.275 4.374-4.917-.069-2.642-2.139-4.725-4.624-4.652-2.484.074-4.442 2.275-4.373 4.917.069 2.643 2.139 4.725 4.623 4.652zm-.115 35.089c-2.492 0-4.501-2.136-4.501-4.786 0-2.649 2.009-4.786 4.501-4.786 2.491 0 4.5 2.137 4.5 4.786 0 2.65-2.009 4.786-4.5 4.786zm.096 35.08c2.484-.063 4.451-2.257 4.391-4.899-.059-2.643-2.121-4.734-4.606-4.671-2.484.063-4.451 2.256-4.391 4.899.059 2.642 2.121 4.733 4.606 4.671zm-.096 35.133c-2.492 0-4.501-2.137-4.501-4.787 0-2.649 2.009-4.786 4.501-4.786 2.491 0 4.5 2.137 4.5 4.786 0 2.65-2.009 4.787-4.5 4.787zM136.61 9.702c2.484-.073 4.442-2.274 4.373-4.917-.069-2.642-2.139-4.724-4.623-4.651-2.485.073-4.443 2.275-4.374 4.917.069 2.642 2.139 4.725 4.624 4.651zm0 35.128c2.484-.074 4.443-2.275 4.374-4.918-.069-2.642-2.139-4.724-4.624-4.651-2.484.073-4.442 2.275-4.373 4.917.069 2.642 2.139 4.725 4.623 4.652zm0 35.084c2.484-.074 4.443-2.275 4.374-4.917-.069-2.643-2.139-4.725-4.624-4.652-2.484.073-4.442 2.275-4.373 4.917.069 2.643 2.139 4.725 4.623 4.652zm-.116 35.088c-2.491 0-4.5-2.136-4.5-4.786 0-2.649 2.009-4.786 4.5-4.786 2.492 0 4.501 2.137 4.501 4.786 0 2.65-2.009 4.786-4.501 4.786zm.096 35.08c2.485-.063 4.451-2.256 4.392-4.898-.059-2.643-2.121-4.734-4.606-4.671-2.484.063-4.451 2.256-4.392 4.898.06 2.643 2.122 4.734 4.606 4.671zM103.622 9.702c2.484-.073 4.442-2.275 4.373-4.917-.069-2.642-2.139-4.725-4.623-4.652-2.485.074-4.443 2.275-4.374 4.918.07 2.642 2.139 4.724 4.624 4.651zm0 35.128c2.485-.074 4.443-2.276 4.374-4.918-.069-2.642-2.139-4.725-4.623-4.651-2.485.073-4.443 2.274-4.374 4.917.07 2.642 2.139 4.725 4.623 4.651zm0 35.083c2.484-.073 4.442-2.274 4.373-4.917-.069-2.642-2.139-4.725-4.623-4.651-2.484.073-4.443 2.275-4.374 4.917.07 2.642 2.139 4.725 4.624 4.651zm-.116 35.089c-2.491 0-4.5-2.136-4.5-4.786 0-2.649 2.009-4.786 4.5-4.786s4.5 2.137 4.5 4.786c0 2.65-2.009 4.786-4.5 4.786zM70.634 9.702c2.484-.074 4.442-2.275 4.373-4.917C74.938 2.142 72.868.06 70.384.133 67.9.206 65.94 2.408 66.01 5.05c.07 2.643 2.14 4.725 4.624 4.652zm0 35.127c2.485-.074 4.443-2.275 4.374-4.917-.069-2.643-2.139-4.725-4.623-4.652-2.485.074-4.443 2.275-4.374 4.917.07 2.643 2.139 4.725 4.623 4.652zm0 35.084c2.484-.073 4.442-2.275 4.373-4.917-.069-2.642-2.139-4.725-4.623-4.652-2.484.074-4.443 2.275-4.374 4.918.07 2.642 2.14 4.724 4.624 4.651zM37.645 9.701c2.485-.073 4.443-2.274 4.374-4.917C41.95 2.142 39.88.06 37.396.133c-2.485.073-4.443 2.275-4.374 4.917.069 2.642 2.139 4.725 4.623 4.651zm.001 35.127c2.485-.073 4.443-2.274 4.374-4.917-.069-2.642-2.139-4.724-4.623-4.651-2.485.073-4.443 2.275-4.374 4.917.069 2.642 2.139 4.725 4.623 4.651zM4.5 9.705C6.986 9.705 9 7.562 9 4.92S6.986.133 4.5.133C2.015.133 0 2.276 0 4.919s2.015 4.786 4.5 4.786z" opacity=".5" fill="#fff"/></svg>