<svg width="193" height="36" viewBox="0 0 193 36" fill="none" xmlns="http://www.w3.org/2000/svg">
<path fill-rule="evenodd" clip-rule="evenodd" d="M100.764 25.0293V10.7422H113.336C114.435 10.7422 115.3 10.9721 115.848 11.433C116.32 11.8167 116.635 12.5847 116.635 13.5076V16.7335C116.635 17.6558 116.32 18.4233 115.848 18.807C115.3 19.2685 114.435 19.4978 113.336 19.4978H104.142V25.0293H100.764ZM111.764 13.2H104.142V17.0394H111.764C112.392 17.0394 112.785 16.9645 113.022 16.7335C113.179 16.5797 113.336 16.272 113.336 15.8883V14.3517C113.336 13.9675 113.179 13.6598 113.022 13.5076C112.785 13.2772 112.392 13.2 111.764 13.2Z" fill="#828282"/>
<path fill-rule="evenodd" clip-rule="evenodd" d="M119.486 25.0293V10.7422H131.98C133.16 10.7422 134.022 10.9721 134.57 11.433C135.044 11.8167 135.359 12.5847 135.359 13.5076V16.8868C135.359 17.8846 135.044 18.5777 134.57 18.9614C134.022 19.4218 133.16 19.6522 131.98 19.6522H130.094L136.853 25.0293H131.98L126.088 19.6522H122.863V25.0293H119.486ZM130.488 13.2H122.863V17.1944H130.488C131.114 17.1944 131.509 17.1166 131.743 16.9645C131.9 16.8101 132.06 16.5025 132.06 16.0427V14.3517C132.06 13.9675 131.9 13.6598 131.743 13.5076C131.509 13.2772 131.114 13.2 130.488 13.2Z" fill="#828282"/>
<path fill-rule="evenodd" clip-rule="evenodd" d="M139.367 25.0293V10.7422H154.372V13.2H142.823V16.3492H149.579V18.807H142.823V22.3404H154.529V25.0293H139.367Z" fill="#828282"/>
<path fill-rule="evenodd" clip-rule="evenodd" d="M170.494 13.2772H160.909V16.3492H170.024C171.437 16.3492 172.459 16.5797 172.931 17.04C173.478 17.5021 173.716 18.4233 173.716 19.7294V21.6503C173.716 22.9541 173.478 23.876 172.931 24.338C172.459 24.7989 171.437 25.0293 170.024 25.0293H160.991C159.574 25.0293 158.635 24.7989 158.081 24.338C157.612 23.876 157.375 22.9541 157.375 21.6503V21.2648L160.363 20.6512V22.3404H170.653V19.1146H161.539C160.126 19.1146 159.184 18.8842 158.712 18.3466C158.16 17.8846 157.923 17.04 157.923 15.7344V14.1219C157.923 12.8163 158.16 11.9711 158.712 11.5102C159.184 10.9721 160.126 10.7422 161.539 10.7422H169.866C171.28 10.7422 172.223 10.9721 172.695 11.433C173.242 11.8939 173.478 12.7391 173.478 13.8903V14.1991L170.494 14.8892V13.2772Z" fill="#828282"/>
<path fill-rule="evenodd" clip-rule="evenodd" d="M189.855 13.2772H180.273V16.3492H189.387C190.801 16.3492 191.744 16.5797 192.291 17.04C192.764 17.5021 193 18.4233 193 19.7294V21.6503C193 22.9541 192.764 23.876 192.291 24.338C191.744 24.7989 190.801 25.0293 189.387 25.0293H180.352C178.938 25.0293 177.919 24.7989 177.444 24.338C176.892 23.876 176.66 22.9541 176.66 21.6503V21.2648L179.648 20.6512V22.3404H190.013V19.1146H180.901C179.488 19.1146 178.543 18.8842 177.996 18.3466C177.524 17.8846 177.287 17.04 177.287 15.7344V14.1219C177.287 12.8163 177.524 11.9711 177.996 11.5102C178.543 10.9721 179.488 10.7422 180.901 10.7422H189.228C190.565 10.7422 191.506 10.9721 192.056 11.433C192.606 11.8939 192.844 12.7391 192.844 13.8903V14.1991L189.855 14.8892V13.2772Z" fill="#828282"/>
<path fill-rule="evenodd" clip-rule="evenodd" d="M78.6279 25.0293L85.5415 17.732L78.4707 10.7422H83.0278L87.6651 15.5807L92.1409 10.7422H95.9898L89.6278 17.3477L97.5625 25.0293H92.9269L87.5867 19.4978L82.6347 25.0293H78.6279Z" fill="#828282"/>
<path fill-rule="evenodd" clip-rule="evenodd" d="M8.48558 25.0293L0 10.7422H3.92844L9.82079 21.1116L15.4769 10.7422H18.8549L10.8419 25.0293H8.48558Z" fill="#828282"/>
<path fill-rule="evenodd" clip-rule="evenodd" d="M21.5215 25.0293V10.7422H23.7994L34.0904 19.1913C34.484 19.4978 34.7999 19.7288 35.0344 19.9599C35.349 20.1898 35.5841 20.4968 35.8205 20.7284C35.7415 19.9599 35.662 19.3446 35.662 19.0386V18.2689V10.7422H38.7272V25.0293H36.3714L25.606 16.196C25.3721 15.9655 25.1352 15.8116 24.9779 15.5807C24.7416 15.4273 24.5879 15.2741 24.4299 15.0436C24.5082 15.504 24.5082 15.8883 24.5082 16.3492C24.5879 16.7335 24.5879 17.0394 24.5879 17.3477V25.0293H21.5215Z" fill="#828282"/>
<path fill-rule="evenodd" clip-rule="evenodd" d="M75 34.2858C75 35.2326 74.2087 36 73.2322 36H43.7679C42.7915 36 42 35.2326 42 34.2858V1.71428C42 0.767429 42.7915 0 43.7679 0H73.2322C74.2087 0 75 0.767429 75 1.71428V34.2858Z" fill="#9F224E"/>
<path fill-rule="evenodd" clip-rule="evenodd" d="M52.6812 13.7846V14.3564V15.4402H54.7253H60.8691V20.5868H54.7253H52.6812V21.7905V22.3624V23.506V25.2217V26.8771H54.7253H70.2267V31.452H54.0205H46.8328V4.57493H54.0205H70.2267V9.14973H54.7253H52.6812V10.9253V12.6409V13.7846ZM54.4358 10.8653H70.3963C71.3649 10.8653 71.9813 10.1568 71.9813 9.20978V4.63498C71.9813 3.68799 71.3649 2.85938 70.3963 2.85938H54.0205H47.0023C46.0332 2.85938 45.0781 3.68799 45.0781 4.63498V31.5121C45.0781 32.459 46.0332 33.1675 47.0023 33.1675H54.0205H70.3963C71.3649 33.1675 71.9813 32.459 71.9813 31.5121V26.9372C71.9813 25.9902 71.3649 25.1616 70.3963 25.1616H54.4358V23.506V22.3023H61.0387C62.0072 22.3023 62.6236 21.5938 62.6236 20.6468V15.5001C62.6236 14.5531 62.0072 13.7245 61.0387 13.7245H54.4358V12.6409V10.8653Z" fill="white"/>
</svg>
