<svg width="24" height="24" viewBox="0 0 24 24" fill="none" xmlns="http://www.w3.org/2000/svg">
<path d="M11.999 12.7639C13.8007 12.7639 15.2621 11.2469 15.2621 9.37675C15.2621 7.50657 13.8007 6 11.999 6C10.1973 6 8.73584 7.51695 8.73584 9.37675C8.73584 11.2366 10.1972 12.7639 11.999 12.7639ZM11.999 6.88315C13.3203 6.88315 14.4013 8.00526 14.4013 9.37675C14.4013 10.7482 13.3203 11.8703 11.999 11.8703C10.6777 11.8703 9.59666 10.7482 9.59666 9.37673C9.59666 8.00524 10.6777 6.88315 11.999 6.88315Z" fill="#141414"/>
<path d="M6.42364 18H17.5764C17.8128 18 18 17.8074 18 17.5641C18 15.2832 16.1971 13.418 13.9704 13.418H10.0296C7.81281 13.418 6 15.2731 6 17.5641C6 17.8074 6.18719 18 6.42364 18ZM10.0296 14.2898H13.9704C15.5862 14.2898 16.9162 15.5265 17.1232 17.1281H6.87684C7.08373 15.5366 8.4138 14.2898 10.0296 14.2898Z" fill="#141414"/>
<circle cx="12" cy="12" r="11.5" stroke="#141414"/>
</svg>
