<?xml version="1.0" standalone="no"?>
<!DOCTYPE svg PUBLIC "-//W3C//DTD SVG 1.1//EN" "http://www.w3.org/Graphics/SVG/1.1/DTD/svg11.dtd" >
<svg xmlns="http://www.w3.org/2000/svg" xmlns:xlink="http://www.w3.org/1999/xlink" version="1.1">
<metadata>
Created by FontForge 20170731 at Thu Nov  2 13:33:55 2017
 By Aleksey,,,
Copyright (C)2015 Commercial Type.
</metadata>
<defs>
<font id="SVN-SanomatSansThin" horiz-adv-x="602" >
  <font-face 
    font-family="SVN-Sanomat Sans Thin"
    font-weight="200"
    font-stretch="normal"
    units-per-em="1000"
    panose-1="0 0 0 0 0 0 0 0 0 0"
    ascent="790"
    descent="-210"
    x-height="520"
    cap-height="705"
    bbox="-209 -218 1143 1062"
    underline-thickness="68"
    underline-position="-209"
    unicode-range="U+0020-FB04"
  />
<missing-glyph horiz-adv-x="364" 
d="M298 0h-265v666h265v-666zM66 633v-600h199v600h-199z" />
    <glyph glyph-name="f_f" unicode="ff" horiz-adv-x="522" 
d="M328 0v497h-211v-497h-27v497h-68v23h68v47q0 89 42 126t105 37q23 0 37 -3v-23q-15 3 -35 3q-122 0 -122 -141v-46h211v57q0 89 43 126t107 37q23 0 38 -3v-23q-15 3 -38 3q-53 0 -88 -32t-35 -109v-56h151v-23h-151v-497h-27z" />
    <glyph glyph-name="f_i" unicode="fi" horiz-adv-x="450" 
d="M355 0v520h27v-520h-27zM268 497h-151v-497h-27v497h-68v23h68v57q0 89 43 126t107 37q23 0 38 -3v-23q-15 3 -38 3q-53 0 -88 -32t-35 -109v-56h151v-23zM353 624v73h31v-73h-31z" />
    <glyph glyph-name="f_l" unicode="fl" horiz-adv-x="451" 
d="M355 0v730l27 7v-737h-27zM268 497h-151v-497h-27v497h-68v23h68v57q0 89 43 126t107 37q23 0 38 -3v-23q-15 3 -38 3q-53 0 -88 -32t-35 -109v-56h151v-23z" />
    <glyph glyph-name="f_f_i" unicode="ffi" horiz-adv-x="688" 
d="M593 0v520h27v-520h-27zM328 0v497h-211v-497h-27v497h-68v23h68v47q0 89 42 126t105 37q23 0 37 -3v-23q-15 3 -35 3q-122 0 -122 -141v-46h211v57q0 89 43 126t107 37q23 0 38 -3v-23q-15 3 -38 3q-53 0 -88 -32t-35 -109v-56h151v-23h-151v-497h-27zM591 624v73h31
v-73h-31z" />
    <glyph glyph-name="f_f_l" unicode="ffl" horiz-adv-x="689" 
d="M593 0v730l27 7v-737h-27zM328 0v497h-211v-497h-27v497h-68v23h68v47q0 89 42 126t105 37q23 0 37 -3v-23q-15 3 -35 3q-122 0 -122 -141v-46h211v57q0 89 43 126t107 37q23 0 38 -3v-23q-15 3 -38 3q-53 0 -88 -32t-35 -109v-56h151v-23h-151v-497h-27z" />
    <glyph glyph-name=".notdef" horiz-adv-x="364" 
d="M298 0h-265v666h265v-666zM66 633v-600h199v600h-199z" />
    <glyph glyph-name=".null" horiz-adv-x="0" 
 />
    <glyph glyph-name="nonmarkingreturn" horiz-adv-x="333" 
 />
    <glyph glyph-name="space" unicode=" " horiz-adv-x="217" 
 />
    <glyph glyph-name="exclam" unicode="!" horiz-adv-x="190" 
d="M85 168l-4 537h29l-4 -537h-21zM79 0v48h32v-48h-32z" />
    <glyph glyph-name="quotedbl" unicode="&#x22;" horiz-adv-x="178" 
d="M66 705l-4 -148h-21l-4 148h29zM142 705l-4 -148h-21l-4 148h29z" />
    <glyph glyph-name="numbersign" unicode="#" horiz-adv-x="514" 
d="M327 246l27 206h-167l-27 -206h167zM296 0l28 220h-167l-28 -220h-25l28 220h-115v26h118l27 206h-116v26h119l27 212h25l-27 -212h167l27 212h25l-27 -212h115v-26h-118l-27 -206h116v-26h-119l-28 -220h-25z" />
    <glyph glyph-name="dollar" unicode="$" horiz-adv-x="496" 
d="M214 383l25 -9l31 293q-9 1 -28 1q-70 0 -116.5 -37t-46.5 -104q0 -55 34.5 -88.5t100.5 -55.5zM244 18q79 0 131 43.5t52 115.5q0 64 -39.5 98.5t-114.5 60.5l-15 5l-38 -322q8 -1 24 -1zM244 -7q-18 0 -27 1l-15 -127h-23l15 129q-93 13 -157 62v28l2 1q67 -55 158 -66
l39 327l-28 10q-77 25 -117 64t-40 103q0 79 55 123t135 44q21 0 32 -1l9 90h23l-10 -92q67 -9 123 -46v-25l-2 -1q-61 39 -123 48l-32 -298l18 -6q84 -28 129.5 -68.5t45.5 -114.5q0 -85 -59 -135t-151 -50z" />
    <glyph glyph-name="percent" unicode="%" horiz-adv-x="768" 
d="M183 361q-68 0 -111 46t-43 120q0 72 43.5 118.5t110.5 46.5q68 0 110 -46.5t42 -118.5q0 -74 -42 -120t-110 -46zM135 0l473 690h27l-473 -690h-27zM183 383q57 0 92 40t35 104q0 62 -35 102.5t-92 40.5q-58 0 -93.5 -40.5t-35.5 -102.5q0 -64 35 -104t94 -40zM586 -7
q-68 0 -110.5 46t-42.5 121q0 72 42.5 118t110.5 46q67 0 110 -46t43 -118q0 -75 -42.5 -121t-110.5 -46zM586 16q59 0 93.5 40t34.5 104q0 62 -35 102t-93 40q-57 0 -92.5 -40.5t-35.5 -101.5q0 -64 35.5 -104t92.5 -40z" />
    <glyph glyph-name="ampersand" unicode="&#x26;" horiz-adv-x="590" 
d="M529 0l-70 86q-69 -93 -205 -93q-99 0 -160.5 59.5t-61.5 154.5q0 80 41.5 134.5t117.5 74.5q-30 41 -43 72t-13 71q0 67 42.5 110t112.5 43q60 0 119 -28v-24l-2 -1q-59 28 -115 28q-59 0 -94.5 -34.5t-35.5 -93.5q0 -16 2 -29.5t9 -29.5t12 -26t19.5 -30t22 -30
t30 -37.5t33.5 -41.5q25 -31 169 -207q56 93 50 251h26q6 -167 -59 -272l86 -105v-2h-33zM254 17q126 0 189 88q-33 42 -177 217q-49 61 -61 75q-68 -18 -106 -67t-38 -123q0 -84 53.5 -137t139.5 -53z" />
    <glyph glyph-name="quotesingle" unicode="'" horiz-adv-x="102" 
d="M66 705l-4 -148h-21l-4 148h29z" />
    <glyph glyph-name="parenleft" unicode="(" horiz-adv-x="285" 
d="M258 -170h-28q-84 104 -127.5 217t-43.5 256q0 265 171 471h28q-170 -210 -170 -471q0 -144 43.5 -257.5t126.5 -215.5z" />
    <glyph glyph-name="parenright" unicode=")" horiz-adv-x="285" 
d="M55 -170h-28q83 102 126.5 215.5t43.5 257.5q0 261 -170 471h28q171 -206 171 -471q0 -143 -43.5 -256t-127.5 -217z" />
    <glyph glyph-name="asterisk" unicode="*" horiz-adv-x="349" 
d="M304 479l-122 76l5 -145h-25l6 145l-123 -76l-11 20l127 69l-127 69l11 20l123 -77l-6 146h25l-5 -146l122 77l12 -20l-127 -69l127 -69z" />
    <glyph glyph-name="plus" unicode="+" horiz-adv-x="469" 
d="M222 135v199h-182v23h182v200h25v-200h182v-23h-182v-199h-25z" />
    <glyph glyph-name="comma" unicode="," horiz-adv-x="159" 
d="M39 -95l32 143h32v-2l-41 -141h-23z" />
    <glyph glyph-name="hyphen" unicode="-" horiz-adv-x="259" 
d="M36 286v26h187v-26h-187z" />
    <glyph glyph-name="period" unicode="." horiz-adv-x="158" 
d="M63 0v48h32v-48h-32z" />
    <glyph glyph-name="slash" unicode="/" horiz-adv-x="379" 
d="M311 774h28l-306 -944h-28z" />
    <glyph glyph-name="zero" unicode="0" horiz-adv-x="586" 
d="M293 -7q-111 0 -183.5 95.5t-72.5 256.5q0 160 72 253.5t184 93.5t184 -93t72 -254q0 -162 -72 -257t-184 -95zM293 19q100 0 163 87.5t63 238.5q0 150 -62.5 235.5t-163.5 85.5q-99 0 -163 -86t-64 -235q0 -150 64 -238t163 -88z" />
    <glyph glyph-name="one" unicode="1" horiz-adv-x="283" 
d="M191 0h-28v654l-140 -90l-2 1v26l160 102h10v-693z" />
    <glyph glyph-name="two" unicode="2" horiz-adv-x="455" 
d="M23 0v10l236 257q61 68 93 126t32 121q0 72 -43.5 112.5t-122.5 40.5q-93 0 -167 -48l-1 1v26q70 46 168 46q88 0 141 -47t53 -131q0 -67 -35 -130t-100 -135l-207 -225h350v-24h-397z" />
    <glyph glyph-name="three" unicode="3" horiz-adv-x="466" 
d="M209 -7q-104 0 -179 48v28l2 1q77 -52 176 -52q89 0 141 48.5t52 125.5q0 74 -49.5 116t-134.5 42h-85v25h87q69 0 113 41.5t44 108.5q0 68 -46.5 105t-121.5 37q-88 0 -155 -43l-2 1v26q64 41 158 41q85 0 139.5 -43.5t54.5 -123.5q0 -62 -35 -104.5t-91 -57.5
q68 -13 110 -56.5t42 -113.5q0 -90 -59.5 -145t-160.5 -55z" />
    <glyph glyph-name="four" unicode="4" horiz-adv-x="509" 
d="M360 205v427l-307 -427h307zM491 181h-102v-181h-29v181h-346v11l361 502h14v-489h102v-24z" />
    <glyph glyph-name="five" unicode="5" horiz-adv-x="460" 
d="M194 -7q-92 0 -167 43v27l1 1q75 -46 166 -46q93 0 147 51.5t54 136.5q0 84 -53 131.5t-144 47.5q-72 0 -143 -27l-2 2v326h333v-24h-307v-273q63 21 122 21q101 0 161.5 -54.5t60.5 -147.5q0 -97 -62 -156t-167 -59z" />
    <glyph glyph-name="six" unicode="6" horiz-adv-x="519" 
d="M487 204q0 -88 -55 -149.5t-153 -61.5q-119 0 -180 86.5t-61 244.5q0 176 81 272t204 96q74 0 127 -32v-27l-2 -1q-53 35 -125 35q-112 0 -184 -89.5t-72 -253.5q84 84 208 84q89 0 150.5 -53t61.5 -151zM279 18q85 0 132.5 54t47.5 132q0 88 -54 134t-134 46
q-120 0 -204 -84q4 -136 57 -209t155 -73z" />
    <glyph glyph-name="seven" unicode="7" horiz-adv-x="457" 
d="M154 0h-30q27 150 164 423l118 239h-389v24h426v-9l-130 -262q-134 -268 -159 -415z" />
    <glyph glyph-name="eight" unicode="8" horiz-adv-x="499" 
d="M256 -7q-102 0 -163 49t-61 131q0 71 49 113.5t131 71.5q-159 54 -159 174q0 73 55.5 116.5t139.5 43.5q88 0 143 -44t55 -122q0 -111 -157 -168q83 -30 130.5 -73.5t47.5 -112.5q0 -85 -55 -132t-156 -47zM242 374l19 -6q75 29 116.5 64.5t41.5 93.5q0 65 -47.5 103
t-123.5 38q-74 0 -121 -36.5t-47 -98.5q0 -63 43 -98.5t119 -59.5zM256 18q89 0 136.5 40t47.5 113q0 112 -180 171l-21 7q-31 -12 -52 -21t-47 -25t-42 -33t-27 -42t-11 -54q0 -72 53 -114t143 -42z" />
    <glyph glyph-name="nine" unicode="9" horiz-adv-x="519" 
d="M248 300q126 0 204 84q-4 134 -56.5 208.5t-150.5 74.5q-88 0 -136.5 -54t-48.5 -131q0 -89 53.5 -135.5t134.5 -46.5zM202 -7q-81 0 -136 32v27l2 1q53 -35 134 -35q117 0 183.5 86.5t66.5 256.5q-81 -85 -208 -85q-90 0 -151 53t-61 153q0 87 56 148.5t157 61.5
q115 0 175.5 -86t60.5 -242q0 -183 -75.5 -277t-203.5 -94z" />
    <glyph glyph-name="colon" unicode=":" horiz-adv-x="166" 
d="M67 368v49h32v-49h-32zM67 0v48h32v-48h-32z" />
    <glyph glyph-name="semicolon" unicode=";" horiz-adv-x="161" 
d="M68 368v49h32v-49h-32zM39 -95l32 143h32v-2l-41 -141h-23z" />
    <glyph glyph-name="less" unicode="&#x3c;" horiz-adv-x="492" 
d="M426 131l-373 204v21l373 203l2 -1v-27l-343 -186l343 -186v-27z" />
    <glyph glyph-name="equal" unicode="=" horiz-adv-x="462" 
d="M47 386v24h368v-24h-368zM47 214v24h368v-24h-368z" />
    <glyph glyph-name="greater" unicode="&#x3e;" horiz-adv-x="492" 
d="M66 131l-2 1v27l343 186l-343 186v27l2 1l373 -203v-22z" />
    <glyph glyph-name="question" unicode="?" horiz-adv-x="425" 
d="M40 634v26q67 52 159 52q76 0 124.5 -44t48.5 -121q0 -61 -23 -101t-77 -92q-39 -37 -58 -70.5t-19 -87.5v-28h-26v28q0 60 20 98t65 80q50 47 70 82.5t20 90.5q0 66 -40 103t-106 37q-83 0 -156 -54zM166 0v48h33v-48h-33z" />
    <glyph glyph-name="at" unicode="@" horiz-adv-x="900" 
d="M470 -179q-201 0 -317 115.5t-116 294.5q0 202 125 330.5t314 128.5q180 0 284 -108.5t104 -285.5q0 -123 -55 -188t-132 -65q-103 0 -108 93q-62 -99 -159 -99q-79 0 -122.5 53t-43.5 134q0 109 58.5 180t154.5 71q95 0 141 -90l10 73h28l-37 -284q-15 -110 81 -110
q65 0 113 59t48 173q0 169 -98 271t-267 102q-177 0 -296 -122t-119 -317q0 -169 110 -278.5t299 -109.5q114 0 204 45l1 -1v-22q-86 -43 -205 -43zM413 61q96 0 157 102q0 2 0.5 5.5t0.5 4.5l24 185q-49 93 -138 93q-84 0 -135 -63.5t-51 -163.5q0 -73 37 -118t105 -45z
" />
    <glyph glyph-name="A" unicode="A" 
d="M466 237l-165 412l-166 -412h331zM561 0l-85 212h-351l-85 -212h-28v2l287 709h4l287 -709v-2h-29z" />
    <glyph glyph-name="B" unicode="B" horiz-adv-x="565" 
d="M285 680h-178v-288h193q160 0 160 140q0 148 -175 148zM298 367h-191v-342h196q93 0 143.5 43t50.5 127q0 79 -50 125.5t-149 46.5zM79 0v705h204q96 0 151 -42.5t55 -129.5q0 -128 -124 -153q80 -14 120.5 -64t40.5 -121q0 -93 -58 -144t-163 -51h-226z" />
    <glyph glyph-name="C" unicode="C" horiz-adv-x="637" 
d="M391 -7q-154 0 -253 101.5t-99 260.5q0 157 101.5 257t253.5 100q102 0 186 -41v-27l-2 -2q-86 45 -184 45q-142 0 -234 -92.5t-92 -239.5q0 -150 90 -243.5t233 -93.5q123 0 203 58l2 -1v-28q-78 -54 -205 -54z" />
    <glyph glyph-name="D" unicode="D" horiz-adv-x="666" 
d="M216 680h-109v-655h109q114 0 197 30.5t134 104.5t51 187q0 167 -104.5 250t-277.5 83zM79 0v705h139q185 0 297 -90t112 -268q0 -90 -30.5 -158t-86.5 -108.5t-129 -60.5t-163 -20h-139z" />
    <glyph glyph-name="E" unicode="E" horiz-adv-x="495" 
d="M79 0v705h361v-25h-333v-303h293v-25h-293v-327h335v-25h-363z" />
    <glyph glyph-name="F" unicode="F" horiz-adv-x="470" 
d="M393 337h-286v-337h-28v705h354v-25h-326v-318h286v-25z" />
    <glyph glyph-name="G" unicode="G" horiz-adv-x="680" 
d="M616 351v-284q-103 -74 -229 -74q-158 0 -253 101t-95 261q0 157 100 257t253 100q108 0 188 -41v-28l-1 -1q-85 45 -187 45q-142 0 -233 -92.5t-91 -239.5q0 -150 86 -243.5t233 -93.5q111 0 200 60v248h-196v25h225z" />
    <glyph glyph-name="H" unicode="H" horiz-adv-x="661" 
d="M554 0v344h-447v-344h-28v705h28v-336h447v336h28v-705h-28z" />
    <glyph glyph-name="I" unicode="I" horiz-adv-x="191" 
d="M81 0v705h29v-705h-29z" />
    <glyph glyph-name="J" unicode="J" horiz-adv-x="193" 
d="M-47 -165v25q67 14 99.5 56t32.5 122v667h29v-668q0 -93 -40 -139.5t-121 -62.5z" />
    <glyph glyph-name="K" unicode="K" horiz-adv-x="547" 
d="M491 0l-288 369l-96 -106v-263h-28v705h28v-406l365 406h31v-2q-30 -35 -105 -118q-25 -27 -87.5 -97.5t-88.5 -97.5l301 -388v-2h-32z" />
    <glyph glyph-name="L" unicode="L" horiz-adv-x="491" 
d="M79 0v705h28v-680h343v-25h-371z" />
    <glyph glyph-name="M" unicode="M" horiz-adv-x="774" 
d="M667 0v647l-277 -652h-7l-277 654v-649h-27v705h31l277 -653l278 653h31v-705h-29z" />
    <glyph glyph-name="N" unicode="N" horiz-adv-x="672" 
d="M594 -6h-9l-479 651v-645h-27v711h10l477 -649v643h28v-711z" />
    <glyph glyph-name="O" unicode="O" horiz-adv-x="766" 
d="M383 -7q-145 0 -244.5 103.5t-99.5 258.5t99 256t245 101t245 -101t99 -256t-99.5 -258.5t-244.5 -103.5zM383 18q135 0 224.5 95.5t89.5 241.5q0 145 -90 238.5t-224 93.5t-224.5 -93.5t-90.5 -238.5q0 -146 91 -241.5t224 -95.5z" />
    <glyph glyph-name="P" unicode="P" horiz-adv-x="522" 
d="M254 680h-147v-353h160q93 0 144.5 45t51.5 132t-54 131.5t-155 44.5zM270 303h-163v-303h-28v705h176q113 0 175 -51t62 -151q0 -97 -60.5 -148.5t-161.5 -51.5z" />
    <glyph glyph-name="Q" unicode="Q" horiz-adv-x="766" 
d="M600 -156q-96 0 -155 41t-82 109q-139 8 -231.5 110t-92.5 251q0 155 99 256t245 101t245 -101t99 -256q0 -152 -95.5 -255t-236.5 -107q43 -125 206 -125q40 0 69 11l2 -2v-22q-33 -11 -72 -11zM383 18q135 0 224.5 95.5t89.5 241.5q0 145 -90 238.5t-224 93.5
t-224.5 -93.5t-90.5 -238.5q0 -146 91 -241.5t224 -95.5z" />
    <glyph glyph-name="R" unicode="R" horiz-adv-x="543" 
d="M249 680h-142v-335h170q80 0 131 45.5t51 125.5q0 81 -54.5 122.5t-155.5 41.5zM487 0l-210 321h-170v-321h-28v705h171q113 0 175.5 -48t62.5 -142q0 -83 -50.5 -132.5t-130.5 -58.5l213 -322v-2h-33z" />
    <glyph glyph-name="S" unicode="S" horiz-adv-x="492" 
d="M241 -7q-124 0 -208 65v29l2 1q84 -70 206 -70q79 0 130 45t51 117q0 66 -40 103t-117 64l-65 22q-75 26 -114 66t-39 107q0 79 55.5 124.5t134.5 45.5q101 0 177 -49v-26l-1 -1q-75 51 -175 51q-69 0 -116 -38.5t-47 -105.5q0 -56 34.5 -91.5t100.5 -57.5l65 -22
q84 -31 130 -73t46 -117q0 -85 -59.5 -137t-150.5 -52z" />
    <glyph glyph-name="T" unicode="T" horiz-adv-x="537" 
d="M514 680h-231v-680h-28v680h-232v25h491v-25z" />
    <glyph glyph-name="U" unicode="U" horiz-adv-x="656" 
d="M325 -7q-117 0 -185.5 68t-68.5 193v451h28v-450q0 -113 61 -175t165 -62q106 0 168.5 62t62.5 175v450h29v-451q0 -124 -71 -192.5t-189 -68.5z" />
    <glyph glyph-name="V" unicode="V" horiz-adv-x="593" 
d="M299 -6h-5l-280 709v2h29l254 -646l254 646h28v-2z" />
    <glyph glyph-name="W" unicode="W" horiz-adv-x="897" 
d="M626 -5l-172 495l-185 -495h-5l-247 708v2h29l222 -642l173 464l-61 176v2h29l219 -639l223 639h28v-2l-248 -708h-5z" />
    <glyph glyph-name="X" unicode="X" horiz-adv-x="561" 
d="M509 0l-231 345l-228 -345h-29v2l241 363l-227 338v2h31l214 -320l215 320h29v-2l-228 -339l244 -362v-2h-31z" />
    <glyph glyph-name="Y" unicode="Y" horiz-adv-x="533" 
d="M281 0h-28v305l-245 398v2h30l229 -375l229 375h29v-2l-244 -398v-305z" />
    <glyph glyph-name="Z" unicode="Z" horiz-adv-x="551" 
d="M520 0h-502v8l454 671h-416v26h462v-8l-454 -672h456v-25z" />
    <glyph glyph-name="bracketleft" unicode="[" horiz-adv-x="339" 
d="M95 -170v944h197v-23h-170v-898h170v-23h-197z" />
    <glyph glyph-name="backslash" unicode="\" horiz-adv-x="379" 
d="M67 774l306 -944h-28l-306 944h28z" />
    <glyph glyph-name="bracketright" unicode="]" horiz-adv-x="339" 
d="M47 -170v23h169v898h-169v23h197v-944h-197z" />
    <glyph glyph-name="asciicircum" unicode="^" horiz-adv-x="445" 
d="M60 435h-30l180 270h24l180 -270h-30l-162 243z" />
    <glyph glyph-name="underscore" unicode="_" horiz-adv-x="349" 
d="M-5 -123v23h360v-23h-360z" />
    <glyph glyph-name="grave" unicode="`" horiz-adv-x="400" 
d="M217 598l-114 164h33l108 -164h-27z" />
    <glyph glyph-name="a" unicode="a" horiz-adv-x="462" 
d="M198 17q66 0 110 27.5t66 66.5v174l-158 -30q-75 -14 -115 -40t-40 -82q0 -58 36 -87t101 -29zM378 0l-3 81q-61 -88 -178 -88q-75 0 -119.5 35.5t-44.5 104.5q0 35 13.5 60.5t41 41.5t55 25t67.5 17l164 31v29q0 90 -39 127t-120 37q-87 0 -148 -42l-2 1v24
q61 42 152 42q92 0 138.5 -43.5t46.5 -144.5v-338h-24z" />
    <glyph glyph-name="b" unicode="b" horiz-adv-x="562" 
d="M288 -8q-131 0 -196 104l-3 -96h-24v730l28 7v-310q33 47 84 74t112 27q103 0 171 -69t68 -189q0 -128 -67.5 -203t-172.5 -75zM287 16q93 0 153.5 67.5t60.5 186.5q0 111 -60.5 172.5t-152.5 61.5q-125 0 -195 -103v-278q65 -107 194 -107z" />
    <glyph glyph-name="c" unicode="c" horiz-adv-x="483" 
d="M296 -7q-115 0 -188.5 74t-73.5 194t73.5 193t184.5 73q86 0 142 -30v-25l-2 -1q-60 31 -140 31q-99 0 -164.5 -65.5t-65.5 -175.5t65 -177t168 -67q90 0 151 44l2 -2v-24q-57 -42 -152 -42z" />
    <glyph glyph-name="d" unicode="d" horiz-adv-x="562" 
d="M269 16q130 0 200 103v278q-65 107 -193 107q-92 0 -153.5 -67t-61.5 -182t58.5 -177t149.5 -62zM474 0l-4 94q-73 -102 -203 -102q-102 0 -167.5 69.5t-65.5 193.5q0 125 68 199t173 74q129 0 194 -102v304l28 7v-737h-23z" />
    <glyph glyph-name="e" unicode="e" horiz-adv-x="515" 
d="M275 502q-86 0 -142.5 -53.5t-68.5 -144.5h389q1 97 -47 147.5t-131 50.5zM474 67v-26q-79 -47 -181 -47q-118 0 -188.5 72t-70.5 195q0 118 68 191.5t174 73.5q98 0 155 -61.5t49 -183.5h-418q-1 -7 -1 -20q0 -114 63 -178.5t169 -64.5q92 0 179 50z" />
    <glyph glyph-name="f" unicode="f" horiz-adv-x="284" 
d="M268 497h-151v-497h-27v497h-68v23h68v57q0 89 43 126t107 37q23 0 38 -3v-23q-15 3 -38 3q-53 0 -88 -32t-35 -109v-56h151v-23z" />
    <glyph glyph-name="g" unicode="g" horiz-adv-x="477" 
d="M227 208q66 0 111.5 40t45.5 106q0 67 -45.5 108.5t-111.5 41.5q-67 0 -111 -41t-44 -109q0 -66 45 -106t110 -40zM236 -212q-106 0 -163.5 34t-57.5 99q0 35 23 64h25l1 -1q-22 -24 -22 -61q0 -112 194 -112q98 0 153 37.5t55 98.5q0 83 -117 88l-160 7q-99 4 -99 76
q0 58 68 90q-41 21 -66 59t-25 87q0 77 52 124t130 47q25 0 54 -8l162 4v-23h-123q41 -20 65.5 -57t24.5 -87q0 -76 -52.5 -121.5t-130.5 -45.5q-33 0 -68 11q-66 -26 -66 -76t76 -54l160 -7q142 -9 142 -114q0 -70 -63 -114.5t-172 -44.5z" />
    <glyph glyph-name="h" unicode="h" horiz-adv-x="511" 
d="M278 503q-100 0 -185 -78v-425h-28v730l28 7v-291q89 81 190 81q80 0 124.5 -42.5t44.5 -124.5v-360h-28v356q0 74 -39 110.5t-107 36.5z" />
    <glyph glyph-name="i" unicode="i" horiz-adv-x="163" 
d="M68 0v520h27v-520h-27zM66 624v73h31v-73h-31z" />
    <glyph glyph-name="j" unicode="j" horiz-adv-x="161" 
d="M-39 -215v25q52 4 79 38t27 114v558h27v-559q0 -91 -34.5 -131.5t-98.5 -44.5zM65 624v73h31v-73h-31z" />
    <glyph glyph-name="k" unicode="k" horiz-adv-x="437" 
d="M385 0l-230 273l-62 -64v-209h-28v730l28 7v-497l271 280h31v-2l-221 -227l241 -289v-2h-30z" />
    <glyph glyph-name="l" unicode="l" horiz-adv-x="166" 
d="M69 0v730l28 7v-737h-28z" />
    <glyph glyph-name="m" unicode="m" horiz-adv-x="816" 
d="M267 503q-92 0 -174 -78v-425h-28v520h24l3 -74q89 81 179 81q51 0 89 -24t54 -66q92 90 189 90q66 0 109.5 -42.5t43.5 -116.5v-368h-27v364q0 67 -37.5 103t-93.5 36q-91 0 -179 -83l3 -22l3 -4v-394h-28v376q0 60 -37.5 93.5t-92.5 33.5z" />
    <glyph glyph-name="n" unicode="n" horiz-adv-x="512" 
d="M278 503q-100 0 -185 -78v-425h-28v520h24l3 -74q90 81 191 81q80 0 124.5 -42.5t44.5 -124.5v-360h-28v356q0 74 -39 110.5t-107 36.5z" />
    <glyph glyph-name="o" unicode="o" horiz-adv-x="578" 
d="M289 -7q-110 0 -182.5 73.5t-72.5 194.5t72.5 193.5t182.5 72.5t182.5 -72.5t72.5 -193.5t-72.5 -194.5t-182.5 -73.5zM289 18q99 0 163.5 66.5t64.5 176.5t-64.5 175.5t-163.5 65.5t-163.5 -65.5t-64.5 -175.5t64.5 -176.5t163.5 -66.5z" />
    <glyph glyph-name="p" unicode="p" horiz-adv-x="562" 
d="M287 16q95 0 154.5 67.5t59.5 186.5q0 111 -60.5 172.5t-152.5 61.5q-125 0 -195 -103v-278q65 -107 194 -107zM288 -8q-130 0 -195 102v-304h-28v730h25l3 -93q33 47 84 74t112 27q103 0 171 -69t68 -189q0 -129 -66.5 -203.5t-173.5 -74.5z" />
    <glyph glyph-name="q" unicode="q" horiz-adv-x="562" 
d="M497 -210h-28v303q-33 -47 -85.5 -74t-116.5 -27q-102 0 -167.5 69.5t-65.5 193.5q0 125 68 199t173 74q131 0 195 -103l3 95h24v-730zM269 16q130 0 200 103v278q-65 107 -193 107q-93 0 -154 -67t-61 -182t58.5 -177t149.5 -62z" />
    <glyph glyph-name="r" unicode="r" horiz-adv-x="309" 
d="M93 0h-28v520h24l4 -79q62 83 155 83q23 0 40 -4v-24l-2 -2q-15 5 -38 5q-92 0 -155 -84v-415z" />
    <glyph glyph-name="s" unicode="s" horiz-adv-x="404" 
d="M193 -5q-99 0 -166 48v28l2 1q68 -54 164 -54q66 0 107 31t41 87q0 49 -29 72.5t-95 44.5l-43 14q-68 22 -100.5 51.5t-32.5 84.5q0 57 45 91t118 34q87 0 143 -35v-24l-1 -2q-58 37 -142 37q-62 0 -98.5 -26.5t-36.5 -72.5q0 -47 27 -71.5t85 -41.5l43 -14
q78 -25 111.5 -52.5t33.5 -88.5q0 -67 -50 -104.5t-126 -37.5z" />
    <glyph glyph-name="t" unicode="t" horiz-adv-x="334" 
d="M305 28v-22q-39 -12 -72 -12q-127 0 -127 122v381h-79v23h79v88l27 5v-93h155v-23h-155v-379q0 -100 104 -100q30 0 66 11z" />
    <glyph glyph-name="u" unicode="u" horiz-adv-x="510" 
d="M421 0l-3 74q-90 -81 -190 -81q-80 0 -124.5 40t-44.5 120v367h28v-362q0 -141 146 -141q99 0 184 78v425h28v-520h-24z" />
    <glyph glyph-name="v" unicode="v" horiz-adv-x="467" 
d="M238 -5h-7l-221 523v2h28l197 -468l195 468h27v-2z" />
    <glyph glyph-name="w" unicode="w" horiz-adv-x="700" 
d="M512 -6l-162 469l-163 -469h-6l-166 524v2h28l143 -460l161 464h7l160 -466l144 462h27v-2l-166 -524h-7z" />
    <glyph glyph-name="x" unicode="x" horiz-adv-x="452" 
d="M405 0l-182 250l-179 -250h-27v2l190 269l-182 247v2h31l168 -230l164 230h27v-2l-176 -248l196 -268v-2h-30z" />
    <glyph glyph-name="y" unicode="y" horiz-adv-x="469" 
d="M37 -214v25q58 6 95 38t62 94l32 77l-216 498v2h29l201 -470l191 470h28v-2l-239 -580q-30 -76 -72.5 -111.5t-110.5 -40.5z" />
    <glyph glyph-name="z" unicode="z" horiz-adv-x="441" 
d="M410 0h-390v7l354 490h-321v23h364v-7l-354 -490h347v-23z" />
    <glyph glyph-name="braceleft" unicode="{" horiz-adv-x="360" 
d="M314 -147v-23q-220 0 -177 188l36 158q15 59 -14.5 87t-111.5 28v23q83 1 112 28.5t14 86.5l-36 156q-43 189 177 189v-23q-90 0 -130.5 -39t-19.5 -128l37 -154q13 -55 -5.5 -85.5t-74.5 -41.5q55 -11 74 -42t6 -86l-37 -156q-39 -166 150 -166z" />
    <glyph glyph-name="bar" unicode="|" horiz-adv-x="200" 
d="M87 -170v944h26v-944h-26z" />
    <glyph glyph-name="braceright" unicode="}" horiz-adv-x="360" 
d="M47 -170v23q188 0 149 166l-36 156q-28 107 79 128q-56 11 -74.5 42t-4.5 85l36 154q39 167 -149 167v23q101 0 150.5 -45t26.5 -144l-37 -156q-14 -59 15 -86.5t111 -28.5v-23q-82 0 -111.5 -28t-14.5 -87l37 -158q23 -99 -26.5 -143.5t-150.5 -44.5z" />
    <glyph glyph-name="asciitilde" unicode="~" horiz-adv-x="410" 
d="M354 352v-26q-31 -44 -82 -44q-31 0 -71 18t-64 18q-46 0 -79 -45l-2 1v26q31 44 82 44q30 0 71 -18.5t65 -18.5q45 0 78 46z" />
    <glyph glyph-name="exclamdown" unicode="&#xa1;" horiz-adv-x="190" 
d="M111 570v-48h-32v48h32zM105 402l4 -537h-29l4 537h21z" />
    <glyph glyph-name="cent" unicode="&#xa2;" horiz-adv-x="491" 
d="M61 261q0 -96 50.5 -160.5t132.5 -78.5l56 480h-9q-99 0 -164.5 -65.5t-65.5 -175.5zM295 -7q-9 0 -31 2l-13 -108h-22l13 111q-93 16 -151 87.5t-58 175.5q0 120 74.5 193t183.5 73h12l9 80h23l-9 -81q61 -5 107 -29v-25l-2 -1q-48 25 -108 30l-56 -483q9 -1 27 -1
q92 0 151 44l2 -2v-24q-57 -42 -152 -42z" />
    <glyph glyph-name="sterling" unicode="&#xa3;" horiz-adv-x="501" 
d="M475 24v-24h-449v10q60 52 82 97.5t35 126.5l14 80h-83v22h86l31 179q17 99 56.5 138t104.5 39t115 -28v-26l-2 -1q-51 30 -113 30q-53 0 -86 -33t-48 -120l-30 -178h183v-22h-186l-13 -76q-14 -82 -31.5 -123.5t-70.5 -90.5h405z" />
    <glyph glyph-name="yen" unicode="&#xa5;" horiz-adv-x="509" 
d="M448 172h-179v-172h-28v172h-178v21h178v104h-178v21h175l-213 370v2h30l200 -354l200 354h29v-2l-212 -370h176v-21h-179v-104h179v-21z" />
    <glyph glyph-name="brokenbar" unicode="&#xa6;" horiz-adv-x="200" 
d="M87 347v427h26v-427h-26zM87 -170v433h26v-433h-26z" />
    <glyph glyph-name="section" unicode="&#xa7;" horiz-adv-x="461" 
d="M203 -139q-87 0 -148 41v28h2q58 -45 145 -45q72 0 113 32.5t41 87.5q0 42 -23.5 68t-84.5 63l-108 64q-53 32 -80 63.5t-27 83.5q0 46 33.5 78.5t87.5 44.5q-36 26 -51 52.5t-15 63.5q0 56 43.5 93.5t119.5 37.5q78 0 127 -32v-26l-2 -1q-54 35 -125 35q-65 0 -101 -31
t-36 -75q0 -39 22.5 -67t78.5 -60l96 -55q37 -22 58 -38t40 -45t19 -64q0 -91 -117 -131q39 -27 55.5 -53.5t16.5 -67.5q0 -68 -49 -106.5t-131 -38.5zM259 160l34 -21q107 41 107 118q0 41 -27.5 69.5t-73.5 54.5l-95 56q-7 4 -32 20q-50 -10 -81 -39t-31 -70
q0 -43 24 -71.5t67 -52.5z" />
    <glyph glyph-name="dieresis" unicode="&#xa8;" horiz-adv-x="400" 
d="M112 634v44h30v-44h-30zM258 634v44h30v-44h-30z" />
    <glyph glyph-name="copyright" unicode="&#xa9;" horiz-adv-x="801" 
d="M41 352q0 159 103 262t257 103t257 -103t103 -262q0 -158 -103 -261t-257 -103t-257 103t-103 261zM740 352q0 150 -97 248.5t-242 98.5t-242 -98.5t-97 -248.5q0 -149 97 -247.5t242 -98.5t242 98.5t97 247.5zM416 157q-84 0 -138.5 55.5t-54.5 144.5t54.5 143.5
t134.5 54.5q70 0 109 -28v-23l-1 -1q-44 29 -108 29q-68 0 -116 -48t-48 -127q0 -80 48 -129t119 -49q65 0 114 37h2v-24q-47 -35 -115 -35z" />
    <glyph glyph-name="ordfeminine" unicode="&#xaa;" horiz-adv-x="393" 
d="M166 275q99 0 145 79v139l-130 -25q-61 -12 -94 -33t-33 -66q0 -47 29.5 -70.5t82.5 -23.5zM313 258l-2 68q-47 -72 -146 -72q-63 0 -100 29t-37 86q0 38 22 64t52 37.5t74 18.5l135 25v23q0 74 -31.5 103.5t-98.5 29.5q-74 0 -124 -33l-1 1v23q50 33 127 33t116 -35.5
t39 -119.5v-281h-25z" />
    <glyph glyph-name="guillemotleft" unicode="&#xab;" horiz-adv-x="345" 
d="M144 84l-125 176l125 176h29l-124 -176l124 -176h-29zM283 84l-125 176l125 176h29l-124 -176l124 -176h-29z" />
    <glyph glyph-name="registered" unicode="&#xae;" horiz-adv-x="589" 
d="M26 443q0 120 76.5 197t192.5 77q115 0 191.5 -77t76.5 -197q0 -119 -76.5 -196.5t-191.5 -77.5t-192 77.5t-77 196.5zM543 443q0 111 -71 183.5t-177 72.5t-177.5 -72.5t-71.5 -183.5q0 -110 71.5 -183t177.5 -73t177 72.5t71 183.5zM291 569h-61v-123h70q30 0 48 16.5
t18 46.5q0 60 -75 60zM381 302l-83 126h-68v-126h-21v285h82q97 0 97 -79q0 -66 -68 -78l83 -127l-1 -1h-21z" />
    <glyph glyph-name="overscore" unicode="&#xaf;" horiz-adv-x="400" 
d="M82 645v24h236v-24h-236z" />
    <glyph glyph-name="degree" unicode="&#xb0;" horiz-adv-x="382" 
d="M44 550q0 63 41 105.5t106 42.5t106 -42.5t41 -105.5t-41 -106t-106 -43t-106 43t-41 106zM314 550q0 53 -34 89t-89 36t-88.5 -36t-33.5 -89t33.5 -89.5t88.5 -36.5q56 0 89.5 36.5t33.5 89.5z" />
    <glyph glyph-name="acute" unicode="&#xb4;" horiz-adv-x="400" 
d="M183 598h-27l108 164h33z" />
    <glyph glyph-name="paragraph" unicode="&#xb6;" horiz-adv-x="513" 
d="M433 -130h-24v835h24v-835zM287 -130h-24v434h-13q-105 0 -160.5 51.5t-55.5 148.5q0 99 55 150t161 51h37v-835z" />
    <glyph glyph-name="middot" unicode="&#xb7;" horiz-adv-x="158" 
d="M63 288v48h32v-48h-32z" />
    <glyph glyph-name="cedilla" unicode="&#xb8;" horiz-adv-x="400" 
d="M110 -197v23l1 1q30 -20 68 -20q34 0 52.5 16t18.5 45q0 56 -86 65v70h23v-52q90 -16 90 -83q0 -39 -25 -61t-70 -22q-43 0 -72 18z" />
    <glyph glyph-name="ordmasculine" unicode="&#xba;" horiz-adv-x="476" 
d="M238 253q-91 0 -150.5 60.5t-59.5 160.5q0 99 60 159.5t150 60.5q91 0 150.5 -60.5t59.5 -159.5q0 -100 -59.5 -160.5t-150.5 -60.5zM238 277q79 0 131.5 54.5t52.5 142.5t-52.5 142t-131.5 54t-131.5 -54t-52.5 -142t52.5 -142.5t131.5 -54.5z" />
    <glyph glyph-name="guillemotright" unicode="&#xbb;" horiz-adv-x="345" 
d="M33 84l124 176l-124 176h29l124 -176l-124 -176h-29zM172 84l124 176l-124 176h29l125 -176l-125 -176h-29z" />
    <glyph glyph-name="onequarter" unicode="&#xbc;" horiz-adv-x="732" 
d="M159 313h-25v348l-84 -52l-2 1v22l103 62h8v-381zM83 0l514 690h27l-514 -690h-27zM615 113v220l-161 -220h161zM696 93h-57v-93h-24v93h-194v10l206 280h12v-270h57v-20z" />
    <glyph glyph-name="onehalf" unicode="&#xbd;" horiz-adv-x="750" 
d="M159 313h-25v348l-84 -52l-2 1v22l103 62h8v-381zM470 0v8l134 140q71 75 71 131q0 79 -92 79q-50 0 -95 -29l-1 1v22q41 27 99 27q55 0 84.5 -25.5t29.5 -73.5q0 -38 -20 -71.5t-57 -72.5l-113 -116h195v-20h-235zM83 0l514 690h27l-514 -690h-27z" />
    <glyph glyph-name="threequarters" unicode="&#xbe;" horiz-adv-x="757" 
d="M109 0l514 690h27l-514 -690h-27zM641 113v220l-161 -220h161zM722 93h-57v-93h-24v93h-194v10l206 280h12v-270h57v-20zM130 309q-57 0 -102 28v22l1 2q44 -31 99 -31q49 0 77 24.5t28 64.5q0 38 -27 60t-72 22h-50v19h51q37 0 60.5 21.5t23.5 57.5q0 35 -24.5 53.5
t-66.5 18.5q-44 0 -88 -25l-1 1v21q37 24 92 24q51 0 82 -24t31 -68q0 -69 -70 -88q39 -7 61.5 -31.5t22.5 -62.5q0 -49 -34.5 -79t-93.5 -30z" />
    <glyph glyph-name="questiondown" unicode="&#xbf;" horiz-adv-x="425" 
d="M259 570v-48h-33v48h33zM385 -64v-26q-67 -52 -159 -52q-76 0 -124.5 44t-48.5 121q0 61 23 101t78 92q39 36 57.5 70t18.5 88v28h26v-28q0 -60 -20 -97t-64 -81q-50 -46 -70.5 -82t-20.5 -91q0 -66 40 -103t106 -37q83 0 156 54z" />
    <glyph glyph-name="Agrave" unicode="&#xc0;" 
d="M309 756l-92 125h30l87 -125h-25zM466 237l-165 412l-166 -412h331zM561 0l-85 212h-351l-85 -212h-28v2l287 709h4l287 -709v-2h-29z" />
    <glyph glyph-name="Aacute" unicode="&#xc1;" 
d="M385 881l-92 -125h-25l87 125h30zM466 237l-165 412l-166 -412h331zM561 0l-85 212h-351l-85 -212h-28v2l287 709h4l287 -709v-2h-29z" />
    <glyph glyph-name="Acircumflex" unicode="&#xc2;" 
d="M301 859l-86 -103h-27l101 125h26l101 -125h-27zM466 237l-165 412l-166 -412h331zM561 0l-85 212h-351l-85 -212h-28v2l287 709h4l287 -709v-2h-29z" />
    <glyph glyph-name="Atilde" unicode="&#xc3;" 
d="M351 782q30 -1 53 37q1 -3 4.5 -10t5.5 -12q-24 -40 -64 -39q-18 2 -52 23q-3 2 -9.5 6.5t-10.5 7t-10 5t-11 2.5q-29 0 -54 -44q-1 3 -4.5 11.5t-4.5 13.5q30 43 64 42q16 -2 49 -22q31 -21 44 -21zM466 237l-165 412l-166 -412h331zM561 0l-85 212h-351l-85 -212h-28v2
l287 709h4l287 -709v-2h-29z" />
    <glyph glyph-name="Adieresis" unicode="&#xc4;" 
d="M466 237l-165 412l-166 -412h331zM561 0l-85 212h-351l-85 -212h-28v2l287 709h4l287 -709v-2h-29zM371 779v45h31v-45h-31zM200 779v45h31v-45h-31z" />
    <glyph glyph-name="Aring" unicode="&#xc5;" 
d="M466 237l-165 412l-166 -412h331zM561 0l-85 212h-351l-85 -212h-28v2l287 709h4l287 -709v-2h-29zM301 753q-39 0 -64.5 25.5t-25.5 64.5t25.5 65t64.5 26t64.5 -26t25.5 -65t-25.5 -64.5t-64.5 -25.5zM301 915q-30 0 -49.5 -20t-19.5 -52q0 -31 19.5 -51t49.5 -20
q31 0 50 20t19 51q0 32 -19 52t-50 20z" />
    <glyph glyph-name="AE" unicode="&#xc6;" horiz-adv-x="866" 
d="M449 680v2l-269 -445h270v443h-1zM450 0v212h-286l-128 -212h-28v2l426 703h377v-25h-333v-303h293v-25h-293v-327h335v-25h-363z" />
    <glyph glyph-name="Ccedilla" unicode="&#xc7;" horiz-adv-x="637" 
d="M335 -215q-43 0 -72 18v23l1 1q30 -20 68 -20q34 0 52.5 16t18.5 45q0 56 -86 65v67q-125 24 -201.5 120.5t-76.5 234.5q0 157 101.5 257t253.5 100q102 0 186 -41v-27l-2 -2q-86 45 -184 45q-142 0 -234 -92.5t-92 -239.5q0 -150 90 -243.5t233 -93.5q123 0 203 58l2 -1
v-28q-78 -54 -205 -54q-25 0 -51 3v-45q90 -16 90 -83q0 -39 -25 -61t-70 -22z" />
    <glyph glyph-name="Egrave" unicode="&#xc8;" horiz-adv-x="495" 
d="M273 756l-92 125h30l87 -125h-25zM79 0v705h361v-25h-333v-303h293v-25h-293v-327h335v-25h-363z" />
    <glyph glyph-name="Eacute" unicode="&#xc9;" horiz-adv-x="495" 
d="M353 881l-92 -125h-25l87 125h30zM79 0v705h361v-25h-333v-303h293v-25h-293v-327h335v-25h-363z" />
    <glyph glyph-name="Ecircumflex" unicode="&#xca;" horiz-adv-x="495" 
d="M257 859l-86 -103h-27l101 125h26l101 -125h-27zM79 0v705h361v-25h-333v-303h293v-25h-293v-327h335v-25h-363z" />
    <glyph glyph-name="Edieresis" unicode="&#xcb;" horiz-adv-x="495" 
d="M79 0v705h361v-25h-333v-303h293v-25h-293v-327h335v-25h-363zM329 779v45h31v-45h-31zM158 779v45h31v-45h-31z" />
    <glyph glyph-name="Igrave" unicode="&#xcc;" horiz-adv-x="191" 
d="M109 756l-92 125h30l87 -125h-25zM81 0v705h29v-705h-29z" />
    <glyph glyph-name="Iacute" unicode="&#xcd;" horiz-adv-x="191" 
d="M172 881l-92 -125h-25l87 125h30zM81 0v705h29v-705h-29z" />
    <glyph glyph-name="Icircumflex" unicode="&#xce;" horiz-adv-x="191" 
d="M81 0v705h29v-705h-29zM96 867l-104 -102h-28l118 124h28l118 -124h-28z" />
    <glyph glyph-name="Idieresis" unicode="&#xcf;" horiz-adv-x="191" 
d="M142 779v45h31v-45h-31zM19 779v45h30v-45h-30zM81 0v705h29v-705h-29z" />
    <glyph glyph-name="Eth" unicode="&#xd0;" horiz-adv-x="678" 
d="M357 352h-238v-327h109q114 0 197 30.5t134 104.5t51 187q0 167 -104.5 250t-277.5 83h-109v-305h238v-23zM91 0v352h-82v23h82v330h139q185 0 297 -90t112 -268q0 -90 -30.5 -158t-86.5 -108.5t-129 -60.5t-163 -20h-139z" />
    <glyph glyph-name="Ntilde" unicode="&#xd1;" horiz-adv-x="672" 
d="M594 -6h-9l-479 651v-645h-27v711h10l477 -649v643h28v-711zM413 812q40 0 71 39h2l10 -18q-37 -45 -82 -45q-29 0 -67.5 16.5t-60.5 16.5q-41 0 -72 -39l-2 1l-10 18q36 45 84 45q27 0 65.5 -17t61.5 -17z" />
    <glyph glyph-name="Ograve" unicode="&#xd2;" horiz-adv-x="766" 
d="M415 756l-92 125h30l87 -125h-25zM383 -7q-145 0 -244.5 103.5t-99.5 258.5t99 256t245 101t245 -101t99 -256t-99.5 -258.5t-244.5 -103.5zM383 18q135 0 224.5 95.5t89.5 241.5q0 145 -90 238.5t-224 93.5t-224.5 -93.5t-90.5 -238.5q0 -146 91 -241.5t224 -95.5z" />
    <glyph glyph-name="Oacute" unicode="&#xd3;" horiz-adv-x="766" 
d="M483 881l-92 -125h-25l87 125h30zM383 -7q-145 0 -244.5 103.5t-99.5 258.5t99 256t245 101t245 -101t99 -256t-99.5 -258.5t-244.5 -103.5zM383 18q135 0 224.5 95.5t89.5 241.5q0 145 -90 238.5t-224 93.5t-224.5 -93.5t-90.5 -238.5q0 -146 91 -241.5t224 -95.5z" />
    <glyph glyph-name="Ocircumflex" unicode="&#xd4;" horiz-adv-x="766" 
d="M383 859l-86 -103h-27l101 125h26l101 -125h-27zM383 -7q-145 0 -244.5 103.5t-99.5 258.5t99 256t245 101t245 -101t99 -256t-99.5 -258.5t-244.5 -103.5zM383 18q135 0 224.5 95.5t89.5 241.5q0 145 -90 238.5t-224 93.5t-224.5 -93.5t-90.5 -238.5q0 -146 91 -241.5
t224 -95.5z" />
    <glyph glyph-name="Otilde" unicode="&#xd5;" horiz-adv-x="766" 
d="M443 782q30 -1 53 37q1 -3 4.5 -10t5.5 -12q-24 -40 -64 -39q-18 2 -52 23q-3 2 -9.5 6.5t-10.5 7t-10 5t-11 2.5q-29 0 -54 -44q-1 3 -4.5 11.5t-4.5 13.5q30 43 64 42q16 -2 49 -22q31 -21 44 -21zM383 -7q-145 0 -244.5 103.5t-99.5 258.5t99 256t245 101t245 -101
t99 -256t-99.5 -258.5t-244.5 -103.5zM383 18q135 0 224.5 95.5t89.5 241.5q0 145 -90 238.5t-224 93.5t-224.5 -93.5t-90.5 -238.5q0 -146 91 -241.5t224 -95.5z" />
    <glyph glyph-name="Odieresis" unicode="&#xd6;" horiz-adv-x="766" 
d="M453 779v45h31v-45h-31zM282 779v45h31v-45h-31zM383 -7q-145 0 -244.5 103.5t-99.5 258.5t99 256t245 101t245 -101t99 -256t-99.5 -258.5t-244.5 -103.5zM383 18q135 0 224.5 95.5t89.5 241.5q0 145 -90 238.5t-224 93.5t-224.5 -93.5t-90.5 -238.5q0 -146 91 -241.5
t224 -95.5z" />
    <glyph glyph-name="multiply" unicode="&#xd7;" horiz-adv-x="491" 
d="M410 164l-164 165l-165 -165l-18 17l165 165l-165 165l17 17l165 -165l165 165l18 -17l-165 -165l164 -165z" />
    <glyph glyph-name="Oslash" unicode="&#xd8;" horiz-adv-x="766" 
d="M68 355q0 -149 93 -244l423 504q-84 72 -201 72q-134 0 -224.5 -93.5t-90.5 -238.5zM383 18q135 0 224.5 95.5t89.5 241.5q0 149 -95 244l-423 -505q87 -76 204 -76zM383 -7q-126 0 -221 81l-87 -104l-18 16l87 104q-105 105 -105 265q0 155 99 256t245 101
q124 0 218 -77l79 95l18 -16l-79 -94q108 -102 108 -265q0 -155 -99.5 -258.5t-244.5 -103.5z" />
    <glyph glyph-name="Ugrave" unicode="&#xd9;" horiz-adv-x="656" 
d="M346 756l-92 125h30l87 -125h-25zM325 -7q-117 0 -185.5 68t-68.5 193v451h28v-450q0 -113 61 -175t165 -62q106 0 168.5 62t62.5 175v450h29v-451q0 -124 -71 -192.5t-189 -68.5z" />
    <glyph glyph-name="Uacute" unicode="&#xda;" horiz-adv-x="656" 
d="M427 881l-92 -125h-25l87 125h30zM325 -7q-117 0 -185.5 68t-68.5 193v451h28v-450q0 -113 61 -175t165 -62q106 0 168.5 62t62.5 175v450h29v-451q0 -124 -71 -192.5t-189 -68.5z" />
    <glyph glyph-name="Ucircumflex" unicode="&#xdb;" horiz-adv-x="656" 
d="M327 867l-104 -102h-28l118 124h28l118 -124h-28zM325 -7q-117 0 -185.5 68t-68.5 193v451h28v-450q0 -113 61 -175t165 -62q106 0 168.5 62t62.5 175v450h29v-451q0 -124 -71 -192.5t-189 -68.5z" />
    <glyph glyph-name="Udieresis" unicode="&#xdc;" horiz-adv-x="656" 
d="M325 -7q-117 0 -185.5 68t-68.5 193v451h28v-450q0 -113 61 -175t165 -62q106 0 168.5 62t62.5 175v450h29v-451q0 -124 -71 -192.5t-189 -68.5zM397 779v45h31v-45h-31zM226 779v45h31v-45h-31z" />
    <glyph glyph-name="Yacute" unicode="&#xdd;" horiz-adv-x="533" 
d="M357 881l-92 -125h-25l87 125h30zM281 0h-28v305l-245 398v2h30l229 -375l229 375h29v-2l-244 -398v-305z" />
    <glyph glyph-name="Thorn" unicode="&#xde;" horiz-adv-x="523" 
d="M264 521h-157v-316h170q90 0 137 40.5t47 118.5q0 157 -197 157zM281 181h-174v-181h-28v705h28v-158h158q110 0 167.5 -46.5t57.5 -137.5q0 -89 -55 -135.5t-154 -46.5z" />
    <glyph glyph-name="germandbls" unicode="&#xdf;" horiz-adv-x="499" 
d="M183 55l1 1q60 -39 128 -39q61 0 98.5 30t37.5 89q0 37 -22 69t-54 53.5t-63.5 40.5t-53.5 39.5t-22 40.5q0 24 24 48.5t53.5 44t53.5 53t24 72.5q0 55 -37.5 87t-99.5 32q-70 0 -114 -40t-44 -129v-547h-28v548q0 99 52 145.5t134 46.5q72 0 118.5 -39.5t46.5 -103.5
q0 -34 -16 -64t-39 -51t-45.5 -38t-38.5 -33t-16 -30q0 -15 22 -32t53.5 -36t63 -42t53.5 -58t22 -76q0 -72 -43.5 -108t-116.5 -36t-132 37v25z" />
    <glyph glyph-name="agrave" unicode="&#xe0;" horiz-adv-x="462" 
d="M250 602l-92 125h30l87 -125h-25zM198 17q66 0 110 27.5t66 66.5v174l-158 -30q-75 -14 -115 -40t-40 -82q0 -58 36 -87t101 -29zM378 0l-3 81q-61 -88 -178 -88q-75 0 -119.5 35.5t-44.5 104.5q0 35 13.5 60.5t41 41.5t55 25t67.5 17l164 31v29q0 90 -39 127t-120 37
q-87 0 -148 -42l-2 1v24q61 42 152 42q92 0 138.5 -43.5t46.5 -144.5v-338h-24z" />
    <glyph glyph-name="aacute" unicode="&#xe1;" horiz-adv-x="462" 
d="M323 727l-92 -125h-25l87 125h30zM198 17q66 0 110 27.5t66 66.5v174l-158 -30q-75 -14 -115 -40t-40 -82q0 -58 36 -87t101 -29zM378 0l-3 81q-61 -88 -178 -88q-75 0 -119.5 35.5t-44.5 104.5q0 35 13.5 60.5t41 41.5t55 25t67.5 17l164 31v29q0 90 -39 127t-120 37
q-87 0 -148 -42l-2 1v24q61 42 152 42q92 0 138.5 -43.5t46.5 -144.5v-338h-24z" />
    <glyph glyph-name="acircumflex" unicode="&#xe2;" horiz-adv-x="462" 
d="M234 695l-86 -103h-27l101 125h26l101 -125h-27zM198 17q66 0 110 27.5t66 66.5v174l-158 -30q-75 -14 -115 -40t-40 -82q0 -58 36 -87t101 -29zM378 0l-3 81q-61 -88 -178 -88q-75 0 -119.5 35.5t-44.5 104.5q0 35 13.5 60.5t41 41.5t55 25t67.5 17l164 31v29
q0 90 -39 127t-120 37q-87 0 -148 -42l-2 1v24q61 42 152 42q92 0 138.5 -43.5t46.5 -144.5v-338h-24z" />
    <glyph glyph-name="atilde" unicode="&#xe3;" horiz-adv-x="462" 
d="M289 633q30 -1 53 37q1 -3 4.5 -10t5.5 -12q-24 -40 -64 -39q-18 2 -52 23q-3 2 -9.5 6.5t-10.5 7t-10 5t-11 2.5q-29 0 -54 -44q-1 3 -4.5 11.5t-4.5 13.5q30 43 64 42q16 -2 49 -22q31 -21 44 -21zM198 17q66 0 110 27.5t66 66.5v174l-158 -30q-75 -14 -115 -40
t-40 -82q0 -58 36 -87t101 -29zM378 0l-3 81q-61 -88 -178 -88q-75 0 -119.5 35.5t-44.5 104.5q0 35 13.5 60.5t41 41.5t55 25t67.5 17l164 31v29q0 90 -39 127t-120 37q-87 0 -148 -42l-2 1v24q61 42 152 42q92 0 138.5 -43.5t46.5 -144.5v-338h-24z" />
    <glyph glyph-name="adieresis" unicode="&#xe4;" horiz-adv-x="462" 
d="M198 17q66 0 110 27.5t66 66.5v174l-158 -30q-75 -14 -115 -40t-40 -82q0 -58 36 -87t101 -29zM378 0l-3 81q-61 -88 -178 -88q-75 0 -119.5 35.5t-44.5 104.5q0 35 13.5 60.5t41 41.5t55 25t67.5 17l164 31v29q0 90 -39 127t-120 37q-87 0 -148 -42l-2 1v24
q61 42 152 42q92 0 138.5 -43.5t46.5 -144.5v-338h-24zM144 634v44h30v-44h-30zM290 634v44h30v-44h-30z" />
    <glyph glyph-name="aring" unicode="&#xe5;" horiz-adv-x="462" 
d="M198 17q66 0 110 27.5t66 66.5v174l-158 -30q-75 -14 -115 -40t-40 -82q0 -58 36 -87t101 -29zM378 0l-3 81q-61 -88 -178 -88q-75 0 -119.5 35.5t-44.5 104.5q0 35 13.5 60.5t41 41.5t55 25t67.5 17l164 31v29q0 90 -39 127t-120 37q-87 0 -148 -42l-2 1v24
q61 42 152 42q92 0 138.5 -43.5t46.5 -144.5v-338h-24zM232 586q-39 0 -64.5 26t-25.5 65t25 64.5t65 25.5t65 -25.5t25 -64.5t-25.5 -65t-64.5 -26zM232 748q-30 0 -49.5 -19.5t-19.5 -51.5t19.5 -51.5t49.5 -19.5q31 0 50 19.5t19 51.5t-19 51.5t-50 19.5z" />
    <glyph glyph-name="ae" unicode="&#xe6;" horiz-adv-x="854" 
d="M633 -6q-81 0 -141 35.5t-91 101.5q-22 -62 -73.5 -100t-130.5 -38q-75 0 -119.5 36t-44.5 104q0 35 13.5 60.5t41 41.5t55 25t68.5 17l164 31v29q0 90 -39 127t-120 37q-87 0 -149 -42l-2 1v24q62 42 152 42q84 0 128.5 -35t52.5 -119q25 72 82.5 113t135.5 41
q98 0 155.5 -61.5t49.5 -183.5h-418q-1 -7 -1 -20q0 -114 63 -178.5t169 -64.5q92 0 179 50l2 -1v-26q-85 -47 -182 -47zM199 17q77 0 126.5 41.5t62.5 106.5q-13 47 -13 96v24l-159 -31q-75 -14 -115 -39.5t-40 -81.5q0 -58 36.5 -87t101.5 -29zM616 502
q-86 0 -142.5 -53.5t-68.5 -144.5h388q1 97 -46.5 147.5t-130.5 50.5z" />
    <glyph glyph-name="ccedilla" unicode="&#xe7;" horiz-adv-x="483" 
d="M247 -215q-43 0 -72 18v23l1 1q30 -20 68 -20q34 0 52.5 16t18.5 45q0 56 -86 65v67q-88 20 -141.5 90t-53.5 171q0 120 73.5 193t184.5 73q86 0 142 -30v-25l-2 -1q-60 31 -140 31q-99 0 -164.5 -65.5t-65.5 -175.5t65 -177t168 -67q90 0 151 44l2 -2v-24
q-57 -42 -152 -42q-23 0 -44 3v-45q90 -16 90 -83q0 -39 -25 -61t-70 -22z" />
    <glyph glyph-name="egrave" unicode="&#xe8;" horiz-adv-x="515" 
d="M294 602l-92 125h30l87 -125h-25zM275 502q-86 0 -142.5 -53.5t-68.5 -144.5h389q1 97 -47 147.5t-131 50.5zM474 67v-26q-79 -47 -181 -47q-118 0 -188.5 72t-70.5 195q0 118 68 191.5t174 73.5q98 0 155 -61.5t49 -183.5h-418q-1 -7 -1 -20q0 -114 63 -178.5t169 -64.5
q92 0 179 50z" />
    <glyph glyph-name="eacute" unicode="&#xe9;" horiz-adv-x="515" 
d="M384 727l-92 -125h-25l87 125h30zM275 502q-86 0 -142.5 -53.5t-68.5 -144.5h389q1 97 -47 147.5t-131 50.5zM474 67v-26q-79 -47 -181 -47q-118 0 -188.5 72t-70.5 195q0 118 68 191.5t174 73.5q98 0 155 -61.5t49 -183.5h-418q-1 -7 -1 -20q0 -114 63 -178.5t169 -64.5
q92 0 179 50z" />
    <glyph glyph-name="ecircumflex" unicode="&#xea;" horiz-adv-x="515" 
d="M279 695l-86 -103h-27l101 125h26l101 -125h-27zM275 502q-86 0 -142.5 -53.5t-68.5 -144.5h389q1 97 -47 147.5t-131 50.5zM474 67v-26q-79 -47 -181 -47q-118 0 -188.5 72t-70.5 195q0 118 68 191.5t174 73.5q98 0 155 -61.5t49 -183.5h-418q-1 -7 -1 -20
q0 -114 63 -178.5t169 -64.5q92 0 179 50z" />
    <glyph glyph-name="edieresis" unicode="&#xeb;" horiz-adv-x="515" 
d="M184 634v44h30v-44h-30zM330 634v44h30v-44h-30zM275 502q-86 0 -142.5 -53.5t-68.5 -144.5h389q1 97 -47 147.5t-131 50.5zM474 67v-26q-79 -47 -181 -47q-118 0 -188.5 72t-70.5 195q0 118 68 191.5t174 73.5q98 0 155 -61.5t49 -183.5h-418q-1 -7 -1 -20
q0 -114 63 -178.5t169 -64.5q92 0 179 50z" />
    <glyph glyph-name="igrave" unicode="&#xec;" horiz-adv-x="163" 
d="M99 602l-92 125h30l87 -125h-25zM68 0v520h27v-520h-27z" />
    <glyph glyph-name="iacute" unicode="&#xed;" horiz-adv-x="163" 
d="M162 727l-92 -125h-25l87 125h30zM68 0v520h27v-520h-27z" />
    <glyph glyph-name="icircumflex" unicode="&#xee;" horiz-adv-x="163" 
d="M82 709l-103 -111h-27l116 133h28l116 -133h-27zM68 0v520h27v-520h-27z" />
    <glyph glyph-name="idieresis" unicode="&#xef;" horiz-adv-x="163" 
d="M12 634v44h31v-44h-31zM122 634v44h30v-44h-30zM68 0v520h27v-520h-27z" />
    <glyph glyph-name="eth" unicode="&#xf0;" horiz-adv-x="573" 
d="M286 -7q-108 0 -180 73.5t-72 194.5q0 120 71 193t179 73q138 0 209 -111q-40 135 -184 248l-124 -76l-10 18l116 71q-21 17 -103 71v1h41q81 -55 85 -58l98 60l10 -18l-90 -55q204 -160 204 -377q0 -161 -69 -234.5t-181 -73.5zM286 18q101 0 162 66.5t61 213.5
q0 48 -6 76q-71 128 -216 128q-98 0 -162 -65.5t-64 -175.5q0 -111 64 -177t161 -66z" />
    <glyph glyph-name="ntilde" unicode="&#xf1;" horiz-adv-x="512" 
d="M278 503q-100 0 -185 -78v-425h-28v520h24l3 -74q90 81 191 81q80 0 124.5 -42.5t44.5 -124.5v-360h-28v356q0 74 -39 110.5t-107 36.5zM321 653q39 0 70 39h2l10 -18q-37 -45 -82 -45q-28 0 -63.5 16.5t-57.5 16.5q-40 0 -71 -39h-2l-10 19q36 44 82 44q28 0 63.5 -16.5
t58.5 -16.5z" />
    <glyph glyph-name="ograve" unicode="&#xf2;" horiz-adv-x="578" 
d="M301 602l-92 125h30l87 -125h-25zM289 -7q-110 0 -182.5 73.5t-72.5 194.5t72.5 193.5t182.5 72.5t182.5 -72.5t72.5 -193.5t-72.5 -194.5t-182.5 -73.5zM289 18q99 0 163.5 66.5t64.5 176.5t-64.5 175.5t-163.5 65.5t-163.5 -65.5t-64.5 -175.5t64.5 -176.5t163.5 -66.5
z" />
    <glyph glyph-name="oacute" unicode="&#xf3;" horiz-adv-x="578" 
d="M402 727l-92 -125h-25l87 125h30zM289 -7q-110 0 -182.5 73.5t-72.5 194.5t72.5 193.5t182.5 72.5t182.5 -72.5t72.5 -193.5t-72.5 -194.5t-182.5 -73.5zM289 18q99 0 163.5 66.5t64.5 176.5t-64.5 175.5t-163.5 65.5t-163.5 -65.5t-64.5 -175.5t64.5 -176.5t163.5 -66.5
z" />
    <glyph glyph-name="ocircumflex" unicode="&#xf4;" horiz-adv-x="578" 
d="M289 695l-86 -103h-27l101 125h26l101 -125h-27zM289 -7q-110 0 -182.5 73.5t-72.5 194.5t72.5 193.5t182.5 72.5t182.5 -72.5t72.5 -193.5t-72.5 -194.5t-182.5 -73.5zM289 18q99 0 163.5 66.5t64.5 176.5t-64.5 175.5t-163.5 65.5t-163.5 -65.5t-64.5 -175.5
t64.5 -176.5t163.5 -66.5z" />
    <glyph glyph-name="otilde" unicode="&#xf5;" horiz-adv-x="578" 
d="M358 633q30 -1 53 37q1 -3 4.5 -10t5.5 -12q-24 -40 -64 -39q-18 2 -52 23q-3 2 -9.5 6.5t-10.5 7t-10 5t-11 2.5q-29 0 -54 -44q-1 3 -4.5 11.5t-4.5 13.5q30 43 64 42q16 -2 49 -22q31 -21 44 -21zM289 -7q-110 0 -182.5 73.5t-72.5 194.5t72.5 193.5t182.5 72.5
t182.5 -72.5t72.5 -193.5t-72.5 -194.5t-182.5 -73.5zM289 18q99 0 163.5 66.5t64.5 176.5t-64.5 175.5t-163.5 65.5t-163.5 -65.5t-64.5 -175.5t64.5 -176.5t163.5 -66.5z" />
    <glyph glyph-name="odieresis" unicode="&#xf6;" horiz-adv-x="578" 
d="M201 634v44h30v-44h-30zM347 634v44h30v-44h-30zM289 -7q-110 0 -182.5 73.5t-72.5 194.5t72.5 193.5t182.5 72.5t182.5 -72.5t72.5 -193.5t-72.5 -194.5t-182.5 -73.5zM289 18q99 0 163.5 66.5t64.5 176.5t-64.5 175.5t-163.5 65.5t-163.5 -65.5t-64.5 -175.5
t64.5 -176.5t163.5 -66.5z" />
    <glyph glyph-name="divide" unicode="&#xf7;" horiz-adv-x="469" 
d="M217 499v50h35v-50h-35zM40 334v23h389v-23h-389zM217 142v51h35v-51h-35z" />
    <glyph glyph-name="oslash" unicode="&#xf8;" horiz-adv-x="578" 
d="M61 261q0 -107 62 -175l309 369q-59 47 -143 47q-99 0 -163.5 -65.5t-64.5 -175.5zM289 18q99 0 163.5 66.5t64.5 176.5q0 114 -68 179l-309 -370q59 -52 149 -52zM289 -7q-97 0 -166 58l-58 -70l-18 14l60 71q-73 73 -73 195q0 121 72.5 193.5t182.5 72.5q94 0 159 -52
l58 69l17 -15l-57 -69q78 -76 78 -199q0 -121 -72.5 -194.5t-182.5 -73.5z" />
    <glyph glyph-name="ugrave" unicode="&#xf9;" horiz-adv-x="510" 
d="M261 602l-92 125h30l87 -125h-25zM421 0l-3 74q-90 -81 -190 -81q-80 0 -124.5 40t-44.5 120v367h28v-362q0 -141 146 -141q99 0 184 78v425h28v-520h-24z" />
    <glyph glyph-name="uacute" unicode="&#xfa;" horiz-adv-x="510" 
d="M355 727l-92 -125h-25l87 125h30zM421 0l-3 74q-90 -81 -190 -81q-80 0 -124.5 40t-44.5 120v367h28v-362q0 -141 146 -141q99 0 184 78v425h28v-520h-24z" />
    <glyph glyph-name="ucircumflex" unicode="&#xfb;" horiz-adv-x="510" 
d="M254 709l-103 -111h-27l116 133h28l116 -133h-27zM421 0l-3 74q-90 -81 -190 -81q-80 0 -124.5 40t-44.5 120v367h28v-362q0 -141 146 -141q99 0 184 78v425h28v-520h-24z" />
    <glyph glyph-name="udieresis" unicode="&#xfc;" horiz-adv-x="510" 
d="M166 634v44h30v-44h-30zM312 634v44h30v-44h-30zM421 0l-3 74q-90 -81 -190 -81q-80 0 -124.5 40t-44.5 120v367h28v-362q0 -141 146 -141q99 0 184 78v425h28v-520h-24z" />
    <glyph glyph-name="yacute" unicode="&#xfd;" horiz-adv-x="469" 
d="M334 727l-92 -125h-25l87 125h30zM37 -214v25q58 6 95 38t62 94l32 77l-216 498v2h29l201 -470l191 470h28v-2l-239 -580q-30 -76 -72.5 -111.5t-110.5 -40.5z" />
    <glyph glyph-name="thorn" unicode="&#xfe;" horiz-adv-x="562" 
d="M287 16q95 0 154.5 67.5t59.5 186.5q0 111 -60.5 172.5t-152.5 61.5q-125 0 -195 -103v-278q65 -107 194 -107zM288 -8q-130 0 -195 102v-304h-28v940l28 7v-310q33 47 84 74t112 27q103 0 171 -69t68 -189q0 -129 -66.5 -203.5t-173.5 -74.5z" />
    <glyph glyph-name="ydieresis" unicode="&#xff;" horiz-adv-x="469" 
d="M37 -214v25q58 6 95 38t62 94l32 77l-216 498v2h29l201 -470l191 470h28v-2l-239 -580q-30 -76 -72.5 -111.5t-110.5 -40.5zM153 634v44h30v-44h-30zM299 634v44h30v-44h-30z" />
    <glyph glyph-name="Amacron" unicode="&#x100;" 
d="M466 237l-165 412l-166 -412h331zM561 0l-85 212h-351l-85 -212h-28v2l287 709h4l287 -709v-2h-29zM180 786v24h244v-24h-244z" />
    <glyph glyph-name="amacron" unicode="&#x101;" horiz-adv-x="462" 
d="M198 17q66 0 110 27.5t66 66.5v174l-158 -30q-75 -14 -115 -40t-40 -82q0 -58 36 -87t101 -29zM378 0l-3 81q-61 -88 -178 -88q-75 0 -119.5 35.5t-44.5 104.5q0 35 13.5 60.5t41 41.5t55 25t67.5 17l164 31v29q0 90 -39 127t-120 37q-87 0 -148 -42l-2 1v24
q61 42 152 42q92 0 138.5 -43.5t46.5 -144.5v-338h-24zM115 645v24h236v-24h-236z" />
    <glyph glyph-name="Abreve" unicode="&#x102;" 
d="M301 756q-53 0 -82.5 31t-28.5 81h20q0 -41 22.5 -66.5t68.5 -25.5t69.5 25.5t23.5 66.5h20q1 -50 -29 -81t-84 -31zM466 237l-165 412l-166 -412h331zM561 0l-85 212h-351l-85 -212h-28v2l287 709h4l287 -709v-2h-29z" />
    <glyph glyph-name="abreve" unicode="&#x103;" horiz-adv-x="462" 
d="M244 596q-53 0 -82.5 31t-28.5 81h20q0 -41 22.5 -66.5t68.5 -25.5t69.5 25.5t23.5 66.5h20q1 -50 -29 -81t-84 -31zM198 17q66 0 110 27.5t66 66.5v174l-158 -30q-75 -14 -115 -40t-40 -82q0 -58 36 -87t101 -29zM378 0l-3 81q-61 -88 -178 -88q-75 0 -119.5 35.5
t-44.5 104.5q0 35 13.5 60.5t41 41.5t55 25t67.5 17l164 31v29q0 90 -39 127t-120 37q-87 0 -148 -42l-2 1v24q61 42 152 42q92 0 138.5 -43.5t46.5 -144.5v-338h-24z" />
    <glyph glyph-name="Aogonek" unicode="&#x104;" 
d="M567 -218q-47 0 -73.5 24t-26.5 63t26 74t66 61l-83 208h-351l-85 -212h-28v2l287 709h4l287 -709v-2q-96 -65 -96 -127q0 -32 19.5 -50t56.5 -18q32 0 57 15l2 -1v-22q-23 -15 -62 -15zM466 237l-166 412l-165 -412h331z" />
    <glyph glyph-name="aogonek" unicode="&#x105;" horiz-adv-x="462" 
d="M198 17q66 0 110 27.5t66 66.5v174l-158 -30q-75 -14 -115 -40t-40 -82q0 -58 36 -87t101 -29zM442 -181v-22q-23 -15 -61 -15q-48 0 -74.5 24t-26.5 63q0 76 98 138l-3 74q-61 -88 -178 -88q-75 0 -119.5 35.5t-44.5 104.5q0 35 13.5 60.5t41 41.5t55 25t67.5 17l164 31
v29q0 90 -39 127t-120 37q-87 0 -148 -42l-2 1v24q61 42 152 42q92 0 138.5 -43.5t46.5 -144.5v-338q-94 -67 -94 -127q0 -32 19 -50t56 -18q31 0 58 15z" />
    <glyph glyph-name="Cacute" unicode="&#x106;" horiz-adv-x="637" 
d="M391 -7q-154 0 -253 101.5t-99 260.5q0 157 101.5 257t253.5 100q102 0 186 -41v-27l-2 -2q-86 45 -184 45q-142 0 -234 -92.5t-92 -239.5q0 -150 90 -243.5t233 -93.5q123 0 203 58l2 -1v-28q-78 -54 -205 -54zM383 765h-27l106 135h33z" />
    <glyph glyph-name="cacute" unicode="&#x107;" horiz-adv-x="483" 
d="M284 598h-27l108 164h33zM296 -7q-115 0 -188.5 74t-73.5 194t73.5 193t184.5 73q86 0 142 -30v-25l-2 -1q-60 31 -140 31q-99 0 -164.5 -65.5t-65.5 -175.5t65 -177t168 -67q90 0 151 44l2 -2v-24q-57 -42 -152 -42z" />
    <glyph glyph-name="Ccircumflex" unicode="&#x108;" horiz-adv-x="637" 
d="M373 867l-104 -102h-28l118 124h28l118 -124h-28zM391 -7q-154 0 -253 101.5t-99 260.5q0 157 101.5 257t253.5 100q102 0 186 -41v-27l-2 -2q-86 45 -184 45q-142 0 -234 -92.5t-92 -239.5q0 -150 90 -243.5t233 -93.5q123 0 203 58l2 -1v-28q-78 -54 -205 -54z" />
    <glyph glyph-name="ccircumflex" unicode="&#x109;" horiz-adv-x="483" 
d="M276 709l-103 -111h-27l116 133h28l116 -133h-27zM296 -7q-115 0 -188.5 74t-73.5 194t73.5 193t184.5 73q86 0 142 -30v-25l-2 -1q-60 31 -140 31q-99 0 -164.5 -65.5t-65.5 -175.5t65 -177t168 -67q90 0 151 44l2 -2v-24q-57 -42 -152 -42z" />
    <glyph glyph-name="Cdotaccent" unicode="&#x10a;" horiz-adv-x="637" 
d="M391 -7q-154 0 -253 101.5t-99 260.5q0 157 101.5 257t253.5 100q102 0 186 -41v-27l-2 -2q-86 45 -184 45q-142 0 -234 -92.5t-92 -239.5q0 -150 90 -243.5t233 -93.5q123 0 203 58l2 -1v-28q-78 -54 -205 -54zM357 778v49h32v-49h-32z" />
    <glyph glyph-name="cdotaccent" unicode="&#x10b;" horiz-adv-x="483" 
d="M296 -7q-115 0 -188.5 74t-73.5 194t73.5 193t184.5 73q86 0 142 -30v-25l-2 -1q-60 31 -140 31q-99 0 -164.5 -65.5t-65.5 -175.5t65 -177t168 -67q90 0 151 44l2 -2v-24q-57 -42 -152 -42zM260 632v48h32v-48h-32z" />
    <glyph glyph-name="Ccaron" unicode="&#x10c;" horiz-adv-x="637" 
d="M373 786l105 103h27l-118 -124h-28l-118 124h27zM391 -7q-154 0 -253 101.5t-99 260.5q0 157 101.5 257t253.5 100q102 0 186 -41v-27l-2 -2q-86 45 -184 45q-142 0 -234 -92.5t-92 -239.5q0 -150 90 -243.5t233 -93.5q123 0 203 58l2 -1v-28q-78 -54 -205 -54z" />
    <glyph glyph-name="ccaron" unicode="&#x10d;" horiz-adv-x="483" 
d="M276 613l104 111h26l-116 -132h-28l-116 132h26zM296 -7q-115 0 -188.5 74t-73.5 194t73.5 193t184.5 73q86 0 142 -30v-25l-2 -1q-60 31 -140 31q-99 0 -164.5 -65.5t-65.5 -175.5t65 -177t168 -67q90 0 151 44l2 -2v-24q-57 -42 -152 -42z" />
    <glyph glyph-name="Dcaron" unicode="&#x10e;" horiz-adv-x="666" 
d="M308 786l105 103h27l-118 -124h-28l-118 124h27zM216 680h-109v-655h109q114 0 197 30.5t134 104.5t51 187q0 167 -104.5 250t-277.5 83zM79 0v705h139q185 0 297 -90t112 -268q0 -90 -30.5 -158t-86.5 -108.5t-129 -60.5t-163 -20h-139z" />
    <glyph glyph-name="dcaron" unicode="&#x10f;" horiz-adv-x="562" 
d="M546 581l10 152h28v-3l-17 -149h-21zM269 16q130 0 200 103v278q-65 107 -193 107q-92 0 -153.5 -67t-61.5 -182t58.5 -177t149.5 -62zM474 0l-4 94q-73 -102 -203 -102q-102 0 -167.5 69.5t-65.5 193.5q0 125 68 199t173 74q129 0 194 -102v304l28 7v-737h-23z" />
    <glyph glyph-name="Dcroat" unicode="&#x110;" horiz-adv-x="678" 
d="M340 336h-221v-311h109q114 0 197 30.5t134 104.5t51 187q0 167 -104.5 250t-277.5 83h-109v-321h221v-23zM91 0v336h-77v23h77v346h139q185 0 297 -90t112 -268q0 -90 -30.5 -158t-86.5 -108.5t-129 -60.5t-163 -20h-139z" />
    <glyph glyph-name="dslash" unicode="&#x111;" horiz-adv-x="562" 
d="M269 16q130 0 200 103v278q-65 107 -193 107q-92 0 -153.5 -67t-61.5 -182t58.5 -177t149.5 -62zM474 0l-4 94q-73 -102 -203 -102q-102 0 -167.5 69.5t-65.5 193.5q0 125 68 199t173 74q129 0 194 -102v190h-182v21h182v93l28 7v-100h79v-21h-79v-616h-23z" />
    <glyph glyph-name="Emacron" unicode="&#x112;" horiz-adv-x="495" 
d="M79 0v705h361v-25h-333v-303h293v-25h-293v-327h335v-25h-363zM137 786v24h244v-24h-244z" />
    <glyph glyph-name="emacron" unicode="&#x113;" horiz-adv-x="515" 
d="M275 502q-86 0 -142.5 -53.5t-68.5 -144.5h389q1 97 -47 147.5t-131 50.5zM474 67v-26q-79 -47 -181 -47q-118 0 -188.5 72t-70.5 195q0 118 68 191.5t174 73.5q98 0 155 -61.5t49 -183.5h-418q-1 -7 -1 -20q0 -114 63 -178.5t169 -64.5q92 0 179 50zM154 645v24h236v-24
h-236z" />
    <glyph glyph-name="Ebreve" unicode="&#x114;" horiz-adv-x="495" 
d="M79 0v705h361v-25h-333v-303h293v-25h-293v-327h335v-25h-363zM259 766q-57 0 -91.5 33t-38.5 84h24q6 -41 33 -67.5t73 -26.5t73 26.5t33 67.5h24q-4 -51 -38.5 -84t-91.5 -33z" />
    <glyph glyph-name="ebreve" unicode="&#x115;" horiz-adv-x="515" 
d="M275 502q-86 0 -142.5 -53.5t-68.5 -144.5h389q1 97 -47 147.5t-131 50.5zM474 67v-26q-79 -47 -181 -47q-118 0 -188.5 72t-70.5 195q0 118 68 191.5t174 73.5q98 0 155 -61.5t49 -183.5h-418q-1 -7 -1 -20q0 -114 63 -178.5t169 -64.5q92 0 179 50zM272 604
q-55 0 -89 33.5t-38 84.5h24q6 -42 32 -68t71 -26t71 26t32 68h24q-4 -51 -38 -84.5t-89 -33.5z" />
    <glyph glyph-name="Edotaccent" unicode="&#x116;" horiz-adv-x="495" 
d="M243 778v49h32v-49h-32zM79 0v705h361v-25h-333v-303h293v-25h-293v-327h335v-25h-363z" />
    <glyph glyph-name="edotaccent" unicode="&#x117;" horiz-adv-x="515" 
d="M275 502q-86 0 -142.5 -53.5t-68.5 -144.5h389q1 97 -47 147.5t-131 50.5zM474 67v-26q-79 -47 -181 -47q-118 0 -188.5 72t-70.5 195q0 118 68 191.5t174 73.5q98 0 155 -61.5t49 -183.5h-418q-1 -7 -1 -20q0 -114 63 -178.5t169 -64.5q92 0 179 50zM257 632v48h32v-48
h-32z" />
    <glyph glyph-name="Eogonek" unicode="&#x118;" horiz-adv-x="495" 
d="M433 -181v-22q-23 -15 -61 -15q-48 0 -74.5 24t-26.5 63q0 72 91 131h35q-98 -62 -98 -127q0 -32 19 -50t56 -18q31 0 58 15zM79 0v705h361v-25h-333v-303h293v-25h-293v-327h335v-25h-363z" />
    <glyph glyph-name="eogonek" unicode="&#x119;" horiz-adv-x="515" 
d="M275 502q-86 0 -142.5 -53.5t-68.5 -144.5h389q1 97 -47 147.5t-131 50.5zM437 -178v-23q-28 -17 -68 -17q-107 0 -107 89q0 73 89 129q-23 -6 -58 -6q-118 0 -188.5 72t-70.5 195q0 118 68 191.5t174 73.5q98 0 155 -61.5t49 -183.5h-418q-1 -7 -1 -20q0 -114 63 -178.5
t169 -64.5q92 0 179 50l2 -1v-26q-4 -3 -64 -31q-50 -23 -85 -58.5t-35 -76.5q0 -70 81 -70q40 0 65 18z" />
    <glyph glyph-name="Ecaron" unicode="&#x11a;" horiz-adv-x="495" 
d="M259 786l105 103h27l-118 -124h-28l-118 124h27zM79 0v705h361v-25h-333v-303h293v-25h-293v-327h335v-25h-363z" />
    <glyph glyph-name="ecaron" unicode="&#x11b;" horiz-adv-x="515" 
d="M272 613l104 111h26l-116 -132h-28l-116 132h26zM275 502q-86 0 -142.5 -53.5t-68.5 -144.5h389q1 97 -47 147.5t-131 50.5zM474 67v-26q-79 -47 -181 -47q-118 0 -188.5 72t-70.5 195q0 118 68 191.5t174 73.5q98 0 155 -61.5t49 -183.5h-418q-1 -7 -1 -20
q0 -114 63 -178.5t169 -64.5q92 0 179 50z" />
    <glyph glyph-name="Gcircumflex" unicode="&#x11c;" horiz-adv-x="680" 
d="M374 867l-104 -102h-28l118 124h28l118 -124h-28zM616 351v-284q-103 -74 -229 -74q-158 0 -253 101t-95 261q0 157 100 257t253 100q108 0 188 -41v-28l-1 -1q-85 45 -187 45q-142 0 -233 -92.5t-91 -239.5q0 -150 86 -243.5t233 -93.5q111 0 200 60v248h-196v25h225z
" />
    <glyph glyph-name="gcircumflex" unicode="&#x11d;" horiz-adv-x="477" 
d="M241 709l-103 -111h-27l116 133h28l116 -133h-27zM227 208q66 0 111.5 40t45.5 106q0 67 -45.5 108.5t-111.5 41.5q-67 0 -111 -41t-44 -109q0 -66 45 -106t110 -40zM236 -212q-106 0 -163.5 34t-57.5 99q0 35 23 64h25l1 -1q-22 -24 -22 -61q0 -112 194 -112
q98 0 153 37.5t55 98.5q0 83 -117 88l-160 7q-99 4 -99 76q0 58 68 90q-41 21 -66 59t-25 87q0 77 52 124t130 47q25 0 54 -8l162 4v-23h-123q41 -20 65.5 -57t24.5 -87q0 -76 -52.5 -121.5t-130.5 -45.5q-33 0 -68 11q-66 -26 -66 -76t76 -54l160 -7q142 -9 142 -114
q0 -70 -63 -114.5t-172 -44.5z" />
    <glyph glyph-name="Gbreve" unicode="&#x11e;" horiz-adv-x="680" 
d="M374 766q-57 0 -91.5 33t-38.5 84h24q6 -41 33 -67.5t73 -26.5t73 26.5t33 67.5h24q-4 -51 -38.5 -84t-91.5 -33zM616 351v-284q-103 -74 -229 -74q-158 0 -253 101t-95 261q0 157 100 257t253 100q108 0 188 -41v-28l-1 -1q-85 45 -187 45q-142 0 -233 -92.5t-91 -239.5
q0 -150 86 -243.5t233 -93.5q111 0 200 60v248h-196v25h225z" />
    <glyph glyph-name="gbreve" unicode="&#x11f;" horiz-adv-x="477" 
d="M227 208q66 0 111.5 40t45.5 106q0 67 -45.5 108.5t-111.5 41.5q-67 0 -111 -41t-44 -109q0 -66 45 -106t110 -40zM236 -212q-106 0 -163.5 34t-57.5 99q0 35 23 64h25l1 -1q-22 -24 -22 -61q0 -112 194 -112q98 0 153 37.5t55 98.5q0 83 -117 88l-160 7q-99 4 -99 76
q0 58 68 90q-41 21 -66 59t-25 87q0 77 52 124t130 47q25 0 54 -8l162 4v-23h-123q41 -20 65.5 -57t24.5 -87q0 -76 -52.5 -121.5t-130.5 -45.5q-33 0 -68 11q-66 -26 -66 -76t76 -54l160 -7q142 -9 142 -114q0 -70 -63 -114.5t-172 -44.5zM241 604q-55 0 -89 33.5t-38 84.5
h24q6 -42 32 -68t71 -26t71 26t32 68h24q-4 -51 -38 -84.5t-89 -33.5z" />
    <glyph glyph-name="Gdotaccent" unicode="&#x120;" horiz-adv-x="680" 
d="M358 778v49h32v-49h-32zM616 351v-284q-103 -74 -229 -74q-158 0 -253 101t-95 261q0 157 100 257t253 100q108 0 188 -41v-28l-1 -1q-85 45 -187 45q-142 0 -233 -92.5t-91 -239.5q0 -150 86 -243.5t233 -93.5q111 0 200 60v248h-196v25h225z" />
    <glyph glyph-name="gdotaccent" unicode="&#x121;" horiz-adv-x="477" 
d="M227 208q66 0 111.5 40t45.5 106q0 67 -45.5 108.5t-111.5 41.5q-67 0 -111 -41t-44 -109q0 -66 45 -106t110 -40zM236 -212q-106 0 -163.5 34t-57.5 99q0 35 23 64h25l1 -1q-22 -24 -22 -61q0 -112 194 -112q98 0 153 37.5t55 98.5q0 83 -117 88l-160 7q-99 4 -99 76
q0 58 68 90q-41 21 -66 59t-25 87q0 77 52 124t130 47q25 0 54 -8l162 4v-23h-123q41 -20 65.5 -57t24.5 -87q0 -76 -52.5 -121.5t-130.5 -45.5q-33 0 -68 11q-66 -26 -66 -76t76 -54l160 -7q142 -9 142 -114q0 -70 -63 -114.5t-172 -44.5zM226 632v48h32v-48h-32z" />
    <glyph glyph-name="uni0122" unicode="&#x122;" horiz-adv-x="680" 
d="M342 -174l17 124h30v-2l-24 -122h-23zM616 351v-284q-103 -74 -229 -74q-158 0 -253 101t-95 261q0 157 100 257t253 100q108 0 188 -41v-28l-1 -1q-85 45 -187 45q-142 0 -233 -92.5t-91 -239.5q0 -150 86 -243.5t233 -93.5q111 0 200 60v248h-196v25h225z" />
    <glyph glyph-name="uni0123" unicode="&#x123;" horiz-adv-x="477" 
d="M269 730l-17 -124h-30v2l24 122h23zM227 208q66 0 111.5 40t45.5 106q0 67 -45.5 108.5t-111.5 41.5q-67 0 -111 -41t-44 -109q0 -66 45 -106t110 -40zM236 -212q-106 0 -163.5 34t-57.5 99q0 35 23 64h25l1 -1q-22 -24 -22 -61q0 -112 194 -112q98 0 153 37.5t55 98.5
q0 83 -117 88l-160 7q-99 4 -99 76q0 58 68 90q-41 21 -66 59t-25 87q0 77 52 124t130 47q25 0 54 -8l162 4v-23h-123q41 -20 65.5 -57t24.5 -87q0 -76 -52.5 -121.5t-130.5 -45.5q-33 0 -68 11q-66 -26 -66 -76t76 -54l160 -7q142 -9 142 -114q0 -70 -63 -114.5t-172 -44.5
z" />
    <glyph glyph-name="Hcircumflex" unicode="&#x124;" horiz-adv-x="661" 
d="M554 0v344h-447v-344h-28v705h28v-336h447v336h28v-705h-28zM330 867l-104 -102h-28l118 124h28l118 -124h-28z" />
    <glyph glyph-name="hcircumflex" unicode="&#x125;" horiz-adv-x="511" 
d="M278 503q-100 0 -185 -78v-425h-28v730l28 7v-291q89 81 190 81q80 0 124.5 -42.5t44.5 -124.5v-360h-28v356q0 74 -39 110.5t-107 36.5zM257 873l-104 -102h-28l118 124h28l118 -124h-28z" />
    <glyph glyph-name="Hbar" unicode="&#x126;" horiz-adv-x="661" 
d="M554 369v157h-447v-157h447zM554 0v344h-447v-344h-28v526h-91v23h91v156h28v-156h447v156h28v-156h88v-23h-88v-526h-28z" />
    <glyph glyph-name="hbar" unicode="&#x127;" horiz-adv-x="511" 
d="M278 503q-100 0 -185 -78v-425h-28v616h-80v21h80v93l28 7v-100h182v-21h-182v-170q89 81 190 81q80 0 124.5 -42.5t44.5 -124.5v-360h-28v356q0 74 -39 110.5t-107 36.5z" />
    <glyph glyph-name="Itilde" unicode="&#x128;" horiz-adv-x="191" 
d="M145 782q30 -1 53 37q1 -3 4.5 -10t5.5 -12q-24 -40 -64 -39q-18 2 -52 23q-3 2 -9.5 6.5t-10.5 7t-10 5t-11 2.5q-29 0 -54 -44q-1 3 -4.5 11.5t-4.5 13.5q30 43 64 42q16 -2 49 -22q32 -21 44 -21zM81 0v705h29v-705h-29z" />
    <glyph glyph-name="itilde" unicode="&#x129;" horiz-adv-x="163" 
d="M136 633q30 -1 53 37q1 -3 4.5 -10t5.5 -12q-24 -40 -64 -39q-18 2 -52 23q-3 2 -9.5 6.5t-10.5 7t-10 5t-11 2.5q-29 0 -54 -44q-1 3 -4.5 11.5t-4.5 13.5q30 43 64 42q16 -2 49 -22q32 -21 44 -21zM68 0v520h27v-520h-27z" />
    <glyph glyph-name="Imacron" unicode="&#x12a;" horiz-adv-x="191" 
d="M4 786v24h184v-24h-184zM81 0v705h29v-705h-29z" />
    <glyph glyph-name="imacron" unicode="&#x12b;" horiz-adv-x="163" 
d="M-3 645v24h170v-24h-170zM68 0v520h27v-520h-27z" />
    <glyph glyph-name="Ibreve" unicode="&#x12c;" horiz-adv-x="191" 
d="M81 0v705h29v-705h-29zM96 766q-57 0 -91.5 33t-38.5 84h24q6 -41 33 -67.5t73 -26.5t73 26.5t33 67.5h24q-4 -51 -38.5 -84t-91.5 -33z" />
    <glyph glyph-name="ibreve" unicode="&#x12d;" horiz-adv-x="163" 
d="M68 0v520h27v-520h-27zM82 604q-55 0 -89 33.5t-38 84.5h24q6 -42 32 -68t71 -26t71 26t32 68h24q-4 -51 -38 -84.5t-89 -33.5z" />
    <glyph glyph-name="Iogonek" unicode="&#x12e;" horiz-adv-x="191" 
d="M149 -181v-22q-23 -15 -60 -15q-43 0 -68 23.5t-25 62.5q0 76 85 137v700h29v-705q-86 -61 -86 -129q0 -30 17.5 -48t49.5 -18q31 0 56 15z" />
    <glyph glyph-name="iogonek" unicode="&#x12f;" horiz-adv-x="163" 
d="M66 630v45h31v-45h-31zM136 -181v-22q-22 -15 -60 -15q-43 0 -68 23.5t-25 62.5q0 78 85 139v513h27v-520q-84 -59 -84 -129q0 -30 17.5 -48t49.5 -18q31 0 56 15z" />
    <glyph glyph-name="Idot" unicode="&#x130;" horiz-adv-x="191" 
d="M81 0v705h29v-705h-29zM80 778v49h32v-49h-32z" />
    <glyph glyph-name="dotlessi" unicode="&#x131;" horiz-adv-x="163" 
d="M68 0v520h27v-520h-27z" />
    <glyph glyph-name="IJ" unicode="&#x132;" horiz-adv-x="382" 
d="M140 -165v25q67 14 99.5 56t32.5 122v667h28v-668q0 -93 -39.5 -139.5t-120.5 -62.5zM81 0v705h29v-705h-29z" />
    <glyph glyph-name="ij" unicode="&#x133;" horiz-adv-x="330" 
d="M234 630v45h31v-45h-31zM66 630v45h31v-45h-31zM68 0v520h27v-520h-27zM123 -215v25q54 4 83.5 36.5t29.5 115.5v558h27v-559q0 -94 -37 -133t-103 -43z" />
    <glyph glyph-name="Jcircumflex" unicode="&#x134;" horiz-adv-x="193" 
d="M100 867l-104 -102h-28l118 124h28l118 -124h-28zM-47 -165v25q67 14 99.5 56t32.5 122v667h29v-668q0 -93 -40 -139.5t-121 -62.5z" />
    <glyph glyph-name="jcircumflex" unicode="&#x135;" horiz-adv-x="161" 
d="M-46 -215v25q54 4 83.5 36.5t29.5 115.5v558h27v-559q0 -94 -37 -133t-103 -43zM82 709l-103 -111h-27l116 133h28l116 -133h-27z" />
    <glyph glyph-name="uni0136" unicode="&#x136;" horiz-adv-x="547" 
d="M249 -174l17 124h30v-2l-24 -122h-23zM491 0l-288 369l-96 -106v-263h-28v705h28v-406l365 406h31v-2q-30 -35 -105 -118q-25 -27 -87.5 -97.5t-88.5 -97.5l301 -388v-2h-32z" />
    <glyph glyph-name="uni0137" unicode="&#x137;" horiz-adv-x="437" 
d="M196 -174l17 124h30v-2l-24 -122h-23zM385 0l-230 273l-62 -64v-209h-28v730l28 7v-497l271 280h31v-2l-221 -227l241 -289v-2h-30z" />
    <glyph glyph-name="Lacute" unicode="&#x139;" horiz-adv-x="491" 
d="M104 765h-27l106 135h33zM79 0v705h28v-680h343v-25h-371z" />
    <glyph glyph-name="lacute" unicode="&#x13a;" horiz-adv-x="166" 
d="M95 779h-27l106 135h33zM69 0v730l28 7v-737h-28z" />
    <glyph glyph-name="uni013B" unicode="&#x13b;" horiz-adv-x="491" 
d="M229 -174l17 124h30v-2l-24 -122h-23zM79 0v705h28v-680h343v-25h-371z" />
    <glyph glyph-name="uni013C" unicode="&#x13c;" horiz-adv-x="166" 
d="M51 -174l17 124h30v-2l-24 -122h-23zM69 0v730l28 7v-737h-28z" />
    <glyph glyph-name="Lcaron" unicode="&#x13d;" horiz-adv-x="491" 
d="M183 553l10 152h28v-3l-17 -149h-21zM79 0v705h28v-680h343v-25h-371z" />
    <glyph glyph-name="lcaron" unicode="&#x13e;" horiz-adv-x="166" 
d="M146 581l10 152h28v-3l-17 -149h-21zM69 0v730l28 7v-737h-28z" />
    <glyph glyph-name="Ldot" unicode="&#x13f;" horiz-adv-x="491" 
d="M365 357v48h32v-48h-32zM79 0v705h28v-680h343v-25h-371z" />
    <glyph glyph-name="ldot" unicode="&#x140;" horiz-adv-x="224" 
d="M69 0v730l28 7v-737h-28zM180 358v48h30v-48h-30z" />
    <glyph glyph-name="Lslash" unicode="&#x141;" horiz-adv-x="504" 
d="M92 0v280l-75 -29v26l75 29v399h28v-389l234 90v-26l-234 -90v-265h343v-25h-371z" />
    <glyph glyph-name="lslash" unicode="&#x142;" horiz-adv-x="194" 
d="M108 0h-27v430l-71 -45v26l71 45v274l27 7v-265l79 50v-26l-79 -50v-446z" />
    <glyph glyph-name="Nacute" unicode="&#x143;" horiz-adv-x="672" 
d="M594 -6h-9l-479 651v-645h-27v711h10l477 -649v643h28v-711zM359 765h-27l106 135h33z" />
    <glyph glyph-name="nacute" unicode="&#x144;" horiz-adv-x="512" 
d="M268 598h-27l108 164h33zM278 503q-100 0 -185 -78v-425h-28v520h24l3 -74q90 81 191 81q80 0 124.5 -42.5t44.5 -124.5v-360h-28v356q0 74 -39 110.5t-107 36.5z" />
    <glyph glyph-name="uni0145" unicode="&#x145;" horiz-adv-x="672" 
d="M301 -174l17 124h30v-2l-24 -122h-23zM594 -6h-9l-479 651v-645h-27v711h10l477 -649v643h28v-711z" />
    <glyph glyph-name="uni0146" unicode="&#x146;" horiz-adv-x="512" 
d="M228 -174l17 124h30v-2l-24 -122h-23zM278 503q-100 0 -185 -78v-425h-28v520h24l3 -74q90 81 191 81q80 0 124.5 -42.5t44.5 -124.5v-360h-28v356q0 74 -39 110.5t-107 36.5z" />
    <glyph glyph-name="Ncaron" unicode="&#x147;" horiz-adv-x="672" 
d="M594 -6h-9l-479 651v-645h-27v711h10l477 -649v643h28v-711zM349 786l105 103h27l-118 -124h-28l-118 124h27z" />
    <glyph glyph-name="ncaron" unicode="&#x148;" horiz-adv-x="512" 
d="M260 613l104 111h26l-116 -132h-28l-116 132h26zM278 503q-100 0 -185 -78v-425h-28v520h24l3 -74q90 81 191 81q80 0 124.5 -42.5t44.5 -124.5v-360h-28v356q0 74 -39 110.5t-107 36.5z" />
    <glyph glyph-name="napostrophe" unicode="&#x149;" horiz-adv-x="508" 
d="M40 705v-3l-34 -135h-22l27 138h29zM275 503q-100 0 -185 -78v-425h-28v520h24l3 -74q90 81 191 81q80 0 124.5 -42.5t44.5 -124.5v-360h-28v356q0 74 -39 110.5t-107 36.5z" />
    <glyph glyph-name="Eng" unicode="&#x14a;" horiz-adv-x="672" 
d="M433 -165v25q64 15 96 52.5t36 109.5l-459 623v-645h-27v711h10l477 -649v643h28v-668q0 -93 -40 -139.5t-121 -62.5z" />
    <glyph glyph-name="eng" unicode="&#x14b;" horiz-adv-x="511" 
d="M304 -215v25q58 4 89 36.5t31 115.5v394q0 74 -39 110.5t-107 36.5q-100 0 -185 -78v-425h-28v520h24l3 -74q90 81 191 81q80 0 124.5 -42.5t44.5 -124.5v-399q0 -94 -38.5 -133t-109.5 -43z" />
    <glyph glyph-name="Omacron" unicode="&#x14c;" horiz-adv-x="766" 
d="M261 786v24h244v-24h-244zM383 -7q-145 0 -244.5 103.5t-99.5 258.5t99 256t245 101t245 -101t99 -256t-99.5 -258.5t-244.5 -103.5zM383 18q135 0 224.5 95.5t89.5 241.5q0 145 -90 238.5t-224 93.5t-224.5 -93.5t-90.5 -238.5q0 -146 91 -241.5t224 -95.5z" />
    <glyph glyph-name="omacron" unicode="&#x14d;" horiz-adv-x="578" 
d="M171 645v24h236v-24h-236zM289 -7q-110 0 -182.5 73.5t-72.5 194.5t72.5 193.5t182.5 72.5t182.5 -72.5t72.5 -193.5t-72.5 -194.5t-182.5 -73.5zM289 18q99 0 163.5 66.5t64.5 176.5t-64.5 175.5t-163.5 65.5t-163.5 -65.5t-64.5 -175.5t64.5 -176.5t163.5 -66.5z" />
    <glyph glyph-name="Obreve" unicode="&#x14e;" horiz-adv-x="766" 
d="M383 766q-57 0 -91.5 33t-38.5 84h24q6 -41 33 -67.5t73 -26.5t73 26.5t33 67.5h24q-4 -51 -38.5 -84t-91.5 -33zM383 -7q-145 0 -244.5 103.5t-99.5 258.5t99 256t245 101t245 -101t99 -256t-99.5 -258.5t-244.5 -103.5zM383 18q135 0 224.5 95.5t89.5 241.5
q0 145 -90 238.5t-224 93.5t-224.5 -93.5t-90.5 -238.5q0 -146 91 -241.5t224 -95.5z" />
    <glyph glyph-name="obreve" unicode="&#x14f;" horiz-adv-x="578" 
d="M289 -7q-110 0 -182.5 73.5t-72.5 194.5t72.5 193.5t182.5 72.5t182.5 -72.5t72.5 -193.5t-72.5 -194.5t-182.5 -73.5zM289 18q99 0 163.5 66.5t64.5 176.5t-64.5 175.5t-163.5 65.5t-163.5 -65.5t-64.5 -175.5t64.5 -176.5t163.5 -66.5zM289 604q-55 0 -89 33.5
t-38 84.5h24q6 -42 32 -68t71 -26t71 26t32 68h24q-4 -51 -38 -84.5t-89 -33.5z" />
    <glyph glyph-name="Ohungarumlaut" unicode="&#x150;" horiz-adv-x="766" 
d="M334 765h-23l74 135h31zM455 765h-24l74 135h32q-2 0 -41 -68q-6 -9 -19.5 -31.5t-21.5 -35.5zM383 -7q-145 0 -244.5 103.5t-99.5 258.5t99 256t245 101t245 -101t99 -256t-99.5 -258.5t-244.5 -103.5zM383 18q135 0 224.5 95.5t89.5 241.5q0 145 -90 238.5t-224 93.5
t-224.5 -93.5t-90.5 -238.5q0 -146 91 -241.5t224 -95.5z" />
    <glyph glyph-name="ohungarumlaut" unicode="&#x151;" horiz-adv-x="578" 
d="M243 598h-24l76 164h31zM360 598h-24l76 164h31zM289 -7q-110 0 -182.5 73.5t-72.5 194.5t72.5 193.5t182.5 72.5t182.5 -72.5t72.5 -193.5t-72.5 -194.5t-182.5 -73.5zM289 18q99 0 163.5 66.5t64.5 176.5t-64.5 175.5t-163.5 65.5t-163.5 -65.5t-64.5 -175.5
t64.5 -176.5t163.5 -66.5z" />
    <glyph glyph-name="OE" unicode="&#x152;" horiz-adv-x="880" 
d="M385 25h79v655h-79q-136 0 -226.5 -91t-90.5 -234t91 -236.5t226 -93.5zM827 0h-442q-147 0 -246.5 101.5t-99.5 253.5t99 251t247 99h440v-25h-333v-303h293v-25h-293v-327h335v-25z" />
    <glyph glyph-name="oe" unicode="&#x153;" horiz-adv-x="996" 
d="M758 502q-86 0 -142.5 -53.5t-68.5 -144.5h388q2 97 -45.5 147.5t-131.5 50.5zM289 18q99 0 163.5 66.5t64.5 176.5t-64.5 175.5t-163.5 65.5t-163.5 -65.5t-64.5 -175.5t64.5 -176.5t163.5 -66.5zM776 -6q-96 0 -160.5 48.5t-85.5 136.5q-23 -87 -87 -136.5t-154 -49.5
q-110 0 -182.5 73.5t-72.5 194.5t72.5 193.5t182.5 72.5q90 0 154.5 -49t86.5 -136q21 85 82 134.5t147 49.5q98 0 155 -61.5t49 -183.5h-418q-1 -7 -1 -20q0 -114 63 -178.5t169 -64.5q92 0 179 50l2 -1v-26q-79 -47 -181 -47z" />
    <glyph glyph-name="Racute" unicode="&#x154;" horiz-adv-x="543" 
d="M270 765h-27l106 135h33zM249 680h-142v-335h170q80 0 131 45.5t51 125.5q0 81 -54.5 122.5t-155.5 41.5zM487 0l-210 321h-170v-321h-28v705h171q113 0 175.5 -48t62.5 -142q0 -83 -50.5 -132.5t-130.5 -58.5l213 -322v-2h-33z" />
    <glyph glyph-name="racute" unicode="&#x155;" horiz-adv-x="309" 
d="M180 598h-27l108 164h33zM93 0h-28v520h24l4 -79q62 83 155 83q23 0 40 -4v-24l-2 -2q-15 5 -38 5q-92 0 -155 -84v-415z" />
    <glyph glyph-name="uni0156" unicode="&#x156;" horiz-adv-x="543" 
d="M256 -174l17 124h30v-2l-24 -122h-23zM249 680h-142v-335h170q80 0 131 45.5t51 125.5q0 81 -54.5 122.5t-155.5 41.5zM487 0l-210 321h-170v-321h-28v705h171q113 0 175.5 -48t62.5 -142q0 -83 -50.5 -132.5t-130.5 -58.5l213 -322v-2h-33z" />
    <glyph glyph-name="uni0157" unicode="&#x157;" horiz-adv-x="309" 
d="M46 -174l17 124h30v-2l-24 -122h-23zM93 0h-28v520h24l4 -79q62 83 155 83q23 0 40 -4v-24l-2 -2q-15 5 -38 5q-92 0 -155 -84v-415z" />
    <glyph glyph-name="Rcaron" unicode="&#x158;" horiz-adv-x="543" 
d="M260 786l105 103h27l-118 -124h-28l-118 124h27zM249 680h-142v-335h170q80 0 131 45.5t51 125.5q0 81 -54.5 122.5t-155.5 41.5zM487 0l-210 321h-170v-321h-28v705h171q113 0 175.5 -48t62.5 -142q0 -83 -50.5 -132.5t-130.5 -58.5l213 -322v-2h-33z" />
    <glyph glyph-name="rcaron" unicode="&#x159;" horiz-adv-x="309" 
d="M171 613l104 111h26l-116 -132h-28l-116 132h26zM93 0h-28v520h24l4 -79q62 83 155 83q23 0 40 -4v-24l-2 -2q-15 5 -38 5q-92 0 -155 -84v-415z" />
    <glyph glyph-name="Sacute" unicode="&#x15a;" horiz-adv-x="492" 
d="M241 -7q-124 0 -208 65v29l2 1q84 -70 206 -70q79 0 130 45t51 117q0 66 -40 103t-117 64l-65 22q-75 26 -114 66t-39 107q0 79 55.5 124.5t134.5 45.5q101 0 177 -49v-26l-1 -1q-75 51 -175 51q-69 0 -116 -38.5t-47 -105.5q0 -56 34.5 -91.5t100.5 -57.5l65 -22
q84 -31 130 -73t46 -117q0 -85 -59.5 -137t-150.5 -52zM257 765h-27l106 135h33z" />
    <glyph glyph-name="sacute" unicode="&#x15b;" horiz-adv-x="404" 
d="M210 598h-27l108 164h33zM193 -5q-99 0 -166 48v28l2 1q68 -54 164 -54q66 0 107 31t41 87q0 49 -29 72.5t-95 44.5l-43 14q-68 22 -100.5 51.5t-32.5 84.5q0 57 45 91t118 34q87 0 143 -35v-24l-1 -2q-58 37 -142 37q-62 0 -98.5 -26.5t-36.5 -72.5q0 -47 27 -71.5
t85 -41.5l43 -14q78 -25 111.5 -52.5t33.5 -88.5q0 -67 -50 -104.5t-126 -37.5z" />
    <glyph glyph-name="Scircumflex" unicode="&#x15c;" horiz-adv-x="492" 
d="M247 867l-104 -102h-28l118 124h28l118 -124h-28zM241 -7q-124 0 -208 65v29l2 1q84 -70 206 -70q79 0 130 45t51 117q0 66 -40 103t-117 64l-65 22q-75 26 -114 66t-39 107q0 79 55.5 124.5t134.5 45.5q101 0 177 -49v-26l-1 -1q-75 51 -175 51q-69 0 -116 -38.5
t-47 -105.5q0 -56 34.5 -91.5t100.5 -57.5l65 -22q84 -31 130 -73t46 -117q0 -85 -59.5 -137t-150.5 -52z" />
    <glyph glyph-name="scircumflex" unicode="&#x15d;" horiz-adv-x="404" 
d="M201 709l-103 -111h-27l116 133h28l116 -133h-27zM193 -5q-99 0 -166 48v28l2 1q68 -54 164 -54q66 0 107 31t41 87q0 49 -29 72.5t-95 44.5l-43 14q-68 22 -100.5 51.5t-32.5 84.5q0 57 45 91t118 34q87 0 143 -35v-24l-1 -2q-58 37 -142 37q-62 0 -98.5 -26.5
t-36.5 -72.5q0 -47 27 -71.5t85 -41.5l43 -14q78 -25 111.5 -52.5t33.5 -88.5q0 -67 -50 -104.5t-126 -37.5z" />
    <glyph glyph-name="uni015E" unicode="&#x15e;" horiz-adv-x="492" 
d="M220 -215q-43 0 -72 18v23l1 1q30 -20 68 -20q34 0 52.5 16t18.5 45q0 56 -86 65v62q-102 10 -169 63v29l2 1q84 -70 206 -70q79 0 130 45t51 117q0 66 -40 103t-117 64l-65 22q-75 26 -114 66t-39 107q0 79 55.5 124.5t134.5 45.5q101 0 177 -49v-26l-1 -1
q-75 51 -175 51q-69 0 -116 -38.5t-47 -105.5q0 -56 34.5 -91.5t100.5 -57.5l65 -22q84 -31 130 -73t46 -117q0 -85 -59.5 -137t-150.5 -52h-16v-42q90 -16 90 -83q0 -39 -25 -61t-70 -22z" />
    <glyph glyph-name="uni015F" unicode="&#x15f;" horiz-adv-x="404" 
d="M179 -215q-41 0 -72 19v20l1 1q30 -20 68 -20q33 0 53 17t20 46q0 55 -88 65v63q-78 9 -134 47v28l2 1q68 -54 164 -54q66 0 107 31t41 87q0 49 -29 72.5t-95 44.5l-43 14q-68 22 -100.5 51.5t-32.5 84.5q0 57 45 91t118 34q87 0 143 -35v-24l-1 -2q-58 37 -142 37
q-62 0 -98.5 -26.5t-36.5 -72.5q0 -47 27 -71.5t85 -41.5l43 -14q78 -25 111.5 -52.5t33.5 -88.5q0 -67 -50 -104.5t-126 -37.5h-11v-48q19 -4 33 -8t28.5 -12.5t22.5 -23.5t8 -35q0 -39 -25 -61t-70 -22z" />
    <glyph glyph-name="Scaron" unicode="&#x160;" horiz-adv-x="492" 
d="M247 786l105 103h27l-118 -124h-28l-118 124h27zM241 -7q-124 0 -208 65v29l2 1q84 -70 206 -70q79 0 130 45t51 117q0 66 -40 103t-117 64l-65 22q-75 26 -114 66t-39 107q0 79 55.5 124.5t134.5 45.5q101 0 177 -49v-26l-1 -1q-75 51 -175 51q-69 0 -116 -38.5
t-47 -105.5q0 -56 34.5 -91.5t100.5 -57.5l65 -22q84 -31 130 -73t46 -117q0 -85 -59.5 -137t-150.5 -52z" />
    <glyph glyph-name="scaron" unicode="&#x161;" horiz-adv-x="404" 
d="M201 613l104 111h26l-116 -132h-28l-116 132h26zM193 -5q-99 0 -166 48v28l2 1q68 -54 164 -54q66 0 107 31t41 87q0 49 -29 72.5t-95 44.5l-43 14q-68 22 -100.5 51.5t-32.5 84.5q0 57 45 91t118 34q87 0 143 -35v-24l-1 -2q-58 37 -142 37q-62 0 -98.5 -26.5
t-36.5 -72.5q0 -47 27 -71.5t85 -41.5l43 -14q78 -25 111.5 -52.5t33.5 -88.5q0 -67 -50 -104.5t-126 -37.5z" />
    <glyph glyph-name="Tcommaaccent" unicode="&#x162;" horiz-adv-x="537" 
d="M237 -174l17 124h30v-2l-24 -122h-23zM514 680h-231v-680h-28v680h-232v25h491v-25z" />
    <glyph glyph-name="tcommaaccent" unicode="&#x163;" horiz-adv-x="334" 
d="M305 28v-22q-39 -12 -72 -12q-127 0 -127 122v381h-79v23h79v88l27 5v-93h155v-23h-155v-379q0 -100 104 -100q30 0 66 11zM162 -174l17 124h30v-2l-24 -122h-23z" />
    <glyph glyph-name="Tcaron" unicode="&#x164;" horiz-adv-x="537" 
d="M269 786l105 103h27l-118 -124h-28l-118 124h27zM514 680h-231v-680h-28v680h-232v25h491v-25z" />
    <glyph glyph-name="tcaron" unicode="&#x165;" horiz-adv-x="334" 
d="M220 581l10 152h28v-3l-17 -149h-21zM305 28v-22q-39 -12 -72 -12q-127 0 -127 122v381h-79v23h79v88l27 5v-93h155v-23h-155v-379q0 -100 104 -100q30 0 66 11z" />
    <glyph glyph-name="Tbar" unicode="&#x166;" horiz-adv-x="537" 
d="M456 401h-173v-401h-28v401h-169v23h169v256h-232v25h491v-25h-231v-256h173v-23z" />
    <glyph glyph-name="tbar" unicode="&#x167;" horiz-adv-x="334" 
d="M305 28v-22q-39 -12 -72 -12q-127 0 -127 122v223h-79v21h79v137h-79v23h79v88l27 5v-93h155v-23h-155v-137h155v-21h-155v-221q0 -100 104 -100q30 0 66 11z" />
    <glyph glyph-name="Utilde" unicode="&#x168;" horiz-adv-x="656" 
d="M375 782q30 -1 53 37q1 -3 4.5 -10t5.5 -12q-24 -40 -64 -39q-18 2 -52 23q-3 2 -9.5 6.5t-10.5 7t-10 5t-11 2.5q-29 0 -54 -44q-1 3 -4.5 11.5t-4.5 13.5q30 43 64 42q16 -2 49 -22q31 -21 44 -21zM325 -7q-117 0 -185.5 68t-68.5 193v451h28v-450q0 -113 61 -175
t165 -62q106 0 168.5 62t62.5 175v450h29v-451q0 -124 -71 -192.5t-189 -68.5z" />
    <glyph glyph-name="utilde" unicode="&#x169;" horiz-adv-x="510" 
d="M301 633q30 -1 53 37q1 -3 4.5 -10t5.5 -12q-24 -40 -64 -39q-18 2 -52 23q-3 2 -9.5 6.5t-10.5 7t-10 5t-11 2.5q-29 0 -54 -44q-1 3 -4.5 11.5t-4.5 13.5q30 43 64 42q16 -2 49 -22q31 -21 44 -21zM421 0l-3 74q-90 -81 -190 -81q-80 0 -124.5 40t-44.5 120v367h28
v-362q0 -141 146 -141q99 0 184 78v425h28v-520h-24z" />
    <glyph glyph-name="Umacron" unicode="&#x16a;" horiz-adv-x="656" 
d="M325 -7q-117 0 -185.5 68t-68.5 193v451h28v-450q0 -113 61 -175t165 -62q106 0 168.5 62t62.5 175v450h29v-451q0 -124 -71 -192.5t-189 -68.5zM206 786v24h244v-24h-244z" />
    <glyph glyph-name="umacron" unicode="&#x16b;" horiz-adv-x="510" 
d="M421 0l-3 74q-90 -81 -190 -81q-80 0 -124.5 40t-44.5 120v367h28v-362q0 -141 146 -141q99 0 184 78v425h28v-520h-24zM136 645v24h236v-24h-236z" />
    <glyph glyph-name="Ubreve" unicode="&#x16c;" horiz-adv-x="656" 
d="M325 -7q-117 0 -185.5 68t-68.5 193v451h28v-450q0 -113 61 -175t165 -62q106 0 168.5 62t62.5 175v450h29v-451q0 -124 -71 -192.5t-189 -68.5zM328 766q-57 0 -91.5 33t-38.5 84h24q6 -41 33 -67.5t73 -26.5t73 26.5t33 67.5h24q-4 -51 -38.5 -84t-91.5 -33z" />
    <glyph glyph-name="ubreve" unicode="&#x16d;" horiz-adv-x="510" 
d="M421 0l-3 74q-90 -81 -190 -81q-80 0 -124.5 40t-44.5 120v367h28v-362q0 -141 146 -141q99 0 184 78v425h28v-520h-24zM254 604q-55 0 -89 33.5t-38 84.5h24q6 -42 32 -68t71 -26t71 26t32 68h24q-4 -51 -38 -84.5t-89 -33.5z" />
    <glyph glyph-name="Uring" unicode="&#x16e;" horiz-adv-x="656" 
d="M325 -7q-117 0 -185.5 68t-68.5 193v451h28v-450q0 -113 61 -175t165 -62q106 0 168.5 62t62.5 175v450h29v-451q0 -124 -71 -192.5t-189 -68.5zM327 714q-39 0 -64.5 25.5t-25.5 64.5t25.5 65t64.5 26t64.5 -26t25.5 -65t-25.5 -64.5t-64.5 -25.5zM327 876
q-30 0 -49.5 -20t-19.5 -52q0 -31 19.5 -51t49.5 -20q31 0 50 20t19 51q0 32 -19 52t-50 20z" />
    <glyph glyph-name="uring" unicode="&#x16f;" horiz-adv-x="510" 
d="M254 586q-39 0 -64.5 26t-25.5 65t25 64.5t65 25.5t65 -25.5t25 -64.5t-25.5 -65t-64.5 -26zM254 748q-30 0 -49.5 -19.5t-19.5 -51.5t19.5 -51.5t49.5 -19.5q31 0 50 19.5t19 51.5t-19 51.5t-50 19.5zM421 0l-3 74q-90 -81 -190 -81q-80 0 -124.5 40t-44.5 120v367h28
v-362q0 -141 146 -141q99 0 184 78v425h28v-520h-24z" />
    <glyph glyph-name="Uhungarumlaut" unicode="&#x170;" horiz-adv-x="656" 
d="M279 765h-23l74 135h31zM400 765h-24l74 135h32q-2 0 -41 -68q-6 -9 -19.5 -31.5t-21.5 -35.5zM325 -7q-117 0 -185.5 68t-68.5 193v451h28v-450q0 -113 61 -175t165 -62q106 0 168.5 62t62.5 175v450h29v-451q0 -124 -71 -192.5t-189 -68.5z" />
    <glyph glyph-name="uhungarumlaut" unicode="&#x171;" horiz-adv-x="510" 
d="M421 0l-3 74q-90 -81 -190 -81q-80 0 -124.5 40t-44.5 120v367h28v-362q0 -141 146 -141q99 0 184 78v425h28v-520h-24zM209 598h-24l76 164h31zM326 598h-24l76 164h31z" />
    <glyph glyph-name="Uogonek" unicode="&#x172;" horiz-adv-x="656" 
d="M371 -218q-47 0 -73.5 24t-26.5 63q0 81 88 126q-13 -2 -34 -2q-117 0 -185.5 68t-68.5 193v451h28v-450q0 -113 61 -175t165 -62q106 0 168.5 62t62.5 175v450h29v-451q0 -89 -37.5 -149t-105.5 -88q-144 -61 -144 -144q0 -32 19.5 -50t56.5 -18q32 0 57 15l2 -1v-22
q-23 -15 -62 -15z" />
    <glyph glyph-name="uogonek" unicode="&#x173;" horiz-adv-x="510" 
d="M485 -181v-22q-23 -15 -61 -15q-48 0 -74.5 24t-26.5 63q0 76 98 138l-3 67q-90 -81 -190 -81q-80 0 -124.5 40t-44.5 120v367h28v-362q0 -141 146 -141q99 0 184 78v425h28v-520q-94 -67 -94 -127q0 -32 19 -50t56 -18q31 0 58 15z" />
    <glyph glyph-name="Wcircumflex" unicode="&#x174;" horiz-adv-x="897" 
d="M626 -5l-172 495l-185 -495h-5l-247 708v2h29l222 -642l173 464l-61 176v2h29l219 -639l223 639h28v-2l-248 -708h-5zM402 867l-104 -102h-28l118 124h28l118 -124h-28z" />
    <glyph glyph-name="wcircumflex" unicode="&#x175;" horiz-adv-x="700" 
d="M512 -6l-162 469l-163 -469h-6l-166 524v2h28l143 -460l161 464h7l160 -466l144 462h27v-2l-166 -524h-7zM350 709l-103 -111h-27l116 133h28l116 -133h-27z" />
    <glyph glyph-name="Ycircumflex" unicode="&#x176;" horiz-adv-x="533" 
d="M281 0h-28v305l-245 398v2h30l229 -375l229 375h29v-2l-244 -398v-305zM267 867l-104 -102h-28l118 124h28l118 -124h-28z" />
    <glyph glyph-name="ycircumflex" unicode="&#x177;" horiz-adv-x="469" 
d="M37 -214v25q58 6 95 38t62 94l32 77l-216 498v2h29l201 -470l191 470h28v-2l-239 -580q-30 -76 -72.5 -111.5t-110.5 -40.5zM241 709l-103 -111h-27l116 133h28l116 -133h-27z" />
    <glyph glyph-name="Ydieresis" unicode="&#x178;" horiz-adv-x="533" 
d="M281 0h-28v305l-245 398v2h30l229 -375l229 375h29v-2l-244 -398v-305zM337 779v45h31v-45h-31zM166 779v45h31v-45h-31z" />
    <glyph glyph-name="Zacute" unicode="&#x179;" horiz-adv-x="551" 
d="M291 765h-27l106 135h33zM520 0h-502v8l454 671h-416v26h462v-8l-454 -672h456v-25z" />
    <glyph glyph-name="zacute" unicode="&#x17a;" horiz-adv-x="441" 
d="M245 598h-27l108 164h33zM410 0h-390v7l354 490h-321v23h364v-7l-354 -490h347v-23z" />
    <glyph glyph-name="Zdotaccent" unicode="&#x17b;" horiz-adv-x="551" 
d="M266 778v49h32v-49h-32zM520 0h-502v8l454 671h-416v26h462v-8l-454 -672h456v-25z" />
    <glyph glyph-name="zdotaccent" unicode="&#x17c;" horiz-adv-x="441" 
d="M410 0h-390v7l354 490h-321v23h364v-7l-354 -490h347v-23zM221 632v48h32v-48h-32z" />
    <glyph glyph-name="Zcaron" unicode="&#x17d;" horiz-adv-x="551" 
d="M281 786l105 103h27l-118 -124h-28l-118 124h27zM520 0h-502v8l454 671h-416v26h462v-8l-454 -672h456v-25z" />
    <glyph glyph-name="zcaron" unicode="&#x17e;" horiz-adv-x="441" 
d="M237 613l104 111h26l-116 -132h-28l-116 132h26zM410 0h-390v7l354 490h-321v23h364v-7l-354 -490h347v-23z" />
    <glyph glyph-name="uni0192" unicode="&#x192;" horiz-adv-x="346" 
d="M298 352h-155l-71 -562h-27l71 562h-79v24h82l15 123q20 169 161 169q29 0 47 -8v-22l-1 -1q-19 7 -46 7q-55 0 -90 -32.5t-44 -112.5l-15 -123h152v-24z" />
    <glyph glyph-name="Ohorn" unicode="&#x1a0;" horiz-adv-x="766" 
d="M383 -7q-145 0 -244.5 103.5t-99.5 258.5t99 256t245 101q43 0 89 -11q44 0 63 3q32 4 44.5 20.5t12.5 50.5h24q0 -51 -21.5 -70t-59.5 -24h-7q55 -25 99 -70q100 -100 100 -256q0 -155 -99.5 -258.5t-244.5 -103.5zM383 18q135 0 224.5 95.5t89.5 241.5q0 145 -90 238.5
t-224 93.5t-224.5 -93.5t-90.5 -238.5q0 -146 91 -241.5t224 -95.5z" />
    <glyph glyph-name="ohorn" unicode="&#x1a1;" horiz-adv-x="578" 
d="M289 -7q-110 0 -182.5 73.5t-72.5 194.5t72.5 193.5t182.5 72.5q37 0 72 -9h27l18 1q31 3 44 20t13 51h24q0 -48 -19.5 -68t-53.5 -25q29 -15 56 -42q74 -71 74 -194q0 -121 -72.5 -194.5t-182.5 -73.5zM289 18q99 0 163.5 66.5t64.5 176.5t-64.5 175.5t-163.5 65.5
t-163.5 -65.5t-64.5 -175.5t64.5 -176.5t163.5 -66.5z" />
    <glyph glyph-name="Uhorn" unicode="&#x1af;" horiz-adv-x="656" 
d="M325 -7q-117 0 -185.5 68t-68.5 193v451h28v-450q0 -113 61 -175t165 -62q106 0 168.5 62t62.5 175v450h29v-1q50 8 50 71h24q0 -48 -20 -68t-54 -25v-428q0 -124 -71 -192.5t-189 -68.5z" />
    <glyph glyph-name="uhorn" unicode="&#x1b0;" horiz-adv-x="510" 
d="M421 0l-3 74q-90 -81 -190 -81q-80 0 -124.5 40t-44.5 120v367h28v-362q0 -141 146 -141q99 0 184 78v425h28v-1q48 9 48 71h24q0 -48 -19 -67.5t-53 -25.5v-497h-24z" />
    <glyph glyph-name="Aringacute" unicode="&#x1fa;" 
d="M466 237l-165 412l-166 -412h331zM561 0l-85 212h-351l-85 -212h-28v2l287 709h4l287 -709v-2h-29zM312 927h-27l106 135h33zM301 725q-39 0 -64.5 25.5t-25.5 64.5t25.5 65t64.5 26t64.5 -26t25.5 -65t-25.5 -64.5t-64.5 -25.5zM301 887q-30 0 -49.5 -20t-19.5 -52
q0 -31 19.5 -51t49.5 -20q31 0 50 20t19 51q0 32 -19 52t-50 20z" />
    <glyph glyph-name="aringacute" unicode="&#x1fb;" horiz-adv-x="462" 
d="M198 17q66 0 110 27.5t66 66.5v174l-158 -30q-75 -14 -115 -40t-40 -82q0 -58 36 -87t101 -29zM378 0l-3 81q-61 -88 -178 -88q-75 0 -119.5 35.5t-44.5 104.5q0 35 13.5 60.5t41 41.5t55 25t67.5 17l164 31v29q0 90 -39 127t-120 37q-87 0 -148 -42l-2 1v24
q61 42 152 42q92 0 138.5 -43.5t46.5 -144.5v-338h-24zM234 586q-39 0 -64.5 26t-25.5 65t25 64.5t65 25.5t65 -25.5t25 -64.5t-25.5 -65t-64.5 -26zM234 748q-30 0 -49.5 -19.5t-19.5 -51.5t19.5 -51.5t49.5 -19.5q31 0 50 19.5t19 51.5t-19 51.5t-50 19.5zM245 800h-27
l106 135h33z" />
    <glyph glyph-name="AEacute" unicode="&#x1fc;" horiz-adv-x="866" 
d="M547 765h-27l106 135h33zM449 680v2l-269 -445h270v443h-1zM450 0v212h-286l-128 -212h-28v2l426 703h377v-25h-333v-303h293v-25h-293v-327h335v-25h-363z" />
    <glyph glyph-name="aeacute" unicode="&#x1fd;" horiz-adv-x="854" 
d="M430 598h-27l108 164h33zM633 -6q-81 0 -141 35.5t-91 101.5q-22 -62 -73.5 -100t-130.5 -38q-75 0 -119.5 36t-44.5 104q0 35 13.5 60.5t41 41.5t55 25t68.5 17l164 31v29q0 90 -39 127t-120 37q-87 0 -149 -42l-2 1v24q62 42 152 42q84 0 128.5 -35t52.5 -119
q25 72 82.5 113t135.5 41q98 0 155.5 -61.5t49.5 -183.5h-418q-1 -7 -1 -20q0 -114 63 -178.5t169 -64.5q92 0 179 50l2 -1v-26q-85 -47 -182 -47zM199 17q77 0 126.5 41.5t62.5 106.5q-13 47 -13 96v24l-159 -31q-75 -14 -115 -39.5t-40 -81.5q0 -58 36.5 -87t101.5 -29z
M616 502q-86 0 -142.5 -53.5t-68.5 -144.5h388q1 97 -46.5 147.5t-130.5 50.5z" />
    <glyph glyph-name="Oslashacute" unicode="&#x1fe;" horiz-adv-x="766" 
d="M68 355q0 -149 93 -244l423 504q-84 72 -201 72q-134 0 -224.5 -93.5t-90.5 -238.5zM383 18q135 0 224.5 95.5t89.5 241.5q0 149 -95 244l-423 -505q87 -76 204 -76zM383 -7q-126 0 -221 81l-87 -104l-18 16l87 104q-105 105 -105 265q0 155 99 256t245 101
q124 0 218 -77l79 95l18 -16l-79 -94q108 -102 108 -265q0 -155 -99.5 -258.5t-244.5 -103.5zM393 765h-27l106 135h33z" />
    <glyph glyph-name="oslashacute" unicode="&#x1ff;" horiz-adv-x="578" 
d="M61 261q0 -107 62 -175l309 369q-59 47 -143 47q-99 0 -163.5 -65.5t-64.5 -175.5zM289 18q99 0 163.5 66.5t64.5 176.5q0 114 -68 179l-309 -370q59 -52 149 -52zM289 -7q-97 0 -166 58l-58 -70l-18 14l60 71q-73 73 -73 195q0 121 72.5 193.5t182.5 72.5q94 0 159 -52
l58 69l17 -15l-57 -69q78 -76 78 -199q0 -121 -72.5 -194.5t-182.5 -73.5zM297 598h-27l108 164h33z" />
    <glyph glyph-name="uni0218" unicode="&#x218;" horiz-adv-x="492" 
d="M209 -174l17 124h30v-2l-24 -122h-23zM241 -7q-124 0 -208 65v29l2 1q84 -70 206 -70q79 0 130 45t51 117q0 66 -40 103t-117 64l-65 22q-75 26 -114 66t-39 107q0 79 55.5 124.5t134.5 45.5q101 0 177 -49v-26l-1 -1q-75 51 -175 51q-69 0 -116 -38.5t-47 -105.5
q0 -56 34.5 -91.5t100.5 -57.5l65 -22q84 -31 130 -73t46 -117q0 -85 -59.5 -137t-150.5 -52z" />
    <glyph glyph-name="uni0219" unicode="&#x219;" horiz-adv-x="404" 
d="M160 -174l17 124h30v-2l-24 -122h-23zM193 -5q-99 0 -166 48v28l2 1q68 -54 164 -54q66 0 107 31t41 87q0 49 -29 72.5t-95 44.5l-43 14q-68 22 -100.5 51.5t-32.5 84.5q0 57 45 91t118 34q87 0 143 -35v-24l-1 -2q-58 37 -142 37q-62 0 -98.5 -26.5t-36.5 -72.5
q0 -47 27 -71.5t85 -41.5l43 -14q78 -25 111.5 -52.5t33.5 -88.5q0 -67 -50 -104.5t-126 -37.5z" />
    <glyph glyph-name="uni021A" unicode="&#x21a;" horiz-adv-x="537" 
d="M237 -174l17 124h30v-2l-24 -122h-23zM514 680h-231v-680h-28v680h-232v25h491v-25z" />
    <glyph glyph-name="uni021B" unicode="&#x21b;" horiz-adv-x="334" 
d="M305 28v-22q-39 -12 -72 -12q-127 0 -127 122v381h-79v23h79v88l27 5v-93h155v-23h-155v-379q0 -100 104 -100q30 0 66 11zM162 -174l17 124h30v-2l-24 -122h-23z" />
    <glyph glyph-name="uni0237" unicode="&#x237;" horiz-adv-x="161" 
d="M-46 -215v25q54 4 83.5 36.5t29.5 115.5v558h27v-559q0 -94 -37 -133t-103 -43z" />
    <glyph glyph-name="circumflex" unicode="&#x2c6;" horiz-adv-x="400" 
d="M200 709l-103 -111h-27l116 133h28l116 -133h-27z" />
    <glyph glyph-name="caron" unicode="&#x2c7;" horiz-adv-x="400" 
d="M200 613l104 111h26l-116 -132h-28l-116 132h26z" />
    <glyph glyph-name="breve" unicode="&#x2d8;" horiz-adv-x="400" 
d="M200 604q-55 0 -89 33.5t-38 84.5h24q6 -42 32 -68t71 -26t71 26t32 68h24q-4 -51 -38 -84.5t-89 -33.5z" />
    <glyph glyph-name="dotaccent" unicode="&#x2d9;" horiz-adv-x="400" 
d="M183 632v48h32v-48h-32z" />
    <glyph glyph-name="ring" unicode="&#x2da;" horiz-adv-x="400" 
d="M200 586q-39 0 -64.5 26t-25.5 65t25 64.5t65 25.5t65 -25.5t25 -64.5t-25.5 -65t-64.5 -26zM200 748q-30 0 -49.5 -19.5t-19.5 -51.5t19.5 -51.5t49.5 -19.5q31 0 50 19.5t19 51.5t-19 51.5t-50 19.5z" />
    <glyph glyph-name="ogonek" unicode="&#x2db;" horiz-adv-x="400" 
d="M283 -181v-22q-23 -15 -61 -15q-48 0 -74.5 24t-26.5 63q0 72 91 131h35q-98 -62 -98 -127q0 -32 19 -50t56 -18q31 0 58 15z" />
    <glyph glyph-name="tilde" unicode="&#x2dc;" horiz-adv-x="400" 
d="M258 653q39 0 70 39h2l10 -18q-37 -45 -82 -45q-28 0 -64 16.5t-57 16.5q-40 0 -71 -39h-2l-10 19q36 44 82 44q28 0 63.5 -16.5t58.5 -16.5z" />
    <glyph glyph-name="hungarumlaut" unicode="&#x2dd;" horiz-adv-x="400" 
d="M133 598h-24l76 164h31zM250 598h-24l76 164h31z" />
    <glyph glyph-name="Wgrave" unicode="&#x1e80;" horiz-adv-x="897" 
d="M626 -5l-172 495l-185 -495h-5l-247 708v2h29l222 -642l173 464l-61 176v2h29l219 -639l223 639h28v-2l-248 -708h-5zM393 765l-112 135h33l106 -135h-27z" />
    <glyph glyph-name="wgrave" unicode="&#x1e81;" horiz-adv-x="700" 
d="M512 -6l-162 469l-163 -469h-6l-166 524v2h28l143 -460l161 464h7l160 -466l144 462h27v-2l-166 -524h-7zM340 598l-114 164h33l108 -164h-27z" />
    <glyph glyph-name="Wacute" unicode="&#x1e82;" horiz-adv-x="897" 
d="M626 -5l-172 495l-185 -495h-5l-247 708v2h29l222 -642l173 464l-61 176v2h29l219 -639l223 639h28v-2l-248 -708h-5zM412 765h-27l106 135h33z" />
    <glyph glyph-name="wacute" unicode="&#x1e83;" horiz-adv-x="700" 
d="M512 -6l-162 469l-163 -469h-6l-166 524v2h28l143 -460l161 464h7l160 -466l144 462h27v-2l-166 -524h-7zM358 598h-27l108 164h33z" />
    <glyph glyph-name="Wdieresis" unicode="&#x1e84;" horiz-adv-x="897" 
d="M626 -5l-172 495l-185 -495h-5l-247 708v2h29l222 -642l173 464l-61 176v2h29l219 -639l223 639h28v-2l-248 -708h-5zM472 779v45h31v-45h-31zM301 779v45h31v-45h-31z" />
    <glyph glyph-name="wdieresis" unicode="&#x1e85;" horiz-adv-x="700" 
d="M512 -6l-162 469l-163 -469h-6l-166 524v2h28l143 -460l161 464h7l160 -466l144 462h27v-2l-166 -524h-7zM262 634v44h30v-44h-30zM408 634v44h30v-44h-30z" />
    <glyph glyph-name="uni1EA0" unicode="&#x1ea0;" 
d="M285 -181v73h31v-73h-31zM466 237l-165 412l-166 -412h331zM561 0l-85 212h-351l-85 -212h-28v2l287 709h4l287 -709v-2h-29z" />
    <glyph glyph-name="uni1EA1" unicode="&#x1ea1;" horiz-adv-x="462" 
d="M196 -181v73h31v-73h-31zM198 17q66 0 110 27.5t66 66.5v174l-158 -30q-75 -14 -115 -40t-40 -82q0 -58 36 -87t101 -29zM378 0l-3 81q-61 -88 -178 -88q-75 0 -119.5 35.5t-44.5 104.5q0 35 13.5 60.5t41 41.5t55 25t67.5 17l164 31v29q0 90 -39 127t-120 37
q-87 0 -148 -42l-2 1v24q61 42 152 42q92 0 138.5 -43.5t46.5 -144.5v-338h-24z" />
    <glyph glyph-name="uni1EA2" unicode="&#x1ea2;" 
d="M240 873v24q25 15 72 16q72 -1 76 -62q-1 -37 -37 -55q-35 -18 -38 -40h-22q3 31 38 49q36 20 37 44q2 42 -64 42q-33 -3 -62 -18zM466 237l-165 412l-166 -412h331zM561 0l-85 212h-351l-85 -212h-28v2l287 709h4l287 -709v-2h-29z" />
    <glyph glyph-name="uni1EA3" unicode="&#x1ea3;" horiz-adv-x="462" 
d="M182 719v24q25 15 72 16q72 -1 76 -62q-1 -37 -37 -55q-35 -18 -38 -40h-22q3 31 38 49q36 20 37 44q2 42 -64 42q-33 -3 -62 -18zM198 17q66 0 110 27.5t66 66.5v174l-158 -30q-75 -14 -115 -40t-40 -82q0 -58 36 -87t101 -29zM378 0l-3 81q-61 -88 -178 -88
q-75 0 -119.5 35.5t-44.5 104.5q0 35 13.5 60.5t41 41.5t55 25t67.5 17l164 31v29q0 90 -39 127t-120 37q-87 0 -148 -42l-2 1v24q61 42 152 42q92 0 138.5 -43.5t46.5 -144.5v-338h-24z" />
    <glyph glyph-name="uni1EA4" unicode="&#x1ea4;" 
d="M491 964l-72 -105h-25l67 105h30zM301 859l-86 -103h-27l101 125h26l101 -125h-27zM466 237l-165 412l-166 -412h331zM561 0l-85 212h-351l-85 -212h-28v2l287 709h4l287 -709v-2h-29z" />
    <glyph glyph-name="uni1EA5" unicode="&#x1ea5;" horiz-adv-x="462" 
d="M424 800l-72 -105h-25l67 105h30zM234 695l-86 -103h-27l101 125h26l101 -125h-27zM198 17q66 0 110 27.5t66 66.5v174l-158 -30q-75 -14 -115 -40t-40 -82q0 -58 36 -87t101 -29zM378 0l-3 81q-61 -88 -178 -88q-75 0 -119.5 35.5t-44.5 104.5q0 35 13.5 60.5t41 41.5
t55 25t67.5 17l164 31v29q0 90 -39 127t-120 37q-87 0 -148 -42l-2 1v24q61 42 152 42q92 0 138.5 -43.5t46.5 -144.5v-338h-24z" />
    <glyph glyph-name="uni1EA6" unicode="&#x1ea6;" 
d="M423 859l-72 105h30l67 -105h-25zM301 859l-86 -103h-27l101 125h26l101 -125h-27zM466 237l-165 412l-166 -412h331zM561 0l-85 212h-351l-85 -212h-28v2l287 709h4l287 -709v-2h-29z" />
    <glyph glyph-name="uni1EA7" unicode="&#x1ea7;" horiz-adv-x="462" 
d="M356 695l-72 105h30l67 -105h-25zM234 695l-86 -103h-27l101 125h26l101 -125h-27zM198 17q66 0 110 27.5t66 66.5v174l-158 -30q-75 -14 -115 -40t-40 -82q0 -58 36 -87t101 -29zM378 0l-3 81q-61 -88 -178 -88q-75 0 -119.5 35.5t-44.5 104.5q0 35 13.5 60.5t41 41.5
t55 25t67.5 17l164 31v29q0 90 -39 127t-120 37q-87 0 -148 -42l-2 1v24q61 42 152 42q92 0 138.5 -43.5t46.5 -144.5v-338h-24z" />
    <glyph glyph-name="uni1EA8" unicode="&#x1ea8;" 
d="M345 965v22q23 14 72 15q72 -1 76 -56q-1 -34 -37 -52q-36 -16 -39 -35h-21q3 31 37 46q35 17 36 39q2 37 -62 37q-35 -3 -62 -16zM301 859l-86 -103h-27l101 125h26l101 -125h-27zM466 237l-165 412l-166 -412h331zM561 0l-85 212h-351l-85 -212h-28v2l287 709h4
l287 -709v-2h-29z" />
    <glyph glyph-name="uni1EA9" unicode="&#x1ea9;" horiz-adv-x="462" 
d="M278 801v22q23 14 72 15q72 -1 76 -56q-1 -34 -37 -52q-36 -16 -39 -35h-21q3 31 37 46q34 17 36 39q2 37 -62 37q-35 -3 -62 -16zM234 695l-86 -103h-27l101 125h26l101 -125h-27zM198 17q66 0 110 27.5t66 66.5v174l-158 -30q-75 -14 -115 -40t-40 -82q0 -58 36 -87
t101 -29zM378 0l-3 81q-61 -88 -178 -88q-75 0 -119.5 35.5t-44.5 104.5q0 35 13.5 60.5t41 41.5t55 25t67.5 17l164 31v29q0 90 -39 127t-120 37q-87 0 -148 -42l-2 1v24q61 42 152 42q92 0 138.5 -43.5t46.5 -144.5v-338h-24z" />
    <glyph glyph-name="uni1EAA" unicode="&#x1eaa;" 
d="M350 939q30 -1 53 37q1 -3 4.5 -10t5.5 -12q-24 -40 -64 -39q-18 2 -52 23q-3 2 -9.5 6.5t-10.5 7t-10 5t-11 2.5q-29 0 -54 -44q-1 3 -4.5 11.5t-4.5 13.5q30 43 64 42q16 -2 49 -22q32 -21 44 -21zM301 859l-86 -103h-27l101 125h26l101 -125h-27zM466 237l-165 412
l-166 -412h331zM561 0l-85 212h-351l-85 -212h-28v2l287 709h4l287 -709v-2h-29z" />
    <glyph glyph-name="uni1EAB" unicode="&#x1eab;" horiz-adv-x="462" 
d="M283 775q30 -1 53 37q1 -3 4.5 -10t5.5 -12q-24 -40 -64 -39q-18 2 -52 23q-3 2 -9.5 6.5t-10.5 7t-10 5t-11 2.5q-29 0 -54 -44q-1 3 -4.5 11.5t-4.5 13.5q30 43 64 42q16 -2 49 -22q31 -21 44 -21zM234 695l-86 -103h-27l101 125h26l101 -125h-27zM198 17
q66 0 110 27.5t66 66.5v174l-158 -30q-75 -14 -115 -40t-40 -82q0 -58 36 -87t101 -29zM378 0l-3 81q-61 -88 -178 -88q-75 0 -119.5 35.5t-44.5 104.5q0 35 13.5 60.5t41 41.5t55 25t67.5 17l164 31v29q0 90 -39 127t-120 37q-87 0 -148 -42l-2 1v24q61 42 152 42
q92 0 138.5 -43.5t46.5 -144.5v-338h-24z" />
    <glyph glyph-name="uni1EAC" unicode="&#x1eac;" 
d="M285 -181v73h31v-73h-31zM301 859l-86 -103h-27l101 125h26l101 -125h-27zM466 237l-165 412l-166 -412h331zM561 0l-85 212h-351l-85 -212h-28v2l287 709h4l287 -709v-2h-29z" />
    <glyph glyph-name="uni1EAD" unicode="&#x1ead;" horiz-adv-x="462" 
d="M196 -181v73h31v-73h-31zM234 695l-86 -103h-27l101 125h26l101 -125h-27zM198 17q66 0 110 27.5t66 66.5v174l-158 -30q-75 -14 -115 -40t-40 -82q0 -58 36 -87t101 -29zM378 0l-3 81q-61 -88 -178 -88q-75 0 -119.5 35.5t-44.5 104.5q0 35 13.5 60.5t41 41.5t55 25
t67.5 17l164 31v29q0 90 -39 127t-120 37q-87 0 -148 -42l-2 1v24q61 42 152 42q92 0 138.5 -43.5t46.5 -144.5v-338h-24z" />
    <glyph glyph-name="uni1EAE" unicode="&#x1eae;" 
d="M380 1004l-72 -105h-25l67 105h30zM301 756q-53 0 -82.5 31t-28.5 81h20q0 -41 22.5 -66.5t68.5 -25.5t69.5 25.5t23.5 66.5h20q1 -50 -29 -81t-84 -31zM466 237l-165 412l-166 -412h331zM561 0l-85 212h-351l-85 -212h-28v2l287 709h4l287 -709v-2h-29z" />
    <glyph glyph-name="uni1EAF" unicode="&#x1eaf;" horiz-adv-x="462" 
d="M323 844l-72 -105h-25l67 105h30zM244 596q-53 0 -82.5 31t-28.5 81h20q0 -41 22.5 -66.5t68.5 -25.5t69.5 25.5t23.5 66.5h20q1 -50 -29 -81t-84 -31zM198 17q66 0 110 27.5t66 66.5v174l-158 -30q-75 -14 -115 -40t-40 -82q0 -58 36 -87t101 -29zM378 0l-3 81
q-61 -88 -178 -88q-75 0 -119.5 35.5t-44.5 104.5q0 35 13.5 60.5t41 41.5t55 25t67.5 17l164 31v29q0 90 -39 127t-120 37q-87 0 -148 -42l-2 1v24q61 42 152 42q92 0 138.5 -43.5t46.5 -144.5v-338h-24z" />
    <glyph glyph-name="uni1EB0" unicode="&#x1eb0;" 
d="M302 899l-72 105h30l67 -105h-25zM301 756q-53 0 -82.5 31t-28.5 81h20q0 -41 22.5 -66.5t68.5 -25.5t69.5 25.5t23.5 66.5h20q1 -50 -29 -81t-84 -31zM466 237l-165 412l-166 -412h331zM561 0l-85 212h-351l-85 -212h-28v2l287 709h4l287 -709v-2h-29z" />
    <glyph glyph-name="uni1EB1" unicode="&#x1eb1;" horiz-adv-x="462" 
d="M245 739l-72 105h30l67 -105h-25zM244 596q-53 0 -82.5 31t-28.5 81h20q0 -41 22.5 -66.5t68.5 -25.5t69.5 25.5t23.5 66.5h20q1 -50 -29 -81t-84 -31zM198 17q66 0 110 27.5t66 66.5v174l-158 -30q-75 -14 -115 -40t-40 -82q0 -58 36 -87t101 -29zM378 0l-3 81
q-61 -88 -178 -88q-75 0 -119.5 35.5t-44.5 104.5q0 35 13.5 60.5t41 41.5t55 25t67.5 17l164 31v29q0 90 -39 127t-120 37q-87 0 -148 -42l-2 1v24q61 42 152 42q92 0 138.5 -43.5t46.5 -144.5v-338h-24z" />
    <glyph glyph-name="uni1EB2" unicode="&#x1eb2;" 
d="M246 1005v22q23 14 72 15q72 -1 76 -56q-1 -34 -37 -52q-36 -16 -39 -35h-21q3 31 37 46q34 17 36 39q2 37 -62 37q-35 -3 -62 -16zM301 756q-53 0 -82.5 31t-28.5 81h20q0 -41 22.5 -66.5t68.5 -25.5t69.5 25.5t23.5 66.5h20q1 -50 -29 -81t-84 -31zM466 237l-165 412
l-166 -412h331zM561 0l-85 212h-351l-85 -212h-28v2l287 709h4l287 -709v-2h-29z" />
    <glyph glyph-name="uni1EB3" unicode="&#x1eb3;" horiz-adv-x="462" 
d="M189 845v22q23 14 72 15q72 -1 76 -56q-1 -34 -37 -52q-36 -16 -39 -35h-21q3 31 37 46q35 17 36 39q2 37 -62 37q-35 -3 -62 -16zM244 596q-53 0 -82.5 31t-28.5 81h20q0 -41 22.5 -66.5t68.5 -25.5t69.5 25.5t23.5 66.5h20q1 -50 -29 -81t-84 -31zM198 17
q66 0 110 27.5t66 66.5v174l-158 -30q-75 -14 -115 -40t-40 -82q0 -58 36 -87t101 -29zM378 0l-3 81q-61 -88 -178 -88q-75 0 -119.5 35.5t-44.5 104.5q0 35 13.5 60.5t41 41.5t55 25t67.5 17l164 31v29q0 90 -39 127t-120 37q-87 0 -148 -42l-2 1v24q61 42 152 42
q92 0 138.5 -43.5t46.5 -144.5v-338h-24z" />
    <glyph glyph-name="uni1EB4" unicode="&#x1eb4;" 
d="M301 756q-53 0 -82.5 31t-28.5 81h20q0 -41 22.5 -66.5t68.5 -25.5t69.5 25.5t23.5 66.5h20q1 -50 -29 -81t-84 -31zM466 237l-165 412l-166 -412h331zM561 0l-85 212h-351l-85 -212h-28v2l287 709h4l287 -709v-2h-29zM351 928q30 -1 53 37q1 -3 4.5 -10t5.5 -12
q-24 -40 -64 -39q-18 2 -52 23q-3 2 -9.5 6.5t-10.5 7t-10 5t-11 2.5q-29 0 -54 -44q-1 3 -4.5 11.5t-4.5 13.5q30 43 64 42q16 -2 49 -22q32 -21 44 -21z" />
    <glyph glyph-name="uni1EB5" unicode="&#x1eb5;" horiz-adv-x="462" 
d="M294 768q30 -1 53 37q1 -3 4.5 -10t5.5 -12q-24 -40 -64 -39q-18 2 -52 23q-3 2 -9.5 6.5t-10.5 7t-10 5t-11 2.5q-29 0 -54 -44q-1 3 -4.5 11.5t-4.5 13.5q30 43 64 42q16 -2 49 -22q31 -21 44 -21zM244 596q-53 0 -82.5 31t-28.5 81h20q0 -41 22.5 -66.5t68.5 -25.5
t69.5 25.5t23.5 66.5h20q1 -50 -29 -81t-84 -31zM198 17q66 0 110 27.5t66 66.5v174l-158 -30q-75 -14 -115 -40t-40 -82q0 -58 36 -87t101 -29zM378 0l-3 81q-61 -88 -178 -88q-75 0 -119.5 35.5t-44.5 104.5q0 35 13.5 60.5t41 41.5t55 25t67.5 17l164 31v29q0 90 -39 127
t-120 37q-87 0 -148 -42l-2 1v24q61 42 152 42q92 0 138.5 -43.5t46.5 -144.5v-338h-24z" />
    <glyph glyph-name="uni1EB6" unicode="&#x1eb6;" 
d="M285 -181v73h31v-73h-31zM301 756q-53 0 -82.5 31t-28.5 81h20q0 -41 22.5 -66.5t68.5 -25.5t69.5 25.5t23.5 66.5h20q1 -50 -29 -81t-84 -31zM466 237l-165 412l-166 -412h331zM561 0l-85 212h-351l-85 -212h-28v2l287 709h4l287 -709v-2h-29z" />
    <glyph glyph-name="uni1EB7" unicode="&#x1eb7;" horiz-adv-x="462" 
d="M196 -181v73h31v-73h-31zM244 596q-53 0 -82.5 31t-28.5 81h20q0 -41 22.5 -66.5t68.5 -25.5t69.5 25.5t23.5 66.5h20q1 -50 -29 -81t-84 -31zM198 17q66 0 110 27.5t66 66.5v174l-158 -30q-75 -14 -115 -40t-40 -82q0 -58 36 -87t101 -29zM378 0l-3 81q-61 -88 -178 -88
q-75 0 -119.5 35.5t-44.5 104.5q0 35 13.5 60.5t41 41.5t55 25t67.5 17l164 31v29q0 90 -39 127t-120 37q-87 0 -148 -42l-2 1v24q61 42 152 42q92 0 138.5 -43.5t46.5 -144.5v-338h-24z" />
    <glyph glyph-name="uni1EB8" unicode="&#x1eb8;" horiz-adv-x="495" 
d="M237 -181v73h31v-73h-31zM79 0v705h361v-25h-333v-303h293v-25h-293v-327h335v-25h-363z" />
    <glyph glyph-name="uni1EB9" unicode="&#x1eb9;" horiz-adv-x="515" 
d="M267 -181v73h31v-73h-31zM275 502q-86 0 -142.5 -53.5t-68.5 -144.5h389q1 97 -47 147.5t-131 50.5zM474 67v-26q-79 -47 -181 -47q-118 0 -188.5 72t-70.5 195q0 118 68 191.5t174 73.5q98 0 155 -61.5t49 -183.5h-418q-1 -7 -1 -20q0 -114 63 -178.5t169 -64.5
q92 0 179 50z" />
    <glyph glyph-name="uni1EBA" unicode="&#x1eba;" horiz-adv-x="495" 
d="M206 873v24q25 15 72 16q72 -1 76 -62q-1 -37 -37 -55q-35 -18 -38 -40h-22q3 31 38 49q36 20 37 44q2 42 -64 42q-33 -3 -62 -18zM79 0v705h361v-25h-333v-303h293v-25h-293v-327h335v-25h-363z" />
    <glyph glyph-name="uni1EBB" unicode="&#x1ebb;" horiz-adv-x="515" 
d="M231 719v24q25 15 72 16q72 -1 76 -62q-1 -37 -37 -55q-35 -18 -38 -40h-22q3 31 38 49q36 20 37 44q2 42 -64 42q-33 -3 -62 -18zM275 502q-86 0 -142.5 -53.5t-68.5 -144.5h389q1 97 -47 147.5t-131 50.5zM474 67v-26q-79 -47 -181 -47q-118 0 -188.5 72t-70.5 195
q0 118 68 191.5t174 73.5q98 0 155 -61.5t49 -183.5h-418q-1 -7 -1 -20q0 -114 63 -178.5t169 -64.5q92 0 179 50z" />
    <glyph glyph-name="uni1EBC" unicode="&#x1ebc;" horiz-adv-x="495" 
d="M310 782q30 -1 53 37q1 -3 4.5 -10t5.5 -12q-24 -40 -64 -39q-18 2 -52 23q-3 2 -9.5 6.5t-10.5 7t-10 5t-11 2.5q-29 0 -54 -44q-1 3 -4.5 11.5t-4.5 13.5q30 43 64 42q16 -2 49 -22q31 -21 44 -21zM79 0v705h361v-25h-333v-303h293v-25h-293v-327h335v-25h-363z" />
    <glyph glyph-name="uni1EBD" unicode="&#x1ebd;" horiz-adv-x="515" 
d="M334 633q30 -1 53 37q1 -3 4.5 -10t5.5 -12q-24 -40 -64 -39q-18 2 -52 23q-3 2 -9.5 6.5t-10.5 7t-10 5t-11 2.5q-29 0 -54 -44q-1 3 -4.5 11.5t-4.5 13.5q30 43 64 42q16 -2 49 -22q31 -21 44 -21zM275 502q-86 0 -142.5 -53.5t-68.5 -144.5h389q1 97 -47 147.5
t-131 50.5zM474 67v-26q-79 -47 -181 -47q-118 0 -188.5 72t-70.5 195q0 118 68 191.5t174 73.5q98 0 155 -61.5t49 -183.5h-418q-1 -7 -1 -20q0 -114 63 -178.5t169 -64.5q92 0 179 50z" />
    <glyph glyph-name="uni1EBE" unicode="&#x1ebe;" horiz-adv-x="495" 
d="M447 964l-72 -105h-25l67 105h30zM257 859l-86 -103h-27l101 125h26l101 -125h-27zM79 0v705h361v-25h-333v-303h293v-25h-293v-327h335v-25h-363z" />
    <glyph glyph-name="uni1EBF" unicode="&#x1ebf;" horiz-adv-x="515" 
d="M469 800l-72 -105h-25l67 105h30zM279 695l-86 -103h-27l101 125h26l101 -125h-27zM275 502q-86 0 -142.5 -53.5t-68.5 -144.5h389q1 97 -47 147.5t-131 50.5zM474 67v-26q-79 -47 -181 -47q-118 0 -188.5 72t-70.5 195q0 118 68 191.5t174 73.5q98 0 155 -61.5
t49 -183.5h-418q-1 -7 -1 -20q0 -114 63 -178.5t169 -64.5q92 0 179 50z" />
    <glyph glyph-name="uni1EC0" unicode="&#x1ec0;" horiz-adv-x="495" 
d="M379 859l-72 105h30l67 -105h-25zM257 859l-86 -103h-27l101 125h26l101 -125h-27zM79 0v705h361v-25h-333v-303h293v-25h-293v-327h335v-25h-363z" />
    <glyph glyph-name="uni1EC1" unicode="&#x1ec1;" horiz-adv-x="515" 
d="M401 695l-72 105h30l67 -105h-25zM279 695l-86 -103h-27l101 125h26l101 -125h-27zM275 502q-86 0 -142.5 -53.5t-68.5 -144.5h389q1 97 -47 147.5t-131 50.5zM474 67v-26q-79 -47 -181 -47q-118 0 -188.5 72t-70.5 195q0 118 68 191.5t174 73.5q98 0 155 -61.5
t49 -183.5h-418q-1 -7 -1 -20q0 -114 63 -178.5t169 -64.5q92 0 179 50z" />
    <glyph glyph-name="uni1EC2" unicode="&#x1ec2;" horiz-adv-x="495" 
d="M301 965v22q23 14 72 15q72 -1 76 -56q-1 -34 -37 -52q-36 -16 -39 -35h-21q3 31 37 46q35 17 36 39q2 37 -62 37q-35 -3 -62 -16zM257 859l-86 -103h-27l101 125h26l101 -125h-27zM79 0v705h361v-25h-333v-303h293v-25h-293v-327h335v-25h-363z" />
    <glyph glyph-name="uni1EC3" unicode="&#x1ec3;" horiz-adv-x="515" 
d="M323 801v22q23 14 72 15q72 -1 76 -56q-1 -34 -37 -52q-36 -16 -39 -35h-21q3 31 37 46q35 17 36 39q2 37 -62 37q-35 -3 -62 -16zM279 695l-86 -103h-27l101 125h26l101 -125h-27zM275 502q-86 0 -142.5 -53.5t-68.5 -144.5h389q1 97 -47 147.5t-131 50.5zM474 67v-26
q-79 -47 -181 -47q-118 0 -188.5 72t-70.5 195q0 118 68 191.5t174 73.5q98 0 155 -61.5t49 -183.5h-418q-1 -7 -1 -20q0 -114 63 -178.5t169 -64.5q92 0 179 50z" />
    <glyph glyph-name="uni1EC4" unicode="&#x1ec4;" horiz-adv-x="495" 
d="M306 939q30 -1 53 37q1 -3 4.5 -10t5.5 -12q-24 -40 -64 -39q-18 2 -52 23q-3 2 -9.5 6.5t-10.5 7t-10 5t-11 2.5q-29 0 -54 -44q-1 3 -4.5 11.5t-4.5 13.5q30 43 64 42q16 -2 49 -22q32 -21 44 -21zM257 859l-86 -103h-27l101 125h26l101 -125h-27zM79 0v705h361v-25
h-333v-303h293v-25h-293v-327h335v-25h-363z" />
    <glyph glyph-name="uni1EC5" unicode="&#x1ec5;" horiz-adv-x="515" 
d="M328 775q30 -1 53 37q1 -3 4.5 -10t5.5 -12q-24 -40 -64 -39q-18 2 -52 23q-3 2 -9.5 6.5t-10.5 7t-10 5t-11 2.5q-29 0 -54 -44q-1 3 -4.5 11.5t-4.5 13.5q30 43 64 42q16 -2 49 -22q31 -21 44 -21zM279 695l-86 -103h-27l101 125h26l101 -125h-27zM275 502
q-86 0 -142.5 -53.5t-68.5 -144.5h389q1 97 -47 147.5t-131 50.5zM474 67v-26q-79 -47 -181 -47q-118 0 -188.5 72t-70.5 195q0 118 68 191.5t174 73.5q98 0 155 -61.5t49 -183.5h-418q-1 -7 -1 -20q0 -114 63 -178.5t169 -64.5q92 0 179 50z" />
    <glyph glyph-name="uni1EC6" unicode="&#x1ec6;" horiz-adv-x="495" 
d="M237 -181v73h31v-73h-31zM257 859l-86 -103h-27l101 125h26l101 -125h-27zM79 0v705h361v-25h-333v-303h293v-25h-293v-327h335v-25h-363z" />
    <glyph glyph-name="uni1EC7" unicode="&#x1ec7;" horiz-adv-x="515" 
d="M267 -181v73h31v-73h-31zM279 695l-86 -103h-27l101 125h26l101 -125h-27zM275 502q-86 0 -142.5 -53.5t-68.5 -144.5h389q1 97 -47 147.5t-131 50.5zM474 67v-26q-79 -47 -181 -47q-118 0 -188.5 72t-70.5 195q0 118 68 191.5t174 73.5q98 0 155 -61.5t49 -183.5h-418
q-1 -7 -1 -20q0 -114 63 -178.5t169 -64.5q92 0 179 50z" />
    <glyph glyph-name="uni1EC8" unicode="&#x1ec8;" horiz-adv-x="191" 
d="M34 873v24q25 15 72 16q72 -1 76 -62q-1 -37 -37 -55q-35 -18 -38 -40h-22q3 31 38 49q36 20 37 44q2 42 -64 42q-33 -3 -62 -18zM81 0v705h29v-705h-29z" />
    <glyph glyph-name="uni1EC9" unicode="&#x1ec9;" horiz-adv-x="163" 
d="M21 719v24q25 15 72 16q72 -1 76 -62q-1 -37 -37 -55q-35 -18 -38 -40h-22q3 31 38 49q36 20 37 44q2 42 -64 42q-33 -3 -62 -18zM68 0v520h27v-520h-27z" />
    <glyph glyph-name="uni1ECA" unicode="&#x1eca;" horiz-adv-x="191" 
d="M80 -181v73h31v-73h-31zM81 0v705h29v-705h-29z" />
    <glyph glyph-name="uni1ECB" unicode="&#x1ecb;" horiz-adv-x="163" 
d="M66 -181v73h31v-73h-31zM68 0v520h27v-520h-27zM66 624v73h31v-73h-31z" />
    <glyph glyph-name="uni1ECC" unicode="&#x1ecc;" horiz-adv-x="766" 
d="M366 -181v73h31v-73h-31zM383 -7q-145 0 -244.5 103.5t-99.5 258.5t99 256t245 101t245 -101t99 -256t-99.5 -258.5t-244.5 -103.5zM383 18q135 0 224.5 95.5t89.5 241.5q0 145 -90 238.5t-224 93.5t-224.5 -93.5t-90.5 -238.5q0 -146 91 -241.5t224 -95.5z" />
    <glyph glyph-name="uni1ECD" unicode="&#x1ecd;" horiz-adv-x="578" 
d="M274 -181v73h31v-73h-31zM289 -7q-110 0 -182.5 73.5t-72.5 194.5t72.5 193.5t182.5 72.5t182.5 -72.5t72.5 -193.5t-72.5 -194.5t-182.5 -73.5zM289 18q99 0 163.5 66.5t64.5 176.5t-64.5 175.5t-163.5 65.5t-163.5 -65.5t-64.5 -175.5t64.5 -176.5t163.5 -66.5z" />
    <glyph glyph-name="uni1ECE" unicode="&#x1ece;" horiz-adv-x="766" 
d="M339 873v24q25 15 72 16q72 -1 76 -62q-1 -37 -37 -55q-35 -18 -38 -40h-22q3 31 38 49q36 20 37 44q2 42 -64 42q-33 -3 -62 -18zM383 -7q-145 0 -244.5 103.5t-99.5 258.5t99 256t245 101t245 -101t99 -256t-99.5 -258.5t-244.5 -103.5zM383 18q135 0 224.5 95.5
t89.5 241.5q0 145 -90 238.5t-224 93.5t-224.5 -93.5t-90.5 -238.5q0 -146 91 -241.5t224 -95.5z" />
    <glyph glyph-name="uni1ECF" unicode="&#x1ecf;" horiz-adv-x="578" 
d="M248 719v24q25 15 72 16q72 -1 76 -62q-1 -37 -37 -55q-35 -18 -38 -40h-22q3 31 38 49q36 20 37 44q2 42 -64 42q-33 -3 -62 -18zM289 -7q-110 0 -182.5 73.5t-72.5 194.5t72.5 193.5t182.5 72.5t182.5 -72.5t72.5 -193.5t-72.5 -194.5t-182.5 -73.5zM289 18
q99 0 163.5 66.5t64.5 176.5t-64.5 175.5t-163.5 65.5t-163.5 -65.5t-64.5 -175.5t64.5 -176.5t163.5 -66.5z" />
    <glyph glyph-name="uni1ED0" unicode="&#x1ed0;" horiz-adv-x="766" 
d="M573 964l-72 -105h-25l67 105h30zM383 859l-86 -103h-27l101 125h26l101 -125h-27zM383 -7q-145 0 -244.5 103.5t-99.5 258.5t99 256t245 101t245 -101t99 -256t-99.5 -258.5t-244.5 -103.5zM383 18q135 0 224.5 95.5t89.5 241.5q0 145 -90 238.5t-224 93.5t-224.5 -93.5
t-90.5 -238.5q0 -146 91 -241.5t224 -95.5z" />
    <glyph glyph-name="uni1ED1" unicode="&#x1ed1;" horiz-adv-x="578" 
d="M479 800l-72 -105h-25l67 105h30zM289 695l-86 -103h-27l101 125h26l101 -125h-27zM289 -7q-110 0 -182.5 73.5t-72.5 194.5t72.5 193.5t182.5 72.5t182.5 -72.5t72.5 -193.5t-72.5 -194.5t-182.5 -73.5zM289 18q99 0 163.5 66.5t64.5 176.5t-64.5 175.5t-163.5 65.5
t-163.5 -65.5t-64.5 -175.5t64.5 -176.5t163.5 -66.5z" />
    <glyph glyph-name="uni1ED2" unicode="&#x1ed2;" horiz-adv-x="766" 
d="M505 859l-72 105h30l67 -105h-25zM383 859l-86 -103h-27l101 125h26l101 -125h-27zM383 -7q-145 0 -244.5 103.5t-99.5 258.5t99 256t245 101t245 -101t99 -256t-99.5 -258.5t-244.5 -103.5zM383 18q135 0 224.5 95.5t89.5 241.5q0 145 -90 238.5t-224 93.5t-224.5 -93.5
t-90.5 -238.5q0 -146 91 -241.5t224 -95.5z" />
    <glyph glyph-name="uni1ED3" unicode="&#x1ed3;" horiz-adv-x="578" 
d="M411 695l-72 105h30l67 -105h-25zM289 695l-86 -103h-27l101 125h26l101 -125h-27zM289 -7q-110 0 -182.5 73.5t-72.5 194.5t72.5 193.5t182.5 72.5t182.5 -72.5t72.5 -193.5t-72.5 -194.5t-182.5 -73.5zM289 18q99 0 163.5 66.5t64.5 176.5t-64.5 175.5t-163.5 65.5
t-163.5 -65.5t-64.5 -175.5t64.5 -176.5t163.5 -66.5z" />
    <glyph glyph-name="uni1ED4" unicode="&#x1ed4;" horiz-adv-x="766" 
d="M427 965v22q23 14 72 15q72 -1 76 -56q-1 -34 -37 -52q-36 -16 -39 -35h-21q3 31 37 46q35 17 36 39q2 37 -62 37q-35 -3 -62 -16zM383 859l-86 -103h-27l101 125h26l101 -125h-27zM383 -7q-145 0 -244.5 103.5t-99.5 258.5t99 256t245 101t245 -101t99 -256
t-99.5 -258.5t-244.5 -103.5zM383 18q135 0 224.5 95.5t89.5 241.5q0 145 -90 238.5t-224 93.5t-224.5 -93.5t-90.5 -238.5q0 -146 91 -241.5t224 -95.5z" />
    <glyph glyph-name="uni1ED5" unicode="&#x1ed5;" horiz-adv-x="578" 
d="M333 801v22q23 14 72 15q72 -1 76 -56q-1 -34 -37 -52q-36 -16 -39 -35h-21q3 31 37 46q35 17 36 39q2 37 -62 37q-35 -3 -62 -16zM289 695l-86 -103h-27l101 125h26l101 -125h-27zM289 -7q-110 0 -182.5 73.5t-72.5 194.5t72.5 193.5t182.5 72.5t182.5 -72.5
t72.5 -193.5t-72.5 -194.5t-182.5 -73.5zM289 18q99 0 163.5 66.5t64.5 176.5t-64.5 175.5t-163.5 65.5t-163.5 -65.5t-64.5 -175.5t64.5 -176.5t163.5 -66.5z" />
    <glyph glyph-name="uni1ED6" unicode="&#x1ed6;" horiz-adv-x="766" 
d="M432 939q30 -1 53 37q1 -3 4.5 -10t5.5 -12q-24 -40 -64 -39q-18 2 -52 23q-3 2 -9.5 6.5t-10.5 7t-10 5t-11 2.5q-29 0 -54 -44q-1 3 -4.5 11.5t-4.5 13.5q30 43 64 42q16 -2 49 -22q31 -21 44 -21zM383 859l-86 -103h-27l101 125h26l101 -125h-27zM383 -7
q-145 0 -244.5 103.5t-99.5 258.5t99 256t245 101t245 -101t99 -256t-99.5 -258.5t-244.5 -103.5zM383 18q135 0 224.5 95.5t89.5 241.5q0 145 -90 238.5t-224 93.5t-224.5 -93.5t-90.5 -238.5q0 -146 91 -241.5t224 -95.5z" />
    <glyph glyph-name="uni1ED7" unicode="&#x1ed7;" horiz-adv-x="578" 
d="M338 775q30 -1 53 37q1 -3 4.5 -10t5.5 -12q-24 -40 -64 -39q-18 2 -52 23q-3 2 -9.5 6.5t-10.5 7t-10 5t-11 2.5q-29 0 -54 -44q-1 3 -4.5 11.5t-4.5 13.5q30 43 64 42q16 -2 49 -22q32 -21 44 -21zM289 695l-86 -103h-27l101 125h26l101 -125h-27zM289 -7
q-110 0 -182.5 73.5t-72.5 194.5t72.5 193.5t182.5 72.5t182.5 -72.5t72.5 -193.5t-72.5 -194.5t-182.5 -73.5zM289 18q99 0 163.5 66.5t64.5 176.5t-64.5 175.5t-163.5 65.5t-163.5 -65.5t-64.5 -175.5t64.5 -176.5t163.5 -66.5z" />
    <glyph glyph-name="uni1ED8" unicode="&#x1ed8;" horiz-adv-x="766" 
d="M366 -181v73h31v-73h-31zM383 859l-86 -103h-27l101 125h26l101 -125h-27zM383 -7q-145 0 -244.5 103.5t-99.5 258.5t99 256t245 101t245 -101t99 -256t-99.5 -258.5t-244.5 -103.5zM383 18q135 0 224.5 95.5t89.5 241.5q0 145 -90 238.5t-224 93.5t-224.5 -93.5
t-90.5 -238.5q0 -146 91 -241.5t224 -95.5z" />
    <glyph glyph-name="uni1ED9" unicode="&#x1ed9;" horiz-adv-x="578" 
d="M274 -181v73h31v-73h-31zM289 695l-86 -103h-27l101 125h26l101 -125h-27zM289 -7q-110 0 -182.5 73.5t-72.5 194.5t72.5 193.5t182.5 72.5t182.5 -72.5t72.5 -193.5t-72.5 -194.5t-182.5 -73.5zM289 18q99 0 163.5 66.5t64.5 176.5t-64.5 175.5t-163.5 65.5
t-163.5 -65.5t-64.5 -175.5t64.5 -176.5t163.5 -66.5z" />
    <glyph glyph-name="uni1EDA" unicode="&#x1eda;" horiz-adv-x="766" 
d="M483 881l-92 -125h-25l87 125h30zM383 -7q-145 0 -244.5 103.5t-99.5 258.5t99 256t245 101q43 0 89 -11q44 0 63 3q32 4 44.5 20.5t12.5 50.5h24q0 -51 -21.5 -70t-59.5 -24h-7q55 -25 99 -70q100 -100 100 -256q0 -155 -99.5 -258.5t-244.5 -103.5zM383 18
q135 0 224.5 95.5t89.5 241.5q0 145 -90 238.5t-224 93.5t-224.5 -93.5t-90.5 -238.5q0 -146 91 -241.5t224 -95.5z" />
    <glyph glyph-name="uni1EDB" unicode="&#x1edb;" horiz-adv-x="578" 
d="M402 727l-92 -125h-25l87 125h30zM289 -7q-110 0 -182.5 73.5t-72.5 194.5t72.5 193.5t182.5 72.5q37 0 72 -9h27l18 1q31 3 44 20t13 51h24q0 -48 -19.5 -68t-53.5 -25q29 -15 56 -42q74 -71 74 -194q0 -121 -72.5 -194.5t-182.5 -73.5zM289 18q99 0 163.5 66.5
t64.5 176.5t-64.5 175.5t-163.5 65.5t-163.5 -65.5t-64.5 -175.5t64.5 -176.5t163.5 -66.5z" />
    <glyph glyph-name="uni1EDC" unicode="&#x1edc;" horiz-adv-x="766" 
d="M415 756l-92 125h30l87 -125h-25zM383 -7q-145 0 -244.5 103.5t-99.5 258.5t99 256t245 101q43 0 89 -11q44 0 63 3q32 4 44.5 20.5t12.5 50.5h24q0 -51 -21.5 -70t-59.5 -24h-7q55 -25 99 -70q100 -100 100 -256q0 -155 -99.5 -258.5t-244.5 -103.5zM383 18
q135 0 224.5 95.5t89.5 241.5q0 145 -90 238.5t-224 93.5t-224.5 -93.5t-90.5 -238.5q0 -146 91 -241.5t224 -95.5z" />
    <glyph glyph-name="uni1EDD" unicode="&#x1edd;" horiz-adv-x="578" 
d="M301 602l-92 125h30l87 -125h-25zM289 -7q-110 0 -182.5 73.5t-72.5 194.5t72.5 193.5t182.5 72.5q37 0 72 -9h27l18 1q31 3 44 20t13 51h24q0 -48 -19.5 -68t-53.5 -25q29 -15 56 -42q74 -71 74 -194q0 -121 -72.5 -194.5t-182.5 -73.5zM289 18q99 0 163.5 66.5
t64.5 176.5t-64.5 175.5t-163.5 65.5t-163.5 -65.5t-64.5 -175.5t64.5 -176.5t163.5 -66.5z" />
    <glyph glyph-name="uni1EDE" unicode="&#x1ede;" horiz-adv-x="766" 
d="M339 873v24q25 15 72 16q72 -1 76 -62q-1 -37 -37 -55q-35 -18 -38 -40h-22q3 31 38 49q36 20 37 44q2 42 -64 42q-33 -3 -62 -18zM383 -7q-145 0 -244.5 103.5t-99.5 258.5t99 256t245 101q43 0 89 -11q44 0 63 3q32 4 44.5 20.5t12.5 50.5h24q0 -51 -21.5 -70
t-59.5 -24h-7q55 -25 99 -70q100 -100 100 -256q0 -155 -99.5 -258.5t-244.5 -103.5zM383 18q135 0 224.5 95.5t89.5 241.5q0 145 -90 238.5t-224 93.5t-224.5 -93.5t-90.5 -238.5q0 -146 91 -241.5t224 -95.5z" />
    <glyph glyph-name="uni1EDF" unicode="&#x1edf;" horiz-adv-x="578" 
d="M248 719v24q25 15 72 16q72 -1 76 -62q-1 -37 -37 -55q-35 -18 -38 -40h-22q3 31 38 49q36 20 37 44q2 42 -64 42q-33 -3 -62 -18zM289 -7q-110 0 -182.5 73.5t-72.5 194.5t72.5 193.5t182.5 72.5q37 0 72 -9h27l18 1q31 3 44 20t13 51h24q0 -48 -19.5 -68t-53.5 -25
q29 -15 56 -42q74 -71 74 -194q0 -121 -72.5 -194.5t-182.5 -73.5zM289 18q99 0 163.5 66.5t64.5 176.5t-64.5 175.5t-163.5 65.5t-163.5 -65.5t-64.5 -175.5t64.5 -176.5t163.5 -66.5z" />
    <glyph glyph-name="uni1EE0" unicode="&#x1ee0;" horiz-adv-x="766" 
d="M443 782q30 -1 53 37q1 -3 4.5 -10t5.5 -12q-24 -40 -64 -39q-18 2 -52 23q-3 2 -9.5 6.5t-10.5 7t-10 5t-11 2.5q-29 0 -54 -44q-1 3 -4.5 11.5t-4.5 13.5q30 43 64 42q16 -2 49 -22q31 -21 44 -21zM383 -7q-145 0 -244.5 103.5t-99.5 258.5t99 256t245 101q43 0 89 -11
q44 0 63 3q32 4 44.5 20.5t12.5 50.5h24q0 -51 -21.5 -70t-59.5 -24h-7q55 -25 99 -70q100 -100 100 -256q0 -155 -99.5 -258.5t-244.5 -103.5zM383 18q135 0 224.5 95.5t89.5 241.5q0 145 -90 238.5t-224 93.5t-224.5 -93.5t-90.5 -238.5q0 -146 91 -241.5t224 -95.5z" />
    <glyph glyph-name="uni1EE1" unicode="&#x1ee1;" horiz-adv-x="578" 
d="M358 633q30 -1 53 37q1 -3 4.5 -10t5.5 -12q-24 -40 -64 -39q-18 2 -52 23q-3 2 -9.5 6.5t-10.5 7t-10 5t-11 2.5q-29 0 -54 -44q-1 3 -4.5 11.5t-4.5 13.5q30 43 64 42q16 -2 49 -22q31 -21 44 -21zM289 -7q-110 0 -182.5 73.5t-72.5 194.5t72.5 193.5t182.5 72.5
q37 0 72 -9h27l18 1q31 3 44 20t13 51h24q0 -48 -19.5 -68t-53.5 -25q29 -15 56 -42q74 -71 74 -194q0 -121 -72.5 -194.5t-182.5 -73.5zM289 18q99 0 163.5 66.5t64.5 176.5t-64.5 175.5t-163.5 65.5t-163.5 -65.5t-64.5 -175.5t64.5 -176.5t163.5 -66.5z" />
    <glyph glyph-name="uni1EE2" unicode="&#x1ee2;" horiz-adv-x="766" 
d="M366 -181v73h31v-73h-31zM383 -7q-145 0 -244.5 103.5t-99.5 258.5t99 256t245 101q43 0 89 -11q44 0 63 3q32 4 44.5 20.5t12.5 50.5h24q0 -51 -21.5 -70t-59.5 -24h-7q55 -25 99 -70q100 -100 100 -256q0 -155 -99.5 -258.5t-244.5 -103.5zM383 18q135 0 224.5 95.5
t89.5 241.5q0 145 -90 238.5t-224 93.5t-224.5 -93.5t-90.5 -238.5q0 -146 91 -241.5t224 -95.5z" />
    <glyph glyph-name="uni1EE3" unicode="&#x1ee3;" horiz-adv-x="578" 
d="M274 -181v73h31v-73h-31zM289 -7q-110 0 -182.5 73.5t-72.5 194.5t72.5 193.5t182.5 72.5q37 0 72 -9h27l18 1q31 3 44 20t13 51h24q0 -48 -19.5 -68t-53.5 -25q29 -15 56 -42q74 -71 74 -194q0 -121 -72.5 -194.5t-182.5 -73.5zM289 18q99 0 163.5 66.5t64.5 176.5
t-64.5 175.5t-163.5 65.5t-163.5 -65.5t-64.5 -175.5t64.5 -176.5t163.5 -66.5z" />
    <glyph glyph-name="uni1EE4" unicode="&#x1ee4;" horiz-adv-x="656" 
d="M310 -181v73h31v-73h-31zM325 -7q-117 0 -185.5 68t-68.5 193v451h28v-450q0 -113 61 -175t165 -62q106 0 168.5 62t62.5 175v450h29v-451q0 -124 -71 -192.5t-189 -68.5z" />
    <glyph glyph-name="uni1EE5" unicode="&#x1ee5;" horiz-adv-x="510" 
d="M232 -181v73h31v-73h-31zM421 0l-3 74q-90 -81 -190 -81q-80 0 -124.5 40t-44.5 120v367h28v-362q0 -141 146 -141q99 0 184 78v425h28v-520h-24z" />
    <glyph glyph-name="uni1EE6" unicode="&#x1ee6;" horiz-adv-x="656" 
d="M276 873v24q25 15 72 16q72 -1 76 -62q-1 -37 -37 -55q-35 -18 -38 -40h-22q3 31 38 49q36 20 37 44q2 42 -64 42q-33 -3 -62 -18zM325 -7q-117 0 -185.5 68t-68.5 193v451h28v-450q0 -113 61 -175t165 -62q106 0 168.5 62t62.5 175v450h29v-451q0 -124 -71 -192.5
t-189 -68.5z" />
    <glyph glyph-name="uni1EE7" unicode="&#x1ee7;" horiz-adv-x="510" 
d="M205 719v24q25 15 72 16q72 -1 76 -62q-1 -37 -37 -55q-35 -18 -38 -40h-22q3 31 38 49q36 20 37 44q2 42 -64 42q-33 -3 -62 -18zM421 0l-3 74q-90 -81 -190 -81q-80 0 -124.5 40t-44.5 120v367h28v-362q0 -141 146 -141q99 0 184 78v425h28v-520h-24z" />
    <glyph glyph-name="uni1EE8" unicode="&#x1ee8;" horiz-adv-x="656" 
d="M427 881l-92 -125h-25l87 125h30zM325 -7q-117 0 -185.5 68t-68.5 193v451h28v-450q0 -113 61 -175t165 -62q106 0 168.5 62t62.5 175v450h29v-1q50 8 50 71h24q0 -48 -20 -68t-54 -25v-428q0 -124 -71 -192.5t-189 -68.5z" />
    <glyph glyph-name="uni1EE9" unicode="&#x1ee9;" horiz-adv-x="510" 
d="M355 727l-92 -125h-25l87 125h30zM421 0l-3 74q-90 -81 -190 -81q-80 0 -124.5 40t-44.5 120v367h28v-362q0 -141 146 -141q99 0 184 78v425h28v-1q48 9 48 71h24q0 -48 -19 -67.5t-53 -25.5v-497h-24z" />
    <glyph glyph-name="uni1EEA" unicode="&#x1eea;" horiz-adv-x="656" 
d="M346 756l-92 125h30l87 -125h-25zM325 -7q-117 0 -185.5 68t-68.5 193v451h28v-450q0 -113 61 -175t165 -62q106 0 168.5 62t62.5 175v450h29v-1q50 8 50 71h24q0 -48 -20 -68t-54 -25v-428q0 -124 -71 -192.5t-189 -68.5z" />
    <glyph glyph-name="uni1EEB" unicode="&#x1eeb;" horiz-adv-x="510" 
d="M261 602l-92 125h30l87 -125h-25zM421 0l-3 74q-90 -81 -190 -81q-80 0 -124.5 40t-44.5 120v367h28v-362q0 -141 146 -141q99 0 184 78v425h28v-1q48 9 48 71h24q0 -48 -19 -67.5t-53 -25.5v-497h-24z" />
    <glyph glyph-name="uni1EEC" unicode="&#x1eec;" horiz-adv-x="656" 
d="M276 873v24q25 15 72 16q72 -1 76 -62q-1 -37 -37 -55q-35 -18 -38 -40h-22q3 31 38 49q36 20 37 44q2 42 -64 42q-33 -3 -62 -18zM325 -7q-117 0 -185.5 68t-68.5 193v451h28v-450q0 -113 61 -175t165 -62q106 0 168.5 62t62.5 175v450h29v-1q50 8 50 71h24
q0 -48 -20 -68t-54 -25v-428q0 -124 -71 -192.5t-189 -68.5z" />
    <glyph glyph-name="uni1EED" unicode="&#x1eed;" horiz-adv-x="510" 
d="M205 719v24q25 15 72 16q72 -1 76 -62q-1 -37 -37 -55q-35 -18 -38 -40h-22q3 31 38 49q36 20 37 44q2 42 -64 42q-33 -3 -62 -18zM421 0l-3 74q-90 -81 -190 -81q-80 0 -124.5 40t-44.5 120v367h28v-362q0 -141 146 -141q99 0 184 78v425h28v-1q48 9 48 71h24
q0 -48 -19 -67.5t-53 -25.5v-497h-24z" />
    <glyph glyph-name="uni1EEE" unicode="&#x1eee;" horiz-adv-x="656" 
d="M375 782q30 -1 53 37q1 -3 4.5 -10t5.5 -12q-24 -40 -64 -39q-18 2 -52 23q-3 2 -9.5 6.5t-10.5 7t-10 5t-11 2.5q-29 0 -54 -44q-1 3 -4.5 11.5t-4.5 13.5q30 43 64 42q16 -2 49 -22q31 -21 44 -21zM325 -7q-117 0 -185.5 68t-68.5 193v451h28v-450q0 -113 61 -175
t165 -62q106 0 168.5 62t62.5 175v450h29v-1q50 8 50 71h24q0 -48 -20 -68t-54 -25v-428q0 -124 -71 -192.5t-189 -68.5z" />
    <glyph glyph-name="uni1EEF" unicode="&#x1eef;" horiz-adv-x="510" 
d="M301 633q30 -1 53 37q1 -3 4.5 -10t5.5 -12q-24 -40 -64 -39q-18 2 -52 23q-3 2 -9.5 6.5t-10.5 7t-10 5t-11 2.5q-29 0 -54 -44q-1 3 -4.5 11.5t-4.5 13.5q30 43 64 42q16 -2 49 -22q31 -21 44 -21zM421 0l-3 74q-90 -81 -190 -81q-80 0 -124.5 40t-44.5 120v367h28
v-362q0 -141 146 -141q99 0 184 78v425h28v-1q48 9 48 71h24q0 -48 -19 -67.5t-53 -25.5v-497h-24z" />
    <glyph glyph-name="uni1EF0" unicode="&#x1ef0;" horiz-adv-x="656" 
d="M310 -181v73h31v-73h-31zM325 -7q-117 0 -185.5 68t-68.5 193v451h28v-450q0 -113 61 -175t165 -62q106 0 168.5 62t62.5 175v450h29v-1q50 8 50 71h24q0 -48 -20 -68t-54 -25v-428q0 -124 -71 -192.5t-189 -68.5z" />
    <glyph glyph-name="uni1EF1" unicode="&#x1ef1;" horiz-adv-x="510" 
d="M232 -181v73h31v-73h-31zM421 0l-3 74q-90 -81 -190 -81q-80 0 -124.5 40t-44.5 120v367h28v-362q0 -141 146 -141q99 0 184 78v425h28v-1q48 9 48 71h24q0 -48 -19 -67.5t-53 -25.5v-497h-24z" />
    <glyph glyph-name="Ygrave" unicode="&#x1ef2;" horiz-adv-x="533" 
d="M277 756l-92 125h30l87 -125h-25zM281 0h-28v305l-245 398v2h30l229 -375l229 375h29v-2l-244 -398v-305z" />
    <glyph glyph-name="ygrave" unicode="&#x1ef3;" horiz-adv-x="469" 
d="M249 602l-92 125h30l87 -125h-25zM37 -214v25q58 6 95 38t62 94l32 77l-216 498v2h29l201 -470l191 470h28v-2l-239 -580q-30 -76 -72.5 -111.5t-110.5 -40.5z" />
    <glyph glyph-name="uni1EF4" unicode="&#x1ef4;" horiz-adv-x="533" 
d="M252 -181v73h31v-73h-31zM281 0h-28v305l-245 398v2h30l229 -375l229 375h29v-2l-244 -398v-305z" />
    <glyph glyph-name="uni1EF5" unicode="&#x1ef5;" horiz-adv-x="469" 
d="M310 -181v73h31v-73h-31zM37 -214v25q58 6 95 38t62 94l32 77l-216 498v2h29l201 -470l191 470h28v-2l-239 -580q-30 -76 -72.5 -111.5t-110.5 -40.5z" />
    <glyph glyph-name="uni1EF6" unicode="&#x1ef6;" horiz-adv-x="533" 
d="M215 873v24q25 15 72 16q72 -1 76 -62q-1 -37 -37 -55q-35 -18 -38 -40h-22q3 31 38 49q36 20 37 44q2 42 -64 42q-33 -3 -62 -18zM281 0h-28v305l-245 398v2h30l229 -375l229 375h29v-2l-244 -398v-305z" />
    <glyph glyph-name="uni1EF7" unicode="&#x1ef7;" horiz-adv-x="469" 
d="M184 719v24q25 15 72 16q72 -1 76 -62q-1 -37 -37 -55q-35 -18 -38 -40h-22q3 31 38 49q36 20 37 44q2 42 -64 42q-33 -3 -62 -18zM37 -214v25q58 6 95 38t62 94l32 77l-216 498v2h29l201 -470l191 470h28v-2l-239 -580q-30 -76 -72.5 -111.5t-110.5 -40.5z" />
    <glyph glyph-name="uni1EF8" unicode="&#x1ef8;" horiz-adv-x="533" 
d="M320 782q30 -1 53 37q1 -3 4.5 -10t5.5 -12q-24 -40 -64 -39q-18 2 -52 23q-3 2 -9.5 6.5t-10.5 7t-10 5t-11 2.5q-29 0 -54 -44q-1 3 -4.5 11.5t-4.5 13.5q30 43 64 42q16 -2 49 -22q32 -21 44 -21zM281 0h-28v305l-245 398v2h30l229 -375l229 375h29v-2l-244 -398v-305
z" />
    <glyph glyph-name="uni1EF9" unicode="&#x1ef9;" horiz-adv-x="469" 
d="M285 633q30 -1 53 37q1 -3 4.5 -10t5.5 -12q-24 -40 -64 -39q-18 2 -52 23q-3 2 -9.5 6.5t-10.5 7t-10 5t-11 2.5q-29 0 -54 -44q-1 3 -4.5 11.5t-4.5 13.5q30 43 64 42q16 -2 49 -22q31 -21 44 -21zM37 -214v25q58 6 95 38t62 94l32 77l-216 498v2h29l201 -470l191 470
h28v-2l-239 -580q-30 -76 -72.5 -111.5t-110.5 -40.5z" />
    <glyph glyph-name="uni1EFA" unicode="&#x1efa;" horiz-adv-x="0" 
d="M427 495v23q37 1 51.5 18.5t14.5 53.5h24q0 -29 -7.5 -48t-22.5 -28.5t-27.5 -13t-32.5 -5.5z" />
    <glyph glyph-name="endash" unicode="&#x2013;" horiz-adv-x="429" 
d="M31 287v24h366v-24h-366z" />
    <glyph glyph-name="emdash" unicode="&#x2014;" horiz-adv-x="829" 
d="M31 287v24h766v-24h-766z" />
    <glyph glyph-name="quoteleft" unicode="&#x2018;" horiz-adv-x="124" 
d="M31 567v3l35 135h22l-27 -138h-30z" />
    <glyph glyph-name="quoteright" unicode="&#x2019;" horiz-adv-x="124" 
d="M92 705v-3l-34 -135h-22l27 138h29z" />
    <glyph glyph-name="quotesinglbase" unicode="&#x201a;" horiz-adv-x="124" 
d="M89 81v-3l-34 -135h-22l27 138h29z" />
    <glyph glyph-name="quotedblleft" unicode="&#x201c;" horiz-adv-x="200" 
d="M31 567v3l35 135h22l-27 -138h-30zM108 567v3l35 135h22l-27 -138h-30z" />
    <glyph glyph-name="quotedblright" unicode="&#x201d;" horiz-adv-x="200" 
d="M169 705v-3l-35 -135h-22l27 138h30zM92 705v-3l-34 -135h-22l27 138h29z" />
    <glyph glyph-name="quotedblbase" unicode="&#x201e;" horiz-adv-x="200" 
d="M89 81v-3l-34 -135h-22l27 138h29zM166 81v-3l-35 -135h-22l27 138h30z" />
    <glyph glyph-name="dagger" unicode="&#x2020;" horiz-adv-x="329" 
d="M293 543h-115v-369h-26v369h-115v23h115v154l26 9v-163h115v-23z" />
    <glyph glyph-name="daggerdbl" unicode="&#x2021;" horiz-adv-x="329" 
d="M178 178l-26 -9v164h-115v23h115v187h-115v23h115v154l26 9v-163h115v-23h-115v-187h115v-23h-115v-155z" />
    <glyph glyph-name="bullet" unicode="&#x2022;" horiz-adv-x="313" 
d="M156 417q48 0 80 -33t32 -81t-32 -81t-80 -33q-47 0 -79 33t-32 81t32 81t79 33z" />
    <glyph glyph-name="ellipsis" unicode="&#x2026;" horiz-adv-x="549" 
d="M450 0v48h32v-48h-32zM258 0v48h33v-48h-33zM67 0v48h32v-48h-32z" />
    <glyph glyph-name="perthousand" unicode="&#x2030;" horiz-adv-x="1124" 
d="M183 361q-68 0 -111 46t-43 120q0 72 43.5 118.5t110.5 46.5q68 0 110 -46.5t42 -118.5q0 -74 -42 -120t-110 -46zM135 0l473 690h27l-473 -690h-27zM183 383q57 0 92 40t35 104q0 62 -35 102.5t-92 40.5q-58 0 -93.5 -40.5t-35.5 -102.5q0 -64 35 -104t94 -40zM942 -7
q-68 0 -110.5 46t-42.5 121q0 72 42.5 118t110.5 46t110 -46t42 -118q0 -75 -42 -121t-110 -46zM586 -7q-68 0 -110.5 46t-42.5 121q0 72 42.5 118t110.5 46q67 0 110 -46t43 -118q0 -75 -42.5 -121t-110.5 -46zM942 16q57 0 92 40t35 104q0 62 -35 101.5t-92 39.5
q-58 0 -93 -39.5t-35 -101.5q0 -64 34.5 -104t93.5 -40zM586 16q59 0 93.5 40t34.5 104q0 62 -35 101.5t-93 39.5q-57 0 -92.5 -40t-35.5 -101q0 -64 35.5 -104t92.5 -40z" />
    <glyph glyph-name="uni2032" unicode="&#x2032;" horiz-adv-x="125" 
d="M86 705l-30 -148h-21l22 148h29z" />
    <glyph glyph-name="uni2033" unicode="&#x2033;" horiz-adv-x="202" 
d="M86 705l-30 -148h-21l22 148h29zM162 705l-29 -148h-21l22 148h28z" />
    <glyph glyph-name="guilsinglleft" unicode="&#x2039;" horiz-adv-x="205" 
d="M144 84l-125 176l125 176h29l-124 -176l124 -176h-29z" />
    <glyph glyph-name="guilsinglright" unicode="&#x203a;" horiz-adv-x="205" 
d="M33 84l124 176l-124 176h29l124 -176l-124 -176h-29z" />
    <glyph glyph-name="fraction" unicode="&#x2044;" horiz-adv-x="124" 
d="M-209 0l514 690h27l-514 -690h-27z" />
    <glyph glyph-name="Euro" unicode="&#x20ac;" horiz-adv-x="547" 
d="M510 67v-28q-64 -46 -163 -46q-114 0 -184 75.5t-84 213.5h-59v21h57q-1 15 -1 44q0 13 2 43h-58v21h60q14 132 89 206.5t185 74.5q87 0 146 -36v-26l-1 -1q-61 38 -144 38q-100 0 -166 -67.5t-80 -188.5h256v-21h-258q-2 -30 -2 -43q0 -29 1 -44h259v-21h-257
q13 -128 75.5 -196t165.5 -68q99 0 159 50z" />
    <glyph glyph-name="trademark" unicode="&#x2122;" horiz-adv-x="650" 
d="M252 667h-106v-301h-24v301h-106v21h236v-21zM592 366l-31 262l-109 -264h-8l-108 262l-32 -260h-23l40 324h11l117 -286l116 286h11l39 -324h-23z" />
    <glyph glyph-name="onethird" unicode="&#x2153;" horiz-adv-x="745" 
d="M569 -4q-57 0 -102 28v22l1 2q44 -31 99 -31q49 0 77 24.5t28 64.5q0 38 -27 60t-72 22h-50v19h51q37 0 60.5 21.5t23.5 57.5q0 35 -24.5 53.5t-66.5 18.5q-44 0 -88 -25l-1 1v21q37 24 92 24q51 0 82 -24t31 -68q0 -69 -70 -88q39 -7 61.5 -31.5t22.5 -62.5
q0 -49 -34.5 -79t-93.5 -30zM159 313h-25v348l-84 -52l-2 1v22l103 62h8v-381zM81 0l514 690h27l-514 -690h-27z" />
    <glyph glyph-name="twothirds" unicode="&#x2154;" horiz-adv-x="779" 
d="M22 313v8l134 140q71 75 71 131q0 79 -92 79q-50 0 -95 -29l-1 1v22q41 27 99 27q55 0 84.5 -25.5t29.5 -73.5q0 -38 -20 -71.5t-57 -72.5l-113 -116h195v-20h-235zM604 -4q-57 0 -102 28v22l1 2q44 -31 99 -31q49 0 77 24.5t28 64.5q0 38 -27 60t-72 22h-50v19h51
q37 0 60.5 21.5t23.5 57.5q0 35 -24.5 53.5t-66.5 18.5q-44 0 -88 -25l-1 1v21q37 24 92 24q51 0 82 -24t31 -68q0 -69 -70 -88q39 -7 61.5 -31.5t22.5 -62.5q0 -49 -34.5 -79t-93.5 -30zM115 0l514 690h27l-514 -690h-27z" />
    <glyph glyph-name="oneeighth" unicode="&#x215b;" horiz-adv-x="765" 
d="M600 -4q-60 0 -94.5 26.5t-34.5 72.5q0 67 99 99q-89 30 -89 97q0 41 32.5 64.5t82.5 23.5q52 0 84 -23.5t32 -67.5q0 -59 -86 -90q97 -35 97 -103q0 -48 -31.5 -73.5t-91.5 -25.5zM595 207l9 -3q84 32 84 83q0 34 -25.5 53.5t-65.5 19.5t-65.5 -18.5t-25.5 -50.5
q0 -34 23 -51.5t66 -32.5zM599 16q48 0 74 20.5t26 57.5q0 59 -99 90l-9 3q-21 -7 -35 -13.5t-29.5 -17.5t-23.5 -26t-8 -34q0 -38 28 -59t76 -21zM159 313h-25v348l-84 -52l-2 1v22l103 62h8v-381zM80 0l514 690h27l-514 -690h-27z" />
    <glyph glyph-name="threeeighths" unicode="&#x215c;" horiz-adv-x="799" 
d="M634 -4q-60 0 -94.5 26.5t-34.5 72.5q0 67 99 99q-89 30 -89 97q0 41 32.5 64.5t82.5 23.5q52 0 84 -23.5t32 -67.5q0 -59 -86 -90q97 -35 97 -103q0 -48 -31.5 -73.5t-91.5 -25.5zM629 207l9 -3q84 32 84 83q0 34 -25.5 53.5t-65.5 19.5t-65.5 -18.5t-25.5 -50.5
q0 -34 23 -51.5t66 -32.5zM633 16q48 0 74 20.5t26 57.5q0 59 -99 90l-9 3q-21 -7 -35 -13.5t-29.5 -17.5t-23.5 -26t-8 -34q0 -38 28 -59t76 -21zM114 0l514 690h27l-514 -690h-27zM130 310q-57 0 -102 28v22l1 2q44 -31 99 -31q49 0 77 24.5t28 64.5q0 38 -27 60t-72 22
h-50v19h51q37 0 60.5 21.5t23.5 57.5q0 35 -24.5 53.5t-66.5 18.5q-44 0 -88 -25l-1 1v21q37 24 92 24q51 0 82 -24t31 -68q0 -69 -70 -88q39 -7 61.5 -31.5t22.5 -62.5q0 -49 -34.5 -79t-93.5 -30z" />
    <glyph glyph-name="fiveeighths" unicode="&#x215d;" horiz-adv-x="806" 
d="M642 -4q-60 0 -94.5 26.5t-34.5 72.5q0 67 99 99q-89 30 -89 97q0 41 32.5 64.5t82.5 23.5q52 0 84 -23.5t32 -67.5q0 -59 -86 -90q97 -35 97 -103q0 -48 -31.5 -73.5t-91.5 -25.5zM637 207l9 -3q84 32 84 83q0 34 -25.5 53.5t-65.5 19.5t-65.5 -18.5t-25.5 -50.5
q0 -34 23 -51.5t66 -32.5zM641 16q48 0 74 20.5t26 57.5q0 59 -99 90l-9 3q-21 -7 -35 -13.5t-29.5 -17.5t-23.5 -26t-8 -34q0 -38 28 -59t76 -21zM122 0l514 690h27l-514 -690h-27zM126 309q-58 0 -98 26v21l1 2q40 -28 95 -28q50 0 79 26.5t29 71.5t-27 68.5t-78 23.5
q-44 0 -82 -15l-1 1v182h193v-20h-171v-138q27 10 66 10q59 0 92 -29t33 -83t-35.5 -86.5t-95.5 -32.5z" />
    <glyph glyph-name="seveneighths" unicode="&#x215e;" horiz-adv-x="765" 
d="M113 313h-27q19 92 91 232l62 122h-214v21h244v-9l-69 -139q-73 -143 -87 -227zM600 -4q-60 0 -94.5 26.5t-34.5 72.5q0 67 99 99q-89 30 -89 97q0 41 32.5 64.5t82.5 23.5q52 0 84 -23.5t32 -67.5q0 -59 -86 -90q97 -35 97 -103q0 -48 -31.5 -73.5t-91.5 -25.5zM595 207
l9 -3q84 32 84 83q0 34 -25.5 53.5t-65.5 19.5t-65.5 -18.5t-25.5 -50.5q0 -34 23 -51.5t66 -32.5zM599 16q48 0 74 20.5t26 57.5q0 59 -99 90l-9 3q-21 -7 -35 -13.5t-29.5 -17.5t-23.5 -26t-8 -34q0 -38 28 -59t76 -21zM78 0l514 690h27l-514 -690h-27z" />
    <glyph glyph-name="minus" unicode="&#x2212;" horiz-adv-x="469" 
d="M40 334v23h389v-23h-389z" />
    <glyph glyph-name="uni24C5" unicode="&#x24c5;" horiz-adv-x="801" 
d="M41 352q0 159 103 262t257 103t257 -103t103 -262q0 -158 -103 -261t-257 -103t-257 103t-103 261zM740 352q0 150 -97 248.5t-242 98.5t-242 -98.5t-97 -248.5q0 -149 97 -247.5t242 -98.5t242 98.5t97 247.5zM401 527h-84v-181h91q47 0 73.5 23t26.5 68q0 90 -107 90z
M409 325h-92v-161h-25v383h109q133 0 133 -111q0 -55 -34 -83t-91 -28z" />
    <glyph glyph-name="J.alt" unicode="&#xe489;" horiz-adv-x="354" 
d="M118 -4q-55 0 -95 19v24l2 1q40 -19 90 -19q140 0 140 158v526h28v-528q0 -94 -44 -137.5t-121 -43.5z" />
    <glyph glyph-name="K.alt" unicode="&#xe48a;" horiz-adv-x="528" 
d="M79 0v705h28v-705h-28zM505 0h-32l-341 366l320 339h31v-2l-316 -335l338 -366v-2z" />
    <glyph glyph-name="M.alt" unicode="&#xe48c;" horiz-adv-x="815" 
d="M728 0l-62 626l-255 -631h-7l-257 632l-61 -627h-28l71 711h10l269 -656l267 656h9l73 -711h-29z" />
    <glyph glyph-name="Q.alt" unicode="&#xe490;" horiz-adv-x="766" 
d="M383 18q119 0 200 72l-127 137l1 3h31l114 -122q95 95 95 247q0 145 -90 238.5t-224 93.5t-224.5 -93.5t-90.5 -238.5q0 -146 91 -241.5t224 -95.5zM667 0l-67 72q-93 -79 -217 -79q-145 0 -244.5 103.5t-99.5 258.5t99 256t245 101t245 -101t99 -256q0 -161 -108 -266
l80 -86l-1 -3h-31z" />
    <glyph glyph-name="W.alt" unicode="&#xe496;" horiz-adv-x="859" 
d="M632 -6l-202 645l-202 -645h-7l-204 709v2h29l181 -639l200 644h6l202 -639l179 634h28v-2l-203 -709h-7z" />
    <glyph glyph-name="a.alt" unicode="&#xe4c0;" horiz-adv-x="555" 
d="M267 16q123 0 195 101v282q-63 105 -188 105q-90 0 -151.5 -67t-61.5 -182q0 -114 59 -176.5t147 -62.5zM468 0l-5 93q-72 -101 -198 -101q-100 0 -165.5 69.5t-65.5 193.5t68.5 198.5t170.5 74.5q125 0 190 -104l3 96h24v-520h-22z" />
    <glyph glyph-name="g.alt" unicode="&#xe4c6;" horiz-adv-x="561" 
d="M269 16q130 0 200 103v278q-65 107 -193 107q-92 0 -153.5 -67t-61.5 -182t58.5 -177t149.5 -62zM268 -217q-110 0 -189 42v24l2 2q81 -43 185 -43q88 0 145.5 41.5t57.5 131.5v112q-33 -47 -85.5 -74t-116.5 -27q-102 0 -167.5 69.5t-65.5 193.5q0 125 68 199t173 74
q131 0 195 -103l2 95h25v-538q0 -104 -66 -151.5t-163 -47.5z" />
    <glyph glyph-name="k.alt" unicode="&#xe4ca;" horiz-adv-x="434" 
d="M65 0v730l28 7v-737h-28zM413 0h-32l-265 272l246 248h30v-2l-242 -245l263 -271v-2z" />
    <glyph glyph-name="l.alt" unicode="&#xe4cb;" horiz-adv-x="195" 
d="M133 -3q-65 0 -65 69v664l28 7v-670q0 -46 40 -46q23 0 42 8l1 -1v-23q-24 -8 -46 -8z" />
    <glyph glyph-name="t.alt" unicode="&#xe4d3;" horiz-adv-x="294" 
d="M266 497h-122v-497h-28v497h-89v23h89v114l28 4v-118h122v-23z" />
    <glyph glyph-name="y.alt" unicode="&#xe4d8;" horiz-adv-x="469" 
d="M161 -210h-29v2l93 228l-215 498v2h29l201 -471l191 471h28v-2z" />
    <glyph glyph-name="k.alt1" unicode="&#xe4ea;" horiz-adv-x="459" 
d="M280 503q-99 0 -187 -94v-409h-28v730l28 7v-305q34 39 84 67t107 28q66 0 101.5 -36t35.5 -92q0 -65 -49 -113t-147 -69l199 -215v-2h-31l-207 220v6q102 20 154.5 65.5t52.5 105.5q0 48 -28.5 77t-84.5 29z" />
    <glyph glyph-name="y.alt1" unicode="&#xe4f8;" horiz-adv-x="510" 
d="M238 -217q-98 0 -173 42v24l1 2q77 -43 170 -43q80 0 131 37t51 121v108q-90 -81 -190 -81q-80 0 -124.5 40t-44.5 120v367h28v-362q0 -141 146 -141q99 0 185 79v424h27v-553q0 -67 -31.5 -110t-75.5 -58.5t-100 -15.5z" />
    <glyph glyph-name="NULL" horiz-adv-x="0" 
 />
    <glyph glyph-name="CR" horiz-adv-x="333" 
 />
    <glyph glyph-name="idotaccent" horiz-adv-x="163" 
d="M68 0v520h27v-520h-27zM66 624v73h31v-73h-31z" />
    <glyph glyph-name="space_uni0326" horiz-adv-x="400" 
d="M172 -174l17 124h30v-2l-24 -122h-23z" />
    <glyph glyph-name="zero.num" horiz-adv-x="353" 
d="M178 309q-64 0 -106 52.5t-42 140.5t42 139t106 51t104.5 -51t40.5 -139t-40.5 -140.5t-104.5 -52.5zM178 331q52 0 85.5 46t33.5 125t-33 123.5t-86 44.5t-87.5 -44.5t-34.5 -123.5t34.5 -125t87.5 -46z" />
    <glyph glyph-name="one.num" horiz-adv-x="181" 
d="M120 313h-25v348l-84 -52l-2 1v22l103 62h8v-381z" />
    <glyph glyph-name="two.num" horiz-adv-x="277" 
d="M12 313v8l134 140q71 75 71 131q0 79 -92 79q-50 0 -95 -29l-1 1v22q41 27 99 27q55 0 84.5 -25.5t29.5 -73.5q0 -38 -20 -71.5t-57 -72.5l-113 -116h195v-20h-235z" />
    <glyph glyph-name="three.num" horiz-adv-x="279" 
d="M122 309q-57 0 -102 28v22l1 2q44 -31 99 -31q49 0 77 24.5t28 64.5q0 38 -27 60t-72 22h-50v19h51q37 0 60.5 21.5t23.5 57.5q0 35 -24.5 53.5t-66.5 18.5q-44 0 -88 -25l-1 1v21q37 24 92 24q51 0 82 -24t31 -68q0 -69 -70 -88q39 -7 61.5 -31.5t22.5 -62.5
q0 -49 -34.5 -79t-93.5 -30z" />
    <glyph glyph-name="four.num" horiz-adv-x="305" 
d="M205 426v220l-161 -220h161zM286 406h-57v-93h-24v93h-194v10l206 280h12v-270h57v-20z" />
    <glyph glyph-name="five.num" horiz-adv-x="277" 
d="M118 309q-58 0 -98 26v21l1 2q40 -28 95 -28q50 0 79 26.5t29 71.5t-27 68.5t-78 23.5q-44 0 -82 -15l-1 1v182h193v-20h-171v-138q27 10 66 10q60 0 92.5 -29t32.5 -83t-35.5 -86.5t-95.5 -32.5z" />
    <glyph glyph-name="six.num" horiz-adv-x="311" 
d="M289 426q0 -50 -31.5 -83.5t-88.5 -33.5q-68 0 -102.5 47t-34.5 134q0 97 45.5 149.5t115.5 52.5q43 0 75 -17v-22l-2 -1q-28 19 -72 19q-60 0 -98.5 -46t-38.5 -132q45 45 113 45q51 0 85 -28.5t34 -83.5zM169 329q46 0 70.5 27.5t24.5 69.5q0 46 -28.5 69.5t-70.5 23.5
q-62 0 -108 -46q6 -144 112 -144z" />
    <glyph glyph-name="seven.num" horiz-adv-x="272" 
d="M103 313h-27q19 92 91 232l62 122h-214v21h244v-9l-69 -139q-73 -143 -87 -227z" />
    <glyph glyph-name="eight.num" horiz-adv-x="298" 
d="M152 309q-60 0 -94.5 26.5t-34.5 72.5q0 67 99 99q-89 30 -89 97q0 41 32.5 64.5t82.5 23.5q52 0 84 -23.5t32 -67.5q0 -59 -86 -90q97 -35 97 -103q0 -48 -31.5 -73.5t-91.5 -25.5zM147 520l9 -3q84 32 84 83q0 34 -25.5 53.5t-65.5 19.5t-65.5 -18.5t-25.5 -50.5
q0 -34 23 -51.5t66 -32.5zM151 329q48 0 74 20.5t26 57.5q0 59 -99 90l-9 3q-21 -7 -35 -13.5t-29.5 -17.5t-23.5 -26t-8 -34q0 -38 28 -59t76 -21z" />
    <glyph glyph-name="nine.num" horiz-adv-x="311" 
d="M144 482q65 0 110 45q-6 145 -111 145q-46 0 -71 -27.5t-25 -68.5q0 -46 27.5 -70t69.5 -24zM119 309q-47 0 -77 18v21l1 1q32 -19 75 -19q136 0 136 179q-44 -46 -115 -46q-50 0 -83.5 29.5t-33.5 83.5q0 48 32.5 82t87.5 34q68 0 102.5 -46t34.5 -133
q0 -103 -41.5 -153.5t-118.5 -50.5z" />
    <glyph glyph-name="zero.den" horiz-adv-x="353" 
d="M178 -4q-64 0 -106 52.5t-42 140.5t42 139t106 51t104.5 -51t40.5 -139t-40.5 -140.5t-104.5 -52.5zM178 18q52 0 85.5 46t33.5 125t-33 123.5t-86 44.5t-87.5 -44.5t-34.5 -123.5t34.5 -125t87.5 -46z" />
    <glyph glyph-name="one.den" horiz-adv-x="181" 
d="M120 0h-25v348l-84 -52l-2 1v22l103 62h8v-381z" />
    <glyph glyph-name="two.den" horiz-adv-x="277" 
d="M12 0v8l134 140q71 75 71 131q0 79 -92 79q-50 0 -95 -29l-1 1v22q41 27 99 27q55 0 84.5 -25.5t29.5 -73.5q0 -38 -20 -71.5t-57 -72.5l-113 -116h195v-20h-235z" />
    <glyph glyph-name="three.den" horiz-adv-x="279" 
d="M122 -4q-57 0 -102 28v22l1 2q44 -31 99 -31q49 0 77 24.5t28 64.5q0 38 -27 60t-72 22h-50v19h51q37 0 60.5 21.5t23.5 57.5q0 35 -24.5 53.5t-66.5 18.5q-44 0 -88 -25l-1 1v21q37 24 92 24q51 0 82 -24t31 -68q0 -69 -70 -88q39 -7 61.5 -31.5t22.5 -62.5
q0 -49 -34.5 -79t-93.5 -30z" />
    <glyph glyph-name="four.den" horiz-adv-x="305" 
d="M205 113v220l-161 -220h161zM286 93h-57v-93h-24v93h-194v10l206 280h12v-270h57v-20z" />
    <glyph glyph-name="five.den" horiz-adv-x="277" 
d="M118 -4q-58 0 -98 26v21l1 2q40 -28 95 -28q50 0 79 26.5t29 71.5t-27 68.5t-78 23.5q-44 0 -82 -15l-1 1v182h193v-20h-171v-138q27 10 66 10q60 0 92.5 -29t32.5 -83t-35.5 -86.5t-95.5 -32.5z" />
    <glyph glyph-name="six.den" horiz-adv-x="311" 
d="M289 113q0 -49 -31.5 -83t-88.5 -34q-68 0 -102.5 47t-34.5 134q0 97 45.5 149.5t115.5 52.5q43 0 75 -17v-22l-2 -1q-28 19 -72 19q-60 0 -98.5 -46t-38.5 -132q45 45 113 45q51 0 85 -28.5t34 -83.5zM169 16q46 0 70.5 27.5t24.5 69.5q0 46 -28.5 69.5t-70.5 23.5
q-62 0 -108 -46q6 -144 112 -144z" />
    <glyph glyph-name="seven.den" horiz-adv-x="272" 
d="M103 0h-27q19 92 91 232l62 122h-214v21h244v-9l-69 -139q-73 -143 -87 -227z" />
    <glyph glyph-name="eight.den" horiz-adv-x="298" 
d="M152 -4q-60 0 -94.5 26.5t-34.5 72.5q0 67 99 99q-89 30 -89 97q0 41 32.5 64.5t82.5 23.5q52 0 84 -23.5t32 -67.5q0 -59 -86 -90q97 -35 97 -103q0 -48 -31.5 -73.5t-91.5 -25.5zM147 207l9 -3q84 32 84 83q0 34 -25.5 53.5t-65.5 19.5t-65.5 -18.5t-25.5 -50.5
q0 -34 23 -51.5t66 -32.5zM151 16q48 0 74 20.5t26 57.5q0 59 -99 90l-9 3q-21 -7 -35 -13.5t-29.5 -17.5t-23.5 -26t-8 -34q0 -38 28 -59t76 -21z" />
    <glyph glyph-name="nine.den" horiz-adv-x="311" 
d="M144 169q65 0 110 45q-6 145 -111 145q-46 0 -71 -27.5t-25 -68.5q0 -46 27.5 -70t69.5 -24zM119 -4q-47 0 -77 18v21l1 1q32 -19 75 -19q136 0 136 179q-44 -46 -115 -46q-50 0 -83.5 29.5t-33.5 83.5q0 48 32.5 82t87.5 34q68 0 102.5 -46t34.5 -133
q0 -103 -41.5 -153.5t-118.5 -50.5z" />
    <glyph glyph-name="zero.sub" horiz-adv-x="353" 
d="M178 -94q-64 0 -106 52.5t-42 140.5t42 139t106 51t104.5 -51t40.5 -139t-40.5 -140.5t-104.5 -52.5zM178 -72q52 0 85.5 46t33.5 125t-33 123.5t-86 44.5t-87.5 -44.5t-34.5 -123.5t34.5 -125t87.5 -46z" />
    <glyph glyph-name="one.sub" horiz-adv-x="181" 
d="M120 -90h-25v348l-84 -52l-2 1v22l103 62h8v-381z" />
    <glyph glyph-name="two.sub" horiz-adv-x="277" 
d="M12 -90v8l134 140q71 75 71 131q0 79 -92 79q-50 0 -95 -29l-1 1v22q41 27 99 27q55 0 84.5 -25.5t29.5 -73.5q0 -38 -20 -71.5t-57 -72.5l-113 -116h195v-20h-235z" />
    <glyph glyph-name="three.sub" horiz-adv-x="279" 
d="M122 -94q-57 0 -102 28v22l1 1q45 -30 99 -30q49 0 77 24.5t28 64.5q0 38 -27 60t-72 22h-50v19h51q37 0 60.5 21.5t23.5 57.5q0 35 -24.5 53.5t-66.5 18.5q-44 0 -88 -25l-1 1v21q37 24 92 24q51 0 82 -24t31 -68q0 -69 -70 -88q39 -7 61.5 -31.5t22.5 -62.5
q0 -49 -34.5 -79t-93.5 -30z" />
    <glyph glyph-name="four.sub" horiz-adv-x="305" 
d="M205 23v220l-161 -220h161zM286 3h-57v-93h-24v93h-194v10l206 280h12v-270h57v-20z" />
    <glyph glyph-name="five.sub" horiz-adv-x="277" 
d="M118 -97q-58 0 -98 26v21l1 1q41 -27 95 -27q50 0 79 26.5t29 71.5q0 44 -28 68t-77 24q-44 0 -82 -15l-1 1v182h193v-20h-171v-138q27 10 66 10q58 0 91.5 -29.5t33.5 -82.5q0 -54 -35.5 -86.5t-95.5 -32.5z" />
    <glyph glyph-name="six.sub" horiz-adv-x="311" 
d="M289 23q0 -49 -31.5 -83t-88.5 -34q-68 0 -102.5 47t-34.5 134q0 97 45.5 149.5t115.5 52.5q43 0 75 -17v-22l-2 -1q-28 19 -72 19q-60 0 -98.5 -46t-38.5 -132q45 45 113 45q51 0 85 -28.5t34 -83.5zM169 -74q46 0 70.5 27.5t24.5 69.5q0 46 -28.5 69.5t-70.5 23.5
q-62 0 -108 -46q6 -144 112 -144z" />
    <glyph glyph-name="seven.sub" horiz-adv-x="272" 
d="M103 -90h-27q19 92 91 232l62 122h-214v21h244v-9l-69 -139q-73 -143 -87 -227z" />
    <glyph glyph-name="eight.sub" horiz-adv-x="298" 
d="M152 -94q-60 0 -94.5 26.5t-34.5 72.5q0 67 99 99q-89 30 -89 97q0 41 32.5 64.5t82.5 23.5q52 0 84 -23.5t32 -67.5q0 -59 -86 -90q97 -35 97 -103q0 -48 -31.5 -73.5t-91.5 -25.5zM147 117l9 -3q84 32 84 83q0 34 -25.5 53.5t-65.5 19.5t-65.5 -18.5t-25.5 -50.5
q0 -34 23 -51.5t66 -32.5zM151 -74q48 0 74 20.5t26 57.5q0 59 -99 90l-9 3q-21 -7 -35 -13.5t-29.5 -17.5t-23.5 -26t-8 -34q0 -38 28 -59t76 -21z" />
    <glyph glyph-name="nine.sub" horiz-adv-x="311" 
d="M144 79q65 0 110 45q-6 145 -111 145q-46 0 -71 -27.5t-25 -68.5q0 -46 27.5 -70t69.5 -24zM119 -94q-47 0 -77 18v21l1 1q32 -19 75 -19q136 0 136 179q-44 -46 -115 -46q-50 0 -83.5 29.5t-33.5 83.5q0 48 32.5 82t87.5 34q68 0 102.5 -46t34.5 -133
q0 -103 -41.5 -153.5t-118.5 -50.5z" />
    <glyph glyph-name="plus.sub" horiz-adv-x="327" 
d="M153 -41v127h-117v22h117v127h21v-127h117v-22h-117v-127h-21z" />
    <glyph glyph-name="minus.sub" horiz-adv-x="327" 
d="M36 86v22h255v-22h-255z" />
    <glyph glyph-name="zero.sup" horiz-adv-x="353" 
d="M178 369q-64 0 -106 52.5t-42 140.5t42 139t106 51t104.5 -51t40.5 -139t-40.5 -140.5t-104.5 -52.5zM178 391q52 0 85.5 46t33.5 125t-33 123.5t-86 44.5t-87.5 -44.5t-34.5 -123.5t34.5 -125t87.5 -46z" />
    <glyph glyph-name="one.sup" horiz-adv-x="181" 
d="M120 373h-25v348l-84 -52l-2 1v22l103 62h8v-381z" />
    <glyph glyph-name="two.sup" horiz-adv-x="277" 
d="M12 373v8l134 140q71 75 71 131q0 79 -92 79q-50 0 -95 -29l-1 1v22q41 27 99 27q55 0 84.5 -25.5t29.5 -73.5q0 -38 -20 -71.5t-57 -72.5l-113 -116h195v-20h-235z" />
    <glyph glyph-name="three.sup" horiz-adv-x="279" 
d="M122 369q-57 0 -102 28v22l1 2q44 -31 99 -31q49 0 77 24.5t28 64.5q0 38 -27 60t-72 22h-50v19h51q37 0 60.5 21.5t23.5 57.5q0 35 -24.5 53.5t-66.5 18.5q-44 0 -88 -25l-1 1v21q37 24 92 24q51 0 82 -24t31 -68q0 -69 -70 -88q39 -7 61.5 -31.5t22.5 -62.5
q0 -49 -34.5 -79t-93.5 -30z" />
    <glyph glyph-name="four.sup" horiz-adv-x="305" 
d="M205 486v220l-161 -220h161zM286 466h-57v-93h-24v93h-194v10l206 280h12v-270h57v-20z" />
    <glyph glyph-name="five.sup" horiz-adv-x="277" 
d="M118 369q-58 0 -98 26v21l1 2q40 -28 95 -28q50 0 79 26.5t29 71.5t-27 68.5t-78 23.5q-44 0 -82 -15l-1 1v182h193v-20h-171v-138q27 10 66 10q60 0 92.5 -29t32.5 -83t-35.5 -86.5t-95.5 -32.5z" />
    <glyph glyph-name="six.sup" horiz-adv-x="311" 
d="M289 486q0 -50 -31.5 -83.5t-88.5 -33.5q-68 0 -102.5 47t-34.5 134q0 97 45.5 149.5t115.5 52.5q43 0 75 -17v-22l-2 -1q-28 19 -72 19q-60 0 -98.5 -46t-38.5 -132q45 45 113 45q51 0 85 -28.5t34 -83.5zM169 389q46 0 70.5 27.5t24.5 69.5q0 46 -28.5 69.5t-70.5 23.5
q-62 0 -108 -46q6 -144 112 -144z" />
    <glyph glyph-name="seven.sup" horiz-adv-x="272" 
d="M103 373h-27q19 92 91 232l62 122h-214v21h244v-9l-69 -139q-73 -143 -87 -227z" />
    <glyph glyph-name="eight.sup" horiz-adv-x="298" 
d="M152 369q-60 0 -94.5 26.5t-34.5 72.5q0 67 99 99q-89 30 -89 97q0 41 32.5 64.5t82.5 23.5q52 0 84 -23.5t32 -67.5q0 -59 -86 -90q97 -35 97 -103q0 -48 -31.5 -73.5t-91.5 -25.5zM147 580l9 -3q84 32 84 83q0 34 -25.5 53.5t-65.5 19.5t-65.5 -18.5t-25.5 -50.5
q0 -34 23 -51.5t66 -32.5zM151 389q48 0 74 20.5t26 57.5q0 59 -99 90l-9 3q-21 -7 -35 -13.5t-29.5 -17.5t-23.5 -26t-8 -34q0 -38 28 -59t76 -21z" />
    <glyph glyph-name="nine.sup" horiz-adv-x="311" 
d="M144 542q65 0 110 45q-6 145 -111 145q-46 0 -71 -27.5t-25 -68.5q0 -46 27.5 -70t69.5 -24zM119 369q-47 0 -77 18v21l1 1q32 -19 75 -19q136 0 136 179q-44 -46 -115 -46q-50 0 -83.5 29.5t-33.5 83.5q0 48 32.5 82t87.5 34q68 0 102.5 -46t34.5 -133
q0 -103 -41.5 -153.5t-118.5 -50.5z" />
    <glyph glyph-name="plus.sup" horiz-adv-x="327" 
d="M153 422v127h-117v22h117v127h21v-127h117v-22h-117v-127h-21z" />
    <glyph glyph-name="minus.sup" horiz-adv-x="327" 
d="M36 549v22h255v-22h-255z" />
    <glyph glyph-name="IJ.alt" horiz-adv-x="532" 
d="M81 0v705h29v-705h-29zM295 -4q-55 0 -95 19v24l2 1q40 -19 90 -19q140 0 140 158v526h28v-528q0 -94 -44 -137.5t-121 -43.5z" />
    <glyph glyph-name="Jcircumflex.alt" horiz-adv-x="354" 
d="M269 867l-104 -102h-28l118 124h28l118 -124h-28zM118 -4q-55 0 -95 19v24l2 1q40 -19 90 -19q140 0 140 158v526h28v-528q0 -94 -44 -137.5t-121 -43.5z" />
    <glyph glyph-name="Kcommaaccent.alt" horiz-adv-x="528" 
d="M244 -174l17 124h30v-2l-24 -122h-23zM79 0v705h28v-705h-28zM505 0h-32l-341 366l320 339h31v-2l-316 -335l338 -366v-2z" />
    <glyph glyph-name="Wacute.alt" horiz-adv-x="859" 
d="M440 765h-27l106 135h33zM632 -6l-202 645l-202 -645h-7l-204 709v2h29l181 -639l200 644h6l202 -639l179 634h28v-2l-203 -709h-7z" />
    <glyph glyph-name="Wcircumflex.alt" horiz-adv-x="859" 
d="M430 867l-104 -102h-28l118 124h28l118 -124h-28zM632 -6l-202 645l-202 -645h-7l-204 709v2h29l181 -639l200 644h6l202 -639l179 634h28v-2l-203 -709h-7z" />
    <glyph glyph-name="Wdieresis.alt" horiz-adv-x="859" 
d="M500 779v45h31v-45h-31zM329 779v45h31v-45h-31zM632 -6l-202 645l-202 -645h-7l-204 709v2h29l181 -639l200 644h6l202 -639l179 634h28v-2l-203 -709h-7z" />
    <glyph glyph-name="Wgrave.alt" horiz-adv-x="859" 
d="M421 765l-112 135h33l106 -135h-27zM632 -6l-202 645l-202 -645h-7l-204 709v2h29l181 -639l200 644h6l202 -639l179 634h28v-2l-203 -709h-7z" />
    <glyph glyph-name="aacute.alt" horiz-adv-x="555" 
d="M402 727l-92 -125h-25l87 125h30zM267 16q123 0 195 101v282q-63 105 -188 105q-90 0 -151.5 -67t-61.5 -182q0 -114 59 -176.5t147 -62.5zM468 0l-5 93q-72 -101 -198 -101q-100 0 -165.5 69.5t-65.5 193.5t68.5 198.5t170.5 74.5q125 0 190 -104l3 96h24v-520h-22z" />
    <glyph glyph-name="abreve.alt" horiz-adv-x="555" 
d="M317 596q-53 0 -82.5 31t-28.5 81h20q0 -41 22.5 -66.5t68.5 -25.5t69.5 25.5t23.5 66.5h20q1 -50 -29 -81t-84 -31zM267 16q123 0 195 101v282q-63 105 -188 105q-90 0 -151.5 -67t-61.5 -182q0 -114 59 -176.5t147 -62.5zM468 0l-5 93q-72 -101 -198 -101
q-100 0 -165.5 69.5t-65.5 193.5t68.5 198.5t170.5 74.5q125 0 190 -104l3 96h24v-520h-22z" />
    <glyph glyph-name="acircumflex.alt" horiz-adv-x="555" 
d="M300 695l-86 -103h-27l101 125h26l101 -125h-27zM267 16q123 0 195 101v282q-63 105 -188 105q-90 0 -151.5 -67t-61.5 -182q0 -114 59 -176.5t147 -62.5zM468 0l-5 93q-72 -101 -198 -101q-100 0 -165.5 69.5t-65.5 193.5t68.5 198.5t170.5 74.5q125 0 190 -104l3 96h24
v-520h-22z" />
    <glyph glyph-name="adieresis.alt" horiz-adv-x="555" 
d="M198 634v44h30v-44h-30zM344 634v44h30v-44h-30zM267 16q123 0 195 101v282q-63 105 -188 105q-90 0 -151.5 -67t-61.5 -182q0 -114 59 -176.5t147 -62.5zM468 0l-5 93q-72 -101 -198 -101q-100 0 -165.5 69.5t-65.5 193.5t68.5 198.5t170.5 74.5q125 0 190 -104l3 96h24
v-520h-22z" />
    <glyph glyph-name="agrave.alt" horiz-adv-x="555" 
d="M314 602l-92 125h30l87 -125h-25zM267 16q123 0 195 101v282q-63 105 -188 105q-90 0 -151.5 -67t-61.5 -182q0 -114 59 -176.5t147 -62.5zM468 0l-5 93q-72 -101 -198 -101q-100 0 -165.5 69.5t-65.5 193.5t68.5 198.5t170.5 74.5q125 0 190 -104l3 96h24v-520h-22z" />
    <glyph glyph-name="amacron.alt" horiz-adv-x="555" 
d="M267 16q123 0 195 101v282q-63 105 -188 105q-90 0 -151.5 -67t-61.5 -182q0 -114 59 -176.5t147 -62.5zM468 0l-5 93q-72 -101 -198 -101q-100 0 -165.5 69.5t-65.5 193.5t68.5 198.5t170.5 74.5q125 0 190 -104l3 96h24v-520h-22zM168 645v24h236v-24h-236z" />
    <glyph glyph-name="aogonek.alt" horiz-adv-x="555" 
d="M267 16q123 0 195 101v282q-63 105 -188 105q-90 0 -151.5 -67t-61.5 -182q0 -114 59 -176.5t147 -62.5zM530 -181v-22q-23 -15 -61 -15q-48 0 -74.5 24t-26.5 63q0 74 100 140l-5 84q-72 -101 -198 -101q-100 0 -165.5 69.5t-65.5 193.5t68.5 198.5t170.5 74.5
q125 0 190 -104l3 96h24v-520q-94 -66 -94 -127q0 -32 19 -50t56 -18q31 0 58 15z" />
    <glyph glyph-name="aring.alt" horiz-adv-x="555" 
d="M286 586q-39 0 -64.5 26t-25.5 65t25 64.5t65 25.5t65 -25.5t25 -64.5t-25.5 -65t-64.5 -26zM286 748q-30 0 -49.5 -19.5t-19.5 -51.5t19.5 -51.5t49.5 -19.5q31 0 50 19.5t19 51.5t-19 51.5t-50 19.5zM267 16q123 0 195 101v282q-63 105 -188 105q-90 0 -151.5 -67
t-61.5 -182q0 -114 59 -176.5t147 -62.5zM468 0l-5 93q-72 -101 -198 -101q-100 0 -165.5 69.5t-65.5 193.5t68.5 198.5t170.5 74.5q125 0 190 -104l3 96h24v-520h-22z" />
    <glyph glyph-name="aringacute.alt" horiz-adv-x="555" 
d="M286 586q-39 0 -64.5 26t-25.5 65t25 64.5t65 25.5t65 -25.5t25 -64.5t-25.5 -65t-64.5 -26zM286 748q-30 0 -49.5 -19.5t-19.5 -51.5t19.5 -51.5t49.5 -19.5q31 0 50 19.5t19 51.5t-19 51.5t-50 19.5zM267 16q123 0 195 101v282q-63 105 -188 105q-90 0 -151.5 -67
t-61.5 -182q0 -114 59 -176.5t147 -62.5zM468 0l-5 93q-72 -101 -198 -101q-100 0 -165.5 69.5t-65.5 193.5t68.5 198.5t170.5 74.5q125 0 190 -104l3 96h24v-520h-22zM297 800h-27l106 135h33z" />
    <glyph glyph-name="atilde.alt" horiz-adv-x="555" 
d="M354 633q30 -1 53 37q1 -3 4.5 -10t5.5 -12q-24 -40 -64 -39q-18 2 -52 23q-3 2 -9.5 6.5t-10.5 7t-10 5t-11 2.5q-29 0 -54 -44q-1 3 -4.5 11.5t-4.5 13.5q30 43 64 42q16 -2 49 -22q31 -21 44 -21zM267 16q123 0 195 101v282q-63 105 -188 105q-90 0 -151.5 -67
t-61.5 -182q0 -114 59 -176.5t147 -62.5zM468 0l-5 93q-72 -101 -198 -101q-100 0 -165.5 69.5t-65.5 193.5t68.5 198.5t170.5 74.5q125 0 190 -104l3 96h24v-520h-22z" />
    <glyph glyph-name="gbreve.alt" horiz-adv-x="561" 
d="M269 16q130 0 200 103v278q-65 107 -193 107q-92 0 -153.5 -67t-61.5 -182t58.5 -177t149.5 -62zM268 -217q-110 0 -189 42v24l2 2q81 -43 185 -43q88 0 145.5 41.5t57.5 131.5v112q-33 -47 -85.5 -74t-116.5 -27q-102 0 -167.5 69.5t-65.5 193.5q0 125 68 199t173 74
q131 0 195 -103l2 95h25v-538q0 -104 -66 -151.5t-163 -47.5zM285 604q-55 0 -89 33.5t-38 84.5h24q6 -42 32 -68t71 -26t71 26t32 68h24q-4 -51 -38 -84.5t-89 -33.5z" />
    <glyph glyph-name="gcircumflex.alt" horiz-adv-x="561" 
d="M285 709l-103 -111h-27l116 133h28l116 -133h-27zM269 16q130 0 200 103v278q-65 107 -193 107q-92 0 -153.5 -67t-61.5 -182t58.5 -177t149.5 -62zM268 -217q-110 0 -189 42v24l2 2q81 -43 185 -43q88 0 145.5 41.5t57.5 131.5v112q-33 -47 -85.5 -74t-116.5 -27
q-102 0 -167.5 69.5t-65.5 193.5q0 125 68 199t173 74q131 0 195 -103l2 95h25v-538q0 -104 -66 -151.5t-163 -47.5z" />
    <glyph glyph-name="gcommaaccent.alt" horiz-adv-x="561" 
d="M313 730l-17 -124h-30v2l24 122h23zM269 16q130 0 200 103v278q-65 107 -193 107q-92 0 -153.5 -67t-61.5 -182t58.5 -177t149.5 -62zM268 -217q-110 0 -189 42v24l2 2q81 -43 185 -43q88 0 145.5 41.5t57.5 131.5v112q-33 -47 -85.5 -74t-116.5 -27q-102 0 -167.5 69.5
t-65.5 193.5q0 125 68 199t173 74q131 0 195 -103l2 95h25v-538q0 -104 -66 -151.5t-163 -47.5z" />
    <glyph glyph-name="gdotaccent.alt" horiz-adv-x="561" 
d="M269 16q130 0 200 103v278q-65 107 -193 107q-92 0 -153.5 -67t-61.5 -182t58.5 -177t149.5 -62zM268 -217q-110 0 -189 42v24l2 2q81 -43 185 -43q88 0 145.5 41.5t57.5 131.5v112q-33 -47 -85.5 -74t-116.5 -27q-102 0 -167.5 69.5t-65.5 193.5q0 125 68 199t173 74
q131 0 195 -103l2 95h25v-538q0 -104 -66 -151.5t-163 -47.5zM270 632v48h32v-48h-32z" />
    <glyph glyph-name="germandbls.alt" horiz-adv-x="504" 
d="M178 18v24l2 2q54 -26 113 -26q69 0 111 43.5t42 126.5q0 162 -216 231v20q69 13 113.5 52t44.5 101q0 57 -38 90.5t-102 33.5q-69 0 -112 -41t-43 -129v-546h-28v546q0 101 51.5 147.5t131.5 46.5q75 0 121 -40.5t46 -106.5q0 -64 -42.5 -106t-108.5 -57
q37 -12 70.5 -30.5t67 -47t53 -71t19.5 -93.5q0 -93 -49 -144t-129 -51q-64 0 -118 25z" />
    <glyph glyph-name="kcommaaccent.alt" horiz-adv-x="434" 
d="M201 -174l17 124h30v-2l-24 -122h-23zM65 0v730l28 7v-737h-28zM413 0h-32l-265 272l246 248h30v-2l-242 -245l263 -271v-2z" />
    <glyph glyph-name="kcommaaccent.alt1" horiz-adv-x="459" 
d="M201 -174l17 124h30v-2l-24 -122h-23zM280 503q-99 0 -187 -94v-409h-28v730l28 7v-305q34 39 84 67t107 28q66 0 101.5 -36t35.5 -92q0 -65 -49 -113t-147 -69l199 -215v-2h-31l-207 220v6q102 20 154.5 65.5t52.5 105.5q0 48 -28.5 77t-84.5 29z" />
    <glyph glyph-name="lacute.alt" horiz-adv-x="195" 
d="M133 -3q-65 0 -65 69v664l28 7v-670q0 -46 40 -46q23 0 42 8l1 -1v-23q-24 -8 -46 -8zM96 779h-27l106 135h33z" />
    <glyph glyph-name="lcaron.alt" horiz-adv-x="195" 
d="M133 -3q-65 0 -65 69v664l28 7v-670q0 -46 40 -46q23 0 42 8l1 -1v-23q-24 -8 -46 -8zM145 581l10 152h28v-3l-17 -149h-21z" />
    <glyph glyph-name="lcommaaccent.alt" horiz-adv-x="195" 
d="M93 -174l17 124h30v-2l-24 -122h-23zM133 -3q-65 0 -65 69v664l28 7v-670q0 -46 40 -46q23 0 42 8l1 -1v-23q-24 -8 -46 -8z" />
    <glyph glyph-name="ldot.alt" horiz-adv-x="219" 
d="M133 -3q-65 0 -65 69v664l28 7v-670q0 -46 40 -46q23 0 42 8l1 -1v-23q-24 -8 -46 -8zM179 358v48h30v-48h-30z" />
    <glyph glyph-name="lslash.alt" horiz-adv-x="206" 
d="M145 -3q-65 0 -65 69v363l-70 -44v26l70 44v275l28 7v-265l80 50v-26l-80 -50v-379q0 -46 40 -46q23 0 42 8l1 -1v-23q-24 -8 -46 -8z" />
    <glyph glyph-name="tbar.alt" horiz-adv-x="294" 
d="M266 339h-122v-339h-28v339h-89v21h89v137h-89v23h89v114l28 4v-118h122v-23h-122v-137h122v-21z" />
    <glyph glyph-name="tcaron.alt" horiz-adv-x="294" 
d="M266 497h-122v-497h-28v497h-89v23h89v114l28 4v-118h122v-23zM211 581l10 152h28v-3l-17 -149h-21z" />
    <glyph glyph-name="tcommaaccent.alt" horiz-adv-x="294" 
d="M99 -174l17 124h30v-2l-24 -122h-23zM266 497h-122v-497h-28v497h-89v23h89v114l28 4v-118h122v-23z" />
    <glyph glyph-name="yacute.alt" horiz-adv-x="469" 
d="M331 727l-92 -125h-25l87 125h30zM161 -210h-29v2l93 228l-215 498v2h29l201 -471l191 471h28v-2z" />
    <glyph glyph-name="yacute.alt1" horiz-adv-x="510" 
d="M354 727l-92 -125h-25l87 125h30zM238 -217q-98 0 -173 42v24l1 2q77 -43 170 -43q80 0 131 37t51 121v108q-90 -81 -190 -81q-80 0 -124.5 40t-44.5 120v367h28v-362q0 -141 146 -141q99 0 185 79v424h27v-553q0 -67 -31.5 -110t-75.5 -58.5t-100 -15.5z" />
    <glyph glyph-name="ycircumflex.alt" horiz-adv-x="469" 
d="M240 709l-103 -111h-27l116 133h28l116 -133h-27zM161 -210h-29v2l93 228l-215 498v2h29l201 -471l191 471h28v-2z" />
    <glyph glyph-name="ycircumflex.alt1" horiz-adv-x="510" 
d="M254 709l-103 -111h-27l116 133h28l116 -133h-27zM238 -217q-98 0 -173 42v24l1 2q77 -43 170 -43q80 0 131 37t51 121v108q-90 -81 -190 -81q-80 0 -124.5 40t-44.5 120v367h28v-362q0 -141 146 -141q99 0 185 79v424h27v-553q0 -67 -31.5 -110t-75.5 -58.5t-100 -15.5z
" />
    <glyph glyph-name="ydieresis.alt" horiz-adv-x="469" 
d="M152 634v44h30v-44h-30zM298 634v44h30v-44h-30zM161 -210h-29v2l93 228l-215 498v2h29l201 -471l191 471h28v-2z" />
    <glyph glyph-name="ydieresis.alt1" horiz-adv-x="510" 
d="M166 634v44h30v-44h-30zM312 634v44h30v-44h-30zM238 -217q-98 0 -173 42v24l1 2q77 -43 170 -43q80 0 131 37t51 121v108q-90 -81 -190 -81q-80 0 -124.5 40t-44.5 120v367h28v-362q0 -141 146 -141q99 0 185 79v424h27v-553q0 -67 -31.5 -110t-75.5 -58.5t-100 -15.5z
" />
    <glyph glyph-name="ygrave.alt" horiz-adv-x="469" 
d="M247 602l-92 125h30l87 -125h-25zM161 -210h-29v2l93 228l-215 498v2h29l201 -471l191 471h28v-2z" />
    <glyph glyph-name="ygrave.alt1" horiz-adv-x="510" 
d="M252 602l-92 125h30l87 -125h-25zM238 -217q-98 0 -173 42v24l1 2q77 -43 170 -43q80 0 131 37t51 121v108q-90 -81 -190 -81q-80 0 -124.5 40t-44.5 120v367h28v-362q0 -141 146 -141q99 0 185 79v424h27v-553q0 -67 -31.5 -110t-75.5 -58.5t-100 -15.5z" />
    <glyph glyph-name="space_uni0326.alt" horiz-adv-x="400" 
d="M225 730l-17 -124h-30v2l24 122h23z" />
    <glyph glyph-name="ordfeminine.alt" horiz-adv-x="463" 
d="M223 273q100 0 158 82v230q-52 86 -152 86q-73 0 -123.5 -55.5t-50.5 -148.5t48.5 -143.5t119.5 -50.5zM386 257l-4 76q-57 -83 -162 -83q-82 0 -136.5 57.5t-54.5 159.5t57 164.5t141 62.5q102 1 155 -84l2 77h24v-430h-22z" />
    <glyph glyph-name="asterisk.alt" horiz-adv-x="351" 
d="M261 431l-85 123l-86 -123l-19 15l90 117l-128 41l8 23l126 -49l-4 148h25l-4 -148l127 49l7 -23l-129 -41l91 -117z" />
    <glyph glyph-name="registered.alt" horiz-adv-x="801" 
d="M41 352q0 159 103 262t257 103t257 -103t103 -262q0 -158 -103 -261t-257 -103t-257 103t-103 261zM740 352q0 150 -97 248.5t-242 98.5t-242 -98.5t-97 -248.5q0 -149 97 -247.5t242 -98.5t242 98.5t97 247.5zM398 527h-88v-172h100q40 0 66 23t26 64t-27.5 63t-76.5 22
zM519 164l-111 171h-98v-171h-25v383h112q129 0 129 -105q0 -92 -93 -104l112 -172v-2h-26z" />
    <glyph glyph-name="caron.alt" horiz-adv-x="400" 
d="M182 581l10 152h28v-3l-17 -149h-21z" />
    <glyph glyph-name="dollar.uc" horiz-adv-x="528" 
d="M228 395l25 -8l34 299q-9 1 -29 1q-76 0 -126 -37.5t-50 -105.5q0 -57 36 -90.5t110 -58.5zM261 21q86 0 141 44.5t55 118.5q0 65 -42.5 100t-127.5 63l-14 5l-41 -330q11 -1 29 -1zM261 -4q-21 0 -32 1l-16 -130h-24l16 133q-100 13 -168 63v29l2 1q66 -53 170 -69
l41 335l-33 11q-80 26 -121.5 66.5t-41.5 105.5q0 80 59.5 125t144.5 45q21 0 32 -1l10 92h24l-11 -94q73 -9 135 -47v-26l-2 -1q-64 40 -135 49l-35 -304l22 -7q45 -15 75 -29t57.5 -35.5t41.5 -52t14 -70.5q0 -87 -63.5 -138.5t-161.5 -51.5z" />
    <glyph glyph-name="Euro.uc" horiz-adv-x="584" 
d="M546 69v-28q-75 -48 -173 -48q-123 0 -198.5 78.5t-90.5 219.5h-63v21h62q-2 30 -2 45q0 14 2 44h-62v21h64q16 136 95 213t198 77q97 0 158 -38v-25l-2 -2q-67 40 -155 40q-107 0 -178.5 -70t-85.5 -195h276v-21h-278q-2 -30 -2 -44q0 -15 2 -45h278v-21h-277
q14 -131 81.5 -202t177.5 -71q104 0 171 52z" />
    <glyph glyph-name="sterling.uc" horiz-adv-x="537" 
d="M510 24v-24h-482v10q64 57 87 102.5t39 127.5l15 83h-91v22h94l34 192q17 98 59 136.5t110 38.5q73 0 127 -29v-26l-2 -1q-55 31 -125 31q-56 0 -90.5 -32.5t-49.5 -118.5l-34 -191h197v-22h-201l-14 -78q-14 -84 -33.5 -127.5t-76.5 -93.5h437z" />
    <glyph glyph-name="yen.uc" horiz-adv-x="538" 
d="M475 176h-192v-176h-28v176h-189v21h189v106h-189v21h186l-226 379v2h30l213 -362l214 362h29v-2l-224 -379h187v-21h-192v-106h192v-21z" />
    <glyph glyph-name="zero.uc" horiz-adv-x="619" 
d="M310 -7q-118 0 -195 98.5t-77 263.5t76.5 260.5t195.5 95.5t195 -95.5t76 -260.5q0 -166 -76 -264t-195 -98zM310 19q106 0 173 90.5t67 245.5t-66.5 242.5t-173.5 87.5q-106 0 -174 -88t-68 -242q0 -155 68.5 -245.5t173.5 -90.5z" />
    <glyph glyph-name="one.uc" horiz-adv-x="304" 
d="M210 0h-30v669l-156 -95l-2 2v26l178 107h10v-709z" />
    <glyph glyph-name="two.uc" horiz-adv-x="488" 
d="M24 0v10l254 265q137 142 137 254q0 73 -48 115t-134 42q-98 0 -179 -50l-1 2v26q77 47 181 47q95 0 152 -48t57 -134q0 -124 -146 -272l-224 -233h379v-24h-428z" />
    <glyph glyph-name="three.uc" horiz-adv-x="499" 
d="M224 -7q-109 0 -193 49v28l2 1q80 -53 191 -53q96 0 152.5 49.5t56.5 129.5q0 75 -55 119t-145 44h-92v25h95q75 0 122 42.5t47 111.5q0 70 -50 108.5t-132 38.5q-99 0 -166 -44l-2 1v26q71 42 169 42q93 0 151 -45t58 -127q0 -64 -37 -107t-96 -58q72 -12 116.5 -58
t44.5 -118q0 -94 -63.5 -149.5t-173.5 -55.5z" />
    <glyph glyph-name="four.uc" horiz-adv-x="538" 
d="M381 208v441l-328 -441h328zM519 184h-109v-184h-29v184h-366v12l380 514h15v-502h109v-24z" />
    <glyph glyph-name="five.uc" horiz-adv-x="493" 
d="M209 -7q-99 0 -181 44v27l1 1q82 -47 180 -47q99 0 158 53t59 141q0 87 -56.5 136t-153.5 49q-71 0 -157 -28l-2 2v334h359v-24h-333v-282q63 22 137 22q106 0 170.5 -56.5t64.5 -151.5q0 -99 -67.5 -159.5t-178.5 -60.5z" />
    <glyph glyph-name="six.uc" horiz-adv-x="554" 
d="M521 210q0 -91 -58.5 -154t-164.5 -63q-128 0 -193.5 88t-65.5 252q0 180 87 279t218 99q77 0 138 -33v-27l-2 -1q-58 36 -136 36q-121 0 -198.5 -91.5t-77.5 -260.5v-3q88 88 225 88q96 0 162 -54t66 -155zM298 18q92 0 143 56t51 136q0 90 -58.5 137.5t-145.5 47.5
q-131 0 -219 -88q4 -138 61.5 -213.5t167.5 -75.5z" />
    <glyph glyph-name="seven.uc" horiz-adv-x="490" 
d="M164 0h-30q34 168 176 436l129 245h-422v24h458v-11l-139 -267q-143 -275 -172 -427z" />
    <glyph glyph-name="eight.uc" horiz-adv-x="533" 
d="M273 -7q-107 0 -173.5 50.5t-66.5 134.5q0 38 16.5 69.5t46.5 54t61 37.5t71 29q-78 26 -125 67.5t-47 111.5q0 74 59.5 119t150.5 45q93 0 152.5 -45.5t59.5 -125.5q0 -62 -46.5 -103t-123.5 -69q192 -63 192 -192q0 -87 -58.5 -135t-168.5 -48zM259 384l20 -6
q79 28 124.5 65.5t45.5 96.5q0 68 -50.5 107.5t-132.5 39.5q-80 0 -131.5 -37.5t-51.5 -102.5q0 -63 48 -101t128 -62zM273 18q96 0 147.5 41.5t51.5 115.5q0 116 -194 176l-19 6q-41 -13 -71 -26t-61 -34t-47.5 -51t-16.5 -67q0 -75 56.5 -118t153.5 -43z" />
    <glyph glyph-name="nine.uc" horiz-adv-x="554" 
d="M265 308q129 0 220 87q-5 138 -61.5 214.5t-162.5 76.5q-95 0 -147 -55.5t-52 -135.5q0 -91 58 -139t145 -48zM215 -7q-92 0 -145 33v27l1 1q58 -36 144 -36q126 0 198 89.5t72 264.5q-88 -88 -224 -88q-97 0 -162.5 54t-65.5 157q0 90 59.5 153t168.5 63
q124 0 188.5 -88.5t64.5 -248.5q0 -188 -81 -284.5t-218 -96.5z" />
    <glyph glyph-name="percent.uc" horiz-adv-x="804" 
d="M30 544q0 73 45 120.5t115 47.5q71 0 116 -47t45 -121q0 -76 -44.5 -123t-116.5 -47q-70 0 -115 47t-45 123zM140 0l498 705h27l-498 -705h-27zM190 396q62 0 98.5 40.5t36.5 107.5q0 64 -37 105t-98 41q-60 0 -97.5 -41t-37.5 -105q0 -66 37.5 -107t97.5 -41zM614 331
q72 0 116 -46.5t44 -120.5q0 -76 -44 -123.5t-116 -47.5q-71 0 -116 47.5t-45 123.5q0 74 45 120.5t116 46.5zM614 16q62 0 98.5 40.5t36.5 107.5q0 63 -37 104t-98 41t-98.5 -41t-37.5 -104q0 -66 37 -107t99 -41z" />
    <glyph glyph-name="perthousand.uc" horiz-adv-x="1173" 
d="M190 374q-70 0 -115 47t-45 123q0 73 45 120.5t115 47.5q71 0 116 -47t45 -121q0 -76 -44.5 -123t-116.5 -47zM141 0l494 705h28l-495 -705h-27zM190 396q62 0 98.5 40.5t36.5 107.5q0 64 -37 105t-98 41q-60 0 -97.5 -41t-37.5 -105q0 -66 37.5 -107t97.5 -41zM983 -7
q-70 0 -115.5 48t-45.5 123q0 73 45.5 120t115.5 47q72 0 116 -46.5t44 -120.5q0 -76 -44 -123.5t-116 -47.5zM983 16q62 0 98.5 40.5t36.5 107.5q0 63 -37 104t-98 41q-60 0 -97.5 -41t-37.5 -104q0 -66 37.5 -107t97.5 -41zM612 -7q-70 0 -115.5 48t-45.5 123
q0 73 45.5 120t115.5 47q72 0 116 -46.5t44 -120.5q0 -76 -44 -123.5t-116 -47.5zM612 16q62 0 98.5 40.5t36.5 107.5q0 63 -37 104t-98 41q-60 0 -97.5 -41t-37.5 -104q0 -66 37.5 -107t97.5 -41z" />
    <glyph glyph-name="questiondown.uc" horiz-adv-x="425" 
d="M259 705v-48h-33v48h33zM385 71v-26q-67 -52 -159 -52q-76 0 -124.5 44t-48.5 121q0 61 23 101t78 92q39 36 57.5 70t18.5 88v28h26v-28q0 -60 -20 -97t-64 -81q-50 -46 -70.5 -82t-20.5 -91q0 -65 40 -102.5t106 -37.5q83 0 156 54z" />
    <glyph glyph-name="exclamdown.uc" horiz-adv-x="190" 
d="M111 705v-48h-32v48h32zM105 537l4 -537h-29l4 537h21z" />
    <glyph glyph-name="hyphen.uc" horiz-adv-x="259" 
d="M36 312v26h187v-26h-187z" />
    <glyph glyph-name="endash.uc" horiz-adv-x="429" 
d="M31 313v24h366v-24h-366z" />
    <glyph glyph-name="emdash.uc" horiz-adv-x="829" 
d="M31 313v24h766v-24h-766z" />
    <glyph glyph-name="guilsinglleft.uc" horiz-adv-x="210" 
d="M148 104l-129 186l129 186h29l-128 -186l128 -186h-29z" />
    <glyph glyph-name="guilsinglright.uc" horiz-adv-x="210" 
d="M33 104l128 186l-128 186h29l129 -186l-129 -186h-29z" />
    <glyph glyph-name="guillemotleft.uc" horiz-adv-x="349" 
d="M288 104l-130 186l130 186h29l-129 -186l129 -186h-29zM148 104l-129 186l129 186h29l-128 -186l128 -186h-29z" />
    <glyph glyph-name="guillemotright.uc" horiz-adv-x="349" 
d="M172 104l129 186l-129 186h29l129 -186l-129 -186h-29zM33 104l128 186l-128 186h29l129 -186l-129 -186h-29z" />
    <glyph glyph-name="parenleft.uc" horiz-adv-x="285" 
d="M252 -100h-28q-165 188 -165 438q0 248 165 436h28q-165 -192 -165 -436q0 -246 165 -438z" />
    <glyph glyph-name="parenright.uc" horiz-adv-x="285" 
d="M61 -100h-29q166 191 166 438q0 245 -166 436h29q165 -188 165 -436q0 -250 -165 -438z" />
    <glyph glyph-name="bracketleft.uc" horiz-adv-x="339" 
d="M95 -100v874h197v-23h-170v-828h170v-23h-197z" />
    <glyph glyph-name="bracketright.uc" horiz-adv-x="339" 
d="M47 -100v23h169v828h-169v23h197v-874h-197z" />
    <glyph glyph-name="braceleft.uc" horiz-adv-x="360" 
d="M314 -77v-23q-102 0 -148.5 41t-23.5 140l29 129q13 59 -15 87t-109 28v23q82 1 110.5 29t13.5 86l-29 131q-23 98 23.5 139t148.5 41v-23q-90 0 -127.5 -35t-16.5 -123l29 -129q13 -55 -5 -86t-73 -42q54 -11 72 -41t6 -85l-29 -128q-21 -90 16 -124.5t128 -34.5z" />
    <glyph glyph-name="braceright.uc" horiz-adv-x="360" 
d="M47 -100v23q90 0 127.5 35t16.5 124l-30 127q-12 55 6 85.5t72 41.5q-55 11 -73 42t-5 86l30 129q19 88 -17.5 123t-126.5 35v23q101 0 147.5 -40.5t23.5 -139.5l-29 -131q-15 -59 13.5 -86.5t110.5 -28.5v-23q-81 0 -109 -28t-15 -87l29 -129q23 -99 -23 -140t-148 -41z
" />
    <glyph glyph-name="slash.uc" horiz-adv-x="380" 
d="M28 -100l284 874h27l-283 -874h-28z" />
    <glyph glyph-name="backslash.uc" horiz-adv-x="380" 
d="M39 774h28l283 -874h-27z" />
    <glyph glyph-name="bar.uc" horiz-adv-x="200" 
d="M87 -100v874h26v-874h-26z" />
    <glyph glyph-name="at.uc" horiz-adv-x="878" 
d="M455 -110q-194 0 -305 109.5t-111 278.5q0 196 120 316t305 120q171 0 273.5 -105t102.5 -273q0 -115 -54 -178t-125 -63q-101 0 -105 94q-58 -99 -158 -99q-76 0 -117.5 49t-41.5 131q0 106 57.5 175.5t148.5 69.5q94 0 140 -92l10 75h28l-36 -281q-14 -101 78 -101
q58 0 105 58t47 162q0 160 -96.5 258.5t-257.5 98.5q-171 0 -285.5 -115t-114.5 -301q0 -159 105 -262.5t288 -103.5q118 0 205 45l2 -1v-22q-88 -43 -208 -43zM401 114q98 0 158 106l23 175q-47 96 -137 96q-80 0 -129.5 -62t-49.5 -159q0 -73 35 -114.5t100 -41.5z" />
    <glyph glyph-name="grave.uc" horiz-adv-x="400" 
d="M211 765l-112 135h33l106 -135h-27z" />
    <glyph glyph-name="dieresis.uc" horiz-adv-x="400" 
d="M270 779v45h31v-45h-31zM99 779v45h31v-45h-31z" />
    <glyph glyph-name="macron.uc" horiz-adv-x="491" 
d="M123 786v24h244v-24h-244z" />
    <glyph glyph-name="acute.uc" horiz-adv-x="400" 
d="M189 765h-27l106 135h33z" />
    <glyph glyph-name="circumflex.uc" horiz-adv-x="400" 
d="M200 867l-104 -102h-28l118 124h28l118 -124h-28z" />
    <glyph glyph-name="caron.uc" horiz-adv-x="400" 
d="M200 786l105 103h27l-118 -124h-28l-118 124h27z" />
    <glyph glyph-name="breve.uc" horiz-adv-x="400" 
d="M200 766q-57 0 -91.5 33t-38.5 84h24q6 -41 33 -67.5t73 -26.5t73 26.5t33 67.5h24q-4 -51 -38.5 -84t-91.5 -33z" />
    <glyph glyph-name="dotaccent.uc" horiz-adv-x="400" 
d="M183 778v49h32v-49h-32z" />
    <glyph glyph-name="ring.uc" horiz-adv-x="400" 
d="M200 753q-39 0 -64.5 25.5t-25.5 64.5t25.5 65t64.5 26t64.5 -26t25.5 -65t-25.5 -64.5t-64.5 -25.5zM200 915q-30 0 -49.5 -20t-19.5 -52q0 -31 19.5 -51t49.5 -20q31 0 50 20t19 51q0 32 -19 52t-50 20z" />
    <glyph glyph-name="tilde.uc" horiz-adv-x="400" 
d="M262 812q40 0 71 39h2l10 -18q-37 -45 -82 -45q-29 0 -67.5 16.5t-60.5 16.5q-41 0 -72 -39l-2 1l-10 18q36 45 84 45q27 0 65.5 -17t61.5 -17z" />
    <glyph glyph-name="hungarumlaut.uc" horiz-adv-x="400" 
d="M131 765h-23l74 135h31zM252 765h-24l74 135h32q-2 0 -41 -68q-6 -9 -19.5 -31.5t-21.5 -35.5z" />
    <glyph glyph-name="A.flat" 
d="M468 237l-167 429l-168 -429h335zM561 0l-83 212h-355l-83 -212h-28v2l277 703h24l277 -703v-2h-29z" />
    <glyph glyph-name="Aacute.flat" 
d="M385 881l-92 -125h-25l87 125h30zM468 237l-167 429l-168 -429h335zM561 0l-83 212h-355l-83 -212h-28v2l277 703h24l277 -703v-2h-29z" />
    <glyph glyph-name="Abreve.flat" 
d="M301 756q-53 0 -82.5 31t-28.5 81h20q0 -41 22.5 -66.5t68.5 -25.5t69.5 25.5t23.5 66.5h20q1 -50 -29 -81t-84 -31zM468 237l-167 429l-168 -429h335zM561 0l-83 212h-355l-83 -212h-28v2l277 703h24l277 -703v-2h-29z" />
    <glyph glyph-name="Acircumflex.flat" 
d="M301 859l-86 -103h-27l101 125h26l101 -125h-27zM468 237l-167 429l-168 -429h335zM561 0l-83 212h-355l-83 -212h-28v2l277 703h24l277 -703v-2h-29z" />
    <glyph glyph-name="Adieresis.flat" 
d="M468 237l-167 429l-168 -429h335zM561 0l-83 212h-355l-83 -212h-28v2l277 703h24l277 -703v-2h-29zM371 779v45h31v-45h-31zM200 779v45h31v-45h-31z" />
    <glyph glyph-name="Agrave.flat" 
d="M309 756l-92 125h30l87 -125h-25zM468 237l-167 429l-168 -429h335zM561 0l-83 212h-355l-83 -212h-28v2l277 703h24l277 -703v-2h-29z" />
    <glyph glyph-name="Amacron.flat" 
d="M468 237l-167 429l-168 -429h335zM561 0l-83 212h-355l-83 -212h-28v2l277 703h24l277 -703v-2h-29zM180 786v24h244v-24h-244z" />
    <glyph glyph-name="Aogonek.flat" 
d="M567 -218q-47 0 -73.5 24t-26.5 63q0 74 93 135l-82 208h-355l-83 -212h-28v2l277 703h24l277 -703v-2q-96 -65 -96 -127q0 -32 19.5 -50t56.5 -18q32 0 57 15l2 -1v-22q-23 -15 -62 -15zM468 237l-168 429l-167 -429h335z" />
    <glyph glyph-name="Aring.flat" 
d="M468 237l-167 429l-168 -429h335zM561 0l-83 212h-355l-83 -212h-28v2l277 703h24l277 -703v-2h-29zM301 753q-39 0 -64.5 25.5t-25.5 64.5t25.5 65t64.5 26t64.5 -26t25.5 -65t-25.5 -64.5t-64.5 -25.5zM301 915q-30 0 -49.5 -20t-19.5 -52q0 -31 19.5 -51t49.5 -20
q31 0 50 20t19 51q0 32 -19 52t-50 20z" />
    <glyph glyph-name="Aringacute.flat" 
d="M468 237l-167 429l-168 -429h335zM561 0l-83 212h-355l-83 -212h-28v2l277 703h24l277 -703v-2h-29zM312 927h-27l106 135h33zM301 725q-39 0 -64.5 25.5t-25.5 64.5t25.5 65t64.5 26t64.5 -26t25.5 -65t-25.5 -64.5t-64.5 -25.5zM301 887q-30 0 -49.5 -20t-19.5 -52
q0 -31 19.5 -51t49.5 -20q31 0 50 20t19 51q0 32 -19 52t-50 20z" />
    <glyph glyph-name="Atilde.flat" 
d="M351 782q30 -1 53 37q1 -3 4.5 -10t5.5 -12q-24 -40 -64 -39q-18 2 -52 23q-3 2 -9.5 6.5t-10.5 7t-10 5t-11 2.5q-29 0 -54 -44q-1 3 -4.5 11.5t-4.5 13.5q30 43 64 42q16 -2 49 -22q31 -21 44 -21zM468 237l-167 429l-168 -429h335zM561 0l-83 212h-355l-83 -212h-28v2
l277 703h24l277 -703v-2h-29z" />
    <glyph glyph-name="Eng.flat" horiz-adv-x="667" 
d="M425 -165v25q62 15 93.5 48.5t38.5 97.5l-451 654v-660h-27v705h28l451 -654v34h1v620h27v-668q0 -93 -40 -139.5t-121 -62.5z" />
    <glyph glyph-name="M.flat" horiz-adv-x="765" 
d="M371 0l-265 662v-662h-27v705h38l265 -662l267 662h38v-705h-29v662l-267 -662h-20z" />
    <glyph glyph-name="M.flatalt" horiz-adv-x="815" 
d="M395 0l-249 642l-60 -642h-28l67 705h24l258 -663l257 663h23l70 -705h-29l-63 642l-249 -642h-21z" />
    <glyph glyph-name="N.flat" horiz-adv-x="665" 
d="M564 0l-458 660v-660h-27v705h28l452 -652v652h27v-705h-22z" />
    <glyph glyph-name="Nacute.flat" horiz-adv-x="665" 
d="M356 765h-27l106 135h33zM564 0l-458 660v-660h-27v705h28l452 -652v652h27v-705h-22z" />
    <glyph glyph-name="Ncaron.flat" horiz-adv-x="665" 
d="M346 786l105 103h27l-118 -124h-28l-118 124h27zM564 0l-458 660v-660h-27v705h28l452 -652v652h27v-705h-22z" />
    <glyph glyph-name="Ncommaaccent.flat" horiz-adv-x="665" 
d="M300 -174l17 124h30v-2l-24 -122h-23zM564 0l-458 660v-660h-27v705h28l452 -652v652h27v-705h-22z" />
    <glyph glyph-name="Ntilde.flat" horiz-adv-x="665" 
d="M410 812q40 0 71 39h2l10 -18q-37 -45 -82 -45q-29 0 -67.5 16.5t-60.5 16.5q-41 0 -72 -39l-2 1l-10 18q36 45 84 45q27 0 65.5 -17t61.5 -17zM564 0l-458 660v-660h-27v705h28l452 -652v652h27v-705h-22z" />
    <glyph glyph-name="V.flat" horiz-adv-x="593" 
d="M309 0h-25l-270 703v2h29l254 -664l254 664h28v-2z" />
    <glyph glyph-name="W.flat" horiz-adv-x="890" 
d="M610 0l-158 481l-172 -481h-24l-239 703v2h29l223 -661l170 473l-61 186v2h28l218 -661l220 661h29v-2l-238 -703h-25z" />
    <glyph glyph-name="W.flatalt" horiz-adv-x="860" 
d="M623 0l-192 652l-193 -652h-25l-195 703v2h29l179 -658l196 658h19l195 -656l179 656h28v-2l-195 -703h-25z" />
    <glyph glyph-name="Wacute.flat" horiz-adv-x="890" 
d="M411 765h-27l106 135h33zM610 0l-158 481l-172 -481h-24l-239 703v2h29l223 -661l170 473l-61 186v2h28l218 -661l220 661h29v-2l-238 -703h-25z" />
    <glyph glyph-name="Wacute.flatalt" horiz-adv-x="860" 
d="M441 765h-27l106 135h33zM623 0l-192 652l-193 -652h-25l-195 703v2h29l179 -658l196 658h19l195 -656l179 656h28v-2l-195 -703h-25z" />
    <glyph glyph-name="Wcircumflex.flat" horiz-adv-x="890" 
d="M401 867l-104 -102h-28l118 124h28l118 -124h-28zM610 0l-158 481l-172 -481h-24l-239 703v2h29l223 -661l170 473l-61 186v2h28l218 -661l220 661h29v-2l-238 -703h-25z" />
    <glyph glyph-name="Wcircumflex.flatalt" horiz-adv-x="860" 
d="M431 867l-104 -102h-28l118 124h28l118 -124h-28zM623 0l-192 652l-193 -652h-25l-195 703v2h29l179 -658l196 658h19l195 -656l179 656h28v-2l-195 -703h-25z" />
    <glyph glyph-name="Wdieresis.flat" horiz-adv-x="890" 
d="M471 779v45h31v-45h-31zM300 779v45h31v-45h-31zM610 0l-158 481l-172 -481h-24l-239 703v2h29l223 -661l170 473l-61 186v2h28l218 -661l220 661h29v-2l-238 -703h-25z" />
    <glyph glyph-name="Wdieresis.flatalt" horiz-adv-x="860" 
d="M623 0l-192 652l-193 -652h-25l-195 703v2h29l179 -658l196 658h19l195 -656l179 656h28v-2l-195 -703h-25zM501 779v45h31v-45h-31zM330 779v45h31v-45h-31z" />
    <glyph glyph-name="Wgrave.flat" horiz-adv-x="890" 
d="M392 765l-112 135h33l106 -135h-27zM610 0l-158 481l-172 -481h-24l-239 703v2h29l223 -661l170 473l-61 186v2h28l218 -661l220 661h29v-2l-238 -703h-25z" />
    <glyph glyph-name="Wgrave.flatalt" horiz-adv-x="860" 
d="M422 765l-112 135h33l106 -135h-27zM623 0l-192 652l-193 -652h-25l-195 703v2h29l179 -658l196 658h19l195 -656l179 656h28v-2l-195 -703h-25z" />
    <glyph glyph-name="Z.flat" horiz-adv-x="551" 
d="M520 0h-494v23l453 657h-423v25h455v-26l-450 -654h459v-25z" />
    <glyph glyph-name="Zacute.flat" horiz-adv-x="551" 
d="M290 765h-27l106 135h33zM520 0h-494v23l453 657h-423v25h455v-26l-450 -654h459v-25z" />
    <glyph glyph-name="Zcaron.flat" horiz-adv-x="551" 
d="M280 786l105 103h27l-118 -124h-28l-118 124h27zM520 0h-494v23l453 657h-423v25h455v-26l-450 -654h459v-25z" />
    <glyph glyph-name="Zdotaccent.flat" horiz-adv-x="551" 
d="M520 0h-494v23l453 657h-423v25h455v-26l-450 -654h459v-25zM265 778v49h32v-49h-32z" />
    <glyph glyph-name="four.denflat" horiz-adv-x="306" 
d="M206 118v225l-162 -225h162zM287 98h-57v-98h-24v98h-190v14l191 266h23v-260h57v-20z" />
    <glyph glyph-name="four.flat" horiz-adv-x="510" 
d="M361 208v438l-309 -438h309zM491 184h-102v-184h-28v184h-343v18l344 488h27v-482h102v-24z" />
    <glyph glyph-name="four.numflat" horiz-adv-x="306" 
d="M206 431v225l-162 -225h162zM287 411h-57v-98h-24v98h-190v14l191 266h23v-260h57v-20z" />
    <glyph glyph-name="four.subflat" horiz-adv-x="306" 
d="M206 28v225l-162 -225h162zM287 8h-57v-98h-24v98h-190v14l191 266h23v-260h57v-20z" />
    <glyph glyph-name="four.supflat" horiz-adv-x="306" 
d="M206 491v225l-162 -225h162zM287 471h-57v-98h-24v98h-190v14l191 266h23v-260h57v-20z" />
    <glyph glyph-name="four.ucflat" horiz-adv-x="541" 
d="M383 212v451l-331 -451h331zM521 188h-109v-188h-29v188h-364v18l364 499h29v-493h109v-24z" />
    <glyph glyph-name="one.denflat" horiz-adv-x="181" 
d="M120 0h-25v350l-84 -54l-2 1v22l92 59h19v-378z" />
    <glyph glyph-name="one.flat" horiz-adv-x="283" 
d="M191 0h-28v656l-140 -92l-2 1v26l151 99h19v-690z" />
    <glyph glyph-name="one.numflat" horiz-adv-x="181" 
d="M120 313h-25v350l-84 -54l-2 1v22l92 59h19v-378z" />
    <glyph glyph-name="one.subflat" horiz-adv-x="181" 
d="M120 -90h-25v350l-84 -54l-2 1v22l92 59h19v-378z" />
    <glyph glyph-name="one.supflat" horiz-adv-x="181" 
d="M120 373h-25v350l-84 -54l-2 1v22l92 59h19v-378z" />
    <glyph glyph-name="one.ucflat" horiz-adv-x="304" 
d="M210 0h-30v672l-156 -98l-2 2v26l167 103h21v-705z" />
    <glyph glyph-name="oneeighth.flat" horiz-adv-x="765" 
d="M600 -4q-60 0 -94.5 26.5t-34.5 72.5q0 67 99 99q-89 30 -89 97q0 41 32.5 64.5t82.5 23.5q52 0 84 -23.5t32 -67.5q0 -59 -86 -90q97 -35 97 -103q0 -48 -31.5 -73.5t-91.5 -25.5zM595 207l9 -3q84 32 84 83q0 34 -25.5 53.5t-65.5 19.5t-65.5 -18.5t-25.5 -50.5
q0 -34 23 -51.5t66 -32.5zM599 16q48 0 74 20.5t26 57.5q0 59 -99 90l-9 3q-21 -7 -35 -13.5t-29.5 -17.5t-23.5 -26t-8 -34q0 -38 28 -59t76 -21zM159 313h-25v350l-84 -54l-2 1v22l92 59h19v-378zM80 0l514 690h27l-514 -690h-27z" />
    <glyph glyph-name="onehalf.flat" horiz-adv-x="750" 
d="M475 0v15l128 133q35 39 53 68.5t18 62.5q0 79 -92 79q-52 0 -95 -29l-2 1v22q43 27 100 27q54 0 84 -25.5t30 -73.5q0 -38 -20 -71.5t-57 -72.5l-113 -116h195v-20h-229zM159 313h-25v350l-84 -54l-2 1v22l92 59h19v-378zM83 0l514 690h27l-514 -690h-27z" />
    <glyph glyph-name="onequarter.flat" horiz-adv-x="734" 
d="M159 313h-25v350l-84 -54l-2 1v22l92 59h19v-378zM83 0l514 690h27l-514 -690h-27zM617 118v225l-162 -225h162zM698 98h-57v-98h-24v98h-190v14l191 266h23v-260h57v-20z" />
    <glyph glyph-name="onethird.flat" horiz-adv-x="745" 
d="M569 -4q-57 0 -102 28v22l1 2q44 -31 99 -31q49 0 77 24.5t28 64.5q0 38 -27 60t-72 22h-50v19h51q37 0 60.5 21.5t23.5 57.5q0 35 -24.5 53.5t-66.5 18.5q-44 0 -88 -25l-1 1v21q37 24 92 24q51 0 82 -24t31 -68q0 -69 -70 -88q39 -7 61.5 -31.5t22.5 -62.5
q0 -49 -34.5 -79t-93.5 -30zM159 313h-25v350l-84 -54l-2 1v22l92 59h19v-378zM80 0l514 690h27l-514 -690h-27z" />
    <glyph glyph-name="seven.denflat" horiz-adv-x="272" 
d="M103 0h-27q19 92 91 232l61 122h-213v21h239v-18l-65 -130q-72 -140 -86 -227z" />
    <glyph glyph-name="seven.flat" horiz-adv-x="457" 
d="M153 0h-29q27 150 164 423l118 239h-390v24h420v-20l-123 -251q-129 -257 -160 -415z" />
    <glyph glyph-name="seven.numflat" horiz-adv-x="272" 
d="M103 313h-27q19 92 91 232l61 122h-213v21h239v-18l-65 -130q-72 -140 -86 -227z" />
    <glyph glyph-name="seven.subflat" horiz-adv-x="272" 
d="M103 -90h-27q19 92 91 232l61 122h-213v21h239v-18l-65 -130q-72 -140 -86 -227z" />
    <glyph glyph-name="seven.supflat" horiz-adv-x="272" 
d="M103 373h-27q19 92 91 232l61 122h-213v21h239v-18l-65 -130q-72 -140 -86 -227z" />
    <glyph glyph-name="seven.ucflat" horiz-adv-x="490" 
d="M164 0h-30q13 63 44 145.5t58 139.5t74 151l128 245h-421v24h452v-22l-133 -256q-143 -275 -172 -427z" />
    <glyph glyph-name="seveneighths.flat" horiz-adv-x="765" 
d="M600 -4q-60 0 -94.5 26.5t-34.5 72.5q0 67 99 99q-89 30 -89 97q0 41 32.5 64.5t82.5 23.5q52 0 84 -23.5t32 -67.5q0 -59 -86 -90q97 -35 97 -103q0 -48 -31.5 -73.5t-91.5 -25.5zM595 207l9 -3q84 32 84 83q0 34 -25.5 53.5t-65.5 19.5t-65.5 -18.5t-25.5 -50.5
q0 -34 23 -51.5t66 -32.5zM599 16q48 0 74 20.5t26 57.5q0 59 -99 90l-9 3q-21 -7 -35 -13.5t-29.5 -17.5t-23.5 -26t-8 -34q0 -38 28 -59t76 -21zM113 313h-27q19 92 91 232l61 122h-213v21h239v-18l-65 -130q-72 -140 -86 -227zM80 0l514 690h27l-514 -690h-27z" />
    <glyph glyph-name="sterling.flat" horiz-adv-x="501" 
d="M475 24v-24h-442v18q58 54 78 96.5t33 123.5l13 76h-83v22h87l31 186q15 95 54.5 132.5t103.5 37.5q67 0 117 -28v-26l-2 -1q-51 30 -115 30q-51 0 -84 -32t-46 -114l-31 -185h182v-22h-186l-13 -76q-13 -80 -31.5 -121.5t-71.5 -92.5h406z" />
    <glyph glyph-name="sterling.ucflat" horiz-adv-x="537" 
d="M510 24v-24h-476v18q63 55 83.5 98t36.5 129l14 78h-90v22h93l34 192q19 98 60 136.5t110 38.5q73 0 127 -29v-26l-2 -1q-55 31 -125 31q-56 0 -90.5 -32.5t-49.5 -118.5l-34 -191h197v-22h-201l-14 -78q-13 -82 -33.5 -125.5t-77.5 -95.5h438z" />
    <glyph glyph-name="threequarters.flat" horiz-adv-x="759" 
d="M642 118v225l-162 -225h162zM723 98h-57v-98h-24v98h-190v14l191 266h23v-260h57v-20zM109 0l514 690h27l-514 -690h-27zM130 309q-57 0 -102 28v22l1 2q44 -31 99 -31q49 0 77 24.5t28 64.5q0 38 -27 60t-72 22h-50v19h51q37 0 60.5 21.5t23.5 57.5q0 35 -24.5 53.5
t-66.5 18.5q-44 0 -88 -25l-1 1v21q37 24 92 24q51 0 82 -24t31 -68q0 -69 -70 -88q39 -7 61.5 -31.5t22.5 -62.5q0 -49 -34.5 -79t-93.5 -30z" />
    <glyph glyph-name="trademark.flat" horiz-adv-x="657" 
d="M252 667h-106v-301h-24v301h-106v21h236v-21zM447 366l-118 286v-286h-22v322h30l117 -287l117 287h30v-322h-23v286l-116 -286h-15z" />
    <glyph glyph-name="two.denflat" horiz-adv-x="277" 
d="M18 0v15l128 133q35 39 53 68.5t18 62.5q0 79 -92 79q-51 0 -95 -29l-2 1v22q43 27 100 27q54 0 84 -25.5t30 -73.5q0 -38 -20 -71.5t-57 -72.5l-113 -116h195v-20h-229z" />
    <glyph glyph-name="two.flat" horiz-adv-x="454" 
d="M29 0v17l230 250q61 68 93 126t32 121q0 72 -44 112.5t-123 40.5q-92 0 -166 -48l-2 1v26q70 46 169 46q88 0 141 -47t53 -131q0 -67 -35 -130t-100 -135l-207 -225h350v-24h-391z" />
    <glyph glyph-name="two.numflat" horiz-adv-x="277" 
d="M18 313v15l128 133q35 39 53 68.5t18 62.5q0 79 -92 79q-51 0 -95 -29l-2 1v22q43 27 100 27q54 0 84 -25.5t30 -73.5q0 -38 -20 -71.5t-57 -72.5l-113 -116h195v-20h-229z" />
    <glyph glyph-name="two.subflat" horiz-adv-x="277" 
d="M18 -90v15l128 133q35 39 53 68.5t18 62.5q0 79 -92 79q-51 0 -95 -29l-2 1v22q43 27 100 27q54 0 84 -25.5t30 -73.5q0 -38 -20 -71.5t-57 -72.5l-113 -116h195v-20h-229z" />
    <glyph glyph-name="two.supflat" horiz-adv-x="277" 
d="M18 373v15l128 133q35 39 53 68.5t18 62.5q0 79 -92 79q-51 0 -95 -29l-2 1v22q43 27 100 27q54 0 84 -25.5t30 -73.5q0 -38 -20 -71.5t-57 -72.5l-113 -116h195v-20h-229z" />
    <glyph glyph-name="two.ucflat" horiz-adv-x="487" 
d="M30 0v17l248 258q136 139 136 254q0 73 -48 115t-133 42q-98 0 -179 -50l-2 2v26q77 47 181 47q95 0 152.5 -48.5t57.5 -133.5q0 -124 -146 -272l-225 -233h380v-24h-422z" />
    <glyph glyph-name="twothirds.flat" horiz-adv-x="779" 
d="M604 -4q-57 0 -102 28v22l1 2q44 -31 99 -31q49 0 77 24.5t28 64.5q0 38 -27 60t-72 22h-50v19h51q37 0 60.5 21.5t23.5 57.5q0 35 -24.5 53.5t-66.5 18.5q-44 0 -88 -25l-1 1v21q37 24 92 24q51 0 82 -24t31 -68q0 -69 -70 -88q39 -7 61.5 -31.5t22.5 -62.5
q0 -49 -34.5 -79t-93.5 -30zM28 313v15l128 133q35 39 53 68.5t18 62.5q0 79 -92 79q-51 0 -95 -29l-2 1v22q43 27 100 27q54 0 84 -25.5t30 -73.5q0 -38 -20 -71.5t-57 -72.5l-113 -116h195v-20h-229zM115 0l514 690h27l-514 -690h-27z" />
    <glyph glyph-name="v.flat" horiz-adv-x="466" 
d="M243 0h-19l-214 517v3h28l196 -478l195 478h27v-2z" />
    <glyph glyph-name="w.flat" horiz-adv-x="700" 
d="M507 0l-158 473l-156 -473h-18l-160 518v2h28l143 -470l154 470h20l155 -470l143 470h27v-2l-161 -518h-17z" />
    <glyph glyph-name="wacute.flat" horiz-adv-x="700" 
d="M358 598h-27l108 164h33zM507 0l-158 473l-156 -473h-18l-160 518v2h28l143 -470l154 470h20l155 -470l143 470h27v-2l-161 -518h-17z" />
    <glyph glyph-name="wcircumflex.flat" horiz-adv-x="700" 
d="M350 709l-103 -111h-27l116 133h28l116 -133h-27zM507 0l-158 473l-156 -473h-18l-160 518v2h28l143 -470l154 470h20l155 -470l143 470h27v-2l-161 -518h-17z" />
    <glyph glyph-name="wdieresis.flat" horiz-adv-x="700" 
d="M262 634v44h30v-44h-30zM408 634v44h30v-44h-30zM507 0l-158 473l-156 -473h-18l-160 518v2h28l143 -470l154 470h20l155 -470l143 470h27v-2l-161 -518h-17z" />
    <glyph glyph-name="wgrave.flat" horiz-adv-x="700" 
d="M507 0l-158 473l-156 -473h-18l-160 518v2h28l143 -470l154 470h20l155 -470l143 470h27v-2l-161 -518h-17zM340 598l-114 164h33l108 -164h-27z" />
    <glyph glyph-name="z.flat" horiz-adv-x="442" 
d="M411 0h-385v18l352 479h-326v23h358v-20l-349 -477h350v-23z" />
    <glyph glyph-name="zacute.flat" horiz-adv-x="442" 
d="M247 598h-27l108 164h33zM411 0h-385v18l352 479h-326v23h358v-20l-349 -477h350v-23z" />
    <glyph glyph-name="zcaron.flat" horiz-adv-x="442" 
d="M239 613l104 111h26l-116 -132h-28l-116 132h26zM411 0h-385v18l352 479h-326v23h358v-20l-349 -477h350v-23z" />
    <glyph glyph-name="zdotaccent.flat" horiz-adv-x="442" 
d="M411 0h-385v18l352 479h-326v23h358v-20l-349 -477h350v-23zM223 632v48h32v-48h-32z" />
    <glyph glyph-name="uni00AD" horiz-adv-x="259" 
d="M36 286v26h187v-26h-187z" />
    <glyph glyph-name="uni1EA0.flat" 
d="M468 237l-167 429l-168 -429h335zM561 0l-83 212h-355l-83 -212h-28v2l277 703h24l277 -703v-2h-29zM285 -181v73h31v-73h-31z" />
    <glyph glyph-name="uni1EA2.flat" 
d="M468 237l-167 429l-168 -429h335zM561 0l-83 212h-355l-83 -212h-28v2l277 703h24l277 -703v-2h-29zM240 873v24q25 15 72 16q72 -1 76 -62q-1 -37 -37 -55q-35 -18 -38 -40h-22q3 31 38 49q36 20 37 44q2 42 -64 42q-33 -3 -62 -18z" />
    <glyph glyph-name="uni1EA4.flat" 
d="M491 964l-72 -105h-25l67 105h30zM301 859l-86 -103h-27l101 125h26l101 -125h-27zM468 237l-167 429l-168 -429h335zM561 0l-83 212h-355l-83 -212h-28v2l277 703h24l277 -703v-2h-29z" />
    <glyph glyph-name="uni1EA6.flat" 
d="M301 859l-86 -103h-27l101 125h26l101 -125h-27zM468 237l-167 429l-168 -429h335zM561 0l-83 212h-355l-83 -212h-28v2l277 703h24l277 -703v-2h-29zM423 859l-72 105h30l67 -105h-25z" />
    <glyph glyph-name="uni1EA8.flat" 
d="M301 859l-86 -103h-27l101 125h26l101 -125h-27zM468 237l-167 429l-168 -429h335zM561 0l-83 212h-355l-83 -212h-28v2l277 703h24l277 -703v-2h-29zM345 965v22q23 14 72 15q72 -1 76 -56q-1 -34 -37 -52q-36 -16 -39 -35h-21q3 31 37 46q35 17 36 39q2 37 -62 37
q-35 -3 -62 -16z" />
    <glyph glyph-name="uni1EAA.flat" 
d="M301 859l-86 -103h-27l101 125h26l101 -125h-27zM468 237l-167 429l-168 -429h335zM561 0l-83 212h-355l-83 -212h-28v2l277 703h24l277 -703v-2h-29zM350 939q30 -1 53 37q1 -3 4.5 -10t5.5 -12q-24 -40 -64 -39q-18 2 -52 23q-3 2 -9.5 6.5t-10.5 7t-10 5t-11 2.5
q-29 0 -54 -44q-1 3 -4.5 11.5t-4.5 13.5q30 43 64 42q16 -2 49 -22q32 -21 44 -21z" />
    <glyph glyph-name="uni1EAC.flat" 
d="M285 -181v73h31v-73h-31zM468 237l-167 429l-168 -429h335zM561 0l-83 212h-355l-83 -212h-28v2l277 703h24l277 -703v-2h-29zM301 867l-104 -102h-28l118 124h28l118 -124h-28z" />
    <glyph glyph-name="uni1EAE.flat" 
d="M301 756q-53 0 -82.5 31t-28.5 81h20q0 -41 22.5 -66.5t68.5 -25.5t69.5 25.5t23.5 66.5h20q1 -50 -29 -81t-84 -31zM468 237l-167 429l-168 -429h335zM561 0l-83 212h-355l-83 -212h-28v2l277 703h24l277 -703v-2h-29zM380 1004l-72 -105h-25l67 105h30z" />
    <glyph glyph-name="uni1EB0.flat" 
d="M301 756q-53 0 -82.5 31t-28.5 81h20q0 -41 22.5 -66.5t68.5 -25.5t69.5 25.5t23.5 66.5h20q1 -50 -29 -81t-84 -31zM468 237l-167 429l-168 -429h335zM561 0l-83 212h-355l-83 -212h-28v2l277 703h24l277 -703v-2h-29zM302 899l-72 105h30l67 -105h-25z" />
    <glyph glyph-name="uni1EB2.flat" 
d="M301 756q-53 0 -82.5 31t-28.5 81h20q0 -41 22.5 -66.5t68.5 -25.5t69.5 25.5t23.5 66.5h20q1 -50 -29 -81t-84 -31zM468 237l-167 429l-168 -429h335zM561 0l-83 212h-355l-83 -212h-28v2l277 703h24l277 -703v-2h-29zM246 1005v22q23 14 72 15q72 -1 76 -56
q-1 -34 -37 -52q-36 -16 -39 -35h-21q3 31 37 46q34 17 36 39q2 37 -62 37q-35 -3 -62 -16z" />
    <glyph glyph-name="uni1EB4.flat" 
d="M301 756q-53 0 -82.5 31t-28.5 81h20q0 -41 22.5 -66.5t68.5 -25.5t69.5 25.5t23.5 66.5h20q1 -50 -29 -81t-84 -31zM468 237l-167 429l-168 -429h335zM561 0l-83 212h-355l-83 -212h-28v2l277 703h24l277 -703v-2h-29zM351 928q30 -1 53 37q1 -3 4.5 -10t5.5 -12
q-24 -40 -64 -39q-18 2 -52 23q-3 2 -9.5 6.5t-10.5 7t-10 5t-11 2.5q-29 0 -54 -44q-1 3 -4.5 11.5t-4.5 13.5q30 43 64 42q16 -2 49 -22q32 -21 44 -21z" />
    <glyph glyph-name="uni1EB6.flat" 
d="M301 756q-53 0 -82.5 31t-28.5 81h20q0 -41 22.5 -66.5t68.5 -25.5t69.5 25.5t23.5 66.5h20q1 -50 -29 -81t-84 -31zM468 237l-167 429l-168 -429h335zM561 0l-83 212h-355l-83 -212h-28v2l277 703h24l277 -703v-2h-29zM285 -181v73h31v-73h-31z" />
    <glyph glyph-name="uni1EA1.alt" horiz-adv-x="555" 
d="M267 16q123 0 195 101v282q-63 105 -188 105q-90 0 -151.5 -67t-61.5 -182q0 -114 59 -176.5t147 -62.5zM468 0l-5 93q-72 -101 -198 -101q-100 0 -165.5 69.5t-65.5 193.5t68.5 198.5t170.5 74.5q125 0 190 -104l3 96h24v-520h-22zM258 -181v73h31v-73h-31z" />
    <glyph glyph-name="uni1EA3.alt" horiz-adv-x="555" 
d="M267 16q123 0 195 101v282q-63 105 -188 105q-90 0 -151.5 -67t-61.5 -182q0 -114 59 -176.5t147 -62.5zM468 0l-5 93q-72 -101 -198 -101q-100 0 -165.5 69.5t-65.5 193.5t68.5 198.5t170.5 74.5q125 0 190 -104l3 96h24v-520h-22zM253 719v24q25 15 72 16q72 -1 76 -62
q-1 -37 -37 -55q-35 -18 -38 -40h-22q3 31 38 49q36 20 37 44q2 42 -64 42q-33 -3 -62 -18z" />
    <glyph glyph-name="uni1EA5.alt" horiz-adv-x="555" 
d="M267 16q123 0 195 101v282q-63 105 -188 105q-90 0 -151.5 -67t-61.5 -182q0 -114 59 -176.5t147 -62.5zM468 0l-5 93q-72 -101 -198 -101q-100 0 -165.5 69.5t-65.5 193.5t68.5 198.5t170.5 74.5q125 0 190 -104l3 96h24v-520h-22zM300 695l-86 -103h-27l101 125h26
l101 -125h-27zM490 800l-72 -105h-25l67 105h30z" />
    <glyph glyph-name="uni1EA7.alt" horiz-adv-x="555" 
d="M267 16q123 0 195 101v282q-63 105 -188 105q-90 0 -151.5 -67t-61.5 -182q0 -114 59 -176.5t147 -62.5zM468 0l-5 93q-72 -101 -198 -101q-100 0 -165.5 69.5t-65.5 193.5t68.5 198.5t170.5 74.5q125 0 190 -104l3 96h24v-520h-22zM300 695l-86 -103h-27l101 125h26
l101 -125h-27zM422 695l-72 105h30l67 -105h-25z" />
    <glyph glyph-name="uni1EA9.alt" horiz-adv-x="555" 
d="M267 16q123 0 195 101v282q-63 105 -188 105q-90 0 -151.5 -67t-61.5 -182q0 -114 59 -176.5t147 -62.5zM468 0l-5 93q-72 -101 -198 -101q-100 0 -165.5 69.5t-65.5 193.5t68.5 198.5t170.5 74.5q125 0 190 -104l3 96h24v-520h-22zM300 695l-86 -103h-27l101 125h26
l101 -125h-27zM344 801v22q23 14 72 15q72 -1 76 -56q-1 -34 -37 -52q-36 -16 -39 -35h-21q3 31 37 46q34 17 36 39q2 37 -62 37q-35 -3 -62 -16z" />
    <glyph glyph-name="uni1EAB.alt" horiz-adv-x="555" 
d="M267 16q123 0 195 101v282q-63 105 -188 105q-90 0 -151.5 -67t-61.5 -182q0 -114 59 -176.5t147 -62.5zM468 0l-5 93q-72 -101 -198 -101q-100 0 -165.5 69.5t-65.5 193.5t68.5 198.5t170.5 74.5q125 0 190 -104l3 96h24v-520h-22zM300 695l-86 -103h-27l101 125h26
l101 -125h-27zM349 775q30 -1 53 37q1 -3 4.5 -10t5.5 -12q-24 -40 -64 -39q-18 2 -52 23q-3 2 -9.5 6.5t-10.5 7t-10 5t-11 2.5q-29 0 -54 -44q-1 3 -4.5 11.5t-4.5 13.5q30 43 64 42q16 -2 49 -22q31 -21 44 -21z" />
    <glyph glyph-name="uni1EAD.alt" horiz-adv-x="555" 
d="M300 695l-86 -103h-27l101 125h26l101 -125h-27zM267 16q123 0 195 101v282q-63 105 -188 105q-90 0 -151.5 -67t-61.5 -182q0 -114 59 -176.5t147 -62.5zM468 0l-5 93q-72 -101 -198 -101q-100 0 -165.5 69.5t-65.5 193.5t68.5 198.5t170.5 74.5q125 0 190 -104l3 96h24
v-520h-22zM258 -181v73h31v-73h-31z" />
    <glyph glyph-name="uni1EAF.alt" horiz-adv-x="555" 
d="M317 596q-53 0 -82.5 31t-28.5 81h20q0 -41 22.5 -66.5t68.5 -25.5t69.5 25.5t23.5 66.5h20q1 -50 -29 -81t-84 -31zM267 16q123 0 195 101v282q-63 105 -188 105q-90 0 -151.5 -67t-61.5 -182q0 -114 59 -176.5t147 -62.5zM468 0l-5 93q-72 -101 -198 -101
q-100 0 -165.5 69.5t-65.5 193.5t68.5 198.5t170.5 74.5q125 0 190 -104l3 96h24v-520h-22zM396 844l-72 -105h-25l67 105h30z" />
    <glyph glyph-name="uni1EB1.alt" horiz-adv-x="555" 
d="M317 596q-53 0 -82.5 31t-28.5 81h20q0 -41 22.5 -66.5t68.5 -25.5t69.5 25.5t23.5 66.5h20q1 -50 -29 -81t-84 -31zM267 16q123 0 195 101v282q-63 105 -188 105q-90 0 -151.5 -67t-61.5 -182q0 -114 59 -176.5t147 -62.5zM468 0l-5 93q-72 -101 -198 -101
q-100 0 -165.5 69.5t-65.5 193.5t68.5 198.5t170.5 74.5q125 0 190 -104l3 96h24v-520h-22zM318 739l-72 105h30l67 -105h-25z" />
    <glyph glyph-name="uni1EB3.alt" horiz-adv-x="555" 
d="M317 596q-53 0 -82.5 31t-28.5 81h20q0 -41 22.5 -66.5t68.5 -25.5t69.5 25.5t23.5 66.5h20q1 -50 -29 -81t-84 -31zM267 16q123 0 195 101v282q-63 105 -188 105q-90 0 -151.5 -67t-61.5 -182q0 -114 59 -176.5t147 -62.5zM468 0l-5 93q-72 -101 -198 -101
q-100 0 -165.5 69.5t-65.5 193.5t68.5 198.5t170.5 74.5q125 0 190 -104l3 96h24v-520h-22zM262 845v22q23 14 72 15q72 -1 76 -56q-1 -34 -37 -52q-36 -16 -39 -35h-21q3 31 37 46q34 17 36 39q2 37 -62 37q-35 -3 -62 -16z" />
    <glyph glyph-name="uni1EB5.alt" horiz-adv-x="555" 
d="M317 596q-53 0 -82.5 31t-28.5 81h20q0 -41 22.5 -66.5t68.5 -25.5t69.5 25.5t23.5 66.5h20q1 -50 -29 -81t-84 -31zM267 16q123 0 195 101v282q-63 105 -188 105q-90 0 -151.5 -67t-61.5 -182q0 -114 59 -176.5t147 -62.5zM468 0l-5 93q-72 -101 -198 -101
q-100 0 -165.5 69.5t-65.5 193.5t68.5 198.5t170.5 74.5q125 0 190 -104l3 96h24v-520h-22zM367 768q30 -1 53 37q1 -3 4.5 -10t5.5 -12q-24 -40 -64 -39q-18 2 -52 23q-3 2 -9.5 6.5t-10.5 7t-10 5t-11 2.5q-29 0 -54 -44q-1 3 -4.5 11.5t-4.5 13.5q30 43 64 42
q16 -2 49 -22q31 -21 44 -21z" />
    <glyph glyph-name="uni1EB7.alt" horiz-adv-x="555" 
d="M317 596q-53 0 -82.5 31t-28.5 81h20q0 -41 22.5 -66.5t68.5 -25.5t69.5 25.5t23.5 66.5h20q1 -50 -29 -81t-84 -31zM267 16q123 0 195 101v282q-63 105 -188 105q-90 0 -151.5 -67t-61.5 -182q0 -114 59 -176.5t147 -62.5zM468 0l-5 93q-72 -101 -198 -101
q-100 0 -165.5 69.5t-65.5 193.5t68.5 198.5t170.5 74.5q125 0 190 -104l3 96h24v-520h-22zM258 -181v73h31v-73h-31z" />
    <glyph glyph-name="uni1EF5.alt" horiz-adv-x="469" 
d="M161 -210h-29v2l93 228l-215 498v2h29l201 -471l191 471h28v-2zM310 -181v73h31v-73h-31z" />
    <glyph glyph-name="uni1EF7.alt" horiz-adv-x="469" 
d="M161 -210h-29v2l93 228l-215 498v2h29l201 -471l191 471h28v-2zM189 719v24q25 15 72 16q72 -1 76 -62q-1 -37 -37 -55q-35 -18 -38 -40h-22q3 31 38 49q36 20 37 44q2 42 -64 42q-33 -3 -62 -18z" />
    <glyph glyph-name="uni1EF9.alt" horiz-adv-x="469" 
d="M161 -210h-29v2l93 228l-215 498v2h29l201 -471l191 471h28v-2zM284 633q30 -1 53 37q1 -3 4.5 -10t5.5 -12q-24 -40 -64 -39q-18 2 -52 23q-3 2 -9.5 6.5t-10.5 7t-10 5t-11 2.5q-29 0 -54 -44q-1 3 -4.5 11.5t-4.5 13.5q30 43 64 42q16 -2 49 -22q32 -21 44 -21z" />
    <glyph glyph-name="uni1EF5.alt1" horiz-adv-x="510" 
d="M238 -217q-98 0 -173 42v24l1 2q77 -43 170 -43q80 0 131 37t51 121v108q-90 -81 -190 -81q-80 0 -124.5 40t-44.5 120v367h28v-362q0 -141 146 -141q99 0 185 79v424h27v-553q0 -67 -31.5 -110t-75.5 -58.5t-100 -15.5zM514 -181v73h31v-73h-31z" />
    <glyph glyph-name="uni1EF7.alt1" horiz-adv-x="510" 
d="M238 -217q-98 0 -173 42v24l1 2q77 -43 170 -43q80 0 131 37t51 121v108q-90 -81 -190 -81q-80 0 -124.5 40t-44.5 120v367h28v-362q0 -141 146 -141q99 0 185 79v424h27v-553q0 -67 -31.5 -110t-75.5 -58.5t-100 -15.5zM207 719v24q25 15 72 16q72 -1 76 -62
q-1 -37 -37 -55q-35 -18 -38 -40h-22q3 31 38 49q36 20 37 44q2 42 -64 42q-33 -3 -62 -18z" />
    <glyph glyph-name="uni1EF9.alt1" horiz-adv-x="510" 
d="M238 -217q-98 0 -173 42v24l1 2q77 -43 170 -43q80 0 131 37t51 121v108q-90 -81 -190 -81q-80 0 -124.5 40t-44.5 120v367h28v-362q0 -141 146 -141q99 0 185 79v424h27v-553q0 -67 -31.5 -110t-75.5 -58.5t-100 -15.5zM305 633q30 -1 53 37q1 -3 4.5 -10t5.5 -12
q-24 -40 -64 -39q-18 2 -52 23q-3 2 -9.5 6.5t-10.5 7t-10 5t-11 2.5q-29 0 -54 -44q-1 3 -4.5 11.5t-4.5 13.5q30 43 64 42q16 -2 49 -22q31 -21 44 -21z" />
    </font>
</defs>
</svg>
