<svg width="24" height="24" viewBox="0 0 24 24" fill="none" xmlns="http://www.w3.org/2000/svg">
<circle cx="12" cy="12" r="11.5" stroke="#141414"/>
<mask id="path-2-inside-1" fill="white">
<path d="M17.0837 7.32954C16.8815 7.13182 16.6119 7 16.2918 7H5.21258C4.90931 7 4.62289 7.11534 4.42072 7.31306C4.21854 7.51079 4.08375 7.7909 4.08375 8.08748L4 15.1614C4 15.4579 4.11794 15.7381 4.33696 15.9358C4.53914 16.1335 4.82556 16.2653 5.12883 16.2653H16.2081C16.5113 16.2653 16.8815 16.15 17.0837 15.9358C17.2859 15.7381 17.4207 15.4579 17.4207 15.1614V8.10396C17.4207 7.80737 17.3027 7.52726 17.0837 7.32954ZM4.96581 15.5929V15.6094C4.91527 15.6094 4.84788 15.5929 4.81418 15.5435C4.78048 15.5105 4.74679 15.4611 4.74679 15.3952V14.9009L7.54358 12.1492L11.048 15.5929H4.96581ZM16.709 15.4116C16.709 15.4611 16.6921 15.527 16.6416 15.5599C16.6079 15.5929 16.5405 15.6258 16.4899 15.6258H12.0594L10.6104 14.1923L14.0975 11.0288L16.709 13.5992V15.4116ZM16.709 12.6119L14.4176 10.3545C14.2491 10.1898 13.9627 10.1733 13.7774 10.3545L10.2393 13.8312L7.8637 11.4914C7.69521 11.3267 7.4088 11.3102 7.22347 11.4914L4.74679 13.93V7.84869C4.74679 7.78278 4.76364 7.73335 4.81418 7.7004C4.84788 7.66744 4.91527 7.63449 4.96581 7.63449H16.4899C16.5405 7.63449 16.6079 7.65097 16.6416 7.7004C16.6753 7.73335 16.709 7.79926 16.709 7.84869V12.6119Z"/>
</mask>
<path d="M17.0837 7.32954C16.8815 7.13182 16.6119 7 16.2918 7H5.21258C4.90931 7 4.62289 7.11534 4.42072 7.31306C4.21854 7.51079 4.08375 7.7909 4.08375 8.08748L4 15.1614C4 15.4579 4.11794 15.7381 4.33696 15.9358C4.53914 16.1335 4.82556 16.2653 5.12883 16.2653H16.2081C16.5113 16.2653 16.8815 16.15 17.0837 15.9358C17.2859 15.7381 17.4207 15.4579 17.4207 15.1614V8.10396C17.4207 7.80737 17.3027 7.52726 17.0837 7.32954ZM4.96581 15.5929V15.6094C4.91527 15.6094 4.84788 15.5929 4.81418 15.5435C4.78048 15.5105 4.74679 15.4611 4.74679 15.3952V14.9009L7.54358 12.1492L11.048 15.5929H4.96581ZM16.709 15.4116C16.709 15.4611 16.6921 15.527 16.6416 15.5599C16.6079 15.5929 16.5405 15.6258 16.4899 15.6258H12.0594L10.6104 14.1923L14.0975 11.0288L16.709 13.5992V15.4116ZM16.709 12.6119L14.4176 10.3545C14.2491 10.1898 13.9627 10.1733 13.7774 10.3545L10.2393 13.8312L7.8637 11.4914C7.69521 11.3267 7.4088 11.3102 7.22347 11.4914L4.74679 13.93V7.84869C4.74679 7.78278 4.76364 7.73335 4.81418 7.7004C4.84788 7.66744 4.91527 7.63449 4.96581 7.63449H16.4899C16.5405 7.63449 16.6079 7.65097 16.6416 7.7004C16.6753 7.73335 16.709 7.79926 16.709 7.84869V12.6119Z" fill="#141414"/>
<path d="M17.0837 7.32954L16.3845 8.04448L16.3988 8.05844L16.4136 8.07182L17.0837 7.32954ZM4.08375 8.08748L5.08375 8.09932V8.08748H4.08375ZM4 15.1614L3 15.1495V15.1614H4ZM4.33696 15.9358L5.03615 15.2208L5.02187 15.2069L5.00705 15.1935L4.33696 15.9358ZM17.0837 15.9358L16.3845 15.2208L16.3702 15.2348L16.3565 15.2494L17.0837 15.9358ZM4.96581 15.5929V14.5929H3.96581V15.5929H4.96581ZM4.96581 15.6094V16.6094H5.96581V15.6094H4.96581ZM4.81418 15.5435L5.64046 14.9802L5.58445 14.898L5.51337 14.8285L4.81418 15.5435ZM4.74679 14.9009L4.04546 14.188L3.74679 14.4819V14.9009H4.74679ZM7.54358 12.1492L8.24448 11.4359L7.54316 10.7468L6.84225 11.4364L7.54358 12.1492ZM11.048 15.5929V16.5929H13.4924L11.7489 14.8796L11.048 15.5929ZM16.6416 15.5599L16.0954 14.7223L16.0129 14.7761L15.9424 14.845L16.6416 15.5599ZM12.0594 15.6258L11.3561 16.3367L11.6483 16.6258H12.0594V15.6258ZM10.6104 14.1923L9.93851 13.4517L9.15681 14.1609L9.90712 14.9032L10.6104 14.1923ZM14.0975 11.0288L14.799 10.3161L14.1255 9.65316L13.4256 10.2881L14.0975 11.0288ZM16.709 13.5992H17.709V13.1803L17.4105 12.8865L16.709 13.5992ZM16.709 12.6119L16.0072 13.3242L17.709 15.0008V12.6119H16.709ZM14.4176 10.3545L15.1194 9.64215L15.1168 9.63959L14.4176 10.3545ZM13.7774 10.3545L13.0782 9.63959L13.0765 9.64125L13.7774 10.3545ZM10.2393 13.8312L9.53757 14.5436L10.2385 15.234L10.9402 14.5445L10.2393 13.8312ZM7.8637 11.4914L8.56541 10.779L8.56288 10.7765L7.8637 11.4914ZM7.22347 11.4914L6.52427 10.7765L6.52186 10.7789L7.22347 11.4914ZM4.74679 13.93H3.74679V16.318L5.4484 14.6426L4.74679 13.93ZM4.81418 7.7004L5.36033 8.53808L5.4429 8.48425L5.51337 8.41533L4.81418 7.7004ZM16.6416 7.7004L15.8153 8.26366L15.8713 8.34581L15.9424 8.41533L16.6416 7.7004ZM17.7829 6.6146C17.4181 6.25783 16.9053 6 16.2918 6V8C16.3116 8 16.3236 8.00349 16.3334 8.00774C16.3448 8.01271 16.3627 8.02313 16.3845 8.04448L17.7829 6.6146ZM16.2918 6H5.21258V8H16.2918V6ZM5.21258 6C4.66099 6 4.11968 6.20875 3.72153 6.59813L5.1199 8.028C5.12197 8.02598 5.13054 8.01865 5.14797 8.01172C5.16521 8.00487 5.18734 8 5.21258 8V6ZM3.72153 6.59813C3.35074 6.96075 3.08375 7.4903 3.08375 8.08748H5.08375C5.08375 8.09116 5.08297 8.08557 5.08924 8.07156C5.09586 8.05676 5.10683 8.04079 5.1199 8.028L3.72153 6.59813ZM3 15.1614C3 15.7247 3.22607 16.2801 3.66687 16.6781L5.00705 15.1935C5.00658 15.1931 5.00584 15.1925 5.00456 15.1895C5.00305 15.1861 5 15.177 5 15.1614H3ZM3.63777 16.6507C4.00877 17.0135 4.54001 17.2653 5.12883 17.2653V15.2653C5.12223 15.2653 5.10816 15.2638 5.08836 15.2553C5.06782 15.2465 5.04924 15.2336 5.03615 15.2208L3.63777 16.6507ZM16.2081 17.2653C16.6866 17.2653 17.3607 17.0992 17.8109 16.6222L16.3565 15.2494C16.3786 15.2259 16.3923 15.2186 16.3878 15.2213C16.3839 15.2237 16.3707 15.2308 16.3475 15.2391C16.3247 15.2473 16.2983 15.2543 16.2712 15.2591C16.2438 15.2639 16.2218 15.2653 16.2081 15.2653V17.2653ZM17.7829 16.6507C18.1537 16.2881 18.4207 15.7585 18.4207 15.1614H16.4207C16.4207 15.1577 16.4214 15.1633 16.4152 15.1773C16.4086 15.1921 16.3976 15.2081 16.3845 15.2208L17.7829 16.6507ZM18.4207 8.10396C18.4207 7.54063 18.1946 6.98519 17.7538 6.58726L16.4136 8.07182C16.4141 8.07225 16.4148 8.07279 16.4161 8.07577C16.4176 8.07925 16.4207 8.0883 16.4207 8.10396H18.4207ZM3.96581 15.5929V15.6094H5.96581V15.5929H3.96581ZM4.96581 14.6094C5.03916 14.6094 5.13196 14.6199 5.23574 14.659C5.33951 14.698 5.50915 14.7876 5.64046 14.9802L3.9879 16.1067C4.30217 16.5677 4.79757 16.6094 4.96581 16.6094V14.6094ZM5.51337 14.8285C5.58844 14.9019 5.74679 15.094 5.74679 15.3952H3.74679C3.74679 15.8281 3.97253 16.1191 4.11499 16.2584L5.51337 14.8285ZM5.74679 15.3952V14.9009H3.74679V15.3952H5.74679ZM5.44812 15.6137L8.24491 12.862L6.84225 11.4364L4.04546 14.188L5.44812 15.6137ZM11.048 14.5929H4.96581V16.5929H11.048V14.5929ZM15.709 15.4116C15.709 15.3329 15.7209 15.2345 15.7636 15.126C15.8071 15.0154 15.9022 14.8482 16.0954 14.7223L17.1877 16.3976C17.6584 16.0908 17.709 15.594 17.709 15.4116H15.709ZM15.9424 14.845C16.0287 14.7606 16.1093 14.717 16.1607 14.6938C16.2071 14.6729 16.323 14.6258 16.4899 14.6258V16.6258C16.7074 16.6258 16.8823 16.5624 16.9835 16.5167C17.0896 16.4688 17.2208 16.3922 17.3408 16.2749L15.9424 14.845ZM16.4899 14.6258H12.0594V16.6258H16.4899V14.6258ZM11.2824 14.933L14.7694 11.7694L13.4256 10.2881L9.93851 13.4517L11.2824 14.933ZM13.396 11.7414L16.0075 14.3119L17.4105 12.8865L14.799 10.3161L13.396 11.7414ZM15.709 13.5992V15.4116H17.709V13.5992H15.709ZM17.4108 11.8995L15.1194 9.64215L13.7158 11.0669L16.0072 13.3242L17.4108 11.8995ZM15.1168 9.63959C14.5836 9.11813 13.6757 9.05529 13.0782 9.63959L14.4766 11.0695C14.2498 11.2913 13.9147 11.2614 13.7184 11.0695L15.1168 9.63959ZM13.0765 9.64125L9.5384 13.1179L10.9402 14.5445L14.4783 11.0678L13.0765 9.64125ZM10.941 13.1187L8.56541 10.779L7.16198 12.2039L9.53757 14.5436L10.941 13.1187ZM8.56288 10.7765C8.02968 10.255 7.12174 10.1922 6.52428 10.7765L7.92265 12.2064C7.69585 12.4282 7.36075 12.3983 7.16451 12.2064L8.56288 10.7765ZM6.52186 10.7789L4.04518 13.2175L5.4484 14.6426L7.92507 12.204L6.52186 10.7789ZM5.74679 13.93V7.84869H3.74679V13.93H5.74679ZM5.74679 7.84869C5.74679 7.89312 5.74238 8.01128 5.68151 8.15414C5.6128 8.31542 5.49773 8.4485 5.36033 8.53808L4.26803 6.86271C3.82573 7.15108 3.74679 7.59906 3.74679 7.84869H5.74679ZM5.51337 8.41533C5.4271 8.4997 5.34644 8.54336 5.29508 8.56654C5.24868 8.58748 5.13277 8.63449 4.96581 8.63449V6.63449C4.74831 6.63449 4.57343 6.69797 4.47227 6.74363C4.36616 6.79153 4.23496 6.86814 4.11499 6.98546L5.51337 8.41533ZM4.96581 8.63449H16.4899V6.63449H4.96581V8.63449ZM16.4899 8.63449C16.4166 8.63449 16.3238 8.62392 16.22 8.58488C16.1162 8.54585 15.9466 8.45627 15.8153 8.26366L17.4679 7.13714C17.1536 6.67611 16.6582 6.63449 16.4899 6.63449V8.63449ZM15.9424 8.41533C15.8556 8.33048 15.8092 8.24943 15.7836 8.19516C15.7681 8.1625 15.7515 8.12083 15.7378 8.07005C15.7247 8.02163 15.709 7.94536 15.709 7.84869H17.709C17.709 7.62293 17.6402 7.4431 17.5923 7.34157C17.5414 7.23375 17.4612 7.10327 17.3408 6.98546L15.9424 8.41533ZM15.709 7.84869V12.6119H17.709V7.84869H15.709ZM3.08382 8.07564L3.00007 15.1495L4.99993 15.1732L5.08368 8.09932L3.08382 8.07564ZM18.4207 15.1614V8.10396H16.4207V15.1614H18.4207ZM5.12883 17.2653H16.2081V15.2653H5.12883V17.2653ZM12.7627 14.915L11.3137 13.4815L9.90712 14.9032L11.3561 16.3367L12.7627 14.915ZM6.84268 12.8625L10.3471 16.3062L11.7489 14.8796L8.24448 11.4359L6.84268 12.8625Z" fill="#141414" mask="url(#path-2-inside-1)"/>
<path d="M10.8166 10.0404C10.8166 10.3726 10.5381 10.6608 10.1709 10.6608C9.8038 10.6608 9.52527 10.3726 9.52527 10.0404C9.52527 9.70814 9.8038 9.41992 10.1709 9.41992C10.5381 9.41992 10.8166 9.70814 10.8166 10.0404Z" fill="#141414" stroke="#141414"/>
<mask id="path-5-inside-2" fill="white">
<path d="M18.0901 8.75977C18.4102 8.75977 18.6798 8.88499 18.8819 9.07282C19.101 9.26065 19.2189 9.52675 19.2189 9.8085V16.5128C19.2189 16.7946 19.0841 17.0607 18.8819 17.2485C18.6798 17.452 18.3096 17.5616 18.0063 17.5616H6.92705C6.62378 17.5616 6.33736 17.4364 6.13518 17.2485C5.91615 17.0607 5.79822 16.7946 5.79822 16.5128L5.8013 16.2654H6.54501V16.735C6.54501 16.7976 6.5787 16.8445 6.6124 16.8758C6.6461 16.9228 6.71349 16.9384 6.76403 16.9384V16.9228H12.8462L13.8576 16.9541H18.2882C18.3387 16.9541 18.4061 16.9228 18.4398 16.8915C18.4904 16.8602 18.5072 16.7976 18.5072 16.7506V15.0288V14.0909V9.566C18.5072 9.51904 18.4735 9.45643 18.4398 9.42512C18.4061 9.37817 18.3387 9.36251 18.2882 9.36251H17.2982V8.75977H18.0901Z"/>
</mask>
<path d="M18.0901 8.75977C18.4102 8.75977 18.6798 8.88499 18.8819 9.07282C19.101 9.26065 19.2189 9.52675 19.2189 9.8085V16.5128C19.2189 16.7946 19.0841 17.0607 18.8819 17.2485C18.6798 17.452 18.3096 17.5616 18.0063 17.5616H6.92705C6.62378 17.5616 6.33736 17.4364 6.13518 17.2485C5.91615 17.0607 5.79822 16.7946 5.79822 16.5128L5.8013 16.2654H6.54501V16.735C6.54501 16.7976 6.5787 16.8445 6.6124 16.8758C6.6461 16.9228 6.71349 16.9384 6.76403 16.9384V16.9228H12.8462L13.8576 16.9541H18.2882C18.3387 16.9541 18.4061 16.9228 18.4398 16.8915C18.4904 16.8602 18.5072 16.7976 18.5072 16.7506V15.0288V14.0909V9.566C18.5072 9.51904 18.4735 9.45643 18.4398 9.42512C18.4061 9.37817 18.3387 9.36251 18.2882 9.36251H17.2982V8.75977H18.0901Z" fill="#141414"/>
<path d="M18.8819 9.07282L18.2013 9.80544L18.2159 9.81897L18.231 9.83191L18.8819 9.07282ZM5.79822 16.5128L4.79822 16.5004V16.5128H5.79822ZM6.13518 17.2485L6.81582 16.5159L6.80126 16.5024L6.78616 16.4894L6.13518 17.2485ZM18.8819 17.2485L18.2013 16.5159L18.1867 16.5295L18.1726 16.5437L18.8819 17.2485ZM6.76403 16.9228V15.9228H5.76403V16.9228H6.76403ZM6.76403 16.9384V17.9384H7.76403V16.9384H6.76403ZM6.6124 16.8758L7.42486 16.2928L7.36645 16.2114L7.29305 16.1432L6.6124 16.8758ZM6.54501 16.2654H7.54501V15.2654H6.54501V16.2654ZM12.8462 16.9228L12.8772 15.9233L12.8617 15.9228H12.8462V16.9228ZM18.4398 16.8915L17.9133 16.0413L17.8305 16.0926L17.7592 16.1589L18.4398 16.8915ZM13.8576 16.9541L13.8267 17.9536L13.8421 17.9541H13.8576V16.9541ZM18.4398 9.42512L17.6274 10.0081L17.6858 10.0895L17.7592 10.1578L18.4398 9.42512ZM17.2982 8.75977V7.75977H16.2982V8.75977H17.2982ZM17.2982 9.36251H16.2982V10.3625H17.2982V9.36251ZM5.8013 16.2654V15.2654H4.81369L4.80138 16.2529L5.8013 16.2654ZM19.5626 8.3402C19.1939 7.99771 18.6869 7.75977 18.0901 7.75977V9.75977C18.1173 9.75977 18.1352 9.76462 18.1486 9.77016C18.1633 9.77625 18.1814 9.78692 18.2013 9.80544L19.5626 8.3402ZM4.79822 16.5128C4.79822 17.0795 5.03843 17.6253 5.4842 18.0076L6.78616 16.4894C6.78646 16.4897 6.78794 16.491 6.78989 16.4936C6.79181 16.4962 6.79362 16.4992 6.79509 16.5024C6.79822 16.5094 6.79822 16.5136 6.79822 16.5128H4.79822ZM5.45454 17.9811C5.8292 18.3292 6.35471 18.5616 6.92705 18.5616V16.5616C6.91286 16.5616 6.89295 16.5585 6.86975 16.5491C6.84583 16.5394 6.82702 16.5263 6.81582 16.5159L5.45454 17.9811ZM18.0063 18.5616C18.471 18.5616 19.1386 18.409 19.5913 17.9534L18.1726 16.5437C18.1965 16.5196 18.2109 16.5124 18.2053 16.5156C18.2006 16.5184 18.1859 16.5258 18.1608 16.5344C18.1361 16.5428 18.1075 16.55 18.0779 16.555C18.048 16.5599 18.0232 16.5616 18.0063 16.5616V18.5616ZM19.5626 17.9811C19.9365 17.6338 20.2189 17.1134 20.2189 16.5128H18.2189C18.2189 16.4933 18.2236 16.4855 18.2215 16.4899C18.2206 16.4919 18.2184 16.4959 18.2147 16.501C18.2109 16.5061 18.2064 16.5112 18.2013 16.5159L19.5626 17.9811ZM20.2189 9.8085C20.2189 9.24186 19.9787 8.69602 19.5329 8.31373L18.231 9.83191C18.2307 9.83166 18.2292 9.83031 18.2272 9.82771C18.2253 9.82515 18.2235 9.82213 18.222 9.8189C18.2189 9.81199 18.2189 9.80774 18.2189 9.8085H20.2189ZM5.76403 16.9228V16.9384H7.76403V16.9228H5.76403ZM6.76403 15.9384C6.83208 15.9384 6.91935 15.9477 7.01839 15.9831C7.11491 16.0176 7.28733 16.1012 7.42486 16.2928L5.79994 17.4588C5.97117 17.6975 6.19413 17.8124 6.34541 17.8664C6.4992 17.9214 6.64544 17.9384 6.76403 17.9384V15.9384ZM7.29305 16.1432C7.36669 16.2116 7.54501 16.4109 7.54501 16.735H5.54501C5.54501 17.1842 5.79072 17.4774 5.93175 17.6084L7.29305 16.1432ZM7.54501 16.735V16.2654H5.54501V16.735H7.54501ZM12.8462 15.9228H6.76403V17.9228H12.8462V15.9228ZM17.5072 16.7506C17.5072 16.6647 17.5211 16.5589 17.5685 16.4444C17.6177 16.3256 17.7197 16.1612 17.9133 16.0413L18.9664 17.7416C19.4454 17.4449 19.5072 16.9494 19.5072 16.7506H17.5072ZM17.7592 16.1589C17.8471 16.0771 17.9276 16.0363 17.9762 16.0155C18.0213 15.9961 18.1309 15.9541 18.2882 15.9541V17.9541C18.496 17.9541 18.6646 17.8964 18.7644 17.8536C18.8678 17.8093 18.9988 17.7371 19.1205 17.6241L17.7592 16.1589ZM18.2882 15.9541H13.8576V17.9541H18.2882V15.9541ZM17.5072 15.0288V16.7506H19.5072V15.0288H17.5072ZM18.2882 10.3625C18.2201 10.3625 18.1329 10.3533 18.0338 10.3179C17.9373 10.2834 17.7649 10.1998 17.6274 10.0081L19.2523 8.84212C19.0811 8.60349 18.8581 8.48858 18.7068 8.43452C18.553 8.37957 18.4068 8.36251 18.2882 8.36251V10.3625ZM17.7592 10.1578C17.6696 10.0745 17.6195 9.99273 17.5906 9.9346C17.5735 9.9003 17.5549 9.85613 17.5395 9.80206C17.5249 9.75047 17.5072 9.66909 17.5072 9.566H19.5072C19.5072 9.33082 19.4319 9.14585 19.3817 9.04479C19.3276 8.93578 19.2438 8.80707 19.1205 8.6925L17.7592 10.1578ZM17.5072 9.566V14.0909H19.5072V9.566H17.5072ZM20.2189 16.5128V9.8085H18.2189V16.5128H20.2189ZM6.92705 18.5616H18.0063V16.5616H6.92705V18.5616ZM18.0901 7.75977H17.2982V9.75977H18.0901V7.75977ZM17.2982 10.3625H18.2882V8.36251H17.2982V10.3625ZM16.2982 8.75977V9.36251H18.2982V8.75977H16.2982ZM4.80138 16.2529L4.7983 16.5004L6.79814 16.5253L6.80122 16.2778L4.80138 16.2529ZM6.54501 15.2654H5.8013V17.2654H6.54501V15.2654ZM12.8153 17.9223L13.8267 17.9536L13.8885 15.9546L12.8772 15.9233L12.8153 17.9223ZM17.5072 14.0909V15.0288H19.5072V14.0909H17.5072Z" fill="#141414" mask="url(#path-5-inside-2)"/>
</svg>
