<svg width="24" height="24" viewBox="0 0 24 24" fill="none" xmlns="http://www.w3.org/2000/svg">
<circle cx="12" cy="12" r="11.5" stroke="#141414"/>
<path d="M17.2201 6H6.77954C5.68794 6 4.7998 6.78658 4.7998 7.75371V13.4136C4.7998 14.3786 5.68407 15.1639 6.77251 15.1673V17.7357L10.9393 15.1673H17.2201C18.3117 15.1673 19.1998 14.3806 19.1998 13.4136V7.75371C19.1998 6.78658 18.3117 6 17.2201 6ZM18.356 13.4136C18.356 13.9684 17.8465 14.4199 17.2201 14.4199H10.6746L7.61626 16.3051V14.4199H6.77954C6.15314 14.4199 5.64355 13.9684 5.64355 13.4136V7.75371C5.64355 7.19875 6.15314 6.74742 6.77954 6.74742H17.2201C17.8465 6.74742 18.356 7.19875 18.356 7.75371V13.4136Z" fill="#141414"/>
<path d="M8.01184 9.01434C8.01184 8.80794 8.18292 8.64062 8.39397 8.64062H15.4297C15.6408 8.64062 15.8119 8.80794 15.8119 9.01434C15.8119 9.22074 15.6408 9.38806 15.4297 9.38806H8.39397C8.18292 9.38806 8.01184 9.22074 8.01184 9.01434Z" fill="#141414"/>
<path d="M8.01184 10.609C8.01184 10.4027 8.18292 10.2354 8.39397 10.2354H15.4297C15.6408 10.2354 15.8119 10.4027 15.8119 10.609C15.8119 10.8154 15.6408 10.9827 15.4297 10.9827H8.39397C8.18292 10.9827 8.01184 10.8154 8.01184 10.609Z" fill="#141414"/>
<path d="M8.01184 12.2038C8.01184 11.9974 8.18292 11.8301 8.39397 11.8301H15.4297C15.6408 11.8301 15.8119 11.9974 15.8119 12.2038C15.8119 12.4102 15.6408 12.5775 15.4297 12.5775H8.39397C8.18292 12.5775 8.01184 12.4102 8.01184 12.2038Z" fill="#141414"/>
</svg>
