<svg width="61" height="60" viewBox="0 0 61 60" fill="none" xmlns="http://www.w3.org/2000/svg">
<ellipse opacity="0.3" cx="30.4746" cy="30.1131" rx="29.606" ry="29.6063" fill="#141414"/>
<path d="M39.4731 22.2701V19.0107H19.5094V38.1598H22.3613V41.0118H41.9177V22.2701H39.4731ZM20.3242 37.3449V19.8255H38.6583V22.2701H22.3613V37.3449H20.3242ZM41.1028 40.1969H23.1762V38.1598V23.085H39.4731H41.1028V40.1969Z" fill="white"/>
<path d="M36.6212 31.2331H32.547V27.1588C32.547 26.9335 32.3648 26.7514 32.1395 26.7514C31.9142 26.7514 31.7321 26.9335 31.7321 27.1588V31.2331H27.6579C27.4326 31.2331 27.2505 31.4152 27.2505 31.6405C27.2505 31.8658 27.4326 32.048 27.6579 32.048H31.7321V36.1222C31.7321 36.3475 31.9142 36.5297 32.1395 36.5297C32.3648 36.5297 32.547 36.3475 32.547 36.1222V32.048H36.6212C36.8465 32.048 37.0286 31.8658 37.0286 31.6405C37.0286 31.4152 36.8465 31.2331 36.6212 31.2331Z" fill="white"/>
</svg>
