<svg width="100" height="31" viewBox="0 0 100 31" fill="none" xmlns="http://www.w3.org/2000/svg">
<g opacity="0.3">
<path d="M8 4C8 6.25 6.25 8 4 8C1.75 8 0 6.25 0 4C0 1.75 1.75 0 4 0C6.25 0 8 1.75 8 4Z" fill="white"/>
<path d="M27 8C29.2091 8 31 6.20914 31 4C31 1.79086 29.2091 0 27 0C24.7909 0 23 1.79086 23 4C23 6.20914 24.7909 8 27 8Z" fill="white"/>
<path d="M50 8C52.2091 8 54 6.20914 54 4C54 1.79086 52.2091 0 50 0C47.7909 0 46 1.79086 46 4C46 6.20914 47.7909 8 50 8Z" fill="white"/>
<path d="M73 8C75.2091 8 77 6.20914 77 4C77 1.79086 75.2091 0 73 0C70.7909 0 69 1.79086 69 4C69 6.20914 70.7909 8 73 8Z" fill="white"/>
<path d="M100 4C100 6.25 98.25 8 96 8C93.75 8 92 6.25 92 4C92 1.75 93.75 0 96 0C98.125 0 100 1.75 100 4Z" fill="white"/>
<path d="M8 27C8 29.25 6.25 31 4 31C1.75 31 0 29.25 0 27C0 24.75 1.75 23 4 23C6.25 23 8 24.75 8 27Z" fill="white"/>
<path d="M31 27C31 29.25 29.25 31 27 31C24.75 31 23 29.25 23 27C23 24.75 24.75 23 27 23C29.125 23 31 24.75 31 27Z" fill="white"/>
<path d="M54 27C54 29.25 52.25 31 50 31C47.75 31 46 29.25 46 27C46 24.75 47.75 23 50 23C52.25 23 54 24.75 54 27Z" fill="white"/>
<path d="M77 27C77 29.25 75.25 31 73 31C70.75 31 69 29.25 69 27C69 24.75 70.75 23 73 23C75.25 23 77 24.75 77 27Z" fill="white"/>
<path d="M100 27C100 29.25 98.25 31 96 31C93.75 31 92 29.25 92 27C92 24.75 93.75 23 96 23C98.125 23 100 24.75 100 27Z" fill="white"/>
</g>
</svg>
