<svg width="1440" height="415" viewBox="0 0 1440 415" fill="none" xmlns="http://www.w3.org/2000/svg">
<path d="M0 0H1440V415H0V0Z" fill="url(#paint0_linear)"/>
<path d="M0 77V414H659C544 414 446.683 377.123 418.322 300.653C372 175.756 249 159.587 153 197.832C13 253.606 16.6055 107.875 0 77Z" fill="url(#paint1_linear)"/>
<path d="M1230.56 414.93C1227.8 415.026 1225.26 415.02 1223 414.93H1230.56C1258.7 413.948 1310.8 402.342 1343 360.473C1387.21 302.99 1354.37 85.1609 1439 66V414.93H1230.56Z" fill="url(#paint2_linear)"/>
<mask id="mask0" mask-type="alpha" maskUnits="userSpaceOnUse" x="1323" y="260" width="117" height="155">
<rect x="1323" y="260.822" width="117" height="154.178" fill="#C4C4C4"/>
</mask>
<g mask="url(#mask0)">
<path d="M1359.92 294.831L1354.74 284.385C1351.05 276.56 1354.15 267.465 1361.64 264.065C1380.55 255.503 1403.44 264.474 1412.77 284.18L1419.59 298.559C1422.56 304.868 1428.58 308.801 1434.9 309.252C1440.63 309.702 1445.78 313.39 1448.29 318.756L1451.89 326.335C1455.78 334.529 1455.69 343.91 1451.97 351.817C1449.79 356.446 1449.67 362.1 1452.09 367.303L1457.16 378.036C1462.76 389.917 1458.08 403.723 1446.66 408.925L1440.13 411.875C1428.71 417.037 1414.9 411.629 1409.29 399.749C1404.06 383.894 1395.45 377.299 1387.87 374.718C1376.74 370.949 1367.37 362.755 1362.27 351.94L1361.56 350.424C1356.16 338.994 1356.16 326.007 1361.18 314.905C1363.4 310.03 1363.98 303.394 1359.92 294.831Z" fill="#75CAB7"/>
<path d="M1515.92 415.001C1515.92 415.001 1479.47 367.179 1456.57 359.822C1433.63 352.505 1455.23 381.614 1455.23 381.614C1455.23 381.614 1415.63 328.234 1400.7 332.192C1387.02 335.831 1392.61 362.781 1392.61 362.781C1392.61 362.781 1384.23 357.423 1365.54 357.423C1346.85 357.423 1380.54 415.001 1380.54 415.001H1515.92Z" fill="#52B09B"/>
<path d="M1429.92 415.002C1429.92 415.002 1411.56 366.329 1388.82 371.971C1370.41 376.541 1383.5 401.001 1382.38 399.889C1381.26 398.778 1371.37 382.142 1355.37 382.142C1339.37 382.142 1360.27 404.584 1360.27 404.584C1360.27 404.584 1326.2 394.042 1323.54 405.119C1321.33 414.302 1333.72 415.002 1333.72 415.002H1429.92Z" fill="#3C8F7C"/>
<path d="M1445.5 351.314C1438.54 340.449 1437.24 327.345 1437.4 318.23C1437.56 308.341 1439.35 300.976 1439.39 300.894L1438.91 300.731C1438.91 300.813 1437.03 308.26 1436.91 318.189C1436.79 327.386 1438.09 340.611 1445.13 351.639L1445.5 351.314Z" fill="#3C8F7C"/>
<path d="M1441.05 299.102C1440.89 301.341 1439.87 303.213 1438.49 304.352C1437.27 302.806 1436.58 300.649 1436.78 298.451C1436.95 296.213 1437.96 294.341 1439.35 293.201C1440.57 294.748 1441.26 296.864 1441.05 299.102Z" fill="#3C8F7C"/>
<path d="M1436.38 304.27C1437.56 306.224 1437.93 308.421 1437.56 310.334C1435.77 309.887 1434.02 308.625 1432.84 306.712C1431.66 304.759 1431.29 302.561 1431.66 300.648C1433.45 301.055 1435.2 302.317 1436.38 304.27Z" fill="#3C8F7C"/>
<path d="M1433.74 310.333C1435.57 311.513 1436.83 313.385 1437.28 315.298C1435.53 315.786 1433.49 315.501 1431.66 314.321C1429.83 313.141 1428.57 311.269 1428.12 309.356C1429.83 308.827 1431.91 309.153 1433.74 310.333Z" fill="#3C8F7C"/>
<path d="M1434.55 318.797C1436.02 319.733 1436.91 321.361 1437.16 323.151C1435.65 323.802 1433.94 323.721 1432.48 322.785C1431.01 321.849 1430.12 320.221 1429.87 318.43C1431.38 317.739 1433.09 317.82 1434.55 318.797Z" fill="#3C8F7C"/>
<path d="M1440.53 308.79C1442.16 307.935 1443.99 307.854 1445.54 308.505C1445.13 310.173 1444.03 311.72 1442.41 312.574C1440.78 313.429 1438.95 313.51 1437.4 312.859C1437.81 311.15 1438.91 309.644 1440.53 308.79Z" fill="#3C8F7C"/>
<path d="M1440.37 314.607C1442 313.752 1443.83 313.671 1445.37 314.322C1444.97 315.991 1443.87 317.537 1442.24 318.392C1440.61 319.247 1438.78 319.328 1437.24 318.677C1437.64 317.008 1438.7 315.462 1440.37 314.607Z" fill="#3C8F7C"/>
<path d="M1435.61 328.077C1436.46 328.28 1437.19 328.85 1437.6 329.623C1436.99 330.152 1436.18 330.355 1435.28 330.152C1434.43 329.949 1433.69 329.379 1433.29 328.606C1433.9 328.077 1434.71 327.873 1435.61 328.077Z" fill="#3C8F7C"/>
<path d="M1442.65 359.004C1426.74 355.179 1414.61 343.418 1407.21 334.222C1399.19 324.211 1394.92 315.014 1394.88 314.933L1394.22 315.258C1394.27 315.34 1398.58 324.618 1406.64 334.71C1414.08 343.988 1426.33 355.911 1442.45 359.737L1442.65 359.004Z" fill="#3C8F7C"/>
<path d="M1395.07 311.393C1396.74 313.794 1397.31 316.643 1396.82 319.248C1394.34 318.922 1391.9 317.498 1390.19 315.097C1388.52 312.696 1387.95 309.847 1388.44 307.242C1390.97 307.568 1393.41 308.992 1395.07 311.393Z" fill="#3C8F7C"/>
<path d="M1394.63 321.286C1397.39 322.018 1399.59 323.85 1400.77 326.129C1398.62 327.512 1395.81 328.041 1393.04 327.309C1390.27 326.576 1388.08 324.745 1386.9 322.466C1389.09 321.082 1391.86 320.553 1394.63 321.286Z" fill="#3C8F7C"/>
<path d="M1396.99 330.027C1399.8 329.376 1402.57 329.945 1404.64 331.41C1403.3 333.649 1401.02 335.439 1398.21 336.091C1395.4 336.742 1392.64 336.172 1390.56 334.707C1391.9 332.469 1394.18 330.678 1396.99 330.027Z" fill="#3C8F7C"/>
<path d="M1403.34 337.965C1406.15 337.314 1408.91 337.884 1410.99 339.349C1409.65 341.587 1407.37 343.378 1404.56 344.029C1401.75 344.68 1398.99 344.11 1396.91 342.645C1398.25 340.407 1400.53 338.657 1403.34 337.965Z" fill="#3C8F7C"/>
<path d="M1401.46 324.781C1401.34 322.095 1402.19 319.532 1403.74 317.7C1405.45 319.125 1406.59 321.444 1406.71 324.13C1406.83 326.816 1405.98 329.38 1404.43 331.211C1402.72 329.787 1401.58 327.467 1401.46 324.781Z" fill="#3C8F7C"/>
<path d="M1408.06 333.005C1407.89 330.319 1408.71 327.755 1410.21 325.883C1411.92 327.307 1413.1 329.586 1413.31 332.272C1413.47 334.958 1412.65 337.522 1411.15 339.394C1409.4 337.97 1408.22 335.691 1408.06 333.005Z" fill="#3C8F7C"/>
<path d="M1413.51 345.817C1414.53 345.166 1415.75 345.003 1416.8 345.329C1416.6 346.468 1415.99 347.526 1414.93 348.178C1413.92 348.829 1412.7 348.991 1411.64 348.666C1411.84 347.567 1412.49 346.509 1413.51 345.817Z" fill="#3C8F7C"/>
<path d="M1425.39 411.336C1425.39 408.325 1443.7 411.865 1445.21 407.755C1446.71 403.645 1429.54 403.401 1429.54 397.785C1429.54 392.21 1438.29 396.117 1443.46 396.117C1448.59 396.117 1433.33 393.716 1433.33 391.763C1433.33 389.809 1438.7 390.827 1438.7 388.711C1438.7 386.594 1410.54 385.048 1413.83 379.88C1417.13 374.753 1432.27 381.386 1436.42 378.7C1440.57 376.055 1414.2 373.125 1413.55 369.178C1412.9 365.23 1432.96 372.555 1435.81 369.707C1438.66 366.858 1404.07 356.644 1405.49 349.156C1406.96 341.628 1431.7 358.76 1437.88 356.929C1444.07 355.097 1406.67 328.728 1415.34 318.473C1424.05 308.218 1440.65 352.452 1446.31 350.906C1451.96 349.36 1439.23 322.949 1445 318.351C1450.78 313.752 1467.39 355.504 1468.44 364.091C1469.5 372.677 1471.62 345.656 1480.69 342.482C1489.77 339.308 1480.94 359.208 1482.52 365.271C1484.11 371.334 1491.48 349.726 1501.45 351.313C1511.38 352.9 1483.46 372.637 1486.23 378.456C1488.99 384.234 1510.56 359.085 1517.32 365.881C1524.07 372.636 1491.35 391.396 1493.15 396.524C1494.94 401.651 1514.59 392.861 1520.25 398.518C1525.9 404.174 1499.17 407.755 1495.59 407.755C1492.05 407.755 1478.5 412.232 1491.72 411.336C1504.99 410.441 1425.39 414.348 1425.39 411.336Z" fill="#3C8F7C"/>
</g>
<defs>
<linearGradient id="paint0_linear" x1="718.079" y1="-52.7425" x2="718.079" y2="415" gradientUnits="userSpaceOnUse">
<stop stop-color="#FEFFFF"/>
<stop offset="1" stop-color="#CDE4F5"/>
</linearGradient>
<linearGradient id="paint1_linear" x1="329.5" y1="135.092" x2="329.5" y2="413.933" gradientUnits="userSpaceOnUse">
<stop stop-color="#D8EFFF"/>
<stop offset="1" stop-color="#B8D4E8"/>
</linearGradient>
<linearGradient id="paint2_linear" x1="1331" y1="66" x2="1331" y2="415" gradientUnits="userSpaceOnUse">
<stop stop-color="#D0E8F9"/>
<stop offset="1" stop-color="#BAD5E9"/>
</linearGradient>
</defs>
</svg>
