<svg width="48" height="24" viewBox="0 0 48 24" fill="none" xmlns="http://www.w3.org/2000/svg"><path d="M46.2 21.2a1 1 0 01-1 1H26.8a1 1 0 01-1-1V2.8a1 1 0 011-1h14.967a.9.9 0 000-1.8h-15.1A2.675 2.675 0 0024 2.667v18.666C24 22.8 25.2 24 26.667 24h18.666C46.8 24 48 22.8 48 21.333v-11.1a.9.9 0 10-1.8 0V21.2z" fill="#00A550"/><path d="M31.09 12.284a1.042 1.042 0 00-1.456 0 .999.999 0 000 1.43l4.74 4.657c.201.197.452.296.728.296h.05c.276-.025.552-.148.753-.37L47.768 4.324a1.027 1.027 0 00-.126-1.429 1.072 1.072 0 00-1.455.123l-11.16 13.135-3.938-3.869z" fill="#00A550"/><path d="M22.2 21.2a1 1 0 01-1 1H2.8a1 1 0 01-1-1V2.8a1 1 0 011-1h14.967a.9.9 0 000-1.8h-15.1A2.675 2.675 0 000 2.667v18.666C0 22.8 1.2 24 2.667 24h18.666C22.8 24 24 22.8 24 21.333v-11.1a.9.9 0 10-1.8 0V21.2z" fill="#fff"/></svg>