<svg width="18" height="18" viewBox="0 0 18 18" fill="none" xmlns="http://www.w3.org/2000/svg">
<path fill-rule="evenodd" clip-rule="evenodd" d="M9 1.38462C4.79414 1.38462 1.38462 4.79414 1.38462 9C1.38462 13.2059 4.79414 16.6154 9 16.6154C13.2059 16.6154 16.6154 13.2059 16.6154 9C16.6154 4.79414 13.2059 1.38462 9 1.38462ZM0 9C0 4.02944 4.02944 0 9 0C13.9706 0 18 4.02944 18 9C18 13.9706 13.9706 18 9 18C4.02944 18 0 13.9706 0 9Z" fill="#141414"/>
<path fill-rule="evenodd" clip-rule="evenodd" d="M9.0009 3.32343C9.38325 3.32343 9.69321 3.63338 9.69321 4.01573V8.57248L12.6336 10.0427C12.9756 10.2137 13.1142 10.6295 12.9432 10.9715C12.7722 11.3135 12.3564 11.4521 12.0144 11.2811L8.69129 9.61957C8.45675 9.5023 8.30859 9.26258 8.30859 9.00035V4.01573C8.30859 3.63338 8.61855 3.32343 9.0009 3.32343Z" fill="#141414"/>
</svg>
