<svg width="24" height="24" viewBox="0 0 24 24" fill="none" xmlns="http://www.w3.org/2000/svg">
<path fill-rule="evenodd" clip-rule="evenodd" d="M23.3746 13.0117C24.2085 12.5948 24.2085 11.4052 23.3746 10.9883L1.64315 0.124972C0.637296 -0.377843 -0.406659 0.735387 0.159982 1.70656L5.83328 11.4301C6.03876 11.7823 6.03876 12.2177 5.83328 12.5699L0.159982 22.2934C-0.406659 23.2646 0.637296 24.3778 1.64315 23.875L23.3746 13.0117Z" fill="#04BB5D"/>
<path fill-rule="evenodd" clip-rule="evenodd" d="M24 12.0002C24 12.4018 23.7915 12.8034 23.3746 13.0118L1.64315 23.8752C0.637297 24.378 -0.406659 23.2648 0.159982 22.2936L5.83328 12.5701C5.93601 12.394 5.98738 12.1971 5.98739 12.0002H24Z" fill="#00A550"/>
</svg>
