<svg width="120" height="120" viewBox="0 0 120 120" fill="none" xmlns="http://www.w3.org/2000/svg"><path d="M4.595 117.751c0-1.235-1.036-2.249-2.298-2.249-1.261 0-2.297 1.014-2.297 2.249S1.036 120 2.297 120c1.262 0 2.298-.97 2.298-2.249zm16.847 0c0-1.235-1.037-2.249-2.298-2.249-1.261 0-2.297 1.014-2.297 2.249S17.883 120 19.144 120c1.262 0 2.298-.97 2.298-2.249zm16.846 0c0-1.235-1.036-2.249-2.297-2.249-1.261 0-2.297 1.014-2.297 2.249S34.73 120 35.99 120c1.306 0 2.297-.97 2.297-2.249zm16.892 0c0-1.235-1.036-2.249-2.297-2.249-1.261 0-2.297 1.014-2.297 2.249S51.622 120 52.883 120c1.261 0 2.297-.97 2.297-2.249zm16.847 0c0-1.235-1.036-2.249-2.297-2.249-1.262 0-2.298 1.014-2.298 2.249S68.468 120 69.73 120c1.26 0 2.297-.97 2.297-2.249zm16.847 0c0-1.235-1.036-2.249-2.297-2.249-1.262 0-2.298 1.014-2.298 2.249S85.315 120 86.577 120c1.26 0 2.297-.97 2.297-2.249zM4.595 101.257c0-1.235-1.036-2.25-2.298-2.25-1.261 0-2.297 1.015-2.297 2.25s1.036 2.249 2.297 2.249c1.262 0 2.298-1.014 2.298-2.249zm16.847 0c0-1.235-1.037-2.25-2.298-2.25-1.261 0-2.297 1.015-2.297 2.25s1.036 2.249 2.297 2.249c1.262 0 2.298-1.014 2.298-2.249zm16.846 0c0-1.235-1.036-2.25-2.297-2.25-1.261 0-2.297 1.015-2.297 2.25s1.036 2.249 2.297 2.249c1.306 0 2.297-1.014 2.297-2.249zm16.892 0c0-1.235-1.036-2.25-2.297-2.25-1.261 0-2.297 1.015-2.297 2.25s1.036 2.249 2.297 2.249c1.261 0 2.297-1.014 2.297-2.249zm16.847 0c0-1.235-1.036-2.25-2.297-2.25-1.262 0-2.298 1.015-2.298 2.25s1.036 2.249 2.298 2.249c1.26 0 2.297-1.014 2.297-2.249zm16.847 0c0-1.235-1.036-2.25-2.297-2.25-1.262 0-2.298 1.015-2.298 2.25s1.036 2.249 2.298 2.249c1.26 0 2.297-1.014 2.297-2.249zm15.09 16.494c0-1.235-1.036-2.249-2.297-2.249-1.262 0-2.298 1.014-2.298 2.249s1.036 2.249 2.298 2.249c1.261 0 2.297-.97 2.297-2.249zm16.036 0c0-1.235-1.036-2.249-2.297-2.249-1.261 0-2.297 1.014-2.297 2.249s1.036 2.249 2.297 2.249c1.261 0 2.297-.97 2.297-2.249zm-16.036-16.494c0-1.235-1.036-2.25-2.297-2.25-1.262 0-2.298 1.015-2.298 2.25s1.036 2.249 2.298 2.249c1.261 0 2.297-1.014 2.297-2.249zM4.595 84.763c0-1.235-1.036-2.25-2.298-2.25-1.261 0-2.297 1.015-2.297 2.25s1.036 2.25 2.297 2.25c1.262 0 2.298-1.015 2.298-2.25zm16.847 0c0-1.235-1.037-2.25-2.298-2.25-1.261 0-2.297 1.015-2.297 2.25s1.036 2.25 2.297 2.25c1.262 0 2.298-1.015 2.298-2.25zm16.846 0c0-1.235-1.036-2.25-2.297-2.25-1.261 0-2.297 1.015-2.297 2.25s1.036 2.25 2.297 2.25c1.306 0 2.297-1.015 2.297-2.25zm16.892 0c0-1.235-1.036-2.25-2.297-2.25-1.261 0-2.297 1.015-2.297 2.25s1.036 2.25 2.297 2.25c1.261 0 2.297-1.015 2.297-2.25zm16.847 0c0-1.235-1.036-2.25-2.297-2.25-1.262 0-2.298 1.015-2.298 2.25s1.036 2.25 2.298 2.25c1.26 0 2.297-1.015 2.297-2.25zm16.847 0c0-1.235-1.036-2.25-2.297-2.25-1.262 0-2.298 1.015-2.298 2.25s1.036 2.25 2.298 2.25c1.26 0 2.297-1.015 2.297-2.25zM4.595 68.269c0-1.235-1.036-2.25-2.298-2.25C1.036 66.02 0 67.035 0 68.27s1.036 2.25 2.297 2.25c1.262 0 2.298-1.015 2.298-2.25zm16.847 0c0-1.235-1.037-2.25-2.298-2.25-1.261 0-2.297 1.015-2.297 2.25s1.036 2.25 2.297 2.25c1.262 0 2.298-1.015 2.298-2.25zm16.846 0c0-1.235-1.036-2.25-2.297-2.25-1.261 0-2.297 1.015-2.297 2.25s1.036 2.25 2.297 2.25c1.306 0 2.297-1.015 2.297-2.25zm16.892 0c0-1.235-1.036-2.25-2.297-2.25-1.261 0-2.297 1.015-2.297 2.25s1.036 2.25 2.297 2.25c1.261 0 2.297-1.015 2.297-2.25zm16.847 0c0-1.235-1.036-2.25-2.297-2.25-1.262 0-2.298 1.015-2.298 2.25s1.036 2.25 2.298 2.25c1.26 0 2.297-1.015 2.297-2.25zM4.595 51.775c0-1.235-1.036-2.249-2.298-2.249C1.036 49.526 0 50.54 0 51.776c0 1.234 1.036 2.248 2.297 2.248 1.262 0 2.298-1.014 2.298-2.249zm16.847 0c0-1.235-1.037-2.249-2.298-2.249-1.261 0-2.297 1.014-2.297 2.25 0 1.234 1.036 2.248 2.297 2.248 1.262 0 2.298-1.014 2.298-2.249zm16.846 0c0-1.235-1.036-2.249-2.297-2.249-1.261 0-2.297 1.014-2.297 2.25 0 1.234 1.036 2.248 2.297 2.248 1.306 0 2.297-1.014 2.297-2.249zm16.892 0c0-1.235-1.036-2.249-2.297-2.249-1.261 0-2.297 1.014-2.297 2.25 0 1.234 1.036 2.248 2.297 2.248 1.261 0 2.297-1.014 2.297-2.249zM4.595 35.281c0-1.235-1.036-2.249-2.298-2.249-1.261 0-2.297 1.014-2.297 2.25 0 1.234 1.036 2.248 2.297 2.248 1.262 0 2.298-1.014 2.298-2.249zm16.847 0c0-1.235-1.037-2.249-2.298-2.249-1.261 0-2.297 1.014-2.297 2.25 0 1.234 1.036 2.248 2.297 2.248 1.262 0 2.298-1.014 2.298-2.249zm16.846 0c0-1.235-1.036-2.249-2.297-2.249-1.261 0-2.297 1.014-2.297 2.25 0 1.234 1.036 2.248 2.297 2.248 1.306 0 2.297-1.014 2.297-2.249zM4.595 18.743c0-1.235-1.036-2.25-2.298-2.25-1.261 0-2.297 1.015-2.297 2.25s1.036 2.25 2.297 2.25c1.262 0 2.298-.97 2.298-2.25zm16.847 0c0-1.235-1.037-2.25-2.298-2.25-1.261 0-2.297 1.015-2.297 2.25s1.036 2.25 2.297 2.25c1.262 0 2.298-.97 2.298-2.25zM4.595 2.25C4.595 1.013 3.559 0 2.297 0 1.036 0 0 1.014 0 2.25c0 1.234 1.036 2.248 2.297 2.248 1.262 0 2.298-1.014 2.298-2.249z" fill="#fff"/></svg>