<svg width="193" height="36" viewBox="0 0 193 36" fill="none" xmlns="http://www.w3.org/2000/svg">
<path d="M97.2983 0.0273438V12.9691L88.8794 0.0273438H81.0933V16.8352L75.2331 0.0273438H71.5188L74.2701 3.59182H67.7771L70.3633 0.356372L70.5834 0.0273438H66.7866L61.6142 14.2578C61.6142 14.2578 62.2745 1.31604 50.5816 0.685401H39.5489L39.2188 0.328953V26.2125H50.2514C50.2514 26.2125 55.7815 25.8835 59.0005 22.0174L57.7074 25.9109H65.4935L66.7866 22.0174H74.5727L75.8658 25.9109H88.1916V13.5998L97.2708 25.8835H104.397V0.0273438H97.2983ZM53.4979 14.5594C53.4979 14.5594 53.4979 16.5062 51.5445 17.7949C51.5445 17.7949 50.2514 19.0836 47.0049 19.0836V7.45791H48.9583C48.9583 7.45791 53.4979 8.11597 53.4979 12.6401V14.5594ZM69.0702 15.2175L71.0236 11.324L72.977 15.2175H69.0702Z" fill="url(#paint0_linear_9243_83)"/>
<path d="M151.498 3.56448H148.251L150.535 0H145.995V4.52415C145.995 4.52415 144.702 1.2887 140.162 0H107.697V7.75959H113.53V25.8836H120.656V7.78701H126.489V25.911H133.614V19.4127L138.814 25.8836H153.781V1.31611L151.498 3.56448ZM136.586 11.9821H133.972V6.79993H135.925C135.925 6.79993 137.879 7.45799 137.879 10.0354C137.879 10.0354 137.879 11.3241 136.586 11.9821ZM146.298 22.9772L141.758 16.5063C141.758 16.5063 143.712 15.8482 146.298 11.9821V22.9772Z" fill="url(#paint1_linear_9243_83)"/>
<path d="M51.2129 28.4844C50.8002 28.4844 50.5806 28.6763 50.5531 29.0328H50.6627C50.6902 28.9231 50.7452 28.8406 50.8002 28.8132C50.8553 28.7584 50.9105 28.7313 51.0206 28.7313C51.1031 28.7313 51.2406 28.7861 51.4607 28.8683C51.7358 28.978 51.9559 29.0328 52.1485 29.0328C52.2585 29.0328 52.3689 29.033 52.479 28.9781C52.6991 28.8685 52.8089 28.7311 52.8089 28.4844H52.6987C52.6437 28.6763 52.5339 28.7586 52.3688 28.7586C52.2863 28.7586 52.1488 28.731 51.9287 28.6488C51.6811 28.5665 51.5431 28.5117 51.4881 28.5117C51.4055 28.4843 51.323 28.4844 51.2129 28.4844ZM69.4268 28.5942L70.5821 29.8007H70.7196L70.307 28.5942H69.4268ZM111.769 28.5942L111.356 29.8007H111.494L112.649 28.5942H111.769ZM89.2908 28.6215L88.5482 29.7729H88.6583L89.5659 29.0328L90.6391 29.7729H90.7492L90.006 28.6215H89.2908ZM51.3231 29.1425L50.6353 29.6358H50.7454L51.6256 29.3616L52.5338 29.6358H52.6439L51.9835 29.1425H51.3231ZM125.773 29.1425L125.085 29.6358H125.195L126.076 29.3616L126.983 29.6358H127.094L126.433 29.1425H125.773ZM70.2247 30.0197L68.3537 33.8857C68.1886 34.2422 68.0511 34.4615 67.9136 34.5712C67.831 34.626 67.6936 34.6809 67.4735 34.7083V34.8454H69.1516V34.7083C68.904 34.6809 68.7387 34.6539 68.6562 34.599C68.5736 34.5442 68.546 34.489 68.546 34.4068C68.546 34.3245 68.6011 34.1874 68.6836 33.9955L69.0415 33.2554H71.1049L71.4075 33.9136C71.5175 34.1329 71.5724 34.2971 71.5724 34.4068C71.5724 34.489 71.5454 34.5442 71.4628 34.599C71.3803 34.6539 71.2423 34.681 71.0222 34.681V34.8181H73.1136V34.681C72.921 34.6536 72.7282 34.5988 72.6181 34.5166C72.4806 34.4343 72.343 34.2152 72.2055 33.9136L70.3623 30.0197H70.2247ZM89.5659 30.0197L87.6954 33.8857C87.5303 34.2422 87.3923 34.4615 87.2548 34.5712C87.1722 34.626 87.0348 34.6809 86.8147 34.7083V34.8454H88.4928V34.7083C88.2452 34.6809 88.0805 34.6539 87.9979 34.599C87.9154 34.5442 87.8878 34.489 87.8878 34.4068C87.8878 34.3245 87.9428 34.1874 88.0253 33.9955L88.3832 33.2554H90.4467L90.7492 33.9136C90.8593 34.1329 90.9142 34.2971 90.9142 34.4068C90.9142 34.489 90.8866 34.5442 90.804 34.599C90.7215 34.6539 90.584 34.681 90.3639 34.681V34.8181H92.4548V34.681C92.2622 34.6536 92.0699 34.5988 91.9599 34.5166C91.8223 34.4343 91.6848 34.2152 91.5472 33.9136L89.7035 30.0197H89.5659ZM143.629 30.0197L141.758 33.8857C141.593 34.2422 141.455 34.4615 141.317 34.5712C141.235 34.626 141.097 34.6809 140.877 34.7083V34.8454H142.556V34.7083C142.308 34.6809 142.143 34.6539 142.061 34.599C141.978 34.5442 141.951 34.489 141.951 34.4068C141.951 34.3245 142.006 34.1874 142.088 33.9955L142.446 33.2554H144.509L144.812 33.9136C144.922 34.1329 144.977 34.2971 144.977 34.4068C144.977 34.489 144.949 34.5442 144.867 34.599C144.784 34.6539 144.647 34.681 144.427 34.681V34.8181H146.518V34.681C146.325 34.6536 146.133 34.5988 146.023 34.5166C145.885 34.4343 145.747 34.2152 145.61 33.9136L143.766 30.0197H143.629ZM100.544 30.1022L100.489 31.199H100.626C100.626 31.007 100.681 30.8423 100.791 30.7052C100.901 30.5955 101.011 30.5132 101.149 30.4583C101.259 30.4309 101.424 30.4037 101.672 30.4037H102.305V34.0228C102.305 34.2696 102.277 34.4343 102.222 34.5166C102.139 34.6537 101.974 34.7083 101.754 34.7083H101.561V34.8454H103.818V34.7083H103.625C103.405 34.7083 103.267 34.6809 103.157 34.5712C103.075 34.4889 103.047 34.3244 103.047 34.0228V30.431H103.79C104.011 30.431 104.175 30.4312 104.313 30.5135C104.45 30.5957 104.561 30.6779 104.643 30.815C104.698 30.8973 104.726 31.0343 104.753 31.2263H104.891L104.836 30.1295V30.1022H100.544ZM128.662 30.1022L128.607 31.199H128.744C128.744 31.007 128.799 30.8149 128.909 30.7052C129.019 30.5955 129.13 30.5132 129.267 30.4583C129.377 30.4309 129.542 30.4037 129.79 30.4037H130.423V34.0228C130.423 34.2696 130.395 34.4343 130.34 34.5166C130.258 34.6537 130.092 34.7083 129.872 34.7083H129.68V34.8454H131.936V34.7083H131.743C131.523 34.7083 131.385 34.6809 131.275 34.5712C131.193 34.4889 131.166 34.3244 131.166 34.0228V30.431H131.908C132.128 30.431 132.294 30.4312 132.431 30.5135C132.569 30.5957 132.679 30.6779 132.761 30.815C132.816 30.8973 132.844 31.0343 132.871 31.2263H133.009L132.954 30.1295V30.1022H128.662ZM40.6484 30.1295V30.2393H40.8408C41.0334 30.2393 41.1709 30.294 41.2809 30.4037C41.3634 30.486 41.3911 30.6505 41.3911 30.9521V33.9682C41.3911 34.2424 41.3633 34.407 41.3083 34.4893C41.2258 34.6264 41.0609 34.681 40.8408 34.681H40.6484V34.8181V34.8454H43.0144C44.0599 34.8454 44.8304 34.5988 45.3256 34.1053C45.7658 33.6666 45.9855 33.1182 45.9855 32.4601C45.9855 31.9666 45.8484 31.5555 45.6007 31.1717C45.3531 30.7878 45.0225 30.5409 44.6099 30.3764C44.1972 30.2119 43.592 30.1295 42.7941 30.1295H40.6484ZM46.4535 30.1295V30.2666H46.6459C46.756 30.2666 46.8937 30.2942 47.0038 30.3491C47.0863 30.3765 47.1413 30.4313 47.1688 30.4862C47.1963 30.5684 47.2236 30.7053 47.2236 30.9521V33.9955C47.2236 34.2697 47.1964 34.4343 47.1414 34.5166C47.0588 34.6262 46.8934 34.681 46.6733 34.681H46.4809V34.8181H48.7647V34.681H48.5444C48.4068 34.681 48.2966 34.6539 48.1865 34.599C48.104 34.5716 48.0491 34.5168 48.0216 34.4619C47.994 34.3797 47.9667 34.2423 47.9667 33.9955V30.9521C47.9667 30.6779 48.0219 30.5133 48.0769 30.431C48.1594 30.3213 48.3243 30.2666 48.5444 30.2666H48.7368V30.1295H46.4535ZM49.1221 30.1295V30.2666H49.315C49.5351 30.2666 49.6999 30.3215 49.7825 30.4037C49.865 30.4585 49.8926 30.6505 49.8926 30.9521V33.9682C49.8926 34.215 49.8648 34.3518 49.8373 34.4341C49.8098 34.5164 49.7549 34.5716 49.6723 34.599C49.5623 34.6539 49.4525 34.681 49.315 34.681H49.1221V34.8181H53.2216L53.6891 33.6394H53.5241C53.359 33.941 53.1943 34.1599 53.0292 34.297C52.9192 34.4067 52.7815 34.4891 52.6439 34.5166C52.5064 34.544 52.2862 34.5712 51.9835 34.5712H51.0754C50.9103 34.5712 50.8279 34.5713 50.7728 34.5439C50.7178 34.5165 50.6902 34.4889 50.6627 34.4341C50.6352 34.3793 50.6353 34.27 50.6353 34.0507V32.5148H51.7911C52.0112 32.5148 52.176 32.5424 52.286 32.5972C52.3686 32.6521 52.4513 32.7067 52.5064 32.789C52.5339 32.8438 52.589 33.0087 52.6165 33.2281H52.7541V31.5829H52.6165C52.6165 31.8297 52.5338 32.0216 52.3962 32.1313C52.2862 32.2136 52.0938 32.2406 51.7911 32.2406H50.6353V30.3764H52.0663C52.3414 30.3764 52.5065 30.4036 52.6165 30.431C52.7541 30.4859 52.864 30.5683 52.9191 30.6506C53.0016 30.7603 53.0564 30.9249 53.1114 31.1717H53.2764L53.2216 30.1295H49.1221ZM53.717 30.1295V30.2666C53.8821 30.2666 53.9918 30.2665 54.0744 30.2939C54.2395 30.3213 54.3497 30.4036 54.4323 30.431C54.5148 30.4584 54.6245 30.568 54.7896 30.7325V33.9955C54.7896 34.2423 54.7624 34.407 54.7074 34.4893C54.6249 34.6264 54.4595 34.681 54.2394 34.681H54.047V34.8181H55.8901V34.681H55.6977C55.4776 34.681 55.3403 34.6536 55.2302 34.5439C55.1477 34.4616 55.1201 34.2971 55.1201 33.9955V31.1165L58.614 34.9005H58.7516V30.9521C58.7516 30.7053 58.7793 30.5406 58.8343 30.4583C58.9169 30.3212 59.0817 30.2666 59.3018 30.2666H59.4947V30.1295H57.6511V30.2393H57.844C58.0641 30.2393 58.2014 30.2667 58.3115 30.3764C58.394 30.4587 58.4216 30.6232 58.4216 30.9248V33.6394L55.1749 30.1295H53.7444H53.717ZM61.778 30.1295V30.2393H61.9709C62.1635 30.2393 62.3009 30.294 62.411 30.4037C62.4935 30.486 62.5211 30.6505 62.5211 30.9521V32.2133H61.7506V32.4601H62.5211V33.9682C62.5211 34.2424 62.4934 34.407 62.4384 34.4893C62.3559 34.6264 62.191 34.681 61.9709 34.681H61.778V34.8181H64.1166C65.1345 34.8181 65.9052 34.5713 66.3729 34.1326C66.8407 33.6939 67.0882 33.1182 67.0882 32.4601C67.0882 31.9666 66.9505 31.5281 66.7029 31.1717C66.4553 30.8152 66.1251 30.5409 65.7399 30.3764C65.3548 30.2119 64.7496 30.1295 63.9242 30.1295H61.778ZM73.0856 30.1295V30.2666C73.2507 30.2666 73.361 30.2665 73.4435 30.2939C73.6086 30.3213 73.7189 30.4036 73.8014 30.431C73.8839 30.4584 73.9937 30.568 74.1588 30.7325V33.9955C74.1588 34.2423 74.1316 34.407 74.0765 34.4893C73.994 34.6264 73.8286 34.681 73.6085 34.681H73.4161V34.8181H75.2593V34.681H75.0669C74.8468 34.681 74.7089 34.6536 74.5989 34.5439C74.5163 34.4616 74.4892 34.2971 74.4892 33.9955V31.1165L77.9831 34.9005H78.1207V30.9521C78.1207 30.7053 78.1484 30.5406 78.2035 30.4583C78.286 30.3212 78.4509 30.2666 78.671 30.2666H78.8633V30.1295H77.0202V30.2393H77.2126C77.4327 30.2393 77.5706 30.2667 77.6806 30.3764C77.7631 30.4587 77.7908 30.6232 77.7908 30.9248V33.6394L74.544 30.1295H73.1136H73.0856ZM81.1471 30.1295V30.2393H81.3395C81.5321 30.2393 81.6701 30.294 81.7801 30.4037C81.8627 30.486 81.8898 30.6505 81.8898 30.9521V33.9682C81.8898 34.2424 81.8626 34.407 81.8075 34.4893C81.725 34.6264 81.5596 34.681 81.3395 34.681H81.1471V34.8181V34.8454H83.5131C84.5586 34.8454 85.3291 34.5988 85.8243 34.1053C86.2645 33.6666 86.4847 33.1182 86.4847 32.4601C86.4847 31.9666 86.347 31.5555 86.0994 31.1717C85.8518 30.7878 85.5218 30.5409 85.1091 30.3764C84.6964 30.2119 84.0912 30.1295 83.2933 30.1295H81.1471ZM92.4274 30.1295V30.2666C92.5925 30.2666 92.7027 30.2665 92.7853 30.2939C92.9503 30.3213 93.0601 30.4036 93.1426 30.431C93.2252 30.4584 93.3354 30.568 93.5005 30.7325V33.9955C93.5005 34.2423 93.4728 34.407 93.4177 34.4893C93.3352 34.6264 93.1703 34.681 92.9502 34.681H92.7573V34.8181H94.601V34.681H94.4081C94.188 34.681 94.0506 34.6536 93.9406 34.5439C93.8581 34.4616 93.8304 34.2971 93.8304 33.9955V31.1165L97.3249 34.9005H97.4625V30.9521C97.4625 30.7053 97.4896 30.5406 97.5447 30.4583C97.6272 30.3212 97.7926 30.2666 98.0127 30.2666H98.2051V30.1295H96.3619V30.2393H96.5543C96.7744 30.2393 96.9118 30.2667 97.0218 30.3764C97.1044 30.4587 97.132 30.6232 97.132 30.9248V33.6394L93.8858 30.1295H92.4548H92.4274ZM105.248 30.1295V30.2393H105.441C105.634 30.2393 105.771 30.294 105.881 30.4037C105.964 30.486 105.991 30.6505 105.991 30.9521V33.9955C105.991 34.2697 105.964 34.4343 105.909 34.5166C105.826 34.6537 105.661 34.7083 105.441 34.7083H105.248V34.8454H107.532V34.7083H107.312C107.119 34.7083 106.982 34.6536 106.872 34.5439C106.789 34.4616 106.761 34.2971 106.761 33.9955V32.6245H106.872H106.982H107.312L109.1 34.8181H110.503V34.6537C110.2 34.6262 109.98 34.5716 109.788 34.4619C109.623 34.3797 109.403 34.16 109.155 33.8584L108.055 32.5148C108.495 32.4325 108.825 32.2955 109.045 32.0762C109.265 31.8842 109.375 31.6377 109.375 31.3361C109.375 31.0893 109.293 30.8425 109.1 30.6506C108.907 30.4587 108.687 30.3216 108.412 30.2393C108.165 30.157 107.724 30.1295 107.174 30.1295H105.248ZM110.613 30.1295V30.2666H110.806C110.916 30.2666 111.053 30.2942 111.164 30.3491C111.246 30.3765 111.301 30.4313 111.328 30.4862C111.356 30.5684 111.384 30.7053 111.384 30.9521V33.9955C111.384 34.2697 111.356 34.4343 111.301 34.5166C111.219 34.6262 111.054 34.681 110.834 34.681H110.641V34.8181H112.924V34.681H112.704C112.567 34.681 112.457 34.6539 112.347 34.599C112.264 34.5716 112.209 34.5168 112.182 34.4619C112.154 34.3797 112.126 34.2423 112.126 33.9955V30.9521C112.126 30.6779 112.182 30.5133 112.237 30.431C112.319 30.3213 112.484 30.2666 112.704 30.2666H112.897V30.1295H110.613ZM115.071 30.1295V30.2666C115.236 30.294 115.373 30.3217 115.455 30.3491C115.565 30.3765 115.648 30.4312 115.703 30.5135C115.758 30.5683 115.813 30.6781 115.923 30.8975L117.904 34.9552H118.042L119.885 30.9521C119.995 30.7053 120.105 30.5407 120.243 30.431C120.325 30.3488 120.463 30.294 120.655 30.2666V30.1295H119.087V30.2666H119.142C119.335 30.294 119.445 30.3489 119.528 30.4037C119.61 30.4585 119.638 30.5406 119.638 30.5954C119.638 30.6777 119.555 30.8696 119.445 31.1438L118.207 33.8584L116.859 31.1165C116.721 30.8697 116.666 30.6778 116.666 30.5681C116.666 30.4859 116.694 30.4312 116.776 30.3764C116.831 30.3216 116.996 30.294 117.244 30.2666V30.1295H115.071ZM120.903 30.1295V30.2666H121.096C121.206 30.2666 121.343 30.2942 121.453 30.3491C121.536 30.3765 121.591 30.4313 121.618 30.4862C121.646 30.5684 121.674 30.7053 121.674 30.9521V33.9955C121.674 34.2697 121.646 34.4343 121.591 34.5166C121.508 34.6262 121.344 34.681 121.123 34.681H120.931V34.8181H123.214V34.681H122.994C122.856 34.681 122.747 34.6539 122.637 34.599C122.554 34.5716 122.499 34.5168 122.471 34.4619C122.444 34.3797 122.416 34.2423 122.416 33.9955V30.9521C122.416 30.6779 122.472 30.5133 122.527 30.431C122.609 30.3213 122.774 30.2666 122.994 30.2666H123.187V30.1295H120.903ZM123.6 30.1295V30.2666H123.792C124.012 30.2666 124.177 30.3215 124.26 30.4037C124.342 30.4585 124.37 30.6505 124.37 30.9521V33.9682C124.37 34.215 124.342 34.3518 124.315 34.4341C124.287 34.5164 124.232 34.5716 124.15 34.599C124.04 34.6539 123.93 34.681 123.792 34.681H123.6V34.8181H127.699L128.167 33.6394H128.002C127.837 33.941 127.671 34.1599 127.506 34.297C127.396 34.4067 127.259 34.4891 127.121 34.5166C126.983 34.544 126.763 34.5712 126.461 34.5712H125.553C125.388 34.5712 125.305 34.5713 125.25 34.5439C125.195 34.5165 125.168 34.4889 125.14 34.4341C125.113 34.3793 125.113 34.27 125.113 34.0507V32.5148H126.268C126.488 32.5148 126.654 32.5424 126.764 32.5972C126.846 32.6521 126.928 32.7067 126.983 32.789C127.011 32.8438 127.066 33.0087 127.094 33.2281H127.204V31.5829H127.066C127.066 31.8297 126.983 32.0216 126.846 32.1313C126.736 32.2136 126.543 32.2406 126.241 32.2406H125.085V30.3764H126.543C126.818 30.3764 126.984 30.4036 127.094 30.431C127.231 30.4859 127.341 30.5683 127.396 30.6506C127.479 30.7603 127.534 30.9249 127.589 31.1717H127.754L127.699 30.1295H123.6ZM134.935 30.1295V30.2666C135.1 30.2666 135.21 30.2665 135.293 30.2939C135.458 30.3213 135.567 30.4036 135.65 30.431C135.732 30.4584 135.843 30.568 136.008 30.7325V33.9955C136.008 34.2423 135.98 34.407 135.925 34.4893C135.843 34.6264 135.678 34.681 135.458 34.681H135.265V34.8181H137.108V34.681H136.915C136.695 34.681 136.558 34.6536 136.448 34.5439C136.365 34.4616 136.338 34.2971 136.338 33.9955V31.1165L139.832 34.9005H139.97V30.9521C139.97 30.7053 139.997 30.5406 140.052 30.4583C140.135 30.3212 140.3 30.2666 140.52 30.2666H140.712V30.1295H138.869V30.2393H139.062C139.282 30.2393 139.419 30.2667 139.529 30.3764C139.612 30.4587 139.639 30.6232 139.639 30.9248V33.6394L136.393 30.1295H134.962H134.935ZM146.793 30.1295V30.2666C147.013 30.2666 147.178 30.2664 147.261 30.3212C147.343 30.3761 147.426 30.4313 147.453 30.4862C147.508 30.5684 147.536 30.7054 147.536 30.9248V33.9955C147.536 34.2423 147.508 34.407 147.453 34.4893C147.371 34.6264 147.206 34.681 146.986 34.681H146.793V34.8181H148.636V34.681H148.443C148.223 34.681 148.086 34.6536 147.976 34.5439C147.893 34.4616 147.866 34.2971 147.866 33.9955V30.8696L149.902 34.8181V34.8454H150.122L152.158 30.8975V34.0228C152.158 34.2696 152.13 34.4343 152.075 34.5166C151.993 34.6537 151.827 34.7083 151.607 34.7083H151.415V34.8454H153.671V34.7083H153.478C153.258 34.7083 153.12 34.6809 153.01 34.5712C152.928 34.4889 152.901 34.3244 152.901 34.0228V30.9521C152.901 30.7053 152.928 30.5406 152.983 30.4583C153.066 30.3212 153.231 30.2666 153.451 30.2666H153.643V30.1295H152.13L150.232 33.8038L148.306 30.1295H146.793ZM64.0892 30.3764C64.722 30.3764 65.2446 30.5409 65.6298 30.9248C66.0425 31.3086 66.2354 31.8021 66.2354 32.4601C66.2354 33.1182 66.0425 33.6116 65.6298 33.9955C65.2171 34.3794 64.7218 34.5712 64.1166 34.5712C63.8965 34.5712 63.6213 34.5168 63.2912 34.4619V32.4601H64.8318V32.2133H63.2912V30.4862C63.5938 30.4039 63.8415 30.3764 64.0892 30.3764ZM107.367 30.3764C107.697 30.3764 107.972 30.4587 108.192 30.6506C108.385 30.8425 108.495 31.0618 108.495 31.3634C108.495 31.665 108.357 31.9115 108.11 32.1035C107.835 32.2954 107.45 32.4055 106.954 32.4055H106.872H106.761V30.431C107.009 30.4036 107.23 30.3764 107.367 30.3764ZM42.9591 30.4037C43.5919 30.4037 44.1151 30.5682 44.5002 30.9521C44.9129 31.336 45.1053 31.8294 45.1053 32.4875C45.1053 33.1455 44.9129 33.6389 44.5002 34.0228C44.0875 34.4067 43.5923 34.599 42.987 34.599C42.7669 34.599 42.4918 34.5441 42.1616 34.4893V30.5135C42.4643 30.4312 42.7115 30.4037 42.9591 30.4037ZM83.4583 30.4037C84.0911 30.4037 84.6137 30.5682 84.9989 30.9521C85.4116 31.336 85.604 31.8294 85.604 32.4875C85.604 33.1455 85.4116 33.6389 84.9989 34.0228C84.5862 34.4067 84.091 34.599 83.4857 34.599C83.2656 34.599 82.9905 34.5441 82.6603 34.4893V30.5135C82.963 30.4312 83.2107 30.4037 83.4583 30.4037ZM70.0872 31.0892L70.9948 32.9812H69.1516L70.0872 31.0892ZM89.4284 31.0892L90.3365 32.9812H88.4928L89.4284 31.0892ZM143.491 31.0892L144.399 32.9812H142.556L143.491 31.0892ZM125.828 35.2294C125.718 35.2294 125.608 35.2569 125.526 35.3391C125.443 35.4214 125.388 35.5037 125.388 35.6133C125.388 35.723 125.443 35.8053 125.526 35.8875C125.608 35.9698 125.718 35.9973 125.828 35.9973C125.938 35.9973 126.048 35.9698 126.131 35.8875C126.213 35.8053 126.268 35.723 126.268 35.6133C126.268 35.5037 126.213 35.4214 126.131 35.3391C126.048 35.2569 125.938 35.2294 125.828 35.2294Z" fill="black" fill-opacity="0.941176"/>
<defs>
<linearGradient id="paint0_linear_9243_83" x1="88.8794" y1="0.0273438" x2="88.1963" y2="25.9111" gradientUnits="userSpaceOnUse">
<stop stop-color="#0A4F25"/>
<stop offset="1" stop-color="#0F6C32"/>
</linearGradient>
<linearGradient id="paint1_linear_9243_83" x1="88.8785" y1="0.0274191" x2="88.1953" y2="25.9111" gradientUnits="userSpaceOnUse">
<stop stop-color="#0A4F25"/>
<stop offset="1" stop-color="#0F6C32"/>
</linearGradient>
</defs>
</svg>
