<svg width="193" height="36" viewBox="0 0 193 36" fill="none" xmlns="http://www.w3.org/2000/svg">
<path d="M46.3195 14.9339H34.7863L36.0986 21.0665H43.5687C43.7202 21.0665 43.8463 21.2179 43.7706 21.3693L42.9378 23.464C42.9125 23.5397 42.8116 23.6154 42.7359 23.6154H28.3256C27.9218 23.6154 27.6189 23.2116 27.7704 22.8078L31.7325 12.713C31.8083 12.4859 32.0355 12.3345 32.2878 12.3345H56.3891L58.8876 6H27.8966C27.4675 6 27.0385 6.12619 26.6852 6.37856L24.4391 7.89278C24.0858 8.14514 23.8082 8.47323 23.6567 8.87702L17.1456 25.5082C16.8932 26.1643 16.9689 26.9214 17.3727 27.5019L18.4327 29.0414C18.8365 29.6218 19.4926 29.9751 20.1993 29.9751H49.4994L55.4049 14.9339H46.3195Z" fill="#C32022"/>
<path d="M89.3496 21.0646L91.848 14.7302H67.8477L68.63 12.7365C68.7057 12.5093 68.9329 12.3579 69.1852 12.3579H92.7819L95.2802 6.02344H65.2735C64.8444 6.02344 64.4155 6.14962 64.0622 6.40199L61.816 7.91621C61.4627 8.16858 61.1851 8.49666 61.0337 8.90045L54.5225 25.5064C54.2702 26.1626 54.3459 26.9196 54.7497 27.5001L55.8096 29.0395C56.2134 29.6201 56.8695 29.9734 57.5762 29.9734H85.8417L88.3401 23.6389H65.1978C64.794 23.6389 64.4911 23.2351 64.6426 22.8312L65.324 21.0646H89.3496Z" fill="#C32022"/>
<path d="M126.093 6.02344L119.329 23.2603C119.254 23.4874 119.027 23.6389 118.774 23.6389C118.497 23.6389 118.27 23.4369 118.194 23.1846L114.585 6.04868H101.613C101.184 6.04868 100.755 6.17486 100.402 6.42723L98.1559 7.94145C97.8025 8.19382 97.525 8.5219 97.3735 8.92569L90.8624 25.5316C90.61 26.1878 90.6858 26.9449 91.0895 27.5254L92.1494 29.0648C92.5532 29.6453 93.2094 29.9985 93.916 29.9985H107.847L106.534 23.866H101.967C101.563 23.866 101.26 23.4622 101.411 23.0584L105.449 12.7617C105.525 12.5346 105.753 12.3832 106.005 12.3832C106.282 12.3832 106.509 12.5851 106.585 12.8374L110.194 29.9734H126.27L135.683 6.02344H126.093Z" fill="#C32022"/>
<path d="M158.976 27.5793L159.38 28.5888C159.708 29.4217 160.49 29.9517 161.373 29.9517H170.106L164.427 16.5508L159.128 25.7118C158.8 26.2923 158.724 26.9737 158.976 27.5793Z" fill="#060809"/>
<path d="M164.405 6.02344L143.635 23.5126C143.533 23.6136 143.408 23.6389 143.256 23.6389H143.003C142.599 23.6389 142.297 23.2351 142.448 22.8312L149.035 6.02344H139.193L131.571 25.5064C131.319 26.1626 131.395 26.9196 131.798 27.5001L132.858 29.0395C133.262 29.6201 133.918 29.9734 134.624 29.9734H148.202L164.43 16.5725L176.947 6.02344H164.405Z" fill="#060809"/>
</svg>
