<?xml version="1.0" standalone="no"?>
<!DOCTYPE svg PUBLIC "-//W3C//DTD SVG 1.1//EN" "http://www.w3.org/Graphics/SVG/1.1/DTD/svg11.dtd" >
<svg xmlns="http://www.w3.org/2000/svg" xmlns:xlink="http://www.w3.org/1999/xlink" version="1.1">
<metadata>
Created by FontForge 20170731 at Thu Nov  2 14:06:19 2017
 By Aleksey,,,
Copyright (C)2015 Commercial Type.
</metadata>
<defs>
<font id="SVN-SanomatSansBlack" horiz-adv-x="650" >
  <font-face 
    font-family="SVN-Sanomat Sans Black"
    font-weight="900"
    font-stretch="normal"
    units-per-em="1000"
    panose-1="0 0 0 0 0 0 0 0 0 0"
    ascent="790"
    descent="-210"
    x-height="550"
    cap-height="705"
    bbox="-234 -246 1271 1139"
    underline-thickness="68"
    underline-position="-209"
    unicode-range="U+0020-FB04"
  />
<missing-glyph horiz-adv-x="364" 
d="M298 0h-265v666h265v-666zM66 633v-600h199v600h-199z" />
    <glyph glyph-name="f_f" unicode="ff" horiz-adv-x="807" 
d="M438 0v387h-115v-387h-247v387h-61v163h61v10q0 89 58.5 134.5t167.5 45.5q70 0 105 -11v-143q-15 3 -38 3q-46 0 -46 -34v-5h115v12q0 97 57 140.5t172 43.5q83 0 120 -11v-144q-11 4 -49 4q-53 0 -53 -38v-7h99v-163h-99v-387h-247z" />
    <glyph glyph-name="f_i" unicode="fi" horiz-adv-x="752" 
d="M473 0v550h247v-550h-247zM422 387h-99v-387h-247v387h-61v163h61v12q0 97 57 140.5t172 43.5q83 0 120 -11v-144q-11 4 -49 4q-53 0 -53 -38v-7h99v-163zM473 598v130h247v-130h-247z" />
    <glyph glyph-name="f_l" unicode="fl" horiz-adv-x="750" 
d="M472 0v711l247 35v-746h-247zM422 387h-99v-387h-247v387h-61v163h61v12q0 97 57 140.5t172 43.5q83 0 120 -11v-144q-11 4 -49 4q-53 0 -53 -38v-7h99v-163z" />
    <glyph glyph-name="f_f_i" unicode="ffi" horiz-adv-x="1114" 
d="M835 0v550h247v-550h-247zM438 0v387h-115v-387h-247v387h-61v163h61v10q0 89 58.5 134.5t167.5 45.5q70 0 105 -11v-143q-15 3 -38 3q-46 0 -46 -34v-5h115v12q0 97 57 140.5t172 43.5q83 0 120 -11v-144q-11 4 -49 4q-53 0 -53 -38v-7h99v-163h-99v-387h-247zM835 598
v130h247v-130h-247z" />
    <glyph glyph-name="f_f_l" unicode="ffl" horiz-adv-x="1112" 
d="M834 0v711l247 35v-746h-247zM438 0v387h-115v-387h-247v387h-61v163h61v10q0 89 58.5 134.5t167.5 45.5q70 0 105 -11v-143q-15 3 -38 3q-46 0 -46 -34v-5h115v12q0 97 57 140.5t172 43.5q83 0 120 -11v-144q-11 4 -49 4q-53 0 -53 -38v-7h99v-163h-99v-387h-247z" />
    <glyph glyph-name=".notdef" horiz-adv-x="364" 
d="M298 0h-265v666h265v-666zM66 633v-600h199v600h-199z" />
    <glyph glyph-name=".null" horiz-adv-x="0" 
 />
    <glyph glyph-name="nonmarkingreturn" horiz-adv-x="333" 
 />
    <glyph glyph-name="space" unicode=" " horiz-adv-x="181" 
 />
    <glyph glyph-name="exclam" unicode="!" horiz-adv-x="351" 
d="M79 260l-45 445h283l-45 -445h-193zM47 0v212h257v-212h-257z" />
    <glyph glyph-name="quotedbl" unicode="&#x22;" horiz-adv-x="503" 
d="M236 705l-29 -289h-160l-29 289h218zM485 705l-29 -289h-159l-29 289h217z" />
    <glyph glyph-name="numbersign" unicode="#" horiz-adv-x="630" 
d="M335 323l8 58h-46l-8 -58h46zM294 0l15 120h-46l-15 -120h-173l15 120h-73v203h99l8 58h-78v203h103l14 106h173l-14 -106h46l14 106h173l-14 -106h72v-203h-97l-8 -58h76v-203h-102l-15 -120h-173z" />
    <glyph glyph-name="dollar" unicode="$" horiz-adv-x="560" 
d="M303 -125h-160l13 117q-83 12 -134 41v198l7 4q108 -62 196 -62q59 0 59 33q0 12 -9 16.5t-37 12.5q-9 3 -13 4l-44 11q-167 41 -167 208q0 99 53.5 160t154.5 78l10 93h160l-10 -92q71 -7 119 -28v-191l-8 -5q-78 43 -179 43q-55 0 -55 -24q0 -12 10.5 -18.5t37.5 -12.5
l42 -10q115 -27 155 -73.5t40 -140.5q0 -104 -57.5 -167.5t-171.5 -79.5z" />
    <glyph glyph-name="percent" unicode="%" horiz-adv-x="828" 
d="M208 346q-91 0 -144.5 50t-53.5 128q0 75 54 125.5t144 50.5q91 0 144.5 -50.5t53.5 -125.5q0 -78 -53 -128t-145 -50zM119 0l486 690h107l-486 -690h-107zM208 457q37 0 37 67q0 65 -37 65q-38 0 -38 -65q0 -67 38 -67zM620 -15q-91 0 -144.5 50t-53.5 127q0 75 54 126
t144 51q91 0 144.5 -51t53.5 -126q0 -77 -53 -127t-145 -50zM620 96q38 0 38 66t-38 66q-37 0 -37 -66t37 -66z" />
    <glyph glyph-name="ampersand" unicode="&#x26;" horiz-adv-x="756" 
d="M334 144q15 0 30 3l-106 149q-17 -26 -17 -61q0 -39 23.5 -65t69.5 -26zM481 0l-24 32q-63 -47 -159 -47q-139 0 -213 58.5t-74 162.5q0 91 42 143t122 85q-14 40 -14 82q0 88 66 146t187 58q106 0 161 -26v-175l-9 -6q-42 20 -78 20q-56 0 -56 -47q0 -20 9.5 -38.5
t37.5 -58.5l43 -61q16 47 23 93h187q-4 -58 -28 -133.5t-59 -133.5l101 -143v-11h-265z" />
    <glyph glyph-name="quotesingle" unicode="'" horiz-adv-x="253" 
d="M235 705l-29 -289h-159l-29 289h217z" />
    <glyph glyph-name="parenleft" unicode="(" horiz-adv-x="384" 
d="M379 -170h-187q-85 104 -127.5 214t-42.5 259q0 150 42.5 258t127.5 213h187q-66 -109 -101.5 -220t-35.5 -251q0 -141 35.5 -252.5t101.5 -220.5z" />
    <glyph glyph-name="parenright" unicode=")" horiz-adv-x="384" 
d="M192 -170h-187q66 109 101.5 220.5t35.5 252.5q0 140 -35.5 251t-101.5 220h187q85 -105 127.5 -213t42.5 -258q0 -149 -42.5 -259t-127.5 -214z" />
    <glyph glyph-name="asterisk" unicode="*" horiz-adv-x="444" 
d="M362 372l-94 86l27 -125h-146l27 124l-94 -85l-70 121l122 39l-122 39l70 121l94 -85l-27 124h146l-27 -125l94 86l70 -121l-121 -39l121 -39z" />
    <glyph glyph-name="plus" unicode="+" horiz-adv-x="534" 
d="M181 91v175h-161v159h161v176h172v-176h161v-159h-161v-175h-172z" />
    <glyph glyph-name="comma" unicode="," horiz-adv-x="313" 
d="M18 -87l22 299h253l7 -12l-91 -287h-191z" />
    <glyph glyph-name="hyphen" unicode="-" horiz-adv-x="366" 
d="M26 223v184h314v-184h-314z" />
    <glyph glyph-name="period" unicode="." horiz-adv-x="313" 
d="M28 0v212h257v-212h-257z" />
    <glyph glyph-name="slash" unicode="/" horiz-adv-x="443" 
d="M278 774h176l-321 -944h-176z" />
    <glyph glyph-name="zero" unicode="0" horiz-adv-x="705" 
d="M353 -12q-153 0 -246 93.5t-93 263.5q0 169 93 260.5t246 91.5t245.5 -91.5t92.5 -260.5q0 -170 -92.5 -263.5t-245.5 -93.5zM353 170q41 0 55 42.5t14 132.5q0 89 -14 129.5t-55 40.5q-42 0 -56 -40.5t-14 -129.5q0 -90 14 -132.5t56 -42.5z" />
    <glyph glyph-name="one" unicode="1" horiz-adv-x="433" 
d="M389 0h-260v400l-105 -61l-7 4v212l234 135h138v-690z" />
    <glyph glyph-name="two" unicode="2" horiz-adv-x="536" 
d="M18 0v112l171 200q38 46 53.5 72t15.5 52q0 68 -84 68q-69 0 -139 -46l-10 6v182q75 51 216 51q136 0 206.5 -57t70.5 -168q0 -66 -30 -117t-98 -126l-50 -53h182v-176h-504z" />
    <glyph glyph-name="three" unicode="3" horiz-adv-x="564" 
d="M257 -12q-145 0 -240 53v173l10 7q77 -46 181 -46q83 0 83 48q0 44 -71 44h-86v159h74q69 0 69 43q0 44 -84 44q-82 0 -149 -35l-12 5v169q72 45 229 45q119 0 195.5 -48t76.5 -135q0 -62 -31 -98t-98 -53q146 -32 146 -168q0 -98 -74.5 -152.5t-218.5 -54.5z" />
    <glyph glyph-name="four" unicode="4" horiz-adv-x="640" 
d="M302 257v116l-89 -116h89zM626 101h-88v-101h-236v101h-299v105l365 484h170v-433h88v-156z" />
    <glyph glyph-name="five" unicode="5" horiz-adv-x="559" 
d="M252 -12q-159 0 -234 47v168l11 7q79 -42 158 -42q51 0 74 13.5t23 42.5q0 30 -24.5 40.5t-84.5 10.5q-68 0 -118 -23l-11 8v426h467v-176h-256v-65h17q271 0 271 -221q0 -110 -75.5 -173t-217.5 -63z" />
    <glyph glyph-name="six" unicode="6" horiz-adv-x="634" 
d="M624 228q0 -114 -76 -177t-213 -63q-144 0 -232 82t-88 236q0 194 98.5 292.5t264.5 98.5q133 0 200 -32v-183l-13 -5q-69 37 -150 37q-65 0 -96 -25.5t-41 -87.5q43 39 132 39q93 0 153.5 -50t60.5 -162zM325 159q24 0 36 17t12 57q0 39 -14 52.5t-44 13.5q-20 0 -42 -8
q2 -76 15 -104t37 -28z" />
    <glyph glyph-name="seven" unicode="7" horiz-adv-x="552" 
d="M339 0h-267q20 106 59 206t103 228l31 61h-247v191h520v-117l-74 -157q-87 -185 -125 -412z" />
    <glyph glyph-name="eight" unicode="8" horiz-adv-x="631" 
d="M317 -12q-150 0 -227 50t-77 139q0 50 33.5 88t93.5 55q-110 59 -110 169q0 98 81 153t202 55q60 0 109.5 -9t90 -29.5t63.5 -57t23 -86.5q0 -95 -114 -130q68 -31 100.5 -74.5t32.5 -110.5q0 -96 -79 -154t-222 -58zM276 503q0 -24 17 -39.5t58 -30.5q26 32 26 59
q0 53 -53 53q-22 0 -35 -11t-13 -31zM309 142q57 0 57 50q0 25 -20 41.5t-64 32.5q-36 -29 -36 -67q0 -57 63 -57z" />
    <glyph glyph-name="nine" unicode="9" horiz-adv-x="634" 
d="M319 386q20 0 42 8q-2 77 -15 104.5t-37 27.5t-36 -16.5t-12 -56.5q0 -39 14.5 -53t43.5 -14zM246 -12q-129 0 -204 33v182l13 5q69 -37 154 -37q74 0 107 26t41 87q-43 -39 -133 -39q-93 0 -153.5 51t-60.5 161q0 113 78.5 176.5t214.5 63.5q143 0 229.5 -79.5
t86.5 -238.5q0 -391 -373 -391z" />
    <glyph glyph-name="colon" unicode=":" horiz-adv-x="313" 
d="M28 300v212h257v-212h-257zM28 0v212h257v-212h-257z" />
    <glyph glyph-name="semicolon" unicode=";" horiz-adv-x="318" 
d="M37 300v212h257v-212h-257zM18 -87l22 299h253l7 -12l-91 -287h-191z" />
    <glyph glyph-name="less" unicode="&#x3c;" horiz-adv-x="495" 
d="M456 61l-431 236v97l431 235l7 -6v-180l-192 -98l192 -98v-180z" />
    <glyph glyph-name="equal" unicode="=" horiz-adv-x="536" 
d="M20 339v143h496v-143h-496zM20 142v143h496v-143h-496z" />
    <glyph glyph-name="greater" unicode="&#x3e;" horiz-adv-x="495" 
d="M39 61l-7 6v180l192 98l-192 98v180l7 6l431 -235v-97z" />
    <glyph glyph-name="question" unicode="?" horiz-adv-x="503" 
d="M18 481v193q82 46 212 46q123 0 190 -50t67 -148q0 -64 -27 -108t-93 -88q-27 -18 -36 -29t-9 -31v-6h-225v17q0 59 19 91.5t63 65.5q22 17 29 23t13 14.5t6 17.5q0 30 -52 30q-79 0 -147 -44zM78 0v212h257v-212h-257z" />
    <glyph glyph-name="at" unicode="@" horiz-adv-x="903" 
d="M461 -181q-198 0 -321 116t-123 296q0 198 132 330.5t324 132.5q183 0 299 -113.5t116 -284.5q0 -125 -72.5 -195.5t-178.5 -70.5q-97 0 -138 57q-39 -57 -109 -57q-82 0 -131.5 57.5t-49.5 144.5q0 114 59.5 183.5t146.5 69.5q66 0 99 -49l4 32h167l-34 -277
q-5 -41 3 -57t32 -16q43 0 82 43.5t39 134.5q0 151 -92 239t-244 88q-74 0 -141 -28t-119 -78t-82.5 -126t-30.5 -165q0 -150 100 -243t266 -93q112 0 194 45l7 -5v-67q-79 -44 -204 -44zM438 184q27 0 47 24l13 103q-21 21 -49 21q-29 0 -46.5 -24.5t-17.5 -61.5
q0 -62 53 -62z" />
    <glyph glyph-name="A" unicode="A" horiz-adv-x="777" 
d="M405 239l-44 141l-45 -141h89zM481 0l-22 71h-196l-22 -71h-235v10l266 695h234l266 -695v-10h-291z" />
    <glyph glyph-name="B" unicode="B" horiz-adv-x="693" 
d="M348 533h-38v-101h37q31 0 44 11t13 39q0 51 -56 51zM346 282h-36v-110h36q37 0 53.5 12.5t16.5 43.5t-16.5 42.5t-53.5 11.5zM39 0v705h351q265 0 265 -182q0 -117 -124 -146q80 -20 115.5 -62.5t35.5 -115.5q0 -199 -289 -199h-354z" />
    <glyph glyph-name="C" unicode="C" horiz-adv-x="661" 
d="M409 -15q-179 0 -286.5 98t-107.5 267q0 172 110.5 271t294.5 99q128 0 210 -47v-206l-12 -5q-63 49 -155 49q-73 0 -116 -42t-43 -119q0 -78 42.5 -118t107.5 -40q56 0 89 11t70 39l9 -6v-213q-71 -38 -213 -38z" />
    <glyph glyph-name="D" unicode="D" horiz-adv-x="772" 
d="M348 507h-27v-309h27q125 0 125 152q0 79 -33 118t-92 39zM39 0v705h323q85 0 154.5 -19.5t124.5 -60.5t85.5 -111t30.5 -164t-30.5 -163.5t-85.5 -109t-124.5 -58.5t-154.5 -19h-323z" />
    <glyph glyph-name="E" unicode="E" horiz-adv-x="610" 
d="M39 0v705h534v-192h-256v-67h215v-177h-215v-77h265v-192h-543z" />
    <glyph glyph-name="F" unicode="F" horiz-adv-x="575" 
d="M522 229h-205v-229h-278v705h512v-192h-234v-97h205v-187z" />
    <glyph glyph-name="G" unicode="G" horiz-adv-x="741" 
d="M715 415v-343q-114 -87 -311 -87q-181 0 -285 98t-104 272q0 170 113 267.5t300 97.5q172 0 248 -47v-208l-9 -6q-36 18 -56.5 27t-59.5 17.5t-82 8.5q-168 0 -168 -166q0 -167 128 -167q20 0 38 3v81h-81v152h329z" />
    <glyph glyph-name="H" unicode="H" horiz-adv-x="800" 
d="M477 0v249h-154v-249h-284v705h284v-240h154v240h284v-705h-284z" />
    <glyph glyph-name="I" unicode="I" horiz-adv-x="366" 
d="M41 0v705h284v-705h-284z" />
    <glyph glyph-name="J" unicode="J" horiz-adv-x="362" 
d="M-50 -219v185q52 4 70.5 24t18.5 74v641h284v-632q0 -59 -8.5 -100.5t-32 -78.5t-65 -60t-108 -37t-159.5 -16z" />
    <glyph glyph-name="K" unicode="K" horiz-adv-x="768" 
d="M462 0l-113 225l-26 -36v-189h-284v705h284v-222l162 222h271v-8l-202 -268l213 -421v-8h-305z" />
    <glyph glyph-name="L" unicode="L" horiz-adv-x="570" 
d="M39 0v705h282v-493h225v-212h-507z" />
    <glyph glyph-name="M" unicode="M" horiz-adv-x="910" 
d="M390 0l-133 330v-330h-218v705h312l99 -251l99 251h322v-705h-253v327l-133 -327h-95z" />
    <glyph glyph-name="N" unicode="N" horiz-adv-x="753" 
d="M534 0l-262 286v-286h-233v705h189l253 -276v276h233v-705h-180z" />
    <glyph glyph-name="O" unicode="O" horiz-adv-x="818" 
d="M409 -15q-182 0 -288 103.5t-106 266.5q0 162 106 263.5t288 101.5t288 -101.5t106 -263.5q0 -163 -106 -266.5t-288 -103.5zM409 185q55 0 81.5 45.5t26.5 124.5q0 78 -27.5 122t-80.5 44t-80.5 -44t-27.5 -122q0 -79 26.5 -124.5t81.5 -45.5z" />
    <glyph glyph-name="P" unicode="P" horiz-adv-x="678" 
d="M348 516h-30v-152h29q34 0 49.5 18t15.5 60q0 74 -64 74zM352 190h-34v-190h-279v705h312q317 0 317 -264q0 -128 -82.5 -189.5t-233.5 -61.5z" />
    <glyph glyph-name="Q" unicode="Q" horiz-adv-x="818" 
d="M654 -187q-139 0 -219 50.5t-112 128.5q-144 24 -226 123t-82 240q0 162 106 263.5t288 101.5t288 -101.5t106 -263.5q0 -125 -61 -212.5t-177 -123.5q21 -26 110 -26q43 0 70 11l6 -5v-176q-37 -10 -97 -10zM409 185q55 0 81.5 45.5t26.5 124.5q0 78 -27.5 122t-80.5 44
t-80.5 -44t-27.5 -122q0 -79 26.5 -124.5t81.5 -45.5z" />
    <glyph glyph-name="R" unicode="R" horiz-adv-x="714" 
d="M348 523h-30v-135h29q40 0 57 17t17 51q0 35 -17 51t-56 16zM431 0l-79 219h-34v-219h-279v705h343q153 0 226 -61.5t73 -173.5q0 -120 -78 -179l109 -279v-12h-281z" />
    <glyph glyph-name="S" unicode="S" horiz-adv-x="583" 
d="M257 -13q-141 0 -232 48v201l7 4q112 -65 203 -65q62 0 62 33q0 7 -3 11.5t-13.5 9t-17.5 6.5l-28 8l-45 11q-173 42 -173 215q0 124 76.5 186.5t221.5 62.5q130 0 206 -34v-194l-8 -5q-87 46 -185 46q-57 0 -57 -25q0 -12 11 -19t38 -13l44 -10q119 -27 161.5 -76
t42.5 -145q0 -123 -78 -189.5t-233 -66.5z" />
    <glyph glyph-name="T" unicode="T" horiz-adv-x="654" 
d="M635 492h-166v-492h-284v492h-166v213h616v-213z" />
    <glyph glyph-name="U" unicode="U" horiz-adv-x="750" 
d="M382 -12q-178 0 -263 77.5t-85 232.5v407h284v-406q0 -47 18.5 -69t60.5 -22t60 22t18 69v406h241v-407q0 -147 -80.5 -228.5t-253.5 -81.5z" />
    <glyph glyph-name="V" unicode="V" horiz-adv-x="769" 
d="M496 0h-224l-269 695v10h296l103 -280l105 280h259v-10z" />
    <glyph glyph-name="W" unicode="W" horiz-adv-x="1064" 
d="M623 0l-99 270l-106 -270h-198l-218 695v10h294l87 -280l39 104l-46 166v10h282l77 -249l73 249h250l4 -10l-213 -695h-226z" />
    <glyph glyph-name="X" unicode="X" horiz-adv-x="753" 
d="M435 0l-88 188l-92 -188h-250v10l194 361l-184 324v10h312l72 -154l79 154h249v-10l-181 -323l202 -362v-10h-313z" />
    <glyph glyph-name="Y" unicode="Y" horiz-adv-x="700" 
d="M493 0h-284v267l-209 428v10h287l85 -196l81 196h247v-10l-207 -421v-274z" />
    <glyph glyph-name="Z" unicode="Z" horiz-adv-x="638" 
d="M617 0h-603v113l249 396h-233v196h580v-126l-239 -382h246v-197z" />
    <glyph glyph-name="bracketleft" unicode="[" horiz-adv-x="437" 
d="M55 -170v944h342v-157h-130v-630h130v-157h-342z" />
    <glyph glyph-name="backslash" unicode="\" horiz-adv-x="443" 
d="M165 774l321 -944h-176l-321 944h176z" />
    <glyph glyph-name="bracketright" unicode="]" horiz-adv-x="437" 
d="M40 -170v157h130v630h-130v157h342v-944h-342z" />
    <glyph glyph-name="asciicircum" unicode="^" horiz-adv-x="575" 
d="M220 367h-210l216 338h123l216 -338h-210l-68 105z" />
    <glyph glyph-name="underscore" unicode="_" horiz-adv-x="457" 
d="M-6 -151v101h469v-101h-469z" />
    <glyph glyph-name="grave" unicode="`" horiz-adv-x="400" 
d="M142 586l-117 175h225l60 -175h-168z" />
    <glyph glyph-name="a" unicode="a" horiz-adv-x="593" 
d="M282 134q26 0 40 17v73l-38 -5q-38 -6 -38 -42q0 -43 36 -43zM355 0l-14 62q-51 -75 -157 -75q-76 0 -124 41.5t-48 124.5q0 85 55 123t163 49l92 9q-2 30 -21.5 41.5t-67.5 11.5q-92 0 -164 -45l-11 3v174q77 44 233 44q142 0 209 -56.5t67 -185.5v-321h-212z" />
    <glyph glyph-name="b" unicode="b" horiz-adv-x="662" 
d="M406 -13q-101 0 -159 68l-29 -55h-189v711l247 35v-260q53 77 154 77q99 0 159 -72.5t60 -214.5q0 -145 -67 -217t-176 -72zM329 159q68 0 68 117q0 104 -66 104q-36 0 -55 -22v-186q25 -13 53 -13z" />
    <glyph glyph-name="c" unicode="c" horiz-adv-x="517" 
d="M333 -13q-156 0 -239 73.5t-83 215.5q0 140 89 213.5t233 73.5q108 0 158 -33v-169l-10 -4q-45 33 -106 33q-48 0 -78.5 -28t-30.5 -86q0 -60 30 -89.5t79 -29.5q60 0 112 35l11 -4v-161q-59 -40 -165 -40z" />
    <glyph glyph-name="d" unicode="d" horiz-adv-x="661" 
d="M331 170q31 0 54 16v188q-23 17 -52 17q-68 0 -68 -117q0 -104 66 -104zM428 0l-23 73q-55 -86 -168 -86q-104 0 -164 72t-60 215q0 144 63.5 216.5t163.5 72.5q91 0 145 -57v205l247 35v-746h-204z" />
    <glyph glyph-name="e" unicode="e" horiz-adv-x="597" 
d="M313 412q-27 0 -42 -16.5t-21 -55.5h115q-2 38 -13.5 55t-38.5 17zM574 178v-155q-81 -36 -217 -36q-346 0 -346 296q0 120 81 200t216 80q150 0 221 -82.5t54 -262.5h-328q11 -36 40.5 -51t89.5 -15q96 0 180 30z" />
    <glyph glyph-name="f" unicode="f" horiz-adv-x="445" 
d="M422 387h-99v-387h-247v387h-61v163h61v12q0 97 57 140.5t172 43.5q83 0 120 -11v-144q-11 4 -49 4q-53 0 -53 -38v-7h99v-163z" />
    <glyph glyph-name="g" unicode="g" horiz-adv-x="617" 
d="M289 308q43 0 43 60q0 61 -43 61t-43 -61q0 -60 43 -60zM285 -222q-151 0 -221 30.5t-70 91.5q0 39 23 62h195l5 -4q-2 -6 -2 -11q0 -31 71 -31q91 0 91 31q0 21 -28 22l-159 6q-80 2 -120 37.5t-40 86.5q0 91 88 133q-93 46 -93 143q0 84 70 135.5t193 51.5
q87 0 153 -29l168 24v-165h-59q3 -16 3 -36q0 -68 -68 -112t-197 -44q-20 0 -52 2q-15 -4 -15 -17q0 -14 26 -16l172 -7q194 -8 194 -173q0 -101 -82.5 -156t-245.5 -55z" />
    <glyph glyph-name="h" unicode="h" 
d="M320 372q-24 0 -44 -17v-355h-247v711l247 35v-272q65 89 172 89q81 0 128.5 -51.5t47.5 -163.5v-348h-247v311q0 61 -57 61z" />
    <glyph glyph-name="i" unicode="i" horiz-adv-x="311" 
d="M32 598v130h247v-130h-247zM32 0v550h247v-550h-247z" />
    <glyph glyph-name="j" unicode="j" horiz-adv-x="311" 
d="M-31 -195v169q36 6 49.5 20t13.5 52v504h247v-520q0 -117 -73.5 -166t-236.5 -59zM32 598v130h247v-130h-247z" />
    <glyph glyph-name="k" unicode="k" horiz-adv-x="635" 
d="M371 0l-72 155l-23 -32v-123h-247v711l247 35v-385l121 189h235v-10l-146 -213l146 -317v-10h-261z" />
    <glyph glyph-name="l" unicode="l" horiz-adv-x="309" 
d="M31 0v711l247 35v-746h-247z" />
    <glyph glyph-name="m" unicode="m" horiz-adv-x="958" 
d="M312 372q-19 0 -36 -14v-358h-247v550h217l13 -82q63 95 170 95q111 0 150 -91q64 91 178 91q78 0 126.5 -52t48.5 -163v-348h-247v313q0 59 -45 59q-19 0 -36 -14v-358h-247v313q0 59 -45 59z" />
    <glyph glyph-name="n" unicode="n" 
d="M320 372q-24 0 -44 -15v-357h-247v550h217l14 -87q69 100 181 100q81 0 132 -52t51 -163v-348h-247v311q0 61 -57 61z" />
    <glyph glyph-name="o" unicode="o" horiz-adv-x="660" 
d="M330 -13q-139 0 -229 79.5t-90 209.5q0 131 89.5 209t229.5 78t229.5 -78t89.5 -209q0 -130 -90 -209.5t-229 -79.5zM330 156q67 0 67 119q0 120 -67 120t-67 -120q0 -119 67 -119z" />
    <glyph glyph-name="p" unicode="p" horiz-adv-x="662" 
d="M329 159q68 0 68 117q0 104 -66 104q-36 0 -55 -22v-181q22 -18 53 -18zM426 -13q-92 0 -150 58v-225h-247v730h217l15 -86q54 99 169 99q99 0 159 -72.5t60 -214.5q0 -144 -63 -216.5t-160 -72.5z" />
    <glyph glyph-name="q" unicode="q" horiz-adv-x="661" 
d="M632 -180h-247v242q-55 -75 -153 -75q-99 0 -159 72.5t-60 214.5q0 144 64.5 216.5t162.5 72.5q99 0 158 -67l10 54h224v-730zM331 170q33 0 54 21v183q-23 17 -52 17q-68 0 -68 -117q0 -104 66 -104z" />
    <glyph glyph-name="r" unicode="r" horiz-adv-x="488" 
d="M407 321q-87 0 -131 -32v-289h-247v550h216l16 -118q27 51 68.5 87.5t97.5 36.5q36 0 45 -4v-231l-6 -5q-27 5 -59 5z" />
    <glyph glyph-name="s" unicode="s" horiz-adv-x="488" 
d="M225 -13q-123 0 -208 45v158l8 4q71 -51 175 -51q55 0 55 21q0 9 -8 14t-31 9l-46 8q-79 13 -119 50.5t-40 119.5q0 95 63 146.5t183 51.5q112 0 187 -29v-153l-8 -4q-64 35 -167 35q-29 0 -38.5 -4.5t-9.5 -14.5q0 -9 4.5 -12.5t19.5 -5.5l44 -8q102 -16 145.5 -55
t43.5 -118q0 -99 -63 -153t-190 -54z" />
    <glyph glyph-name="t" unicode="t" horiz-adv-x="434" 
d="M407 166v-161q-55 -15 -137 -15q-99 0 -150.5 36t-51.5 133v228h-57v163h57v79l247 38v-117h96v-163h-96v-177q0 -25 9.5 -35t32.5 -10q26 0 42 6z" />
    <glyph glyph-name="u" unicode="u" 
d="M404 0l-13 78q-65 -91 -171 -91q-87 0 -140.5 53.5t-53.5 161.5v348h247v-311q0 -31 12 -46t43 -15q28 0 46 13v359h247v-550h-217z" />
    <glyph glyph-name="v" unicode="v" horiz-adv-x="637" 
d="M392 0h-144l-247 541v9h261l73 -182l71 182h230v-9z" />
    <glyph glyph-name="w" unicode="w" horiz-adv-x="848" 
d="M522 0l-98 221l-96 -221h-138l-187 540v10h245l54 -188l75 188h108l79 -193l54 193h227v-11l-183 -539h-140z" />
    <glyph glyph-name="x" unicode="x" horiz-adv-x="639" 
d="M363 0l-67 122l-68 -122h-220v12l168 273l-158 252v13h268l60 -111l58 111h222v-10l-158 -267l163 -261v-12h-268z" />
    <glyph glyph-name="y" unicode="y" horiz-adv-x="649" 
d="M94 -194v175q53 3 74.5 10.5t29.5 28.5l2 5l-194 515v10h261l75 -251l79 251h222v-10l-184 -503q-47 -132 -121.5 -177.5t-243.5 -53.5z" />
    <glyph glyph-name="z" unicode="z" horiz-adv-x="529" 
d="M510 0h-496v65l191 321h-175v164h479v-76l-184 -310h185v-164z" />
    <glyph glyph-name="braceleft" unicode="{" horiz-adv-x="420" 
d="M380 -12v-158q-87 0 -146.5 11.5t-91.5 31t-46 50.5t-13.5 63.5t11.5 76.5l21 87q10 43 -8.5 61t-81.5 20v143q62 2 81 20.5t9 61.5l-20 84q-11 45 -11.5 77t13 63.5t45.5 50.5t91.5 31t146.5 12v-158q-57 0 -75.5 -17t-7.5 -61l22 -97q15 -63 -1 -91.5t-80 -46.5
q64 -17 79.5 -46t1.5 -93l-22 -98q-11 -45 7.5 -61.5t75.5 -16.5z" />
    <glyph glyph-name="bar" unicode="|" horiz-adv-x="239" 
d="M41 -170v944h157v-944h-157z" />
    <glyph glyph-name="braceright" unicode="}" horiz-adv-x="420" 
d="M40 -170v158q57 0 75 16.5t8 61.5l-22 98q-14 64 1.5 93t79.5 46q-64 18 -80 46.5t-1 91.5l22 97q10 45 -8 61.5t-75 16.5v158q87 0 146.5 -12t91.5 -31t45.5 -50.5t13 -63.5t-11.5 -77l-20 -84q-10 -43 8.5 -61.5t81.5 -20.5v-143q-63 -2 -81.5 -20t-8.5 -61l21 -87
q11 -44 11.5 -76.5t-13.5 -63.5t-46 -50.5t-91.5 -31t-146.5 -11.5z" />
    <glyph glyph-name="asciitilde" unicode="~" horiz-adv-x="466" 
d="M451 427v-163q-48 -67 -124 -67q-48 0 -113.5 23t-91.5 23q-53 0 -99 -45l-8 4v165q42 64 124 64q48 0 114.5 -23t95.5 -23q28 0 47.5 10.5t45.5 35.5z" />
    <glyph glyph-name="exclamdown" unicode="&#xa1;" horiz-adv-x="351" 
d="M304 570v-212h-257v212h257zM272 310l45 -445h-283l45 445h193z" />
    <glyph glyph-name="cent" unicode="&#xa2;" horiz-adv-x="517" 
d="M498 188v-161q-59 -40 -164 -40l-9 -92h-145l11 112q-180 60 -180 269q0 119 63.5 190t173.5 90l7 79h145l-7 -76q58 -7 94 -29v-169l-10 -4q-45 33 -104 33q-48 0 -77.5 -28t-29.5 -86q0 -60 30 -89.5t79 -29.5q60 0 112 35z" />
    <glyph glyph-name="sterling" unicode="&#xa3;" horiz-adv-x="622" 
d="M587 176v-176h-567v107q38 34 52.5 62.5t22.5 86.5l2 12h-48v122h63l10 79q13 105 77 166.5t186 61.5q116 0 195 -38v-166l-11 -7q-54 28 -97 28q-42 0 -65 -17t-31 -63l-7 -44h145v-122h-166q-12 -58 -52 -92h291z" />
    <glyph glyph-name="yen" unicode="&#xa5;" horiz-adv-x="672" 
d="M624 147h-145v-147h-284v147h-145v94h145v31h-145v92h125l-175 316v10h287l70 -161l68 161h247v-10l-177 -316h129v-92h-145v-31h145v-94z" />
    <glyph glyph-name="brokenbar" unicode="&#xa6;" horiz-adv-x="239" 
d="M41 361v413h157v-413h-157zM41 -170v443h157v-443h-157z" />
    <glyph glyph-name="section" unicode="&#xa7;" horiz-adv-x="550" 
d="M264 250l63 -28q9 12 9 42t-49 55l-59 30q-17 -23 -17 -45q0 -30 53 -54zM247 -144q-109 0 -185 37v161l8 4q80 -49 156 -49q50 0 50 20q0 11 -8 18t-30 16l-49 21q-102 43 -137 84t-35 110q0 89 95 147q-49 51 -49 123q0 85 65 127.5t173 42.5q94 0 177 -32v-153l-8 -4
q-74 36 -150 36q-36 0 -36 -20q0 -10 6.5 -15.5t25.5 -15.5l6 -3l38 -19q102 -51 137.5 -89t35.5 -99q0 -54 -22 -89t-67 -63q53 -50 53 -126q0 -84 -69.5 -127t-180.5 -43z" />
    <glyph glyph-name="dieresis" unicode="&#xa8;" horiz-adv-x="400" 
d="M-10 586v164h193v-164h-193zM217 586v164h193v-164h-193z" />
    <glyph glyph-name="copyright" unicode="&#xa9;" horiz-adv-x="774" 
d="M24 352q0 160 104 264t259 104t259 -104t104 -264q0 -159 -104 -263t-259 -104t-259 104t-104 263zM674 352q0 129 -81.5 214t-205.5 85q-123 0 -205 -85t-82 -214q0 -126 82 -212t205 -86t205 85.5t82 212.5zM420 153q-109 0 -167 52t-58 151q0 98 62 149.5t162 51.5
q74 0 109 -23v-119l-7 -3q-30 24 -73 24q-34 0 -54 -20t-20 -60q0 -43 21 -63.5t55 -20.5q43 0 78 25l8 -3v-113q-43 -28 -116 -28z" />
    <glyph glyph-name="ordfeminine" unicode="&#xaa;" horiz-adv-x="508" 
d="M241 350q23 0 33 15v58l-31 -4q-31 -4 -31 -34q0 -35 29 -35zM300 242l-11 50q-43 -61 -127 -61q-62 0 -101 33.5t-39 100.5q0 70 44.5 100.5t132.5 39.5l75 7q-2 24 -18 33.5t-55 9.5q-73 0 -132 -36l-9 2v141q61 36 188 36q116 0 170 -46t54 -150v-260h-172z" />
    <glyph glyph-name="guillemotleft" unicode="&#xab;" horiz-adv-x="454" 
d="M111 66l-99 194l109 194h137l-106 -194l96 -194h-137zM294 66l-99 194l109 194h137l-106 -194l96 -194h-137z" />
    <glyph glyph-name="registered" unicode="&#xae;" horiz-adv-x="582" 
d="M20 443q0 119 78 196.5t193 77.5t193 -77.5t78 -196.5q0 -118 -78 -196t-193 -78t-193 78t-78 196zM501 443q0 95 -59 158t-151 63q-90 0 -150.5 -63.5t-60.5 -157.5q0 -93 60.5 -157t150.5 -64q91 0 150.5 63.5t59.5 157.5zM288 510h-11v-51h11q28 0 28 26q0 25 -28 25z
M320 312l-30 83h-13v-83h-106v267h130q114 0 114 -89q0 -46 -30 -68l41 -106v-4h-106z" />
    <glyph glyph-name="overscore" unicode="&#xaf;" horiz-adv-x="400" 
d="M18 599v136h364v-136h-364z" />
    <glyph glyph-name="degree" unicode="&#xb0;" horiz-adv-x="449" 
d="M45 519q0 75 51 126.5t128 51.5t128.5 -51.5t51.5 -126.5q0 -74 -51.5 -125.5t-128.5 -51.5t-128 51.5t-51 125.5zM304 518q0 37 -22.5 62t-57.5 25t-57 -25t-22 -62q0 -35 22.5 -59.5t56.5 -24.5q35 0 57.5 24.5t22.5 59.5z" />
    <glyph glyph-name="acute" unicode="&#xb4;" horiz-adv-x="400" 
d="M279 586h-168l60 175h225z" />
    <glyph glyph-name="paragraph" unicode="&#xb6;" horiz-adv-x="541" 
d="M502 -130h-81v835h81v-835zM345 -130h-82v405h-30q-218 0 -218 214q0 216 218 216h112v-835z" />
    <glyph glyph-name="middot" unicode="&#xb7;" horiz-adv-x="303" 
d="M23 207v212h257v-212h-257z" />
    <glyph glyph-name="cedilla" unicode="&#xb8;" horiz-adv-x="400" 
d="M89 -219v87l9 4q30 -17 57 -17q36 0 36 29q0 30 -59 35v86h95v-40q43 -9 67.5 -30.5t24.5 -70.5q0 -51 -35.5 -79t-97.5 -28q-58 0 -97 24z" />
    <glyph glyph-name="ordmasculine" unicode="&#xba;" horiz-adv-x="559" 
d="M280 231q-113 0 -186 64t-73 170t72.5 169.5t186.5 63.5q113 0 185.5 -63.5t72.5 -169.5t-72.5 -170t-185.5 -64zM280 368q54 0 54 96q0 97 -54 97q-55 0 -55 -97q0 -96 55 -96z" />
    <glyph glyph-name="guillemotright" unicode="&#xbb;" horiz-adv-x="454" 
d="M23 66l96 194l-106 194h137l109 -194l-99 -194h-137zM206 66l96 194l-106 194h137l109 -194l-99 -194h-137z" />
    <glyph glyph-name="onequarter" unicode="&#xbc;" horiz-adv-x="819" 
d="M73 0l554 690h114l-554 -690h-114zM260 298h-166v208l-77 -39l-4 2v136l160 85h87v-392zM596 155v69l-51 -69h51zM797 57h-53v-57h-148v57h-177v65l200 270h125v-237h53v-98z" />
    <glyph glyph-name="onehalf" unicode="&#xbd;" horiz-adv-x="856" 
d="M80 0l554 690h114l-554 -690h-114zM260 298h-166v208l-77 -39l-4 2v136l160 85h87v-392zM509 0v78l111 110q27 27 35 37.5t8 22.5q0 15 -12.5 21t-41.5 6q-46 0 -89 -29l-7 4v116q47 33 141 33q168 0 168 -129q0 -43 -14.5 -69t-55.5 -64l-25 -24h104v-113h-322z" />
    <glyph glyph-name="threequarters" unicode="&#xbe;" horiz-adv-x="842" 
d="M96 0l554 690h114l-554 -690h-114zM167 291q-90 0 -146 33v111l6 4q47 -29 112 -29q47 0 47 22q0 19 -41 19h-54v89h48q38 0 38 18q0 22 -47 22q-55 0 -96 -22l-7 3v109q45 27 140 27q71 0 117.5 -27.5t46.5 -79.5q0 -36 -18 -55.5t-59 -29.5q48 -9 69 -30.5t21 -60.5
q0 -123 -177 -123zM619 155v69l-51 -69h51zM820 57h-53v-57h-148v57h-177v65l200 270h125v-237h53v-98z" />
    <glyph glyph-name="questiondown" unicode="&#xbf;" horiz-adv-x="503" 
d="M425 570v-212h-257v212h257zM485 89v-193q-82 -46 -212 -46q-123 0 -190 50t-67 148q0 63 27 107.5t93 88.5q27 18 36 29t9 31v6h225v-17q0 -60 -18.5 -91.5t-63.5 -65.5q-22 -17 -29 -23t-13 -14.5t-6 -17.5q0 -30 52 -30q79 0 147 44z" />
    <glyph glyph-name="Agrave" unicode="&#xc0;" horiz-adv-x="777" 
d="M339 736l-93 130h157l67 -130h-131zM405 239l-44 141l-45 -141h89zM481 0l-22 71h-196l-22 -71h-235v10l266 695h234l266 -695v-10h-291z" />
    <glyph glyph-name="Aacute" unicode="&#xc1;" horiz-adv-x="777" 
d="M537 866l-93 -130h-131l67 130h157zM361 380l44 -141h-89zM459 71l22 -71h291v10l-266 695h-234l-266 -695v-10h235l22 71h196z" />
    <glyph glyph-name="Acircumflex" unicode="&#xc2;" horiz-adv-x="777" 
d="M389 778l-36 -42h-135l101 130h142l101 -130h-135zM405 239l-44 141l-45 -141h89zM481 0l-22 71h-196l-22 -71h-235v10l266 695h234l266 -695v-10h-291z" />
    <glyph glyph-name="Atilde" unicode="&#xc3;" horiz-adv-x="777" 
d="M455 851q27 0 51 26l8 -3l27 -83q-39 -45 -96 -45q-34 0 -68 11t-48 11q-29 0 -56 -25l-9 3l-26 83q37 44 97 44q33 0 69 -11t51 -11zM405 239l-44 141l-45 -141h89zM481 0l-22 71h-196l-22 -71h-235v10l266 695h234l266 -695v-10h-291z" />
    <glyph glyph-name="Adieresis" unicode="&#xc4;" horiz-adv-x="777" 
d="M405 239l-44 141l-45 -141h89zM481 0l-22 71h-196l-22 -71h-235v10l266 695h234l266 -695v-10h-291zM409 736v164h206v-164h-206zM164 736v164h206v-164h-206z" />
    <glyph glyph-name="Aring" unicode="&#xc5;" horiz-adv-x="777" 
d="M405 239l-44 141l-45 -141h89zM481 0l-22 71h-196l-22 -71h-235v10l266 695h234l266 -695v-10h-291zM389 732q-56 0 -90 33t-34 87t34 87t90 33t90 -33t34 -87t-34 -87t-90 -33zM389 890q-17 0 -27 -10.5t-10 -27.5q0 -37 37 -37q16 0 26.5 10t10.5 27t-10.5 27.5
t-26.5 10.5z" />
    <glyph glyph-name="AE" unicode="&#xc6;" horiz-adv-x="990" 
d="M445 261v221l-96 -221h96zM445 0v87h-171l-38 -87h-233v10l327 695h623v-192h-246v-67h205v-177h-205v-77h255v-192h-517z" />
    <glyph glyph-name="Ccedilla" unicode="&#xc7;" horiz-adv-x="661" 
d="M355 -243q-58 0 -97 24v87l9 4q30 -17 57 -17q36 0 36 29q0 30 -59 35v77q-132 26 -209 120t-77 234q0 172 110.5 271t294.5 99q128 0 210 -47v-206l-12 -5q-63 49 -155 49q-73 0 -116 -42t-43 -119q0 -78 42.5 -118t107.5 -40q56 0 89 11t70 39l9 -6v-213
q-71 -38 -213 -38h-13v-20q43 -9 67.5 -30.5t24.5 -70.5q0 -51 -35.5 -79t-97.5 -28z" />
    <glyph glyph-name="Egrave" unicode="&#xc8;" horiz-adv-x="610" 
d="M274 736l-93 130h157l67 -130h-131zM39 0v705h534v-192h-256v-67h215v-177h-215v-77h265v-192h-543z" />
    <glyph glyph-name="Eacute" unicode="&#xc9;" horiz-adv-x="610" 
d="M451 866l-93 -130h-131l67 130h157zM39 705v-705h543v192h-265v77h215v177h-215v67h256v192h-534z" />
    <glyph glyph-name="Ecircumflex" unicode="&#xca;" horiz-adv-x="610" 
d="M307 778l-36 -42h-135l101 130h142l101 -130h-135zM39 0v705h534v-192h-256v-67h215v-177h-215v-77h265v-192h-543z" />
    <glyph glyph-name="Edieresis" unicode="&#xcb;" horiz-adv-x="610" 
d="M39 0v705h534v-192h-256v-67h215v-177h-215v-77h265v-192h-543zM326 736v164h206v-164h-206zM81 736v164h206v-164h-206z" />
    <glyph glyph-name="Igrave" unicode="&#xcc;" horiz-adv-x="366" 
d="M138 736l-93 130h157l67 -130h-131zM41 0v705h284v-705h-284z" />
    <glyph glyph-name="Iacute" unicode="&#xcd;" horiz-adv-x="366" 
d="M325 866l-93 -130h-131l67 130h157zM41 705v-705h284v705h-284z" />
    <glyph glyph-name="Icircumflex" unicode="&#xce;" horiz-adv-x="366" 
d="M41 0v705h284v-705h-284zM183 783l-45 -47h-172l132 163h170l132 -163h-172z" />
    <glyph glyph-name="Idieresis" unicode="&#xcf;" horiz-adv-x="366" 
d="M203 736v164h186v-164h-186zM-22 736v164h186v-164h-186zM41 0v705h284v-705h-284z" />
    <glyph glyph-name="Eth" unicode="&#xd0;" horiz-adv-x="789" 
d="M412 270h-78v-72h31q125 0 125 152q0 79 -33 118t-92 39h-31v-64h78v-173zM56 0v270h-47v173h47v262h323q85 0 154.5 -19.5t124.5 -60.5t85.5 -111t30.5 -164t-30.5 -163.5t-85.5 -109t-124.5 -58.5t-154.5 -19h-323z" />
    <glyph glyph-name="Ntilde" unicode="&#xd1;" horiz-adv-x="753" 
d="M534 0l-262 286v-286h-233v705h189l253 -276v276h233v-705h-180zM460 888q38 0 68 33l11 -4l36 -119q-55 -65 -129 -65q-48 0 -96 14t-73 14q-40 0 -75 -32l-11 4l-36 119q49 64 130 64q48 0 99 -14t76 -14z" />
    <glyph glyph-name="Ograve" unicode="&#xd2;" horiz-adv-x="818" 
d="M384 741l-93 130h157l67 -130h-131zM409 -15q-182 0 -288 103.5t-106 266.5q0 162 106 263.5t288 101.5t288 -101.5t106 -263.5q0 -163 -106 -266.5t-288 -103.5zM409 185q55 0 81.5 45.5t26.5 124.5q0 78 -27.5 122t-80.5 44t-80.5 -44t-27.5 -122q0 -79 26.5 -124.5
t81.5 -45.5z" />
    <glyph glyph-name="Oacute" unicode="&#xd3;" horiz-adv-x="818" 
d="M586 871l-93 -130h-131l67 130h157zM409 -15q182 0 288 103.5t106 266.5q0 162 -106 263.5t-288 101.5t-288 -101.5t-106 -263.5q0 -163 106 -266.5t288 -103.5zM409 185q-55 0 -81.5 45.5t-26.5 124.5q0 78 27.5 122t80.5 44t80.5 -44t27.5 -122q0 -79 -26.5 -124.5
t-81.5 -45.5z" />
    <glyph glyph-name="Ocircumflex" unicode="&#xd4;" horiz-adv-x="818" 
d="M409 783l-36 -42h-135l101 130h142l101 -130h-135zM409 -15q-182 0 -288 103.5t-106 266.5q0 162 106 263.5t288 101.5t288 -101.5t106 -263.5q0 -163 -106 -266.5t-288 -103.5zM409 185q55 0 81.5 45.5t26.5 124.5q0 78 -27.5 122t-80.5 44t-80.5 -44t-27.5 -122
q0 -79 26.5 -124.5t81.5 -45.5z" />
    <glyph glyph-name="Otilde" unicode="&#xd5;" horiz-adv-x="818" 
d="M485 851q27 0 51 26l8 -3l27 -83q-39 -45 -96 -45q-34 0 -68 11t-48 11q-29 0 -56 -25l-9 3l-26 83q37 44 97 44q33 0 69 -11t51 -11zM409 -15q-182 0 -288 103.5t-106 266.5q0 162 106 263.5t288 101.5t288 -101.5t106 -263.5q0 -163 -106 -266.5t-288 -103.5zM409 185
q55 0 81.5 45.5t26.5 124.5q0 78 -27.5 122t-80.5 44t-80.5 -44t-27.5 -122q0 -79 26.5 -124.5t81.5 -45.5z" />
    <glyph glyph-name="Odieresis" unicode="&#xd6;" horiz-adv-x="818" 
d="M409 -15q-182 0 -288 103.5t-106 266.5q0 162 106 263.5t288 101.5t288 -101.5t106 -263.5q0 -163 -106 -266.5t-288 -103.5zM409 185q55 0 81.5 45.5t26.5 124.5q0 78 -27.5 122t-80.5 44t-80.5 -44t-27.5 -122q0 -79 26.5 -124.5t81.5 -45.5zM429 736v164h206v-164
h-206zM184 736v164h206v-164h-206z" />
    <glyph glyph-name="multiply" unicode="&#xd7;" horiz-adv-x="542" 
d="M407 95l-136 136l-136 -136l-115 115l136 136l-136 136l115 115l136 -136l136 136l115 -115l-136 -136l136 -136z" />
    <glyph glyph-name="Oslash" unicode="&#xd8;" horiz-adv-x="818" 
d="M294 355q0 -25 3 -48l167 200q-23 14 -55 14q-55 0 -85 -44.5t-30 -121.5zM409 185q57 0 86 45.5t29 124.5q0 42 -7 69l-179 -214q26 -25 71 -25zM409 -15q-123 0 -216 51l-76 -90l-71 62l71 85q-102 102 -102 262q0 162 106 263.5t288 101.5q114 0 199 -41l63 75l71 -62
l-54 -65q115 -100 115 -272q0 -163 -106 -266.5t-288 -103.5z" />
    <glyph glyph-name="Ugrave" unicode="&#xd9;" horiz-adv-x="750" 
d="M342 736l-93 130h157l67 -130h-131zM382 -12q-178 0 -263 77.5t-85 232.5v407h284v-406q0 -47 18.5 -69t60.5 -22t60 22t18 69v406h241v-407q0 -147 -80.5 -228.5t-253.5 -81.5z" />
    <glyph glyph-name="Uacute" unicode="&#xda;" horiz-adv-x="750" 
d="M542 866l-93 -130h-131l67 130h157zM382 -12q173 0 253.5 81.5t80.5 228.5v407h-241v-406q0 -47 -18 -69t-60 -22t-60.5 22t-18.5 69v406h-284v-407q0 -155 85 -232.5t263 -77.5z" />
    <glyph glyph-name="Ucircumflex" unicode="&#xdb;" horiz-adv-x="750" 
d="M382 -12q-178 0 -263 77.5t-85 232.5v407h284v-406q0 -47 18.5 -69t60.5 -22t60 22t18 69v406h241v-407q0 -147 -80.5 -228.5t-253.5 -81.5zM384 783l-45 -47h-172l132 163h170l132 -163h-172z" />
    <glyph glyph-name="Udieresis" unicode="&#xdc;" horiz-adv-x="750" 
d="M382 -12q-178 0 -263 77.5t-85 232.5v407h284v-406q0 -47 18.5 -69t60.5 -22t60 22t18 69v406h241v-407q0 -147 -80.5 -228.5t-253.5 -81.5zM404 736v164h206v-164h-206zM159 736v164h206v-164h-206z" />
    <glyph glyph-name="Yacute" unicode="&#xdd;" horiz-adv-x="700" 
d="M515 866l-93 -130h-131l67 130h157zM209 0h284v274l207 421v10h-247l-81 -196l-85 196h-287v-10l209 -428v-267z" />
    <glyph glyph-name="Thorn" unicode="&#xde;" horiz-adv-x="686" 
d="M356 426h-38v-140h37q34 0 49.5 16.5t15.5 55.5q0 68 -64 68zM360 112h-42v-112h-279v705h279v-90h41q317 0 317 -258q0 -245 -316 -245z" />
    <glyph glyph-name="germandbls" unicode="&#xdf;" horiz-adv-x="688" 
d="M311 182l11 4q20 -18 56 -18q44 0 44 43q0 20 -16.5 42t-37 40t-37 45t-16.5 56t34 66.5t34 65.5q0 22 -13.5 38t-34.5 16q-55 0 -55 -72v-508h-251v487q0 259 314 259q139 0 213 -49t74 -140q0 -31 -13 -57t-28 -39.5t-28 -27t-13 -22.5q0 -11 21 -28.5t45.5 -37
t45.5 -62t21 -97.5q0 -94 -59 -146t-157 -52q-100 0 -154 28v166z" />
    <glyph glyph-name="agrave" unicode="&#xe0;" horiz-adv-x="593" 
d="M262 598l-93 130h157l67 -130h-131zM282 134q26 0 40 17v73l-38 -5q-38 -6 -38 -42q0 -43 36 -43zM355 0l-14 62q-51 -75 -157 -75q-76 0 -124 41.5t-48 124.5q0 85 55 123t163 49l92 9q-2 30 -21.5 41.5t-67.5 11.5q-92 0 -164 -45l-11 3v174q77 44 233 44
q142 0 209 -56.5t67 -185.5v-321h-212z" />
    <glyph glyph-name="aacute" unicode="&#xe1;" horiz-adv-x="593" 
d="M452 728l-93 -130h-131l67 130h157zM282 134q-36 0 -36 43q0 36 38 42l38 5v-73q-14 -17 -40 -17zM341 62l14 -62h212v321q0 129 -67 185.5t-209 56.5q-156 0 -233 -44v-174l11 -3q72 45 164 45q48 0 67.5 -11.5t21.5 -41.5l-92 -9q-108 -11 -163 -49t-55 -123
q0 -83 48 -124.5t124 -41.5q106 0 157 75z" />
    <glyph glyph-name="acircumflex" unicode="&#xe2;" horiz-adv-x="593" 
d="M307 630l-36 -42h-135l101 130h142l101 -130h-135zM282 134q26 0 40 17v73l-38 -5q-38 -6 -38 -42q0 -43 36 -43zM355 0l-14 62q-51 -75 -157 -75q-76 0 -124 41.5t-48 124.5q0 85 55 123t163 49l92 9q-2 30 -21.5 41.5t-67.5 11.5q-92 0 -164 -45l-11 3v174
q77 44 233 44q142 0 209 -56.5t67 -185.5v-321h-212z" />
    <glyph glyph-name="atilde" unicode="&#xe3;" horiz-adv-x="593" 
d="M370 703q27 0 51 26l8 -3l27 -83q-39 -45 -96 -45q-34 0 -68 11t-48 11q-29 0 -56 -25l-9 3l-26 83q37 44 97 44q34 0 69 -11t51 -11zM282 134q26 0 40 17v73l-38 -5q-38 -6 -38 -42q0 -43 36 -43zM355 0l-14 62q-51 -75 -157 -75q-76 0 -124 41.5t-48 124.5q0 85 55 123
t163 49l92 9q-2 30 -21.5 41.5t-67.5 11.5q-92 0 -164 -45l-11 3v174q77 44 233 44q142 0 209 -56.5t67 -185.5v-321h-212z" />
    <glyph glyph-name="adieresis" unicode="&#xe4;" horiz-adv-x="593" 
d="M282 134q26 0 40 17v73l-38 -5q-38 -6 -38 -42q0 -43 36 -43zM355 0l-14 62q-51 -75 -157 -75q-76 0 -124 41.5t-48 124.5q0 85 55 123t163 49l92 9q-2 30 -21.5 41.5t-67.5 11.5q-92 0 -164 -45l-11 3v174q77 44 233 44q142 0 209 -56.5t67 -185.5v-321h-212zM84 586
v164h193v-164h-193zM311 586v164h193v-164h-193z" />
    <glyph glyph-name="aring" unicode="&#xe5;" horiz-adv-x="593" 
d="M282 134q26 0 40 17v73l-38 -5q-38 -6 -38 -42q0 -43 36 -43zM355 0l-14 62q-51 -75 -157 -75q-76 0 -124 41.5t-48 124.5q0 85 55 123t163 49l92 9q-2 30 -21.5 41.5t-67.5 11.5q-92 0 -164 -45l-11 3v174q77 44 233 44q142 0 209 -56.5t67 -185.5v-321h-212zM294 580
q-56 0 -90 33t-34 87t34 87t90 33t90 -33t34 -87t-34 -87t-90 -33zM294 738q-17 0 -27 -10.5t-10 -27.5q0 -37 37 -37q16 0 26.5 10t10.5 27t-10.5 27.5t-26.5 10.5z" />
    <glyph glyph-name="ae" unicode="&#xe6;" horiz-adv-x="904" 
d="M620 412q-27 0 -42 -16.5t-21 -55.5h115q-2 38 -13.5 55t-38.5 17zM282 134q40 0 58 26q-9 26 -14 64l-42 -5q-38 -6 -38 -42q0 -43 36 -43zM881 178v-155q-81 -36 -217 -36q-173 0 -259 75q-63 -75 -203 -75q-89 0 -139.5 41t-50.5 125q0 85 55 123t163 49l92 9
q-2 30 -21.5 41.5t-67.5 11.5q-92 0 -164 -45l-11 3v174q77 44 233 44q120 0 173 -44q58 44 151 44q150 0 221 -82.5t54 -262.5h-328q11 -36 40.5 -51t89.5 -15q96 0 180 30z" />
    <glyph glyph-name="ccedilla" unicode="&#xe7;" horiz-adv-x="517" 
d="M275 -243q-58 0 -97 24v87l9 4q30 -17 57 -17q36 0 36 29q0 30 -59 35v80q-210 48 -210 277q0 140 89 213.5t233 73.5q108 0 158 -33v-169l-10 -4q-45 33 -106 33q-48 0 -78.5 -28t-30.5 -86q0 -60 30 -89.5t79 -29.5q60 0 112 35l11 -4v-161q-59 -40 -165 -40h-17v-22
q43 -9 67.5 -30.5t24.5 -70.5q0 -51 -35.5 -79t-97.5 -28z" />
    <glyph glyph-name="egrave" unicode="&#xe8;" horiz-adv-x="597" 
d="M285 598l-93 130h157l67 -130h-131zM313 412q-27 0 -42 -16.5t-21 -55.5h115q-2 38 -13.5 55t-38.5 17zM574 178v-155q-81 -36 -217 -36q-346 0 -346 296q0 120 81 200t216 80q150 0 221 -82.5t54 -262.5h-328q11 -36 40.5 -51t89.5 -15q96 0 180 30z" />
    <glyph glyph-name="eacute" unicode="&#xe9;" horiz-adv-x="597" 
d="M480 728l-93 -130h-131l67 130h157zM313 412q27 0 38.5 -17t13.5 -55h-115q6 39 21 55.5t42 16.5zM574 23v155l-9 4q-84 -30 -180 -30q-60 0 -89.5 15t-40.5 51h328q17 180 -54 262.5t-221 82.5q-135 0 -216 -80t-81 -200q0 -296 346 -296q136 0 217 36z" />
    <glyph glyph-name="ecircumflex" unicode="&#xea;" horiz-adv-x="597" 
d="M327 630l-36 -42h-135l101 130h142l101 -130h-135zM313 412q-27 0 -42 -16.5t-21 -55.5h115q-2 38 -13.5 55t-38.5 17zM574 178v-155q-81 -36 -217 -36q-346 0 -346 296q0 120 81 200t216 80q150 0 221 -82.5t54 -262.5h-328q11 -36 40.5 -51t89.5 -15q96 0 180 30z" />
    <glyph glyph-name="edieresis" unicode="&#xeb;" horiz-adv-x="597" 
d="M313 412q-27 0 -42 -16.5t-21 -55.5h115q-2 38 -13.5 55t-38.5 17zM574 178v-155q-81 -36 -217 -36q-346 0 -346 296q0 120 81 200t216 80q150 0 221 -82.5t54 -262.5h-328q11 -36 40.5 -51t89.5 -15q96 0 180 30zM100 586v164h193v-164h-193zM327 586v164h193v-164h-193
z" />
    <glyph glyph-name="igrave" unicode="&#xec;" horiz-adv-x="311" 
d="M108 598l-93 130h157l67 -130h-131zM32 0v550h247v-550h-247z" />
    <glyph glyph-name="iacute" unicode="&#xed;" horiz-adv-x="311" 
d="M302 728l-93 -130h-131l67 130h157zM32 550v-550h247v550h-247z" />
    <glyph glyph-name="icircumflex" unicode="&#xee;" horiz-adv-x="311" 
d="M32 0v550h247v-550h-247zM155 633l-42 -47h-172l139 175h150l139 -175h-172z" />
    <glyph glyph-name="idieresis" unicode="&#xef;" horiz-adv-x="311" 
d="M-25 586v164h163v-164h-163zM172 586v164h163v-164h-163zM32 0v550h247v-550h-247z" />
    <glyph glyph-name="eth" unicode="&#xf0;" horiz-adv-x="662" 
d="M330 -13q-142 0 -230.5 78.5t-88.5 220.5q0 126 68.5 195t159.5 69q52 0 98 -38q-30 40 -79 82l-137 -35l-19 66l88 23q-43 32 -125 82l3 9h307q25 -13 51 -30l100 26l20 -66l-52 -13q155 -142 155 -323q0 -175 -84.5 -260.5t-234.5 -85.5zM330 156q67 0 67 143
q0 47 -7 86q-24 19 -53 19q-74 0 -74 -130q0 -118 67 -118z" />
    <glyph glyph-name="ntilde" unicode="&#xf1;" 
d="M320 372q-24 0 -44 -15v-357h-247v550h217l14 -87q69 100 181 100q81 0 132 -52t51 -163v-348h-247v311q0 61 -57 61zM414 741q36 0 68 35l11 -4l36 -119q-55 -65 -129 -65q-44 0 -90.5 15t-64.5 15q-38 0 -75 -34l-11 4l-36 119q49 64 130 64q45 0 93 -15t68 -15z" />
    <glyph glyph-name="ograve" unicode="&#xf2;" horiz-adv-x="660" 
d="M288 598l-93 130h157l67 -130h-131zM330 -13q-139 0 -229 79.5t-90 209.5q0 131 89.5 209t229.5 78t229.5 -78t89.5 -209q0 -130 -90 -209.5t-229 -79.5zM330 156q67 0 67 119q0 120 -67 120t-67 -120q0 -119 67 -119z" />
    <glyph glyph-name="oacute" unicode="&#xf3;" horiz-adv-x="660" 
d="M492 728l-93 -130h-131l67 130h157zM330 -13q139 0 229 79.5t90 209.5q0 131 -89.5 209t-229.5 78t-229.5 -78t-89.5 -209q0 -130 90 -209.5t229 -79.5zM330 156q-67 0 -67 119q0 120 67 120t67 -120q0 -119 -67 -119z" />
    <glyph glyph-name="ocircumflex" unicode="&#xf4;" horiz-adv-x="660" 
d="M330 630l-36 -42h-135l101 130h142l101 -130h-135zM330 -13q-139 0 -229 79.5t-90 209.5q0 131 89.5 209t229.5 78t229.5 -78t89.5 -209q0 -130 -90 -209.5t-229 -79.5zM330 156q67 0 67 119q0 120 -67 120t-67 -120q0 -119 67 -119z" />
    <glyph glyph-name="otilde" unicode="&#xf5;" horiz-adv-x="660" 
d="M410 703q27 0 51 26l8 -3l27 -83q-39 -45 -96 -45q-34 0 -68 11t-48 11q-29 0 -56 -25l-9 3l-26 83q37 44 97 44q34 0 69 -11t51 -11zM330 -13q-139 0 -229 79.5t-90 209.5q0 131 89.5 209t229.5 78t229.5 -78t89.5 -209q0 -130 -90 -209.5t-229 -79.5zM330 156
q67 0 67 119q0 120 -67 120t-67 -120q0 -119 67 -119z" />
    <glyph glyph-name="odieresis" unicode="&#xf6;" horiz-adv-x="660" 
d="M330 -13q-139 0 -229 79.5t-90 209.5q0 131 89.5 209t229.5 78t229.5 -78t89.5 -209q0 -130 -90 -209.5t-229 -79.5zM330 156q67 0 67 119q0 120 -67 120t-67 -120q0 -119 67 -119zM120 586v164h193v-164h-193zM347 586v164h193v-164h-193z" />
    <glyph glyph-name="divide" unicode="&#xf7;" horiz-adv-x="534" 
d="M168 464v170h199v-170h-199zM20 266v159h494v-159h-494zM168 57v170h199v-170h-199z" />
    <glyph glyph-name="oslash" unicode="&#xf8;" horiz-adv-x="660" 
d="M259 275q0 -14 1 -21l108 129q-15 12 -38 12q-71 0 -71 -120zM330 156q71 0 71 119q0 20 -1 29l-112 -133q16 -15 42 -15zM330 -13q-93 0 -166 37l-51 -61l-57 49l45 54q-90 82 -90 210q0 131 89.5 209t229.5 78q92 0 161 -34l61 72l57 -49l-54 -64q94 -77 94 -212
q0 -130 -90 -209.5t-229 -79.5z" />
    <glyph glyph-name="ugrave" unicode="&#xf9;" 
d="M271 598l-93 130h157l67 -130h-131zM404 0l-13 78q-65 -91 -171 -91q-87 0 -140.5 53.5t-53.5 161.5v348h247v-311q0 -31 12 -46t43 -15q28 0 46 13v359h247v-550h-217z" />
    <glyph glyph-name="uacute" unicode="&#xfa;" 
d="M476 728l-93 -130h-131l67 130h157zM391 78l13 -78h217v550h-247v-359q-18 -13 -46 -13q-31 0 -43 15t-12 46v311h-247v-348q0 -108 53.5 -161.5t140.5 -53.5q106 0 171 91z" />
    <glyph glyph-name="ucircumflex" unicode="&#xfb;" 
d="M404 0l-13 78q-65 -91 -171 -91q-87 0 -140.5 53.5t-53.5 161.5v348h247v-311q0 -31 12 -46t43 -15q28 0 46 13v359h247v-550h-217zM323 633l-42 -47h-172l139 175h150l139 -175h-172z" />
    <glyph glyph-name="udieresis" unicode="&#xfc;" 
d="M404 0l-13 78q-65 -91 -171 -91q-87 0 -140.5 53.5t-53.5 161.5v348h247v-311q0 -31 12 -46t43 -15q28 0 46 13v359h247v-550h-217zM113 586v164h193v-164h-193zM340 586v164h193v-164h-193z" />
    <glyph glyph-name="yacute" unicode="&#xfd;" horiz-adv-x="649" 
d="M482 728l-93 -130h-131l67 130h157zM94 -19v-175q169 8 243.5 53.5t121.5 177.5l184 503v10h-222l-79 -251l-75 251h-261v-10l194 -515l-2 -5q-8 -21 -29.5 -28.5t-74.5 -10.5z" />
    <glyph glyph-name="thorn" unicode="&#xfe;" horiz-adv-x="662" 
d="M329 159q68 0 68 117q0 104 -66 104q-36 0 -55 -22v-181q22 -18 53 -18zM426 -13q-92 0 -150 58v-225h-247v891l247 35v-258q55 75 154 75t159 -72.5t60 -214.5q0 -144 -63 -216.5t-160 -72.5z" />
    <glyph glyph-name="ydieresis" unicode="&#xff;" horiz-adv-x="649" 
d="M94 -194v175q53 3 74.5 10.5t29.5 28.5l2 5l-194 515v10h261l75 -251l79 251h222v-10l-184 -503q-47 -132 -121.5 -177.5t-243.5 -53.5zM128 586v164h193v-164h-193zM355 586v164h193v-164h-193z" />
    <glyph glyph-name="Amacron" unicode="&#x100;" horiz-adv-x="777" 
d="M405 239l-44 141l-45 -141h89zM481 0l-22 71h-196l-22 -71h-235v10l266 695h234l266 -695v-10h-291zM200 746v142h378v-142h-378z" />
    <glyph glyph-name="amacron" unicode="&#x101;" horiz-adv-x="593" 
d="M282 134q26 0 40 17v73l-38 -5q-38 -6 -38 -42q0 -43 36 -43zM355 0l-14 62q-51 -75 -157 -75q-76 0 -124 41.5t-48 124.5q0 85 55 123t163 49l92 9q-2 30 -21.5 41.5t-67.5 11.5q-92 0 -164 -45l-11 3v174q77 44 233 44q142 0 209 -56.5t67 -185.5v-321h-212zM112 599
v136h364v-136h-364z" />
    <glyph glyph-name="Abreve" unicode="&#x102;" horiz-adv-x="777" 
d="M405 239l-44 141l-45 -141h89zM481 0l-22 71h-196l-22 -71h-235v10l266 695h234l266 -695v-10h-291zM390 736q-81 0 -117 30.5t-39 92.5h119q3 -35 36 -35q34 0 37 35h119q-3 -62 -39 -92.5t-116 -30.5z" />
    <glyph glyph-name="abreve" unicode="&#x103;" horiz-adv-x="593" 
d="M317 591q-81 0 -117 30.5t-39 92.5h119q3 -35 36 -35q34 0 37 35h119q-3 -62 -39 -92.5t-116 -30.5zM282 134q26 0 40 17v73l-38 -5q-38 -6 -38 -42q0 -43 36 -43zM355 0l-14 62q-51 -75 -157 -75q-76 0 -124 41.5t-48 124.5q0 85 55 123t163 49l92 9q-2 30 -21.5 41.5
t-67.5 11.5q-92 0 -164 -45l-11 3v174q77 44 233 44q142 0 209 -56.5t67 -185.5v-321h-212z" />
    <glyph glyph-name="Aogonek" unicode="&#x104;" horiz-adv-x="777" 
d="M664 -194q-66 0 -102 22.5t-36 62.5q0 68 99 109h-144l-22 71h-196l-22 -71h-235v10l266 695h234l266 -695v-10q-67 -22 -67 -52q0 -23 31 -23q15 0 24 4l9 -4v-101q-44 -18 -105 -18zM405 239l-44 141l-45 -141h89z" />
    <glyph glyph-name="aogonek" unicode="&#x105;" horiz-adv-x="593" 
d="M282 134q26 0 40 17v73l-38 -5q-38 -6 -38 -42q0 -43 36 -43zM567 -75v-101q-44 -18 -105 -18q-66 0 -102 22.5t-36 62.5q0 69 90 109h-59l-14 62q-51 -75 -157 -75q-76 0 -124 41.5t-48 124.5q0 85 55 123t163 49l92 9q-2 30 -21.5 41.5t-67.5 11.5q-92 0 -164 -45
l-11 3v174q77 44 233 44q142 0 209 -56.5t67 -185.5v-321h-21q-43 -34 -43 -53q0 -22 31 -22q15 0 24 4z" />
    <glyph glyph-name="Cacute" unicode="&#x106;" horiz-adv-x="661" 
d="M409 -15q-179 0 -286.5 98t-107.5 267q0 172 110.5 271t294.5 99q128 0 210 -47v-206l-12 -5q-63 49 -155 49q-73 0 -116 -42t-43 -119q0 -78 42.5 -118t107.5 -40q56 0 89 11t70 39l9 -6v-213q-71 -38 -213 -38zM464 736h-173l72 163h221z" />
    <glyph glyph-name="cacute" unicode="&#x107;" horiz-adv-x="517" 
d="M333 -13q-156 0 -239 73.5t-83 215.5q0 140 89 213.5t233 73.5q108 0 158 -33v-169l-10 -4q-45 33 -106 33q-48 0 -78.5 -28t-30.5 -86q0 -60 30 -89.5t79 -29.5q60 0 112 35l11 -4v-161q-59 -40 -165 -40zM380 586h-168l60 175h225z" />
    <glyph glyph-name="Ccircumflex" unicode="&#x108;" horiz-adv-x="661" 
d="M409 -15q-179 0 -286.5 98t-107.5 267q0 172 110.5 271t294.5 99q128 0 210 -47v-206l-12 -5q-63 49 -155 49q-73 0 -116 -42t-43 -119q0 -78 42.5 -118t107.5 -40q56 0 89 11t70 39l9 -6v-213q-71 -38 -213 -38zM395 783l-45 -47h-172l132 163h170l132 -163h-172z" />
    <glyph glyph-name="ccircumflex" unicode="&#x109;" horiz-adv-x="517" 
d="M333 -13q-156 0 -239 73.5t-83 215.5q0 140 89 213.5t233 73.5q108 0 158 -33v-169l-10 -4q-45 33 -106 33q-48 0 -78.5 -28t-30.5 -86q0 -60 30 -89.5t79 -29.5q60 0 112 35l11 -4v-161q-59 -40 -165 -40zM305 633l-42 -47h-172l139 175h150l139 -175h-172z" />
    <glyph glyph-name="Cdotaccent" unicode="&#x10a;" horiz-adv-x="661" 
d="M409 -15q-179 0 -286.5 98t-107.5 267q0 172 110.5 271t294.5 99q128 0 210 -47v-206l-12 -5q-63 49 -155 49q-73 0 -116 -42t-43 -119q0 -78 42.5 -118t107.5 -40q56 0 89 11t70 39l9 -6v-213q-71 -38 -213 -38zM284 736v170h222v-170h-222z" />
    <glyph glyph-name="cdotaccent" unicode="&#x10b;" horiz-adv-x="517" 
d="M333 -13q-156 0 -239 73.5t-83 215.5q0 140 89 213.5t233 73.5q108 0 158 -33v-169l-10 -4q-45 33 -106 33q-48 0 -78.5 -28t-30.5 -86q0 -60 30 -89.5t79 -29.5q60 0 112 35l11 -4v-161q-59 -40 -165 -40zM194 588v170h222v-170h-222z" />
    <glyph glyph-name="Ccaron" unicode="&#x10c;" horiz-adv-x="661" 
d="M409 -15q-179 0 -286.5 98t-107.5 267q0 172 110.5 271t294.5 99q128 0 210 -47v-206l-12 -5q-63 49 -155 49q-73 0 -116 -42t-43 -119q0 -78 42.5 -118t107.5 -40q56 0 89 11t70 39l9 -6v-213q-71 -38 -213 -38zM395 852l45 47h172l-132 -163h-170l-132 163h172z" />
    <glyph glyph-name="ccaron" unicode="&#x10d;" horiz-adv-x="517" 
d="M333 -13q-156 0 -239 73.5t-83 215.5q0 140 89 213.5t233 73.5q108 0 158 -33v-169l-10 -4q-45 33 -106 33q-48 0 -78.5 -28t-30.5 -86q0 -60 30 -89.5t79 -29.5q60 0 112 35l11 -4v-161q-59 -40 -165 -40zM305 714l42 47h172l-139 -175h-150l-139 175h172z" />
    <glyph glyph-name="Dcaron" unicode="&#x10e;" horiz-adv-x="772" 
d="M348 507h-27v-309h27q125 0 125 152q0 79 -33 118t-92 39zM39 0v705h323q85 0 154.5 -19.5t124.5 -60.5t85.5 -111t30.5 -164t-30.5 -163.5t-85.5 -109t-124.5 -58.5t-154.5 -19h-323zM363 852l45 47h172l-132 -163h-170l-132 163h172z" />
    <glyph glyph-name="dcaron" unicode="&#x10f;" horiz-adv-x="661" 
d="M331 170q31 0 54 16v188q-23 17 -52 17q-68 0 -68 -117q0 -104 66 -104zM428 0l-23 73q-55 -86 -168 -86q-104 0 -164 72t-60 215q0 144 63.5 216.5t163.5 72.5q91 0 145 -57v205l247 35v-746h-204zM659 581l6 162h144v-54l-27 -108h-123z" />
    <glyph glyph-name="Dcroat" unicode="&#x110;" horiz-adv-x="789" 
d="M412 270h-78v-72h31q125 0 125 152q0 79 -33 118t-92 39h-31v-64h78v-173zM56 0v270h-47v173h47v262h323q85 0 154.5 -19.5t124.5 -60.5t85.5 -111t30.5 -164t-30.5 -163.5t-85.5 -109t-124.5 -58.5t-154.5 -19h-323z" />
    <glyph glyph-name="dslash" unicode="&#x111;" horiz-adv-x="661" 
d="M331 170q31 0 54 16v188q-23 17 -52 17q-68 0 -68 -117q0 -104 66 -104zM428 0l-23 73q-55 -86 -168 -86q-104 0 -164 72t-60 215q0 144 63.5 216.5t163.5 72.5q91 0 145 -57v76h-118v98h118v31l247 35v-66h39v-98h-39v-582h-204z" />
    <glyph glyph-name="Emacron" unicode="&#x112;" horiz-adv-x="610" 
d="M39 0v705h534v-192h-256v-67h215v-177h-215v-77h265v-192h-543zM117 746v142h378v-142h-378z" />
    <glyph glyph-name="emacron" unicode="&#x113;" horiz-adv-x="597" 
d="M313 412q-27 0 -42 -16.5t-21 -55.5h115q-2 38 -13.5 55t-38.5 17zM574 178v-155q-81 -36 -217 -36q-346 0 -346 296q0 120 81 200t216 80q150 0 221 -82.5t54 -262.5h-328q11 -36 40.5 -51t89.5 -15q96 0 180 30zM128 599v136h364v-136h-364z" />
    <glyph glyph-name="Ebreve" unicode="&#x114;" horiz-adv-x="610" 
d="M39 0v705h534v-192h-256v-67h215v-177h-215v-77h265v-192h-543zM306 729q-85 0 -137 43.5t-62 126.5h150q11 -38 49 -38q36 0 49 38h150q-10 -83 -62 -126.5t-137 -43.5z" />
    <glyph glyph-name="ebreve" unicode="&#x115;" horiz-adv-x="597" 
d="M313 412q-27 0 -42 -16.5t-21 -55.5h115q-2 38 -13.5 55t-38.5 17zM574 178v-155q-81 -36 -217 -36q-346 0 -346 296q0 120 81 200t216 80q150 0 221 -82.5t54 -262.5h-328q11 -36 40.5 -51t89.5 -15q96 0 180 30zM310 578q-80 0 -131.5 45.5t-61.5 128.5h143
q10 -42 50 -42q38 0 50 42h143q-10 -83 -61.5 -128.5t-131.5 -45.5z" />
    <glyph glyph-name="Edotaccent" unicode="&#x116;" horiz-adv-x="610" 
d="M39 0v705h534v-192h-256v-67h215v-177h-215v-77h265v-192h-543zM195 736v170h222v-170h-222z" />
    <glyph glyph-name="edotaccent" unicode="&#x117;" horiz-adv-x="597" 
d="M313 412q-27 0 -42 -16.5t-21 -55.5h115q-2 38 -13.5 55t-38.5 17zM574 178v-155q-81 -36 -217 -36q-346 0 -346 296q0 120 81 200t216 80q150 0 221 -82.5t54 -262.5h-328q11 -36 40.5 -51t89.5 -15q96 0 180 30zM199 588v170h222v-170h-222z" />
    <glyph glyph-name="Eogonek" unicode="&#x118;" horiz-adv-x="610" 
d="M39 0v705h534v-192h-256v-67h215v-177h-215v-77h265v-192h-543zM550 -75v-101q-44 -18 -105 -18q-66 0 -102 22.5t-36 62.5q0 68 99 109h123q-43 -34 -43 -53q0 -22 31 -22q15 0 24 4z" />
    <glyph glyph-name="eogonek" unicode="&#x119;" horiz-adv-x="597" 
d="M313 412q-27 0 -42 -16.5t-21 -55.5h115q-2 38 -13.5 55t-38.5 17zM535 -93v-101q-44 -18 -108 -18q-65 0 -100 25t-35 66q0 35 20.5 58.5t71.5 50.5q-11 -1 -27 -1q-346 0 -346 296q0 120 81 200t216 80q150 0 221 -82.5t54 -262.5h-328q11 -36 40.5 -51t89.5 -15
q96 0 180 30l9 -4v-155q-4 -2 -17.5 -7t-26 -10.5t-21.5 -12.5q-42 -28 -42 -58q0 -28 35 -28q15 0 24 4z" />
    <glyph glyph-name="Ecaron" unicode="&#x11a;" horiz-adv-x="610" 
d="M39 0v705h534v-192h-256v-67h215v-177h-215v-77h265v-192h-543zM306 852l45 47h172l-132 -163h-170l-132 163h172z" />
    <glyph glyph-name="ecaron" unicode="&#x11b;" horiz-adv-x="597" 
d="M313 412q-27 0 -42 -16.5t-21 -55.5h115q-2 38 -13.5 55t-38.5 17zM574 178v-155q-81 -36 -217 -36q-346 0 -346 296q0 120 81 200t216 80q150 0 221 -82.5t54 -262.5h-328q11 -36 40.5 -51t89.5 -15q96 0 180 30zM310 714l42 47h172l-139 -175h-150l-139 175h172z" />
    <glyph glyph-name="Gcircumflex" unicode="&#x11c;" horiz-adv-x="741" 
d="M715 415v-343q-114 -87 -311 -87q-181 0 -285 98t-104 272q0 170 113 267.5t300 97.5q172 0 248 -47v-208l-9 -6q-36 18 -56.5 27t-59.5 17.5t-82 8.5q-168 0 -168 -166q0 -167 128 -167q20 0 38 3v81h-81v152h329zM414 783l-45 -47h-172l132 163h170l132 -163h-172z" />
    <glyph glyph-name="gcircumflex" unicode="&#x11d;" horiz-adv-x="617" 
d="M289 308q43 0 43 60q0 61 -43 61t-43 -61q0 -60 43 -60zM285 -222q-151 0 -221 30.5t-70 91.5q0 39 23 62h195l5 -4q-2 -6 -2 -11q0 -31 71 -31q91 0 91 31q0 21 -28 22l-159 6q-80 2 -120 37.5t-40 86.5q0 91 88 133q-93 46 -93 143q0 84 70 135.5t193 51.5
q87 0 153 -29l168 24v-165h-59q3 -16 3 -36q0 -68 -68 -112t-197 -44q-20 0 -52 2q-15 -4 -15 -17q0 -14 26 -16l172 -7q194 -8 194 -173q0 -101 -82.5 -156t-245.5 -55zM311 633l-42 -47h-172l139 175h150l139 -175h-172z" />
    <glyph glyph-name="Gbreve" unicode="&#x11e;" horiz-adv-x="741" 
d="M715 415v-343q-114 -87 -311 -87q-181 0 -285 98t-104 272q0 170 113 267.5t300 97.5q172 0 248 -47v-208l-9 -6q-36 18 -56.5 27t-59.5 17.5t-82 8.5q-168 0 -168 -166q0 -167 128 -167q20 0 38 3v81h-81v152h329zM414 729q-85 0 -137 43.5t-62 126.5h150q11 -38 49 -38
q36 0 49 38h150q-10 -83 -62 -126.5t-137 -43.5z" />
    <glyph glyph-name="gbreve" unicode="&#x11f;" horiz-adv-x="617" 
d="M289 308q43 0 43 60q0 61 -43 61t-43 -61q0 -60 43 -60zM285 -222q-151 0 -221 30.5t-70 91.5q0 39 23 62h195l5 -4q-2 -6 -2 -11q0 -31 71 -31q91 0 91 31q0 21 -28 22l-159 6q-80 2 -120 37.5t-40 86.5q0 91 88 133q-93 46 -93 143q0 84 70 135.5t193 51.5
q87 0 153 -29l168 24v-165h-59q3 -16 3 -36q0 -68 -68 -112t-197 -44q-20 0 -52 2q-15 -4 -15 -17q0 -14 26 -16l172 -7q194 -8 194 -173q0 -101 -82.5 -156t-245.5 -55zM311 578q-80 0 -131.5 45.5t-61.5 128.5h143q11 -42 50 -42q38 0 50 42h143q-10 -83 -61.5 -128.5
t-131.5 -45.5z" />
    <glyph glyph-name="Gdotaccent" unicode="&#x120;" horiz-adv-x="741" 
d="M715 415v-343q-114 -87 -311 -87q-181 0 -285 98t-104 272q0 170 113 267.5t300 97.5q172 0 248 -47v-208l-9 -6q-36 18 -56.5 27t-59.5 17.5t-82 8.5q-168 0 -168 -166q0 -167 128 -167q20 0 38 3v81h-81v152h329zM303 736v170h222v-170h-222z" />
    <glyph glyph-name="gdotaccent" unicode="&#x121;" horiz-adv-x="617" 
d="M289 308q43 0 43 60q0 61 -43 61t-43 -61q0 -60 43 -60zM285 -222q-151 0 -221 30.5t-70 91.5q0 39 23 62h195l5 -4q-2 -6 -2 -11q0 -31 71 -31q91 0 91 31q0 21 -28 22l-159 6q-80 2 -120 37.5t-40 86.5q0 91 88 133q-93 46 -93 143q0 84 70 135.5t193 51.5
q87 0 153 -29l168 24v-165h-59q3 -16 3 -36q0 -68 -68 -112t-197 -44q-20 0 -52 2q-15 -4 -15 -17q0 -14 26 -16l172 -7q194 -8 194 -173q0 -101 -82.5 -156t-245.5 -55zM200 588v170h222v-170h-222z" />
    <glyph glyph-name="uni0122" unicode="&#x122;" horiz-adv-x="741" 
d="M715 415v-343q-114 -87 -311 -87q-181 0 -285 98t-104 272q0 170 113 267.5t300 97.5q172 0 248 -47v-208l-9 -6q-36 18 -56.5 27t-59.5 17.5t-82 8.5q-168 0 -168 -166q0 -167 128 -167q20 0 38 3v81h-81v152h329zM307 -246l9 210h186l7 -12l-71 -198h-131z" />
    <glyph glyph-name="uni0123" unicode="&#x123;" horiz-adv-x="617" 
d="M289 308q43 0 43 60q0 61 -43 61t-43 -61q0 -60 43 -60zM285 -222q-151 0 -221 30.5t-70 91.5q0 39 23 62h195l5 -4q-2 -6 -2 -11q0 -31 71 -31q91 0 91 31q0 21 -28 22l-159 6q-80 2 -120 37.5t-40 86.5q0 91 88 133q-93 46 -93 143q0 84 70 135.5t193 51.5
q87 0 153 -29l168 24v-165h-59q3 -16 3 -36q0 -68 -68 -112t-197 -44q-20 0 -52 2q-15 -4 -15 -17q0 -14 26 -16l172 -7q194 -8 194 -173q0 -101 -82.5 -156t-245.5 -55zM408 796l-9 -210h-186l-7 12l71 198h131z" />
    <glyph glyph-name="Hcircumflex" unicode="&#x124;" horiz-adv-x="800" 
d="M477 0v249h-154v-249h-284v705h284v-240h154v240h284v-705h-284zM400 783l-45 -47h-172l132 163h170l132 -163h-172z" />
    <glyph glyph-name="hcircumflex" unicode="&#x125;" 
d="M320 372q-24 0 -44 -17v-355h-247v711l247 35v-272q65 89 172 89q81 0 128.5 -51.5t47.5 -163.5v-348h-247v311q0 61 -57 61zM335 813l-45 -47h-172l132 163h170l132 -163h-172z" />
    <glyph glyph-name="Hbar" unicode="&#x126;" horiz-adv-x="800" 
d="M477 465v61h-154v-61h154zM477 0v249h-154v-249h-284v526h-50v109h50v70h284v-70h154v70h284v-70h50v-109h-50v-526h-284z" />
    <glyph glyph-name="hbar" unicode="&#x127;" 
d="M320 372q-24 0 -44 -17v-355h-247v582h-39v98h39v31l247 35v-66h118v-98h-118v-108q65 89 172 89q81 0 128.5 -51.5t47.5 -163.5v-348h-247v311q0 61 -57 61z" />
    <glyph glyph-name="Itilde" unicode="&#x128;" horiz-adv-x="366" 
d="M245 851q27 0 51 26l8 -3l27 -83q-39 -45 -96 -45q-34 0 -68 11t-48 11q-29 0 -56 -25l-9 3l-26 83q37 44 97 44q33 0 68.5 -11t51.5 -11zM41 0v705h284v-705h-284z" />
    <glyph glyph-name="itilde" unicode="&#x129;" horiz-adv-x="311" 
d="M224 703q27 0 51 26l8 -3l27 -83q-39 -45 -96 -45q-34 0 -68 11t-48 11q-29 0 -56 -25l-9 3l-26 83q37 44 97 44q34 0 69 -11t51 -11zM32 0v550h247v-550h-247z" />
    <glyph glyph-name="Imacron" unicode="&#x12a;" horiz-adv-x="366" 
d="M4 746v142h358v-142h-358zM41 0v705h284v-705h-284z" />
    <glyph glyph-name="imacron" unicode="&#x12b;" horiz-adv-x="311" 
d="M-12 599v136h334v-136h-334zM32 0v550h247v-550h-247z" />
    <glyph glyph-name="Ibreve" unicode="&#x12c;" horiz-adv-x="366" 
d="M41 0v705h284v-705h-284zM183 729q-85 0 -137 43.5t-62 126.5h150q11 -38 49 -38q36 0 49 38h150q-10 -83 -62 -126.5t-137 -43.5z" />
    <glyph glyph-name="ibreve" unicode="&#x12d;" horiz-adv-x="311" 
d="M32 0v550h247v-550h-247zM155 578q-80 0 -131.5 45.5t-61.5 128.5h143q11 -42 50 -42q38 0 50 42h143q-10 -83 -61.5 -128.5t-131.5 -45.5z" />
    <glyph glyph-name="Iogonek" unicode="&#x12e;" horiz-adv-x="366" 
d="M314 -75v-101q-44 -18 -105 -18q-66 0 -102 22.5t-36 62.5q0 67 96 109h-126v705h284v-705h-32q-43 -34 -43 -53q0 -22 31 -22q15 0 24 4z" />
    <glyph glyph-name="iogonek" unicode="&#x12f;" horiz-adv-x="311" 
d="M32 586v154h247v-154h-247zM274 -75v-101q-44 -18 -105 -18q-66 0 -102 22.5t-36 62.5q0 67 96 109h-95v550h247v-550h-26q-43 -34 -43 -53q0 -22 31 -22q15 0 24 4z" />
    <glyph glyph-name="Idot" unicode="&#x130;" horiz-adv-x="366" 
d="M41 0v705h284v-705h-284zM72 736v170h222v-170h-222z" />
    <glyph glyph-name="dotlessi" unicode="&#x131;" horiz-adv-x="311" 
d="M32 0v550h247v-550h-247z" />
    <glyph glyph-name="IJ" unicode="&#x132;" horiz-adv-x="728" 
d="M316 -219v189q53 4 71 22.5t18 71.5v641h284v-632q0 -59 -8.5 -100.5t-32 -78.5t-65 -60t-108 -37t-159.5 -16zM41 0v705h284v-705h-284z" />
    <glyph glyph-name="ij" unicode="&#x133;" horiz-adv-x="623" 
d="M344 583v157h247v-157h-247zM32 586v154h247v-154h-247zM32 0v550h247v-550h-247zM281 -198v169q36 6 49.5 20t13.5 52v504h247v-520q0 -117 -73.5 -166t-236.5 -59z" />
    <glyph glyph-name="Jcircumflex" unicode="&#x134;" horiz-adv-x="362" 
d="M-50 -219v185q52 4 70.5 24t18.5 74v641h284v-632q0 -59 -8.5 -100.5t-32 -78.5t-65 -60t-108 -37t-159.5 -16zM183 783l-45 -47h-172l132 163h170l132 -163h-172z" />
    <glyph glyph-name="jcircumflex" unicode="&#x135;" horiz-adv-x="311" 
d="M-31 -195v169q36 6 49.5 20t13.5 52v504h247v-520q0 -117 -73.5 -166t-236.5 -59zM155 633l-42 -47h-172l139 175h150l139 -175h-172z" />
    <glyph glyph-name="uni0136" unicode="&#x136;" horiz-adv-x="768" 
d="M462 0l-113 225l-26 -36v-189h-284v705h284v-222l162 222h271v-8l-202 -268l213 -421v-8h-305zM286 -246l9 210h186l7 -12l-71 -198h-131z" />
    <glyph glyph-name="uni0137" unicode="&#x137;" horiz-adv-x="635" 
d="M371 0l-72 155l-23 -32v-123h-247v711l247 35v-385l121 189h235v-10l-146 -213l146 -317v-10h-261zM214 -246l9 210h186l7 -12l-71 -198h-131z" />
    <glyph glyph-name="Lacute" unicode="&#x139;" horiz-adv-x="570" 
d="M39 0v705h282v-493h225v-212h-507zM238 736h-173l72 163h221z" />
    <glyph glyph-name="lacute" unicode="&#x13a;" horiz-adv-x="309" 
d="M31 0v711l247 35v-746h-247zM226 766h-173l72 163h221z" />
    <glyph glyph-name="uni013B" unicode="&#x13b;" horiz-adv-x="570" 
d="M39 0v705h282v-493h225v-212h-507zM184 -246l9 210h186l7 -12l-71 -198h-131z" />
    <glyph glyph-name="uni013C" unicode="&#x13c;" horiz-adv-x="309" 
d="M31 0v711l247 35v-746h-247zM47 -246l9 210h186l7 -12l-71 -198h-131z" />
    <glyph glyph-name="Lcaron" unicode="&#x13d;" horiz-adv-x="570" 
d="M39 0v705h282v-493h225v-212h-507zM341 543l6 162h144v-54l-27 -108h-123z" />
    <glyph glyph-name="lcaron" unicode="&#x13e;" horiz-adv-x="309" 
d="M31 0v711l247 35v-746h-247zM305 581l6 162h144v-54l-27 -108h-123z" />
    <glyph glyph-name="Ldot" unicode="&#x13f;" horiz-adv-x="586" 
d="M361 289v182h227v-182h-227zM39 0v705h282v-493h225v-212h-507z" />
    <glyph glyph-name="ldot" unicode="&#x140;" horiz-adv-x="494" 
d="M31 0v711l247 35v-746h-247zM308 286v182h187v-182h-187z" />
    <glyph glyph-name="Lslash" unicode="&#x141;" horiz-adv-x="585" 
d="M54 0v227l-57 -21v136l57 21v342h282v-240l156 57v-136l-156 -57v-117h225v-212h-507z" />
    <glyph glyph-name="lslash" unicode="&#x142;" horiz-adv-x="344" 
d="M293 0h-247v276l-38 -16v157l38 16v278l247 35v-212l43 18v-157l-43 -18v-377z" />
    <glyph glyph-name="Nacute" unicode="&#x143;" horiz-adv-x="753" 
d="M534 0l-262 286v-286h-233v705h189l253 -276v276h233v-705h-180zM434 736h-173l72 163h221z" />
    <glyph glyph-name="nacute" unicode="&#x144;" 
d="M320 372q-24 0 -44 -15v-357h-247v550h217l14 -87q69 100 181 100q81 0 132 -52t51 -163v-348h-247v311q0 61 -57 61zM401 586h-168l60 175h225z" />
    <glyph glyph-name="uni0145" unicode="&#x145;" horiz-adv-x="753" 
d="M534 0l-262 286v-286h-233v705h189l253 -276v276h233v-705h-180zM280 -246l9 210h186l7 -12l-71 -198h-131z" />
    <glyph glyph-name="uni0146" unicode="&#x146;" 
d="M320 372q-24 0 -44 -15v-357h-247v550h217l14 -87q69 100 181 100q81 0 132 -52t51 -163v-348h-247v311q0 61 -57 61zM219 -246l9 210h186l7 -12l-71 -198h-131z" />
    <glyph glyph-name="Ncaron" unicode="&#x147;" horiz-adv-x="753" 
d="M534 0l-262 286v-286h-233v705h189l253 -276v276h233v-705h-180zM365 852l45 47h172l-132 -163h-170l-132 163h172z" />
    <glyph glyph-name="ncaron" unicode="&#x148;" 
d="M320 372q-24 0 -44 -15v-357h-247v550h217l14 -87q69 100 181 100q81 0 132 -52t51 -163v-348h-247v311q0 61 -57 61zM326 714l42 47h172l-139 -175h-150l-139 175h172z" />
    <glyph glyph-name="napostrophe" unicode="&#x149;" horiz-adv-x="730" 
d="M400 372q-24 0 -44 -15v-357h-247v550h217l14 -87q69 100 181 100q81 0 132 -52t51 -163v-348h-247v311q0 61 -57 61zM126 705l6 -11l-78 -258h-164l19 269h217z" />
    <glyph glyph-name="Eng" unicode="&#x14a;" horiz-adv-x="753" 
d="M356 -219v189q53 4 71 22.5t18 71.5v33l-173 189v-286h-233v705h189l253 -276v276h233v-640q0 -55 -9.5 -96.5t-33.5 -77t-64.5 -58.5t-103 -37t-147.5 -15z" />
    <glyph glyph-name="eng" unicode="&#x14b;" 
d="M314 -195v169q36 6 49.5 20t13.5 52v265q0 61 -57 61q-24 0 -44 -15v-357h-247v550h217l14 -87q69 100 181 100q81 0 132 -52t51 -163v-318q0 -117 -73.5 -166t-236.5 -59z" />
    <glyph glyph-name="Omacron" unicode="&#x14c;" horiz-adv-x="818" 
d="M409 -15q-182 0 -288 103.5t-106 266.5q0 162 106 263.5t288 101.5t288 -101.5t106 -263.5q0 -163 -106 -266.5t-288 -103.5zM409 185q55 0 81.5 45.5t26.5 124.5q0 78 -27.5 122t-80.5 44t-80.5 -44t-27.5 -122q0 -79 26.5 -124.5t81.5 -45.5zM220 746v142h378v-142
h-378z" />
    <glyph glyph-name="omacron" unicode="&#x14d;" horiz-adv-x="660" 
d="M330 -13q-139 0 -229 79.5t-90 209.5q0 131 89.5 209t229.5 78t229.5 -78t89.5 -209q0 -130 -90 -209.5t-229 -79.5zM330 156q67 0 67 119q0 120 -67 120t-67 -120q0 -119 67 -119zM148 599v136h364v-136h-364z" />
    <glyph glyph-name="Obreve" unicode="&#x14e;" horiz-adv-x="818" 
d="M409 -15q-182 0 -288 103.5t-106 266.5q0 162 106 263.5t288 101.5t288 -101.5t106 -263.5q0 -163 -106 -266.5t-288 -103.5zM409 185q55 0 81.5 45.5t26.5 124.5q0 78 -27.5 122t-80.5 44t-80.5 -44t-27.5 -122q0 -79 26.5 -124.5t81.5 -45.5zM409 729q-85 0 -137 43.5
t-62 126.5h150q11 -38 49 -38q36 0 49 38h150q-10 -83 -62 -126.5t-137 -43.5z" />
    <glyph glyph-name="obreve" unicode="&#x14f;" horiz-adv-x="660" 
d="M330 -13q-139 0 -229 79.5t-90 209.5q0 131 89.5 209t229.5 78t229.5 -78t89.5 -209q0 -130 -90 -209.5t-229 -79.5zM330 156q67 0 67 119q0 120 -67 120t-67 -120q0 -119 67 -119zM330 578q-80 0 -131.5 45.5t-61.5 128.5h143q10 -42 50 -42q38 0 50 42h143
q-10 -83 -61.5 -128.5t-131.5 -45.5z" />
    <glyph glyph-name="Ohungarumlaut" unicode="&#x150;" horiz-adv-x="818" 
d="M409 -15q-182 0 -288 103.5t-106 266.5q0 162 106 263.5t288 101.5t288 -101.5t106 -263.5q0 -163 -106 -266.5t-288 -103.5zM409 185q55 0 81.5 45.5t26.5 124.5q0 78 -27.5 122t-80.5 44t-80.5 -44t-27.5 -122q0 -79 26.5 -124.5t81.5 -45.5zM376 736h-153l32 158h209z
M606 736h-153l42 158h209z" />
    <glyph glyph-name="ohungarumlaut" unicode="&#x151;" horiz-adv-x="660" 
d="M330 -13q-139 0 -229 79.5t-90 209.5q0 131 89.5 209t229.5 78t229.5 -78t89.5 -209q0 -130 -90 -209.5t-229 -79.5zM330 156q67 0 67 119q0 120 -67 120t-67 -120q0 -119 67 -119zM297 586h-138l32 175h194zM504 586h-138l42 175h194z" />
    <glyph glyph-name="OE" unicode="&#x152;" horiz-adv-x="1032" 
d="M417 192h44v321h-44q-57 0 -86.5 -43.5t-29.5 -114.5q0 -73 28 -118t88 -45zM1004 0h-595q-181 0 -287.5 100.5t-106.5 254.5t106 252t288 98h586v-192h-256v-67h215v-177h-215v-77h265v-192z" />
    <glyph glyph-name="oe" unicode="&#x153;" horiz-adv-x="983" 
d="M699 412q-27 0 -42 -16.5t-21 -55.5h115q-2 38 -13.5 55t-38.5 17zM330 156q67 0 67 119q0 120 -67 120t-67 -120q0 -119 67 -119zM960 178v-155q-81 -36 -217 -36q-144 0 -226 58q-77 -58 -187 -58q-139 0 -229 79.5t-90 209.5q0 131 89.5 209t229.5 78q110 0 188 -57
q73 57 176 57q150 0 221 -82.5t54 -262.5h-328q11 -36 40.5 -51t89.5 -15q96 0 180 30z" />
    <glyph glyph-name="Racute" unicode="&#x154;" horiz-adv-x="714" 
d="M348 523h-30v-135h29q40 0 57 17t17 51q0 35 -17 51t-56 16zM431 0l-79 219h-34v-219h-279v705h343q153 0 226 -61.5t73 -173.5q0 -120 -78 -179l109 -279v-12h-281zM419 736h-173l72 163h221z" />
    <glyph glyph-name="racute" unicode="&#x155;" horiz-adv-x="488" 
d="M407 321q-87 0 -131 -32v-289h-247v550h216l16 -118q27 51 68.5 87.5t97.5 36.5q36 0 45 -4v-231l-6 -5q-27 5 -59 5zM353 586h-168l60 175h225z" />
    <glyph glyph-name="uni0156" unicode="&#x156;" horiz-adv-x="714" 
d="M348 523h-30v-135h29q40 0 57 17t17 51q0 35 -17 51t-56 16zM431 0l-79 219h-34v-219h-279v705h343q153 0 226 -61.5t73 -173.5q0 -120 -78 -179l109 -279v-12h-281zM249 -246l9 210h186l7 -12l-71 -198h-131z" />
    <glyph glyph-name="uni0157" unicode="&#x157;" horiz-adv-x="488" 
d="M407 321q-87 0 -131 -32v-289h-247v550h216l16 -118q27 51 68.5 87.5t97.5 36.5q36 0 45 -4v-231l-6 -5q-27 5 -59 5zM38 -246l9 210h186l7 -12l-71 -198h-131z" />
    <glyph glyph-name="Rcaron" unicode="&#x158;" horiz-adv-x="714" 
d="M348 523h-30v-135h29q40 0 57 17t17 51q0 35 -17 51t-56 16zM431 0l-79 219h-34v-219h-279v705h343q153 0 226 -61.5t73 -173.5q0 -120 -78 -179l109 -279v-12h-281zM350 852l45 47h172l-132 -163h-170l-132 163h172z" />
    <glyph glyph-name="rcaron" unicode="&#x159;" horiz-adv-x="488" 
d="M407 321q-87 0 -131 -32v-289h-247v550h216l16 -118q27 51 68.5 87.5t97.5 36.5q36 0 45 -4v-231l-6 -5q-27 5 -59 5zM278 714l42 47h172l-139 -175h-150l-139 175h172z" />
    <glyph glyph-name="Sacute" unicode="&#x15a;" horiz-adv-x="583" 
d="M257 -13q-141 0 -232 48v201l7 4q112 -65 203 -65q62 0 62 33q0 7 -3 11.5t-13.5 9t-17.5 6.5l-28 8l-45 11q-173 42 -173 215q0 124 76.5 186.5t221.5 62.5q130 0 206 -34v-194l-8 -5q-87 46 -185 46q-57 0 -57 -25q0 -12 11 -19t38 -13l44 -10q119 -27 161.5 -76
t42.5 -145q0 -123 -78 -189.5t-233 -66.5zM370 736h-173l72 163h221z" />
    <glyph glyph-name="sacute" unicode="&#x15b;" horiz-adv-x="488" 
d="M225 -13q-123 0 -208 45v158l8 4q71 -51 175 -51q55 0 55 21q0 9 -8 14t-31 9l-46 8q-79 13 -119 50.5t-40 119.5q0 95 63 146.5t183 51.5q112 0 187 -29v-153l-8 -4q-64 35 -167 35q-29 0 -38.5 -4.5t-9.5 -14.5q0 -9 4.5 -12.5t19.5 -5.5l44 -8q102 -16 145.5 -55
t43.5 -118q0 -99 -63 -153t-190 -54zM329 586h-168l60 175h225z" />
    <glyph glyph-name="Scircumflex" unicode="&#x15c;" horiz-adv-x="583" 
d="M257 -13q-141 0 -232 48v201l7 4q112 -65 203 -65q62 0 62 33q0 7 -3 11.5t-13.5 9t-17.5 6.5l-28 8l-45 11q-173 42 -173 215q0 124 76.5 186.5t221.5 62.5q130 0 206 -34v-194l-8 -5q-87 46 -185 46q-57 0 -57 -25q0 -12 11 -19t38 -13l44 -10q119 -27 161.5 -76
t42.5 -145q0 -123 -78 -189.5t-233 -66.5zM301 783l-45 -47h-172l132 163h170l132 -163h-172z" />
    <glyph glyph-name="scircumflex" unicode="&#x15d;" horiz-adv-x="488" 
d="M225 -13q-123 0 -208 45v158l8 4q71 -51 175 -51q55 0 55 21q0 9 -8 14t-31 9l-46 8q-79 13 -119 50.5t-40 119.5q0 95 63 146.5t183 51.5q112 0 187 -29v-153l-8 -4q-64 35 -167 35q-29 0 -38.5 -4.5t-9.5 -14.5q0 -9 4.5 -12.5t19.5 -5.5l44 -8q102 -16 145.5 -55
t43.5 -118q0 -99 -63 -153t-190 -54zM254 633l-42 -47h-172l139 175h150l139 -175h-172z" />
    <glyph glyph-name="uni015E" unicode="&#x15e;" horiz-adv-x="583" 
d="M263 -243q-58 0 -97 24v87l9 4q30 -17 57 -17q36 0 36 29q0 30 -59 35v69q-114 10 -184 47v201l7 4q112 -65 203 -65q62 0 62 33q0 7 -3 11.5t-13.5 9t-17.5 6.5l-28 8l-45 11q-173 42 -173 215q0 124 76.5 186.5t221.5 62.5q130 0 206 -34v-194l-8 -5q-87 46 -185 46
q-57 0 -57 -25q0 -12 11 -19t38 -13l44 -10q119 -27 161.5 -76t42.5 -145q0 -114 -66 -179t-198 -75v-24q43 -9 67.5 -30.5t24.5 -70.5q0 -51 -35.5 -79t-97.5 -28z" />
    <glyph glyph-name="uni015F" unicode="&#x15f;" horiz-adv-x="488" 
d="M207 -243q-58 0 -97 24v87l9 4q30 -17 57 -17q36 0 36 29q0 30 -59 35v72q-77 9 -136 41v158l8 4q71 -51 175 -51q55 0 55 21q0 9 -8 14t-31 9l-46 8q-79 13 -119 50.5t-40 119.5q0 95 63 146.5t183 51.5q112 0 187 -29v-153l-8 -4q-64 35 -167 35q-29 0 -38.5 -4.5
t-9.5 -14.5q0 -9 4.5 -12.5t19.5 -5.5l44 -8q102 -16 145.5 -55t43.5 -118q0 -95 -57 -148.5t-173 -58.5v-22q43 -9 67.5 -30.5t24.5 -70.5q0 -51 -35.5 -79t-97.5 -28z" />
    <glyph glyph-name="Scaron" unicode="&#x160;" horiz-adv-x="583" 
d="M257 -13q-141 0 -232 48v201l7 4q112 -65 203 -65q62 0 62 33q0 7 -3 11.5t-13.5 9t-17.5 6.5l-28 8l-45 11q-173 42 -173 215q0 124 76.5 186.5t221.5 62.5q130 0 206 -34v-194l-8 -5q-87 46 -185 46q-57 0 -57 -25q0 -12 11 -19t38 -13l44 -10q119 -27 161.5 -76
t42.5 -145q0 -123 -78 -189.5t-233 -66.5zM301 852l45 47h172l-132 -163h-170l-132 163h172z" />
    <glyph glyph-name="scaron" unicode="&#x161;" horiz-adv-x="488" 
d="M225 -13q-123 0 -208 45v158l8 4q71 -51 175 -51q55 0 55 21q0 9 -8 14t-31 9l-46 8q-79 13 -119 50.5t-40 119.5q0 95 63 146.5t183 51.5q112 0 187 -29v-153l-8 -4q-64 35 -167 35q-29 0 -38.5 -4.5t-9.5 -14.5q0 -9 4.5 -12.5t19.5 -5.5l44 -8q102 -16 145.5 -55
t43.5 -118q0 -99 -63 -153t-190 -54zM254 714l42 47h172l-139 -175h-150l-139 175h172z" />
    <glyph glyph-name="Tcommaaccent" unicode="&#x162;" horiz-adv-x="654" 
d="M635 492h-166v-492h-284v492h-166v213h616v-213zM220 -246l9 210h186l7 -12l-71 -198h-131z" />
    <glyph glyph-name="tcommaaccent" unicode="&#x163;" horiz-adv-x="434" 
d="M407 166v-161q-55 -15 -137 -15q-99 0 -150.5 36t-51.5 133v228h-57v163h57v79l247 38v-117h96v-163h-96v-177q0 -25 9.5 -35t32.5 -10q26 0 42 6zM140 -246l9 210h186l7 -12l-71 -198h-131z" />
    <glyph glyph-name="Tcaron" unicode="&#x164;" horiz-adv-x="654" 
d="M635 492h-166v-492h-284v492h-166v213h616v-213zM327 852l45 47h172l-132 -163h-170l-132 163h172z" />
    <glyph glyph-name="tcaron" unicode="&#x165;" horiz-adv-x="434" 
d="M407 166v-161q-55 -15 -137 -15q-99 0 -150.5 36t-51.5 133v228h-57v163h57v79l247 38v-117h96v-163h-96v-177q0 -25 9.5 -35t32.5 -10q26 0 42 6zM343 581l6 162h144v-54l-27 -108h-123z" />
    <glyph glyph-name="Tbar" unicode="&#x166;" horiz-adv-x="654" 
d="M582 251h-113v-251h-284v251h-113v150h113v91h-166v213h616v-213h-166v-91h113v-150z" />
    <glyph glyph-name="tbar" unicode="&#x167;" horiz-adv-x="434" 
d="M407 166v-161q-55 -15 -137 -15q-99 0 -150.5 36t-51.5 133v91h-57v90h57v47h-57v163h57v79l247 38v-117h96v-163h-96v-47h96v-90h-96v-40q0 -25 9.5 -35t32.5 -10q26 0 42 6z" />
    <glyph glyph-name="Utilde" unicode="&#x168;" horiz-adv-x="750" 
d="M451 851q27 0 51 26l8 -3l27 -83q-39 -45 -96 -45q-34 0 -68 11t-48 11q-29 0 -56 -25l-9 3l-26 83q37 44 97 44q33 0 69 -11t51 -11zM382 -12q-178 0 -263 77.5t-85 232.5v407h284v-406q0 -47 18.5 -69t60.5 -22t60 22t18 69v406h241v-407q0 -147 -80.5 -228.5
t-253.5 -81.5z" />
    <glyph glyph-name="utilde" unicode="&#x169;" 
d="M391 703q27 0 51 26l8 -3l27 -83q-39 -45 -96 -45q-34 0 -68 11t-48 11q-29 0 -56 -25l-9 3l-26 83q37 44 97 44q33 0 69 -11t51 -11zM404 0l-13 78q-65 -91 -171 -91q-87 0 -140.5 53.5t-53.5 161.5v348h247v-311q0 -31 12 -46t43 -15q28 0 46 13v359h247v-550h-217z
" />
    <glyph glyph-name="Umacron" unicode="&#x16a;" horiz-adv-x="750" 
d="M382 -12q-178 0 -263 77.5t-85 232.5v407h284v-406q0 -47 18.5 -69t60.5 -22t60 22t18 69v406h241v-407q0 -147 -80.5 -228.5t-253.5 -81.5zM195 746v142h378v-142h-378z" />
    <glyph glyph-name="umacron" unicode="&#x16b;" 
d="M404 0l-13 78q-65 -91 -171 -91q-87 0 -140.5 53.5t-53.5 161.5v348h247v-311q0 -31 12 -46t43 -15q28 0 46 13v359h247v-550h-217zM141 599v136h364v-136h-364z" />
    <glyph glyph-name="Ubreve" unicode="&#x16c;" horiz-adv-x="750" 
d="M382 -12q-178 0 -263 77.5t-85 232.5v407h284v-406q0 -47 18.5 -69t60.5 -22t60 22t18 69v406h241v-407q0 -147 -80.5 -228.5t-253.5 -81.5zM384 729q-85 0 -137 43.5t-62 126.5h150q11 -38 49 -38q36 0 49 38h150q-10 -83 -62 -126.5t-137 -43.5z" />
    <glyph glyph-name="ubreve" unicode="&#x16d;" 
d="M404 0l-13 78q-65 -91 -171 -91q-87 0 -140.5 53.5t-53.5 161.5v348h247v-311q0 -31 12 -46t43 -15q28 0 46 13v359h247v-550h-217zM323 578q-80 0 -131.5 45.5t-61.5 128.5h143q11 -42 50 -42q38 0 50 42h143q-10 -83 -61.5 -128.5t-131.5 -45.5z" />
    <glyph glyph-name="Uring" unicode="&#x16e;" horiz-adv-x="750" 
d="M382 -12q-178 0 -263 77.5t-85 232.5v407h284v-406q0 -47 18.5 -69t60.5 -22t60 22t18 69v406h241v-407q0 -147 -80.5 -228.5t-253.5 -81.5zM390 715q-56 0 -90 33t-34 87t34 87t90 33t90 -33t34 -87t-34 -87t-90 -33zM390 873q-17 0 -27 -10.5t-10 -27.5q0 -37 37 -37
q16 0 26.5 10t10.5 27t-10.5 27.5t-26.5 10.5z" />
    <glyph glyph-name="uring" unicode="&#x16f;" 
d="M404 0l-13 78q-65 -91 -171 -91q-87 0 -140.5 53.5t-53.5 161.5v348h247v-311q0 -31 12 -46t43 -15q28 0 46 13v359h247v-550h-217zM323 580q-56 0 -90 33t-34 87t34 87t90 33t90 -33t34 -87t-34 -87t-90 -33zM323 738q-17 0 -27 -10.5t-10 -27.5q0 -37 37 -37
q16 0 26.5 10t10.5 27t-10.5 27.5t-26.5 10.5z" />
    <glyph glyph-name="Uhungarumlaut" unicode="&#x170;" horiz-adv-x="750" 
d="M382 -12q-178 0 -263 77.5t-85 232.5v407h284v-406q0 -47 18.5 -69t60.5 -22t60 22t18 69v406h241v-407q0 -147 -80.5 -228.5t-253.5 -81.5zM351 736h-153l32 158h209zM581 736h-153l42 158h209z" />
    <glyph glyph-name="uhungarumlaut" unicode="&#x171;" 
d="M404 0l-13 78q-65 -91 -171 -91q-87 0 -140.5 53.5t-53.5 161.5v348h247v-311q0 -31 12 -46t43 -15q28 0 46 13v359h247v-550h-217zM290 586h-138l32 175h194zM497 586h-138l42 175h194z" />
    <glyph glyph-name="Uogonek" unicode="&#x172;" horiz-adv-x="750" 
d="M435 -194q-66 0 -102 22.5t-36 62.5q0 58 73 97q-172 3 -254 80.5t-82 229.5v407h284v-406q0 -47 18.5 -69t60.5 -22t60 22t18 69v406h241v-407q0 -211 -156 -278q-84 -40 -84 -71q0 -24 31 -24q15 0 24 4l9 -4v-101q-44 -18 -105 -18z" />
    <glyph glyph-name="uogonek" unicode="&#x173;" 
d="M477 0h-73l-13 78q-65 -91 -171 -91q-87 0 -140.5 53.5t-53.5 161.5v348h247v-311q0 -31 12 -46t43 -15q28 0 46 13v359h247v-550h-21q-43 -34 -43 -53q0 -22 31 -22q15 0 24 4l9 -4v-101q-44 -18 -105 -18q-66 0 -102 22.5t-36 62.5q0 68 99 109z" />
    <glyph glyph-name="Wcircumflex" unicode="&#x174;" horiz-adv-x="1064" 
d="M623 0l-99 270l-106 -270h-198l-218 695v10h294l87 -280l39 104l-46 166v10h282l77 -249l73 249h250l4 -10l-213 -695h-226zM515 783l-45 -47h-172l132 163h170l132 -163h-172z" />
    <glyph glyph-name="wcircumflex" unicode="&#x175;" horiz-adv-x="848" 
d="M522 0l-98 221l-96 -221h-138l-187 540v10h245l54 -188l75 188h108l79 -193l54 193h227v-11l-183 -539h-140zM424 633l-42 -47h-172l139 175h150l139 -175h-172z" />
    <glyph glyph-name="Ycircumflex" unicode="&#x176;" horiz-adv-x="700" 
d="M493 0h-284v267l-209 428v10h287l85 -196l81 196h247v-10l-207 -421v-274zM369 783l-45 -47h-172l132 163h170l132 -163h-172z" />
    <glyph glyph-name="ycircumflex" unicode="&#x177;" horiz-adv-x="649" 
d="M94 -194v175q53 3 74.5 10.5t29.5 28.5l2 5l-194 515v10h261l75 -251l79 251h222v-10l-184 -503q-47 -132 -121.5 -177.5t-243.5 -53.5zM338 633l-42 -47h-172l139 175h150l139 -175h-172z" />
    <glyph glyph-name="Ydieresis" unicode="&#x178;" horiz-adv-x="700" 
d="M493 0h-284v267l-209 428v10h287l85 -196l81 196h247v-10l-207 -421v-274zM389 736v164h206v-164h-206zM144 736v164h206v-164h-206z" />
    <glyph glyph-name="Zacute" unicode="&#x179;" horiz-adv-x="638" 
d="M617 0h-603v113l249 396h-233v196h580v-126l-239 -382h246v-197zM393 736h-173l72 163h221z" />
    <glyph glyph-name="zacute" unicode="&#x17a;" horiz-adv-x="529" 
d="M510 0h-496v65l191 321h-175v164h479v-76l-184 -310h185v-164zM350 586h-168l60 175h225z" />
    <glyph glyph-name="Zdotaccent" unicode="&#x17b;" horiz-adv-x="638" 
d="M617 0h-603v113l249 396h-233v196h580v-126l-239 -382h246v-197zM213 736v170h222v-170h-222z" />
    <glyph glyph-name="zdotaccent" unicode="&#x17c;" horiz-adv-x="529" 
d="M510 0h-496v65l191 321h-175v164h479v-76l-184 -310h185v-164zM164 588v170h222v-170h-222z" />
    <glyph glyph-name="Zcaron" unicode="&#x17d;" horiz-adv-x="638" 
d="M617 0h-603v113l249 396h-233v196h580v-126l-239 -382h246v-197zM324 852l45 47h172l-132 -163h-170l-132 163h172z" />
    <glyph glyph-name="zcaron" unicode="&#x17e;" horiz-adv-x="529" 
d="M510 0h-496v65l191 321h-175v164h479v-76l-184 -310h185v-164zM275 714l42 47h172l-139 -175h-150l-139 175h172z" />
    <glyph glyph-name="uni0192" unicode="&#x192;" horiz-adv-x="484" 
d="M445 234h-118l-52 -444h-247l52 444h-52v163h70l9 74q26 227 239 227q77 0 113 -16v-140l-6 -5q-9 4 -36 4q-31 0 -45 -17.5t-18 -52.5l-9 -74h100v-163z" />
    <glyph glyph-name="Ohorn" unicode="&#x1a0;" horiz-adv-x="818" 
d="M409 -15q-182 0 -288 103.5t-106 266.5q0 162 106 263.5t288 101.5q73 0 130 -16h36q29 4 38 25t9 60h160q0 -64 -24 -102t-77 -56l18 -15q104 -98 104 -261t-106 -266.5t-288 -103.5zM409 185q55 0 81.5 45.5t26.5 124.5q0 78 -27.5 122t-80.5 44t-80.5 -44t-27.5 -122
q0 -79 26.5 -124.5t81.5 -45.5z" />
    <glyph glyph-name="ohorn" unicode="&#x1a1;" horiz-adv-x="660" 
d="M330 -13q-139 0 -229 79.5t-90 209.5q0 131 89.5 209t229.5 78q55 0 106 -14h20q30 3 39.5 24.5t9.5 60.5h160q0 -63 -23.5 -101t-74.5 -56q36 -34 58 -82q24 -53 24 -119q0 -130 -90 -209.5t-229 -79.5zM330 156q67 0 67 119q0 120 -67 120t-67 -120q0 -119 67 -119z
" />
    <glyph glyph-name="Uhorn" unicode="&#x1af;" horiz-adv-x="750" 
d="M382 -12q-178 0 -263 77.5t-85 232.5v407h284v-406q0 -47 18.5 -69t60.5 -22t60 22t18 69v406h149q25 5 33 26t8 58h160q0 -66 -26 -105t-83 -55v-331q0 -147 -80.5 -228.5t-253.5 -81.5z" />
    <glyph glyph-name="uhorn" unicode="&#x1b0;" 
d="M404 0l-13 78q-65 -91 -171 -91q-87 0 -140.5 53.5t-53.5 161.5v348h247v-311q0 -31 12 -46t43 -15q28 0 46 13v359h155q25 5 33 26t8 58h160q0 -66 -26 -105t-83 -55v-474h-217z" />
    <glyph glyph-name="Aringacute" unicode="&#x1fa;" horiz-adv-x="777" 
d="M405 239l-44 141l-45 -141h89zM481 0l-22 71h-196l-22 -71h-235v10l266 695h234l266 -695v-10h-291zM389 722q-56 0 -90 33t-34 87t34 87t90 33t90 -33t34 -87t-34 -87t-90 -33zM389 880q-17 0 -27 -10.5t-10 -27.5q0 -37 37 -37q16 0 26.5 10t10.5 27t-10.5 27.5
t-26.5 10.5zM468 976h-173l72 163h221z" />
    <glyph glyph-name="aringacute" unicode="&#x1fb;" horiz-adv-x="593" 
d="M282 134q26 0 40 17v73l-38 -5q-38 -6 -38 -42q0 -43 36 -43zM355 0l-14 62q-51 -75 -157 -75q-76 0 -124 41.5t-48 124.5q0 85 55 123t163 49l92 9q-2 30 -21.5 41.5t-67.5 11.5q-92 0 -164 -45l-11 3v174q77 44 233 44q142 0 209 -56.5t67 -185.5v-321h-212zM294 580
q-56 0 -90 33t-34 87t34 87t90 33t90 -33t34 -87t-34 -87t-90 -33zM294 738q-17 0 -27 -10.5t-10 -27.5q0 -37 37 -37q16 0 26.5 10t10.5 27t-10.5 27.5t-26.5 10.5zM373 838h-173l72 163h221z" />
    <glyph glyph-name="AEacute" unicode="&#x1fc;" horiz-adv-x="990" 
d="M445 261v221l-96 -221h96zM445 0v87h-171l-38 -87h-233v10l327 695h623v-192h-246v-67h205v-177h-205v-77h255v-192h-517zM677 736h-173l72 163h221z" />
    <glyph glyph-name="aeacute" unicode="&#x1fd;" horiz-adv-x="904" 
d="M620 412q-27 0 -42 -16.5t-21 -55.5h115q-2 38 -13.5 55t-38.5 17zM282 134q40 0 58 26q-9 26 -14 64l-42 -5q-38 -6 -38 -42q0 -43 36 -43zM881 178v-155q-81 -36 -217 -36q-173 0 -259 75q-63 -75 -203 -75q-89 0 -139.5 41t-50.5 125q0 85 55 123t163 49l92 9
q-2 30 -21.5 41.5t-67.5 11.5q-92 0 -164 -45l-11 3v174q77 44 233 44q120 0 173 -44q58 44 151 44q150 0 221 -82.5t54 -262.5h-328q11 -36 40.5 -51t89.5 -15q96 0 180 30zM542 586h-168l60 175h225z" />
    <glyph glyph-name="Oslashacute" unicode="&#x1fe;" horiz-adv-x="818" 
d="M294 355q0 -25 3 -48l167 200q-23 14 -55 14q-55 0 -85 -44.5t-30 -121.5zM409 185q57 0 86 45.5t29 124.5q0 42 -7 69l-179 -214q26 -25 71 -25zM409 -15q-123 0 -216 51l-76 -90l-71 62l71 85q-102 102 -102 262q0 162 106 263.5t288 101.5q114 0 199 -41l63 75l71 -62
l-54 -65q115 -100 115 -272q0 -163 -106 -266.5t-288 -103.5zM478 736h-173l72 163h221z" />
    <glyph glyph-name="oslashacute" unicode="&#x1ff;" horiz-adv-x="660" 
d="M259 275q0 -14 1 -21l108 129q-15 12 -38 12q-71 0 -71 -120zM330 156q71 0 71 119q0 20 -1 29l-112 -133q16 -15 42 -15zM330 -13q-93 0 -166 37l-51 -61l-57 49l45 54q-90 82 -90 210q0 131 89.5 209t229.5 78q92 0 161 -34l61 72l57 -49l-54 -64q94 -77 94 -212
q0 -130 -90 -209.5t-229 -79.5zM405 586h-168l60 175h225z" />
    <glyph glyph-name="uni0218" unicode="&#x218;" horiz-adv-x="583" 
d="M257 -13q-141 0 -232 48v201l7 4q112 -65 203 -65q62 0 62 33q0 7 -3 11.5t-13.5 9t-17.5 6.5l-28 8l-45 11q-173 42 -173 215q0 124 76.5 186.5t221.5 62.5q130 0 206 -34v-194l-8 -5q-87 46 -185 46q-57 0 -57 -25q0 -12 11 -19t38 -13l44 -10q119 -27 161.5 -76
t42.5 -145q0 -123 -78 -189.5t-233 -66.5zM174 -246l9 210h186l7 -12l-71 -198h-131z" />
    <glyph glyph-name="uni0219" unicode="&#x219;" horiz-adv-x="488" 
d="M225 -13q-123 0 -208 45v158l8 4q71 -51 175 -51q55 0 55 21q0 9 -8 14t-31 9l-46 8q-79 13 -119 50.5t-40 119.5q0 95 63 146.5t183 51.5q112 0 187 -29v-153l-8 -4q-64 35 -167 35q-29 0 -38.5 -4.5t-9.5 -14.5q0 -9 4.5 -12.5t19.5 -5.5l44 -8q102 -16 145.5 -55
t43.5 -118q0 -99 -63 -153t-190 -54zM130 -246l9 210h186l7 -12l-71 -198h-131z" />
    <glyph glyph-name="uni021A" unicode="&#x21a;" horiz-adv-x="654" 
d="M635 492h-166v-492h-284v492h-166v213h616v-213zM220 -246l9 210h186l7 -12l-71 -198h-131z" />
    <glyph glyph-name="uni021B" unicode="&#x21b;" horiz-adv-x="434" 
d="M407 166v-161q-55 -15 -137 -15q-99 0 -150.5 36t-51.5 133v228h-57v163h57v79l247 38v-117h96v-163h-96v-177q0 -25 9.5 -35t32.5 -10q26 0 42 6zM140 -246l9 210h186l7 -12l-71 -198h-131z" />
    <glyph glyph-name="uni0237" unicode="&#x237;" horiz-adv-x="311" 
d="M-31 -195v169q36 6 49.5 20t13.5 52v504h247v-520q0 -117 -73.5 -166t-236.5 -59z" />
    <glyph glyph-name="circumflex" unicode="&#x2c6;" horiz-adv-x="400" 
d="M200 633l-42 -47h-172l139 175h150l139 -175h-172z" />
    <glyph glyph-name="caron" unicode="&#x2c7;" horiz-adv-x="400" 
d="M200 714l42 47h172l-139 -175h-150l-139 175h172z" />
    <glyph glyph-name="breve" unicode="&#x2d8;" horiz-adv-x="400" 
d="M200 578q-80 0 -131.5 45.5t-61.5 128.5h143q10 -42 50 -42q38 0 50 42h143q-10 -83 -61.5 -128.5t-131.5 -45.5z" />
    <glyph glyph-name="dotaccent" unicode="&#x2d9;" horiz-adv-x="400" 
d="M89 588v170h222v-170h-222z" />
    <glyph glyph-name="ring" unicode="&#x2da;" horiz-adv-x="400" 
d="M200 580q-56 0 -90 33t-34 87t34 87t90 33t90 -33t34 -87t-34 -87t-90 -33zM200 738q-17 0 -27 -10.5t-10 -27.5q0 -37 37 -37q16 0 26.5 10t10.5 27t-10.5 27.5t-26.5 10.5z" />
    <glyph glyph-name="ogonek" unicode="&#x2db;" horiz-adv-x="400" 
d="M322 -75v-101q-44 -18 -105 -18q-66 0 -102 22.5t-36 62.5q0 68 99 109h123q-43 -34 -43 -53q0 -22 31 -22q15 0 24 4z" />
    <glyph glyph-name="tilde" unicode="&#x2dc;" horiz-adv-x="400" 
d="M288 741q36 0 68 35l11 -4l36 -119q-55 -65 -129 -65q-44 0 -90.5 15t-64.5 15q-38 0 -75 -34l-11 4l-36 119q49 64 130 64q45 0 93 -15t68 -15z" />
    <glyph glyph-name="hungarumlaut" unicode="&#x2dd;" horiz-adv-x="400" 
d="M166 586h-138l32 175h194zM373 586h-138l42 175h194z" />
    <glyph glyph-name="Wgrave" unicode="&#x1e80;" horiz-adv-x="1064" 
d="M623 0l-99 270l-106 -270h-198l-218 695v10h294l87 -280l39 104l-46 166v10h282l77 -249l73 249h250l4 -10l-213 -695h-226zM448 736l-120 163h221l72 -163h-173z" />
    <glyph glyph-name="wgrave" unicode="&#x1e81;" horiz-adv-x="848" 
d="M522 0l-98 221l-96 -221h-138l-187 540v10h245l54 -188l75 188h108l79 -193l54 193h227v-11l-183 -539h-140zM353 586l-117 175h225l60 -175h-168z" />
    <glyph glyph-name="Wacute" unicode="&#x1e82;" horiz-adv-x="1064" 
d="M623 0l-99 270l-106 -270h-198l-218 695v10h294l87 -280l39 104l-46 166v10h282l77 -249l73 249h250l4 -10l-213 -695h-226zM584 736h-173l72 163h221z" />
    <glyph glyph-name="wacute" unicode="&#x1e83;" horiz-adv-x="848" 
d="M522 0l-98 221l-96 -221h-138l-187 540v10h245l54 -188l75 188h108l79 -193l54 193h227v-11l-183 -539h-140zM499 586h-168l60 175h225z" />
    <glyph glyph-name="Wdieresis" unicode="&#x1e84;" horiz-adv-x="1064" 
d="M623 0l-99 270l-106 -270h-198l-218 695v10h294l87 -280l39 104l-46 166v10h282l77 -249l73 249h250l4 -10l-213 -695h-226zM535 736v164h206v-164h-206zM290 736v164h206v-164h-206z" />
    <glyph glyph-name="wdieresis" unicode="&#x1e85;" horiz-adv-x="848" 
d="M522 0l-98 221l-96 -221h-138l-187 540v10h245l54 -188l75 188h108l79 -193l54 193h227v-11l-183 -539h-140zM214 586v164h193v-164h-193zM441 586v164h193v-164h-193z" />
    <glyph glyph-name="uni1EA0" unicode="&#x1ea0;" horiz-adv-x="777" 
d="M272 -178v130h194v-130h-194zM405 239l-44 141l-45 -141h89zM481 0l-22 71h-196l-22 -71h-235v10l266 695h234l266 -695v-10h-291z" />
    <glyph glyph-name="uni1EA1" unicode="&#x1ea1;" horiz-adv-x="593" 
d="M192 -178v130h194v-130h-194zM282 134q26 0 40 17v73l-38 -5q-38 -6 -38 -42q0 -43 36 -43zM355 0l-14 62q-51 -75 -157 -75q-76 0 -124 41.5t-48 124.5q0 85 55 123t163 49l92 9q-2 30 -21.5 41.5t-67.5 11.5q-92 0 -164 -45l-11 3v174q77 44 233 44q142 0 209 -56.5
t67 -185.5v-321h-212z" />
    <glyph glyph-name="uni1EA2" unicode="&#x1ea2;" horiz-adv-x="777" 
d="M293 828l-8 61q41 16 112 17q131 -2 137 -66q3 -43 -42 -65q-44 -21 -44 -39h-111q0 32 29 52q30 21 30 35q1 12 -8 16.5t-28 4.5q-28 0 -67 -16zM405 239l-44 141l-45 -141h89zM481 0l-22 71h-196l-22 -71h-235v10l266 695h234l266 -695v-10h-291z" />
    <glyph glyph-name="uni1EA3" unicode="&#x1ea3;" horiz-adv-x="593" 
d="M206 690l-8 61q41 16 112 17q131 -2 137 -66q3 -43 -42 -65q-44 -21 -44 -39h-111q0 32 29 52q30 21 30 35q1 12 -8 16.5t-28 4.5q-28 0 -67 -16zM282 134q26 0 40 17v73l-38 -5q-38 -6 -38 -42q0 -43 36 -43zM355 0l-14 62q-51 -75 -157 -75q-76 0 -124 41.5t-48 124.5
q0 85 55 123t163 49l92 9q-2 30 -21.5 41.5t-67.5 11.5q-92 0 -164 -45l-11 3v174q77 44 233 44q142 0 209 -56.5t67 -185.5v-321h-212z" />
    <glyph glyph-name="uni1EA4" unicode="&#x1ea4;" horiz-adv-x="777" 
d="M703 955l-73 -110h-131l47 110h157zM353 736l36 42l38 -42h135l-101 130h-142l-101 -130h135zM361 380l44 -141h-89zM459 71l22 -71h291v10l-266 695h-234l-266 -695v-10h235l22 71h196z" />
    <glyph glyph-name="uni1EA5" unicode="&#x1ea5;" horiz-adv-x="593" 
d="M621 807l-73 -110h-131l47 110h157zM271 588l36 42l38 -42h135l-101 130h-142l-101 -130h135zM282 134q-36 0 -36 43q0 36 38 42l38 5v-73q-14 -17 -40 -17zM341 62l14 -62h212v321q0 129 -67 185.5t-209 56.5q-156 0 -233 -44v-174l11 -3q72 45 164 45q48 0 67.5 -11.5
t21.5 -41.5l-92 -9q-108 -11 -163 -49t-55 -123q0 -83 48 -124.5t124 -41.5q106 0 157 75z" />
    <glyph glyph-name="uni1EA6" unicode="&#x1ea6;" horiz-adv-x="777" 
d="M508 845l-73 110h157l47 -110h-131zM389 778l-36 -42h-135l101 130h142l101 -130h-135zM405 239l-44 141l-45 -141h89zM481 0l-22 71h-196l-22 -71h-235v10l266 695h234l266 -695v-10h-291z" />
    <glyph glyph-name="uni1EA7" unicode="&#x1ea7;" horiz-adv-x="593" 
d="M426 697l-73 110h157l47 -110h-131zM307 630l-36 -42h-135l101 130h142l101 -130h-135zM282 134q26 0 40 17v73l-38 -5q-38 -6 -38 -42q0 -43 36 -43zM355 0l-14 62q-51 -75 -157 -75q-76 0 -124 41.5t-48 124.5q0 85 55 123t163 49l92 9q-2 30 -21.5 41.5t-67.5 11.5
q-92 0 -164 -45l-11 3v174q77 44 233 44q142 0 209 -56.5t67 -185.5v-321h-212z" />
    <glyph glyph-name="uni1EA8" unicode="&#x1ea8;" horiz-adv-x="777" 
d="M460 925l-8 52q34 14 98 15q53 -1 85.5 -15.5t34.5 -41.5q3 -37 -36 -56q-39 -18 -39 -34h-97q0 29 22 45q23 18 23 30q1 10 -6.5 14t-18.5 4q-25 0 -58 -13zM389 778l-36 -42h-135l101 130h142l101 -130h-135zM405 239l-44 141l-45 -141h89zM481 0l-22 71h-196l-22 -71
h-235v10l266 695h234l266 -695v-10h-291z" />
    <glyph glyph-name="uni1EA9" unicode="&#x1ea9;" horiz-adv-x="593" 
d="M378 777l-8 52q34 14 98 15q53 -1 85.5 -15.5t34.5 -41.5q3 -37 -36 -56q-39 -18 -39 -34h-97q0 29 22 45q23 18 23 30q1 10 -6.5 14t-18.5 4q-25 0 -58 -13zM307 630l-36 -42h-135l101 130h142l101 -130h-135zM282 134q26 0 40 17v73l-38 -5q-38 -6 -38 -42
q0 -43 36 -43zM355 0l-14 62q-51 -75 -157 -75q-76 0 -124 41.5t-48 124.5q0 85 55 123t163 49l92 9q-2 30 -21.5 41.5t-67.5 11.5q-92 0 -164 -45l-11 3v174q77 44 233 44q142 0 209 -56.5t67 -185.5v-321h-212z" />
    <glyph glyph-name="uni1EAA" unicode="&#x1eaa;" horiz-adv-x="777" 
d="M453 989q27 0 51 26l8 -3l27 -83q-39 -45 -96 -45q-34 0 -68 11t-48 11q-29 0 -56 -25l-9 3l-26 83q37 44 97 44q33 0 68.5 -11t51.5 -11zM389 778l-36 -42h-135l101 130h142l101 -130h-135zM405 239l-44 141l-45 -141h89zM481 0l-22 71h-196l-22 -71h-235v10l266 695
h234l266 -695v-10h-291z" />
    <glyph glyph-name="uni1EAB" unicode="&#x1eab;" horiz-adv-x="593" 
d="M371 841q27 0 51 26l8 -3l27 -83q-39 -45 -96 -45q-34 0 -68 11t-48 11q-29 0 -56 -25l-9 3l-26 83q37 44 97 44q33 0 69 -11t51 -11zM307 630l-36 -42h-135l101 130h142l101 -130h-135zM282 134q26 0 40 17v73l-38 -5q-38 -6 -38 -42q0 -43 36 -43zM355 0l-14 62
q-51 -75 -157 -75q-76 0 -124 41.5t-48 124.5q0 85 55 123t163 49l92 9q-2 30 -21.5 41.5t-67.5 11.5q-92 0 -164 -45l-11 3v174q77 44 233 44q142 0 209 -56.5t67 -185.5v-321h-212z" />
    <glyph glyph-name="uni1EAC" unicode="&#x1eac;" horiz-adv-x="777" 
d="M272 -178v130h194v-130h-194zM389 778l-36 -42h-135l101 130h142l101 -130h-135zM405 239l-44 141l-45 -141h89zM481 0l-22 71h-196l-22 -71h-235v10l266 695h234l266 -695v-10h-291z" />
    <glyph glyph-name="uni1EAD" unicode="&#x1ead;" horiz-adv-x="593" 
d="M192 -178v130h194v-130h-194zM307 630l-36 -42h-135l101 130h142l101 -130h-135zM282 134q26 0 40 17v73l-38 -5q-38 -6 -38 -42q0 -43 36 -43zM355 0l-14 62q-51 -75 -157 -75q-76 0 -124 41.5t-48 124.5q0 85 55 123t163 49l92 9q-2 30 -21.5 41.5t-67.5 11.5
q-92 0 -164 -45l-11 3v174q77 44 233 44q142 0 209 -56.5t67 -185.5v-321h-212z" />
    <glyph glyph-name="uni1EAE" unicode="&#x1eae;" horiz-adv-x="777" 
d="M525 990l-73 -110h-131l47 110h157zM361 380l44 -141h-89zM459 71l22 -71h291v10l-266 695h-234l-266 -695v-10h235l22 71h196zM390 736q80 0 116 30.5t39 92.5h-119q-3 -35 -37 -35q-33 0 -36 35h-119q3 -62 39 -92.5t117 -30.5z" />
    <glyph glyph-name="uni1EAF" unicode="&#x1eaf;" horiz-adv-x="593" 
d="M452 845l-73 -110h-131l47 110h157zM317 591q80 0 116 30.5t39 92.5h-119q-3 -35 -37 -35q-33 0 -36 35h-119q3 -62 39 -92.5t117 -30.5zM282 134q-36 0 -36 43q0 36 38 42l38 5v-73q-14 -17 -40 -17zM341 62l14 -62h212v321q0 129 -67 185.5t-209 56.5q-156 0 -233 -44
v-174l11 -3q72 45 164 45q48 0 67.5 -11.5t21.5 -41.5l-92 -9q-108 -11 -163 -49t-55 -123q0 -83 48 -124.5t124 -41.5q106 0 157 75z" />
    <glyph glyph-name="uni1EB0" unicode="&#x1eb0;" horiz-adv-x="777" 
d="M332 880l-73 110h157l47 -110h-131zM405 239l-44 141l-45 -141h89zM481 0l-22 71h-196l-22 -71h-235v10l266 695h234l266 -695v-10h-291zM390 736q-81 0 -117 30.5t-39 92.5h119q3 -35 36 -35q34 0 37 35h119q-3 -62 -39 -92.5t-116 -30.5z" />
    <glyph glyph-name="uni1EB1" unicode="&#x1eb1;" horiz-adv-x="593" 
d="M259 735l-73 110h157l47 -110h-131zM317 591q-81 0 -117 30.5t-39 92.5h119q3 -35 36 -35q34 0 37 35h119q-3 -62 -39 -92.5t-116 -30.5zM282 134q26 0 40 17v73l-38 -5q-38 -6 -38 -42q0 -43 36 -43zM355 0l-14 62q-51 -75 -157 -75q-76 0 -124 41.5t-48 124.5
q0 85 55 123t163 49l92 9q-2 30 -21.5 41.5t-67.5 11.5q-92 0 -164 -45l-11 3v174q77 44 233 44q142 0 209 -56.5t67 -185.5v-321h-212z" />
    <glyph glyph-name="uni1EB2" unicode="&#x1eb2;" horiz-adv-x="777" 
d="M304 960l-8 52q34 14 98 15q53 -1 85.5 -15.5t34.5 -41.5q3 -37 -36 -56q-39 -18 -39 -34h-97q0 29 22 45q23 18 23 30q1 10 -6.5 14t-18.5 4q-25 0 -58 -13zM405 239l-44 141l-45 -141h89zM481 0l-22 71h-196l-22 -71h-235v10l266 695h234l266 -695v-10h-291zM390 736
q-81 0 -117 30.5t-39 92.5h119q3 -35 36 -35q34 0 37 35h119q-3 -62 -39 -92.5t-116 -30.5z" />
    <glyph glyph-name="uni1EB3" unicode="&#x1eb3;" horiz-adv-x="593" 
d="M231 815l-8 52q34 14 98 15q53 -1 85.5 -15.5t34.5 -41.5q3 -37 -36 -56q-39 -18 -39 -34h-97q0 29 22 45q23 18 23 30q1 10 -6.5 14t-18.5 4q-25 0 -58 -13zM317 591q-81 0 -117 30.5t-39 92.5h119q3 -35 36 -35q34 0 37 35h119q-3 -62 -39 -92.5t-116 -30.5zM282 134
q26 0 40 17v73l-38 -5q-38 -6 -38 -42q0 -43 36 -43zM355 0l-14 62q-51 -75 -157 -75q-76 0 -124 41.5t-48 124.5q0 85 55 123t163 49l92 9q-2 30 -21.5 41.5t-67.5 11.5q-92 0 -164 -45l-11 3v174q77 44 233 44q142 0 209 -56.5t67 -185.5v-321h-212z" />
    <glyph glyph-name="uni1EB4" unicode="&#x1eb4;" horiz-adv-x="777" 
d="M452 986q27 0 51 26l8 -3l27 -83q-39 -45 -96 -45q-34 0 -68 11t-48 11q-29 0 -56 -25l-9 3l-26 83q37 44 97 44q34 0 69.5 -11t50.5 -11zM405 239l-44 141l-45 -141h89zM481 0l-22 71h-196l-22 -71h-235v10l266 695h234l266 -695v-10h-291zM390 736q-81 0 -117 30.5
t-39 92.5h119q3 -35 36 -35q34 0 37 35h119q-3 -62 -39 -92.5t-116 -30.5z" />
    <glyph glyph-name="uni1EB5" unicode="&#x1eb5;" horiz-adv-x="593" 
d="M379 841q27 0 51 26l8 -3l27 -83q-39 -45 -96 -45q-34 0 -68 11t-48 11q-29 0 -56 -25l-9 3l-26 83q37 44 97 44q33 0 69 -11t51 -11zM317 591q-81 0 -117 30.5t-39 92.5h119q3 -35 36 -35q34 0 37 35h119q-3 -62 -39 -92.5t-116 -30.5zM282 134q26 0 40 17v73l-38 -5
q-38 -6 -38 -42q0 -43 36 -43zM355 0l-14 62q-51 -75 -157 -75q-76 0 -124 41.5t-48 124.5q0 85 55 123t163 49l92 9q-2 30 -21.5 41.5t-67.5 11.5q-92 0 -164 -45l-11 3v174q77 44 233 44q142 0 209 -56.5t67 -185.5v-321h-212z" />
    <glyph glyph-name="uni1EB6" unicode="&#x1eb6;" horiz-adv-x="777" 
d="M272 -178v130h194v-130h-194zM405 239l-44 141l-45 -141h89zM481 0l-22 71h-196l-22 -71h-235v10l266 695h234l266 -695v-10h-291zM390 736q-81 0 -117 30.5t-39 92.5h119q3 -35 36 -35q34 0 37 35h119q-3 -62 -39 -92.5t-116 -30.5z" />
    <glyph glyph-name="uni1EB7" unicode="&#x1eb7;" horiz-adv-x="593" 
d="M192 -178v130h194v-130h-194zM317 591q-81 0 -117 30.5t-39 92.5h119q3 -35 36 -35q34 0 37 35h119q-3 -62 -39 -92.5t-116 -30.5zM282 134q26 0 40 17v73l-38 -5q-38 -6 -38 -42q0 -43 36 -43zM355 0l-14 62q-51 -75 -157 -75q-76 0 -124 41.5t-48 124.5q0 85 55 123
t163 49l92 9q-2 30 -21.5 41.5t-67.5 11.5q-92 0 -164 -45l-11 3v174q77 44 233 44q142 0 209 -56.5t67 -185.5v-321h-212z" />
    <glyph glyph-name="uni1EB8" unicode="&#x1eb8;" horiz-adv-x="610" 
d="M211 -178v130h194v-130h-194zM39 0v705h534v-192h-256v-67h215v-177h-215v-77h265v-192h-543z" />
    <glyph glyph-name="uni1EB9" unicode="&#x1eb9;" horiz-adv-x="597" 
d="M228 -178v130h194v-130h-194zM313 412q-27 0 -42 -16.5t-21 -55.5h115q-2 38 -13.5 55t-38.5 17zM574 178v-155q-81 -36 -217 -36q-346 0 -346 296q0 120 81 200t216 80q150 0 221 -82.5t54 -262.5h-328q11 -36 40.5 -51t89.5 -15q96 0 180 30z" />
    <glyph glyph-name="uni1EBA" unicode="&#x1eba;" horiz-adv-x="610" 
d="M218 828l-8 61q41 16 112 17q131 -2 137 -66q3 -43 -42 -65q-44 -21 -44 -39h-111q0 32 29 52q30 21 30 35q1 12 -8 16.5t-28 4.5q-28 0 -67 -16zM39 0v705h534v-192h-256v-67h215v-177h-215v-77h265v-192h-543z" />
    <glyph glyph-name="uni1EBB" unicode="&#x1ebb;" horiz-adv-x="597" 
d="M236 690l-8 61q41 16 112 17q131 -2 137 -66q3 -43 -42 -65q-44 -21 -44 -39h-111q0 32 29 52q30 21 30 35q1 12 -8 16.5t-28 4.5q-28 0 -67 -16zM313 412q-27 0 -42 -16.5t-21 -55.5h115q-2 38 -13.5 55t-38.5 17zM574 178v-155q-81 -36 -217 -36q-346 0 -346 296
q0 120 81 200t216 80q150 0 221 -82.5t54 -262.5h-328q11 -36 40.5 -51t89.5 -15q96 0 180 30z" />
    <glyph glyph-name="uni1EBC" unicode="&#x1ebc;" horiz-adv-x="610" 
d="M378 851q27 0 51 26l8 -3l27 -83q-39 -45 -96 -45q-34 0 -68 11t-48 11q-29 0 -56 -25l-9 3l-26 83q37 44 97 44q34 0 69 -11t51 -11zM39 0v705h534v-192h-256v-67h215v-177h-215v-77h265v-192h-543z" />
    <glyph glyph-name="uni1EBD" unicode="&#x1ebd;" horiz-adv-x="597" 
d="M393 703q27 0 51 26l8 -3l27 -83q-39 -45 -96 -45q-34 0 -68 11t-48 11q-29 0 -56 -25l-9 3l-26 83q37 44 97 44q33 0 69 -11t51 -11zM313 412q-27 0 -42 -16.5t-21 -55.5h115q-2 38 -13.5 55t-38.5 17zM574 178v-155q-81 -36 -217 -36q-346 0 -346 296q0 120 81 200
t216 80q150 0 221 -82.5t54 -262.5h-328q11 -36 40.5 -51t89.5 -15q96 0 180 30z" />
    <glyph glyph-name="uni1EBE" unicode="&#x1ebe;" horiz-adv-x="610" 
d="M621 955l-73 -110h-131l47 110h157zM271 736l36 42l38 -42h135l-101 130h-142l-101 -130h135zM39 705v-705h543v192h-265v77h215v177h-215v67h256v192h-534z" />
    <glyph glyph-name="uni1EBF" unicode="&#x1ebf;" horiz-adv-x="597" 
d="M641 807l-73 -110h-131l47 110h157zM291 588l36 42l38 -42h135l-101 130h-142l-101 -130h135zM313 412q27 0 38.5 -17t13.5 -55h-115q6 39 21 55.5t42 16.5zM574 23v155l-9 4q-84 -30 -180 -30q-60 0 -89.5 15t-40.5 51h328q17 180 -54 262.5t-221 82.5q-135 0 -216 -80
t-81 -200q0 -296 346 -296q136 0 217 36z" />
    <glyph glyph-name="uni1EC0" unicode="&#x1ec0;" horiz-adv-x="610" 
d="M426 845l-73 110h157l47 -110h-131zM307 778l-36 -42h-135l101 130h142l101 -130h-135zM39 0v705h534v-192h-256v-67h215v-177h-215v-77h265v-192h-543z" />
    <glyph glyph-name="uni1EC1" unicode="&#x1ec1;" horiz-adv-x="597" 
d="M446 697l-73 110h157l47 -110h-131zM327 630l-36 -42h-135l101 130h142l101 -130h-135zM313 412q-27 0 -42 -16.5t-21 -55.5h115q-2 38 -13.5 55t-38.5 17zM574 178v-155q-81 -36 -217 -36q-346 0 -346 296q0 120 81 200t216 80q150 0 221 -82.5t54 -262.5h-328
q11 -36 40.5 -51t89.5 -15q96 0 180 30z" />
    <glyph glyph-name="uni1EC2" unicode="&#x1ec2;" horiz-adv-x="610" 
d="M378 925l-8 52q34 14 98 15q53 -1 85.5 -15.5t34.5 -41.5q3 -37 -36 -56q-39 -18 -39 -34h-97q0 29 22 45q23 18 23 30q1 10 -6.5 14t-18.5 4q-25 0 -58 -13zM307 778l-36 -42h-135l101 130h142l101 -130h-135zM39 0v705h534v-192h-256v-67h215v-177h-215v-77h265v-192
h-543z" />
    <glyph glyph-name="uni1EC3" unicode="&#x1ec3;" horiz-adv-x="597" 
d="M398 777l-8 52q34 14 98 15q53 -1 85.5 -15.5t34.5 -41.5q3 -37 -36 -56q-39 -18 -39 -34h-97q0 29 22 45q23 18 23 30q1 10 -6.5 14t-18.5 4q-25 0 -58 -13zM327 630l-36 -42h-135l101 130h142l101 -130h-135zM313 412q-27 0 -42 -16.5t-21 -55.5h115q-2 38 -13.5 55
t-38.5 17zM574 178v-155q-81 -36 -217 -36q-346 0 -346 296q0 120 81 200t216 80q150 0 221 -82.5t54 -262.5h-328q11 -36 40.5 -51t89.5 -15q96 0 180 30z" />
    <glyph glyph-name="uni1EC4" unicode="&#x1ec4;" horiz-adv-x="610" 
d="M371 989q27 0 51 26l8 -3l27 -83q-39 -45 -96 -45q-34 0 -68 11t-48 11q-29 0 -56 -25l-9 3l-26 83q37 44 97 44q33 0 69 -11t51 -11zM307 778l-36 -42h-135l101 130h142l101 -130h-135zM39 0v705h534v-192h-256v-67h215v-177h-215v-77h265v-192h-543z" />
    <glyph glyph-name="uni1EC5" unicode="&#x1ec5;" horiz-adv-x="597" 
d="M391 841q27 0 51 26l8 -3l27 -83q-39 -45 -96 -45q-34 0 -68 11t-48 11q-29 0 -56 -25l-9 3l-26 83q37 44 97 44q33 0 69 -11t51 -11zM327 630l-36 -42h-135l101 130h142l101 -130h-135zM313 412q-27 0 -42 -16.5t-21 -55.5h115q-2 38 -13.5 55t-38.5 17zM574 178v-155
q-81 -36 -217 -36q-346 0 -346 296q0 120 81 200t216 80q150 0 221 -82.5t54 -262.5h-328q11 -36 40.5 -51t89.5 -15q96 0 180 30z" />
    <glyph glyph-name="uni1EC6" unicode="&#x1ec6;" horiz-adv-x="610" 
d="M211 -178v130h194v-130h-194zM307 778l-36 -42h-135l101 130h142l101 -130h-135zM39 0v705h534v-192h-256v-67h215v-177h-215v-77h265v-192h-543z" />
    <glyph glyph-name="uni1EC7" unicode="&#x1ec7;" horiz-adv-x="597" 
d="M228 -178v130h194v-130h-194zM327 630l-36 -42h-135l101 130h142l101 -130h-135zM313 412q-27 0 -42 -16.5t-21 -55.5h115q-2 38 -13.5 55t-38.5 17zM574 178v-155q-81 -36 -217 -36q-346 0 -346 296q0 120 81 200t216 80q150 0 221 -82.5t54 -262.5h-328
q11 -36 40.5 -51t89.5 -15q96 0 180 30z" />
    <glyph glyph-name="uni1EC8" unicode="&#x1ec8;" horiz-adv-x="366" 
d="M83 828l-8 61q41 16 112 17q131 -2 137 -66q3 -43 -42 -65q-44 -21 -44 -39h-111q0 32 29 52q30 21 30 35q1 12 -8 16.5t-28 4.5q-28 0 -67 -16zM41 0v705h284v-705h-284z" />
    <glyph glyph-name="uni1EC9" unicode="&#x1ec9;" horiz-adv-x="311" 
d="M56 690l-8 61q41 16 112 17q131 -2 137 -66q3 -43 -42 -65q-44 -21 -44 -39h-111q0 32 29 52q30 21 30 35q1 12 -8 16.5t-28 4.5q-28 0 -67 -16zM32 0v550h247v-550h-247z" />
    <glyph glyph-name="uni1ECA" unicode="&#x1eca;" horiz-adv-x="366" 
d="M41 -178v130h284v-130h-284zM41 0v705h284v-705h-284z" />
    <glyph glyph-name="uni1ECB" unicode="&#x1ecb;" horiz-adv-x="311" 
d="M32 -178v130h247v-130h-247zM32 598v130h247v-130h-247zM32 0v550h247v-550h-247z" />
    <glyph glyph-name="uni1ECC" unicode="&#x1ecc;" horiz-adv-x="818" 
d="M312 -178v130h194v-130h-194zM409 -15q-182 0 -288 103.5t-106 266.5q0 162 106 263.5t288 101.5t288 -101.5t106 -263.5q0 -163 -106 -266.5t-288 -103.5zM409 185q55 0 81.5 45.5t26.5 124.5q0 78 -27.5 122t-80.5 44t-80.5 -44t-27.5 -122q0 -79 26.5 -124.5
t81.5 -45.5z" />
    <glyph glyph-name="uni1ECD" unicode="&#x1ecd;" horiz-adv-x="660" 
d="M234 -178v130h194v-130h-194zM330 -13q-139 0 -229 79.5t-90 209.5q0 131 89.5 209t229.5 78t229.5 -78t89.5 -209q0 -130 -90 -209.5t-229 -79.5zM330 156q67 0 67 119q0 120 -67 120t-67 -120q0 -119 67 -119z" />
    <glyph glyph-name="uni1ECE" unicode="&#x1ece;" horiz-adv-x="818" 
d="M331 833l-8 61q41 16 112 17q131 -2 137 -66q3 -43 -42 -65q-44 -21 -44 -39h-111q0 32 29 52q30 21 30 35q1 12 -8 16.5t-28 4.5q-28 0 -67 -16zM409 -15q-182 0 -288 103.5t-106 266.5q0 162 106 263.5t288 101.5t288 -101.5t106 -263.5q0 -163 -106 -266.5
t-288 -103.5zM409 185q55 0 81.5 45.5t26.5 124.5q0 78 -27.5 122t-80.5 44t-80.5 -44t-27.5 -122q0 -79 26.5 -124.5t81.5 -45.5z" />
    <glyph glyph-name="uni1ECF" unicode="&#x1ecf;" horiz-adv-x="660" 
d="M244 690l-8 61q41 16 112 17q131 -2 137 -66q3 -43 -42 -65q-44 -21 -44 -39h-111q0 32 29 52q30 21 30 35q1 12 -8 16.5t-28 4.5q-28 0 -67 -16zM330 -13q-139 0 -229 79.5t-90 209.5q0 131 89.5 209t229.5 78t229.5 -78t89.5 -209q0 -130 -90 -209.5t-229 -79.5z
M330 156q67 0 67 119q0 120 -67 120t-67 -120q0 -119 67 -119z" />
    <glyph glyph-name="uni1ED0" unicode="&#x1ed0;" horiz-adv-x="818" 
d="M723 960l-73 -110h-131l47 110h157zM373 741l36 42l38 -42h135l-101 130h-142l-101 -130h135zM409 -15q182 0 288 103.5t106 266.5q0 162 -106 263.5t-288 101.5t-288 -101.5t-106 -263.5q0 -163 106 -266.5t288 -103.5zM409 185q-55 0 -81.5 45.5t-26.5 124.5
q0 78 27.5 122t80.5 44t80.5 -44t27.5 -122q0 -79 -26.5 -124.5t-81.5 -45.5z" />
    <glyph glyph-name="uni1ED1" unicode="&#x1ed1;" horiz-adv-x="660" 
d="M644 807l-73 -110h-131l47 110h157zM294 588l36 42l38 -42h135l-101 130h-142l-101 -130h135zM330 -13q139 0 229 79.5t90 209.5q0 131 -89.5 209t-229.5 78t-229.5 -78t-89.5 -209q0 -130 90 -209.5t229 -79.5zM330 156q-67 0 -67 119q0 120 67 120t67 -120
q0 -119 -67 -119z" />
    <glyph glyph-name="uni1ED2" unicode="&#x1ed2;" horiz-adv-x="818" 
d="M528 850l-73 110h157l47 -110h-131zM409 783l-36 -42h-135l101 130h142l101 -130h-135zM409 -15q-182 0 -288 103.5t-106 266.5q0 162 106 263.5t288 101.5t288 -101.5t106 -263.5q0 -163 -106 -266.5t-288 -103.5zM409 185q55 0 81.5 45.5t26.5 124.5q0 78 -27.5 122
t-80.5 44t-80.5 -44t-27.5 -122q0 -79 26.5 -124.5t81.5 -45.5z" />
    <glyph glyph-name="uni1ED3" unicode="&#x1ed3;" horiz-adv-x="660" 
d="M449 697l-73 110h157l47 -110h-131zM330 630l-36 -42h-135l101 130h142l101 -130h-135zM330 -13q-139 0 -229 79.5t-90 209.5q0 131 89.5 209t229.5 78t229.5 -78t89.5 -209q0 -130 -90 -209.5t-229 -79.5zM330 156q67 0 67 119q0 120 -67 120t-67 -120q0 -119 67 -119z
" />
    <glyph glyph-name="uni1ED4" unicode="&#x1ed4;" horiz-adv-x="818" 
d="M480 930l-8 52q34 14 98 15q53 -1 85.5 -15.5t34.5 -41.5q3 -37 -36 -56q-39 -18 -39 -34h-97q0 29 22 45q23 18 23 30q1 10 -6.5 14t-18.5 4q-25 0 -58 -13zM409 783l-36 -42h-135l101 130h142l101 -130h-135zM409 -15q-182 0 -288 103.5t-106 266.5q0 162 106 263.5
t288 101.5t288 -101.5t106 -263.5q0 -163 -106 -266.5t-288 -103.5zM409 185q55 0 81.5 45.5t26.5 124.5q0 78 -27.5 122t-80.5 44t-80.5 -44t-27.5 -122q0 -79 26.5 -124.5t81.5 -45.5z" />
    <glyph glyph-name="uni1ED5" unicode="&#x1ed5;" horiz-adv-x="660" 
d="M401 777l-8 52q34 14 98 15q53 -1 85.5 -15.5t34.5 -41.5q3 -37 -36 -56q-39 -18 -39 -34h-97q0 29 22 45q23 18 23 30q1 10 -6.5 14t-18.5 4q-25 0 -58 -13zM330 630l-36 -42h-135l101 130h142l101 -130h-135zM330 -13q-139 0 -229 79.5t-90 209.5q0 131 89.5 209
t229.5 78t229.5 -78t89.5 -209q0 -130 -90 -209.5t-229 -79.5zM330 156q67 0 67 119q0 120 -67 120t-67 -120q0 -119 67 -119z" />
    <glyph glyph-name="uni1ED6" unicode="&#x1ed6;" horiz-adv-x="818" 
d="M473 994q27 0 51 26l8 -3l27 -83q-39 -45 -96 -45q-34 0 -68 11t-48 11q-29 0 -56 -25l-9 3l-26 83q37 44 97 44q33 0 68.5 -11t51.5 -11zM409 783l-36 -42h-135l101 130h142l101 -130h-135zM409 -15q-182 0 -288 103.5t-106 266.5q0 162 106 263.5t288 101.5t288 -101.5
t106 -263.5q0 -163 -106 -266.5t-288 -103.5zM409 185q55 0 81.5 45.5t26.5 124.5q0 78 -27.5 122t-80.5 44t-80.5 -44t-27.5 -122q0 -79 26.5 -124.5t81.5 -45.5z" />
    <glyph glyph-name="uni1ED7" unicode="&#x1ed7;" horiz-adv-x="660" 
d="M394 841q27 0 51 26l8 -3l27 -83q-39 -45 -96 -45q-34 0 -68 11t-48 11q-29 0 -56 -25l-9 3l-26 83q37 44 97 44q34 0 69 -11t51 -11zM330 630l-36 -42h-135l101 130h142l101 -130h-135zM330 -13q-139 0 -229 79.5t-90 209.5q0 131 89.5 209t229.5 78t229.5 -78
t89.5 -209q0 -130 -90 -209.5t-229 -79.5zM330 156q67 0 67 119q0 120 -67 120t-67 -120q0 -119 67 -119z" />
    <glyph glyph-name="uni1ED8" unicode="&#x1ed8;" horiz-adv-x="818" 
d="M312 -178v130h194v-130h-194zM409 783l-36 -42h-135l101 130h142l101 -130h-135zM409 -15q-182 0 -288 103.5t-106 266.5q0 162 106 263.5t288 101.5t288 -101.5t106 -263.5q0 -163 -106 -266.5t-288 -103.5zM409 185q55 0 81.5 45.5t26.5 124.5q0 78 -27.5 122t-80.5 44
t-80.5 -44t-27.5 -122q0 -79 26.5 -124.5t81.5 -45.5z" />
    <glyph glyph-name="uni1ED9" unicode="&#x1ed9;" horiz-adv-x="660" 
d="M234 -178v130h194v-130h-194zM330 630l-36 -42h-135l101 130h142l101 -130h-135zM330 -13q-139 0 -229 79.5t-90 209.5q0 131 89.5 209t229.5 78t229.5 -78t89.5 -209q0 -130 -90 -209.5t-229 -79.5zM330 156q67 0 67 119q0 120 -67 120t-67 -120q0 -119 67 -119z" />
    <glyph glyph-name="uni1EDA" unicode="&#x1eda;" horiz-adv-x="818" 
d="M586 871l-93 -130h-131l67 130h157zM409 -15q182 0 288 103.5t106 266.5t-104 261l-18 15q53 18 77 56t24 102h-160q0 -39 -9 -60t-38 -25h-36q-57 16 -130 16q-182 0 -288 -101.5t-106 -263.5q0 -163 106 -266.5t288 -103.5zM409 185q-55 0 -81.5 45.5t-26.5 124.5
q0 78 27.5 122t80.5 44t80.5 -44t27.5 -122q0 -79 -26.5 -124.5t-81.5 -45.5z" />
    <glyph glyph-name="uni1EDB" unicode="&#x1edb;" horiz-adv-x="660" 
d="M492 728l-93 -130h-131l67 130h157zM330 -13q139 0 229 79.5t90 209.5q0 66 -24 119q-22 48 -58 82q51 18 74.5 56t23.5 101h-160q0 -39 -9.5 -60.5t-39.5 -24.5h-20q-51 14 -106 14q-140 0 -229.5 -78t-89.5 -209q0 -130 90 -209.5t229 -79.5zM330 156q-67 0 -67 119
q0 120 67 120t67 -120q0 -119 -67 -119z" />
    <glyph glyph-name="uni1EDC" unicode="&#x1edc;" horiz-adv-x="818" 
d="M384 741l-93 130h157l67 -130h-131zM409 -15q-182 0 -288 103.5t-106 266.5q0 162 106 263.5t288 101.5q73 0 130 -16h36q29 4 38 25t9 60h160q0 -64 -24 -102t-77 -56l18 -15q104 -98 104 -261t-106 -266.5t-288 -103.5zM409 185q55 0 81.5 45.5t26.5 124.5
q0 78 -27.5 122t-80.5 44t-80.5 -44t-27.5 -122q0 -79 26.5 -124.5t81.5 -45.5z" />
    <glyph glyph-name="uni1EDD" unicode="&#x1edd;" horiz-adv-x="660" 
d="M288 598l-93 130h157l67 -130h-131zM330 -13q-139 0 -229 79.5t-90 209.5q0 131 89.5 209t229.5 78q55 0 106 -14h20q30 3 39.5 24.5t9.5 60.5h160q0 -63 -23.5 -101t-74.5 -56q36 -34 58 -82q24 -53 24 -119q0 -130 -90 -209.5t-229 -79.5zM330 156q67 0 67 119
q0 120 -67 120t-67 -120q0 -119 67 -119z" />
    <glyph glyph-name="uni1EDE" unicode="&#x1ede;" horiz-adv-x="818" 
d="M331 833l-8 61q41 16 112 17q131 -2 137 -66q3 -43 -42 -65q-44 -21 -44 -39h-111q0 32 29 52q30 21 30 35q1 12 -8 16.5t-28 4.5q-28 0 -67 -16zM409 -15q-182 0 -288 103.5t-106 266.5q0 162 106 263.5t288 101.5q73 0 130 -16h36q29 4 38 25t9 60h160q0 -64 -24 -102
t-77 -56l18 -15q104 -98 104 -261t-106 -266.5t-288 -103.5zM409 185q55 0 81.5 45.5t26.5 124.5q0 78 -27.5 122t-80.5 44t-80.5 -44t-27.5 -122q0 -79 26.5 -124.5t81.5 -45.5z" />
    <glyph glyph-name="uni1EDF" unicode="&#x1edf;" horiz-adv-x="660" 
d="M244 690l-8 61q41 16 112 17q131 -2 137 -66q3 -43 -42 -65q-44 -21 -44 -39h-111q0 32 29 52q30 21 30 35q1 12 -8 16.5t-28 4.5q-28 0 -67 -16zM330 -13q-139 0 -229 79.5t-90 209.5q0 131 89.5 209t229.5 78q55 0 106 -14h20q30 3 39.5 24.5t9.5 60.5h160
q0 -63 -23.5 -101t-74.5 -56q36 -34 58 -82q24 -53 24 -119q0 -130 -90 -209.5t-229 -79.5zM330 156q67 0 67 119q0 120 -67 120t-67 -120q0 -119 67 -119z" />
    <glyph glyph-name="uni1EE0" unicode="&#x1ee0;" horiz-adv-x="818" 
d="M485 851q27 0 51 26l8 -3l27 -83q-39 -45 -96 -45q-34 0 -68 11t-48 11q-29 0 -56 -25l-9 3l-26 83q37 44 97 44q33 0 69 -11t51 -11zM409 -15q-182 0 -288 103.5t-106 266.5q0 162 106 263.5t288 101.5q73 0 130 -16h36q29 4 38 25t9 60h160q0 -64 -24 -102t-77 -56
l18 -15q104 -98 104 -261t-106 -266.5t-288 -103.5zM409 185q55 0 81.5 45.5t26.5 124.5q0 78 -27.5 122t-80.5 44t-80.5 -44t-27.5 -122q0 -79 26.5 -124.5t81.5 -45.5z" />
    <glyph glyph-name="uni1EE1" unicode="&#x1ee1;" horiz-adv-x="660" 
d="M405 703q27 0 51 26l8 -3l27 -83q-39 -45 -96 -45q-34 0 -68 11t-48 11q-29 0 -56 -25l-9 3l-26 83q37 44 97 44q33 0 69 -11t51 -11zM330 -13q-139 0 -229 79.5t-90 209.5q0 131 89.5 209t229.5 78q55 0 106 -14h20q30 3 39.5 24.5t9.5 60.5h160q0 -63 -23.5 -101
t-74.5 -56q36 -34 58 -82q24 -53 24 -119q0 -130 -90 -209.5t-229 -79.5zM330 156q67 0 67 119q0 120 -67 120t-67 -120q0 -119 67 -119z" />
    <glyph glyph-name="uni1EE2" unicode="&#x1ee2;" horiz-adv-x="818" 
d="M312 -178v130h194v-130h-194zM409 -15q-182 0 -288 103.5t-106 266.5q0 162 106 263.5t288 101.5q73 0 130 -16h36q29 4 38 25t9 60h160q0 -64 -24 -102t-77 -56l18 -15q104 -98 104 -261t-106 -266.5t-288 -103.5zM409 185q55 0 81.5 45.5t26.5 124.5q0 78 -27.5 122
t-80.5 44t-80.5 -44t-27.5 -122q0 -79 26.5 -124.5t81.5 -45.5z" />
    <glyph glyph-name="uni1EE3" unicode="&#x1ee3;" horiz-adv-x="660" 
d="M234 -178v130h194v-130h-194zM330 -13q-139 0 -229 79.5t-90 209.5q0 131 89.5 209t229.5 78q55 0 106 -14h20q30 3 39.5 24.5t9.5 60.5h160q0 -63 -23.5 -101t-74.5 -56q36 -34 58 -82q24 -53 24 -119q0 -130 -90 -209.5t-229 -79.5zM330 156q67 0 67 119q0 120 -67 120
t-67 -120q0 -119 67 -119z" />
    <glyph glyph-name="uni1EE4" unicode="&#x1ee4;" horiz-adv-x="750" 
d="M382 -12q-178 0 -263 77.5t-85 232.5v407h284v-406q0 -47 18.5 -69t60.5 -22t60 22t18 69v406h241v-407q0 -147 -80.5 -228.5t-253.5 -81.5zM278 -178v130h194v-130h-194z" />
    <glyph glyph-name="uni1EE5" unicode="&#x1ee5;" 
d="M211 -178v130h194v-130h-194zM404 0l-13 78q-65 -91 -171 -91q-87 0 -140.5 53.5t-53.5 161.5v348h247v-311q0 -31 12 -46t43 -15q28 0 46 13v359h247v-550h-217z" />
    <glyph glyph-name="uni1EE6" unicode="&#x1ee6;" horiz-adv-x="750" 
d="M299 833l-8 61q41 16 112 17q131 -2 137 -66q3 -43 -42 -65q-44 -21 -44 -39h-111q0 32 29 52q30 21 30 35q1 12 -8 16.5t-28 4.5q-28 0 -67 -16zM382 -12q-178 0 -263 77.5t-85 232.5v407h284v-406q0 -47 18.5 -69t60.5 -22t60 22t18 69v406h241v-407
q0 -147 -80.5 -228.5t-253.5 -81.5z" />
    <glyph glyph-name="uni1EE7" unicode="&#x1ee7;" 
d="M225 690l-8 61q41 16 112 17q131 -2 137 -66q3 -43 -42 -65q-44 -21 -44 -39h-111q0 32 29 52q30 21 30 35q1 12 -8 16.5t-28 4.5q-28 0 -67 -16zM404 0l-13 78q-65 -91 -171 -91q-87 0 -140.5 53.5t-53.5 161.5v348h247v-311q0 -31 12 -46t43 -15q28 0 46 13v359h247
v-550h-217z" />
    <glyph glyph-name="uni1EE8" unicode="&#x1ee8;" horiz-adv-x="750" 
d="M542 866l-93 -130h-131l67 130h157zM382 -12q173 0 253.5 81.5t80.5 228.5v331q57 16 83 55t26 105h-160q0 -37 -8 -58t-33 -26h-149v-406q0 -47 -18 -69t-60 -22t-60.5 22t-18.5 69v406h-284v-407q0 -155 85 -232.5t263 -77.5z" />
    <glyph glyph-name="uni1EE9" unicode="&#x1ee9;" 
d="M476 728l-93 -130h-131l67 130h157zM391 78l13 -78h217v474q57 16 83 55t26 105h-160q0 -37 -8 -58t-33 -26h-155v-359q-18 -13 -46 -13q-31 0 -43 15t-12 46v311h-247v-348q0 -108 53.5 -161.5t140.5 -53.5q106 0 171 91z" />
    <glyph glyph-name="uni1EEA" unicode="&#x1eea;" horiz-adv-x="750" 
d="M342 736l-93 130h157l67 -130h-131zM382 -12q-178 0 -263 77.5t-85 232.5v407h284v-406q0 -47 18.5 -69t60.5 -22t60 22t18 69v406h149q25 5 33 26t8 58h160q0 -66 -26 -105t-83 -55v-331q0 -147 -80.5 -228.5t-253.5 -81.5z" />
    <glyph glyph-name="uni1EEB" unicode="&#x1eeb;" 
d="M271 598l-93 130h157l67 -130h-131zM404 0l-13 78q-65 -91 -171 -91q-87 0 -140.5 53.5t-53.5 161.5v348h247v-311q0 -31 12 -46t43 -15q28 0 46 13v359h155q25 5 33 26t8 58h160q0 -66 -26 -105t-83 -55v-474h-217z" />
    <glyph glyph-name="uni1EEC" unicode="&#x1eec;" horiz-adv-x="750" 
d="M299 833l-8 61q41 16 112 17q131 -2 137 -66q3 -43 -42 -65q-44 -21 -44 -39h-111q0 32 29 52q30 21 30 35q1 12 -8 16.5t-28 4.5q-28 0 -67 -16zM382 -12q-178 0 -263 77.5t-85 232.5v407h284v-406q0 -47 18.5 -69t60.5 -22t60 22t18 69v406h149q25 5 33 26t8 58h160
q0 -66 -26 -105t-83 -55v-331q0 -147 -80.5 -228.5t-253.5 -81.5z" />
    <glyph glyph-name="uni1EED" unicode="&#x1eed;" 
d="M225 690l-8 61q41 16 112 17q131 -2 137 -66q3 -43 -42 -65q-44 -21 -44 -39h-111q0 32 29 52q30 21 30 35q1 12 -8 16.5t-28 4.5q-28 0 -67 -16zM404 0l-13 78q-65 -91 -171 -91q-87 0 -140.5 53.5t-53.5 161.5v348h247v-311q0 -31 12 -46t43 -15q28 0 46 13v359h155
q25 5 33 26t8 58h160q0 -66 -26 -105t-83 -55v-474h-217z" />
    <glyph glyph-name="uni1EEE" unicode="&#x1eee;" horiz-adv-x="750" 
d="M451 851q27 0 51 26l8 -3l27 -83q-39 -45 -96 -45q-34 0 -68 11t-48 11q-29 0 -56 -25l-9 3l-26 83q37 44 97 44q33 0 69 -11t51 -11zM382 -12q-178 0 -263 77.5t-85 232.5v407h284v-406q0 -47 18.5 -69t60.5 -22t60 22t18 69v406h149q25 5 33 26t8 58h160
q0 -66 -26 -105t-83 -55v-331q0 -147 -80.5 -228.5t-253.5 -81.5z" />
    <glyph glyph-name="uni1EEF" unicode="&#x1eef;" 
d="M391 703q27 0 51 26l8 -3l27 -83q-39 -45 -96 -45q-34 0 -68 11t-48 11q-29 0 -56 -25l-9 3l-26 83q37 44 97 44q33 0 69 -11t51 -11zM404 0l-13 78q-65 -91 -171 -91q-87 0 -140.5 53.5t-53.5 161.5v348h247v-311q0 -31 12 -46t43 -15q28 0 46 13v359h155q25 5 33 26
t8 58h160q0 -66 -26 -105t-83 -55v-474h-217z" />
    <glyph glyph-name="uni1EF0" unicode="&#x1ef0;" horiz-adv-x="750" 
d="M278 -178v130h194v-130h-194zM382 -12q-178 0 -263 77.5t-85 232.5v407h284v-406q0 -47 18.5 -69t60.5 -22t60 22t18 69v406h149q25 5 33 26t8 58h160q0 -66 -26 -105t-83 -55v-331q0 -147 -80.5 -228.5t-253.5 -81.5z" />
    <glyph glyph-name="uni1EF1" unicode="&#x1ef1;" 
d="M211 -178v130h194v-130h-194zM404 0l-13 78q-65 -91 -171 -91q-87 0 -140.5 53.5t-53.5 161.5v348h247v-311q0 -31 12 -46t43 -15q28 0 46 13v359h155q25 5 33 26t8 58h160q0 -66 -26 -105t-83 -55v-474h-217z" />
    <glyph glyph-name="Ygrave" unicode="&#x1ef2;" horiz-adv-x="700" 
d="M311 736l-93 130h157l67 -130h-131zM493 0h-284v267l-209 428v10h287l85 -196l81 196h247v-10l-207 -421v-274z" />
    <glyph glyph-name="ygrave" unicode="&#x1ef3;" horiz-adv-x="649" 
d="M272 598l-93 130h157l67 -130h-131zM94 -194v175q53 3 74.5 10.5t29.5 28.5l2 5l-194 515v10h261l75 -251l79 251h222v-10l-184 -503q-47 -132 -121.5 -177.5t-243.5 -53.5z" />
    <glyph glyph-name="uni1EF4" unicode="&#x1ef4;" horiz-adv-x="700" 
d="M209 -178v130h284v-130h-284zM493 0h-284v267l-209 428v10h287l85 -196l81 196h247v-10l-207 -421v-274z" />
    <glyph glyph-name="uni1EF5" unicode="&#x1ef5;" horiz-adv-x="649" 
d="M460 -178v130h194v-130h-194zM94 -194v175q53 3 74.5 10.5t29.5 28.5l2 5l-194 515v10h261l75 -251l79 251h222v-10l-184 -503q-47 -132 -121.5 -177.5t-243.5 -53.5z" />
    <glyph glyph-name="uni1EF6" unicode="&#x1ef6;" horiz-adv-x="700" 
d="M272 833l-8 61q41 16 112 17q131 -2 137 -66q3 -43 -42 -65q-44 -21 -44 -39h-111q0 32 29 52q30 21 30 35q1 12 -8 16.5t-28 4.5q-28 0 -67 -16zM493 0h-284v267l-209 428v10h287l85 -196l81 196h247v-10l-207 -421v-274z" />
    <glyph glyph-name="uni1EF7" unicode="&#x1ef7;" horiz-adv-x="649" 
d="M236 690l-8 61q41 16 112 17q131 -2 137 -66q3 -43 -42 -65q-44 -21 -44 -39h-111q0 32 29 52q30 21 30 35q1 12 -8 16.5t-28 4.5q-28 0 -67 -16zM94 -194v175q53 3 74.5 10.5t29.5 28.5l2 5l-194 515v10h261l75 -251l79 251h222v-10l-184 -503q-47 -132 -121.5 -177.5
t-243.5 -53.5z" />
    <glyph glyph-name="uni1EF8" unicode="&#x1ef8;" horiz-adv-x="700" 
d="M426 851q27 0 51 26l8 -3l27 -83q-39 -45 -96 -45q-34 0 -68 11t-48 11q-29 0 -56 -25l-9 3l-26 83q37 44 97 44q34 0 69 -11t51 -11zM493 0h-284v267l-209 428v10h287l85 -196l81 196h247v-10l-207 -421v-274z" />
    <glyph glyph-name="uni1EF9" unicode="&#x1ef9;" horiz-adv-x="649" 
d="M395 703q27 0 51 26l8 -3l27 -83q-39 -45 -96 -45q-34 0 -68 11t-48 11q-29 0 -56 -25l-9 3l-26 83q37 44 97 44q33 0 69 -11t51 -11zM94 -194v175q53 3 74.5 10.5t29.5 28.5l2 5l-194 515v10h261l75 -251l79 251h222v-10l-184 -503q-47 -132 -121.5 -177.5t-243.5 -53.5
z" />
    <glyph glyph-name="uni1EFA" unicode="&#x1efa;" horiz-adv-x="0" 
d="M513 459v89q35 1 46 22.5t11 63.5h160q0 -91 -50.5 -131t-166.5 -44z" />
    <glyph glyph-name="endash" unicode="&#x2013;" horiz-adv-x="556" 
d="M26 248v149h504v-149h-504z" />
    <glyph glyph-name="emdash" unicode="&#x2014;" horiz-adv-x="1017" 
d="M26 248v149h965v-149h-965z" />
    <glyph glyph-name="quoteleft" unicode="&#x2018;" horiz-adv-x="273" 
d="M19 436l-6 11l78 258h164l-19 -269h-217z" />
    <glyph glyph-name="quoteright" unicode="&#x2019;" horiz-adv-x="273" 
d="M254 705l6 -11l-78 -258h-164l19 269h217z" />
    <glyph glyph-name="quotesinglbase" unicode="&#x201a;" horiz-adv-x="273" 
d="M254 212l6 -11l-78 -258h-164l19 269h217z" />
    <glyph glyph-name="quotedblleft" unicode="&#x201c;" horiz-adv-x="523" 
d="M19 436l-6 11l78 258h164l-19 -269h-217zM268 436l-6 11l79 258h164l-19 -269h-218z" />
    <glyph glyph-name="quotedblright" unicode="&#x201d;" horiz-adv-x="523" 
d="M504 705l6 -11l-78 -258h-164l19 269h217zM255 705l6 -11l-79 -258h-164l19 269h218z" />
    <glyph glyph-name="quotedblbase" unicode="&#x201e;" horiz-adv-x="523" 
d="M255 212l6 -11l-79 -258h-164l19 269h218zM504 212l6 -11l-78 -258h-164l19 269h217z" />
    <glyph glyph-name="dagger" unicode="&#x2020;" horiz-adv-x="435" 
d="M415 435h-106v-276h-183v276h-106v164h106v107l183 23v-130h106v-164z" />
    <glyph glyph-name="daggerdbl" unicode="&#x2021;" horiz-adv-x="435" 
d="M309 159l-183 -23v117h-106v147h106v65h-106v147h106v94l183 23v-117h106v-147h-106v-65h106v-147h-106v-94z" />
    <glyph glyph-name="bullet" unicode="&#x2022;" horiz-adv-x="378" 
d="M189 472q71 0 118.5 -48.5t47.5 -120.5t-47.5 -120.5t-118.5 -48.5t-118.5 48.5t-47.5 120.5t47.5 120.5t118.5 48.5z" />
    <glyph glyph-name="ellipsis" unicode="&#x2026;" horiz-adv-x="947" 
d="M662 0v212h257v-212h-257zM345 0v212h257v-212h-257zM28 0v212h257v-212h-257z" />
    <glyph glyph-name="perthousand" unicode="&#x2030;" horiz-adv-x="1244" 
d="M208 346q-91 0 -144.5 50t-53.5 128q0 75 54 125.5t144 50.5q91 0 144.5 -50.5t53.5 -125.5q0 -78 -53 -128t-145 -50zM119 0l486 690h107l-486 -690h-107zM208 457q37 0 37 67q0 65 -37 65q-38 0 -38 -65q0 -67 38 -67zM1036 -15q-91 0 -144.5 50t-53.5 127q0 75 54 126
t144 51q91 0 144.5 -51t53.5 -126q0 -77 -53 -127t-145 -50zM620 -15q-91 0 -144.5 50t-53.5 127q0 75 54 126t144 51q91 0 144.5 -51t53.5 -126q0 -77 -53 -127t-145 -50zM1036 96q38 0 38 66t-38 66q-37 0 -37 -66t37 -66zM620 96q38 0 38 66t-38 66q-37 0 -37 -66t37 -66
z" />
    <glyph glyph-name="uni2032" unicode="&#x2032;" horiz-adv-x="284" 
d="M264 705l-72 -284h-164l19 284h217z" />
    <glyph glyph-name="uni2033" unicode="&#x2033;" horiz-adv-x="534" 
d="M264 705l-72 -284h-164l19 284h217zM514 705l-72 -284h-164l19 284h217z" />
    <glyph glyph-name="guilsinglleft" unicode="&#x2039;" horiz-adv-x="264" 
d="M111 66l-99 194l109 194h130l-106 -194l96 -194h-130z" />
    <glyph glyph-name="guilsinglright" unicode="&#x203a;" horiz-adv-x="264" 
d="M23 66l96 194l-106 194h130l109 -194l-99 -194h-130z" />
    <glyph glyph-name="fraction" unicode="&#x2044;" horiz-adv-x="200" 
d="M-234 0l554 690h114l-554 -690h-114z" />
    <glyph glyph-name="Euro" unicode="&#x20ac;" horiz-adv-x="603" 
d="M580 214v-177q-70 -49 -177 -49q-136 0 -220.5 64.5t-110.5 186.5h-57v94h45v31h-45v92h56q27 120 114.5 180.5t203.5 60.5q114 0 176 -40v-174l-12 -5q-38 20 -63 27.5t-66 7.5q-76 0 -104 -57h141v-92h-163v-31h163v-94h-143q33 -64 111 -64q10 0 18.5 0.5t15.5 1
t15.5 3t12.5 3t13 4.5t12 5t13 6.5t12.5 6.5t14 8t14.5 8z" />
    <glyph glyph-name="trademark" unicode="&#x2122;" horiz-adv-x="754" 
d="M303 569h-76v-226h-146v226h-76v119h298v-119zM490 343l-56 112l-15 -112h-118l46 345h99l71 -139l73 139h101l46 -345h-135l-15 112l-56 -112h-41z" />
    <glyph glyph-name="onethird" unicode="&#x2153;" horiz-adv-x="845" 
d="M70 0l554 690h114l-554 -690h-114zM260 298h-166v208l-77 -39l-4 2v136l160 85h87v-392zM643 -7q-90 0 -146 33v111l6 4q47 -29 112 -29q47 0 47 22q0 19 -41 19h-54v89h48q38 0 38 18q0 22 -47 22q-55 0 -96 -22l-7 3v109q45 27 140 27q71 0 117.5 -27.5t46.5 -79.5
q0 -36 -18 -55.5t-59 -29.5q48 -9 69 -30.5t21 -60.5q0 -123 -177 -123z" />
    <glyph glyph-name="twothirds" unicode="&#x2154;" horiz-adv-x="899" 
d="M21 298v78l111 110q27 27 35 37.5t8 22.5q0 15 -12.5 21t-41.5 6q-46 0 -89 -29l-7 4v116q47 33 141 33q168 0 168 -129q0 -43 -14.5 -69t-55.5 -64l-25 -24h104v-113h-322zM124 0l554 690h114l-554 -690h-114zM697 -7q-90 0 -146 33v111l6 4q47 -29 112 -29q47 0 47 22
q0 19 -41 19h-54v89h48q38 0 38 18q0 22 -47 22q-55 0 -96 -22l-7 3v109q45 27 140 27q71 0 117.5 -27.5t46.5 -79.5q0 -36 -18 -55.5t-59 -29.5q48 -9 69 -30.5t21 -60.5q0 -123 -177 -123z" />
    <glyph glyph-name="oneeighth" unicode="&#x215b;" horiz-adv-x="851" 
d="M80 0l554 690h114l-554 -690h-114zM260 298h-166v208l-77 -39l-4 2v136l160 85h87v-392zM656 -7q-89 0 -136 30.5t-47 82.5q0 68 69 86q-57 35 -57 93t46 86t121 28q73 0 122 -27.5t49 -80.5q0 -34 -15.5 -51.5t-48.5 -27.5q40 -22 58 -44.5t18 -59.5q0 -115 -179 -115z
M627 288q0 -10 10.5 -17t41.5 -20q9 11 9 28q0 29 -31 29q-30 0 -30 -20zM650 86q35 0 35 25q0 17 -49 37q-6 3 -9 4q-16 -16 -16 -36q0 -30 39 -30z" />
    <glyph glyph-name="threeeighths" unicode="&#x215c;" horiz-adv-x="867" 
d="M96 0l554 690h114l-554 -690h-114zM672 -7q-89 0 -136 30.5t-47 82.5q0 68 69 86q-57 35 -57 93t46 86t121 28q73 0 122 -27.5t49 -80.5q0 -34 -15.5 -51.5t-48.5 -27.5q40 -22 58 -44.5t18 -59.5q0 -115 -179 -115zM643 288q0 -10 10.5 -17t41.5 -20q9 11 9 28
q0 29 -31 29q-30 0 -30 -20zM666 86q35 0 35 25q0 17 -49 37q-6 3 -9 4q-16 -16 -16 -36q0 -30 39 -30zM167 291q-90 0 -146 33v111l6 4q47 -29 112 -29q47 0 47 22q0 19 -41 19h-54v89h48q38 0 38 18q0 22 -47 22q-55 0 -96 -22l-7 3v109q45 27 140 27q71 0 117.5 -27.5
t46.5 -79.5q0 -36 -18 -55.5t-59 -29.5q48 -9 69 -30.5t21 -60.5q0 -123 -177 -123z" />
    <glyph glyph-name="fiveeighths" unicode="&#x215d;" horiz-adv-x="863" 
d="M167 291q-98 0 -146 30v104l7 5q48 -25 97 -25q55 0 55 26q0 15 -14.5 21t-48.5 6q-35 0 -71 -12l-7 5v239h279v-107h-149v-30h12q159 0 159 -123q0 -67 -43.5 -103t-129.5 -36zM97 0l554 690h114l-554 -690h-114zM668 -7q-89 0 -136 30.5t-47 82.5q0 68 69 86
q-57 35 -57 93t46 86t121 28q73 0 122 -27.5t49 -80.5q0 -34 -15.5 -51.5t-48.5 -27.5q40 -22 58 -44.5t18 -59.5q0 -115 -179 -115zM639 288q0 -10 10.5 -17t41.5 -20q9 11 9 28q0 29 -31 29q-30 0 -30 -20zM662 86q35 0 35 25q0 17 -49 37q-6 3 -9 4q-16 -16 -16 -36
q0 -30 39 -30z" />
    <glyph glyph-name="seveneighths" unicode="&#x215e;" horiz-adv-x="837" 
d="M58 0l554 690h114l-554 -690h-114zM231 298h-171q20 72 40.5 120.5t60.5 118.5l16 28h-156v125h334v-79l-44 -88q-17 -34 -30 -66.5t-18 -48t-16.5 -56.5t-15.5 -54zM642 -7q-89 0 -136 30.5t-47 82.5q0 68 69 86q-57 35 -57 93t46 86t121 28q73 0 122 -27.5t49 -80.5
q0 -34 -15.5 -51.5t-48.5 -27.5q40 -22 58 -44.5t18 -59.5q0 -115 -179 -115zM613 288q0 -10 10.5 -17t41.5 -20q9 11 9 28q0 29 -31 29q-30 0 -30 -20zM636 86q35 0 35 25q0 17 -49 37q-6 3 -9 4q-16 -16 -16 -36q0 -30 39 -30z" />
    <glyph glyph-name="minus" unicode="&#x2212;" horiz-adv-x="534" 
d="M20 263v165h494v-165h-494z" />
    <glyph glyph-name="uni24C5" unicode="&#x24c5;" horiz-adv-x="774" 
d="M24 352q0 160 104 264t259 104t259 -104t104 -264q0 -159 -104 -263t-259 -104t-259 104t-104 263zM674 352q0 129 -81.5 214t-205.5 85q-123 0 -205 -85t-82 -214q0 -126 82 -212t205 -86t205 85.5t82 212.5zM409 444h-16v-83h16q36 0 36 43q0 40 -36 40zM412 265h-19
v-104h-153v387h171q174 0 174 -145q0 -138 -173 -138z" />
    <glyph glyph-name="J.alt" unicode="&#xe489;" horiz-adv-x="505" 
d="M191 -6q-113 0 -172 32v196l5 2q48 -22 90 -22q72 0 72 69v434h284v-461q0 -250 -279 -250z" />
    <glyph glyph-name="K.alt" unicode="&#xe48a;" horiz-adv-x="753" 
d="M455 0l-132 287v-287h-284v705h284v-267l138 267h273v-8l-167 -312l183 -377v-8h-295z" />
    <glyph glyph-name="M.alt" unicode="&#xe48c;" horiz-adv-x="933" 
d="M403 0l-113 274l-39 -274h-241l95 705h246l116 -289l119 289h240l97 -705h-277l-37 272l-121 -272h-85z" />
    <glyph glyph-name="Q.alt" unicode="&#xe490;" horiz-adv-x="818" 
d="M409 175q18 0 39 8l-59 91l2 11h120q6 31 6 70q0 78 -27.5 122t-80.5 44t-80.5 -44t-27.5 -122q0 -81 27 -130.5t81 -49.5zM567 0l-21 32q-50 -47 -159 -47q-167 0 -269.5 104.5t-102.5 265.5q0 162 106 263.5t288 101.5t288 -101.5t106 -263.5q0 -119 -60 -211l80 -133
l-2 -11h-254z" />
    <glyph glyph-name="W.alt" unicode="&#xe496;" horiz-adv-x="1037" 
d="M622 0l-108 284l-109 -284h-204l-197 694v11h281l70 -275l98 275h142l105 -282l72 282h261v-10l-198 -695h-213z" />
    <glyph glyph-name="a.alt" unicode="&#xe4c0;" horiz-adv-x="655" 
d="M329 170q31 0 50 15v190q-19 16 -48 16q-66 0 -66 -117q0 -49 16.5 -76.5t47.5 -27.5zM422 0l-23 73q-54 -86 -164 -86q-102 0 -162 72t-60 215t65.5 216t162.5 73q99 0 151 -70l10 57h224v-550h-204z" />
    <glyph glyph-name="g.alt" unicode="&#xe4c6;" horiz-adv-x="661" 
d="M331 190q33 0 54 21v163q-23 17 -52 17q-68 0 -68 -107q0 -94 66 -94zM301 -199q-142 0 -242 41v177l7 3q89 -47 193 -47q70 0 98 20.5t28 64.5v35q-56 -69 -153 -69q-98 0 -158.5 66.5t-60.5 191.5q0 139 64.5 209t162.5 70q99 0 158 -67l10 54h224v-500
q0 -249 -331 -249z" />
    <glyph glyph-name="k.alt" unicode="&#xe4ca;" horiz-adv-x="635" 
d="M368 0l-92 222v-222h-247v711l247 35v-412l116 216h240v-10l-133 -233l133 -297v-10h-264z" />
    <glyph glyph-name="l.alt" unicode="&#xe4cb;" horiz-adv-x="343" 
d="M218 -9q-93 0 -141 35t-48 120v565l247 35v-556q0 -19 6 -27.5t23 -8.5q11 0 20 4l8 -5v-145q-51 -17 -115 -17z" />
    <glyph glyph-name="t.alt" unicode="&#xe4d3;" horiz-adv-x="430" 
d="M408 387h-84v-387h-247v387h-62v163h62v79l247 38v-117h84v-163z" />
    <glyph glyph-name="y.alt" unicode="&#xe4d8;" horiz-adv-x="649" 
d="M379 -180h-244v10l72 197l-201 513v10h261l76 -241l78 241h222v-10z" />
    <glyph glyph-name="k.alt1" unicode="&#xe4ea;" horiz-adv-x="645" 
d="M320 382q-21 0 -44 -7v-375h-247v711l247 35v-267q80 84 186 84q72 0 117.5 -47.5t45.5 -122.5q0 -95 -88 -153l101 -230v-10h-261l-82 194v50q82 24 82 85q0 53 -57 53z" />
    <glyph glyph-name="y.alt1" unicode="&#xe4f8;" 
d="M272 -199q-131 0 -221 37v173l7 3q80 -43 187 -43q71 0 100 22.5t29 66.5v21q-59 -66 -151 -66q-88 0 -142.5 52.5t-54.5 159.5v323h247v-299q0 -31 12 -46t43 -15q28 0 46 13v347h247v-500q0 -131 -83.5 -190t-265.5 -59z" />
    <glyph glyph-name="NULL" horiz-adv-x="0" 
 />
    <glyph glyph-name="CR" horiz-adv-x="333" 
 />
    <glyph glyph-name="idotaccent" horiz-adv-x="311" 
d="M32 598v130h247v-130h-247zM32 0v550h247v-550h-247z" />
    <glyph glyph-name="space_uni0326" horiz-adv-x="400" 
d="M96 -246l9 210h186l7 -12l-71 -198h-131z" />
    <glyph glyph-name="zero.num" horiz-adv-x="457" 
d="M229 291q-95 0 -153.5 53.5t-58.5 151.5q0 97 58.5 149t153.5 52t153 -52t58 -149q0 -98 -58.5 -151.5t-152.5 -53.5zM229 401q23 0 32 22.5t9 72.5t-9 71t-32 21t-32.5 -21.5t-9.5 -70.5q0 -50 9.5 -72.5t32.5 -22.5z" />
    <glyph glyph-name="one.num" horiz-adv-x="305" 
d="M260 298h-166v208l-77 -39l-4 2v136l160 85h87v-392z" />
    <glyph glyph-name="two.num" horiz-adv-x="376" 
d="M21 298v78l111 110q27 27 35 37.5t8 22.5q0 15 -12.5 21t-41.5 6q-46 0 -89 -29l-7 4v116q47 33 141 33q168 0 168 -129q0 -43 -14.5 -69t-55.5 -64l-25 -24h104v-113h-322z" />
    <glyph glyph-name="three.num" horiz-adv-x="369" 
d="M167 291q-90 0 -146 33v111l6 4q47 -29 112 -29q47 0 47 22q0 19 -41 19h-54v89h48q38 0 38 18q0 22 -47 22q-55 0 -96 -22l-7 3v109q45 27 140 27q71 0 117.5 -27.5t46.5 -79.5q0 -36 -18 -55.5t-59 -29.5q48 -9 69 -30.5t21 -60.5q0 -123 -177 -123z" />
    <glyph glyph-name="four.num" horiz-adv-x="406" 
d="M190 453v69l-51 -69h51zM391 355h-53v-57h-148v57h-177v65l200 270h125v-237h53v-98z" />
    <glyph glyph-name="five.num" horiz-adv-x="357" 
d="M167 291q-98 0 -146 30v104l7 5q48 -25 97 -25q55 0 55 26q0 15 -14.5 21t-48.5 6q-35 0 -71 -12l-7 5v239h279v-107h-149v-30h12q159 0 159 -123q0 -67 -43.5 -103t-129.5 -36z" />
    <glyph glyph-name="six.num" horiz-adv-x="400" 
d="M387 434q0 -69 -46 -106t-129 -37q-88 0 -141 48.5t-53 143.5q0 109 60.5 161.5t160.5 52.5q66 0 118 -25v-103l-8 -3q-43 24 -86 24q-41 0 -61.5 -14t-26.5 -49q28 26 85 26q127 0 127 -119zM207 395q29 0 29 40q0 24 -8.5 33t-28.5 9q-15 0 -27 -5q2 -45 10.5 -61
t24.5 -16z" />
    <glyph glyph-name="seven.num" horiz-adv-x="378" 
d="M231 298h-171q20 72 40.5 120.5t60.5 118.5l16 28h-156v125h334v-79l-44 -88q-17 -34 -30 -66.5t-18 -48t-16.5 -56.5t-15.5 -54z" />
    <glyph glyph-name="eight.num" horiz-adv-x="394" 
d="M199 291q-89 0 -136 30.5t-47 82.5q0 68 69 86q-57 35 -57 93t46 86t121 28q73 0 122 -27.5t49 -80.5q0 -34 -15.5 -51.5t-48.5 -27.5q40 -22 58 -44.5t18 -59.5q0 -115 -179 -115zM170 586q0 -10 10.5 -17t41.5 -20q9 11 9 28q0 29 -31 29q-30 0 -30 -20zM193 384
q35 0 35 25q0 17 -49 37q-6 3 -9 4q-16 -16 -16 -36q0 -30 39 -30z" />
    <glyph glyph-name="nine.num" horiz-adv-x="400" 
d="M201 508q15 0 27 5q-2 46 -10.5 63t-24.5 17q-29 0 -29 -41q0 -25 8.5 -34.5t28.5 -9.5zM158 291q-70 0 -122 25v103l8 2q41 -23 90 -23q43 0 63.5 13t27.5 47q-28 -26 -85 -26q-127 0 -127 121q0 70 46 107t129 37q88 0 141 -48.5t53 -143.5q0 -109 -61.5 -161.5
t-162.5 -52.5z" />
    <glyph glyph-name="zero.den" horiz-adv-x="457" 
d="M229 -7q-95 0 -153.5 53.5t-58.5 151.5q0 97 58.5 149t153.5 52t153 -52t58 -149q0 -98 -58.5 -151.5t-152.5 -53.5zM229 103q23 0 32 22.5t9 72.5t-9 71t-32 21t-32.5 -21.5t-9.5 -70.5q0 -50 9.5 -72.5t32.5 -22.5z" />
    <glyph glyph-name="one.den" horiz-adv-x="305" 
d="M260 0h-166v208l-77 -39l-4 2v136l160 85h87v-392z" />
    <glyph glyph-name="two.den" horiz-adv-x="376" 
d="M21 0v78l111 110q27 27 35 37.5t8 22.5q0 15 -12.5 21t-41.5 6q-46 0 -89 -29l-7 4v116q47 33 141 33q168 0 168 -129q0 -43 -14.5 -69t-55.5 -64l-25 -24h104v-113h-322z" />
    <glyph glyph-name="three.den" horiz-adv-x="369" 
d="M167 -7q-90 0 -146 33v111l6 4q47 -29 112 -29q47 0 47 22q0 19 -41 19h-54v89h48q38 0 38 18q0 22 -47 22q-55 0 -96 -22l-7 3v109q45 27 140 27q71 0 117.5 -27.5t46.5 -79.5q0 -36 -18 -55.5t-59 -29.5q48 -9 69 -30.5t21 -60.5q0 -123 -177 -123z" />
    <glyph glyph-name="four.den" horiz-adv-x="406" 
d="M190 155v69l-51 -69h51zM391 57h-53v-57h-148v57h-177v65l200 270h125v-237h53v-98z" />
    <glyph glyph-name="five.den" horiz-adv-x="357" 
d="M167 -7q-98 0 -146 30v104l7 5q48 -25 97 -25q55 0 55 26q0 15 -14.5 21t-48.5 6q-35 0 -71 -12l-7 5v239h279v-107h-149v-30h12q159 0 159 -123q0 -67 -43.5 -103t-129.5 -36z" />
    <glyph glyph-name="six.den" horiz-adv-x="400" 
d="M387 136q0 -69 -46 -106t-129 -37q-88 0 -141 48.5t-53 143.5q0 109 60.5 161.5t160.5 52.5q66 0 118 -25v-103l-8 -3q-43 24 -86 24q-41 0 -61.5 -14t-26.5 -49q28 26 85 26q127 0 127 -119zM207 97q29 0 29 40q0 24 -8.5 33t-28.5 9q-15 0 -27 -5q2 -45 10.5 -61
t24.5 -16z" />
    <glyph glyph-name="seven.den" horiz-adv-x="378" 
d="M231 0h-171q20 72 40.5 120.5t60.5 118.5l16 28h-156v125h334v-79l-44 -88q-17 -34 -30 -66.5t-18 -48t-16.5 -56.5t-15.5 -54z" />
    <glyph glyph-name="eight.den" horiz-adv-x="394" 
d="M199 -7q-89 0 -136 30.5t-47 82.5q0 68 69 86q-57 35 -57 93t46 86t121 28q73 0 122 -27.5t49 -80.5q0 -34 -15.5 -51.5t-48.5 -27.5q40 -22 58 -44.5t18 -59.5q0 -115 -179 -115zM170 288q0 -10 10.5 -17t41.5 -20q9 11 9 28q0 29 -31 29q-30 0 -30 -20zM193 86
q35 0 35 25q0 17 -49 37q-6 3 -9 4q-16 -16 -16 -36q0 -30 39 -30z" />
    <glyph glyph-name="nine.den" horiz-adv-x="400" 
d="M201 210q15 0 27 5q-2 46 -10.5 63t-24.5 17q-29 0 -29 -41q0 -25 8.5 -34.5t28.5 -9.5zM158 -7q-70 0 -122 25v103l8 2q41 -23 90 -23q43 0 63.5 13t27.5 47q-28 -26 -85 -26q-127 0 -127 121q0 70 46 107t129 37q88 0 141 -48.5t53 -143.5q0 -109 -61.5 -161.5
t-162.5 -52.5z" />
    <glyph glyph-name="zero.sub" horiz-adv-x="457" 
d="M229 -114q-95 0 -153.5 53.5t-58.5 151.5q0 97 58.5 149t153.5 52t153 -52t58 -149q0 -98 -58.5 -151.5t-152.5 -53.5zM229 -4q23 0 32 22.5t9 72.5t-9 71t-32 21t-32.5 -21.5t-9.5 -70.5q0 -50 9.5 -72.5t32.5 -22.5z" />
    <glyph glyph-name="one.sub" horiz-adv-x="305" 
d="M260 -107h-166v208l-77 -39l-4 2v136l160 85h87v-392z" />
    <glyph glyph-name="two.sub" horiz-adv-x="376" 
d="M21 -107v78l111 110q27 27 35 37.5t8 22.5q0 15 -12.5 21t-41.5 6q-46 0 -89 -29l-7 4v116q47 33 141 33q168 0 168 -129q0 -43 -14.5 -69t-55.5 -64l-25 -24h104v-113h-322z" />
    <glyph glyph-name="three.sub" horiz-adv-x="369" 
d="M167 -114q-90 0 -146 33v111l6 4q47 -29 112 -29q47 0 47 22q0 19 -41 19h-54v89h48q38 0 38 18q0 22 -47 22q-55 0 -96 -22l-7 3v109q45 27 140 27q71 0 117.5 -27.5t46.5 -79.5q0 -36 -18 -55.5t-59 -29.5q48 -9 69 -30.5t21 -60.5q0 -123 -177 -123z" />
    <glyph glyph-name="four.sub" horiz-adv-x="406" 
d="M190 48v69l-51 -69h51zM391 -50h-53v-57h-148v57h-177v65l200 270h125v-237h53v-98z" />
    <glyph glyph-name="five.sub" horiz-adv-x="357" 
d="M167 -114q-98 0 -146 30v104l7 5q48 -25 97 -25q55 0 55 26q0 15 -14.5 21t-48.5 6q-35 0 -71 -12l-7 5v239h279v-107h-149v-30h12q159 0 159 -123q0 -67 -43.5 -103t-129.5 -36z" />
    <glyph glyph-name="six.sub" horiz-adv-x="400" 
d="M387 29q0 -69 -46 -106t-129 -37q-88 0 -141 48.5t-53 143.5q0 109 60.5 161.5t160.5 52.5q66 0 118 -25v-103l-8 -3q-43 24 -86 24q-41 0 -61.5 -14t-26.5 -49q28 26 85 26q127 0 127 -119zM207 -10q29 0 29 40q0 24 -8.5 33t-28.5 9q-15 0 -27 -5q2 -45 10.5 -61
t24.5 -16z" />
    <glyph glyph-name="seven.sub" horiz-adv-x="378" 
d="M231 -107h-171q20 72 40.5 120.5t60.5 118.5l16 28h-156v125h334v-79l-44 -88q-17 -34 -30 -66.5t-18 -48t-16.5 -56.5t-15.5 -54z" />
    <glyph glyph-name="eight.sub" horiz-adv-x="394" 
d="M199 -114q-89 0 -136 30.5t-47 82.5q0 68 69 86q-57 35 -57 93t46 86t121 28q73 0 122 -27.5t49 -80.5q0 -34 -15.5 -51.5t-48.5 -27.5q40 -22 58 -44.5t18 -59.5q0 -115 -179 -115zM170 181q0 -10 10.5 -17t41.5 -20q9 10 9 28q0 29 -31 29q-30 0 -30 -20zM193 -21
q35 0 35 25q0 17 -49 37q-6 3 -9 4q-16 -16 -16 -36q0 -30 39 -30z" />
    <glyph glyph-name="nine.sub" horiz-adv-x="400" 
d="M201 103q15 0 27 5q-2 46 -10.5 63t-24.5 17q-29 0 -29 -41q0 -25 8.5 -34.5t28.5 -9.5zM158 -114q-70 0 -122 25v103l8 2q41 -23 90 -23q43 0 63.5 13t27.5 47q-28 -26 -85 -26q-127 0 -127 121q0 70 46 107t129 37q88 0 141 -48.5t53 -143.5q0 -109 -61.5 -161.5
t-162.5 -52.5z" />
    <glyph glyph-name="plus.sub" horiz-adv-x="350" 
d="M120 -62v97h-95v108h95v97h110v-97h95v-108h-95v-97h-110z" />
    <glyph glyph-name="minus.sub" horiz-adv-x="350" 
d="M25 35v108h300v-108h-300z" />
    <glyph glyph-name="zero.sup" horiz-adv-x="457" 
d="M229 349q-95 0 -153.5 53.5t-58.5 151.5q0 97 58.5 149t153.5 52t153 -52t58 -149q0 -98 -58.5 -151.5t-152.5 -53.5zM229 459q23 0 32 22.5t9 72.5t-9 71t-32 21t-32.5 -21.5t-9.5 -70.5q0 -50 9.5 -72.5t32.5 -22.5z" />
    <glyph glyph-name="one.sup" horiz-adv-x="305" 
d="M260 356h-166v208l-77 -39l-4 2v136l160 85h87v-392z" />
    <glyph glyph-name="two.sup" horiz-adv-x="376" 
d="M21 356v78l111 110q27 27 35 37.5t8 22.5q0 15 -12.5 21t-41.5 6q-46 0 -89 -29l-7 4v116q47 33 141 33q168 0 168 -129q0 -43 -14.5 -69t-55.5 -64l-25 -24h104v-113h-322z" />
    <glyph glyph-name="three.sup" horiz-adv-x="369" 
d="M167 349q-90 0 -146 33v111l6 4q47 -29 112 -29q47 0 47 22q0 19 -41 19h-54v89h48q38 0 38 18q0 22 -47 22q-55 0 -96 -22l-7 3v109q45 27 140 27q71 0 117.5 -27.5t46.5 -79.5q0 -36 -18 -55.5t-59 -29.5q48 -9 69 -30.5t21 -60.5q0 -123 -177 -123z" />
    <glyph glyph-name="four.sup" horiz-adv-x="406" 
d="M190 511v67l-51 -67h51zM391 413h-53v-57h-148v57h-177v65l203 270h122v-237h53v-98z" />
    <glyph glyph-name="five.sup" horiz-adv-x="357" 
d="M167 349q-98 0 -146 30v104l7 5q48 -25 97 -25q55 0 55 26q0 15 -14.5 21t-48.5 6q-35 0 -71 -12l-7 5v239h279v-107h-149v-30h12q159 0 159 -123q0 -67 -43.5 -103t-129.5 -36z" />
    <glyph glyph-name="six.sup" horiz-adv-x="400" 
d="M387 492q0 -69 -46 -106t-129 -37q-88 0 -141 48.5t-53 143.5q0 109 60.5 161.5t160.5 52.5q66 0 118 -25v-103l-8 -3q-43 24 -86 24q-41 0 -61.5 -14t-26.5 -49q28 26 85 26q127 0 127 -119zM207 453q29 0 29 40q0 24 -8.5 33t-28.5 9q-15 0 -27 -5q2 -45 10.5 -61
t24.5 -16z" />
    <glyph glyph-name="seven.sup" horiz-adv-x="378" 
d="M231 356h-171q20 72 40.5 120.5t60.5 118.5l16 28h-156v125h334v-79l-44 -88q-17 -34 -30 -66.5t-18 -48t-16.5 -56.5t-15.5 -54z" />
    <glyph glyph-name="eight.sup" horiz-adv-x="394" 
d="M199 349q-89 0 -136 30.5t-47 82.5q0 68 69 86q-57 35 -57 93t46 86t121 28q73 0 122 -27.5t49 -80.5q0 -34 -15.5 -51.5t-48.5 -27.5q40 -22 58 -44.5t18 -59.5q0 -115 -179 -115zM170 644q0 -10 10.5 -17t41.5 -20q9 11 9 28q0 29 -31 29q-30 0 -30 -20zM193 442
q35 0 35 25q0 17 -49 37q-6 3 -9 4q-16 -16 -16 -36q0 -30 39 -30z" />
    <glyph glyph-name="nine.sup" horiz-adv-x="400" 
d="M201 566q15 0 27 5q-2 46 -10.5 63t-24.5 17q-29 0 -29 -41q0 -25 8.5 -34.5t28.5 -9.5zM158 349q-70 0 -122 25v103l8 2q41 -23 90 -23q43 0 63.5 13t27.5 47q-28 -26 -85 -26q-127 0 -127 121q0 70 46 107t129 37q88 0 141 -48.5t53 -143.5q0 -109 -61.5 -161.5
t-162.5 -52.5z" />
    <glyph glyph-name="plus.sup" horiz-adv-x="350" 
d="M120 401v97h-95v108h95v97h110v-97h95v-108h-95v-97h-110z" />
    <glyph glyph-name="minus.sup" horiz-adv-x="350" 
d="M25 498v108h300v-108h-300z" />
    <glyph glyph-name="IJ.alt" horiz-adv-x="864" 
d="M41 0v705h284v-705h-284zM545 -6q-113 0 -172 32v196l5 2q48 -22 90 -22q72 0 72 69v434h284v-461q0 -250 -279 -250z" />
    <glyph glyph-name="Jcircumflex.alt" horiz-adv-x="505" 
d="M191 -6q-113 0 -172 32v196l5 2q48 -22 90 -22q72 0 72 69v434h284v-461q0 -250 -279 -250zM329 783l-45 -47h-172l132 163h170l132 -163h-172z" />
    <glyph glyph-name="Kcommaaccent.alt" horiz-adv-x="753" 
d="M455 0l-132 287v-287h-284v705h284v-267l138 267h273v-8l-167 -312l183 -377v-8h-295zM274 -246l9 210h186l7 -12l-71 -198h-131z" />
    <glyph glyph-name="Wacute.alt" horiz-adv-x="1037" 
d="M622 0l-108 284l-109 -284h-204l-197 694v11h281l70 -275l98 275h142l105 -282l72 282h261v-10l-198 -695h-213zM597 736h-173l72 163h221z" />
    <glyph glyph-name="Wcircumflex.alt" horiz-adv-x="1037" 
d="M622 0l-108 284l-109 -284h-204l-197 694v11h281l70 -275l98 275h142l105 -282l72 282h261v-10l-198 -695h-213zM517 783l-45 -47h-172l132 163h170l132 -163h-172z" />
    <glyph glyph-name="Wdieresis.alt" horiz-adv-x="1037" 
d="M622 0l-108 284l-109 -284h-204l-197 694v11h281l70 -275l98 275h142l105 -282l72 282h261v-10l-198 -695h-213zM537 736v164h206v-164h-206zM292 736v164h206v-164h-206z" />
    <glyph glyph-name="Wgrave.alt" horiz-adv-x="1037" 
d="M622 0l-108 284l-109 -284h-204l-197 694v11h281l70 -275l98 275h142l105 -282l72 282h261v-10l-198 -695h-213zM442 736l-120 163h221l72 -163h-173z" />
    <glyph glyph-name="aacute.alt" horiz-adv-x="655" 
d="M499 728l-93 -130h-131l67 130h157zM329 170q-31 0 -47.5 27.5t-16.5 76.5q0 117 66 117q29 0 48 -16v-190q-19 -15 -50 -15zM399 73l23 -73h204v550h-224l-10 -57q-52 70 -151 70q-97 0 -162.5 -73t-65.5 -216t60 -215t162 -72q110 0 164 86z" />
    <glyph glyph-name="abreve.alt" horiz-adv-x="655" 
d="M350 591q-81 0 -117 30.5t-39 92.5h119q3 -35 36 -35q34 0 37 35h119q-3 -62 -39 -92.5t-116 -30.5zM329 170q31 0 50 15v190q-19 16 -48 16q-66 0 -66 -117q0 -49 16.5 -76.5t47.5 -27.5zM422 0l-23 73q-54 -86 -164 -86q-102 0 -162 72t-60 215t65.5 216t162.5 73
q99 0 151 -70l10 57h224v-550h-204z" />
    <glyph glyph-name="acircumflex.alt" horiz-adv-x="655" 
d="M348 630l-36 -42h-135l101 130h142l101 -130h-135zM329 170q31 0 50 15v190q-19 16 -48 16q-66 0 -66 -117q0 -49 16.5 -76.5t47.5 -27.5zM422 0l-23 73q-54 -86 -164 -86q-102 0 -162 72t-60 215t65.5 216t162.5 73q99 0 151 -70l10 57h224v-550h-204z" />
    <glyph glyph-name="adieresis.alt" horiz-adv-x="655" 
d="M329 170q31 0 50 15v190q-19 16 -48 16q-66 0 -66 -117q0 -49 16.5 -76.5t47.5 -27.5zM422 0l-23 73q-54 -86 -164 -86q-102 0 -162 72t-60 215t65.5 216t162.5 73q99 0 151 -70l10 57h224v-550h-204zM117 586v164h193v-164h-193zM344 586v164h193v-164h-193z" />
    <glyph glyph-name="agrave.alt" horiz-adv-x="655" 
d="M291 598l-93 130h157l67 -130h-131zM329 170q31 0 50 15v190q-19 16 -48 16q-66 0 -66 -117q0 -49 16.5 -76.5t47.5 -27.5zM422 0l-23 73q-54 -86 -164 -86q-102 0 -162 72t-60 215t65.5 216t162.5 73q99 0 151 -70l10 57h224v-550h-204z" />
    <glyph glyph-name="amacron.alt" horiz-adv-x="655" 
d="M329 170q31 0 50 15v190q-19 16 -48 16q-66 0 -66 -117q0 -49 16.5 -76.5t47.5 -27.5zM422 0l-23 73q-54 -86 -164 -86q-102 0 -162 72t-60 215t65.5 216t162.5 73q99 0 151 -70l10 57h224v-550h-204zM145 599v136h364v-136h-364z" />
    <glyph glyph-name="aogonek.alt" horiz-adv-x="655" 
d="M329 170q31 0 50 15v190q-19 16 -48 16q-66 0 -66 -117q0 -49 16.5 -76.5t47.5 -27.5zM482 0h-60l-23 73q-54 -86 -164 -86q-102 0 -162 72t-60 215t65.5 216t162.5 73q99 0 151 -70l10 57h224v-550h-21q-43 -34 -43 -53q0 -22 31 -22q15 0 24 4l9 -4v-101
q-44 -18 -105 -18q-66 0 -102 22.5t-36 62.5q0 68 99 109z" />
    <glyph glyph-name="aring.alt" horiz-adv-x="655" 
d="M329 170q31 0 50 15v190q-19 16 -48 16q-66 0 -66 -117q0 -49 16.5 -76.5t47.5 -27.5zM422 0l-23 73q-54 -86 -164 -86q-102 0 -162 72t-60 215t65.5 216t162.5 73q99 0 151 -70l10 57h224v-550h-204zM327 580q-56 0 -90 33t-34 87t34 87t90 33t90 -33t34 -87t-34 -87
t-90 -33zM327 738q-17 0 -27 -10.5t-10 -27.5q0 -37 37 -37q16 0 26.5 10t10.5 27t-10.5 27.5t-26.5 10.5z" />
    <glyph glyph-name="aringacute.alt" horiz-adv-x="655" 
d="M329 170q31 0 50 15v190q-19 16 -48 16q-66 0 -66 -117q0 -49 16.5 -76.5t47.5 -27.5zM422 0l-23 73q-54 -86 -164 -86q-102 0 -162 72t-60 215t65.5 216t162.5 73q99 0 151 -70l10 57h224v-550h-204zM327 580q-56 0 -90 33t-34 87t34 87t90 33t90 -33t34 -87t-34 -87
t-90 -33zM327 738q-17 0 -27 -10.5t-10 -27.5q0 -37 37 -37q16 0 26.5 10t10.5 27t-10.5 27.5t-26.5 10.5zM404 838h-173l72 163h221z" />
    <glyph glyph-name="atilde.alt" horiz-adv-x="655" 
d="M408 703q27 0 51 26l8 -3l27 -83q-39 -45 -96 -45q-34 0 -68 11t-48 11q-29 0 -56 -25l-9 3l-26 83q37 44 97 44q34 0 69 -11t51 -11zM329 170q31 0 50 15v190q-19 16 -48 16q-66 0 -66 -117q0 -49 16.5 -76.5t47.5 -27.5zM422 0l-23 73q-54 -86 -164 -86q-102 0 -162 72
t-60 215t65.5 216t162.5 73q99 0 151 -70l10 57h224v-550h-204z" />
    <glyph glyph-name="gbreve.alt" horiz-adv-x="661" 
d="M331 190q33 0 54 21v163q-23 17 -52 17q-68 0 -68 -107q0 -94 66 -94zM301 -199q-142 0 -242 41v177l7 3q89 -47 193 -47q70 0 98 20.5t28 64.5v35q-56 -69 -153 -69q-98 0 -158.5 66.5t-60.5 191.5q0 139 64.5 209t162.5 70q99 0 158 -67l10 54h224v-500
q0 -249 -331 -249zM328 578q-80 0 -131.5 45.5t-61.5 128.5h143q10 -42 50 -42q38 0 50 42h143q-10 -83 -61.5 -128.5t-131.5 -45.5z" />
    <glyph glyph-name="gcircumflex.alt" horiz-adv-x="661" 
d="M331 190q33 0 54 21v163q-23 17 -52 17q-68 0 -68 -107q0 -94 66 -94zM301 -199q-142 0 -242 41v177l7 3q89 -47 193 -47q70 0 98 20.5t28 64.5v35q-56 -69 -153 -69q-98 0 -158.5 66.5t-60.5 191.5q0 139 64.5 209t162.5 70q99 0 158 -67l10 54h224v-500
q0 -249 -331 -249zM328 633l-42 -47h-172l139 175h150l139 -175h-172z" />
    <glyph glyph-name="gcommaaccent.alt" horiz-adv-x="661" 
d="M331 190q33 0 54 21v163q-23 17 -52 17q-68 0 -68 -107q0 -94 66 -94zM301 -199q-142 0 -242 41v177l7 3q89 -47 193 -47q70 0 98 20.5t28 64.5v35q-56 -69 -153 -69q-98 0 -158.5 66.5t-60.5 191.5q0 139 64.5 209t162.5 70q99 0 158 -67l10 54h224v-500
q0 -249 -331 -249zM425 796l-9 -210h-186l-7 12l71 198h131z" />
    <glyph glyph-name="gdotaccent.alt" horiz-adv-x="661" 
d="M331 190q33 0 54 21v163q-23 17 -52 17q-68 0 -68 -107q0 -94 66 -94zM301 -199q-142 0 -242 41v177l7 3q89 -47 193 -47q70 0 98 20.5t28 64.5v35q-56 -69 -153 -69q-98 0 -158.5 66.5t-60.5 191.5q0 139 64.5 209t162.5 70q99 0 158 -67l10 54h224v-500
q0 -249 -331 -249zM217 588v170h222v-170h-222z" />
    <glyph glyph-name="germandbls.alt" horiz-adv-x="691" 
d="M311 8v168l9 4q24 -15 53 -15q50 0 50 60q0 74 -108 95v140q72 7 72 70q0 25 -14.5 37.5t-37.5 12.5q-25 0 -40 -17.5t-15 -49.5v-513h-251v495q0 251 319 251q128 0 203 -50.5t75 -137.5q0 -58 -33.5 -89t-88.5 -49q31 -9 60 -25.5t56.5 -43t44 -69t16.5 -94.5
q0 -90 -61 -145t-167 -55q-87 0 -142 20z" />
    <glyph glyph-name="kcommaaccent.alt" horiz-adv-x="635" 
d="M368 0l-92 222v-222h-247v711l247 35v-412l116 216h240v-10l-133 -233l133 -297v-10h-264zM217 -246l9 210h186l7 -12l-71 -198h-131z" />
    <glyph glyph-name="kcommaaccent.alt1" horiz-adv-x="645" 
d="M320 382q-21 0 -44 -7v-375h-247v711l247 35v-267q80 84 186 84q72 0 117.5 -47.5t45.5 -122.5q0 -95 -88 -153l101 -230v-10h-261l-82 194v50q82 24 82 85q0 53 -57 53zM218 -246l9 210h186l7 -12l-71 -198h-131z" />
    <glyph glyph-name="lacute.alt" horiz-adv-x="343" 
d="M218 -9q-93 0 -141 35t-48 120v565l247 35v-556q0 -19 6 -27.5t23 -8.5q11 0 20 4l8 -5v-145q-51 -17 -115 -17zM230 766h-173l72 163h221z" />
    <glyph glyph-name="lcaron.alt" horiz-adv-x="343" 
d="M218 -9q-93 0 -141 35t-48 120v565l247 35v-556q0 -19 6 -27.5t23 -8.5q11 0 20 4l8 -5v-145q-51 -17 -115 -17zM303 581l6 162h144v-54l-27 -108h-123z" />
    <glyph glyph-name="lcommaaccent.alt" horiz-adv-x="343" 
d="M218 -9q-93 0 -141 35t-48 120v565l247 35v-556q0 -19 6 -27.5t23 -8.5q11 0 20 4l8 -5v-145q-51 -17 -115 -17zM80 -246l9 210h186l7 -12l-71 -198h-131z" />
    <glyph glyph-name="ldot.alt" horiz-adv-x="490" 
d="M218 -9q-93 0 -141 35t-48 120v565l247 35v-556q0 -19 6 -27.5t23 -8.5q11 0 20 4l8 -5v-145q-51 -17 -115 -17zM305 286v182h187v-182h-187z" />
    <glyph glyph-name="lslash.alt" horiz-adv-x="360" 
d="M235 -9q-93 0 -141 35t-48 120v129l-38 -15v157l38 15v279l247 35v-216l55 22v-157l-55 -22v-183q0 -19 6 -27.5t23 -8.5q11 0 20 4l8 -5v-145q-51 -17 -115 -17z" />
    <glyph glyph-name="tbar.alt" horiz-adv-x="430" 
d="M408 250h-84v-250h-247v250h-62v90h62v47h-62v163h62v79l247 38v-117h84v-163h-84v-47h84v-90z" />
    <glyph glyph-name="tcaron.alt" horiz-adv-x="430" 
d="M408 387h-84v-387h-247v387h-62v163h62v79l247 38v-117h84v-163zM356 581l6 162h144v-54l-27 -108h-123z" />
    <glyph glyph-name="tcommaaccent.alt" horiz-adv-x="430" 
d="M408 387h-84v-387h-247v387h-62v163h62v79l247 38v-117h84v-163zM98 -246l9 210h186l7 -12l-71 -198h-131z" />
    <glyph glyph-name="yacute.alt" horiz-adv-x="649" 
d="M486 728l-93 -130h-131l67 130h157zM135 -180h244l264 720v10h-222l-78 -241l-76 241h-261v-10l201 -513l-72 -197v-10z" />
    <glyph glyph-name="yacute.alt1" 
d="M472 728l-93 -130h-131l67 130h157zM272 -199q182 0 265.5 59t83.5 190v500h-247v-347q-18 -13 -46 -13q-31 0 -43 15t-12 46v299h-247v-323q0 -107 54.5 -159.5t142.5 -52.5q92 0 151 66v-21q0 -44 -29 -66.5t-100 -22.5q-107 0 -187 43l-7 -3v-173q90 -37 221 -37z" />
    <glyph glyph-name="ycircumflex.alt" horiz-adv-x="649" 
d="M379 -180h-244v10l72 197l-201 513v10h261l76 -241l78 241h222v-10zM341 633l-42 -47h-172l139 175h150l139 -175h-172z" />
    <glyph glyph-name="ycircumflex.alt1" 
d="M272 -199q-131 0 -221 37v173l7 3q80 -43 187 -43q71 0 100 22.5t29 66.5v21q-59 -66 -151 -66q-88 0 -142.5 52.5t-54.5 159.5v323h247v-299q0 -31 12 -46t43 -15q28 0 46 13v347h247v-500q0 -131 -83.5 -190t-265.5 -59zM326 633l-42 -47h-172l139 175h150l139 -175
h-172z" />
    <glyph glyph-name="ydieresis.alt" horiz-adv-x="649" 
d="M379 -180h-244v10l72 197l-201 513v10h261l76 -241l78 241h222v-10zM131 586v164h193v-164h-193zM358 586v164h193v-164h-193z" />
    <glyph glyph-name="ydieresis.alt1" 
d="M272 -199q-131 0 -221 37v173l7 3q80 -43 187 -43q71 0 100 22.5t29 66.5v21q-59 -66 -151 -66q-88 0 -142.5 52.5t-54.5 159.5v323h247v-299q0 -31 12 -46t43 -15q28 0 46 13v347h247v-500q0 -131 -83.5 -190t-265.5 -59zM116 586v164h193v-164h-193zM343 586v164h193
v-164h-193z" />
    <glyph glyph-name="ygrave.alt" horiz-adv-x="649" 
d="M281 598l-93 130h157l67 -130h-131zM379 -180h-244v10l72 197l-201 513v10h261l76 -241l78 241h222v-10z" />
    <glyph glyph-name="ygrave.alt1" 
d="M269 598l-93 130h157l67 -130h-131zM272 -199q-131 0 -221 37v173l7 3q80 -43 187 -43q71 0 100 22.5t29 66.5v21q-59 -66 -151 -66q-88 0 -142.5 52.5t-54.5 159.5v323h247v-299q0 -31 12 -46t43 -15q28 0 46 13v347h247v-500q0 -131 -83.5 -190t-265.5 -59z" />
    <glyph glyph-name="space_uni0326.alt" horiz-adv-x="400" 
d="M297 796l-9 -210h-186l-7 12l71 198h131z" />
    <glyph glyph-name="ordfeminine.alt" horiz-adv-x="552" 
d="M277 378q25 0 41 12v155q-18 13 -39 13q-54 0 -54 -95q0 -40 13.5 -62.5t38.5 -22.5zM353 240l-19 59q-45 -70 -133 -70q-82 0 -131 59t-49 175t53 175.5t132 59.5q78 0 122 -57l9 46h179v-447h-163z" />
    <glyph glyph-name="asterisk.alt" horiz-adv-x="407" 
d="M263 330l-60 143l-60 -143l-114 82l117 101l-154 14l43 133l133 -80l-35 151h140l-35 -151l133 80l43 -133l-154 -14l117 -101z" />
    <glyph glyph-name="registered.alt" horiz-adv-x="774" 
d="M24 352q0 160 104 264t259 104t259 -104t104 -264q0 -159 -104 -263t-259 -104t-259 104t-104 263zM674 352q0 129 -81.5 214t-205.5 85q-123 0 -205 -85t-82 -214q0 -126 82 -212t205 -86t205 85.5t82 212.5zM388 448h-16v-74h16q41 0 41 37t-41 37zM434 161l-43 120
h-19v-120h-154v387h189q165 0 165 -129q0 -67 -43 -98l60 -154v-6h-155z" />
    <glyph glyph-name="caron.alt" horiz-adv-x="400" 
d="M130 581l6 162h144v-54l-27 -108h-123z" />
    <glyph glyph-name="dollar.uc" horiz-adv-x="576" 
d="M310 -125h-163l13 119q-80 11 -138 42v198l9 4q107 -63 200 -63q64 0 64 36q0 13 -14 20t-50 17l-46 11q-171 41 -171 210q0 208 217 243l10 95h163l-10 -93q83 -12 121 -29v-191l-8 -5q-76 43 -183 43q-60 0 -60 -27q0 -21 53 -35l44 -10q120 -27 159.5 -73.5
t39.5 -142.5q0 -223 -238 -252z" />
    <glyph glyph-name="Euro.uc" horiz-adv-x="633" 
d="M610 215v-177q-72 -50 -186 -50q-143 0 -231.5 67t-115.5 194h-62v94h50v34h-50v92h61q19 84 71 142t118.5 83.5t143.5 25.5q121 0 185 -41v-174l-13 -5q-41 20 -67.5 28t-66.5 8q-87 0 -118 -67h157v-92h-178v-34h178v-94h-158q35 -74 124 -74q32 0 57.5 6.5t40.5 14
t50 26.5z" />
    <glyph glyph-name="sterling.uc" horiz-adv-x="657" 
d="M622 176v-176h-602v107q43 37 59.5 68t24.5 89l2 15h-55v122h71l11 84q34 235 275 235q120 0 207 -39v-166l-12 -7q-53 29 -103 29q-96 0 -109 -83l-9 -53h163v-122h-184q-12 -68 -53 -103h314z" />
    <glyph glyph-name="yen.uc" horiz-adv-x="695" 
d="M647 151h-154v-151h-290v151h-154v94h154v34h-154v92h133l-182 323v11h293l76 -172l74 172h252v-11l-185 -323h137v-92h-154v-34h154v-94z" />
    <glyph glyph-name="zero.uc" horiz-adv-x="733" 
d="M366 -12q-158 0 -254.5 96.5t-96.5 272.5q0 174 96 268.5t255 94.5q157 0 254 -94.5t97 -268.5q0 -176 -96.5 -272.5t-254.5 -96.5zM366 170q44 0 60.5 46t16.5 141q0 93 -16.5 137t-60.5 44t-60 -43.5t-16 -137.5q0 -96 16 -141.5t60 -45.5z" />
    <glyph glyph-name="one.uc" horiz-adv-x="456" 
d="M407 0h-265v415l-118 -65l-7 4v212l252 139h138v-705z" />
    <glyph glyph-name="two.uc" horiz-adv-x="567" 
d="M18 0v113l186 207q42 47 59.5 75t17.5 56q0 35 -23.5 55.5t-72.5 20.5q-75 0 -148 -48l-11 6v182q73 53 230 53q290 0 290 -232q0 -67 -32 -119t-103 -127l-63 -66h204v-176h-534z" />
    <glyph glyph-name="three.uc" horiz-adv-x="592" 
d="M274 -12q-163 0 -255 55v172l11 8q87 -48 194 -48q89 0 89 54q0 25 -17 37t-58 12h-94v159h78q76 0 76 51q0 48 -92 48q-84 0 -158 -38l-13 11v163q87 48 243 48q123 0 202 -49.5t79 -139.5q0 -63 -32 -100.5t-102 -54.5q152 -33 152 -174q0 -102 -75.5 -158t-227.5 -56z
" />
    <glyph glyph-name="four.uc" horiz-adv-x="664" 
d="M319 261v124l-97 -124h97zM652 102h-91v-102h-242v102h-309v113l378 490h173v-444h91v-159z" />
    <glyph glyph-name="five.uc" horiz-adv-x="584" 
d="M266 -12q-171 0 -246 48v168l12 7q81 -43 166 -43q105 0 105 61q0 31 -27 42.5t-90 11.5q-64 0 -125 -25l-11 8v439h486v-176h-271v-77q8 1 24 1q280 0 280 -224q0 -113 -77.5 -177t-225.5 -64z" />
    <glyph glyph-name="six.uc" horiz-adv-x="660" 
d="M649 236q0 -118 -77.5 -183t-221.5 -65q-151 0 -242 85t-91 243q0 202 101.5 303t277.5 101q134 0 204 -33v-183l-14 -5q-71 38 -152 38q-72 0 -105.5 -28.5t-43.5 -97.5q49 44 144 44q97 0 158.5 -52t61.5 -167zM328 314q-26 0 -48 -10q2 -85 16.5 -115t43.5 -30
q53 2 53 84q0 40 -16.5 55.5t-48.5 15.5z" />
    <glyph glyph-name="seven.uc" horiz-adv-x="584" 
d="M352 0h-272q42 227 174 447l39 67h-275v191h549v-117l-81 -163q-91 -187 -134 -425z" />
    <glyph glyph-name="eight.uc" horiz-adv-x="655" 
d="M328 -12q-157 0 -235.5 51.5t-78.5 143.5q0 53 35 93t99 57q-60 32 -87.5 73.5t-27.5 98.5q0 101 83 158t208 57q63 0 114 -9.5t93 -30.5t65.5 -58.5t23.5 -89.5q0 -101 -119 -135q73 -34 106 -77t33 -113q0 -100 -81 -159.5t-231 -59.5zM284 519q0 -46 79 -74
q31 33 31 63q0 31 -16.5 45.5t-40.5 14.5t-38.5 -13t-14.5 -36zM320 142q62 0 62 57q0 25 -21 41.5t-67 35.5q-42 -33 -42 -70q0 -64 68 -64z" />
    <glyph glyph-name="nine.uc" horiz-adv-x="658" 
d="M330 396q25 0 47 10q-2 83 -16 113t-41 30q-53 0 -53 -81q0 -40 16 -56t47 -16zM254 -12q-136 0 -211 34v182l13 5q73 -38 159 -38q80 0 115 29t43 99q-53 -44 -142 -44q-97 0 -158.5 51.5t-61.5 165.5q0 118 80 183t223 65q149 0 238 -81.5t89 -246.5q0 -404 -387 -404z
" />
    <glyph glyph-name="percent.uc" horiz-adv-x="853" 
d="M10 540q0 77 54.5 128.5t148.5 51.5q95 0 149.5 -51.5t54.5 -128.5q0 -79 -54.5 -130t-149.5 -51q-94 0 -148.5 51.5t-54.5 129.5zM119 0l505 705h109l-505 -705h-109zM213 470q23 0 32 17t9 53t-9 52.5t-32 16.5q-41 0 -41 -69q0 -70 41 -70zM639 346q95 0 149.5 -51.5
t54.5 -128.5q0 -79 -54.5 -130t-149.5 -51t-149 51.5t-54 129.5q0 77 54.5 128.5t148.5 51.5zM639 96q40 0 40 70q0 69 -40 69q-41 0 -41 -69q0 -70 41 -70z" />
    <glyph glyph-name="perthousand.uc" horiz-adv-x="1281" 
d="M213 359q-94 0 -148.5 51.5t-54.5 129.5q0 77 54.5 128.5t148.5 51.5q95 0 149.5 -51.5t54.5 -128.5q0 -79 -54.5 -130t-149.5 -51zM119 0l505 705h109l-505 -705h-109zM213 470q23 0 32 17t9 53t-9 52.5t-32 16.5q-41 0 -41 -69q0 -70 41 -70zM1067 -15q-95 0 -149 51.5
t-54 129.5q0 77 54.5 128.5t148.5 51.5q95 0 149.5 -51.5t54.5 -128.5q0 -79 -54.5 -130t-149.5 -51zM639 -15q-95 0 -149 51.5t-54 129.5q0 77 54.5 128.5t148.5 51.5q95 0 149.5 -51.5t54.5 -128.5q0 -79 -54.5 -130t-149.5 -51zM1067 96q23 0 32 17t9 53t-9 52.5
t-32 16.5q-41 0 -41 -69q0 -70 41 -70zM639 96q40 0 40 70q0 69 -40 69q-41 0 -41 -69q0 -70 41 -70z" />
    <glyph glyph-name="questiondown.uc" horiz-adv-x="503" 
d="M425 705v-212h-257v212h257zM485 224v-193q-82 -46 -212 -46q-123 0 -190 50t-67 148q0 63 27 107.5t93 88.5q27 18 36 29t9 31v6h225v-17q0 -60 -18.5 -91.5t-63.5 -65.5q-22 -17 -29 -23t-13 -14.5t-6 -17.5q0 -30 52 -30q79 0 147 44z" />
    <glyph glyph-name="exclamdown.uc" horiz-adv-x="351" 
d="M304 705v-212h-257v212h257zM272 445l45 -445h-283l45 445h193z" />
    <glyph glyph-name="hyphen.uc" horiz-adv-x="366" 
d="M26 242v184h314v-184h-314z" />
    <glyph glyph-name="endash.uc" horiz-adv-x="556" 
d="M26 267v149h504v-149h-504z" />
    <glyph glyph-name="emdash.uc" horiz-adv-x="1017" 
d="M26 267v149h965v-149h-965z" />
    <glyph glyph-name="guilsinglleft.uc" horiz-adv-x="268" 
d="M115 86l-103 204l113 204h130l-110 -204l100 -204h-130z" />
    <glyph glyph-name="guilsinglright.uc" horiz-adv-x="268" 
d="M23 86l100 204l-110 204h130l113 -204l-103 -204h-130z" />
    <glyph glyph-name="guillemotleft.uc" horiz-adv-x="458" 
d="M298 86l-103 204l113 204h137l-110 -204l100 -204h-137zM115 86l-103 204l113 204h137l-110 -204l100 -204h-137z" />
    <glyph glyph-name="guillemotright.uc" horiz-adv-x="458" 
d="M206 86l100 204l-110 204h137l113 -204l-103 -204h-137zM23 86l100 204l-110 204h137l113 -204l-103 -204h-137z" />
    <glyph glyph-name="parenleft.uc" horiz-adv-x="384" 
d="M370 -100h-187q-80 97 -120.5 198t-40.5 240q0 141 40 239t121 197h187q-61 -104 -94.5 -204.5t-33.5 -231.5q0 -132 33.5 -233t94.5 -205z" />
    <glyph glyph-name="parenright.uc" horiz-adv-x="384" 
d="M201 -100h-187q61 104 94.5 205t33.5 233q0 131 -33.5 231.5t-94.5 204.5h187q81 -99 121 -197t40 -239q0 -139 -40.5 -240t-120.5 -198z" />
    <glyph glyph-name="bracketleft.uc" horiz-adv-x="437" 
d="M55 -100v874h342v-157h-130v-560h130v-157h-342z" />
    <glyph glyph-name="bracketright.uc" horiz-adv-x="437" 
d="M40 -100v157h130v560h-130v157h342v-874h-342z" />
    <glyph glyph-name="braceleft.uc" horiz-adv-x="420" 
d="M380 58v-158q-86 0 -145 12t-90.5 31t-44 50.5t-11 63t12.5 76.5l13 52q10 43 -8 61t-82 20v143q62 2 81 20.5t9 61.5l-12 49q-11 46 -12.5 77.5t11 63t43.5 50.5t89.5 31t145.5 12v-158q-56 0 -71 -16t-4 -62l14 -62q15 -63 -1 -91.5t-80 -46.5q64 -17 79.5 -46t1.5 -93
l-14 -63q-10 -47 4.5 -62.5t70.5 -15.5z" />
    <glyph glyph-name="braceright.uc" horiz-adv-x="420" 
d="M40 -100v158q56 0 70.5 15.5t4.5 62.5l-14 63q-14 64 1.5 93t79.5 46q-64 18 -80 46.5t-1 91.5l14 62q10 47 -4.5 62.5t-70.5 15.5v158q87 0 145.5 -12t89.5 -31t43.5 -50.5t11 -63t-12.5 -77.5l-12 -49q-10 -41 9 -60.5t81 -21.5v-143q-64 -2 -83 -20.5t-7 -60.5l13 -52
q11 -45 12.5 -76.5t-11 -63t-44 -50.5t-90.5 -31t-145 -12z" />
    <glyph glyph-name="slash.uc" horiz-adv-x="443" 
d="M-19 -100l297 874h176l-297 -874h-176z" />
    <glyph glyph-name="backslash.uc" horiz-adv-x="443" 
d="M-11 774h176l297 -874h-176z" />
    <glyph glyph-name="bar.uc" horiz-adv-x="239" 
d="M41 -100v874h157v-874h-157z" />
    <glyph glyph-name="at.uc" horiz-adv-x="884" 
d="M451 -129q-193 0 -311.5 113t-118.5 286q0 194 127 321.5t315 127.5q178 0 289.5 -108.5t111.5 -275.5q0 -122 -68 -190t-169 -68q-97 0 -138 57q-39 -57 -109 -57q-82 0 -131.5 56t-49.5 139q0 114 59.5 183.5t146.5 69.5q66 0 99 -49l4 32h167l-34 -270q-5 -41 3 -57
t32 -16q37 0 72 41t35 129q0 147 -87 230t-235 83q-150 0 -254.5 -104t-104.5 -279q0 -144 95.5 -233.5t256.5 -89.5q112 0 194 45l7 -5v-67q-79 -44 -204 -44zM428 231q29 0 47 24l13 96q-21 21 -49 21q-29 0 -46.5 -24.5t-17.5 -61.5q0 -25 13 -40t40 -15z" />
    <glyph glyph-name="grave.uc" horiz-adv-x="400" 
d="M137 736l-120 163h221l72 -163h-173z" />
    <glyph glyph-name="dieresis.uc" horiz-adv-x="400" 
d="M219 736v164h206v-164h-206zM-26 736v164h206v-164h-206z" />
    <glyph glyph-name="macron.uc" horiz-adv-x="400" 
d="M11 746v142h378v-142h-378z" />
    <glyph glyph-name="acute.uc" horiz-adv-x="400" 
d="M285 736h-173l72 163h221z" />
    <glyph glyph-name="circumflex.uc" horiz-adv-x="400" 
d="M200 783l-45 -47h-172l132 163h170l132 -163h-172z" />
    <glyph glyph-name="caron.uc" horiz-adv-x="400" 
d="M200 852l45 47h172l-132 -163h-170l-132 163h172z" />
    <glyph glyph-name="breve.uc" horiz-adv-x="400" 
d="M200 729q-85 0 -137 43.5t-62 126.5h150q11 -38 49 -38q36 0 49 38h150q-10 -83 -62 -126.5t-137 -43.5z" />
    <glyph glyph-name="dotaccent.uc" horiz-adv-x="400" 
d="M89 736v170h222v-170h-222z" />
    <glyph glyph-name="ring.uc" horiz-adv-x="400" 
d="M200 732q-56 0 -90 33t-34 87t34 87t90 33t90 -33t34 -87t-34 -87t-90 -33zM200 890q-17 0 -27 -10.5t-10 -27.5q0 -37 37 -37q16 0 26.5 10t10.5 27t-10.5 27.5t-26.5 10.5z" />
    <glyph glyph-name="tilde.uc" horiz-adv-x="400" 
d="M295 888q38 0 68 33l11 -4l36 -119q-55 -65 -129 -65q-48 0 -96 14t-73 14q-40 0 -75 -32l-11 4l-36 119q49 64 130 64q48 0 99 -14t76 -14z" />
    <glyph glyph-name="hungarumlaut.uc" horiz-adv-x="400" 
d="M131 736h-153l32 158h209zM361 736h-153l42 158h209z" />
    <glyph glyph-name="A.flat" horiz-adv-x="778" 
d="M407 261l-45 157l-46 -157h91zM481 0l-25 87h-191l-25 -87h-234v10l236 695h294l236 -695v-10h-291z" />
    <glyph glyph-name="Aacute.flat" horiz-adv-x="778" 
d="M529 866l-93 -130h-131l67 130h157zM362 418l45 -157h-91zM456 87l25 -87h291v10l-236 695h-294l-236 -695v-10h234l25 87h191z" />
    <glyph glyph-name="Abreve.flat" horiz-adv-x="778" 
d="M407 261l-45 157l-46 -157h91zM481 0l-25 87h-191l-25 -87h-234v10l236 695h294l236 -695v-10h-291zM390 736q-81 0 -117 30.5t-39 92.5h119q3 -35 36 -35q34 0 37 35h119q-3 -62 -39 -92.5t-116 -30.5z" />
    <glyph glyph-name="Acircumflex.flat" horiz-adv-x="778" 
d="M389 778l-36 -42h-135l101 130h142l101 -130h-135zM407 261l-45 157l-46 -157h91zM481 0l-25 87h-191l-25 -87h-234v10l236 695h294l236 -695v-10h-291z" />
    <glyph glyph-name="Adieresis.flat" horiz-adv-x="778" 
d="M407 261l-45 157l-46 -157h91zM481 0l-25 87h-191l-25 -87h-234v10l236 695h294l236 -695v-10h-291zM409 736v164h206v-164h-206zM164 736v164h206v-164h-206z" />
    <glyph glyph-name="Agrave.flat" horiz-adv-x="778" 
d="M342 736l-93 130h157l67 -130h-131zM407 261l-45 157l-46 -157h91zM481 0l-25 87h-191l-25 -87h-234v10l236 695h294l236 -695v-10h-291z" />
    <glyph glyph-name="Amacron.flat" horiz-adv-x="778" 
d="M407 261l-45 157l-46 -157h91zM481 0l-25 87h-191l-25 -87h-234v10l236 695h294l236 -695v-10h-291zM200 746v142h378v-142h-378z" />
    <glyph glyph-name="Aogonek.flat" horiz-adv-x="778" 
d="M664 -194q-66 0 -102 22.5t-36 62.5q0 68 99 109h-144l-25 87h-191l-25 -87h-234v10l236 695h294l236 -695v-10q-67 -22 -67 -52q0 -23 31 -23q15 0 24 4l9 -4v-101q-44 -18 -105 -18zM407 261l-45 157l-46 -157h91z" />
    <glyph glyph-name="Aring.flat" horiz-adv-x="778" 
d="M407 261l-45 157l-46 -157h91zM481 0l-25 87h-191l-25 -87h-234v10l236 695h294l236 -695v-10h-291zM389 732q-56 0 -90 33t-34 87t34 87t90 33t90 -33t34 -87t-34 -87t-90 -33zM389 890q-17 0 -27 -10.5t-10 -27.5q0 -37 37 -37q16 0 26.5 10t10.5 27t-10.5 27.5
t-26.5 10.5z" />
    <glyph glyph-name="Aringacute.flat" horiz-adv-x="778" 
d="M407 261l-45 157l-46 -157h91zM481 0l-25 87h-191l-25 -87h-234v10l236 695h294l236 -695v-10h-291zM389 722q-56 0 -90 33t-34 87t34 87t90 33t90 -33t34 -87t-34 -87t-90 -33zM389 880q-17 0 -27 -10.5t-10 -27.5q0 -37 37 -37q16 0 26.5 10t10.5 27t-10.5 27.5
t-26.5 10.5zM466 976h-173l72 163h221z" />
    <glyph glyph-name="Atilde.flat" horiz-adv-x="778" 
d="M451 851q27 0 51 26l8 -3l27 -83q-39 -45 -96 -45q-34 0 -68 11t-48 11q-29 0 -56 -25l-9 3l-26 83q37 44 97 44q33 0 69 -11t51 -11zM407 261l-45 157l-46 -157h91zM481 0l-25 87h-191l-25 -87h-234v10l236 695h294l236 -695v-10h-291z" />
    <glyph glyph-name="Eng.flat" horiz-adv-x="771" 
d="M374 -219v189q46 4 64 16.5t23 47.5l-189 311v-345h-233v705h299l161 -265v265h233v-640q0 -55 -9.5 -96.5t-33.5 -77t-64.5 -58.5t-103 -37t-147.5 -15z" />
    <glyph glyph-name="M.flat" horiz-adv-x="910" 
d="M360 0l-103 292v-292h-218v705h302l109 -298l109 298h312v-705h-253v289l-103 -289h-155z" />
    <glyph glyph-name="M.flatalt" horiz-adv-x="953" 
d="M391 0l-114 332l-28 -332h-229l65 705h294l98 -291l103 291h286l67 -705h-275l-26 329l-116 -329h-125z" />
    <glyph glyph-name="N.flat" horiz-adv-x="771" 
d="M482 0l-210 345v-345h-233v705h299l161 -265v265h233v-705h-250z" />
    <glyph glyph-name="Nacute.flat" horiz-adv-x="771" 
d="M482 0l-210 345v-345h-233v705h299l161 -265v265h233v-705h-250zM481 736h-173l72 163h221z" />
    <glyph glyph-name="Ncaron.flat" horiz-adv-x="771" 
d="M482 0l-210 345v-345h-233v705h299l161 -265v265h233v-705h-250zM412 852l45 47h172l-132 -163h-170l-132 163h172z" />
    <glyph glyph-name="Ncommaaccent.flat" horiz-adv-x="771" 
d="M482 0l-210 345v-345h-233v705h299l161 -265v265h233v-705h-250zM274 -246l9 210h186l7 -12l-71 -198h-131z" />
    <glyph glyph-name="Ntilde.flat" horiz-adv-x="771" 
d="M482 0l-210 345v-345h-233v705h299l161 -265v265h233v-705h-250zM507 888q38 0 68 33l11 -4l36 -119q-55 -65 -129 -65q-48 0 -96 14t-73 14q-40 0 -75 -32l-11 4l-36 119q49 64 130 64q48 0 99 -14t76 -14z" />
    <glyph glyph-name="V.flat" horiz-adv-x="777" 
d="M540 0h-304l-229 695v10h296l105 -386l107 386h255v-10z" />
    <glyph glyph-name="W.flat" horiz-adv-x="1074" 
d="M610 0l-77 259l-77 -259h-267l-182 695v10h289l83 -377l53 182l-37 185v10h260l86 -376l78 376h244l4 -10l-179 -695h-278z" />
    <glyph glyph-name="W.flatalt" horiz-adv-x="1049" 
d="M606 0l-86 327l-87 -327h-256l-167 694v11h273l67 -338l76 338h208l85 -341l67 341h253v-10l-168 -695h-265z" />
    <glyph glyph-name="Wacute.flat" horiz-adv-x="1074" 
d="M610 0l-77 259l-77 -259h-267l-182 695v10h289l83 -377l53 182l-37 185v10h260l86 -376l78 376h244l4 -10l-179 -695h-278zM595 736h-173l72 163h221z" />
    <glyph glyph-name="Wacute.flatalt" horiz-adv-x="1049" 
d="M606 0l-86 327l-87 -327h-256l-167 694v11h273l67 -338l76 338h208l85 -341l67 341h253v-10l-168 -695h-265zM606 736h-173l72 163h221z" />
    <glyph glyph-name="Wcircumflex.flat" horiz-adv-x="1074" 
d="M610 0l-77 259l-77 -259h-267l-182 695v10h289l83 -377l53 182l-37 185v10h260l86 -376l78 376h244l4 -10l-179 -695h-278zM526 783l-45 -47h-172l132 163h170l132 -163h-172z" />
    <glyph glyph-name="Wcircumflex.flatalt" horiz-adv-x="1049" 
d="M606 0l-86 327l-87 -327h-256l-167 694v11h273l67 -338l76 338h208l85 -341l67 341h253v-10l-168 -695h-265zM526 783l-45 -47h-172l132 163h170l132 -163h-172z" />
    <glyph glyph-name="Wdieresis.flat" horiz-adv-x="1074" 
d="M610 0l-77 259l-77 -259h-267l-182 695v10h289l83 -377l53 182l-37 185v10h260l86 -376l78 376h244l4 -10l-179 -695h-278zM546 736v164h206v-164h-206zM301 736v164h206v-164h-206z" />
    <glyph glyph-name="Wdieresis.flatalt" horiz-adv-x="1049" 
d="M606 0l-86 327l-87 -327h-256l-167 694v11h273l67 -338l76 338h208l85 -341l67 341h253v-10l-168 -695h-265zM546 736v164h206v-164h-206zM301 736v164h206v-164h-206z" />
    <glyph glyph-name="Wgrave.flat" horiz-adv-x="1074" 
d="M610 0l-77 259l-77 -259h-267l-182 695v10h289l83 -377l53 182l-37 185v10h260l86 -376l78 376h244l4 -10l-179 -695h-278zM459 736l-120 163h221l72 -163h-173z" />
    <glyph glyph-name="Wgrave.flatalt" horiz-adv-x="1049" 
d="M606 0l-86 327l-87 -327h-256l-167 694v11h273l67 -338l76 338h208l85 -341l67 341h253v-10l-168 -695h-265zM453 736l-120 163h221l72 -163h-173z" />
    <glyph glyph-name="Z.flat" horiz-adv-x="638" 
d="M617 0h-603v173l271 337h-257v195h582v-186l-262 -323h269v-196z" />
    <glyph glyph-name="Zacute.flat" horiz-adv-x="638" 
d="M617 0h-603v173l271 337h-257v195h582v-186l-262 -323h269v-196zM392 736h-173l72 163h221z" />
    <glyph glyph-name="Zcaron.flat" horiz-adv-x="638" 
d="M617 0h-603v173l271 337h-257v195h582v-186l-262 -323h269v-196zM323 852l45 47h172l-132 -163h-170l-132 163h172z" />
    <glyph glyph-name="Zdotaccent.flat" horiz-adv-x="638" 
d="M617 0h-603v173l271 337h-257v195h582v-186l-262 -323h269v-196zM212 736v170h222v-170h-222z" />
    <glyph glyph-name="four.denflat" horiz-adv-x="406" 
d="M179 168v74l-50 -74h50zM391 64h-53v-64h-159v64h-166v84l165 244h160v-224h53v-104z" />
    <glyph glyph-name="four.flat" horiz-adv-x="644" 
d="M289 275v125l-86 -125h86zM630 122h-88v-122h-253v122h-277v123l300 445h230v-415h88v-153z" />
    <glyph glyph-name="four.numflat" horiz-adv-x="406" 
d="M179 466v74l-50 -74h50zM391 362h-53v-64h-159v64h-166v84l165 244h160v-224h53v-104z" />
    <glyph glyph-name="four.subflat" horiz-adv-x="406" 
d="M179 61v74l-50 -74h50zM391 -43h-53v-64h-159v64h-166v84l165 244h160v-224h53v-104z" />
    <glyph glyph-name="four.supflat" horiz-adv-x="406" 
d="M179 524v74l-50 -74h50zM391 420h-53v-64h-159v64h-166v84l165 244h160v-224h53v-104z" />
    <glyph glyph-name="four.ucflat" horiz-adv-x="666" 
d="M304 278v137l-97 -137h97zM653 126h-91v-126h-258v126h-293v122l316 457h235v-427h91v-152z" />
    <glyph glyph-name="one.denflat" horiz-adv-x="305" 
d="M260 0h-166v232l-77 -45l-4 2v136l117 67h130v-392z" />
    <glyph glyph-name="one.flat" horiz-adv-x="433" 
d="M389 0h-260v437l-105 -68l-7 4v212l168 105h204v-690z" />
    <glyph glyph-name="one.numflat" horiz-adv-x="305" 
d="M260 298h-166v232l-77 -45l-4 2v136l117 67h130v-392z" />
    <glyph glyph-name="one.subflat" horiz-adv-x="305" 
d="M260 -107h-166v232l-77 -45l-4 2v136l117 67h130v-392z" />
    <glyph glyph-name="one.supflat" horiz-adv-x="305" 
d="M260 356h-166v232l-77 -45l-4 2v136l117 67h130v-392z" />
    <glyph glyph-name="one.ucflat" horiz-adv-x="458" 
d="M409 0h-265v453l-118 -73l-7 4v212l182 109h208v-705z" />
    <glyph glyph-name="oneeighth.flat" horiz-adv-x="851" 
d="M260 298h-166v232l-77 -45l-4 2v136l117 67h130v-392zM80 0l554 690h114l-554 -690h-114zM656 -7q-89 0 -136 30.5t-47 82.5q0 68 69 86q-57 35 -57 93t46 86t121 28q73 0 122 -27.5t49 -80.5q0 -34 -15.5 -51.5t-48.5 -27.5q40 -22 58 -44.5t18 -59.5q0 -115 -179 -115z
M627 288q0 -10 10.5 -17t41.5 -20q9 11 9 28q0 29 -31 29q-30 0 -30 -20zM650 86q35 0 35 25q0 17 -49 37q-6 3 -9 4q-16 -16 -16 -36q0 -30 39 -30z" />
    <glyph glyph-name="onehalf.flat" horiz-adv-x="856" 
d="M260 298h-166v232l-77 -45l-4 2v136l117 67h130v-392zM509 0v100l107 85q47 38 47 60q0 17 -12 23.5t-42 6.5q-46 0 -89 -29l-7 4v116q47 33 141 33q168 0 168 -133q0 -72 -66 -127l-31 -26h106v-113h-322zM80 0l554 690h114l-554 -690h-114z" />
    <glyph glyph-name="onequarter.flat" horiz-adv-x="829" 
d="M260 298h-166v232l-77 -45l-4 2v136l117 67h130v-392zM595 168v74l-50 -74h50zM807 64h-53v-64h-159v64h-166v84l165 244h160v-224h53v-104zM73 0l554 690h114l-554 -690h-114z" />
    <glyph glyph-name="onethird.flat" horiz-adv-x="845" 
d="M260 298h-166v232l-77 -45l-4 2v136l117 67h130v-392zM70 0l554 690h114l-554 -690h-114zM643 -7q-90 0 -146 33v111l6 4q47 -29 112 -29q47 0 47 22q0 19 -41 19h-54v89h48q38 0 38 18q0 22 -47 22q-55 0 -96 -22l-7 3v109q45 27 140 27q71 0 117.5 -27.5t46.5 -79.5
q0 -36 -18 -55.5t-59 -29.5q48 -9 69 -30.5t21 -60.5q0 -123 -177 -123z" />
    <glyph glyph-name="seven.denflat" horiz-adv-x="377" 
d="M228 0h-171q19 68 42 116t69 123l18 28h-165v125h331v-107l-32 -60q-56 -105 -92 -225z" />
    <glyph glyph-name="seven.flat" horiz-adv-x="554" 
d="M336 0h-267q39 204 172 434l36 61h-259v191h517v-163l-58 -111q-106 -206 -141 -412z" />
    <glyph glyph-name="seven.numflat" horiz-adv-x="377" 
d="M228 298h-171q19 68 42 116t69 123l18 28h-165v125h331v-107l-32 -60q-56 -105 -92 -225z" />
    <glyph glyph-name="seven.subflat" horiz-adv-x="377" 
d="M228 -107h-171q19 68 42 116t69 123l18 28h-165v125h331v-107l-32 -60q-56 -105 -92 -225z" />
    <glyph glyph-name="seven.supflat" horiz-adv-x="377" 
d="M228 356h-171q19 68 42 116t69 123l18 28h-165v125h331v-107l-32 -60q-56 -105 -92 -225z" />
    <glyph glyph-name="seven.ucflat" horiz-adv-x="587" 
d="M351 0h-272q40 203 183 445l41 69h-283v191h546v-163l-63 -119q-115 -218 -152 -423z" />
    <glyph glyph-name="seveneighths.flat" horiz-adv-x="837" 
d="M228 298h-171q19 68 42 116t69 123l18 28h-165v125h331v-107l-32 -60q-56 -105 -92 -225zM53 0l554 690h114l-554 -690h-114zM642 -7q-89 0 -136 30.5t-47 82.5q0 68 69 86q-57 35 -57 93t46 86t121 28q73 0 122 -27.5t49 -80.5q0 -34 -15.5 -51.5t-48.5 -27.5
q40 -22 58 -44.5t18 -59.5q0 -115 -179 -115zM613 288q0 -10 10.5 -17t41.5 -20q9 11 9 28q0 29 -31 29q-30 0 -30 -20zM636 86q35 0 35 25q0 17 -49 37q-6 3 -9 4q-16 -16 -16 -36q0 -30 39 -30z" />
    <glyph glyph-name="sterling.flat" horiz-adv-x="622" 
d="M587 176v-176h-567v144q40 27 55 54.5t22 69.5h-48v122h63l10 79q13 105 77 166.5t186 61.5q116 0 195 -38v-166l-11 -7q-54 28 -97 28q-42 0 -65 -17t-31 -63l-7 -44h145v-122h-166q-13 -59 -60 -92h299z" />
    <glyph glyph-name="sterling.ucflat" horiz-adv-x="658" 
d="M622 176v-176h-602v143q43 29 61.5 61t24.5 75h-55v122h71l11 84q13 108 79 171.5t196 63.5q120 0 207 -39v-166l-12 -7q-53 29 -103 29q-96 0 -109 -83l-9 -53h163v-122h-184q-11 -65 -59 -103h320z" />
    <glyph glyph-name="threequarters.flat" horiz-adv-x="852" 
d="M618 168v74l-50 -74h50zM830 64h-53v-64h-159v64h-166v84l165 244h160v-224h53v-104zM96 0l554 690h114l-554 -690h-114zM167 291q-90 0 -146 33v111l6 4q47 -29 112 -29q47 0 47 22q0 19 -41 19h-54v89h48q38 0 38 18q0 22 -47 22q-55 0 -96 -22l-7 3v109q45 27 140 27
q71 0 117.5 -27.5t46.5 -79.5q0 -36 -18 -55.5t-59 -29.5q48 -9 69 -30.5t21 -60.5q0 -123 -177 -123z" />
    <glyph glyph-name="trademark.flat" horiz-adv-x="800" 
d="M303 569h-76v-226h-146v226h-76v119h298v-119zM502 343l-50 144v-144h-118v345h168l44 -115l44 115h174v-345h-135v144l-50 -144h-77z" />
    <glyph glyph-name="two.denflat" horiz-adv-x="376" 
d="M21 0v100l107 85q47 38 47 60q0 17 -12 23.5t-42 6.5q-46 0 -89 -29l-7 4v116q47 33 141 33q168 0 168 -133q0 -72 -66 -127l-31 -26h106v-113h-322z" />
    <glyph glyph-name="two.flat" horiz-adv-x="536" 
d="M18 0v149l166 164q74 72 74 123q0 68 -84 68q-69 0 -139 -46l-10 6v182q75 51 216 51q136 0 206.5 -57t70.5 -168q0 -67 -33 -123t-99 -119l-57 -54h193v-176h-504z" />
    <glyph glyph-name="two.numflat" horiz-adv-x="376" 
d="M21 298v100l107 85q47 38 47 60q0 17 -12 23.5t-42 6.5q-46 0 -89 -29l-7 4v116q47 33 141 33q168 0 168 -133q0 -72 -66 -127l-31 -26h106v-113h-322z" />
    <glyph glyph-name="two.subflat" horiz-adv-x="376" 
d="M21 -107v100l107 85q47 38 47 60q0 17 -12 23.5t-42 6.5q-46 0 -89 -29l-7 4v116q47 33 141 33q168 0 168 -133q0 -72 -66 -127l-31 -26h106v-113h-322z" />
    <glyph glyph-name="two.supflat" horiz-adv-x="376" 
d="M21 356v100l107 85q47 38 47 60q0 17 -12 23.5t-42 6.5q-46 0 -89 -29l-7 4v116q47 33 141 33q168 0 168 -133q0 -72 -66 -127l-31 -26h106v-113h-322z" />
    <glyph glyph-name="two.ucflat" horiz-adv-x="565" 
d="M20 0v149l179 169q84 81 84 133q0 35 -23.5 55.5t-72.5 20.5q-75 0 -148 -48l-11 6v182q73 53 230 53q290 0 290 -232q0 -68 -34.5 -123.5t-106.5 -124.5l-68 -64h210v-176h-529z" />
    <glyph glyph-name="twothirds.flat" horiz-adv-x="899" 
d="M21 298v100l107 85q47 38 47 60q0 17 -12 23.5t-42 6.5q-46 0 -89 -29l-7 4v116q47 33 141 33q168 0 168 -133q0 -72 -66 -127l-31 -26h106v-113h-322zM124 0l554 690h114l-554 -690h-114zM697 -7q-90 0 -146 33v111l6 4q47 -29 112 -29q47 0 47 22q0 19 -41 19h-54v89
h48q38 0 38 18q0 22 -47 22q-55 0 -96 -22l-7 3v109q45 27 140 27q71 0 117.5 -27.5t46.5 -79.5q0 -36 -18 -55.5t-59 -29.5q48 -9 69 -30.5t21 -60.5q0 -123 -177 -123z" />
    <glyph glyph-name="v.flat" horiz-adv-x="661" 
d="M454 0h-244l-204 541v9h261l81 -273l77 273h230v-9z" />
    <glyph glyph-name="w.flat" horiz-adv-x="858" 
d="M500 0l-71 265l-69 -265h-199l-153 540v10h245l43 -229l59 229h164l62 -228l41 228h228v-11l-149 -539h-201z" />
    <glyph glyph-name="wacute.flat" horiz-adv-x="858" 
d="M500 0l-71 265l-69 -265h-199l-153 540v10h245l43 -229l59 229h164l62 -228l41 228h228v-11l-149 -539h-201zM504 586h-168l60 175h225z" />
    <glyph glyph-name="wcircumflex.flat" horiz-adv-x="858" 
d="M500 0l-71 265l-69 -265h-199l-153 540v10h245l43 -229l59 229h164l62 -228l41 228h228v-11l-149 -539h-201zM429 633l-42 -47h-172l139 175h150l139 -175h-172z" />
    <glyph glyph-name="wdieresis.flat" horiz-adv-x="858" 
d="M500 0l-71 265l-69 -265h-199l-153 540v10h245l43 -229l59 229h164l62 -228l41 228h228v-11l-149 -539h-201zM219 586v164h193v-164h-193zM446 586v164h193v-164h-193z" />
    <glyph glyph-name="wgrave.flat" horiz-adv-x="858" 
d="M500 0l-71 265l-69 -265h-199l-153 540v10h245l43 -229l59 229h164l62 -228l41 228h228v-11l-149 -539h-201zM358 586l-117 175h225l60 -175h-168z" />
    <glyph glyph-name="z.flat" horiz-adv-x="534" 
d="M514 0h-496v125l205 257h-189v168h479v-136l-197 -246h198v-168z" />
    <glyph glyph-name="zacute.flat" horiz-adv-x="534" 
d="M514 0h-496v125l205 257h-189v168h479v-136l-197 -246h198v-168zM352 586h-168l60 175h225z" />
    <glyph glyph-name="zcaron.flat" horiz-adv-x="534" 
d="M514 0h-496v125l205 257h-189v168h479v-136l-197 -246h198v-168zM277 714l42 47h172l-139 -175h-150l-139 175h172z" />
    <glyph glyph-name="zdotaccent.flat" horiz-adv-x="534" 
d="M514 0h-496v125l205 257h-189v168h479v-136l-197 -246h198v-168zM166 588v170h222v-170h-222z" />
    <glyph glyph-name="uni00AD" horiz-adv-x="366" 
d="M26 223v184h314v-184h-314z" />
    <glyph glyph-name="uni1EA0.flat" horiz-adv-x="778" 
d="M407 261l-45 157l-46 -157h91zM481 0l-25 87h-191l-25 -87h-234v10l236 695h294l236 -695v-10h-291zM272 -178v130h194v-130h-194z" />
    <glyph glyph-name="uni1EA2.flat" horiz-adv-x="778" 
d="M407 261l-45 157l-46 -157h91zM481 0l-25 87h-191l-25 -87h-234v10l236 695h294l236 -695v-10h-291zM293 828l-8 61q41 16 112 17q131 -2 137 -66q3 -43 -42 -65q-44 -21 -44 -39h-111q0 32 29 52q30 21 30 35q1 12 -8 16.5t-28 4.5q-28 0 -67 -16z" />
    <glyph glyph-name="uni1EA4.flat" horiz-adv-x="778" 
d="M353 736l36 42l38 -42h135l-101 130h-142l-101 -130h135zM362 418l45 -157h-91zM456 87l25 -87h291v10l-236 695h-294l-236 -695v-10h234l25 87h191zM703 955l-73 -110h-131l47 110h157z" />
    <glyph glyph-name="uni1EA6.flat" horiz-adv-x="778" 
d="M389 778l-36 -42h-135l101 130h142l101 -130h-135zM407 261l-45 157l-46 -157h91zM481 0l-25 87h-191l-25 -87h-234v10l236 695h294l236 -695v-10h-291zM508 845l-73 110h157l47 -110h-131z" />
    <glyph glyph-name="uni1EA8.flat" horiz-adv-x="778" 
d="M389 778l-36 -42h-135l101 130h142l101 -130h-135zM407 261l-45 157l-46 -157h91zM481 0l-25 87h-191l-25 -87h-234v10l236 695h294l236 -695v-10h-291zM460 925l-8 52q34 14 98 15q53 -1 85.5 -15.5t34.5 -41.5q3 -37 -36 -56q-39 -18 -39 -34h-97q0 29 22 45
q23 18 23 30q1 10 -6.5 14t-18.5 4q-25 0 -58 -13z" />
    <glyph glyph-name="uni1EAA.flat" horiz-adv-x="778" 
d="M389 778l-36 -42h-135l101 130h142l101 -130h-135zM407 261l-45 157l-46 -157h91zM481 0l-25 87h-191l-25 -87h-234v10l236 695h294l236 -695v-10h-291zM453 989q27 0 51 26l8 -3l27 -83q-39 -45 -96 -45q-34 0 -68 11t-48 11q-29 0 -56 -25l-9 3l-26 83q37 44 97 44
q33 0 68.5 -11t51.5 -11z" />
    <glyph glyph-name="uni1EAC.flat" horiz-adv-x="778" 
d="M389 778l-36 -42h-135l101 130h142l101 -130h-135zM407 261l-45 157l-46 -157h91zM481 0l-25 87h-191l-25 -87h-234v10l236 695h294l236 -695v-10h-291zM272 -178v130h194v-130h-194z" />
    <glyph glyph-name="uni1EAE.flat" horiz-adv-x="778" 
d="M362 418l45 -157h-91zM456 87l25 -87h291v10l-236 695h-294l-236 -695v-10h234l25 87h191zM390 736q80 0 116 30.5t39 92.5h-119q-3 -35 -37 -35q-33 0 -36 35h-119q3 -62 39 -92.5t117 -30.5zM525 990l-73 -110h-131l47 110h157z" />
    <glyph glyph-name="uni1EB0.flat" horiz-adv-x="778" 
d="M407 261l-45 157l-46 -157h91zM481 0l-25 87h-191l-25 -87h-234v10l236 695h294l236 -695v-10h-291zM390 736q-81 0 -117 30.5t-39 92.5h119q3 -35 36 -35q34 0 37 35h119q-3 -62 -39 -92.5t-116 -30.5zM332 880l-73 110h157l47 -110h-131z" />
    <glyph glyph-name="uni1EB2.flat" horiz-adv-x="778" 
d="M407 261l-45 157l-46 -157h91zM481 0l-25 87h-191l-25 -87h-234v10l236 695h294l236 -695v-10h-291zM390 736q-81 0 -117 30.5t-39 92.5h119q3 -35 36 -35q34 0 37 35h119q-3 -62 -39 -92.5t-116 -30.5zM304 960l-8 52q34 14 98 15q53 -1 85.5 -15.5t34.5 -41.5
q3 -37 -36 -56q-39 -18 -39 -34h-97q0 29 22 45q23 18 23 30q1 10 -6.5 14t-18.5 4q-25 0 -58 -13z" />
    <glyph glyph-name="uni1EB4.flat" horiz-adv-x="778" 
d="M407 261l-45 157l-46 -157h91zM481 0l-25 87h-191l-25 -87h-234v10l236 695h294l236 -695v-10h-291zM390 736q-81 0 -117 30.5t-39 92.5h119q3 -35 36 -35q34 0 37 35h119q-3 -62 -39 -92.5t-116 -30.5zM452 986q27 0 51 26l8 -3l27 -83q-39 -45 -96 -45q-34 0 -68 11
t-48 11q-29 0 -56 -25l-9 3l-26 83q37 44 97 44q34 0 69.5 -11t50.5 -11z" />
    <glyph glyph-name="uni1EB6.flat" horiz-adv-x="778" 
d="M407 261l-45 157l-46 -157h91zM481 0l-25 87h-191l-25 -87h-234v10l236 695h294l236 -695v-10h-291zM390 736q-81 0 -117 30.5t-39 92.5h119q3 -35 36 -35q34 0 37 35h119q-3 -62 -39 -92.5t-116 -30.5zM272 -178v130h194v-130h-194z" />
    <glyph glyph-name="uni1EA1.alt" horiz-adv-x="655" 
d="M329 170q31 0 50 15v190q-19 16 -48 16q-66 0 -66 -117q0 -49 16.5 -76.5t47.5 -27.5zM422 0l-23 73q-54 -86 -164 -86q-102 0 -162 72t-60 215t65.5 216t162.5 73q99 0 151 -70l10 57h224v-550h-204zM222 -178v130h194v-130h-194z" />
    <glyph glyph-name="uni1EA3.alt" horiz-adv-x="655" 
d="M329 170q31 0 50 15v190q-19 16 -48 16q-66 0 -66 -117q0 -49 16.5 -76.5t47.5 -27.5zM422 0l-23 73q-54 -86 -164 -86q-102 0 -162 72t-60 215t65.5 216t162.5 73q99 0 151 -70l10 57h224v-550h-204zM234 690l-8 61q41 16 112 17q131 -2 137 -66q3 -43 -42 -65
q-44 -21 -44 -39h-111q0 32 29 52q30 21 30 35q1 12 -8 16.5t-28 4.5q-28 0 -67 -16z" />
    <glyph glyph-name="uni1EA5.alt" horiz-adv-x="655" 
d="M312 588l36 42l38 -42h135l-101 130h-142l-101 -130h135zM329 170q-31 0 -47.5 27.5t-16.5 76.5q0 117 66 117q29 0 48 -16v-190q-19 -15 -50 -15zM399 73l23 -73h204v550h-224l-10 -57q-52 70 -151 70q-97 0 -162.5 -73t-65.5 -216t60 -215t162 -72q110 0 164 86z
M662 807l-73 -110h-131l47 110h157z" />
    <glyph glyph-name="uni1EA7.alt" horiz-adv-x="655" 
d="M348 630l-36 -42h-135l101 130h142l101 -130h-135zM329 170q31 0 50 15v190q-19 16 -48 16q-66 0 -66 -117q0 -49 16.5 -76.5t47.5 -27.5zM422 0l-23 73q-54 -86 -164 -86q-102 0 -162 72t-60 215t65.5 216t162.5 73q99 0 151 -70l10 57h224v-550h-204zM467 697l-73 110
h157l47 -110h-131z" />
    <glyph glyph-name="uni1EA9.alt" horiz-adv-x="655" 
d="M348 630l-36 -42h-135l101 130h142l101 -130h-135zM329 170q31 0 50 15v190q-19 16 -48 16q-66 0 -66 -117q0 -49 16.5 -76.5t47.5 -27.5zM422 0l-23 73q-54 -86 -164 -86q-102 0 -162 72t-60 215t65.5 216t162.5 73q99 0 151 -70l10 57h224v-550h-204zM419 777l-8 52
q34 14 98 15q53 -1 85.5 -15.5t34.5 -41.5q3 -37 -36 -56q-39 -18 -39 -34h-97q0 29 22 45q23 18 23 30q1 10 -6.5 14t-18.5 4q-25 0 -58 -13z" />
    <glyph glyph-name="uni1EAB.alt" horiz-adv-x="655" 
d="M348 630l-36 -42h-135l101 130h142l101 -130h-135zM329 170q31 0 50 15v190q-19 16 -48 16q-66 0 -66 -117q0 -49 16.5 -76.5t47.5 -27.5zM422 0l-23 73q-54 -86 -164 -86q-102 0 -162 72t-60 215t65.5 216t162.5 73q99 0 151 -70l10 57h224v-550h-204zM412 841
q27 0 51 26l8 -3l27 -83q-39 -45 -96 -45q-34 0 -68 11t-48 11q-29 0 -56 -25l-9 3l-26 83q37 44 97 44q34 0 69 -11t51 -11z" />
    <glyph glyph-name="uni1EAD.alt" horiz-adv-x="655" 
d="M348 630l-36 -42h-135l101 130h142l101 -130h-135zM329 170q31 0 50 15v190q-19 16 -48 16q-66 0 -66 -117q0 -49 16.5 -76.5t47.5 -27.5zM422 0l-23 73q-54 -86 -164 -86q-102 0 -162 72t-60 215t65.5 216t162.5 73q99 0 151 -70l10 57h224v-550h-204zM222 -178v130h194
v-130h-194z" />
    <glyph glyph-name="uni1EAF.alt" horiz-adv-x="655" 
d="M350 591q80 0 116 30.5t39 92.5h-119q-3 -35 -37 -35q-33 0 -36 35h-119q3 -62 39 -92.5t117 -30.5zM329 170q-31 0 -47.5 27.5t-16.5 76.5q0 117 66 117q29 0 48 -16v-190q-19 -15 -50 -15zM399 73l23 -73h204v550h-224l-10 -57q-52 70 -151 70q-97 0 -162.5 -73
t-65.5 -216t60 -215t162 -72q110 0 164 86zM485 845l-73 -110h-131l47 110h157z" />
    <glyph glyph-name="uni1EB1.alt" horiz-adv-x="655" 
d="M350 591q-81 0 -117 30.5t-39 92.5h119q3 -35 36 -35q34 0 37 35h119q-3 -62 -39 -92.5t-116 -30.5zM329 170q31 0 50 15v190q-19 16 -48 16q-66 0 -66 -117q0 -49 16.5 -76.5t47.5 -27.5zM422 0l-23 73q-54 -86 -164 -86q-102 0 -162 72t-60 215t65.5 216t162.5 73
q99 0 151 -70l10 57h224v-550h-204zM292 735l-73 110h157l47 -110h-131z" />
    <glyph glyph-name="uni1EB3.alt" horiz-adv-x="655" 
d="M350 591q-81 0 -117 30.5t-39 92.5h119q3 -35 36 -35q34 0 37 35h119q-3 -62 -39 -92.5t-116 -30.5zM329 170q31 0 50 15v190q-19 16 -48 16q-66 0 -66 -117q0 -49 16.5 -76.5t47.5 -27.5zM422 0l-23 73q-54 -86 -164 -86q-102 0 -162 72t-60 215t65.5 216t162.5 73
q99 0 151 -70l10 57h224v-550h-204zM264 815l-8 52q34 14 98 15q53 -1 85.5 -15.5t34.5 -41.5q3 -37 -36 -56q-39 -18 -39 -34h-97q0 29 22 45q23 18 23 30q1 10 -6.5 14t-18.5 4q-25 0 -58 -13z" />
    <glyph glyph-name="uni1EB5.alt" horiz-adv-x="655" 
d="M350 591q-81 0 -117 30.5t-39 92.5h119q3 -35 36 -35q34 0 37 35h119q-3 -62 -39 -92.5t-116 -30.5zM329 170q31 0 50 15v190q-19 16 -48 16q-66 0 -66 -117q0 -49 16.5 -76.5t47.5 -27.5zM422 0l-23 73q-54 -86 -164 -86q-102 0 -162 72t-60 215t65.5 216t162.5 73
q99 0 151 -70l10 57h224v-550h-204zM412 841q27 0 51 26l8 -3l27 -83q-39 -45 -96 -45q-34 0 -68 11t-48 11q-29 0 -56 -25l-9 3l-26 83q37 44 97 44q34 0 69 -11t51 -11z" />
    <glyph glyph-name="uni1EB7.alt" horiz-adv-x="655" 
d="M350 591q-81 0 -117 30.5t-39 92.5h119q3 -35 36 -35q34 0 37 35h119q-3 -62 -39 -92.5t-116 -30.5zM329 170q31 0 50 15v190q-19 16 -48 16q-66 0 -66 -117q0 -49 16.5 -76.5t47.5 -27.5zM422 0l-23 73q-54 -86 -164 -86q-102 0 -162 72t-60 215t65.5 216t162.5 73
q99 0 151 -70l10 57h224v-550h-204zM222 -178v130h194v-130h-194z" />
    <glyph glyph-name="uni1EF5.alt" horiz-adv-x="649" 
d="M379 -180h-244v10l72 197l-201 513v10h261l76 -241l78 241h222v-10zM480 -178v130h194v-130h-194z" />
    <glyph glyph-name="uni1EF7.alt" horiz-adv-x="649" 
d="M379 -180h-244v10l72 197l-201 513v10h261l76 -241l78 241h222v-10zM240 690l-8 61q41 16 112 17q131 -2 137 -66q3 -43 -42 -65q-44 -21 -44 -39h-111q0 32 29 52q30 21 30 35q1 12 -8 16.5t-28 4.5q-28 0 -67 -16z" />
    <glyph glyph-name="uni1EF9.alt" horiz-adv-x="649" 
d="M379 -180h-244v10l72 197l-201 513v10h261l76 -241l78 241h222v-10zM403 703q27 0 51 26l8 -3l27 -83q-39 -45 -96 -45q-34 0 -68 11t-48 11q-29 0 -56 -25l-9 3l-26 83q37 44 97 44q33 0 69 -11t51 -11z" />
    <glyph glyph-name="uni1EF5.alt1" 
d="M272 -199q-131 0 -221 37v173l7 3q80 -43 187 -43q71 0 100 22.5t29 66.5v21q-59 -66 -151 -66q-88 0 -142.5 52.5t-54.5 159.5v323h247v-299q0 -31 12 -46t43 -15q28 0 46 13v347h247v-500q0 -131 -83.5 -190t-265.5 -59zM651 -178v130h194v-130h-194z" />
    <glyph glyph-name="uni1EF7.alt1" 
d="M272 -199q-131 0 -221 37v173l7 3q80 -43 187 -43q71 0 100 22.5t29 66.5v21q-59 -66 -151 -66q-88 0 -142.5 52.5t-54.5 159.5v323h247v-299q0 -31 12 -46t43 -15q28 0 46 13v347h247v-500q0 -131 -83.5 -190t-265.5 -59zM224 690l-8 61q41 16 112 17q131 -2 137 -66
q3 -43 -42 -65q-44 -21 -44 -39h-111q0 32 29 52q30 21 30 35q1 12 -8 16.5t-28 4.5q-28 0 -67 -16z" />
    <glyph glyph-name="uni1EF9.alt1" 
d="M272 -199q-131 0 -221 37v173l7 3q80 -43 187 -43q71 0 100 22.5t29 66.5v21q-59 -66 -151 -66q-88 0 -142.5 52.5t-54.5 159.5v323h247v-299q0 -31 12 -46t43 -15q28 0 46 13v347h247v-500q0 -131 -83.5 -190t-265.5 -59zM392 703q27 0 51 26l8 -3l27 -83
q-39 -45 -96 -45q-34 0 -68 11t-48 11q-29 0 -56 -25l-9 3l-26 83q37 44 97 44q34 0 69 -11t51 -11z" />
    </font>
</defs>
</svg>
