<?xml version="1.0" standalone="no"?>
<!DOCTYPE svg PUBLIC "-//W3C//DTD SVG 1.1//EN" "http://www.w3.org/Graphics/SVG/1.1/DTD/svg11.dtd" >
<svg xmlns="http://www.w3.org/2000/svg" xmlns:xlink="http://www.w3.org/1999/xlink" version="1.1">
<metadata>
Created by FontForge 20170731 at Thu Nov  2 13:36:19 2017
 By Aleksey,,,
Copyright (C)2015 Commercial Type.
</metadata>
<defs>
<font id="SVN-SanomatSansLight" horiz-adv-x="621" >
  <font-face 
    font-family="SVN-Sanomat Sans Light"
    font-weight="300"
    font-stretch="normal"
    units-per-em="1000"
    panose-1="0 0 0 0 0 0 0 0 0 0"
    ascent="790"
    descent="-210"
    x-height="520"
    cap-height="705"
    bbox="-231 -221 1182 1091"
    underline-thickness="68"
    underline-position="-209"
    unicode-range="U+0020-FB04"
  />
<missing-glyph horiz-adv-x="364" 
d="M298 0h-265v666h265v-666zM66 633v-600h199v600h-199z" />
    <glyph glyph-name="f_f" unicode="ff" horiz-adv-x="569" 
d="M349 0v466h-195v-466h-65v466h-68v54h68v52q0 50 15 86t40.5 53.5t51 25t54.5 7.5q32 0 44 -5v-52q-24 3 -39 3q-43 0 -72 -27.5t-29 -93.5v-49h195v62q0 51 16 87t43 53.5t53.5 24.5t56.5 7q37 0 49 -4v-52q-18 2 -48 2q-43 0 -74 -28t-31 -93v-59h133v-54h-133v-466
h-65z" />
    <glyph glyph-name="f_i" unicode="fi" horiz-adv-x="514" 
d="M380 0v520h64v-520h-64zM287 466h-133v-466h-65v466h-68v54h68v62q0 51 16 87t43 53.5t53.5 24.5t56.5 7q38 0 49 -4v-52q-16 2 -47 2q-43 0 -74.5 -28t-31.5 -93v-59h133v-54zM377 624v84h70v-84h-70z" />
    <glyph glyph-name="f_l" unicode="fl" horiz-adv-x="514" 
d="M380 0v733l64 17v-750h-64zM287 466h-133v-466h-65v466h-68v54h68v62q0 51 16 87t43 53.5t53.5 24.5t56.5 7q38 0 49 -4v-52q-16 2 -47 2q-43 0 -74.5 -28t-31.5 -93v-59h133v-54z" />
    <glyph glyph-name="f_f_i" unicode="ffi" horiz-adv-x="774" 
d="M639 0v520h65v-520h-65zM349 0v466h-195v-466h-65v466h-68v54h68v52q0 50 15 86t40.5 53.5t51 25t54.5 7.5q32 0 44 -5v-52q-24 3 -39 3q-43 0 -72 -27.5t-29 -93.5v-49h195v62q0 51 16 87t43 53.5t53.5 24.5t56.5 7q37 0 49 -4v-52q-18 2 -48 2q-43 0 -74 -28t-31 -93
v-59h133v-54h-133v-466h-65zM637 624v84h70v-84h-70z" />
    <glyph glyph-name="f_f_l" unicode="ffl" horiz-adv-x="774" 
d="M639 0v733l65 17v-750h-65zM349 0v466h-195v-466h-65v466h-68v54h68v52q0 50 15 86t40.5 53.5t51 25t54.5 7.5q32 0 44 -5v-52q-24 3 -39 3q-43 0 -72 -27.5t-29 -93.5v-49h195v62q0 51 16 87t43 53.5t53.5 24.5t56.5 7q37 0 49 -4v-52q-18 2 -48 2q-43 0 -74 -28
t-31 -93v-59h133v-54h-133v-466h-65z" />
    <glyph glyph-name=".notdef" horiz-adv-x="364" 
d="M298 0h-265v666h265v-666zM66 633v-600h199v600h-199z" />
    <glyph glyph-name=".null" horiz-adv-x="0" 
 />
    <glyph glyph-name="nonmarkingreturn" horiz-adv-x="333" 
 />
    <glyph glyph-name="space" unicode=" " horiz-adv-x="232" 
 />
    <glyph glyph-name="exclam" unicode="!" horiz-adv-x="206" 
d="M79 190l-9 515h67l-9 -515h-49zM66 0v77h74v-77h-74z" />
    <glyph glyph-name="quotedbl" unicode="&#x22;" horiz-adv-x="266" 
d="M107 705l-10 -189h-47l-10 189h67zM226 705l-11 -189h-46l-10 189h67z" />
    <glyph glyph-name="numbersign" unicode="#" horiz-adv-x="516" 
d="M315 264l22 173h-134l-22 -173h134zM281 0l26 205h-134l-26 -205h-57l26 205h-105v59h113l22 173h-106v59h113l25 194h57l-25 -194h134l25 194h56l-25 -194h105v-59h-112l-22 -173h105v-59h-113l-26 -205h-56z" />
    <glyph glyph-name="dollar" unicode="$" horiz-adv-x="504" 
d="M107 521q0 -48 28 -77.5t94 -51.5l27 247h-9q-66 0 -103 -30.5t-37 -87.5zM239 46h2q72 0 114.5 36t42.5 96q0 55 -31 84t-98 51zM241 -10h-9l-14 -123h-48l14 126q-82 12 -145 53v64l3 2q72 -52 149 -63l31 280q-89 29 -134 73t-45 113q0 84 58 132t144 48h18l9 86h48
l-10 -90q63 -9 112 -41v-60l-3 -2q-63 39 -115 47l-28 -260q95 -32 141.5 -72.5t46.5 -120.5q0 -90 -62.5 -141t-160.5 -51z" />
    <glyph glyph-name="percent" unicode="%" horiz-adv-x="787" 
d="M188 354q-70 0 -115 47t-45 124q0 75 45.5 122.5t114.5 47.5q70 0 115 -47.5t45 -122.5q0 -77 -44.5 -124t-115.5 -47zM136 0l461 690h58l-461 -690h-58zM188 404q47 0 75 33.5t28 87.5q0 52 -28 86t-75 34t-75 -34t-28 -86q0 -54 28 -87.5t75 -33.5zM599 -10
q-70 0 -115 47t-45 124q0 75 45.5 122.5t114.5 47.5q70 0 115 -47.5t45 -122.5q0 -77 -44.5 -124t-115.5 -47zM599 40q47 0 75 33.5t28 87.5q0 52 -28 86t-75 34t-75 -34t-28 -86q0 -54 28 -87.5t75 -33.5z" />
    <glyph glyph-name="ampersand" unicode="&#x26;" horiz-adv-x="622" 
d="M526 0l-62 76q-80 -87 -199 -87q-108 0 -173.5 61t-65.5 160q0 74 40 129t113 82q-45 63 -45 128q0 70 48 118t128 48q69 0 127 -30v-58l-3 -1q-61 32 -120 32q-53 0 -83.5 -29t-30.5 -78q0 -40 20.5 -74.5t70.5 -95.5q55 -70 172 -206q31 65 38 224h61q0 -181 -57 -275
l101 -120v-4h-80zM265 46q102 0 162 74q-25 29 -70 83t-83 100t-43 52l-20 24q-55 -20 -86 -64.5t-31 -104.5q0 -73 46.5 -118.5t124.5 -45.5z" />
    <glyph glyph-name="quotesingle" unicode="'" horiz-adv-x="147" 
d="M107 705l-10 -189h-47l-10 189h67z" />
    <glyph glyph-name="parenleft" unicode="(" horiz-adv-x="301" 
d="M284 -170h-66q-170 209 -170 473q0 261 170 471h66q-81 -105 -124.5 -217t-43.5 -254t43.5 -253.5t124.5 -219.5z" />
    <glyph glyph-name="parenright" unicode=")" horiz-adv-x="301" 
d="M83 -170h-66q81 105 124.5 217.5t43.5 255.5q0 142 -43.5 254t-124.5 217h66q170 -210 170 -471q0 -264 -170 -473z" />
    <glyph glyph-name="asterisk" unicode="*" horiz-adv-x="370" 
d="M312 458l-110 76l10 -133h-55l11 134l-111 -77l-26 47l119 58l-119 59l26 47l111 -77l-11 134h55l-10 -133l110 76l27 -47l-120 -59l120 -58z" />
    <glyph glyph-name="plus" unicode="+" horiz-adv-x="507" 
d="M225 128v191h-174v54h174v191h57v-191h174v-54h-174v-191h-57z" />
    <glyph glyph-name="comma" unicode="," horiz-adv-x="199" 
d="M35 -115l37 192h74v-6l-61 -186h-50z" />
    <glyph glyph-name="hyphen" unicode="-" horiz-adv-x="293" 
d="M39 265v61h216v-61h-216z" />
    <glyph glyph-name="period" unicode="." horiz-adv-x="198" 
d="M62 0v77h74v-77h-74z" />
    <glyph glyph-name="slash" unicode="/" horiz-adv-x="394" 
d="M302 774h62l-306 -944h-62z" />
    <glyph glyph-name="zero" unicode="0" horiz-adv-x="592" 
d="M296 -10q-116 0 -188.5 96t-72.5 259q0 162 72.5 256t188.5 94t188.5 -94t72.5 -256q0 -163 -72.5 -259t-188.5 -96zM296 49q86 0 138 77.5t52 218.5t-51.5 216t-138.5 75q-86 0 -138 -75.5t-52 -215.5q0 -141 52 -218.5t138 -77.5z" />
    <glyph glyph-name="one" unicode="1" horiz-adv-x="316" 
d="M223 0h-68v603l-132 -79l-3 2v61l180 107h23v-694z" />
    <glyph glyph-name="two" unicode="2" horiz-adv-x="461" 
d="M18 0v23l231 266q103 117 103 222q0 57 -34 91.5t-103 34.5q-53 0 -90 -12t-80 -39l-3 1v62q75 46 175 46q89 0 145.5 -49.5t56.5 -134.5q0 -65 -33 -127t-96 -138l-165 -189h301v-57h-408z" />
    <glyph glyph-name="three" unicode="3" horiz-adv-x="478" 
d="M220 -10q-114 0 -191 51v66l3 2q84 -60 186 -60q76 0 117 39t41 103q0 63 -41.5 100.5t-123.5 37.5h-77v60h73q72 0 108 35.5t36 92.5q0 59 -37 89.5t-103 30.5q-53 0 -87 -11t-75 -37l-3 2v61q74 43 167 43q89 0 146 -45t57 -132q0 -56 -30.5 -96.5t-82.5 -59.5
q65 -16 102.5 -58t37.5 -110q0 -93 -61 -148.5t-162 -55.5z" />
    <glyph glyph-name="four" unicode="4" horiz-adv-x="517" 
d="M337 230v322l-240 -322h240zM507 175h-102v-175h-68v175h-330v27l367 493h31v-465h102v-55z" />
    <glyph glyph-name="five" unicode="5" horiz-adv-x="463" 
d="M193 -10q-100 0 -176 48v65l3 2q82 -56 173 -56q82 0 125 43t43 115t-44.5 111.5t-128.5 39.5q-68 0 -134 -22l-4 2v351h344v-58h-285v-227q39 11 89 11q105 0 167 -55.5t62 -148.5q0 -100 -62.5 -160.5t-171.5 -60.5z" />
    <glyph glyph-name="six" unicode="6" horiz-adv-x="526" 
d="M499 209q0 -90 -57 -154.5t-160 -64.5q-121 0 -183 86.5t-62 244.5q0 181 81.5 277.5t205.5 96.5q82 0 132 -32v-66l-4 -1q-52 40 -128 40q-94 0 -154 -73t-66 -219q73 73 182 73q91 0 152 -55.5t61 -152.5zM282 49q73 0 110.5 46t37.5 114q0 75 -42 114t-114 39
q-96 0 -170 -66q11 -247 178 -247z" />
    <glyph glyph-name="seven" unicode="7" horiz-adv-x="467" 
d="M176 0h-68q6 31 14.5 61.5t21.5 66.5t21.5 59.5t27.5 65.5t26 58t30 64.5t27 57.5l98 199h-356v57h441v-21l-123 -252q-131 -266 -160 -416z" />
    <glyph glyph-name="eight" unicode="8" horiz-adv-x="509" 
d="M259 -10q-103 0 -166.5 51.5t-63.5 135.5q0 118 149 176q-128 57 -128 169q0 78 57.5 125.5t143.5 47.5q93 0 150.5 -46t57.5 -131q0 -53 -36.5 -94t-91.5 -66q149 -59 149 -178q0 -90 -59 -140t-162 -50zM262 382l14 -5q119 54 119 140q0 57 -39 89.5t-105 32.5
q-62 0 -100 -32.5t-38 -83.5q0 -93 149 -141zM259 48q74 0 115 34t41 94q0 53 -39 88t-125 63l-20 7q-63 -26 -99.5 -61t-36.5 -91q0 -63 43.5 -98.5t120.5 -35.5z" />
    <glyph glyph-name="nine" unicode="9" horiz-adv-x="526" 
d="M251 320q98 0 170 65q-6 251 -173 251q-76 0 -114.5 -45t-38.5 -113q0 -77 41 -117.5t115 -40.5zM196 -10q-82 0 -135 32v66l3 1q52 -40 132 -40q214 0 225 290q-74 -74 -182 -74q-92 0 -152 56t-60 157q0 90 58 153.5t163 63.5q118 0 179.5 -86t61.5 -244
q0 -191 -80 -283t-213 -92z" />
    <glyph glyph-name="colon" unicode=":" horiz-adv-x="206" 
d="M66 367v77h74v-77h-74zM66 0v77h74v-77h-74z" />
    <glyph glyph-name="semicolon" unicode=";" horiz-adv-x="204" 
d="M69 367v77h74v-77h-74zM35 -115l37 192h74v-6l-61 -186h-50z" />
    <glyph glyph-name="less" unicode="&#x3c;" horiz-adv-x="507" 
d="M432 121l-373 204v41l373 203l2 -2v-63l-292 -159l292 -159v-63z" />
    <glyph glyph-name="equal" unicode="=" horiz-adv-x="505" 
d="M63 375v55h379v-55h-379zM63 194v55h379v-55h-379z" />
    <glyph glyph-name="greater" unicode="&#x3e;" horiz-adv-x="507" 
d="M75 121l-3 2v63l293 159l-293 159v63l3 2l373 -204v-40z" />
    <glyph glyph-name="question" unicode="?" horiz-adv-x="437" 
d="M41 605v62q65 48 161 48q81 0 133 -45t52 -126q0 -62 -24 -103.5t-75 -87.5q-38 -32 -55 -61t-17 -73v-29h-62v29q0 58 20.5 95t69.5 82q42 37 60 68t18 80q0 52 -32 82t-91 30q-84 0 -155 -53zM148 0v77h74v-77h-74z" />
    <glyph glyph-name="at" unicode="@" horiz-adv-x="901" 
d="M467 -179q-201 0 -317 115.5t-116 294.5q0 202 125 330.5t314 128.5q180 0 287 -110t107 -284q0 -123 -57.5 -190.5t-138.5 -67.5q-102 0 -121 77q-58 -79 -146 -79q-81 0 -126 53.5t-45 134.5q0 109 60 180t158 71q77 0 128 -67l6 50h65l-35 -276q-14 -98 66 -98
q52 0 92.5 52.5t40.5 159.5q0 159 -92.5 253.5t-249.5 94.5q-161 0 -273 -114t-112 -303q0 -157 102 -258.5t278 -101.5q113 0 198 45l2 -1v-48q-79 -42 -200 -42zM414 91q79 0 133 67q0 11 1 14l24 183q-47 65 -120 65q-69 0 -111.5 -54.5t-42.5 -141.5q0 -62 31.5 -97.5
t84.5 -35.5z" />
    <glyph glyph-name="A" unicode="A" 
d="M440 254l-131 320l-130 -320h261zM544 0l-80 196h-309l-80 -196h-67v4l297 710h11l298 -710v-4h-70z" />
    <glyph glyph-name="B" unicode="B" horiz-adv-x="589" 
d="M298 645h-150v-242h160q137 0 137 121t-147 121zM311 346h-163v-286h165q86 0 128.5 34t42.5 108q0 144 -173 144zM80 0v705h213q104 0 162 -44t58 -133q0 -120 -112 -148q76 -17 114 -65.5t38 -112.5q0 -97 -61 -149.5t-174 -52.5h-238z" />
    <glyph glyph-name="C" unicode="C" horiz-adv-x="652" 
d="M404 -10q-160 0 -263.5 103t-103.5 262q0 158 103 259t262 101q102 0 189 -41v-68l-3 -1q-79 51 -186 51q-134 0 -214 -83t-80 -218q0 -136 81 -221t215 -85q120 0 205 69l3 -2v-68q-86 -58 -208 -58z" />
    <glyph glyph-name="D" unicode="D" horiz-adv-x="684" 
d="M235 646h-87v-587h87q162 0 251.5 66t89.5 222q0 155 -91 227t-250 72zM80 0v705h160q185 0 296 -89.5t111 -268.5q0 -177 -110 -262t-297 -85h-160z" />
    <glyph glyph-name="E" unicode="E" horiz-adv-x="504" 
d="M80 0v705h370v-59h-302v-252h264v-58h-264v-277h302v-59h-370z" />
    <glyph glyph-name="F" unicode="F" horiz-adv-x="485" 
d="M417 318h-269v-318h-68v705h369v-59h-301v-270h269v-58z" />
    <glyph glyph-name="G" unicode="G" horiz-adv-x="688" 
d="M625 369v-307q-109 -72 -228 -72q-166 0 -263 102t-97 263q0 158 102 259t261 101q106 0 194 -43v-66l-3 -2q-81 52 -191 52q-133 0 -212.5 -83t-79.5 -218q0 -138 75.5 -222t213.5 -84q89 0 162 42v220h-178v58h244z" />
    <glyph glyph-name="H" unicode="H" horiz-adv-x="703" 
d="M555 0v327h-407v-327h-68v705h68v-318h407v318h68v-705h-68z" />
    <glyph glyph-name="I" unicode="I" horiz-adv-x="232" 
d="M82 0v705h68v-705h-68z" />
    <glyph glyph-name="J" unicode="J" horiz-adv-x="237" 
d="M-32 -171v60q65 15 92.5 50t27.5 113v653h67v-657q0 -106 -45 -154t-142 -65z" />
    <glyph glyph-name="K" unicode="K" horiz-adv-x="588" 
d="M492 0l-250 360l-94 -103v-257h-68v705h68v-367l328 367h73v-4q-11 -12 -106 -119q-93 -106 -154 -173l279 -405v-4h-76z" />
    <glyph glyph-name="L" unicode="L" horiz-adv-x="485" 
d="M80 0v705h68v-647h303v-58h-371z" />
    <glyph glyph-name="M" unicode="M" horiz-adv-x="812" 
d="M664 0v580l-250 -587h-19l-252 594v-587h-63v705h76l251 -586l250 586h75v-705h-68z" />
    <glyph glyph-name="N" unicode="N" horiz-adv-x="712" 
d="M631 -13h-22l-463 578v-565h-66v716h24l462 -574v563h65v-718z" />
    <glyph glyph-name="O" unicode="O" horiz-adv-x="769" 
d="M385 -10q-149 0 -248.5 104.5t-99.5 260.5t99 258t249 102t248.5 -102t98.5 -258t-99 -260.5t-248 -104.5zM385 49q122 0 199 85t77 221q0 135 -77 218t-199 83t-199.5 -83t-77.5 -218q0 -136 78 -221t199 -85z" />
    <glyph glyph-name="P" unicode="P" horiz-adv-x="549" 
d="M272 645h-124v-297h133q169 0 169 152q0 145 -178 145zM290 291h-142v-291h-68v705h194q116 0 180.5 -53.5t64.5 -154.5q0 -99 -63 -152.5t-166 -53.5z" />
    <glyph glyph-name="Q" unicode="Q" horiz-adv-x="769" 
d="M604 -165q-105 0 -171 44.5t-92 113.5q-133 16 -218.5 117t-85.5 245q0 156 99 258t249 102t248.5 -102t98.5 -258q0 -147 -90 -250.5t-228 -113.5q49 -101 193 -101q45 0 75 11l3 -3v-53q-27 -10 -81 -10zM385 49q127 0 201.5 83.5t74.5 222.5q0 135 -77 218t-199 83
t-199.5 -83t-77.5 -218q0 -136 78 -221t199 -85z" />
    <glyph glyph-name="R" unicode="R" horiz-adv-x="579" 
d="M270 645h-122v-288h137q81 0 123.5 38t42.5 110q0 140 -181 140zM490 0l-206 300h-136v-300h-68v705h192q116 0 182.5 -52t66.5 -150q0 -80 -45.5 -128.5t-122.5 -62.5l213 -307v-5h-76z" />
    <glyph glyph-name="S" unicode="S" horiz-adv-x="502" 
d="M240 -10q-118 0 -203 56v69l4 2q91 -68 199 -68q72 0 113.5 36t41.5 98q0 55 -30.5 84.5t-105.5 57.5l-57 20q-160 55 -160 187q0 84 58 133.5t143 49.5q107 0 178 -45v-64l-3 -1q-43 28 -80.5 40t-91.5 12q-66 0 -102 -32.5t-36 -89.5q0 -48 27 -78t87 -51l57 -20
q90 -31 136.5 -75.5t46.5 -123.5q0 -92 -61.5 -144.5t-160.5 -52.5z" />
    <glyph glyph-name="T" unicode="T" horiz-adv-x="528" 
d="M512 646h-214v-646h-68v646h-215v59h497v-59z" />
    <glyph glyph-name="U" unicode="U" horiz-adv-x="674" 
d="M335 -10q-119 0 -191.5 70t-72.5 197v448h68v-446q0 -101 52 -155.5t144 -54.5t146.5 54.5t54.5 155.5v446h67v-448q0 -126 -74 -196.5t-194 -70.5z" />
    <glyph glyph-name="V" unicode="V" horiz-adv-x="615" 
d="M313 -10h-12l-287 711v4h70l226 -569l225 569h66v-4z" />
    <glyph glyph-name="W" unicode="W" horiz-adv-x="921" 
d="M641 -10l-182 482l-181 -482h-12l-251 711v4h70l192 -555l150 404l-56 147v4h70l205 -553l192 553h68v-4l-253 -711h-12z" />
    <glyph glyph-name="X" unicode="X" horiz-adv-x="596" 
d="M501 0l-208 318l-204 -318h-68v4l235 367l-217 330v4h73l187 -288l188 288h68v-4l-219 -337l239 -360v-4h-74z" />
    <glyph glyph-name="Y" unicode="Y" horiz-adv-x="556" 
d="M314 0h-68v296l-237 405v4h71l200 -347l200 347h67v-4l-233 -401v-300z" />
    <glyph glyph-name="Z" unicode="Z" horiz-adv-x="570" 
d="M532 0h-519v17l422 629h-374v59h477v-19l-420 -627h414v-59z" />
    <glyph glyph-name="bracketleft" unicode="[" horiz-adv-x="342" 
d="M83 -170v944h220v-54h-154v-836h154v-54h-220z" />
    <glyph glyph-name="backslash" unicode="\" horiz-adv-x="394" 
d="M89 774l306 -944h-62l-306 944h62z" />
    <glyph glyph-name="bracketright" unicode="]" horiz-adv-x="342" 
d="M39 -170v54h154v836h-154v54h220v-944h-220z" />
    <glyph glyph-name="asciicircum" unicode="^" horiz-adv-x="478" 
d="M96 411h-70l189 294h48l189 -294h-71l-142 224z" />
    <glyph glyph-name="underscore" unicode="_" horiz-adv-x="350" 
d="M-10 -134v51h370v-51h-370z" />
    <glyph glyph-name="grave" unicode="`" horiz-adv-x="400" 
d="M201 606l-120 164h81l102 -164h-63z" />
    <glyph glyph-name="a" unicode="a" horiz-adv-x="489" 
d="M209 45q102 0 154 76v141l-119 -20q-77 -13 -112.5 -36t-35.5 -69q0 -44 29.5 -68t83.5 -24zM372 0l-6 68q-53 -78 -161 -78q-78 0 -126.5 38.5t-48.5 108.5q0 72 51.5 104.5t149.5 49.5l132 23v13q0 81 -34.5 113.5t-108.5 32.5q-81 0 -150 -41l-3 2v54q60 42 158 42
t150 -46.5t52 -150.5v-333h-55z" />
    <glyph glyph-name="b" unicode="b" horiz-adv-x="573" 
d="M298 -11q-108 0 -171 83l-5 -72h-56v733l64 17v-300q68 81 173 81t171.5 -70.5t66.5 -191.5q0 -128 -67 -204t-176 -76zM295 45q80 0 131 58.5t51 165.5q0 101 -51 153.5t-128 52.5q-101 0 -168 -77v-279q63 -74 165 -74z" />
    <glyph glyph-name="c" unicode="c" horiz-adv-x="484" 
d="M299 -10q-118 0 -193 74.5t-75 196.5t75.5 195.5t188.5 73.5q90 0 143 -32v-58l-3 -2q-63 36 -140 36q-85 0 -141.5 -57t-56.5 -156t55 -157t146 -58q87 0 150 46l3 -2v-56q-57 -44 -152 -44z" />
    <glyph glyph-name="d" unicode="d" horiz-adv-x="572" 
d="M456 0l-9 76q-67 -87 -179 -87q-106 0 -171.5 71t-65.5 193q0 126 67.5 202t176.5 76q104 0 167 -78v280l64 17v-750h-50zM273 45q103 0 169 76v281q-62 73 -164 73q-79 0 -130.5 -58t-51.5 -164q0 -103 49.5 -155.5t127.5 -52.5z" />
    <glyph glyph-name="e" unicode="e" horiz-adv-x="520" 
d="M276 473q-71 0 -117 -41t-59 -115h322q-2 76 -40 116t-106 40zM477 96v-60q-75 -46 -178 -46q-123 0 -195.5 72.5t-72.5 198.5q0 121 68.5 195t177.5 74q101 0 160.5 -66t50.5 -199h-393v-4q0 -104 54.5 -159t151.5 -55q92 0 172 51z" />
    <glyph glyph-name="f" unicode="f" horiz-adv-x="309" 
d="M287 466h-133v-466h-65v466h-68v54h68v62q0 51 16 87t43 53.5t53.5 24.5t56.5 7q38 0 49 -4v-52q-16 2 -47 2q-43 0 -74.5 -28t-31.5 -93v-59h133v-54z" />
    <glyph glyph-name="g" unicode="g" horiz-adv-x="482" 
d="M230 226q55 0 92 35t37 91q0 58 -36.5 92.5t-92.5 34.5q-57 0 -93 -34t-36 -93q0 -56 37 -91t92 -35zM235 -218q-105 0 -165.5 34.5t-60.5 99.5q0 45 28 69h54l2 -2q-23 -29 -23 -62q0 -88 165 -88q86 0 132 32t46 83q0 37 -22.5 52t-71.5 17l-146 7q-114 4 -114 90
q0 61 65 93q-85 47 -85 145q0 80 53.5 128t136.5 48q35 0 71 -14l163 10v-53h-103q59 -43 59 -119q0 -78 -54.5 -125t-135.5 -47q-27 0 -59 8q-30 -11 -42.5 -25t-12.5 -37q0 -20 15.5 -29.5t50.5 -11.5l144 -6q74 -4 112.5 -33.5t38.5 -95.5q0 -76 -64 -122t-177 -46z" />
    <glyph glyph-name="h" unicode="h" horiz-adv-x="532" 
d="M286 476q-83 0 -156 -57v-419h-64v733l64 17v-287q82 67 171 67q81 0 125 -43t44 -124v-363h-64v350q0 126 -120 126z" />
    <glyph glyph-name="i" unicode="i" horiz-adv-x="203" 
d="M69 0v520h65v-520h-65zM67 624v84h69v-84h-69z" />
    <glyph glyph-name="j" unicode="j" horiz-adv-x="197" 
d="M-25 -219v57q46 4 68.5 32.5t22.5 96.5v553h65v-556q0 -92 -39.5 -135.5t-116.5 -47.5zM64 624v84h69v-84h-69z" />
    <glyph glyph-name="k" unicode="k" horiz-adv-x="477" 
d="M392 0l-193 264l-69 -75v-189h-64v733l64 17v-488l237 258h72v-4l-195 -208l217 -303v-5h-69z" />
    <glyph glyph-name="l" unicode="l" horiz-adv-x="204" 
d="M70 0v733l64 17v-750h-64z" />
    <glyph glyph-name="m" unicode="m" horiz-adv-x="829" 
d="M276 476q-76 0 -146 -57v-419h-64v520h56l6 -58q81 68 164 68q103 0 140 -81q41 39 82.5 60t95.5 21q73 0 115.5 -42.5t42.5 -121.5v-366h-65v353q0 65 -29.5 94t-78.5 29q-79 0 -148 -58l2 -2v-416h-65v358q0 62 -29.5 90t-78.5 28z" />
    <glyph glyph-name="n" unicode="n" horiz-adv-x="532" 
d="M286 476q-83 0 -156 -57v-419h-64v520h56l6 -59q82 69 173 69q81 0 125 -43t44 -124v-363h-64v350q0 126 -120 126z" />
    <glyph glyph-name="o" unicode="o" horiz-adv-x="587" 
d="M293 -10q-113 0 -187.5 75t-74.5 196t74 195t188 74q113 0 188 -74t75 -195t-75 -196t-188 -75zM293 46q86 0 142 58.5t56 156.5q0 97 -56 155t-142 58t-141.5 -58t-55.5 -155q0 -98 55.5 -156.5t141.5 -58.5z" />
    <glyph glyph-name="p" unicode="p" horiz-adv-x="573" 
d="M295 45q80 0 131 58t51 166q0 101 -51 153.5t-128 52.5q-101 0 -167 -76v-281q62 -73 164 -73zM298 -11q-104 0 -167 78v-277h-65v730h57l6 -72q67 83 174 83q105 0 171.5 -70.5t66.5 -191.5q0 -128 -66.5 -204t-176.5 -76z" />
    <glyph glyph-name="q" unicode="q" horiz-adv-x="572" 
d="M506 -210h-64v279q-70 -80 -174 -80q-106 0 -171.5 71t-65.5 193q0 126 67.5 202t176.5 76q106 0 170 -81l6 70h55v-730zM273 45q103 0 169 76v281q-62 73 -164 73q-79 0 -130.5 -58t-51.5 -164q0 -103 49.5 -155.5t127.5 -52.5z" />
    <glyph glyph-name="r" unicode="r" horiz-adv-x="333" 
d="M130 0h-64v520h56l7 -72q52 79 144 79q21 0 42 -4v-58l-4 -3q-22 6 -38 6q-95 0 -143 -75v-393z" />
    <glyph glyph-name="s" unicode="s" horiz-adv-x="419" 
d="M201 -8q-105 0 -171 48v64l3 2q74 -59 168 -59q57 0 89 24t32 68q0 40 -23.5 60t-78.5 36l-50 16q-133 38 -133 141q0 63 48.5 101.5t125.5 38.5q87 0 146 -33v-57l-3 -2q-64 37 -145 37q-52 0 -79.5 -21.5t-27.5 -58.5q0 -35 20.5 -54.5t64.5 -33.5l51 -15
q80 -24 114.5 -55t34.5 -95q0 -72 -54 -112t-132 -40z" />
    <glyph glyph-name="t" unicode="t" horiz-adv-x="341" 
d="M310 55v-50q-37 -13 -80 -13q-57 0 -94.5 29.5t-37.5 90.5v354h-72v54h72v94l65 11v-105h135v-54h-135v-347q0 -72 80 -72q37 0 64 10z" />
    <glyph glyph-name="u" unicode="u" horiz-adv-x="536" 
d="M414 0l-6 59q-84 -69 -176 -69q-81 0 -126.5 42t-45.5 122v366h64v-353q0 -123 123 -123q82 0 159 57v419h64v-520h-56z" />
    <glyph glyph-name="v" unicode="v" horiz-adv-x="489" 
d="M254 -8h-15l-231 524v4h66l173 -400l172 400h62v-4z" />
    <glyph glyph-name="w" unicode="w" horiz-adv-x="705" 
d="M507 -10l-155 407l-152 -407h-15l-172 526v4h67l119 -384l145 389h19l145 -390l119 385h65v-4l-170 -526h-15z" />
    <glyph glyph-name="x" unicode="x" horiz-adv-x="474" 
d="M387 0l-155 223l-153 -223h-63v4l182 266l-174 246v4h71l142 -203l139 203h63v-4l-169 -248l189 -264v-4h-72z" />
    <glyph glyph-name="y" unicode="y" horiz-adv-x="485" 
d="M48 -219v59q55 8 86 34t52 77l28 72l-206 493v4h68l172 -422l164 422h65v-4l-230 -579q-31 -77 -77 -113.5t-122 -42.5z" />
    <glyph glyph-name="z" unicode="z" horiz-adv-x="453" 
d="M419 0h-398v17l309 449h-274v54h372v-16l-311 -450h302v-54z" />
    <glyph glyph-name="braceleft" unicode="{" horiz-adv-x="356" 
d="M323 -119v-51q-109 0 -165.5 43.5t-34.5 141.5l33 146q14 59 -16 86.5t-109 28.5v53q79 2 109 29t16 86l-33 144q-22 98 35 142t165 44v-51q-84 0 -118 -32.5t-17 -110.5l33 -139q14 -58 -8 -90.5t-85 -47.5q63 -16 85 -48.5t8 -90.5l-33 -141q-17 -78 17 -110t118 -32z
" />
    <glyph glyph-name="bar" unicode="|" horiz-adv-x="222" 
d="M82 -170v944h58v-944h-58z" />
    <glyph glyph-name="braceright" unicode="}" horiz-adv-x="356" 
d="M33 -170v51q84 0 118 32t17 110l-33 141q-14 58 8 90.5t85 48.5q-63 15 -85 47.5t-8 90.5l33 139q17 78 -17 110.5t-118 32.5v51q108 0 165 -44t35 -142l-33 -144q-14 -59 16 -86t109 -29v-53q-79 -1 -109 -28.5t-16 -86.5l33 -146q22 -98 -34.5 -141.5t-165.5 -43.5z
" />
    <glyph glyph-name="asciitilde" unicode="~" horiz-adv-x="400" 
d="M352 369v-59q-29 -46 -86 -46q-35 0 -76 18t-59 18q-45 0 -79 -45l-4 1v59q27 45 86 45q34 0 76 -17.5t63 -17.5q43 0 75 46z" />
    <glyph glyph-name="exclamdown" unicode="&#xa1;" horiz-adv-x="206" 
d="M140 570v-77h-74v77h74zM127 380l9 -515h-67l9 515h49z" />
    <glyph glyph-name="cent" unicode="&#xa2;" horiz-adv-x="481" 
d="M95 261q0 -82 37.5 -136.5t104.5 -71.5l46 421q-82 -4 -135 -60.5t-53 -152.5zM297 -10h-19l-11 -103h-48l12 110q-92 21 -147 90.5t-55 173.5q0 121 75 195t186 74l8 77h48l-9 -79q62 -7 99 -30v-58l-4 -2q-48 27 -101 34l-46 -426h10q88 0 151 46l3 -2v-56
q-57 -44 -152 -44z" />
    <glyph glyph-name="sterling" unicode="&#xa3;" horiz-adv-x="497" 
d="M474 57v-57h-462v27q53 45 74 86t33 117l12 70h-68v51h77l26 155q19 106 65.5 147.5t119.5 41.5q63 0 113 -28v-60l-3 -1q-53 31 -110 31q-48 0 -76.5 -29.5t-42.5 -106.5l-26 -150h165v-51h-173l-10 -57q-10 -55 -15.5 -76.5t-21.5 -51.5t-45 -58h368z" />
    <glyph glyph-name="yen" unicode="&#xa5;" horiz-adv-x="532" 
d="M468 152h-166v-152h-68v152h-166v47h166v80h-166v47h162l-206 360v4h71l171 -313l175 313h67v-4l-204 -360h164v-47h-166v-80h166v-47z" />
    <glyph glyph-name="brokenbar" unicode="&#xa6;" horiz-adv-x="222" 
d="M82 361v413h58v-413h-58zM82 -170v434h58v-434h-58z" />
    <glyph glyph-name="section" unicode="&#xa7;" horiz-adv-x="479" 
d="M213 -139q-95 0 -150 41v62l3 1q65 -48 145 -48q59 0 89.5 25t30.5 69q0 34 -19.5 56.5t-61.5 46.5l-96 57q-60 35 -92.5 73t-32.5 94q0 48 32 80t85 47q-53 47 -53 112q0 63 45 101.5t122 38.5q84 0 130 -31v-58l-3 -1q-56 35 -127 35q-52 0 -78.5 -23t-26.5 -60
q0 -33 19 -57t67 -52l78 -45q46 -26 69.5 -43.5t42.5 -49t19 -72.5q0 -89 -112 -132q31 -24 44.5 -49.5t13.5 -64.5q0 -73 -51 -113t-132 -40zM271 172l26 -16q89 38 89 101q0 21 -6 37t-22.5 30.5t-26 21t-35.5 22.5l-77 45q-27 16 -40 26q-88 -30 -88 -97q0 -38 21 -63
t63 -50z" />
    <glyph glyph-name="dieresis" unicode="&#xa8;" horiz-adv-x="400" 
d="M81 637v74h70v-74h-70zM249 637v74h70v-74h-70z" />
    <glyph glyph-name="copyright" unicode="&#xa9;" horiz-adv-x="795" 
d="M38 352q0 159 103 262t257 103t257 -103t103 -262q0 -158 -103 -261t-257 -103t-257 103t-103 261zM713 352q0 141 -90 233.5t-225 92.5t-225.5 -92.5t-90.5 -233.5q0 -138 90.5 -231.5t225.5 -93.5t225 93.5t90 231.5zM413 156q-87 0 -142.5 55.5t-55.5 144.5
t55.5 144.5t138.5 55.5q74 0 113 -28v-53h-2q-53 29 -111 29t-97 -40t-39 -108t38.5 -109t99.5 -41q66 0 119 39l3 -2v-52q-42 -35 -120 -35z" />
    <glyph glyph-name="ordfeminine" unicode="&#xaa;" horiz-adv-x="424" 
d="M179 291q83 0 126 65v112l-96 -16q-64 -11 -93 -29t-29 -57q0 -36 23.5 -55.5t68.5 -19.5zM312 250l-5 56q-47 -64 -133 -64q-66 0 -106 31.5t-40 92.5q0 62 44 91t124 40l109 18v10q0 65 -27 91t-85 26q-76 0 -131 -33l-2 2v51q53 34 138 34q83 0 126 -39t43 -127v-280
h-55z" />
    <glyph glyph-name="guillemotleft" unicode="&#xab;" horiz-adv-x="378" 
d="M128 84l-111 176l111 176h65l-108 -176l108 -176h-65zM285 84l-111 176l111 176h65l-109 -176l109 -176h-65z" />
    <glyph glyph-name="registered" unicode="&#xae;" horiz-adv-x="587" 
d="M23 443q0 119 78 196.5t193 77.5t192.5 -77.5t77.5 -196.5q0 -118 -77.5 -196t-192.5 -78t-193 78t-78 196zM522 443q0 102 -64.5 170t-163.5 68t-164.5 -68t-65.5 -170t65.5 -170t164.5 -68t163.5 68t64.5 170zM289 544h-41v-89h44q54 0 54 46q0 43 -57 43zM360 308
l-70 110h-42v-110h-45v274h87q102 0 102 -82q0 -61 -58 -75l73 -115v-2h-47z" />
    <glyph glyph-name="overscore" unicode="&#xaf;" horiz-adv-x="400" 
d="M64 649v55h272v-55h-272z" />
    <glyph glyph-name="degree" unicode="&#xb0;" horiz-adv-x="404" 
d="M43 538q0 67 45.5 113t113.5 46q69 0 114.5 -46t45.5 -113q0 -66 -45.5 -112.5t-114.5 -46.5q-68 0 -113.5 46.5t-45.5 112.5zM306 538q0 47 -28.5 78.5t-75.5 31.5q-46 0 -75 -31.5t-29 -78.5q0 -45 29 -76.5t75 -31.5q47 0 75.5 31t28.5 77z" />
    <glyph glyph-name="acute" unicode="&#xb4;" horiz-adv-x="400" 
d="M199 606h-63l102 164h81z" />
    <glyph glyph-name="paragraph" unicode="&#xb6;" horiz-adv-x="540" 
d="M456 -130h-53v835h53v-835zM311 -130h-54v441h-13q-104 0 -157 50.5t-53 145.5q0 198 210 198h67v-835z" />
    <glyph glyph-name="middot" unicode="&#xb7;" horiz-adv-x="198" 
d="M62 274v77h74v-77h-74z" />
    <glyph glyph-name="cedilla" unicode="&#xb8;" horiz-adv-x="400" 
d="M109 -199v45l3 1q39 -18 63 -18q50 0 50 42q0 37 -75 46v87h50v-53q85 -15 85 -82q0 -40 -27 -63.5t-75 -23.5q-43 0 -74 19z" />
    <glyph glyph-name="ordmasculine" unicode="&#xba;" horiz-adv-x="489" 
d="M244 240q-95 0 -157.5 63t-62.5 166q0 101 62.5 164t157.5 63t157.5 -63t62.5 -164q0 -103 -62.5 -166t-157.5 -63zM244 294q70 0 115 48t45 127t-45 126t-115 47t-114.5 -47t-44.5 -126t45 -127t114 -48z" />
    <glyph glyph-name="guillemotright" unicode="&#xbb;" horiz-adv-x="378" 
d="M28 84l108 176l-108 176h65l111 -176l-111 -176h-65zM185 84l108 176l-108 176h65l111 -176l-111 -176h-65z" />
    <glyph glyph-name="onequarter" unicode="&#xbc;" horiz-adv-x="716" 
d="M157 313h-56v311l-75 -42l-2 1v50l114 62h19v-382zM62 0l514 690h58l-514 -690h-58zM591 122v156l-117 -156h117zM699 79h-54v-79h-54v79h-184v23l211 281h27v-261h54v-43z" />
    <glyph glyph-name="onehalf" unicode="&#xbd;" horiz-adv-x="739" 
d="M157 313h-56v311l-75 -42l-2 1v50l114 62h19v-382zM463 0v19l128 141q56 59 56 111q0 63 -72 63q-45 0 -91 -28l-2 2v47q42 26 102 26q57 0 88.5 -27.5t31.5 -77.5q0 -60 -71 -143l-83 -89h159v-44h-246zM62 0l514 690h58l-514 -690h-58z" />
    <glyph glyph-name="threequarters" unicode="&#xbe;" horiz-adv-x="744" 
d="M90 0l514 690h58l-514 -690h-58zM619 122v156l-117 -156h117zM727 79h-54v-79h-54v79h-184v23l211 281h27v-261h54v-43zM130 307q-59 0 -110 29v47l3 2q46 -31 101 -31q38 0 59 18.5t21 49.5q0 65 -81 65h-44v43h41q71 0 71 61q0 58 -72 58q-43 0 -87 -26l-2 2v45
q37 24 98 24q53 0 86.5 -25t33.5 -72q0 -61 -64 -86q77 -17 77 -92q0 -52 -34.5 -82t-96.5 -30z" />
    <glyph glyph-name="questiondown" unicode="&#xbf;" horiz-adv-x="437" 
d="M288 570v-77h-73v77h73zM396 -35v-62q-65 -48 -161 -48q-81 0 -133.5 45t-52.5 126q0 61 25 103.5t75 87.5q37 33 54.5 61.5t17.5 72.5v29h62v-29q0 -57 -20.5 -94t-70.5 -83q-42 -37 -59.5 -68t-17.5 -80q0 -52 31.5 -82t90.5 -30q83 0 156 53z" />
    <glyph glyph-name="Agrave" unicode="&#xc0;" 
d="M306 756l-92 125h71l74 -125h-53zM440 254l-131 320l-130 -320h261zM544 0l-80 196h-309l-80 -196h-67v4l297 710h11l298 -710v-4h-70z" />
    <glyph glyph-name="Aacute" unicode="&#xc1;" 
d="M407 881l-92 -125h-53l74 125h71zM440 254l-131 320l-130 -320h261zM544 0l-80 196h-309l-80 -196h-67v4l297 710h11l298 -710v-4h-70z" />
    <glyph glyph-name="Acircumflex" unicode="&#xc2;" 
d="M312 833l-68 -77h-58l101 125h52l101 -125h-58zM440 254l-131 320l-130 -320h261zM544 0l-80 196h-309l-80 -196h-67v4l297 710h11l298 -710v-4h-70z" />
    <glyph glyph-name="Atilde" unicode="&#xc3;" 
d="M363 813q28 -3 54 32l4 -1l12 -39q-11 -19 -31 -32t-42 -10q-26 2 -54.5 18t-42.5 17q-29 4 -58 -31l-3 2l-11 42q13 17 34 28.5t42 9.5q22 -2 50 -18.5t46 -17.5zM440 254l-131 320l-130 -320h261zM544 0l-80 196h-309l-80 -196h-67v4l297 710h11l298 -710v-4h-70z" />
    <glyph glyph-name="Adieresis" unicode="&#xc4;" 
d="M440 254l-131 320l-130 -320h261zM544 0l-80 196h-309l-80 -196h-67v4l297 710h11l298 -710v-4h-70zM373 773v75h70v-75h-70zM179 773v75h70v-75h-70z" />
    <glyph glyph-name="Aring" unicode="&#xc5;" 
d="M440 254l-131 320l-130 -320h261zM544 0l-80 196h-309l-80 -196h-67v4l297 710h11l298 -710v-4h-70zM311 749q-47 0 -76 28.5t-29 73.5t29 73.5t76 28.5t76 -28.5t29 -73.5t-29 -73.5t-76 -28.5zM311 912q-26 0 -41.5 -17t-15.5 -44t15.5 -44t41.5 -17q27 0 42.5 17
t15.5 44t-15.5 44t-42.5 17z" />
    <glyph glyph-name="AE" unicode="&#xc6;" horiz-adv-x="871" 
d="M447 254v392h-6l-224 -392h230zM447 0v196h-264l-112 -196h-67v4l405 701h407v-59h-302v-252h264v-58h-264v-277h303v-59h-370z" />
    <glyph glyph-name="Ccedilla" unicode="&#xc7;" horiz-adv-x="652" 
d="M346 -218q-43 0 -74 19v45l3 1q39 -18 63 -18q50 0 50 42q0 37 -75 46v83q-125 28 -200.5 124t-75.5 231q0 158 103 259t262 101q102 0 189 -41v-68l-3 -1q-79 51 -186 51q-134 0 -214 -83t-80 -218q0 -136 81 -221t215 -85q120 0 205 69l3 -2v-68q-86 -58 -208 -58
q-15 0 -41 2v-41q85 -15 85 -82q0 -40 -27 -63.5t-75 -23.5z" />
    <glyph glyph-name="Egrave" unicode="&#xc8;" horiz-adv-x="504" 
d="M266 756l-92 125h71l74 -125h-53zM80 0v705h370v-59h-302v-252h264v-58h-264v-277h302v-59h-370z" />
    <glyph glyph-name="Eacute" unicode="&#xc9;" horiz-adv-x="504" 
d="M388 881l-92 -125h-53l74 125h71zM80 0v705h370v-59h-302v-252h264v-58h-264v-277h302v-59h-370z" />
    <glyph glyph-name="Ecircumflex" unicode="&#xca;" horiz-adv-x="504" 
d="M264 833l-68 -77h-58l101 125h52l101 -125h-58zM80 0v705h370v-59h-302v-252h264v-58h-264v-277h302v-59h-370z" />
    <glyph glyph-name="Edieresis" unicode="&#xcb;" horiz-adv-x="504" 
d="M80 0v705h370v-59h-302v-252h264v-58h-264v-277h302v-59h-370zM329 773v75h70v-75h-70zM135 773v75h70v-75h-70z" />
    <glyph glyph-name="Igrave" unicode="&#xcc;" horiz-adv-x="232" 
d="M118 756l-92 125h71l74 -125h-53zM82 0v705h68v-705h-68z" />
    <glyph glyph-name="Iacute" unicode="&#xcd;" horiz-adv-x="232" 
d="M210 881l-92 -125h-53l74 125h71zM82 0v705h68v-705h-68z" />
    <glyph glyph-name="Icircumflex" unicode="&#xce;" horiz-adv-x="232" 
d="M82 0v705h68v-705h-68zM117 857l-90 -93h-64l121 144h64l121 -144h-64z" />
    <glyph glyph-name="Idieresis" unicode="&#xcf;" horiz-adv-x="232" 
d="M157 773v75h70v-75h-70zM6 773v75h69v-75h-69zM82 0v705h68v-705h-68z" />
    <glyph glyph-name="Eth" unicode="&#xd0;" horiz-adv-x="692" 
d="M368 334h-212v-275h87q162 0 252 66t90 222q0 155 -91.5 227t-250.5 72h-87v-257h212v-55zM88 0v334h-80v55h80v316h160q185 0 296 -89.5t111 -268.5q0 -177 -110 -262t-297 -85h-160z" />
    <glyph glyph-name="Ntilde" unicode="&#xd1;" horiz-adv-x="712" 
d="M631 -13h-22l-463 578v-565h-66v716h24l462 -574v563h65v-718zM430 828q38 0 68 40l4 -1l20 -42q-13 -22 -37.5 -37.5t-53.5 -15.5q-32 0 -70.5 15.5t-55.5 15.5q-41 0 -72 -39l-3 2l-19 45q15 21 40.5 35t53.5 14t66 -16t59 -16z" />
    <glyph glyph-name="Ograve" unicode="&#xd2;" horiz-adv-x="769" 
d="M397 756l-92 125h71l74 -125h-53zM385 -10q-149 0 -248.5 104.5t-99.5 260.5t99 258t249 102t248.5 -102t98.5 -258t-99 -260.5t-248 -104.5zM385 49q122 0 199 85t77 221q0 135 -77 218t-199 83t-199.5 -83t-77.5 -218q0 -136 78 -221t199 -85z" />
    <glyph glyph-name="Oacute" unicode="&#xd3;" horiz-adv-x="769" 
d="M507 881l-92 -125h-53l74 125h71zM385 -10q-149 0 -248.5 104.5t-99.5 260.5t99 258t249 102t248.5 -102t98.5 -258t-99 -260.5t-248 -104.5zM385 49q122 0 199 85t77 221q0 135 -77 218t-199 83t-199.5 -83t-77.5 -218q0 -136 78 -221t199 -85z" />
    <glyph glyph-name="Ocircumflex" unicode="&#xd4;" horiz-adv-x="769" 
d="M385 833l-68 -77h-58l101 125h52l101 -125h-58zM385 -10q-149 0 -248.5 104.5t-99.5 260.5t99 258t249 102t248.5 -102t98.5 -258t-99 -260.5t-248 -104.5zM385 49q122 0 199 85t77 221q0 135 -77 218t-199 83t-199.5 -83t-77.5 -218q0 -136 78 -221t199 -85z" />
    <glyph glyph-name="Otilde" unicode="&#xd5;" horiz-adv-x="769" 
d="M448 813q28 -3 54 32l4 -1l12 -39q-11 -19 -31 -32t-42 -10q-26 2 -54.5 18t-42.5 17q-29 4 -58 -31l-3 2l-11 42q13 17 34 28.5t42 9.5q22 -2 50 -18.5t46 -17.5zM385 -10q-149 0 -248.5 104.5t-99.5 260.5t99 258t249 102t248.5 -102t98.5 -258t-99 -260.5t-248 -104.5
zM385 49q122 0 199 85t77 221q0 135 -77 218t-199 83t-199.5 -83t-77.5 -218q0 -136 78 -221t199 -85z" />
    <glyph glyph-name="Odieresis" unicode="&#xd6;" horiz-adv-x="769" 
d="M446 773v75h70v-75h-70zM252 773v75h70v-75h-70zM385 -10q-149 0 -248.5 104.5t-99.5 260.5t99 258t249 102t248.5 -102t98.5 -258t-99 -260.5t-248 -104.5zM385 49q122 0 199 85t77 221q0 135 -77 218t-199 83t-199.5 -83t-77.5 -218q0 -136 78 -221t199 -85z" />
    <glyph glyph-name="multiply" unicode="&#xd7;" horiz-adv-x="503" 
d="M405 153l-153 154l-155 -155l-39 41l154 154l-154 153l40 40l154 -153l153 153l39 -41l-152 -152l153 -154z" />
    <glyph glyph-name="Oslash" unicode="&#xd8;" horiz-adv-x="769" 
d="M108 355q0 -129 66 -209l381 455q-71 55 -170 55q-122 0 -199.5 -83t-77.5 -218zM385 49q122 0 199 85t77 221q0 128 -68 209l-382 -456q71 -59 174 -59zM385 -10q-125 0 -212 72l-85 -101l-40 34l86 103q-97 103 -97 257q0 156 99 258t249 102q119 0 209 -68l77 92
l40 -34l-78 -93q99 -101 99 -257t-99 -260.5t-248 -104.5z" />
    <glyph glyph-name="Ugrave" unicode="&#xd9;" horiz-adv-x="674" 
d="M333 756l-92 125h71l74 -125h-53zM335 -10q-119 0 -191.5 70t-72.5 197v448h68v-446q0 -101 52 -155.5t144 -54.5t146.5 54.5t54.5 155.5v446h67v-448q0 -126 -74 -196.5t-194 -70.5z" />
    <glyph glyph-name="Uacute" unicode="&#xda;" horiz-adv-x="674" 
d="M455 881l-92 -125h-53l74 125h71zM335 -10q-119 0 -191.5 70t-72.5 197v448h68v-446q0 -101 52 -155.5t144 -54.5t146.5 54.5t54.5 155.5v446h67v-448q0 -126 -74 -196.5t-194 -70.5z" />
    <glyph glyph-name="Ucircumflex" unicode="&#xdb;" horiz-adv-x="674" 
d="M338 857l-90 -93h-64l121 144h64l121 -144h-64zM335 -10q-119 0 -191.5 70t-72.5 197v448h68v-446q0 -101 52 -155.5t144 -54.5t146.5 54.5t54.5 155.5v446h67v-448q0 -126 -74 -196.5t-194 -70.5z" />
    <glyph glyph-name="Udieresis" unicode="&#xdc;" horiz-adv-x="674" 
d="M335 -10q-119 0 -191.5 70t-72.5 197v448h68v-446q0 -101 52 -155.5t144 -54.5t146.5 54.5t54.5 155.5v446h67v-448q0 -126 -74 -196.5t-194 -70.5zM399 773v75h70v-75h-70zM205 773v75h70v-75h-70z" />
    <glyph glyph-name="Yacute" unicode="&#xdd;" horiz-adv-x="556" 
d="M394 881l-92 -125h-53l74 125h71zM314 0h-68v296l-237 405v4h71l200 -347l200 347h67v-4l-233 -401v-300z" />
    <glyph glyph-name="Thorn" unicode="&#xde;" horiz-adv-x="549" 
d="M285 496h-137v-268h146q81 0 118 34.5t37 102.5q0 67 -39 99t-125 32zM303 171h-155v-171h-68v705h68v-149h139q113 0 172 -49t59 -144q0 -93 -57.5 -142.5t-157.5 -49.5z" />
    <glyph glyph-name="germandbls" unicode="&#xdf;" horiz-adv-x="535" 
d="M206 79l2 2q52 -35 119 -35q52 0 86 25.5t34 73.5q0 32 -21.5 58.5t-52.5 45.5t-62 37.5t-52.5 41.5t-21.5 49q0 29 23.5 57t51.5 46.5t51.5 49.5t23.5 66q0 46 -32 73t-86 27q-61 0 -100 -35t-39 -111v-550h-64v552q0 101 57 150t146 49q78 0 130.5 -42.5t52.5 -112.5
q0 -41 -23 -77.5t-51 -57t-51 -42t-23 -36.5q0 -14 21.5 -30.5t52 -34t61 -39.5t52 -56.5t21.5 -75.5q0 -77 -48.5 -117t-126.5 -40q-81 0 -131 32v57z" />
    <glyph glyph-name="agrave" unicode="&#xe0;" horiz-adv-x="489" 
d="M238 602l-92 125h71l74 -125h-53zM209 45q102 0 154 76v141l-119 -20q-77 -13 -112.5 -36t-35.5 -69q0 -44 29.5 -68t83.5 -24zM372 0l-6 68q-53 -78 -161 -78q-78 0 -126.5 38.5t-48.5 108.5q0 72 51.5 104.5t149.5 49.5l132 23v13q0 81 -34.5 113.5t-108.5 32.5
q-81 0 -150 -41l-3 2v54q60 42 158 42t150 -46.5t52 -150.5v-333h-55z" />
    <glyph glyph-name="aacute" unicode="&#xe1;" horiz-adv-x="489" 
d="M361 727l-92 -125h-53l74 125h71zM209 45q102 0 154 76v141l-119 -20q-77 -13 -112.5 -36t-35.5 -69q0 -44 29.5 -68t83.5 -24zM372 0l-6 68q-53 -78 -161 -78q-78 0 -126.5 38.5t-48.5 108.5q0 72 51.5 104.5t149.5 49.5l132 23v13q0 81 -34.5 113.5t-108.5 32.5
q-81 0 -150 -41l-3 2v54q60 42 158 42t150 -46.5t52 -150.5v-333h-55z" />
    <glyph glyph-name="acircumflex" unicode="&#xe2;" horiz-adv-x="489" 
d="M244 669l-68 -77h-58l101 125h52l101 -125h-58zM209 45q102 0 154 76v141l-119 -20q-77 -13 -112.5 -36t-35.5 -69q0 -44 29.5 -68t83.5 -24zM372 0l-6 68q-53 -78 -161 -78q-78 0 -126.5 38.5t-48.5 108.5q0 72 51.5 104.5t149.5 49.5l132 23v13q0 81 -34.5 113.5
t-108.5 32.5q-81 0 -150 -41l-3 2v54q60 42 158 42t150 -46.5t52 -150.5v-333h-55z" />
    <glyph glyph-name="atilde" unicode="&#xe3;" horiz-adv-x="489" 
d="M306 658q28 -3 54 32l4 -1l12 -39q-11 -19 -31 -32t-42 -10q-26 2 -54.5 18t-42.5 17q-29 4 -58 -31l-3 2l-11 42q13 17 34 28.5t42 9.5q22 -2 50 -18.5t46 -17.5zM209 45q102 0 154 76v141l-119 -20q-77 -13 -112.5 -36t-35.5 -69q0 -44 29.5 -68t83.5 -24zM372 0l-6 68
q-53 -78 -161 -78q-78 0 -126.5 38.5t-48.5 108.5q0 72 51.5 104.5t149.5 49.5l132 23v13q0 81 -34.5 113.5t-108.5 32.5q-81 0 -150 -41l-3 2v54q60 42 158 42t150 -46.5t52 -150.5v-333h-55z" />
    <glyph glyph-name="adieresis" unicode="&#xe4;" horiz-adv-x="489" 
d="M209 45q102 0 154 76v141l-119 -20q-77 -13 -112.5 -36t-35.5 -69q0 -44 29.5 -68t83.5 -24zM372 0l-6 68q-53 -78 -161 -78q-78 0 -126.5 38.5t-48.5 108.5q0 72 51.5 104.5t149.5 49.5l132 23v13q0 81 -34.5 113.5t-108.5 32.5q-81 0 -150 -41l-3 2v54q60 42 158 42
t150 -46.5t52 -150.5v-333h-55zM118 637v74h70v-74h-70zM286 637v74h70v-74h-70z" />
    <glyph glyph-name="aring" unicode="&#xe5;" horiz-adv-x="489" 
d="M209 45q102 0 154 76v141l-119 -20q-77 -13 -112.5 -36t-35.5 -69q0 -44 29.5 -68t83.5 -24zM372 0l-6 68q-53 -78 -161 -78q-78 0 -126.5 38.5t-48.5 108.5q0 72 51.5 104.5t149.5 49.5l132 23v13q0 81 -34.5 113.5t-108.5 32.5q-81 0 -150 -41l-3 2v54q60 42 158 42
t150 -46.5t52 -150.5v-333h-55zM237 589q-47 0 -76 29t-29 74t29 73.5t76 28.5t76 -28.5t29 -73.5t-29 -74t-76 -29zM237 752q-26 0 -41.5 -16.5t-15.5 -43.5t15.5 -44t41.5 -17q27 0 42.5 17t15.5 44t-15.5 43.5t-42.5 16.5z" />
    <glyph glyph-name="ae" unicode="&#xe6;" horiz-adv-x="850" 
d="M607 473q-71 0 -116.5 -41t-58.5 -115h321q-2 76 -40 116t-106 40zM808 96v-60q-75 -46 -178 -46q-149 0 -221 105q-68 -105 -203 -105q-78 0 -126 38.5t-48 108.5q0 72 51 104.5t149 49.5l132 23v13q0 81 -34 113.5t-108 32.5q-81 0 -151 -41l-3 2v54q62 42 159 42
q76 0 122 -25.5t63 -85.5q61 111 196 111q101 0 160.5 -66t50.5 -199h-392v-4q0 -103 55 -158.5t150 -55.5q93 0 173 51zM210 45q65 0 108 29t61 81q-16 45 -16 105l-117 -20q-77 -12 -113 -34.5t-36 -68.5q0 -44 29.5 -68t83.5 -24z" />
    <glyph glyph-name="ccedilla" unicode="&#xe7;" horiz-adv-x="484" 
d="M247 -218q-43 0 -74 19v45l3 1q39 -18 63 -18q50 0 50 42q0 37 -75 46v85q-84 24 -133.5 92.5t-49.5 166.5q0 122 75.5 195.5t188.5 73.5q90 0 143 -32v-58l-3 -2q-63 36 -140 36q-85 0 -141.5 -57t-56.5 -156t55 -157t146 -58q87 0 150 46l3 -2v-56q-57 -44 -152 -44
q-13 0 -35 2v-41q85 -15 85 -82q0 -40 -27 -63.5t-75 -23.5z" />
    <glyph glyph-name="egrave" unicode="&#xe8;" horiz-adv-x="520" 
d="M278 602l-92 125h71l74 -125h-53zM276 473q-71 0 -117 -41t-59 -115h322q-2 76 -40 116t-106 40zM477 96v-60q-75 -46 -178 -46q-123 0 -195.5 72.5t-72.5 198.5q0 121 68.5 195t177.5 74q101 0 160.5 -66t50.5 -199h-393v-4q0 -104 54.5 -159t151.5 -55q92 0 172 51z
" />
    <glyph glyph-name="eacute" unicode="&#xe9;" horiz-adv-x="520" 
d="M400 727l-92 -125h-53l74 125h71zM276 473q-71 0 -117 -41t-59 -115h322q-2 76 -40 116t-106 40zM477 96v-60q-75 -46 -178 -46q-123 0 -195.5 72.5t-72.5 198.5q0 121 68.5 195t177.5 74q101 0 160.5 -66t50.5 -199h-393v-4q0 -104 54.5 -159t151.5 -55q92 0 172 51z
" />
    <glyph glyph-name="ecircumflex" unicode="&#xea;" horiz-adv-x="520" 
d="M284 669l-68 -77h-58l101 125h52l101 -125h-58zM276 473q-71 0 -117 -41t-59 -115h322q-2 76 -40 116t-106 40zM477 96v-60q-75 -46 -178 -46q-123 0 -195.5 72.5t-72.5 198.5q0 121 68.5 195t177.5 74q101 0 160.5 -66t50.5 -199h-393v-4q0 -104 54.5 -159t151.5 -55
q92 0 172 51z" />
    <glyph glyph-name="edieresis" unicode="&#xeb;" horiz-adv-x="520" 
d="M151 637v74h70v-74h-70zM319 637v74h70v-74h-70zM276 473q-71 0 -117 -41t-59 -115h322q-2 76 -40 116t-106 40zM477 96v-60q-75 -46 -178 -46q-123 0 -195.5 72.5t-72.5 198.5q0 121 68.5 195t177.5 74q101 0 160.5 -66t50.5 -199h-393v-4q0 -104 54.5 -159t151.5 -55
q92 0 172 51z" />
    <glyph glyph-name="igrave" unicode="&#xec;" horiz-adv-x="203" 
d="M103 602l-92 125h71l74 -125h-53zM69 0v520h65v-520h-65z" />
    <glyph glyph-name="iacute" unicode="&#xed;" horiz-adv-x="203" 
d="M195 727l-92 -125h-53l74 125h71zM69 0v520h65v-520h-65z" />
    <glyph glyph-name="icircumflex" unicode="&#xee;" horiz-adv-x="203" 
d="M101 704l-85 -98h-62l116 147h64l116 -147h-62zM69 0v520h65v-520h-65z" />
    <glyph glyph-name="idieresis" unicode="&#xef;" horiz-adv-x="203" 
d="M-2 637v74h70v-74h-70zM136 637v74h69v-74h-69zM69 0v520h65v-520h-65z" />
    <glyph glyph-name="eth" unicode="&#xf0;" horiz-adv-x="583" 
d="M290 -10q-111 0 -185 75t-74 196t71.5 195t178.5 74q112 0 174 -70q-41 94 -157 181l-136 -77l-21 40l117 65q-7 5 -118 76l1 2h94q16 -10 77 -48l100 56l21 -39l-81 -46q197 -152 197 -368q0 -162 -71 -237t-188 -75zM290 46q90 0 142.5 59t52.5 188q0 49 -8 94
q-65 87 -186 87q-86 0 -140.5 -57.5t-54.5 -155.5q0 -99 55 -157t139 -58z" />
    <glyph glyph-name="ntilde" unicode="&#xf1;" horiz-adv-x="532" 
d="M286 476q-83 0 -156 -57v-419h-64v520h56l6 -59q82 69 173 69q81 0 125 -43t44 -124v-363h-64v350q0 126 -120 126zM328 693q37 0 66 40l4 -2l21 -42q-33 -52 -90 -52q-31 0 -65.5 14.5t-52.5 14.5q-37 0 -69 -39l-3 1l-19 45q33 49 90 49q29 0 63 -14.5t55 -14.5z" />
    <glyph glyph-name="ograve" unicode="&#xf2;" horiz-adv-x="587" 
d="M293 602l-92 125h71l74 -125h-53zM293 -10q-113 0 -187.5 75t-74.5 196t74 195t188 74q113 0 188 -74t75 -195t-75 -196t-188 -75zM293 46q86 0 142 58.5t56 156.5q0 97 -56 155t-142 58t-141.5 -58t-55.5 -155q0 -98 55.5 -156.5t141.5 -58.5z" />
    <glyph glyph-name="oacute" unicode="&#xf3;" horiz-adv-x="587" 
d="M421 727l-92 -125h-53l74 125h71zM293 -10q-113 0 -187.5 75t-74.5 196t74 195t188 74q113 0 188 -74t75 -195t-75 -196t-188 -75zM293 46q86 0 142 58.5t56 156.5q0 97 -56 155t-142 58t-141.5 -58t-55.5 -155q0 -98 55.5 -156.5t141.5 -58.5z" />
    <glyph glyph-name="ocircumflex" unicode="&#xf4;" horiz-adv-x="587" 
d="M292 669l-68 -77h-58l101 125h52l101 -125h-58zM293 -10q-113 0 -187.5 75t-74.5 196t74 195t188 74q113 0 188 -74t75 -195t-75 -196t-188 -75zM293 46q86 0 142 58.5t56 156.5q0 97 -56 155t-142 58t-141.5 -58t-55.5 -155q0 -98 55.5 -156.5t141.5 -58.5z" />
    <glyph glyph-name="otilde" unicode="&#xf5;" horiz-adv-x="587" 
d="M367 658q28 -3 54 32l4 -1l12 -39q-11 -19 -31 -32t-42 -10q-26 2 -54.5 18t-42.5 17q-29 4 -58 -31l-3 2l-11 42q13 17 34 28.5t42 9.5q22 -2 50 -18.5t46 -17.5zM293 -10q-113 0 -187.5 75t-74.5 196t74 195t188 74q113 0 188 -74t75 -195t-75 -196t-188 -75zM293 46
q86 0 142 58.5t56 156.5q0 97 -56 155t-142 58t-141.5 -58t-55.5 -155q0 -98 55.5 -156.5t141.5 -58.5z" />
    <glyph glyph-name="odieresis" unicode="&#xf6;" horiz-adv-x="587" 
d="M174 637v74h70v-74h-70zM342 637v74h70v-74h-70zM293 -10q-113 0 -187.5 75t-74.5 196t74 195t188 74q113 0 188 -74t75 -195t-75 -196t-188 -75zM293 46q86 0 142 58.5t56 156.5q0 97 -56 155t-142 58t-141.5 -58t-55.5 -155q0 -98 55.5 -156.5t141.5 -58.5z" />
    <glyph glyph-name="divide" unicode="&#xf7;" horiz-adv-x="507" 
d="M213 481v84h81v-84h-81zM51 319v54h405v-54h-405zM213 127v84h81v-84h-81z" />
    <glyph glyph-name="oslash" unicode="&#xf8;" horiz-adv-x="587" 
d="M95 261q0 -88 43 -144l271 324q-48 33 -116 33q-86 0 -142 -58t-56 -155zM293 46q87 0 143 58.5t56 156.5q0 93 -48 148l-272 -326q49 -37 121 -37zM293 -10q-90 0 -158 49l-61 -72l-36 30l62 74q-69 75 -69 190q0 121 74 195t188 74q86 0 153 -45l59 71l37 -30l-60 -71
q74 -74 74 -194q0 -121 -75 -196t-188 -75z" />
    <glyph glyph-name="ugrave" unicode="&#xf9;" horiz-adv-x="536" 
d="M257 602l-92 125h71l74 -125h-53zM414 0l-6 59q-84 -69 -176 -69q-81 0 -126.5 42t-45.5 122v366h64v-353q0 -123 123 -123q82 0 159 57v419h64v-520h-56z" />
    <glyph glyph-name="uacute" unicode="&#xfa;" horiz-adv-x="536" 
d="M380 727l-92 -125h-53l74 125h71zM414 0l-6 59q-84 -69 -176 -69q-81 0 -126.5 42t-45.5 122v366h64v-353q0 -123 123 -123q82 0 159 57v419h64v-520h-56z" />
    <glyph glyph-name="ucircumflex" unicode="&#xfb;" horiz-adv-x="536" 
d="M266 704l-85 -98h-62l116 147h64l116 -147h-62zM414 0l-6 59q-84 -69 -176 -69q-81 0 -126.5 42t-45.5 122v366h64v-353q0 -123 123 -123q82 0 159 57v419h64v-520h-56z" />
    <glyph glyph-name="udieresis" unicode="&#xfc;" horiz-adv-x="536" 
d="M148 637v74h70v-74h-70zM316 637v74h70v-74h-70zM414 0l-6 59q-84 -69 -176 -69q-81 0 -126.5 42t-45.5 122v366h64v-353q0 -123 123 -123q82 0 159 57v419h64v-520h-56z" />
    <glyph glyph-name="yacute" unicode="&#xfd;" horiz-adv-x="485" 
d="M361 727l-92 -125h-53l74 125h71zM48 -219v59q55 8 86 34t52 77l28 72l-206 493v4h68l172 -422l164 422h65v-4l-230 -579q-31 -77 -77 -113.5t-122 -42.5z" />
    <glyph glyph-name="thorn" unicode="&#xfe;" horiz-adv-x="573" 
d="M295 45q80 0 131 58t51 166q0 101 -51 153.5t-128 52.5q-101 0 -167 -76v-281q62 -73 164 -73zM298 -11q-104 0 -167 78v-277h-65v943l65 17v-299q67 80 172 80t171.5 -70.5t66.5 -191.5q0 -128 -66.5 -204t-176.5 -76z" />
    <glyph glyph-name="ydieresis" unicode="&#xff;" horiz-adv-x="485" 
d="M48 -219v59q55 8 86 34t52 77l28 72l-206 493v4h68l172 -422l164 422h65v-4l-230 -579q-31 -77 -77 -113.5t-122 -42.5zM130 637v74h70v-74h-70zM298 637v74h70v-74h-70z" />
    <glyph glyph-name="Amacron" unicode="&#x100;" 
d="M440 254l-131 320l-130 -320h261zM544 0l-80 196h-309l-80 -196h-67v4l297 710h11l298 -710v-4h-70zM171 775v55h279v-55h-279z" />
    <glyph glyph-name="amacron" unicode="&#x101;" horiz-adv-x="489" 
d="M209 45q102 0 154 76v141l-119 -20q-77 -13 -112.5 -36t-35.5 -69q0 -44 29.5 -68t83.5 -24zM372 0l-6 68q-53 -78 -161 -78q-78 0 -126.5 38.5t-48.5 108.5q0 72 51.5 104.5t149.5 49.5l132 23v13q0 81 -34.5 113.5t-108.5 32.5q-81 0 -150 -41l-3 2v54q60 42 158 42
t150 -46.5t52 -150.5v-333h-55zM104 649v55h272v-55h-272z" />
    <glyph glyph-name="Abreve" unicode="&#x102;" 
d="M311 756q-56 0 -87 31t-35 82h49q8 -68 72 -68q65 0 73 68h49q-4 -51 -34.5 -82t-86.5 -31zM440 254l-131 320l-130 -320h261zM544 0l-80 196h-309l-80 -196h-67v4l297 710h11l298 -710v-4h-70z" />
    <glyph glyph-name="abreve" unicode="&#x103;" horiz-adv-x="489" 
d="M255 595q-56 0 -87 31t-35 82h49q8 -68 72 -68q65 0 73 68h49q-4 -51 -34.5 -82t-86.5 -31zM209 45q102 0 154 76v141l-119 -20q-77 -13 -112.5 -36t-35.5 -69q0 -44 29.5 -68t83.5 -24zM372 0l-6 68q-53 -78 -161 -78q-78 0 -126.5 38.5t-48.5 108.5q0 72 51.5 104.5
t149.5 49.5l132 23v13q0 81 -34.5 113.5t-108.5 32.5q-81 0 -150 -41l-3 2v54q60 42 158 42t150 -46.5t52 -150.5v-333h-55z" />
    <glyph glyph-name="Aogonek" unicode="&#x104;" 
d="M577 -221q-56 0 -86 25.5t-30 68.5q0 73 83 126l-81 197h-308l-80 -196h-67v4l297 710h11l298 -710v-4q-42 -24 -65.5 -55t-23.5 -59q0 -52 59 -52q30 0 55 13l2 -2v-50q-30 -16 -64 -16zM440 254l-131 320l-130 -320h261z" />
    <glyph glyph-name="aogonek" unicode="&#x105;" horiz-adv-x="489" 
d="M209 45q102 0 154 76v141l-119 -20q-77 -13 -112.5 -36t-35.5 -69q0 -44 29.5 -68t83.5 -24zM455 -155v-50q-30 -16 -64 -16q-56 0 -86 25.5t-30 68.5q0 77 96 133l-5 62q-53 -78 -161 -78q-78 0 -126.5 38.5t-48.5 108.5q0 72 51.5 104.5t149.5 49.5l132 23v13
q0 81 -34.5 113.5t-108.5 32.5q-81 0 -150 -41l-3 2v54q60 42 158 42t150 -46.5t52 -150.5v-333q-88 -55 -88 -114q0 -52 59 -52q33 0 55 13z" />
    <glyph glyph-name="Cacute" unicode="&#x106;" horiz-adv-x="652" 
d="M404 -10q-160 0 -263.5 103t-103.5 262q0 158 103 259t262 101q102 0 189 -41v-68l-3 -1q-79 51 -186 51q-134 0 -214 -83t-80 -218q0 -136 81 -221t215 -85q120 0 205 69l3 -2v-68q-86 -58 -208 -58zM407 764h-62l94 141h82z" />
    <glyph glyph-name="cacute" unicode="&#x107;" horiz-adv-x="484" 
d="M298 606h-63l102 164h81zM299 -10q-118 0 -193 74.5t-75 196.5t75.5 195.5t188.5 73.5q90 0 143 -32v-58l-3 -2q-63 36 -140 36q-85 0 -141.5 -57t-56.5 -156t55 -157t146 -58q87 0 150 46l3 -2v-56q-57 -44 -152 -44z" />
    <glyph glyph-name="Ccircumflex" unicode="&#x108;" horiz-adv-x="652" 
d="M379 857l-90 -93h-64l121 144h64l121 -144h-64zM404 -10q-160 0 -263.5 103t-103.5 262q0 158 103 259t262 101q102 0 189 -41v-68l-3 -1q-79 51 -186 51q-134 0 -214 -83t-80 -218q0 -136 81 -221t215 -85q120 0 205 69l3 -2v-68q-86 -58 -208 -58z" />
    <glyph glyph-name="ccircumflex" unicode="&#x109;" horiz-adv-x="484" 
d="M274 704l-85 -98h-62l116 147h64l116 -147h-62zM299 -10q-118 0 -193 74.5t-75 196.5t75.5 195.5t188.5 73.5q90 0 143 -32v-58l-3 -2q-63 36 -140 36q-85 0 -141.5 -57t-56.5 -156t55 -157t146 -58q87 0 150 46l3 -2v-56q-57 -44 -152 -44z" />
    <glyph glyph-name="Cdotaccent" unicode="&#x10a;" horiz-adv-x="652" 
d="M404 -10q-160 0 -263.5 103t-103.5 262q0 158 103 259t262 101q102 0 189 -41v-68l-3 -1q-79 51 -186 51q-134 0 -214 -83t-80 -218q0 -136 81 -221t215 -85q120 0 205 69l3 -2v-68q-86 -58 -208 -58zM341 773v78h73v-78h-73z" />
    <glyph glyph-name="cdotaccent" unicode="&#x10b;" horiz-adv-x="484" 
d="M299 -10q-118 0 -193 74.5t-75 196.5t75.5 195.5t188.5 73.5q90 0 143 -32v-58l-3 -2q-63 36 -140 36q-85 0 -141.5 -57t-56.5 -156t55 -157t146 -58q87 0 150 46l3 -2v-56q-57 -44 -152 -44zM239 635v78h73v-78h-73z" />
    <glyph glyph-name="Ccaron" unicode="&#x10c;" horiz-adv-x="652" 
d="M379 815l88 93h64l-121 -144h-64l-121 144h64zM404 -10q-160 0 -263.5 103t-103.5 262q0 158 103 259t262 101q102 0 189 -41v-68l-3 -1q-79 51 -186 51q-134 0 -214 -83t-80 -218q0 -136 81 -221t215 -85q120 0 205 69l3 -2v-68q-86 -58 -208 -58z" />
    <glyph glyph-name="ccaron" unicode="&#x10d;" horiz-adv-x="484" 
d="M276 653l85 98h62l-116 -147h-64l-116 147h62zM299 -10q-118 0 -193 74.5t-75 196.5t75.5 195.5t188.5 73.5q90 0 143 -32v-58l-3 -2q-63 36 -140 36q-85 0 -141.5 -57t-56.5 -156t55 -157t146 -58q87 0 150 46l3 -2v-56q-57 -44 -152 -44z" />
    <glyph glyph-name="Dcaron" unicode="&#x10e;" horiz-adv-x="684" 
d="M321 815l88 93h64l-121 -144h-64l-121 144h64zM235 646h-87v-587h87q162 0 251.5 66t89.5 222q0 155 -91 227t-250 72zM80 0v705h160q185 0 296 -89.5t111 -268.5q0 -177 -110 -262t-297 -85h-160z" />
    <glyph glyph-name="dcaron" unicode="&#x10f;" horiz-adv-x="572" 
d="M556 581l8 158h65v-6l-27 -152h-46zM456 0l-9 76q-67 -87 -179 -87q-106 0 -171.5 71t-65.5 193q0 126 67.5 202t176.5 76q104 0 167 -78v280l64 17v-750h-50zM273 45q103 0 169 76v281q-62 73 -164 73q-79 0 -130.5 -58t-51.5 -164q0 -103 49.5 -155.5t127.5 -52.5z" />
    <glyph glyph-name="Dcroat" unicode="&#x110;" horiz-adv-x="692" 
d="M346 321h-190v-262h87q162 0 252 66t90 222q0 155 -91.5 227t-250.5 72h-87v-270h190v-55zM88 0v321h-61v55h61v329h160q185 0 296 -89.5t111 -268.5q0 -177 -110 -262t-297 -85h-160z" />
    <glyph glyph-name="dslash" unicode="&#x111;" horiz-adv-x="572" 
d="M456 0l-9 76q-67 -87 -179 -87q-106 0 -171.5 71t-65.5 193q0 126 67.5 202t176.5 76q104 0 167 -78v150h-170v47h170v83l64 17v-100h73v-47h-73v-603h-50zM273 45q103 0 169 76v281q-62 73 -164 73q-79 0 -130.5 -58t-51.5 -164q0 -103 49.5 -155.5t127.5 -52.5z" />
    <glyph glyph-name="Emacron" unicode="&#x112;" horiz-adv-x="504" 
d="M80 0v705h370v-59h-302v-252h264v-58h-264v-277h302v-59h-370zM128 775v55h279v-55h-279z" />
    <glyph glyph-name="emacron" unicode="&#x113;" horiz-adv-x="520" 
d="M276 473q-71 0 -117 -41t-59 -115h322q-2 76 -40 116t-106 40zM477 96v-60q-75 -46 -178 -46q-123 0 -195.5 72.5t-72.5 198.5q0 121 68.5 195t177.5 74q101 0 160.5 -66t50.5 -199h-393v-4q0 -104 54.5 -159t151.5 -55q92 0 172 51zM134 649v55h272v-55h-272z" />
    <glyph glyph-name="Ebreve" unicode="&#x114;" horiz-adv-x="504" 
d="M80 0v705h370v-59h-302v-252h264v-58h-264v-277h302v-59h-370zM268 756q-59 0 -97.5 37.5t-42.5 96.5h53q11 -79 87 -79q75 0 86 79h53q-4 -59 -41.5 -96.5t-97.5 -37.5z" />
    <glyph glyph-name="ebreve" unicode="&#x115;" horiz-adv-x="520" 
d="M276 473q-71 0 -117 -41t-59 -115h322q-2 76 -40 116t-106 40zM477 96v-60q-75 -46 -178 -46q-123 0 -195.5 72.5t-72.5 198.5q0 121 68.5 195t177.5 74q101 0 160.5 -66t50.5 -199h-393v-4q0 -104 54.5 -159t151.5 -55q92 0 172 51zM271 613q-59 0 -97 37t-42 97h53
q11 -80 86 -80q36 0 58 21t27 59h53q-4 -60 -41.5 -97t-96.5 -37z" />
    <glyph glyph-name="Edotaccent" unicode="&#x116;" horiz-adv-x="504" 
d="M231 773v78h73v-78h-73zM80 0v705h370v-59h-302v-252h264v-58h-264v-277h302v-59h-370z" />
    <glyph glyph-name="edotaccent" unicode="&#x117;" horiz-adv-x="520" 
d="M276 473q-71 0 -117 -41t-59 -115h322q-2 76 -40 116t-106 40zM477 96v-60q-75 -46 -178 -46q-123 0 -195.5 72.5t-72.5 198.5q0 121 68.5 195t177.5 74q101 0 160.5 -66t50.5 -199h-393v-4q0 -104 54.5 -159t151.5 -55q92 0 172 51zM234 635v78h73v-78h-73z" />
    <glyph glyph-name="Eogonek" unicode="&#x118;" horiz-adv-x="504" 
d="M430 -155v-50q-30 -16 -64 -16q-56 0 -86 25.5t-30 68.5q0 76 90 127h63q-89 -52 -89 -114q0 -52 59 -52q30 0 55 13zM80 0v705h370v-59h-302v-252h264v-58h-264v-277h302v-59h-370z" />
    <glyph glyph-name="eogonek" unicode="&#x119;" horiz-adv-x="520" 
d="M276 473q-71 0 -117 -41t-59 -115h322q-2 76 -40 116t-106 40zM436 -154v-50q-28 -17 -67 -17q-58 0 -88 25.5t-30 69.5q0 70 78 119q-15 -3 -30 -3q-123 0 -195.5 72.5t-72.5 198.5q0 121 68.5 195t177.5 74q101 0 160.5 -66t50.5 -199h-393v-4q0 -104 54.5 -159
t151.5 -55q92 0 172 51l4 -2v-60q-8 -4 -35.5 -18t-41.5 -23q-85 -46 -85 -108q0 -26 13.5 -39.5t47.5 -13.5q31 0 57 14z" />
    <glyph glyph-name="Ecaron" unicode="&#x11a;" horiz-adv-x="504" 
d="M268 815l88 93h64l-121 -144h-64l-121 144h64zM80 0v705h370v-59h-302v-252h264v-58h-264v-277h302v-59h-370z" />
    <glyph glyph-name="ecaron" unicode="&#x11b;" horiz-adv-x="520" 
d="M271 653l85 98h62l-116 -147h-64l-116 147h62zM276 473q-71 0 -117 -41t-59 -115h322q-2 76 -40 116t-106 40zM477 96v-60q-75 -46 -178 -46q-123 0 -195.5 72.5t-72.5 198.5q0 121 68.5 195t177.5 74q101 0 160.5 -66t50.5 -199h-393v-4q0 -104 54.5 -159t151.5 -55
q92 0 172 51z" />
    <glyph glyph-name="Gcircumflex" unicode="&#x11c;" horiz-adv-x="688" 
d="M379 857l-90 -93h-64l121 144h64l121 -144h-64zM625 369v-307q-109 -72 -228 -72q-166 0 -263 102t-97 263q0 158 102 259t261 101q106 0 194 -43v-66l-3 -2q-81 52 -191 52q-133 0 -212.5 -83t-79.5 -218q0 -138 75.5 -222t213.5 -84q89 0 162 42v220h-178v58h244z" />
    <glyph glyph-name="gcircumflex" unicode="&#x11d;" horiz-adv-x="482" 
d="M240 704l-85 -98h-62l116 147h64l116 -147h-62zM230 226q55 0 92 35t37 91q0 58 -36.5 92.5t-92.5 34.5q-57 0 -93 -34t-36 -93q0 -56 37 -91t92 -35zM235 -218q-105 0 -165.5 34.5t-60.5 99.5q0 45 28 69h54l2 -2q-23 -29 -23 -62q0 -88 165 -88q86 0 132 32t46 83
q0 37 -22.5 52t-71.5 17l-146 7q-114 4 -114 90q0 61 65 93q-85 47 -85 145q0 80 53.5 128t136.5 48q35 0 71 -14l163 10v-53h-103q59 -43 59 -119q0 -78 -54.5 -125t-135.5 -47q-27 0 -59 8q-30 -11 -42.5 -25t-12.5 -37q0 -20 15.5 -29.5t50.5 -11.5l144 -6
q74 -4 112.5 -33.5t38.5 -95.5q0 -76 -64 -122t-177 -46z" />
    <glyph glyph-name="Gbreve" unicode="&#x11e;" horiz-adv-x="688" 
d="M378 756q-59 0 -97.5 37.5t-42.5 96.5h53q11 -79 87 -79q75 0 86 79h53q-4 -59 -41.5 -96.5t-97.5 -37.5zM625 369v-307q-109 -72 -228 -72q-166 0 -263 102t-97 263q0 158 102 259t261 101q106 0 194 -43v-66l-3 -2q-81 52 -191 52q-133 0 -212.5 -83t-79.5 -218
q0 -138 75.5 -222t213.5 -84q89 0 162 42v220h-178v58h244z" />
    <glyph glyph-name="gbreve" unicode="&#x11f;" horiz-adv-x="482" 
d="M230 226q55 0 92 35t37 91q0 58 -36.5 92.5t-92.5 34.5q-57 0 -93 -34t-36 -93q0 -56 37 -91t92 -35zM235 -218q-105 0 -165.5 34.5t-60.5 99.5q0 45 28 69h54l2 -2q-23 -29 -23 -62q0 -88 165 -88q86 0 132 32t46 83q0 37 -22.5 52t-71.5 17l-146 7q-114 4 -114 90
q0 61 65 93q-85 47 -85 145q0 80 53.5 128t136.5 48q35 0 71 -14l163 10v-53h-103q59 -43 59 -119q0 -78 -54.5 -125t-135.5 -47q-27 0 -59 8q-30 -11 -42.5 -25t-12.5 -37q0 -20 15.5 -29.5t50.5 -11.5l144 -6q74 -4 112.5 -33.5t38.5 -95.5q0 -76 -64 -122t-177 -46z
M242 613q-59 0 -97 37t-42 97h53q11 -80 86 -80q36 0 58 21t27 59h53q-4 -60 -41.5 -97t-96.5 -37z" />
    <glyph glyph-name="Gdotaccent" unicode="&#x120;" horiz-adv-x="688" 
d="M341 773v78h73v-78h-73zM625 369v-307q-109 -72 -228 -72q-166 0 -263 102t-97 263q0 158 102 259t261 101q106 0 194 -43v-66l-3 -2q-81 52 -191 52q-133 0 -212.5 -83t-79.5 -218q0 -138 75.5 -222t213.5 -84q89 0 162 42v220h-178v58h244z" />
    <glyph glyph-name="gdotaccent" unicode="&#x121;" horiz-adv-x="482" 
d="M230 226q55 0 92 35t37 91q0 58 -36.5 92.5t-92.5 34.5q-57 0 -93 -34t-36 -93q0 -56 37 -91t92 -35zM235 -218q-105 0 -165.5 34.5t-60.5 99.5q0 45 28 69h54l2 -2q-23 -29 -23 -62q0 -88 165 -88q86 0 132 32t46 83q0 37 -22.5 52t-71.5 17l-146 7q-114 4 -114 90
q0 61 65 93q-85 47 -85 145q0 80 53.5 128t136.5 48q35 0 71 -14l163 10v-53h-103q59 -43 59 -119q0 -78 -54.5 -125t-135.5 -47q-27 0 -59 8q-30 -11 -42.5 -25t-12.5 -37q0 -20 15.5 -29.5t50.5 -11.5l144 -6q74 -4 112.5 -33.5t38.5 -95.5q0 -76 -64 -122t-177 -46z
M205 635v78h73v-78h-73z" />
    <glyph glyph-name="uni0122" unicode="&#x122;" horiz-adv-x="688" 
d="M330 -199l12 144h71v-6l-30 -138h-53zM625 369v-307q-109 -72 -228 -72q-166 0 -263 102t-97 263q0 158 102 259t261 101q106 0 194 -43v-66l-3 -2q-81 52 -191 52q-133 0 -212.5 -83t-79.5 -218q0 -138 75.5 -222t213.5 -84q89 0 162 42v220h-178v58h244z" />
    <glyph glyph-name="uni0123" unicode="&#x123;" horiz-adv-x="482" 
d="M282 752l-12 -143h-71l-1 2l31 141h53zM230 226q55 0 92 35t37 91q0 58 -36.5 92.5t-92.5 34.5q-57 0 -93 -34t-36 -93q0 -56 37 -91t92 -35zM235 -218q-105 0 -165.5 34.5t-60.5 99.5q0 45 28 69h54l2 -2q-23 -29 -23 -62q0 -88 165 -88q86 0 132 32t46 83
q0 37 -22.5 52t-71.5 17l-146 7q-114 4 -114 90q0 61 65 93q-85 47 -85 145q0 80 53.5 128t136.5 48q35 0 71 -14l163 10v-53h-103q59 -43 59 -119q0 -78 -54.5 -125t-135.5 -47q-27 0 -59 8q-30 -11 -42.5 -25t-12.5 -37q0 -20 15.5 -29.5t50.5 -11.5l144 -6
q74 -4 112.5 -33.5t38.5 -95.5q0 -76 -64 -122t-177 -46z" />
    <glyph glyph-name="Hcircumflex" unicode="&#x124;" horiz-adv-x="703" 
d="M555 0v327h-407v-327h-68v705h68v-318h407v318h68v-705h-68zM352 857l-90 -93h-64l121 144h64l121 -144h-64z" />
    <glyph glyph-name="hcircumflex" unicode="&#x125;" horiz-adv-x="532" 
d="M286 476q-83 0 -156 -57v-419h-64v733l64 17v-287q82 67 171 67q81 0 125 -43t44 -124v-363h-64v350q0 126 -120 126zM267 877l-90 -93h-64l121 144h64l121 -144h-64z" />
    <glyph glyph-name="Hbar" unicode="&#x126;" horiz-adv-x="703" 
d="M555 387v124h-407v-124h407zM555 0v327h-407v-327h-68v511h-88v53h88v141h68v-141h407v141h68v-141h84v-53h-84v-511h-68z" />
    <glyph glyph-name="hbar" unicode="&#x127;" horiz-adv-x="532" 
d="M286 476q-83 0 -156 -57v-419h-64v603h-73v47h73v83l64 17v-100h170v-47h-170v-140q82 67 171 67q81 0 125 -43t44 -124v-363h-64v350q0 126 -120 126z" />
    <glyph glyph-name="Itilde" unicode="&#x128;" horiz-adv-x="232" 
d="M172 813q28 -3 54 32l4 -1l12 -39q-11 -19 -31 -32t-42 -10q-26 2 -54.5 18t-42.5 17q-29 4 -58 -31l-3 2l-11 42q13 17 34 28.5t42 9.5q22 -2 50 -18.5t46 -17.5zM82 0v705h68v-705h-68z" />
    <glyph glyph-name="itilde" unicode="&#x129;" horiz-adv-x="203" 
d="M155 658q28 -3 54 32l4 -1l12 -39q-11 -19 -31 -32t-42 -10q-26 2 -54.5 18t-42.5 17q-29 4 -58 -31l-3 2l-11 42q13 17 34 28.5t42 9.5q22 -2 50 -18.5t46 -17.5zM69 0v520h65v-520h-65z" />
    <glyph glyph-name="Imacron" unicode="&#x12a;" horiz-adv-x="232" 
d="M7 775v55h218v-55h-218zM82 0v705h68v-705h-68z" />
    <glyph glyph-name="imacron" unicode="&#x12b;" horiz-adv-x="203" 
d="M3 649v55h197v-55h-197zM69 0v520h65v-520h-65z" />
    <glyph glyph-name="Ibreve" unicode="&#x12c;" horiz-adv-x="232" 
d="M82 0v705h68v-705h-68zM117 756q-59 0 -97.5 37.5t-42.5 96.5h53q11 -79 87 -79q75 0 86 79h53q-4 -59 -41.5 -96.5t-97.5 -37.5z" />
    <glyph glyph-name="ibreve" unicode="&#x12d;" horiz-adv-x="203" 
d="M69 0v520h65v-520h-65zM103 613q-59 0 -97 37t-42 97h53q11 -80 86 -80q36 0 58 21t27 59h53q-4 -60 -41.5 -97t-96.5 -37z" />
    <glyph glyph-name="Iogonek" unicode="&#x12e;" horiz-adv-x="232" 
d="M176 -155v-50q-30 -16 -63 -16q-55 0 -84.5 25t-29.5 69q0 79 83 129v703h68v-705q-42 -24 -64.5 -54.5t-22.5 -60.5q0 -51 57 -51q29 0 54 13z" />
    <glyph glyph-name="iogonek" unicode="&#x12f;" horiz-adv-x="203" 
d="M67 636v74h69v-74h-69zM165 -155v-50q-30 -16 -64 -16q-54 0 -83.5 25.5t-29.5 68.5q0 79 81 131v516h65v-520q-82 -53 -82 -115q0 -51 57 -51q29 0 54 13z" />
    <glyph glyph-name="Idot" unicode="&#x130;" horiz-adv-x="232" 
d="M82 0v705h68v-705h-68zM80 773v78h73v-78h-73z" />
    <glyph glyph-name="dotlessi" unicode="&#x131;" horiz-adv-x="203" 
d="M69 0v520h65v-520h-65z" />
    <glyph glyph-name="IJ" unicode="&#x132;" horiz-adv-x="462" 
d="M192 -171v60q65 15 92.5 50t27.5 113v653h68v-657q0 -106 -45 -154t-143 -65zM82 0v705h68v-705h-68z" />
    <glyph glyph-name="ij" unicode="&#x133;" horiz-adv-x="419" 
d="M286 636v74h69v-74h-69zM67 636v74h69v-74h-69zM69 0v520h65v-520h-65zM194 -219v57q48 4 71 32t23 97v553h65v-556q0 -94 -40.5 -136.5t-118.5 -46.5z" />
    <glyph glyph-name="Jcircumflex" unicode="&#x134;" horiz-adv-x="237" 
d="M121 857l-90 -93h-64l121 144h64l121 -144h-64zM-32 -171v60q65 15 92.5 50t27.5 113v653h67v-657q0 -106 -45 -154t-142 -65z" />
    <glyph glyph-name="jcircumflex" unicode="&#x135;" horiz-adv-x="197" 
d="M-28 -219v57q48 4 71 32t23 97v553h65v-556q0 -94 -40.5 -136.5t-118.5 -46.5zM99 704l-85 -98h-62l116 147h64l116 -147h-62z" />
    <glyph glyph-name="uni0136" unicode="&#x136;" horiz-adv-x="588" 
d="M260 -199l12 144h71v-6l-30 -138h-53zM492 0l-250 360l-94 -103v-257h-68v705h68v-367l328 367h73v-4q-11 -12 -106 -119q-93 -106 -154 -173l279 -405v-4h-76z" />
    <glyph glyph-name="uni0137" unicode="&#x137;" horiz-adv-x="477" 
d="M200 -199l12 144h71v-6l-30 -138h-53zM392 0l-193 264l-69 -75v-189h-64v733l64 17v-488l237 258h72v-4l-195 -208l217 -303v-5h-69z" />
    <glyph glyph-name="Lacute" unicode="&#x139;" horiz-adv-x="485" 
d="M143 764h-62l94 141h82zM80 0v705h68v-647h303v-58h-371z" />
    <glyph glyph-name="lacute" unicode="&#x13a;" horiz-adv-x="204" 
d="M132 787h-62l94 141h82zM70 0v733l64 17v-750h-64z" />
    <glyph glyph-name="uni013B" unicode="&#x13b;" horiz-adv-x="485" 
d="M214 -199l12 144h71v-6l-30 -138h-53zM80 0v705h68v-647h303v-58h-371z" />
    <glyph glyph-name="uni013C" unicode="&#x13c;" horiz-adv-x="204" 
d="M55 -199l12 144h71v-6l-30 -138h-53zM70 0v733l64 17v-750h-64z" />
    <glyph glyph-name="Lcaron" unicode="&#x13d;" horiz-adv-x="485" 
d="M215 547l8 158h65v-6l-27 -152h-46zM80 0v705h68v-647h303v-58h-371z" />
    <glyph glyph-name="lcaron" unicode="&#x13e;" horiz-adv-x="204" 
d="M186 581l8 158h65v-6l-27 -152h-46zM70 0v733l64 17v-750h-64z" />
    <glyph glyph-name="Ldot" unicode="&#x13f;" horiz-adv-x="485" 
d="M345 342v76h74v-76h-74zM80 0v705h68v-647h303v-58h-371z" />
    <glyph glyph-name="ldot" unicode="&#x140;" horiz-adv-x="281" 
d="M70 0v733l64 17v-750h-64zM206 337v77h73v-77h-73z" />
    <glyph glyph-name="Lslash" unicode="&#x141;" horiz-adv-x="489" 
d="M85 0v265l-73 -28v58l73 28v382h68v-356l200 77v-57l-200 -77v-234h303v-58h-371z" />
    <glyph glyph-name="lslash" unicode="&#x142;" horiz-adv-x="230" 
d="M145 0h-65v375l-70 -42v59l70 42v299l65 17v-277l79 48v-59l-79 -48v-414z" />
    <glyph glyph-name="Nacute" unicode="&#x143;" horiz-adv-x="712" 
d="M631 -13h-22l-463 578v-565h-66v716h24l462 -574v563h65v-718zM396 764h-62l94 141h82z" />
    <glyph glyph-name="nacute" unicode="&#x144;" horiz-adv-x="532" 
d="M292 606h-63l102 164h81zM286 476q-83 0 -156 -57v-419h-64v520h56l6 -59q82 69 173 69q81 0 125 -43t44 -124v-363h-64v350q0 126 -120 126z" />
    <glyph glyph-name="uni0145" unicode="&#x145;" horiz-adv-x="712" 
d="M309 -199l12 144h71v-6l-30 -138h-53zM631 -13h-22l-463 578v-565h-66v716h24l462 -574v563h65v-718z" />
    <glyph glyph-name="uni0146" unicode="&#x146;" horiz-adv-x="532" 
d="M221 -199l12 144h71v-6l-30 -138h-53zM286 476q-83 0 -156 -57v-419h-64v520h56l6 -59q82 69 173 69q81 0 125 -43t44 -124v-363h-64v350q0 126 -120 126z" />
    <glyph glyph-name="Ncaron" unicode="&#x147;" horiz-adv-x="712" 
d="M631 -13h-22l-463 578v-565h-66v716h24l462 -574v563h65v-718zM368 815l88 93h64l-121 -144h-64l-121 144h64z" />
    <glyph glyph-name="ncaron" unicode="&#x148;" horiz-adv-x="532" 
d="M270 653l85 98h62l-116 -147h-64l-116 147h62zM286 476q-83 0 -156 -57v-419h-64v520h56l6 -59q82 69 173 69q81 0 125 -43t44 -124v-363h-64v350q0 126 -120 126z" />
    <glyph glyph-name="napostrophe" unicode="&#x149;" horiz-adv-x="543" 
d="M64 705v-6l-49 -173h-48l30 179h67zM298 476q-83 0 -156 -57v-419h-64v520h56l6 -59q82 69 173 69q81 0 125 -43t44 -124v-363h-64v350q0 126 -120 126z" />
    <glyph glyph-name="Eng" unicode="&#x14a;" horiz-adv-x="712" 
d="M444 -171v60q64 15 91 47.5t29 106.5l-418 522v-565h-66v716h24l462 -574v563h65v-657q0 -106 -45 -154t-142 -65z" />
    <glyph glyph-name="eng" unicode="&#x14b;" horiz-adv-x="532" 
d="M309 -219v57q49 4 73 32t24 97v383q0 126 -120 126q-83 0 -156 -57v-419h-64v520h56l6 -59q82 69 173 69q81 0 125 -43t44 -124v-399q0 -94 -41 -136.5t-120 -46.5z" />
    <glyph glyph-name="Omacron" unicode="&#x14c;" horiz-adv-x="769" 
d="M245 775v55h279v-55h-279zM385 -10q-149 0 -248.5 104.5t-99.5 260.5t99 258t249 102t248.5 -102t98.5 -258t-99 -260.5t-248 -104.5zM385 49q122 0 199 85t77 221q0 135 -77 218t-199 83t-199.5 -83t-77.5 -218q0 -136 78 -221t199 -85z" />
    <glyph glyph-name="omacron" unicode="&#x14d;" horiz-adv-x="587" 
d="M157 649v55h272v-55h-272zM293 -10q-113 0 -187.5 75t-74.5 196t74 195t188 74q113 0 188 -74t75 -195t-75 -196t-188 -75zM293 46q86 0 142 58.5t56 156.5q0 97 -56 155t-142 58t-141.5 -58t-55.5 -155q0 -98 55.5 -156.5t141.5 -58.5z" />
    <glyph glyph-name="Obreve" unicode="&#x14e;" horiz-adv-x="769" 
d="M385 756q-59 0 -97.5 37.5t-42.5 96.5h53q11 -79 87 -79q75 0 86 79h53q-4 -59 -41.5 -96.5t-97.5 -37.5zM385 -10q-149 0 -248.5 104.5t-99.5 260.5t99 258t249 102t248.5 -102t98.5 -258t-99 -260.5t-248 -104.5zM385 49q122 0 199 85t77 221q0 135 -77 218t-199 83
t-199.5 -83t-77.5 -218q0 -136 78 -221t199 -85z" />
    <glyph glyph-name="obreve" unicode="&#x14f;" horiz-adv-x="587" 
d="M293 -10q-113 0 -187.5 75t-74.5 196t74 195t188 74q113 0 188 -74t75 -195t-75 -196t-188 -75zM293 46q86 0 142 58.5t56 156.5q0 97 -56 155t-142 58t-141.5 -58t-55.5 -155q0 -98 55.5 -156.5t141.5 -58.5zM294 613q-59 0 -97 37t-42 97h53q11 -80 86 -80q36 0 58 21
t27 59h53q-4 -60 -41.5 -97t-96.5 -37z" />
    <glyph glyph-name="Ohungarumlaut" unicode="&#x150;" horiz-adv-x="769" 
d="M336 764h-52l60 141h75l-6 -9q-6 -10 -17 -29t-19 -33q-6 -11 -20 -34t-21 -36zM486 764h-53l61 141h75q-6 0 -43 -71zM385 -10q-149 0 -248.5 104.5t-99.5 260.5t99 258t249 102t248.5 -102t98.5 -258t-99 -260.5t-248 -104.5zM385 49q122 0 199 85t77 221
q0 135 -77 218t-199 83t-199.5 -83t-77.5 -218q0 -136 78 -221t199 -85z" />
    <glyph glyph-name="ohungarumlaut" unicode="&#x151;" horiz-adv-x="587" 
d="M252 606h-53l65 164h72zM391 606h-53l66 164h72zM293 -10q-113 0 -187.5 75t-74.5 196t74 195t188 74q113 0 188 -74t75 -195t-75 -196t-188 -75zM293 46q86 0 142 58.5t56 156.5q0 97 -56 155t-142 58t-141.5 -58t-55.5 -155q0 -98 55.5 -156.5t141.5 -58.5z" />
    <glyph glyph-name="OE" unicode="&#x152;" horiz-adv-x="888" 
d="M391 59h72v587h-72q-125 0 -204 -79.5t-79 -211.5q0 -133 79 -214.5t204 -81.5zM833 0h-442q-153 0 -253.5 101t-100.5 254t100.5 251.5t253.5 98.5h442v-59h-302v-252h264v-58h-264v-277h302v-59z" />
    <glyph glyph-name="oe" unicode="&#x153;" horiz-adv-x="978" 
d="M293 46q86 0 142 58.5t56 156.5q0 97 -56 155t-142 58t-141.5 -58t-55.5 -155q0 -98 55.5 -156.5t141.5 -58.5zM735 473q-71 0 -116.5 -41t-58.5 -115h321q-2 76 -40 116t-106 40zM936 96v-60q-75 -46 -178 -46q-88 0 -148.5 40t-87.5 114q-29 -73 -89 -113.5t-140 -40.5
q-113 0 -187.5 75t-74.5 196t74 195t188 74q80 0 140 -40t89 -112q27 72 82.5 112t132.5 40q101 0 160 -66t50 -199h-392v-4q0 -103 55 -158.5t150 -55.5q93 0 173 51z" />
    <glyph glyph-name="Racute" unicode="&#x154;" horiz-adv-x="579" 
d="M307 764h-62l94 141h82zM270 645h-122v-288h137q81 0 123.5 38t42.5 110q0 140 -181 140zM490 0l-206 300h-136v-300h-68v705h192q116 0 182.5 -52t66.5 -150q0 -80 -45.5 -128.5t-122.5 -62.5l213 -307v-5h-76z" />
    <glyph glyph-name="racute" unicode="&#x155;" horiz-adv-x="333" 
d="M214 606h-63l102 164h81zM130 0h-64v520h56l7 -72q52 79 144 79q21 0 42 -4v-58l-4 -3q-22 6 -38 6q-95 0 -143 -75v-393z" />
    <glyph glyph-name="uni0156" unicode="&#x156;" horiz-adv-x="579" 
d="M257 -199l12 144h71v-6l-30 -138h-53zM270 645h-122v-288h137q81 0 123.5 38t42.5 110q0 140 -181 140zM490 0l-206 300h-136v-300h-68v705h192q116 0 182.5 -52t66.5 -150q0 -80 -45.5 -128.5t-122.5 -62.5l213 -307v-5h-76z" />
    <glyph glyph-name="uni0157" unicode="&#x157;" horiz-adv-x="333" 
d="M47 -199l12 144h71v-6l-30 -138h-53zM130 0h-64v520h56l7 -72q52 79 144 79q21 0 42 -4v-58l-4 -3q-22 6 -38 6q-95 0 -143 -75v-393z" />
    <glyph glyph-name="Rcaron" unicode="&#x158;" horiz-adv-x="579" 
d="M279 815l88 93h64l-121 -144h-64l-121 144h64zM270 645h-122v-288h137q81 0 123.5 38t42.5 110q0 140 -181 140zM490 0l-206 300h-136v-300h-68v705h192q116 0 182.5 -52t66.5 -150q0 -80 -45.5 -128.5t-122.5 -62.5l213 -307v-5h-76z" />
    <glyph glyph-name="rcaron" unicode="&#x159;" horiz-adv-x="333" 
d="M192 653l85 98h62l-116 -147h-64l-116 147h62zM130 0h-64v520h56l7 -72q52 79 144 79q21 0 42 -4v-58l-4 -3q-22 6 -38 6q-95 0 -143 -75v-393z" />
    <glyph glyph-name="Sacute" unicode="&#x15a;" horiz-adv-x="502" 
d="M240 -10q-118 0 -203 56v69l4 2q91 -68 199 -68q72 0 113.5 36t41.5 98q0 55 -30.5 84.5t-105.5 57.5l-57 20q-160 55 -160 187q0 84 58 133.5t143 49.5q107 0 178 -45v-64l-3 -1q-43 28 -80.5 40t-91.5 12q-66 0 -102 -32.5t-36 -89.5q0 -48 27 -78t87 -51l57 -20
q90 -31 136.5 -75.5t46.5 -123.5q0 -92 -61.5 -144.5t-160.5 -52.5zM278 764h-62l94 141h82z" />
    <glyph glyph-name="sacute" unicode="&#x15b;" horiz-adv-x="419" 
d="M231 606h-63l102 164h81zM201 -8q-105 0 -171 48v64l3 2q74 -59 168 -59q57 0 89 24t32 68q0 40 -23.5 60t-78.5 36l-50 16q-133 38 -133 141q0 63 48.5 101.5t125.5 38.5q87 0 146 -33v-57l-3 -2q-64 37 -145 37q-52 0 -79.5 -21.5t-27.5 -58.5q0 -35 20.5 -54.5
t64.5 -33.5l51 -15q80 -24 114.5 -55t34.5 -95q0 -72 -54 -112t-132 -40z" />
    <glyph glyph-name="Scircumflex" unicode="&#x15c;" horiz-adv-x="502" 
d="M251 857l-90 -93h-64l121 144h64l121 -144h-64zM240 -10q-118 0 -203 56v69l4 2q91 -68 199 -68q72 0 113.5 36t41.5 98q0 55 -30.5 84.5t-105.5 57.5l-57 20q-160 55 -160 187q0 84 58 133.5t143 49.5q107 0 178 -45v-64l-3 -1q-43 28 -80.5 40t-91.5 12
q-66 0 -102 -32.5t-36 -89.5q0 -48 27 -78t87 -51l57 -20q90 -31 136.5 -75.5t46.5 -123.5q0 -92 -61.5 -144.5t-160.5 -52.5z" />
    <glyph glyph-name="scircumflex" unicode="&#x15d;" horiz-adv-x="419" 
d="M207 704l-85 -98h-62l116 147h64l116 -147h-62zM201 -8q-105 0 -171 48v64l3 2q74 -59 168 -59q57 0 89 24t32 68q0 40 -23.5 60t-78.5 36l-50 16q-133 38 -133 141q0 63 48.5 101.5t125.5 38.5q87 0 146 -33v-57l-3 -2q-64 37 -145 37q-52 0 -79.5 -21.5t-27.5 -58.5
q0 -35 20.5 -54.5t64.5 -33.5l51 -15q80 -24 114.5 -55t34.5 -95q0 -72 -54 -112t-132 -40z" />
    <glyph glyph-name="uni015E" unicode="&#x15e;" horiz-adv-x="502" 
d="M230 -218q-43 0 -74 19v45l3 1q39 -18 63 -18q50 0 50 42q0 37 -75 46v75q-90 9 -160 54v69l4 2q91 -68 199 -68q72 0 113.5 36t41.5 98q0 55 -30.5 84.5t-105.5 57.5l-57 20q-160 55 -160 187q0 84 58 133.5t143 49.5q107 0 178 -45v-64l-3 -1q-43 28 -80.5 40t-91.5 12
q-66 0 -102 -32.5t-36 -89.5q0 -48 27 -78t87 -51l57 -20q90 -31 136.5 -75.5t46.5 -123.5q0 -91 -59.5 -143t-155.5 -54v-39q85 -15 85 -82q0 -40 -27 -63.5t-75 -23.5z" />
    <glyph glyph-name="uni015F" unicode="&#x15f;" horiz-adv-x="419" 
d="M184 -218q-43 0 -74 19v45l3 1q39 -18 63 -18q50 0 50 42q0 37 -75 46v78q-68 9 -121 45v64l3 2q74 -59 168 -59q57 0 89 24t32 68q0 40 -23.5 60t-78.5 36l-50 16q-133 38 -133 141q0 63 48.5 101.5t125.5 38.5q87 0 146 -33v-57l-3 -2q-64 37 -145 37
q-52 0 -79.5 -21.5t-27.5 -58.5q0 -35 20.5 -54.5t64.5 -33.5l51 -15q80 -24 114.5 -55t34.5 -95q0 -72 -54 -112t-132 -40v-41q85 -15 85 -82q0 -40 -27 -63.5t-75 -23.5z" />
    <glyph glyph-name="Scaron" unicode="&#x160;" horiz-adv-x="502" 
d="M251 815l88 93h64l-121 -144h-64l-121 144h64zM240 -10q-118 0 -203 56v69l4 2q91 -68 199 -68q72 0 113.5 36t41.5 98q0 55 -30.5 84.5t-105.5 57.5l-57 20q-160 55 -160 187q0 84 58 133.5t143 49.5q107 0 178 -45v-64l-3 -1q-43 28 -80.5 40t-91.5 12
q-66 0 -102 -32.5t-36 -89.5q0 -48 27 -78t87 -51l57 -20q90 -31 136.5 -75.5t46.5 -123.5q0 -92 -61.5 -144.5t-160.5 -52.5z" />
    <glyph glyph-name="scaron" unicode="&#x161;" horiz-adv-x="419" 
d="M209 653l85 98h62l-116 -147h-64l-116 147h62zM201 -8q-105 0 -171 48v64l3 2q74 -59 168 -59q57 0 89 24t32 68q0 40 -23.5 60t-78.5 36l-50 16q-133 38 -133 141q0 63 48.5 101.5t125.5 38.5q87 0 146 -33v-57l-3 -2q-64 37 -145 37q-52 0 -79.5 -21.5t-27.5 -58.5
q0 -35 20.5 -54.5t64.5 -33.5l51 -15q80 -24 114.5 -55t34.5 -95q0 -72 -54 -112t-132 -40z" />
    <glyph glyph-name="Tcommaaccent" unicode="&#x162;" horiz-adv-x="528" 
d="M216 -199l12 144h71v-6l-30 -138h-53zM512 646h-214v-646h-68v646h-215v59h497v-59z" />
    <glyph glyph-name="tcommaaccent" unicode="&#x163;" horiz-adv-x="341" 
d="M310 55v-50q-37 -13 -80 -13q-57 0 -94.5 29.5t-37.5 90.5v354h-72v54h72v94l65 11v-105h135v-54h-135v-347q0 -72 80 -72q37 0 64 10zM139 -199l12 144h71v-6l-30 -138h-53z" />
    <glyph glyph-name="Tcaron" unicode="&#x164;" horiz-adv-x="528" 
d="M265 815l88 93h64l-121 -144h-64l-121 144h64zM512 646h-214v-646h-68v646h-215v59h497v-59z" />
    <glyph glyph-name="tcaron" unicode="&#x165;" horiz-adv-x="341" 
d="M225 581l8 158h65v-6l-27 -152h-46zM310 55v-50q-37 -13 -80 -13q-57 0 -94.5 29.5t-37.5 90.5v354h-72v54h72v94l65 11v-105h135v-54h-135v-347q0 -72 80 -72q37 0 64 10z" />
    <glyph glyph-name="Tbar" unicode="&#x166;" horiz-adv-x="528" 
d="M459 374h-161v-374h-68v374h-160v53h160v219h-215v59h497v-59h-214v-219h161v-53z" />
    <glyph glyph-name="tbar" unicode="&#x167;" horiz-adv-x="341" 
d="M310 55v-50q-37 -13 -80 -13q-57 0 -94.5 29.5t-37.5 90.5v187h-72v48h72v119h-72v54h72v94l65 11v-105h135v-54h-135v-119h135v-48h-135v-180q0 -72 80 -72q37 0 64 10z" />
    <glyph glyph-name="Utilde" unicode="&#x168;" horiz-adv-x="674" 
d="M393 813q28 -3 54 32l4 -1l12 -39q-11 -19 -31 -32t-42 -10q-26 2 -54.5 18t-42.5 17q-29 4 -58 -31l-3 2l-11 42q13 17 34 28.5t42 9.5q22 -2 50 -18.5t46 -17.5zM335 -10q-119 0 -191.5 70t-72.5 197v448h68v-446q0 -101 52 -155.5t144 -54.5t146.5 54.5t54.5 155.5
v446h67v-448q0 -126 -74 -196.5t-194 -70.5z" />
    <glyph glyph-name="utilde" unicode="&#x169;" horiz-adv-x="536" 
d="M323 658q28 -3 54 32l4 -1l12 -39q-11 -19 -31 -32t-42 -10q-26 2 -54.5 18t-42.5 17q-29 4 -58 -31l-3 2l-11 42q13 17 34 28.5t42 9.5q22 -2 50 -18.5t46 -17.5zM414 0l-6 59q-84 -69 -176 -69q-81 0 -126.5 42t-45.5 122v366h64v-353q0 -123 123 -123q82 0 159 57v419
h64v-520h-56z" />
    <glyph glyph-name="Umacron" unicode="&#x16a;" horiz-adv-x="674" 
d="M335 -10q-119 0 -191.5 70t-72.5 197v448h68v-446q0 -101 52 -155.5t144 -54.5t146.5 54.5t54.5 155.5v446h67v-448q0 -126 -74 -196.5t-194 -70.5zM197 775v55h279v-55h-279z" />
    <glyph glyph-name="umacron" unicode="&#x16b;" horiz-adv-x="536" 
d="M414 0l-6 59q-84 -69 -176 -69q-81 0 -126.5 42t-45.5 122v366h64v-353q0 -123 123 -123q82 0 159 57v419h64v-520h-56zM131 649v55h272v-55h-272z" />
    <glyph glyph-name="Ubreve" unicode="&#x16c;" horiz-adv-x="674" 
d="M335 -10q-119 0 -191.5 70t-72.5 197v448h68v-446q0 -101 52 -155.5t144 -54.5t146.5 54.5t54.5 155.5v446h67v-448q0 -126 -74 -196.5t-194 -70.5zM337 756q-59 0 -97.5 37.5t-42.5 96.5h53q11 -79 87 -79q75 0 86 79h53q-4 -59 -41.5 -96.5t-97.5 -37.5z" />
    <glyph glyph-name="ubreve" unicode="&#x16d;" horiz-adv-x="536" 
d="M414 0l-6 59q-84 -69 -176 -69q-81 0 -126.5 42t-45.5 122v366h64v-353q0 -123 123 -123q82 0 159 57v419h64v-520h-56zM268 613q-59 0 -97 37t-42 97h53q11 -80 86 -80q36 0 58 21t27 59h53q-4 -60 -41.5 -97t-96.5 -37z" />
    <glyph glyph-name="Uring" unicode="&#x16e;" horiz-adv-x="674" 
d="M335 -10q-119 0 -191.5 70t-72.5 197v448h68v-446q0 -101 52 -155.5t144 -54.5t146.5 54.5t54.5 155.5v446h67v-448q0 -126 -74 -196.5t-194 -70.5zM337 713q-47 0 -76 28.5t-29 73.5t29 73.5t76 28.5t76 -28.5t29 -73.5t-29 -73.5t-76 -28.5zM337 876q-26 0 -41.5 -17
t-15.5 -44t15.5 -44t41.5 -17q27 0 42.5 17t15.5 44t-15.5 44t-42.5 17z" />
    <glyph glyph-name="uring" unicode="&#x16f;" horiz-adv-x="536" 
d="M267 589q-47 0 -76 29t-29 74t29 73.5t76 28.5t76 -28.5t29 -73.5t-29 -74t-76 -29zM267 752q-26 0 -41.5 -16.5t-15.5 -43.5t15.5 -44t41.5 -17q27 0 42.5 17t15.5 44t-15.5 43.5t-42.5 16.5zM414 0l-6 59q-84 -69 -176 -69q-81 0 -126.5 42t-45.5 122v366h64v-353
q0 -123 123 -123q82 0 159 57v419h64v-520h-56z" />
    <glyph glyph-name="Uhungarumlaut" unicode="&#x170;" horiz-adv-x="674" 
d="M289 764h-52l60 141h75l-6 -9q-6 -10 -17 -29t-19 -33q-6 -11 -20 -34t-21 -36zM439 764h-53l61 141h75q-6 0 -43 -71zM335 -10q-119 0 -191.5 70t-72.5 197v448h68v-446q0 -101 52 -155.5t144 -54.5t146.5 54.5t54.5 155.5v446h67v-448q0 -126 -74 -196.5t-194 -70.5z
" />
    <glyph glyph-name="uhungarumlaut" unicode="&#x171;" horiz-adv-x="536" 
d="M414 0l-6 59q-84 -69 -176 -69q-81 0 -126.5 42t-45.5 122v366h64v-353q0 -123 123 -123q82 0 159 57v419h64v-520h-56zM226 606h-53l65 164h72zM365 606h-53l66 164h72z" />
    <glyph glyph-name="Uogonek" unicode="&#x172;" horiz-adv-x="674" 
d="M398 -221q-56 0 -86 25.5t-30 68.5q0 75 78 118q-11 -1 -25 -1q-119 0 -191.5 70t-72.5 197v448h68v-446q0 -101 52 -155.5t144 -54.5t146.5 54.5t54.5 155.5v446h67v-448q0 -161 -117 -227q-4 -3 -13 -8q-34 -21 -50 -32t-37.5 -29t-30.5 -36t-9 -39q0 -52 59 -52
q30 0 55 13l2 -2v-50q-30 -16 -64 -16z" />
    <glyph glyph-name="uogonek" unicode="&#x173;" horiz-adv-x="536" 
d="M498 -155v-50q-30 -16 -64 -16q-56 0 -86 25.5t-30 68.5q0 77 95 133l-5 53q-84 -69 -176 -69q-81 0 -126.5 42t-45.5 122v366h64v-353q0 -123 123 -123q82 0 159 57v419h64v-520q-88 -55 -88 -114q0 -52 59 -52q33 0 55 13z" />
    <glyph glyph-name="Wcircumflex" unicode="&#x174;" horiz-adv-x="921" 
d="M641 -10l-182 482l-181 -482h-12l-251 711v4h70l192 -555l150 404l-56 147v4h70l205 -553l192 553h68v-4l-253 -711h-12zM421 857l-90 -93h-64l121 144h64l121 -144h-64z" />
    <glyph glyph-name="wcircumflex" unicode="&#x175;" horiz-adv-x="705" 
d="M507 -10l-155 407l-152 -407h-15l-172 526v4h67l119 -384l145 389h19l145 -390l119 385h65v-4l-170 -526h-15zM352 704l-85 -98h-62l116 147h64l116 -147h-62z" />
    <glyph glyph-name="Ycircumflex" unicode="&#x176;" horiz-adv-x="556" 
d="M314 0h-68v296l-237 405v4h71l200 -347l200 347h67v-4l-233 -401v-300zM281 857l-90 -93h-64l121 144h64l121 -144h-64z" />
    <glyph glyph-name="ycircumflex" unicode="&#x177;" horiz-adv-x="485" 
d="M48 -219v59q55 8 86 34t52 77l28 72l-206 493v4h68l172 -422l164 422h65v-4l-230 -579q-31 -77 -77 -113.5t-122 -42.5zM248 704l-85 -98h-62l116 147h64l116 -147h-62z" />
    <glyph glyph-name="Ydieresis" unicode="&#x178;" horiz-adv-x="556" 
d="M314 0h-68v296l-237 405v4h71l200 -347l200 347h67v-4l-233 -401v-300zM342 773v75h70v-75h-70zM148 773v75h70v-75h-70z" />
    <glyph glyph-name="Zacute" unicode="&#x179;" horiz-adv-x="570" 
d="M316 764h-62l94 141h82zM532 0h-519v17l422 629h-374v59h477v-19l-420 -627h414v-59z" />
    <glyph glyph-name="zacute" unicode="&#x17a;" horiz-adv-x="453" 
d="M261 606h-63l102 164h81zM419 0h-398v17l309 449h-274v54h372v-16l-311 -450h302v-54z" />
    <glyph glyph-name="Zdotaccent" unicode="&#x17b;" horiz-adv-x="570" 
d="M251 773v78h73v-78h-73zM532 0h-519v17l422 629h-374v59h477v-19l-420 -627h414v-59z" />
    <glyph glyph-name="zdotaccent" unicode="&#x17c;" horiz-adv-x="453" 
d="M419 0h-398v17l309 449h-274v54h372v-16l-311 -450h302v-54zM202 635v78h73v-78h-73z" />
    <glyph glyph-name="Zcaron" unicode="&#x17d;" horiz-adv-x="570" 
d="M289 815l88 93h64l-121 -144h-64l-121 144h64zM532 0h-519v17l422 629h-374v59h477v-19l-420 -627h414v-59z" />
    <glyph glyph-name="zcaron" unicode="&#x17e;" horiz-adv-x="453" 
d="M239 653l85 98h62l-116 -147h-64l-116 147h62zM419 0h-398v17l309 449h-274v54h372v-16l-311 -450h302v-54z" />
    <glyph glyph-name="uni0192" unicode="&#x192;" horiz-adv-x="370" 
d="M325 328h-150l-67 -538h-64l67 538h-80v57h87l15 124q23 177 182 177q32 0 56 -8v-52l-3 -2q-26 8 -53 8q-44 0 -76.5 -28t-40.5 -95l-16 -124h143v-57z" />
    <glyph glyph-name="Ohorn" unicode="&#x1a0;" horiz-adv-x="769" 
d="M385 -10q-149 0 -248.5 104.5t-99.5 260.5t99 258t249 102q48 0 88 -10q8 0 25.5 -0.5t31.5 -0.5h15q50 5 50 71h60q0 -94 -79 -115q30 -19 57 -47q99 -101 99 -258q0 -156 -99 -260.5t-248 -104.5zM385 49q122 0 199 85t77 221q0 135 -77 218t-199 83t-199.5 -83
t-77.5 -218q0 -136 78 -221t199 -85z" />
    <glyph glyph-name="ohorn" unicode="&#x1a1;" horiz-adv-x="587" 
d="M293 -10q-113 0 -187.5 75t-74.5 196t74 195t188 74q42 0 76 -10q19 -1 55 -1q50 5 50 71h60q0 -93 -76 -114q21 -18 22 -19q76 -76 76 -196q0 -121 -75 -196t-188 -75zM293 46q86 0 142 58.5t56 156.5q0 97 -56 155t-142 58t-141.5 -58t-55.5 -155q0 -98 55.5 -156.5
t141.5 -58.5z" />
    <glyph glyph-name="Uhorn" unicode="&#x1af;" horiz-adv-x="674" 
d="M335 -10q-119 0 -191.5 70t-72.5 197v448h68v-446q0 -101 52 -155.5t144 -54.5t146.5 54.5t54.5 155.5v446h57q41 10 41 70h60q0 -54 -23 -81.5t-68 -35.5v-401q0 -126 -74 -196.5t-194 -70.5z" />
    <glyph glyph-name="uhorn" unicode="&#x1b0;" horiz-adv-x="536" 
d="M414 0l-6 59q-84 -69 -176 -69q-81 0 -126.5 42t-45.5 122v366h64v-353q0 -123 123 -123q82 0 159 57v419h54q41 10 41 70h60q0 -54 -23 -81.5t-68 -35.5v-473h-56z" />
    <glyph glyph-name="Aringacute" unicode="&#x1fa;" 
d="M440 254l-131 320l-130 -320h261zM544 0l-80 196h-309l-80 -196h-67v4l297 710h11l298 -710v-4h-70zM340 950h-62l94 141h82zM311 726q-47 0 -76 28.5t-29 73.5t29 73.5t76 28.5t76 -28.5t29 -73.5t-29 -73.5t-76 -28.5zM311 889q-26 0 -41.5 -17t-15.5 -44t15.5 -44
t41.5 -17q27 0 42.5 17t15.5 44t-15.5 44t-42.5 17z" />
    <glyph glyph-name="aringacute" unicode="&#x1fb;" horiz-adv-x="489" 
d="M209 45q102 0 154 76v141l-119 -20q-77 -13 -112.5 -36t-35.5 -69q0 -44 29.5 -68t83.5 -24zM372 0l-6 68q-53 -78 -161 -78q-78 0 -126.5 38.5t-48.5 108.5q0 72 51.5 104.5t149.5 49.5l132 23v13q0 81 -34.5 113.5t-108.5 32.5q-81 0 -150 -41l-3 2v54q60 42 158 42
t150 -46.5t52 -150.5v-333h-55zM243 589q-47 0 -76 29t-29 74t29 73.5t76 28.5t76 -28.5t29 -73.5t-29 -74t-76 -29zM243 752q-26 0 -41.5 -16.5t-15.5 -43.5t15.5 -44t41.5 -17q27 0 42.5 17t15.5 44t-15.5 43.5t-42.5 16.5zM273 821h-62l94 141h82z" />
    <glyph glyph-name="AEacute" unicode="&#x1fc;" horiz-adv-x="871" 
d="M586 764h-62l94 141h82zM447 254v392h-6l-224 -392h230zM447 0v196h-264l-112 -196h-67v4l405 701h407v-59h-302v-252h264v-58h-264v-277h303v-59h-370z" />
    <glyph glyph-name="aeacute" unicode="&#x1fd;" horiz-adv-x="850" 
d="M452 606h-63l102 164h81zM607 473q-71 0 -116.5 -41t-58.5 -115h321q-2 76 -40 116t-106 40zM808 96v-60q-75 -46 -178 -46q-149 0 -221 105q-68 -105 -203 -105q-78 0 -126 38.5t-48 108.5q0 72 51 104.5t149 49.5l132 23v13q0 81 -34 113.5t-108 32.5q-81 0 -151 -41
l-3 2v54q62 42 159 42q76 0 122 -25.5t63 -85.5q61 111 196 111q101 0 160.5 -66t50.5 -199h-392v-4q0 -103 55 -158.5t150 -55.5q93 0 173 51zM210 45q65 0 108 29t61 81q-16 45 -16 105l-117 -20q-77 -12 -113 -34.5t-36 -68.5q0 -44 29.5 -68t83.5 -24z" />
    <glyph glyph-name="Oslashacute" unicode="&#x1fe;" horiz-adv-x="769" 
d="M108 355q0 -129 66 -209l381 455q-71 55 -170 55q-122 0 -199.5 -83t-77.5 -218zM385 49q122 0 199 85t77 221q0 128 -68 209l-382 -456q71 -59 174 -59zM385 -10q-125 0 -212 72l-85 -101l-40 34l86 103q-97 103 -97 257q0 156 99 258t249 102q119 0 209 -68l77 92
l40 -34l-78 -93q99 -101 99 -257t-99 -260.5t-248 -104.5zM413 764h-62l94 141h82z" />
    <glyph glyph-name="oslashacute" unicode="&#x1ff;" horiz-adv-x="587" 
d="M95 261q0 -88 43 -144l271 324q-48 33 -116 33q-86 0 -142 -58t-56 -155zM293 46q87 0 143 58.5t56 156.5q0 93 -48 148l-272 -326q49 -37 121 -37zM293 -10q-90 0 -158 49l-61 -72l-36 30l62 74q-69 75 -69 190q0 121 74 195t188 74q86 0 153 -45l59 71l37 -30l-60 -71
q74 -74 74 -194q0 -121 -75 -196t-188 -75zM316 606h-63l102 164h81z" />
    <glyph glyph-name="uni0218" unicode="&#x218;" horiz-adv-x="502" 
d="M200 -199l12 144h71v-6l-30 -138h-53zM240 -10q-118 0 -203 56v69l4 2q91 -68 199 -68q72 0 113.5 36t41.5 98q0 55 -30.5 84.5t-105.5 57.5l-57 20q-160 55 -160 187q0 84 58 133.5t143 49.5q107 0 178 -45v-64l-3 -1q-43 28 -80.5 40t-91.5 12q-66 0 -102 -32.5
t-36 -89.5q0 -48 27 -78t87 -51l57 -20q90 -31 136.5 -75.5t46.5 -123.5q0 -92 -61.5 -144.5t-160.5 -52.5z" />
    <glyph glyph-name="uni0219" unicode="&#x219;" horiz-adv-x="419" 
d="M154 -199l12 144h71v-6l-30 -138h-53zM201 -8q-105 0 -171 48v64l3 2q74 -59 168 -59q57 0 89 24t32 68q0 40 -23.5 60t-78.5 36l-50 16q-133 38 -133 141q0 63 48.5 101.5t125.5 38.5q87 0 146 -33v-57l-3 -2q-64 37 -145 37q-52 0 -79.5 -21.5t-27.5 -58.5
q0 -35 20.5 -54.5t64.5 -33.5l51 -15q80 -24 114.5 -55t34.5 -95q0 -72 -54 -112t-132 -40z" />
    <glyph glyph-name="uni021A" unicode="&#x21a;" horiz-adv-x="528" 
d="M216 -199l12 144h71v-6l-30 -138h-53zM512 646h-214v-646h-68v646h-215v59h497v-59z" />
    <glyph glyph-name="uni021B" unicode="&#x21b;" horiz-adv-x="341" 
d="M310 55v-50q-37 -13 -80 -13q-57 0 -94.5 29.5t-37.5 90.5v354h-72v54h72v94l65 11v-105h135v-54h-135v-347q0 -72 80 -72q37 0 64 10zM139 -199l12 144h71v-6l-30 -138h-53z" />
    <glyph glyph-name="uni0237" unicode="&#x237;" horiz-adv-x="197" 
d="M-28 -219v57q48 4 71 32t23 97v553h65v-556q0 -94 -40.5 -136.5t-118.5 -46.5z" />
    <glyph glyph-name="circumflex" unicode="&#x2c6;" horiz-adv-x="400" 
d="M199 704l-85 -98h-62l116 147h64l116 -147h-62z" />
    <glyph glyph-name="caron" unicode="&#x2c7;" horiz-adv-x="400" 
d="M201 653l85 98h62l-116 -147h-64l-116 147h62z" />
    <glyph glyph-name="breve" unicode="&#x2d8;" horiz-adv-x="400" 
d="M200 613q-59 0 -97 37t-42 97h53q11 -80 86 -80q36 0 58 21t27 59h53q-4 -60 -41.5 -97t-96.5 -37z" />
    <glyph glyph-name="dotaccent" unicode="&#x2d9;" horiz-adv-x="400" 
d="M163 635v78h73v-78h-73z" />
    <glyph glyph-name="ring" unicode="&#x2da;" horiz-adv-x="400" 
d="M200 589q-47 0 -76 29t-29 74t29 73.5t76 28.5t76 -28.5t29 -73.5t-29 -74t-76 -29zM200 752q-26 0 -41.5 -16.5t-15.5 -43.5t15.5 -44t41.5 -17q27 0 42.5 17t15.5 44t-15.5 43.5t-42.5 16.5z" />
    <glyph glyph-name="ogonek" unicode="&#x2db;" horiz-adv-x="400" 
d="M292 -155v-50q-30 -16 -64 -16q-56 0 -86 25.5t-30 68.5q0 76 90 127h63q-89 -52 -89 -114q0 -52 59 -52q30 0 55 13z" />
    <glyph glyph-name="tilde" unicode="&#x2dc;" horiz-adv-x="400" 
d="M251 693q37 0 66 40l4 -2l21 -42q-33 -52 -90 -52q-31 0 -65.5 14.5t-52.5 14.5q-37 0 -69 -39l-3 1l-19 45q33 49 90 49q29 0 63 -14.5t55 -14.5z" />
    <glyph glyph-name="hungarumlaut" unicode="&#x2dd;" horiz-adv-x="400" 
d="M141 606h-53l65 164h72zM280 606h-53l66 164h72z" />
    <glyph glyph-name="Wgrave" unicode="&#x1e80;" horiz-adv-x="921" 
d="M641 -10l-182 482l-181 -482h-12l-251 711v4h70l192 -555l150 404l-56 147v4h70l205 -553l192 553h68v-4l-253 -711h-12zM394 764l-114 141h82l94 -141h-62z" />
    <glyph glyph-name="wgrave" unicode="&#x1e81;" horiz-adv-x="705" 
d="M507 -10l-155 407l-152 -407h-15l-172 526v4h67l119 -384l145 389h19l145 -390l119 385h65v-4l-170 -526h-15zM332 606l-120 164h81l102 -164h-63z" />
    <glyph glyph-name="Wacute" unicode="&#x1e82;" horiz-adv-x="921" 
d="M641 -10l-182 482l-181 -482h-12l-251 711v4h70l192 -555l150 404l-56 147v4h70l205 -553l192 553h68v-4l-253 -711h-12zM449 764h-62l94 141h82z" />
    <glyph glyph-name="wacute" unicode="&#x1e83;" horiz-adv-x="705" 
d="M507 -10l-155 407l-152 -407h-15l-172 526v4h67l119 -384l145 389h19l145 -390l119 385h65v-4l-170 -526h-15zM375 606h-63l102 164h81z" />
    <glyph glyph-name="Wdieresis" unicode="&#x1e84;" horiz-adv-x="921" 
d="M641 -10l-182 482l-181 -482h-12l-251 711v4h70l192 -555l150 404l-56 147v4h70l205 -553l192 553h68v-4l-253 -711h-12zM482 773v75h70v-75h-70zM288 773v75h70v-75h-70z" />
    <glyph glyph-name="wdieresis" unicode="&#x1e85;" horiz-adv-x="705" 
d="M507 -10l-155 407l-152 -407h-15l-172 526v4h67l119 -384l145 389h19l145 -390l119 385h65v-4l-170 -526h-15zM234 637v74h70v-74h-70zM402 637v74h70v-74h-70z" />
    <glyph glyph-name="uni1EA0" unicode="&#x1ea0;" 
d="M274 -192v84h68v-84h-68zM440 254l-131 320l-130 -320h261zM544 0l-80 196h-309l-80 -196h-67v4l297 710h11l298 -710v-4h-70z" />
    <glyph glyph-name="uni1EA1" unicode="&#x1ea1;" horiz-adv-x="489" 
d="M187 -192v84h68v-84h-68zM209 45q102 0 154 76v141l-119 -20q-77 -13 -112.5 -36t-35.5 -69q0 -44 29.5 -68t83.5 -24zM372 0l-6 68q-53 -78 -161 -78q-78 0 -126.5 38.5t-48.5 108.5q0 72 51.5 104.5t149.5 49.5l132 23v13q0 81 -34.5 113.5t-108.5 32.5q-81 0 -150 -41
l-3 2v54q60 42 158 42t150 -46.5t52 -150.5v-333h-55z" />
    <glyph glyph-name="uni1EA2" unicode="&#x1ea2;" 
d="M248 853v44q25 15 72 16q74 -2 80 -62q2 -39 -32 -59q-32 -20 -36 -36h-44q3 34 33 52q30 20 30 34q1 14 -7.5 20.5t-33.5 6.5q-35 -3 -62 -16zM440 254l-131 320l-130 -320h261zM544 0l-80 196h-309l-80 -196h-67v4l297 710h11l298 -710v-4h-70z" />
    <glyph glyph-name="uni1EA3" unicode="&#x1ea3;" horiz-adv-x="489" 
d="M193 699v44q25 15 72 16q74 -2 80 -62q2 -39 -32 -59q-31 -20 -36 -36h-44q3 34 33 52q30 20 30 34q1 14 -7.5 20.5t-33.5 6.5q-35 -3 -62 -16zM209 45q102 0 154 76v141l-119 -20q-77 -13 -112.5 -36t-35.5 -69q0 -44 29.5 -68t83.5 -24zM372 0l-6 68q-53 -78 -161 -78
q-78 0 -126.5 38.5t-48.5 108.5q0 72 51.5 104.5t149.5 49.5l132 23v13q0 81 -34.5 113.5t-108.5 32.5q-81 0 -150 -41l-3 2v54q60 42 158 42t150 -46.5t52 -150.5v-333h-55z" />
    <glyph glyph-name="uni1EA4" unicode="&#x1ea4;" 
d="M526 964l-72 -105h-53l54 105h71zM312 833l-68 -77h-58l101 125h52l101 -125h-58zM440 254l-131 320l-130 -320h261zM544 0l-80 196h-309l-80 -196h-67v4l297 710h11l298 -710v-4h-70z" />
    <glyph glyph-name="uni1EA5" unicode="&#x1ea5;" horiz-adv-x="489" 
d="M458 800l-72 -105h-53l54 105h71zM244 669l-68 -77h-58l101 125h52l101 -125h-58zM209 45q102 0 154 76v141l-119 -20q-77 -13 -112.5 -36t-35.5 -69q0 -44 29.5 -68t83.5 -24zM372 0l-6 68q-53 -78 -161 -78q-78 0 -126.5 38.5t-48.5 108.5q0 72 51.5 104.5t149.5 49.5
l132 23v13q0 81 -34.5 113.5t-108.5 32.5q-81 0 -150 -41l-3 2v54q60 42 158 42t150 -46.5t52 -150.5v-333h-55z" />
    <glyph glyph-name="uni1EA6" unicode="&#x1ea6;" 
d="M422 859l-72 105h71l54 -105h-53zM312 833l-68 -77h-58l101 125h52l101 -125h-58zM440 254l-131 320l-130 -320h261zM544 0l-80 196h-309l-80 -196h-67v4l297 710h11l298 -710v-4h-70z" />
    <glyph glyph-name="uni1EA7" unicode="&#x1ea7;" horiz-adv-x="489" 
d="M354 695l-72 105h71l54 -105h-53zM244 669l-68 -77h-58l101 125h52l101 -125h-58zM209 45q102 0 154 76v141l-119 -20q-77 -13 -112.5 -36t-35.5 -69q0 -44 29.5 -68t83.5 -24zM372 0l-6 68q-53 -78 -161 -78q-78 0 -126.5 38.5t-48.5 108.5q0 72 51.5 104.5t149.5 49.5
l132 23v13q0 81 -34.5 113.5t-108.5 32.5q-81 0 -150 -41l-3 2v54q60 42 158 42t150 -46.5t52 -150.5v-333h-55z" />
    <glyph glyph-name="uni1EA8" unicode="&#x1ea8;" 
d="M362 947v40q23 14 71 15q72 -2 78 -56q1 -35 -31 -54q-30 -17 -35 -33h-44q3 32 31 48t28 30q2 25 -39 25q-30 -3 -59 -15zM312 833l-68 -77h-58l101 125h52l101 -125h-58zM440 254l-131 320l-130 -320h261zM544 0l-80 196h-309l-80 -196h-67v4l297 710h11l298 -710v-4
h-70z" />
    <glyph glyph-name="uni1EA9" unicode="&#x1ea9;" horiz-adv-x="489" 
d="M294 783v40q23 14 71 15q72 -2 78 -56q1 -35 -31 -54q-30 -17 -35 -33h-44q3 32 31 48t28 30q2 25 -39 25q-30 -3 -59 -15zM244 669l-68 -77h-58l101 125h52l101 -125h-58zM209 45q102 0 154 76v141l-119 -20q-77 -13 -112.5 -36t-35.5 -69q0 -44 29.5 -68t83.5 -24z
M372 0l-6 68q-53 -78 -161 -78q-78 0 -126.5 38.5t-48.5 108.5q0 72 51.5 104.5t149.5 49.5l132 23v13q0 81 -34.5 113.5t-108.5 32.5q-81 0 -150 -41l-3 2v54q60 42 158 42t150 -46.5t52 -150.5v-333h-55z" />
    <glyph glyph-name="uni1EAA" unicode="&#x1eaa;" 
d="M367 958q28 -3 54 32l4 -1l12 -39q-11 -19 -31 -32t-42 -10q-26 2 -54.5 18t-42.5 17q-29 4 -58 -31l-3 2l-11 42q13 17 34 28.5t42 9.5q22 -2 50 -18.5t46 -17.5zM312 833l-68 -77h-58l101 125h52l101 -125h-58zM440 254l-131 320l-130 -320h261zM544 0l-80 196h-309
l-80 -196h-67v4l297 710h11l298 -710v-4h-70z" />
    <glyph glyph-name="uni1EAB" unicode="&#x1eab;" horiz-adv-x="489" 
d="M299 794q28 -3 54 32l4 -1l12 -39q-11 -19 -31 -32t-42 -10q-26 2 -54.5 18t-42.5 17q-29 4 -58 -31l-3 2l-11 42q13 17 34 28.5t42 9.5q22 -2 50 -18.5t46 -17.5zM244 669l-68 -77h-58l101 125h52l101 -125h-58zM209 45q102 0 154 76v141l-119 -20q-77 -13 -112.5 -36
t-35.5 -69q0 -44 29.5 -68t83.5 -24zM372 0l-6 68q-53 -78 -161 -78q-78 0 -126.5 38.5t-48.5 108.5q0 72 51.5 104.5t149.5 49.5l132 23v13q0 81 -34.5 113.5t-108.5 32.5q-81 0 -150 -41l-3 2v54q60 42 158 42t150 -46.5t52 -150.5v-333h-55z" />
    <glyph glyph-name="uni1EAC" unicode="&#x1eac;" 
d="M274 -192v84h68v-84h-68zM312 833l-68 -77h-58l101 125h52l101 -125h-58zM440 254l-131 320l-130 -320h261zM544 0l-80 196h-309l-80 -196h-67v4l297 710h11l298 -710v-4h-70z" />
    <glyph glyph-name="uni1EAD" unicode="&#x1ead;" horiz-adv-x="489" 
d="M187 -192v84h68v-84h-68zM244 669l-68 -77h-58l101 125h52l101 -125h-58zM209 45q102 0 154 76v141l-119 -20q-77 -13 -112.5 -36t-35.5 -69q0 -44 29.5 -68t83.5 -24zM372 0l-6 68q-53 -78 -161 -78q-78 0 -126.5 38.5t-48.5 108.5q0 72 51.5 104.5t149.5 49.5l132 23
v13q0 81 -34.5 113.5t-108.5 32.5q-81 0 -150 -41l-3 2v54q60 42 158 42t150 -46.5t52 -150.5v-333h-55z" />
    <glyph glyph-name="uni1EAE" unicode="&#x1eae;" 
d="M410 1004l-72 -105h-53l54 105h71zM311 756q-56 0 -87 31t-35 82h49q8 -68 72 -68q65 0 73 68h49q-4 -51 -34.5 -82t-86.5 -31zM440 254l-131 320l-130 -320h261zM544 0l-80 196h-309l-80 -196h-67v4l297 710h11l298 -710v-4h-70z" />
    <glyph glyph-name="uni1EAF" unicode="&#x1eaf;" horiz-adv-x="489" 
d="M354 843l-72 -105h-53l54 105h71zM255 595q-56 0 -87 31t-35 82h49q8 -68 72 -68q65 0 73 68h49q-4 -51 -34.5 -82t-86.5 -31zM209 45q102 0 154 76v141l-119 -20q-77 -13 -112.5 -36t-35.5 -69q0 -44 29.5 -68t83.5 -24zM372 0l-6 68q-53 -78 -161 -78
q-78 0 -126.5 38.5t-48.5 108.5q0 72 51.5 104.5t149.5 49.5l132 23v13q0 81 -34.5 113.5t-108.5 32.5q-81 0 -150 -41l-3 2v54q60 42 158 42t150 -46.5t52 -150.5v-333h-55z" />
    <glyph glyph-name="uni1EB0" unicode="&#x1eb0;" 
d="M289 899l-72 105h71l54 -105h-53zM311 756q-56 0 -87 31t-35 82h49q8 -68 72 -68q65 0 73 68h49q-4 -51 -34.5 -82t-86.5 -31zM440 254l-131 320l-130 -320h261zM544 0l-80 196h-309l-80 -196h-67v4l297 710h11l298 -710v-4h-70z" />
    <glyph glyph-name="uni1EB1" unicode="&#x1eb1;" horiz-adv-x="489" 
d="M233 738l-72 105h71l54 -105h-53zM255 595q-56 0 -87 31t-35 82h49q8 -68 72 -68q65 0 73 68h49q-4 -51 -34.5 -82t-86.5 -31zM209 45q102 0 154 76v141l-119 -20q-77 -13 -112.5 -36t-35.5 -69q0 -44 29.5 -68t83.5 -24zM372 0l-6 68q-53 -78 -161 -78
q-78 0 -126.5 38.5t-48.5 108.5q0 72 51.5 104.5t149.5 49.5l132 23v13q0 81 -34.5 113.5t-108.5 32.5q-81 0 -150 -41l-3 2v54q60 42 158 42t150 -46.5t52 -150.5v-333h-55z" />
    <glyph glyph-name="uni1EB2" unicode="&#x1eb2;" 
d="M253 987v40q23 14 71 15q72 -2 78 -56q1 -35 -31 -54q-30 -17 -35 -33h-44q3 32 31 48t28 30q2 25 -39 25q-30 -3 -59 -15zM311 756q-56 0 -87 31t-35 82h49q8 -68 72 -68q65 0 73 68h49q-4 -51 -34.5 -82t-86.5 -31zM440 254l-131 320l-130 -320h261zM544 0l-80 196
h-309l-80 -196h-67v4l297 710h11l298 -710v-4h-70z" />
    <glyph glyph-name="uni1EB3" unicode="&#x1eb3;" horiz-adv-x="489" 
d="M197 826v40q23 14 71 15q72 -2 78 -56q1 -35 -31 -54q-30 -17 -35 -33h-44q3 32 31 48t28 30q2 25 -39 25q-30 -3 -59 -15zM255 595q-56 0 -87 31t-35 82h49q8 -68 72 -68q65 0 73 68h49q-4 -51 -34.5 -82t-86.5 -31zM209 45q102 0 154 76v141l-119 -20
q-77 -13 -112.5 -36t-35.5 -69q0 -44 29.5 -68t83.5 -24zM372 0l-6 68q-53 -78 -161 -78q-78 0 -126.5 38.5t-48.5 108.5q0 72 51.5 104.5t149.5 49.5l132 23v13q0 81 -34.5 113.5t-108.5 32.5q-81 0 -150 -41l-3 2v54q60 42 158 42t150 -46.5t52 -150.5v-333h-55z" />
    <glyph glyph-name="uni1EB4" unicode="&#x1eb4;" 
d="M365 948q28 -3 54 32l4 -1l12 -39q-11 -19 -31 -32t-42 -10q-26 2 -54.5 18t-42.5 17q-29 4 -58 -31l-3 2l-11 42q13 17 34 28.5t42 9.5q22 -2 50 -18.5t46 -17.5zM311 756q-56 0 -87 31t-35 82h49q8 -68 72 -68q65 0 73 68h49q-4 -51 -34.5 -82t-86.5 -31zM440 254
l-131 320l-130 -320h261zM544 0l-80 196h-309l-80 -196h-67v4l297 710h11l298 -710v-4h-70z" />
    <glyph glyph-name="uni1EB5" unicode="&#x1eb5;" horiz-adv-x="489" 
d="M309 787q28 -3 54 32l4 -1l12 -39q-11 -19 -31 -32t-42 -10q-26 2 -54.5 18t-42.5 17q-29 4 -58 -31l-3 2l-11 42q13 17 34 28.5t42 9.5q22 -2 50 -18.5t46 -17.5zM255 595q-56 0 -87 31t-35 82h49q8 -68 72 -68q65 0 73 68h49q-4 -51 -34.5 -82t-86.5 -31zM209 45
q102 0 154 76v141l-119 -20q-77 -13 -112.5 -36t-35.5 -69q0 -44 29.5 -68t83.5 -24zM372 0l-6 68q-53 -78 -161 -78q-78 0 -126.5 38.5t-48.5 108.5q0 72 51.5 104.5t149.5 49.5l132 23v13q0 81 -34.5 113.5t-108.5 32.5q-81 0 -150 -41l-3 2v54q60 42 158 42t150 -46.5
t52 -150.5v-333h-55z" />
    <glyph glyph-name="uni1EB6" unicode="&#x1eb6;" 
d="M274 -192v84h68v-84h-68zM311 756q-56 0 -87 31t-35 82h49q8 -68 72 -68q65 0 73 68h49q-4 -51 -34.5 -82t-86.5 -31zM440 254l-131 320l-130 -320h261zM544 0l-80 196h-309l-80 -196h-67v4l297 710h11l298 -710v-4h-70z" />
    <glyph glyph-name="uni1EB7" unicode="&#x1eb7;" horiz-adv-x="489" 
d="M187 -192v84h68v-84h-68zM255 595q-56 0 -87 31t-35 82h49q8 -68 72 -68q65 0 73 68h49q-4 -51 -34.5 -82t-86.5 -31zM209 45q102 0 154 76v141l-119 -20q-77 -13 -112.5 -36t-35.5 -69q0 -44 29.5 -68t83.5 -24zM372 0l-6 68q-53 -78 -161 -78q-78 0 -126.5 38.5
t-48.5 108.5q0 72 51.5 104.5t149.5 49.5l132 23v13q0 81 -34.5 113.5t-108.5 32.5q-81 0 -150 -41l-3 2v54q60 42 158 42t150 -46.5t52 -150.5v-333h-55z" />
    <glyph glyph-name="uni1EB8" unicode="&#x1eb8;" horiz-adv-x="504" 
d="M224 -192v84h68v-84h-68zM80 0v705h370v-59h-302v-252h264v-58h-264v-277h302v-59h-370z" />
    <glyph glyph-name="uni1EB9" unicode="&#x1eb9;" horiz-adv-x="520" 
d="M249 -192v84h68v-84h-68zM276 473q-71 0 -117 -41t-59 -115h322q-2 76 -40 116t-106 40zM477 96v-60q-75 -46 -178 -46q-123 0 -195.5 72.5t-72.5 198.5q0 121 68.5 195t177.5 74q101 0 160.5 -66t50.5 -199h-393v-4q0 -104 54.5 -159t151.5 -55q92 0 172 51z" />
    <glyph glyph-name="uni1EBA" unicode="&#x1eba;" horiz-adv-x="504" 
d="M213 853v44q25 15 72 16q74 -2 80 -62q2 -39 -32 -59q-31 -20 -36 -36h-44q3 34 33 52q30 20 30 34q1 14 -7.5 20.5t-33.5 6.5q-35 -3 -62 -16zM80 0v705h370v-59h-302v-252h264v-58h-264v-277h302v-59h-370z" />
    <glyph glyph-name="uni1EBB" unicode="&#x1ebb;" horiz-adv-x="520" 
d="M228 699v44q25 15 72 16q74 -2 80 -62q2 -39 -32 -59q-32 -20 -36 -36h-44q3 34 33 52q30 20 30 34q1 14 -7.5 20.5t-33.5 6.5q-35 -3 -62 -16zM276 473q-71 0 -117 -41t-59 -115h322q-2 76 -40 116t-106 40zM477 96v-60q-75 -46 -178 -46q-123 0 -195.5 72.5
t-72.5 198.5q0 121 68.5 195t177.5 74q101 0 160.5 -66t50.5 -199h-393v-4q0 -104 54.5 -159t151.5 -55q92 0 172 51z" />
    <glyph glyph-name="uni1EBC" unicode="&#x1ebc;" horiz-adv-x="504" 
d="M322 813q28 -3 54 32l4 -1l12 -39q-11 -19 -31 -32t-42 -10q-26 2 -54.5 18t-42.5 17q-29 4 -58 -31l-3 2l-11 42q13 17 34 28.5t42 9.5q22 -2 50 -18.5t46 -17.5zM80 0v705h370v-59h-302v-252h264v-58h-264v-277h302v-59h-370z" />
    <glyph glyph-name="uni1EBD" unicode="&#x1ebd;" horiz-adv-x="520" 
d="M347 658q28 -3 54 32l4 -1l12 -39q-11 -19 -31 -32t-42 -10q-26 2 -54.5 18t-42.5 17q-29 4 -58 -31l-3 2l-11 42q13 17 34 28.5t42 9.5q22 -2 50 -18.5t46 -17.5zM276 473q-71 0 -117 -41t-59 -115h322q-2 76 -40 116t-106 40zM477 96v-60q-75 -46 -178 -46
q-123 0 -195.5 72.5t-72.5 198.5q0 121 68.5 195t177.5 74q101 0 160.5 -66t50.5 -199h-393v-4q0 -104 54.5 -159t151.5 -55q92 0 172 51z" />
    <glyph glyph-name="uni1EBE" unicode="&#x1ebe;" horiz-adv-x="504" 
d="M478 964l-72 -105h-53l54 105h71zM264 833l-68 -77h-58l101 125h52l101 -125h-58zM80 0v705h370v-59h-302v-252h264v-58h-264v-277h302v-59h-370z" />
    <glyph glyph-name="uni1EBF" unicode="&#x1ebf;" horiz-adv-x="520" 
d="M498 800l-72 -105h-53l54 105h71zM284 669l-68 -77h-58l101 125h52l101 -125h-58zM276 473q-71 0 -117 -41t-59 -115h322q-2 76 -40 116t-106 40zM477 96v-60q-75 -46 -178 -46q-123 0 -195.5 72.5t-72.5 198.5q0 121 68.5 195t177.5 74q101 0 160.5 -66t50.5 -199h-393
v-4q0 -104 54.5 -159t151.5 -55q92 0 172 51z" />
    <glyph glyph-name="uni1EC0" unicode="&#x1ec0;" horiz-adv-x="504" 
d="M374 859l-72 105h71l54 -105h-53zM264 833l-68 -77h-58l101 125h52l101 -125h-58zM80 0v705h370v-59h-302v-252h264v-58h-264v-277h302v-59h-370z" />
    <glyph glyph-name="uni1EC1" unicode="&#x1ec1;" horiz-adv-x="520" 
d="M394 695l-72 105h71l54 -105h-53zM284 669l-68 -77h-58l101 125h52l101 -125h-58zM276 473q-71 0 -117 -41t-59 -115h322q-2 76 -40 116t-106 40zM477 96v-60q-75 -46 -178 -46q-123 0 -195.5 72.5t-72.5 198.5q0 121 68.5 195t177.5 74q101 0 160.5 -66t50.5 -199h-393
v-4q0 -104 54.5 -159t151.5 -55q92 0 172 51z" />
    <glyph glyph-name="uni1EC2" unicode="&#x1ec2;" horiz-adv-x="504" 
d="M314 947v40q23 14 71 15q72 -2 78 -56q1 -35 -31 -54q-30 -17 -35 -33h-44q3 32 31 48t28 30q2 25 -39 25q-30 -3 -59 -15zM264 833l-68 -77h-58l101 125h52l101 -125h-58zM80 0v705h370v-59h-302v-252h264v-58h-264v-277h302v-59h-370z" />
    <glyph glyph-name="uni1EC3" unicode="&#x1ec3;" horiz-adv-x="520" 
d="M334 783v40q23 14 71 15q72 -2 78 -56q1 -35 -31 -54q-30 -17 -35 -33h-44q3 32 31 48t28 30q2 25 -39 25q-30 -3 -59 -15zM284 669l-68 -77h-58l101 125h52l101 -125h-58zM276 473q-71 0 -117 -41t-59 -115h322q-2 76 -40 116t-106 40zM477 96v-60q-75 -46 -178 -46
q-123 0 -195.5 72.5t-72.5 198.5q0 121 68.5 195t177.5 74q101 0 160.5 -66t50.5 -199h-393v-4q0 -104 54.5 -159t151.5 -55q92 0 172 51z" />
    <glyph glyph-name="uni1EC4" unicode="&#x1ec4;" horiz-adv-x="504" 
d="M319 958q28 -3 54 32l4 -1l12 -39q-11 -19 -31 -32t-42 -10q-26 2 -54.5 18t-42.5 17q-29 4 -58 -31l-3 2l-11 42q13 17 34 28.5t42 9.5q22 -2 50 -18.5t46 -17.5zM264 833l-68 -77h-58l101 125h52l101 -125h-58zM80 0v705h370v-59h-302v-252h264v-58h-264v-277h302v-59
h-370z" />
    <glyph glyph-name="uni1EC5" unicode="&#x1ec5;" horiz-adv-x="520" 
d="M339 794q28 -3 54 32l4 -1l12 -39q-11 -19 -31 -32t-42 -10q-26 2 -54.5 18t-42.5 17q-29 4 -58 -31l-3 2l-11 42q13 17 34 28.5t42 9.5q22 -2 50 -18.5t46 -17.5zM284 669l-68 -77h-58l101 125h52l101 -125h-58zM276 473q-71 0 -117 -41t-59 -115h322q-2 76 -40 116
t-106 40zM477 96v-60q-75 -46 -178 -46q-123 0 -195.5 72.5t-72.5 198.5q0 121 68.5 195t177.5 74q101 0 160.5 -66t50.5 -199h-393v-4q0 -104 54.5 -159t151.5 -55q92 0 172 51z" />
    <glyph glyph-name="uni1EC6" unicode="&#x1ec6;" horiz-adv-x="504" 
d="M224 -192v84h68v-84h-68zM264 833l-68 -77h-58l101 125h52l101 -125h-58zM80 0v705h370v-59h-302v-252h264v-58h-264v-277h302v-59h-370z" />
    <glyph glyph-name="uni1EC7" unicode="&#x1ec7;" horiz-adv-x="520" 
d="M249 -192v84h68v-84h-68zM284 669l-68 -77h-58l101 125h52l101 -125h-58zM276 473q-71 0 -117 -41t-59 -115h322q-2 76 -40 116t-106 40zM477 96v-60q-75 -46 -178 -46q-123 0 -195.5 72.5t-72.5 198.5q0 121 68.5 195t177.5 74q101 0 160.5 -66t50.5 -199h-393v-4
q0 -104 54.5 -159t151.5 -55q92 0 172 51z" />
    <glyph glyph-name="uni1EC8" unicode="&#x1ec8;" horiz-adv-x="232" 
d="M55 853v44q25 15 72 16q74 -2 80 -62q2 -39 -32 -59q-31 -20 -36 -36h-44q3 34 33 52q30 20 30 34q1 14 -7.5 20.5t-33.5 6.5q-35 -3 -62 -16zM82 0v705h68v-705h-68z" />
    <glyph glyph-name="uni1EC9" unicode="&#x1ec9;" horiz-adv-x="203" 
d="M42 699v44q25 15 72 16q74 -2 80 -62q2 -39 -32 -59q-32 -20 -36 -36h-44q3 34 33 52q30 20 30 34q1 14 -7.5 20.5t-33.5 6.5q-35 -3 -62 -16zM69 0v520h65v-520h-65z" />
    <glyph glyph-name="uni1ECA" unicode="&#x1eca;" horiz-adv-x="232" 
d="M82 -192v84h68v-84h-68zM82 0v705h68v-705h-68z" />
    <glyph glyph-name="uni1ECB" unicode="&#x1ecb;" horiz-adv-x="203" 
d="M67 -192v84h69v-84h-69zM69 0v520h65v-520h-65zM67 624v84h69v-84h-69z" />
    <glyph glyph-name="uni1ECC" unicode="&#x1ecc;" horiz-adv-x="769" 
d="M349 -192v84h68v-84h-68zM385 -10q-149 0 -248.5 104.5t-99.5 260.5t99 258t249 102t248.5 -102t98.5 -258t-99 -260.5t-248 -104.5zM385 49q122 0 199 85t77 221q0 135 -77 218t-199 83t-199.5 -83t-77.5 -218q0 -136 78 -221t199 -85z" />
    <glyph glyph-name="uni1ECD" unicode="&#x1ecd;" horiz-adv-x="587" 
d="M257 -192v84h68v-84h-68zM293 -10q-113 0 -187.5 75t-74.5 196t74 195t188 74q113 0 188 -74t75 -195t-75 -196t-188 -75zM293 46q86 0 142 58.5t56 156.5q0 97 -56 155t-142 58t-141.5 -58t-55.5 -155q0 -98 55.5 -156.5t141.5 -58.5z" />
    <glyph glyph-name="uni1ECE" unicode="&#x1ece;" horiz-adv-x="769" 
d="M340 853v44q25 15 72 16q74 -2 80 -62q2 -39 -32 -59q-32 -20 -36 -36h-44q3 34 33 52q30 20 30 34q1 14 -7.5 20.5t-33.5 6.5q-35 -3 -62 -16zM385 -10q-149 0 -248.5 104.5t-99.5 260.5t99 258t249 102t248.5 -102t98.5 -258t-99 -260.5t-248 -104.5zM385 49
q122 0 199 85t77 221q0 135 -77 218t-199 83t-199.5 -83t-77.5 -218q0 -136 78 -221t199 -85z" />
    <glyph glyph-name="uni1ECF" unicode="&#x1ecf;" horiz-adv-x="587" 
d="M255 699v44q25 15 72 16q74 -2 80 -62q2 -39 -32 -59q-31 -20 -36 -36h-44q3 34 33 52q30 20 30 34q1 14 -7.5 20.5t-33.5 6.5q-35 -3 -62 -16zM293 -10q-113 0 -187.5 75t-74.5 196t74 195t188 74q113 0 188 -74t75 -195t-75 -196t-188 -75zM293 46q86 0 142 58.5
t56 156.5q0 97 -56 155t-142 58t-141.5 -58t-55.5 -155q0 -98 55.5 -156.5t141.5 -58.5z" />
    <glyph glyph-name="uni1ED0" unicode="&#x1ed0;" horiz-adv-x="769" 
d="M599 964l-72 -105h-53l54 105h71zM385 833l-68 -77h-58l101 125h52l101 -125h-58zM385 -10q-149 0 -248.5 104.5t-99.5 260.5t99 258t249 102t248.5 -102t98.5 -258t-99 -260.5t-248 -104.5zM385 49q122 0 199 85t77 221q0 135 -77 218t-199 83t-199.5 -83t-77.5 -218
q0 -136 78 -221t199 -85z" />
    <glyph glyph-name="uni1ED1" unicode="&#x1ed1;" horiz-adv-x="587" 
d="M506 800l-72 -105h-53l54 105h71zM292 669l-68 -77h-58l101 125h52l101 -125h-58zM293 -10q-113 0 -187.5 75t-74.5 196t74 195t188 74q113 0 188 -74t75 -195t-75 -196t-188 -75zM293 46q86 0 142 58.5t56 156.5q0 97 -56 155t-142 58t-141.5 -58t-55.5 -155
q0 -98 55.5 -156.5t141.5 -58.5z" />
    <glyph glyph-name="uni1ED2" unicode="&#x1ed2;" horiz-adv-x="769" 
d="M495 859l-72 105h71l54 -105h-53zM385 833l-68 -77h-58l101 125h52l101 -125h-58zM385 -10q-149 0 -248.5 104.5t-99.5 260.5t99 258t249 102t248.5 -102t98.5 -258t-99 -260.5t-248 -104.5zM385 49q122 0 199 85t77 221q0 135 -77 218t-199 83t-199.5 -83t-77.5 -218
q0 -136 78 -221t199 -85z" />
    <glyph glyph-name="uni1ED3" unicode="&#x1ed3;" horiz-adv-x="587" 
d="M402 695l-72 105h71l54 -105h-53zM292 669l-68 -77h-58l101 125h52l101 -125h-58zM293 -10q-113 0 -187.5 75t-74.5 196t74 195t188 74q113 0 188 -74t75 -195t-75 -196t-188 -75zM293 46q86 0 142 58.5t56 156.5q0 97 -56 155t-142 58t-141.5 -58t-55.5 -155
q0 -98 55.5 -156.5t141.5 -58.5z" />
    <glyph glyph-name="uni1ED4" unicode="&#x1ed4;" horiz-adv-x="769" 
d="M435 947v40q23 14 71 15q72 -2 78 -56q1 -35 -31 -54q-30 -17 -35 -33h-44q3 32 31 48t28 30q2 25 -39 25q-30 -3 -59 -15zM385 833l-68 -77h-58l101 125h52l101 -125h-58zM385 -10q-149 0 -248.5 104.5t-99.5 260.5t99 258t249 102t248.5 -102t98.5 -258t-99 -260.5
t-248 -104.5zM385 49q122 0 199 85t77 221q0 135 -77 218t-199 83t-199.5 -83t-77.5 -218q0 -136 78 -221t199 -85z" />
    <glyph glyph-name="uni1ED5" unicode="&#x1ed5;" horiz-adv-x="587" 
d="M342 783v40q23 14 71 15q72 -2 78 -56q1 -35 -31 -54q-30 -17 -35 -33h-44q3 32 31 48t28 30q2 25 -39 25q-30 -3 -59 -15zM292 669l-68 -77h-58l101 125h52l101 -125h-58zM293 -10q-113 0 -187.5 75t-74.5 196t74 195t188 74q113 0 188 -74t75 -195t-75 -196t-188 -75z
M293 46q86 0 142 58.5t56 156.5q0 97 -56 155t-142 58t-141.5 -58t-55.5 -155q0 -98 55.5 -156.5t141.5 -58.5z" />
    <glyph glyph-name="uni1ED6" unicode="&#x1ed6;" horiz-adv-x="769" 
d="M440 958q28 -3 54 32l4 -1l12 -39q-11 -19 -31 -32t-42 -10q-26 2 -54.5 18t-42.5 17q-29 4 -58 -31l-3 2l-11 42q13 17 34 28.5t42 9.5q22 -2 50 -18.5t46 -17.5zM385 833l-68 -77h-58l101 125h52l101 -125h-58zM385 -10q-149 0 -248.5 104.5t-99.5 260.5t99 258
t249 102t248.5 -102t98.5 -258t-99 -260.5t-248 -104.5zM385 49q122 0 199 85t77 221q0 135 -77 218t-199 83t-199.5 -83t-77.5 -218q0 -136 78 -221t199 -85z" />
    <glyph glyph-name="uni1ED7" unicode="&#x1ed7;" horiz-adv-x="587" 
d="M347 794q28 -3 54 32l4 -1l12 -39q-11 -19 -31 -32t-42 -10q-26 2 -54.5 18t-42.5 17q-29 4 -58 -31l-3 2l-11 42q13 17 34 28.5t42 9.5q22 -2 50 -18.5t46 -17.5zM292 669l-68 -77h-58l101 125h52l101 -125h-58zM293 -10q-113 0 -187.5 75t-74.5 196t74 195t188 74
q113 0 188 -74t75 -195t-75 -196t-188 -75zM293 46q86 0 142 58.5t56 156.5q0 97 -56 155t-142 58t-141.5 -58t-55.5 -155q0 -98 55.5 -156.5t141.5 -58.5z" />
    <glyph glyph-name="uni1ED8" unicode="&#x1ed8;" horiz-adv-x="769" 
d="M349 -192v84h68v-84h-68zM385 833l-68 -77h-58l101 125h52l101 -125h-58zM385 -10q-149 0 -248.5 104.5t-99.5 260.5t99 258t249 102t248.5 -102t98.5 -258t-99 -260.5t-248 -104.5zM385 49q122 0 199 85t77 221q0 135 -77 218t-199 83t-199.5 -83t-77.5 -218
q0 -136 78 -221t199 -85z" />
    <glyph glyph-name="uni1ED9" unicode="&#x1ed9;" horiz-adv-x="587" 
d="M257 -192v84h68v-84h-68zM292 669l-68 -77h-58l101 125h52l101 -125h-58zM293 -10q-113 0 -187.5 75t-74.5 196t74 195t188 74q113 0 188 -74t75 -195t-75 -196t-188 -75zM293 46q86 0 142 58.5t56 156.5q0 97 -56 155t-142 58t-141.5 -58t-55.5 -155q0 -98 55.5 -156.5
t141.5 -58.5z" />
    <glyph glyph-name="uni1EDA" unicode="&#x1eda;" horiz-adv-x="769" 
d="M507 881l-92 -125h-53l74 125h71zM385 -10q-149 0 -248.5 104.5t-99.5 260.5t99 258t249 102q48 0 88 -10q8 0 25.5 -0.5t31.5 -0.5h15q50 5 50 71h60q0 -94 -79 -115q30 -19 57 -47q99 -101 99 -258q0 -156 -99 -260.5t-248 -104.5zM385 49q122 0 199 85t77 221
q0 135 -77 218t-199 83t-199.5 -83t-77.5 -218q0 -136 78 -221t199 -85z" />
    <glyph glyph-name="uni1EDB" unicode="&#x1edb;" horiz-adv-x="587" 
d="M421 727l-92 -125h-53l74 125h71zM293 -10q-113 0 -187.5 75t-74.5 196t74 195t188 74q42 0 76 -10q19 -1 55 -1q50 5 50 71h60q0 -93 -76 -114q21 -18 22 -19q76 -76 76 -196q0 -121 -75 -196t-188 -75zM293 46q86 0 142 58.5t56 156.5q0 97 -56 155t-142 58t-141.5 -58
t-55.5 -155q0 -98 55.5 -156.5t141.5 -58.5z" />
    <glyph glyph-name="uni1EDC" unicode="&#x1edc;" horiz-adv-x="769" 
d="M397 756l-92 125h71l74 -125h-53zM385 -10q-149 0 -248.5 104.5t-99.5 260.5t99 258t249 102q48 0 88 -10q8 0 25.5 -0.5t31.5 -0.5h15q50 5 50 71h60q0 -94 -79 -115q30 -19 57 -47q99 -101 99 -258q0 -156 -99 -260.5t-248 -104.5zM385 49q122 0 199 85t77 221
q0 135 -77 218t-199 83t-199.5 -83t-77.5 -218q0 -136 78 -221t199 -85z" />
    <glyph glyph-name="uni1EDD" unicode="&#x1edd;" horiz-adv-x="587" 
d="M293 602l-92 125h71l74 -125h-53zM293 -10q-113 0 -187.5 75t-74.5 196t74 195t188 74q42 0 76 -10q19 -1 55 -1q50 5 50 71h60q0 -93 -76 -114q21 -18 22 -19q76 -76 76 -196q0 -121 -75 -196t-188 -75zM293 46q86 0 142 58.5t56 156.5q0 97 -56 155t-142 58t-141.5 -58
t-55.5 -155q0 -98 55.5 -156.5t141.5 -58.5z" />
    <glyph glyph-name="uni1EDE" unicode="&#x1ede;" horiz-adv-x="769" 
d="M340 853v44q25 15 72 16q74 -2 80 -62q2 -39 -32 -59q-32 -20 -36 -36h-44q3 34 33 52q30 20 30 34q1 14 -7.5 20.5t-33.5 6.5q-35 -3 -62 -16zM385 -10q-149 0 -248.5 104.5t-99.5 260.5t99 258t249 102q48 0 88 -10q8 0 25.5 -0.5t31.5 -0.5h15q50 5 50 71h60
q0 -94 -79 -115q30 -19 57 -47q99 -101 99 -258q0 -156 -99 -260.5t-248 -104.5zM385 49q122 0 199 85t77 221q0 135 -77 218t-199 83t-199.5 -83t-77.5 -218q0 -136 78 -221t199 -85z" />
    <glyph glyph-name="uni1EDF" unicode="&#x1edf;" horiz-adv-x="587" 
d="M255 699v44q25 15 72 16q74 -2 80 -62q2 -39 -32 -59q-31 -20 -36 -36h-44q3 34 33 52q30 20 30 34q1 14 -7.5 20.5t-33.5 6.5q-35 -3 -62 -16zM293 -10q-113 0 -187.5 75t-74.5 196t74 195t188 74q42 0 76 -10q19 -1 55 -1q50 5 50 71h60q0 -93 -76 -114q21 -18 22 -19
q76 -76 76 -196q0 -121 -75 -196t-188 -75zM293 46q86 0 142 58.5t56 156.5q0 97 -56 155t-142 58t-141.5 -58t-55.5 -155q0 -98 55.5 -156.5t141.5 -58.5z" />
    <glyph glyph-name="uni1EE0" unicode="&#x1ee0;" horiz-adv-x="769" 
d="M448 813q28 -3 54 32l4 -1l12 -39q-11 -19 -31 -32t-42 -10q-26 2 -54.5 18t-42.5 17q-29 4 -58 -31l-3 2l-11 42q13 17 34 28.5t42 9.5q22 -2 50 -18.5t46 -17.5zM385 -10q-149 0 -248.5 104.5t-99.5 260.5t99 258t249 102q48 0 88 -10q8 0 25.5 -0.5t31.5 -0.5h15
q50 5 50 71h60q0 -94 -79 -115q30 -19 57 -47q99 -101 99 -258q0 -156 -99 -260.5t-248 -104.5zM385 49q122 0 199 85t77 221q0 135 -77 218t-199 83t-199.5 -83t-77.5 -218q0 -136 78 -221t199 -85z" />
    <glyph glyph-name="uni1EE1" unicode="&#x1ee1;" horiz-adv-x="587" 
d="M367 658q28 -3 54 32l4 -1l12 -39q-11 -19 -31 -32t-42 -10q-26 2 -54.5 18t-42.5 17q-29 4 -58 -31l-3 2l-11 42q13 17 34 28.5t42 9.5q22 -2 50 -18.5t46 -17.5zM293 -10q-113 0 -187.5 75t-74.5 196t74 195t188 74q42 0 76 -10q19 -1 55 -1q50 5 50 71h60
q0 -93 -76 -114q21 -18 22 -19q76 -76 76 -196q0 -121 -75 -196t-188 -75zM293 46q86 0 142 58.5t56 156.5q0 97 -56 155t-142 58t-141.5 -58t-55.5 -155q0 -98 55.5 -156.5t141.5 -58.5z" />
    <glyph glyph-name="uni1EE2" unicode="&#x1ee2;" horiz-adv-x="769" 
d="M349 -192v84h68v-84h-68zM385 -10q-149 0 -248.5 104.5t-99.5 260.5t99 258t249 102q48 0 88 -10q8 0 25.5 -0.5t31.5 -0.5h15q50 5 50 71h60q0 -94 -79 -115q30 -19 57 -47q99 -101 99 -258q0 -156 -99 -260.5t-248 -104.5zM385 49q122 0 199 85t77 221q0 135 -77 218
t-199 83t-199.5 -83t-77.5 -218q0 -136 78 -221t199 -85z" />
    <glyph glyph-name="uni1EE3" unicode="&#x1ee3;" horiz-adv-x="587" 
d="M257 -192v84h68v-84h-68zM293 -10q-113 0 -187.5 75t-74.5 196t74 195t188 74q42 0 76 -10q19 -1 55 -1q50 5 50 71h60q0 -93 -76 -114q21 -18 22 -19q76 -76 76 -196q0 -121 -75 -196t-188 -75zM293 46q86 0 142 58.5t56 156.5q0 97 -56 155t-142 58t-141.5 -58
t-55.5 -155q0 -98 55.5 -156.5t141.5 -58.5z" />
    <glyph glyph-name="uni1EE4" unicode="&#x1ee4;" horiz-adv-x="674" 
d="M303 -192v84h68v-84h-68zM335 -10q-119 0 -191.5 70t-72.5 197v448h68v-446q0 -101 52 -155.5t144 -54.5t146.5 54.5t54.5 155.5v446h67v-448q0 -126 -74 -196.5t-194 -70.5z" />
    <glyph glyph-name="uni1EE5" unicode="&#x1ee5;" horiz-adv-x="536" 
d="M216 -192v84h68v-84h-68zM414 0l-6 59q-84 -69 -176 -69q-81 0 -126.5 42t-45.5 122v366h64v-353q0 -123 123 -123q82 0 159 57v419h64v-520h-56z" />
    <glyph glyph-name="uni1EE6" unicode="&#x1ee6;" horiz-adv-x="674" 
d="M281 853v44q25 15 72 16q74 -2 80 -62q2 -39 -32 -59q-31 -20 -36 -36h-44q3 34 33 52q30 20 30 34q1 14 -7.5 20.5t-33.5 6.5q-35 -3 -62 -16zM335 -10q-119 0 -191.5 70t-72.5 197v448h68v-446q0 -101 52 -155.5t144 -54.5t146.5 54.5t54.5 155.5v446h67v-448
q0 -126 -74 -196.5t-194 -70.5z" />
    <glyph glyph-name="uni1EE7" unicode="&#x1ee7;" horiz-adv-x="536" 
d="M216 699v44q25 15 72 16q74 -2 80 -62q2 -39 -32 -59q-32 -20 -36 -36h-44q3 34 33 52q30 20 30 34q1 14 -7.5 20.5t-33.5 6.5q-35 -3 -62 -16zM414 0l-6 59q-84 -69 -176 -69q-81 0 -126.5 42t-45.5 122v366h64v-353q0 -123 123 -123q82 0 159 57v419h64v-520h-56z" />
    <glyph glyph-name="uni1EE8" unicode="&#x1ee8;" horiz-adv-x="674" 
d="M455 881l-92 -125h-53l74 125h71zM335 -10q-119 0 -191.5 70t-72.5 197v448h68v-446q0 -101 52 -155.5t144 -54.5t146.5 54.5t54.5 155.5v446h57q41 10 41 70h60q0 -54 -23 -81.5t-68 -35.5v-401q0 -126 -74 -196.5t-194 -70.5z" />
    <glyph glyph-name="uni1EE9" unicode="&#x1ee9;" horiz-adv-x="536" 
d="M380 727l-92 -125h-53l74 125h71zM414 0l-6 59q-84 -69 -176 -69q-81 0 -126.5 42t-45.5 122v366h64v-353q0 -123 123 -123q82 0 159 57v419h54q41 10 41 70h60q0 -54 -23 -81.5t-68 -35.5v-473h-56z" />
    <glyph glyph-name="uni1EEA" unicode="&#x1eea;" horiz-adv-x="674" 
d="M333 756l-92 125h71l74 -125h-53zM335 -10q-119 0 -191.5 70t-72.5 197v448h68v-446q0 -101 52 -155.5t144 -54.5t146.5 54.5t54.5 155.5v446h57q41 10 41 70h60q0 -54 -23 -81.5t-68 -35.5v-401q0 -126 -74 -196.5t-194 -70.5z" />
    <glyph glyph-name="uni1EEB" unicode="&#x1eeb;" horiz-adv-x="536" 
d="M257 602l-92 125h71l74 -125h-53zM414 0l-6 59q-84 -69 -176 -69q-81 0 -126.5 42t-45.5 122v366h64v-353q0 -123 123 -123q82 0 159 57v419h54q41 10 41 70h60q0 -54 -23 -81.5t-68 -35.5v-473h-56z" />
    <glyph glyph-name="uni1EEC" unicode="&#x1eec;" horiz-adv-x="674" 
d="M281 853v44q25 15 72 16q74 -2 80 -62q2 -39 -32 -59q-31 -20 -36 -36h-44q3 34 33 52q30 20 30 34q1 14 -7.5 20.5t-33.5 6.5q-35 -3 -62 -16zM335 -10q-119 0 -191.5 70t-72.5 197v448h68v-446q0 -101 52 -155.5t144 -54.5t146.5 54.5t54.5 155.5v446h57q41 10 41 70
h60q0 -54 -23 -81.5t-68 -35.5v-401q0 -126 -74 -196.5t-194 -70.5z" />
    <glyph glyph-name="uni1EED" unicode="&#x1eed;" horiz-adv-x="536" 
d="M216 699v44q25 15 72 16q74 -2 80 -62q2 -39 -32 -59q-32 -20 -36 -36h-44q3 34 33 52q30 20 30 34q1 14 -7.5 20.5t-33.5 6.5q-35 -3 -62 -16zM414 0l-6 59q-84 -69 -176 -69q-81 0 -126.5 42t-45.5 122v366h64v-353q0 -123 123 -123q82 0 159 57v419h54q41 10 41 70h60
q0 -54 -23 -81.5t-68 -35.5v-473h-56z" />
    <glyph glyph-name="uni1EEE" unicode="&#x1eee;" horiz-adv-x="674" 
d="M393 813q28 -3 54 32l4 -1l12 -39q-11 -19 -31 -32t-42 -10q-26 2 -54.5 18t-42.5 17q-29 4 -58 -31l-3 2l-11 42q13 17 34 28.5t42 9.5q22 -2 50 -18.5t46 -17.5zM335 -10q-119 0 -191.5 70t-72.5 197v448h68v-446q0 -101 52 -155.5t144 -54.5t146.5 54.5t54.5 155.5
v446h57q41 10 41 70h60q0 -54 -23 -81.5t-68 -35.5v-401q0 -126 -74 -196.5t-194 -70.5z" />
    <glyph glyph-name="uni1EEF" unicode="&#x1eef;" horiz-adv-x="536" 
d="M323 658q28 -3 54 32l4 -1l12 -39q-11 -19 -31 -32t-42 -10q-26 2 -54.5 18t-42.5 17q-29 4 -58 -31l-3 2l-11 42q13 17 34 28.5t42 9.5q22 -2 50 -18.5t46 -17.5zM414 0l-6 59q-84 -69 -176 -69q-81 0 -126.5 42t-45.5 122v366h64v-353q0 -123 123 -123q82 0 159 57v419
h54q41 10 41 70h60q0 -54 -23 -81.5t-68 -35.5v-473h-56z" />
    <glyph glyph-name="uni1EF0" unicode="&#x1ef0;" horiz-adv-x="674" 
d="M303 -192v84h68v-84h-68zM335 -10q-119 0 -191.5 70t-72.5 197v448h68v-446q0 -101 52 -155.5t144 -54.5t146.5 54.5t54.5 155.5v446h57q41 10 41 70h60q0 -54 -23 -81.5t-68 -35.5v-401q0 -126 -74 -196.5t-194 -70.5z" />
    <glyph glyph-name="uni1EF1" unicode="&#x1ef1;" horiz-adv-x="536" 
d="M216 -192v84h68v-84h-68zM414 0l-6 59q-84 -69 -176 -69q-81 0 -126.5 42t-45.5 122v366h64v-353q0 -123 123 -123q82 0 159 57v419h54q41 10 41 70h60q0 -54 -23 -81.5t-68 -35.5v-473h-56z" />
    <glyph glyph-name="Ygrave" unicode="&#x1ef2;" horiz-adv-x="556" 
d="M275 756l-92 125h71l74 -125h-53zM314 0h-68v296l-237 405v4h71l200 -347l200 347h67v-4l-233 -401v-300z" />
    <glyph glyph-name="ygrave" unicode="&#x1ef3;" horiz-adv-x="485" 
d="M240 602l-92 125h71l74 -125h-53zM48 -219v59q55 8 86 34t52 77l28 72l-206 493v4h68l172 -422l164 422h65v-4l-230 -579q-31 -77 -77 -113.5t-122 -42.5z" />
    <glyph glyph-name="uni1EF4" unicode="&#x1ef4;" horiz-adv-x="556" 
d="M314 0h-68v296l-237 405v4h71l200 -347l200 347h67v-4l-233 -401v-300zM246 -192v84h68v-84h-68z" />
    <glyph glyph-name="uni1EF5" unicode="&#x1ef5;" horiz-adv-x="485" 
d="M326 -192v84h68v-84h-68zM48 -219v59q55 8 86 34t52 77l28 72l-206 493v4h68l172 -422l164 422h65v-4l-230 -579q-31 -77 -77 -113.5t-122 -42.5z" />
    <glyph glyph-name="uni1EF6" unicode="&#x1ef6;" horiz-adv-x="556" 
d="M221 853v44q25 15 72 16q74 -2 80 -62q2 -39 -32 -59q-31 -20 -36 -36h-44q3 34 33 52q30 20 30 34q1 14 -7.5 20.5t-33.5 6.5q-35 -3 -62 -16zM314 0h-68v296l-237 405v4h71l200 -347l200 347h67v-4l-233 -401v-300z" />
    <glyph glyph-name="uni1EF7" unicode="&#x1ef7;" horiz-adv-x="485" 
d="M188 699v44q25 15 72 16q74 -2 80 -62q2 -39 -32 -59q-32 -20 -36 -36h-44q3 34 33 52q30 20 30 34q1 14 -7.5 20.5t-33.5 6.5q-35 -3 -62 -16zM48 -219v59q55 8 86 34t52 77l28 72l-206 493v4h68l172 -422l164 422h65v-4l-230 -579q-31 -77 -77 -113.5t-122 -42.5z" />
    <glyph glyph-name="uni1EF8" unicode="&#x1ef8;" horiz-adv-x="556" 
d="M332 813q28 -3 54 32l4 -1l12 -39q-11 -19 -31 -32t-42 -10q-26 2 -54.5 18t-42.5 17q-29 4 -58 -31l-3 2l-11 42q13 17 34 28.5t42 9.5q22 -2 50 -18.5t46 -17.5zM314 0h-68v296l-237 405v4h71l200 -347l200 347h67v-4l-233 -401v-300z" />
    <glyph glyph-name="uni1EF9" unicode="&#x1ef9;" horiz-adv-x="485" 
d="M299 658q28 -3 54 32l4 -1l12 -39q-11 -19 -31 -32t-42 -10q-26 2 -54.5 18t-42.5 17q-29 4 -58 -31l-3 2l-11 42q13 17 34 28.5t42 9.5q22 -2 50 -18.5t46 -17.5zM48 -219v59q55 8 86 34t52 77l28 72l-206 493v4h68l172 -422l164 422h65v-4l-230 -579
q-31 -77 -77 -113.5t-122 -42.5z" />
    <glyph glyph-name="uni1EFA" unicode="&#x1efa;" horiz-adv-x="0" 
d="M444 470v48q31 1 44 18.5t13 53.5h60q0 -61 -29.5 -88.5t-87.5 -31.5z" />
    <glyph glyph-name="endash" unicode="&#x2013;" horiz-adv-x="470" 
d="M34 266v58h403v-58h-403z" />
    <glyph glyph-name="emdash" unicode="&#x2014;" horiz-adv-x="883" 
d="M34 266v58h815v-58h-815z" />
    <glyph glyph-name="quoteleft" unicode="&#x2018;" horiz-adv-x="164" 
d="M28 526v6l49 173h48l-30 -179h-67z" />
    <glyph glyph-name="quoteright" unicode="&#x2019;" horiz-adv-x="164" 
d="M136 705v-6l-49 -173h-48l30 179h67z" />
    <glyph glyph-name="quotesinglbase" unicode="&#x201a;" horiz-adv-x="164" 
d="M129 89v-7l-49 -172h-48l29 179h68z" />
    <glyph glyph-name="quotedblleft" unicode="&#x201c;" horiz-adv-x="282" 
d="M28 526v6l49 173h48l-30 -179h-67zM146 526v6l49 173h48l-29 -179h-68z" />
    <glyph glyph-name="quotedblright" unicode="&#x201d;" horiz-adv-x="282" 
d="M254 705v-6l-49 -173h-48l30 179h67zM136 705v-6l-49 -173h-48l30 179h67z" />
    <glyph glyph-name="quotedblbase" unicode="&#x201e;" horiz-adv-x="282" 
d="M129 89v-7l-49 -172h-48l29 179h68zM247 89v-7l-49 -172h-48l29 179h68z" />
    <glyph glyph-name="dagger" unicode="&#x2020;" horiz-adv-x="345" 
d="M311 521h-109v-356h-59v356h-109v53h109v137l59 18v-155h109v-53z" />
    <glyph glyph-name="daggerdbl" unicode="&#x2021;" horiz-adv-x="345" 
d="M202 166l-59 -18v155h-109v53h109v165h-109v53h109v137l59 18v-155h109v-53h-109v-165h109v-53h-109v-137z" />
    <glyph glyph-name="bullet" unicode="&#x2022;" horiz-adv-x="332" 
d="M166 427q51 0 86.5 -36t35.5 -88t-35.5 -88t-86.5 -36q-52 0 -87 35.5t-35 88.5t35 88.5t87 35.5z" />
    <glyph glyph-name="ellipsis" unicode="&#x2026;" horiz-adv-x="642" 
d="M505 0v77h73v-77h-73zM284 0v77h74v-77h-74zM64 0v77h73v-77h-73z" />
    <glyph glyph-name="perthousand" unicode="&#x2030;" horiz-adv-x="1159" 
d="M188 354q-70 0 -115 47t-45 124q0 75 45.5 122.5t114.5 47.5q70 0 115 -47.5t45 -122.5q0 -77 -44.5 -124t-115.5 -47zM136 0l461 690h58l-461 -690h-58zM188 404q47 0 75 33.5t28 87.5q0 52 -28 86t-75 34t-75 -34t-28 -86q0 -54 28 -87.5t75 -33.5zM971 -10
q-70 0 -115 47t-45 124q0 75 45.5 122.5t114.5 47.5q70 0 115 -47.5t45 -122.5q0 -77 -44.5 -124t-115.5 -47zM599 -10q-70 0 -115 47t-45 124q0 75 45.5 122.5t114.5 47.5q70 0 115 -47.5t45 -122.5q0 -77 -44.5 -124t-115.5 -47zM971 40q47 0 75 33.5t28 87.5q0 52 -28 86
t-75 34t-75 -34t-28 -86q0 -54 28 -87.5t75 -33.5zM599 40q47 0 75 33.5t28 87.5q0 52 -28 86t-75 34t-75 -34t-28 -86q0 -54 28 -87.5t75 -33.5z" />
    <glyph glyph-name="uni2032" unicode="&#x2032;" horiz-adv-x="158" 
d="M123 705l-46 -189h-47l26 189h67z" />
    <glyph glyph-name="uni2033" unicode="&#x2033;" horiz-adv-x="277" 
d="M123 705l-46 -189h-47l26 189h67zM242 705l-47 -189h-46l26 189h67z" />
    <glyph glyph-name="guilsinglleft" unicode="&#x2039;" horiz-adv-x="221" 
d="M128 84l-111 176l111 176h65l-108 -176l108 -176h-65z" />
    <glyph glyph-name="guilsinglright" unicode="&#x203a;" horiz-adv-x="221" 
d="M28 84l108 176l-108 176h65l111 -176l-111 -176h-65z" />
    <glyph glyph-name="fraction" unicode="&#x2044;" horiz-adv-x="111" 
d="M-231 0l514 690h58l-514 -690h-58z" />
    <glyph glyph-name="Euro" unicode="&#x20ac;" horiz-adv-x="536" 
d="M510 102v-66q-67 -46 -163 -46q-116 0 -186.5 71t-87.5 201h-60v46h56q-1 12 -1 38q0 24 1 36h-56v47h61q18 125 92 195.5t183 70.5q83 0 148 -36v-62l-3 -2q-66 42 -142 42q-86 0 -139.5 -52.5t-69.5 -155.5h229v-47h-234q-1 -12 -1 -36q0 -26 1 -38h234v-46h-230
q30 -213 211 -213q85 0 154 55z" />
    <glyph glyph-name="trademark" unicode="&#x2122;" horiz-adv-x="660" 
d="M260 640h-99v-278h-55v278h-99v48h253v-48zM574 362l-27 206l-88 -208h-19l-86 203l-28 -201h-50l44 329h27l104 -248l103 248h27l44 -329h-51z" />
    <glyph glyph-name="onethird" unicode="&#x2153;" horiz-adv-x="730" 
d="M571 -6q-59 0 -110 29v47l3 2q46 -31 101 -31q38 0 59 18.5t21 49.5q0 65 -81 65h-44v43h41q71 0 71 61q0 58 -72 58q-43 0 -87 -26l-2 2v45q37 24 98 24q53 0 86.5 -25t33.5 -72q0 -61 -64 -86q77 -17 77 -92q0 -52 -34.5 -82t-96.5 -30zM157 313h-56v311l-75 -42l-2 1
v50l114 62h19v-382zM56 0l514 690h58l-514 -690h-58z" />
    <glyph glyph-name="twothirds" unicode="&#x2154;" horiz-adv-x="771" 
d="M9 313v19l128 141q56 59 56 111q0 63 -72 63q-45 0 -91 -28l-2 2v47q42 26 102 26q57 0 88.5 -27.5t31.5 -77.5q0 -60 -71 -143l-83 -89h159v-44h-246zM612 -6q-59 0 -110 29v47l3 2q46 -31 101 -31q38 0 59 18.5t21 49.5q0 65 -81 65h-44v43h41q71 0 71 61q0 58 -72 58
q-43 0 -87 -26l-2 2v45q37 24 98 24q53 0 86.5 -25t33.5 -72q0 -61 -64 -86q77 -17 77 -92q0 -52 -34.5 -82t-96.5 -30zM96 0l514 690h58l-514 -690h-58z" />
    <glyph glyph-name="oneeighth" unicode="&#x215b;" horiz-adv-x="741" 
d="M585 -6q-61 0 -98 27.5t-37 74.5q0 65 80 93q-70 31 -70 94q0 45 34.5 71.5t86.5 26.5q56 0 90 -24t34 -73q0 -55 -68 -85q80 -33 80 -100q0 -49 -35 -77t-97 -28zM591 214l5 -1q57 26 57 68q0 28 -19 43t-51 15q-31 0 -49.5 -14.5t-18.5 -39.5t18.5 -41t57.5 -30z
M584 36q37 0 57 16.5t20 44.5q0 27 -21 44t-65 32l-5 2q-66 -28 -66 -75q0 -30 21 -47t59 -17zM157 313h-56v311l-75 -42l-2 1v50l114 62h19v-382zM55 0l514 690h58l-514 -690h-58z" />
    <glyph glyph-name="threeeighths" unicode="&#x215c;" horiz-adv-x="794" 
d="M638 -6q-61 0 -98 27.5t-37 74.5q0 65 80 93q-70 31 -70 94q0 45 34.5 71.5t86.5 26.5q56 0 90 -24t34 -73q0 -55 -68 -85q80 -33 80 -100q0 -49 -35 -77t-97 -28zM644 214l5 -1q57 26 57 68q0 28 -19 43t-51 15q-31 0 -49.5 -14.5t-18.5 -39.5t18.5 -41t57.5 -30z
M637 36q37 0 57 16.5t20 44.5q0 27 -21 44t-65 32l-5 2q-66 -28 -66 -75q0 -30 21 -47t59 -17zM107 0l514 690h58l-514 -690h-58zM130 307q-59 0 -110 29v47l3 2q46 -31 101 -31q38 0 59 18.5t21 49.5q0 65 -81 65h-44v43h41q71 0 71 61q0 58 -72 58q-43 0 -87 -26l-2 2v45
q37 24 98 24q53 0 86.5 -25t33.5 -72q0 -61 -64 -86q77 -17 77 -92q0 -52 -34.5 -82t-96.5 -30z" />
    <glyph glyph-name="fiveeighths" unicode="&#x215d;" horiz-adv-x="786" 
d="M630 -6q-61 0 -98 27.5t-37 74.5q0 65 80 93q-70 31 -70 94q0 45 34.5 71.5t86.5 26.5q56 0 90 -24t34 -73q0 -55 -68 -85q80 -33 80 -100q0 -49 -35 -77t-97 -28zM636 214l5 -1q57 26 57 68q0 28 -19 43t-51 15q-31 0 -49.5 -14.5t-18.5 -39.5t18.5 -41t57.5 -30z
M629 36q37 0 57 16.5t20 44.5q0 27 -21 44t-65 32l-5 2q-66 -28 -66 -75q0 -30 21 -47t59 -17zM100 0l514 690h58l-514 -690h-58zM124 307q-63 0 -104 27v46l3 2q41 -29 93 -29q87 0 87 76q0 71 -89 71q-33 0 -74 -12l-2 2v198h204v-44h-156v-105q25 5 44 5q61 0 95.5 -29.5
t34.5 -83.5q0 -57 -36.5 -90.5t-99.5 -33.5z" />
    <glyph glyph-name="seveneighths" unicode="&#x215e;" horiz-adv-x="751" 
d="M123 313h-59q17 87 94 236l47 93h-188v46h258v-19l-65 -129q-72 -142 -87 -227zM595 -6q-61 0 -98 27.5t-37 74.5q0 65 80 93q-70 31 -70 94q0 45 34.5 71.5t86.5 26.5q56 0 90 -24t34 -73q0 -55 -68 -85q80 -33 80 -100q0 -49 -35 -77t-97 -28zM601 214l5 -1
q57 26 57 68q0 28 -19 43t-51 15q-31 0 -49.5 -14.5t-18.5 -39.5t18.5 -41t57.5 -30zM594 36q37 0 57 16.5t20 44.5q0 27 -21 44t-65 32l-5 2q-66 -28 -66 -75q0 -30 21 -47t59 -17zM57 0l514 690h58l-514 -690h-58z" />
    <glyph glyph-name="minus" unicode="&#x2212;" horiz-adv-x="507" 
d="M51 319v54h405v-54h-405z" />
    <glyph glyph-name="uni24C5" unicode="&#x24c5;" horiz-adv-x="795" 
d="M38 352q0 159 103 262t257 103t257 -103t103 -262q0 -158 -103 -261t-257 -103t-257 103t-103 261zM713 352q0 141 -90 233.5t-225 92.5t-225.5 -92.5t-90.5 -233.5q0 -138 90.5 -231.5t225.5 -93.5t225 93.5t90 231.5zM405 502h-67v-139h70q79 0 79 71q0 68 -82 68z
M412 317h-74v-154h-57v385h124q140 0 140 -115q0 -58 -35.5 -87t-97.5 -29z" />
    <glyph glyph-name="J.alt" unicode="&#xe489;" horiz-adv-x="369" 
d="M116 -5q-60 0 -99 21v55l4 2q35 -19 86 -19q62 0 93 31.5t31 104.5v515h67v-518q0 -102 -50.5 -147t-131.5 -45z" />
    <glyph glyph-name="K.alt" unicode="&#xe48a;" horiz-adv-x="571" 
d="M80 0v705h68v-705h-68zM555 0h-77l-309 366l287 339h73v-4l-282 -330l308 -367v-4z" />
    <glyph glyph-name="M.alt" unicode="&#xe48c;" horiz-adv-x="839" 
d="M712 0l-58 527l-229 -534h-19l-228 532l-53 -525h-65l74 714h26l258 -593l256 593h24l81 -714h-67z" />
    <glyph glyph-name="Q.alt" unicode="&#xe490;" horiz-adv-x="769" 
d="M385 49q97 0 165 51l-140 144l1 8h74l108 -111q68 82 68 214q0 135 -77 218t-199 83t-199.5 -83t-77.5 -218q0 -136 78 -221t199 -85zM647 0l-56 58q-90 -68 -206 -68q-149 0 -248.5 104.5t-99.5 260.5t99 258t249 102t248.5 -102t98.5 -258q0 -155 -97 -257l87 -90
l-2 -8h-73z" />
    <glyph glyph-name="W.alt" unicode="&#xe496;" horiz-adv-x="894" 
d="M645 -10l-198 568l-198 -568h-15l-219 711v4h70l163 -549l192 555h17l194 -554l161 548h67v-4l-219 -711h-15z" />
    <glyph glyph-name="a.alt" unicode="&#xe4c0;" horiz-adv-x="566" 
d="M450 0l-9 75q-65 -86 -175 -86q-102 0 -168.5 71.5t-66.5 193.5q0 124 68.5 200.5t173.5 76.5q103 0 165 -80l6 69h56v-520h-50zM271 45q100 0 164 75v283q-61 72 -159 72q-76 0 -128 -58t-52 -163q0 -102 50.5 -155.5t124.5 -53.5z" />
    <glyph glyph-name="g.alt" unicode="&#xe4c6;" horiz-adv-x="570" 
d="M273 45q103 0 169 76v281q-62 73 -164 73q-79 0 -130.5 -58t-51.5 -164q0 -103 49.5 -155.5t127.5 -52.5zM265 -220q-119 0 -187 42v58l3 2q73 -45 177 -45q89 0 136.5 37.5t47.5 111.5v83q-70 -80 -174 -80q-106 0 -171.5 71t-65.5 193q0 126 67.5 202t176.5 76
q106 0 169 -80l4 69h58v-530q0 -111 -66.5 -160.5t-174.5 -49.5z" />
    <glyph glyph-name="k.alt" unicode="&#xe4ca;" horiz-adv-x="467" 
d="M66 0v733l64 17v-750h-64zM456 0h-76l-237 272l220 248h69v-4l-214 -240l238 -272v-4z" />
    <glyph glyph-name="l.alt" unicode="&#xe4cb;" horiz-adv-x="234" 
d="M161 -2q-46 0 -70 22.5t-24 76.5v636l65 17v-651q0 -45 40 -45q20 0 41 7l2 -2v-51q-21 -10 -54 -10z" />
    <glyph glyph-name="t.alt" unicode="&#xe4d3;" horiz-adv-x="321" 
d="M291 466h-113v-466h-65v466h-85v54h85v111l65 10v-121h113v-54z" />
    <glyph glyph-name="y.alt" unicode="&#xe4d8;" horiz-adv-x="485" 
d="M188 -210h-69v4l95 231l-206 491v4h70l170 -424l165 424h64v-4z" />
    <glyph glyph-name="k.alt1" unicode="&#xe4ea;" horiz-adv-x="490" 
d="M293 476q-80 0 -163 -77v-399h-64v733l64 17v-304q78 84 174 84q72 0 110 -37t38 -97q0 -128 -174 -185l187 -206v-5h-73l-197 214v13q89 25 140.5 67t51.5 98q0 41 -24.5 62.5t-69.5 21.5z" />
    <glyph glyph-name="y.alt1" unicode="&#xe4f8;" horiz-adv-x="536" 
d="M254 -220q-105 0 -177 42v58l3 2q72 -45 167 -45q160 0 160 144v76q-81 -67 -175 -67q-81 0 -126.5 42t-45.5 122v366h64v-353q0 -123 123 -123q87 0 160 57v419h65v-535q0 -109 -60.5 -157t-157.5 -48z" />
    <glyph glyph-name="NULL" horiz-adv-x="0" 
 />
    <glyph glyph-name="CR" horiz-adv-x="333" 
 />
    <glyph glyph-name="idotaccent" horiz-adv-x="203" 
d="M69 0v520h65v-520h-65zM67 624v84h69v-84h-69z" />
    <glyph glyph-name="space_uni0326" horiz-adv-x="400" 
d="M152 -199l12 144h71v-6l-30 -138h-53z" />
    <glyph glyph-name="zero.num" horiz-adv-x="350" 
d="M175 307q-67 0 -110 53t-43 142t42.5 140.5t110.5 51.5t110 -51.5t43 -140.5q0 -89 -42.5 -142t-110.5 -53zM175 353q43 0 68 39t25 110t-25 108.5t-68 37.5t-68 -37.5t-25 -108.5t25 -110t68 -39z" />
    <glyph glyph-name="one.num" horiz-adv-x="195" 
d="M143 313h-56v311l-75 -42l-2 1v50l114 62h19v-382z" />
    <glyph glyph-name="two.num" horiz-adv-x="275" 
d="M5 313v19l128 141q56 59 56 111q0 63 -72 63q-45 0 -91 -28l-2 2v47q42 26 102 26q57 0 88.5 -27.5t31.5 -77.5q0 -60 -71 -143l-83 -89h159v-44h-246z" />
    <glyph glyph-name="three.num" horiz-adv-x="279" 
d="M127 307q-59 0 -110 29v47l3 2q46 -31 101 -31q38 0 59 18.5t21 49.5q0 65 -81 65h-44v43h41q71 0 71 61q0 58 -72 58q-43 0 -87 -26l-2 2v45q37 24 98 24q53 0 86.5 -25t33.5 -72q0 -61 -64 -86q77 -17 77 -92q0 -52 -34.5 -82t-96.5 -30z" />
    <glyph glyph-name="four.num" horiz-adv-x="305" 
d="M186 435v156l-117 -156h117zM294 392h-54v-79h-54v79h-184v23l211 281h27v-261h54v-43z" />
    <glyph glyph-name="five.num" horiz-adv-x="278" 
d="M121 307q-63 0 -104 27v46l3 2q41 -29 93 -29q87 0 87 76q0 71 -89 71q-33 0 -74 -12l-2 2v198h204v-44h-156v-105q25 5 44 5q61 0 95.5 -29.5t34.5 -83.5q0 -57 -36.5 -90.5t-99.5 -33.5z" />
    <glyph glyph-name="six.num" horiz-adv-x="311" 
d="M295 430q0 -53 -33.5 -88t-94.5 -35q-69 0 -106.5 47t-37.5 133q0 101 47 154t120 53q52 0 81 -18v-48l-3 -1q-31 21 -73 21q-49 0 -79 -34t-34 -104q36 36 96 36q50 0 83.5 -30.5t33.5 -85.5zM166 351q36 0 53.5 22t17.5 57q0 38 -20 56.5t-55 18.5q-47 0 -81 -32
q5 -122 85 -122z" />
    <glyph glyph-name="seven.num" horiz-adv-x="277" 
d="M119 313h-59q17 87 94 236l47 93h-188v46h258v-19l-65 -129q-72 -142 -87 -227z" />
    <glyph glyph-name="eight.num" horiz-adv-x="302" 
d="M153 307q-61 0 -98 27.5t-37 74.5q0 65 80 93q-70 31 -70 94q0 45 34.5 71.5t86.5 26.5q56 0 90 -24t34 -73q0 -55 -68 -85q80 -33 80 -100q0 -49 -35 -77t-97 -28zM159 527l5 -1q57 26 57 68q0 28 -19 43t-51 15q-31 0 -49.5 -14.5t-18.5 -39.5t18.5 -41t57.5 -30z
M152 349q37 0 57 16.5t20 44.5q0 27 -21 44t-65 32l-5 2q-66 -28 -66 -75q0 -30 21 -47t59 -17z" />
    <glyph glyph-name="nine.num" horiz-adv-x="311" 
d="M148 497q47 0 82 30q-4 123 -83 123q-36 0 -54.5 -22t-18.5 -56q0 -75 74 -75zM117 307q-51 0 -82 19v47l3 1q33 -21 75 -21q55 0 83.5 32.5t32.5 105.5q-35 -35 -96 -35q-52 0 -84.5 29.5t-32.5 86.5q0 53 34.5 87.5t94.5 34.5q69 0 105.5 -46t36.5 -133
q0 -106 -45 -157t-125 -51z" />
    <glyph glyph-name="zero.den" horiz-adv-x="350" 
d="M175 -6q-67 0 -110 53t-43 142t42.5 140.5t110.5 51.5t110 -51.5t43 -140.5q0 -89 -42.5 -142t-110.5 -53zM175 40q43 0 68 39t25 110t-25 108.5t-68 37.5t-68 -37.5t-25 -108.5t25 -110t68 -39z" />
    <glyph glyph-name="one.den" horiz-adv-x="195" 
d="M143 0h-56v311l-75 -42l-2 1v50l114 62h19v-382z" />
    <glyph glyph-name="two.den" horiz-adv-x="275" 
d="M5 0v19l128 141q56 59 56 111q0 63 -72 63q-45 0 -91 -28l-2 2v47q42 26 102 26q57 0 88.5 -27.5t31.5 -77.5q0 -60 -71 -143l-83 -89h159v-44h-246z" />
    <glyph glyph-name="three.den" horiz-adv-x="279" 
d="M127 -6q-59 0 -110 29v47l3 2q46 -31 101 -31q38 0 59 18.5t21 49.5q0 65 -81 65h-44v43h41q71 0 71 61q0 58 -72 58q-43 0 -87 -26l-2 2v45q37 24 98 24q53 0 86.5 -25t33.5 -72q0 -61 -64 -86q77 -17 77 -92q0 -52 -34.5 -82t-96.5 -30z" />
    <glyph glyph-name="four.den" horiz-adv-x="305" 
d="M186 122v156l-117 -156h117zM294 79h-54v-79h-54v79h-184v23l211 281h27v-261h54v-43z" />
    <glyph glyph-name="five.den" horiz-adv-x="278" 
d="M121 -6q-63 0 -104 27v46l3 2q41 -29 93 -29q87 0 87 76q0 71 -89 71q-33 0 -74 -12l-2 2v198h204v-44h-156v-105q25 5 44 5q62 0 96 -29.5t34 -83.5q0 -57 -36.5 -90.5t-99.5 -33.5z" />
    <glyph glyph-name="six.den" horiz-adv-x="311" 
d="M295 117q0 -53 -33.5 -88t-94.5 -35q-69 0 -106.5 47t-37.5 133q0 101 47 154t120 53q52 0 81 -18v-48l-3 -1q-31 21 -73 21q-49 0 -79 -34t-34 -104q36 36 96 36q50 0 83.5 -30.5t33.5 -85.5zM166 38q36 0 53.5 22t17.5 57q0 38 -20 56.5t-55 18.5q-47 0 -81 -32
q5 -122 85 -122z" />
    <glyph glyph-name="seven.den" horiz-adv-x="277" 
d="M119 0h-59q17 87 94 236l47 93h-188v46h258v-19l-65 -129q-72 -142 -87 -227z" />
    <glyph glyph-name="eight.den" horiz-adv-x="302" 
d="M153 -6q-61 0 -98 27.5t-37 74.5q0 65 80 93q-70 31 -70 94q0 45 34.5 71.5t86.5 26.5q56 0 90 -24t34 -73q0 -55 -68 -85q80 -33 80 -100q0 -49 -35 -77t-97 -28zM159 214l5 -1q57 26 57 68q0 28 -19 43t-51 15q-31 0 -49.5 -14.5t-18.5 -39.5t18.5 -41t57.5 -30z
M152 36q37 0 57 16.5t20 44.5q0 27 -21 44t-65 32l-5 2q-66 -28 -66 -75q0 -30 21 -47t59 -17z" />
    <glyph glyph-name="nine.den" horiz-adv-x="311" 
d="M148 184q47 0 82 30q-4 123 -83 123q-36 0 -54.5 -22t-18.5 -56q0 -75 74 -75zM117 -6q-51 0 -82 19v47l3 1q33 -21 75 -21q55 0 83.5 32.5t32.5 105.5q-35 -35 -96 -35q-52 0 -84.5 29.5t-32.5 86.5q0 53 34.5 87.5t94.5 34.5q69 0 105.5 -46t36.5 -133q0 -106 -45 -157
t-125 -51z" />
    <glyph glyph-name="zero.sub" horiz-adv-x="350" 
d="M175 -96q-67 0 -110 53t-43 142t42.5 140.5t110.5 51.5t110 -51.5t43 -140.5q0 -89 -42.5 -142t-110.5 -53zM175 -50q43 0 68 39t25 110t-25 108.5t-68 37.5t-68 -37.5t-25 -108.5t25 -110t68 -39z" />
    <glyph glyph-name="one.sub" horiz-adv-x="195" 
d="M143 -90h-56v311l-75 -42l-2 1v50l114 62h19v-382z" />
    <glyph glyph-name="two.sub" horiz-adv-x="275" 
d="M5 -90v19l128 141q56 59 56 111q0 63 -72 63q-45 0 -91 -28l-2 2v47q42 26 102 26q57 0 88.5 -27.5t31.5 -77.5q0 -60 -71 -143l-83 -89h159v-44h-246z" />
    <glyph glyph-name="three.sub" horiz-adv-x="279" 
d="M127 -96q-59 0 -110 29v47l3 2q46 -31 101 -31q38 0 59 18.5t21 49.5q0 65 -81 65h-44v43h41q71 0 71 61q0 58 -72 58q-43 0 -87 -26l-2 2v45q37 24 98 24q53 0 86.5 -25t33.5 -72q0 -61 -64 -86q77 -17 77 -92q0 -52 -34.5 -82t-96.5 -30z" />
    <glyph glyph-name="four.sub" horiz-adv-x="305" 
d="M186 32v156l-117 -156h117zM294 -11h-54v-79h-54v79h-184v23l211 281h27v-261h54v-43z" />
    <glyph glyph-name="five.sub" horiz-adv-x="278" 
d="M121 -99q-63 0 -104 27v46l3 2q41 -29 93 -29q87 0 87 76q0 71 -89 71q-33 0 -74 -12l-2 2v198h204v-44h-156v-105q25 5 44 5q61 0 95.5 -29.5t34.5 -83.5q0 -57 -36.5 -90.5t-99.5 -33.5z" />
    <glyph glyph-name="six.sub" horiz-adv-x="311" 
d="M295 27q0 -53 -33.5 -88t-94.5 -35q-69 0 -106.5 47t-37.5 133q0 101 47 154t120 53q52 0 81 -18v-48l-3 -1q-31 21 -73 21q-49 0 -79 -34t-34 -104q36 36 96 36q50 0 83.5 -30.5t33.5 -85.5zM166 -52q36 0 53.5 22t17.5 57q0 38 -20 56.5t-55 18.5q-47 0 -81 -32
q5 -122 85 -122z" />
    <glyph glyph-name="seven.sub" horiz-adv-x="277" 
d="M119 -90h-59q17 87 94 236l47 93h-188v46h258v-19l-65 -129q-72 -142 -87 -227z" />
    <glyph glyph-name="eight.sub" horiz-adv-x="302" 
d="M153 -96q-61 0 -98 27.5t-37 74.5q0 65 80 93q-70 31 -70 94q0 45 34.5 71.5t86.5 26.5q56 0 90 -24t34 -73q0 -55 -68 -85q80 -33 80 -100q0 -49 -35 -77t-97 -28zM159 124l5 -1q57 26 57 68q0 28 -19 43t-51 15q-31 0 -49.5 -14.5t-18.5 -39.5t18.5 -41t57.5 -30z
M152 -54q37 0 57 16.5t20 44.5q0 27 -21 44t-65 32l-5 2q-66 -28 -66 -75q0 -30 21 -47t59 -17z" />
    <glyph glyph-name="nine.sub" horiz-adv-x="311" 
d="M148 94q47 0 82 30q-4 123 -83 123q-36 0 -54.5 -22t-18.5 -56q0 -75 74 -75zM117 -96q-51 0 -82 19v47l3 1q33 -21 75 -21q55 0 83.5 32.5t32.5 105.5q-35 -35 -96 -35q-52 0 -84.5 29.5t-32.5 86.5q0 53 34.5 87.5t94.5 34.5q69 0 105.5 -46t36.5 -133q0 -106 -45 -157
t-125 -51z" />
    <glyph glyph-name="plus.sub" horiz-adv-x="325" 
d="M140 -46v121h-110v44h110v121h46v-121h109v-44h-109v-121h-46z" />
    <glyph glyph-name="minus.sub" horiz-adv-x="325" 
d="M30 75v44h265v-44h-265z" />
    <glyph glyph-name="zero.sup" horiz-adv-x="350" 
d="M175 367q-67 0 -110 53t-43 142t42.5 140.5t110.5 51.5t110 -51.5t43 -140.5q0 -89 -42.5 -142t-110.5 -53zM175 413q43 0 68 39t25 110t-25 108.5t-68 37.5t-68 -37.5t-25 -108.5t25 -110t68 -39z" />
    <glyph glyph-name="one.sup" horiz-adv-x="195" 
d="M143 373h-56v311l-75 -42l-2 1v50l114 62h19v-382z" />
    <glyph glyph-name="two.sup" horiz-adv-x="275" 
d="M5 373v19l128 141q56 59 56 111q0 63 -72 63q-45 0 -91 -28l-2 2v47q42 26 102 26q57 0 88.5 -27.5t31.5 -77.5q0 -60 -71 -143l-83 -89h159v-44h-246z" />
    <glyph glyph-name="three.sup" horiz-adv-x="279" 
d="M127 367q-59 0 -110 29v47l3 2q46 -31 101 -31q38 0 59 18.5t21 49.5q0 65 -81 65h-44v43h41q71 0 71 61q0 58 -72 58q-43 0 -87 -26l-2 2v45q37 24 98 24q53 0 86.5 -25t33.5 -72q0 -61 -64 -86q77 -17 77 -92q0 -52 -34.5 -82t-96.5 -30z" />
    <glyph glyph-name="four.sup" horiz-adv-x="305" 
d="M186 495v156l-117 -156h117zM294 452h-54v-79h-54v79h-184v23l211 281h27v-261h54v-43z" />
    <glyph glyph-name="five.sup" horiz-adv-x="278" 
d="M121 367q-63 0 -104 27v46l3 2q41 -29 93 -29q87 0 87 76q0 71 -89 71q-33 0 -74 -12l-2 2v198h204v-44h-156v-105q25 5 44 5q61 0 95.5 -29.5t34.5 -83.5q0 -57 -36.5 -90.5t-99.5 -33.5z" />
    <glyph glyph-name="six.sup" horiz-adv-x="311" 
d="M295 490q0 -53 -33.5 -88t-94.5 -35q-69 0 -106.5 47t-37.5 133q0 101 47 154t120 53q52 0 81 -18v-48l-3 -1q-31 21 -73 21q-49 0 -79 -34t-34 -104q36 36 96 36q50 0 83.5 -30.5t33.5 -85.5zM166 411q36 0 53.5 22t17.5 57q0 38 -20 56.5t-55 18.5q-47 0 -81 -32
q5 -122 85 -122z" />
    <glyph glyph-name="seven.sup" horiz-adv-x="277" 
d="M119 373h-59q17 87 94 236l47 93h-188v46h258v-19l-65 -129q-72 -142 -87 -227z" />
    <glyph glyph-name="eight.sup" horiz-adv-x="302" 
d="M153 367q-61 0 -98 27.5t-37 74.5q0 65 80 93q-70 31 -70 94q0 45 34.5 71.5t86.5 26.5q56 0 90 -24t34 -73q0 -55 -68 -85q80 -33 80 -100q0 -49 -35 -77t-97 -28zM159 587l5 -1q57 26 57 68q0 28 -19 43t-51 15q-31 0 -49.5 -14.5t-18.5 -39.5t18.5 -41t57.5 -30z
M152 409q37 0 57 16.5t20 44.5q0 27 -21 44t-65 32l-5 2q-66 -28 -66 -75q0 -30 21 -47t59 -17z" />
    <glyph glyph-name="nine.sup" horiz-adv-x="311" 
d="M148 557q47 0 82 30q-4 123 -83 123q-36 0 -54.5 -22t-18.5 -56q0 -75 74 -75zM117 367q-51 0 -82 19v47l3 1q33 -21 75 -21q55 0 83.5 32.5t32.5 105.5q-35 -35 -96 -35q-52 0 -84.5 29.5t-32.5 86.5q0 53 34.5 87.5t94.5 34.5q69 0 105.5 -46t36.5 -133
q0 -106 -45 -157t-125 -51z" />
    <glyph glyph-name="plus.sup" horiz-adv-x="325" 
d="M140 417v121h-110v44h110v121h46v-121h109v-44h-109v-121h-46z" />
    <glyph glyph-name="minus.sup" horiz-adv-x="325" 
d="M30 538v44h265v-44h-265z" />
    <glyph glyph-name="IJ.alt" horiz-adv-x="594" 
d="M82 0v705h68v-705h-68zM345 -5q-60 0 -99 21v55l4 2q35 -19 86 -19q62 0 93 31.5t31 104.5v515h67v-518q0 -102 -50.5 -147t-131.5 -45z" />
    <glyph glyph-name="Jcircumflex.alt" horiz-adv-x="369" 
d="M267 857l-90 -93h-64l121 144h64l121 -144h-64zM116 -5q-60 0 -99 21v55l4 2q35 -19 86 -19q62 0 93 31.5t31 104.5v515h67v-518q0 -102 -50.5 -147t-131.5 -45z" />
    <glyph glyph-name="Kcommaaccent.alt" horiz-adv-x="571" 
d="M255 -199l12 144h71v-6l-30 -138h-53zM80 0v705h68v-705h-68zM555 0h-77l-309 366l287 339h73v-4l-282 -330l308 -367v-4z" />
    <glyph glyph-name="Wacute.alt" horiz-adv-x="894" 
d="M476 764h-62l94 141h82zM645 -10l-198 568l-198 -568h-15l-219 711v4h70l163 -549l192 555h17l194 -554l161 548h67v-4l-219 -711h-15z" />
    <glyph glyph-name="Wcircumflex.alt" horiz-adv-x="894" 
d="M448 857l-90 -93h-64l121 144h64l121 -144h-64zM645 -10l-198 568l-198 -568h-15l-219 711v4h70l163 -549l192 555h17l194 -554l161 548h67v-4l-219 -711h-15z" />
    <glyph glyph-name="Wdieresis.alt" horiz-adv-x="894" 
d="M509 773v75h70v-75h-70zM315 773v75h70v-75h-70zM645 -10l-198 568l-198 -568h-15l-219 711v4h70l163 -549l192 555h17l194 -554l161 548h67v-4l-219 -711h-15z" />
    <glyph glyph-name="Wgrave.alt" horiz-adv-x="894" 
d="M421 764l-114 141h82l94 -141h-62zM645 -10l-198 568l-198 -568h-15l-219 711v4h70l163 -549l192 555h17l194 -554l161 548h67v-4l-219 -711h-15z" />
    <glyph glyph-name="aacute.alt" horiz-adv-x="566" 
d="M419 727l-92 -125h-53l74 125h71zM450 0l-9 75q-65 -86 -175 -86q-102 0 -168.5 71.5t-66.5 193.5q0 124 68.5 200.5t173.5 76.5q103 0 165 -80l6 69h56v-520h-50zM271 45q100 0 164 75v283q-61 72 -159 72q-76 0 -128 -58t-52 -163q0 -102 50.5 -155.5t124.5 -53.5z" />
    <glyph glyph-name="abreve.alt" horiz-adv-x="566" 
d="M321 595q-56 0 -87 31t-35 82h49q8 -68 72 -68q65 0 73 68h49q-4 -51 -34.5 -82t-86.5 -31zM450 0l-9 75q-65 -86 -175 -86q-102 0 -168.5 71.5t-66.5 193.5q0 124 68.5 200.5t173.5 76.5q103 0 165 -80l6 69h56v-520h-50zM271 45q100 0 164 75v283q-61 72 -159 72
q-76 0 -128 -58t-52 -163q0 -102 50.5 -155.5t124.5 -53.5z" />
    <glyph glyph-name="acircumflex.alt" horiz-adv-x="566" 
d="M450 0l-9 75q-65 -86 -175 -86q-102 0 -168.5 71.5t-66.5 193.5q0 124 68.5 200.5t173.5 76.5q103 0 165 -80l6 69h56v-520h-50zM271 45q100 0 164 75v283q-61 72 -159 72q-76 0 -128 -58t-52 -163q0 -102 50.5 -155.5t124.5 -53.5zM299 669l-68 -77h-58l101 125h52
l101 -125h-58z" />
    <glyph glyph-name="adieresis.alt" horiz-adv-x="566" 
d="M167 637v74h70v-74h-70zM335 637v74h70v-74h-70zM450 0l-9 75q-65 -86 -175 -86q-102 0 -168.5 71.5t-66.5 193.5q0 124 68.5 200.5t173.5 76.5q103 0 165 -80l6 69h56v-520h-50zM271 45q100 0 164 75v283q-61 72 -159 72q-76 0 -128 -58t-52 -163q0 -102 50.5 -155.5
t124.5 -53.5z" />
    <glyph glyph-name="agrave.alt" horiz-adv-x="566" 
d="M296 602l-92 125h71l74 -125h-53zM450 0l-9 75q-65 -86 -175 -86q-102 0 -168.5 71.5t-66.5 193.5q0 124 68.5 200.5t173.5 76.5q103 0 165 -80l6 69h56v-520h-50zM271 45q100 0 164 75v283q-61 72 -159 72q-76 0 -128 -58t-52 -163q0 -102 50.5 -155.5t124.5 -53.5z" />
    <glyph glyph-name="amacron.alt" horiz-adv-x="566" 
d="M450 0l-9 75q-65 -86 -175 -86q-102 0 -168.5 71.5t-66.5 193.5q0 124 68.5 200.5t173.5 76.5q103 0 165 -80l6 69h56v-520h-50zM271 45q100 0 164 75v283q-61 72 -159 72q-76 0 -128 -58t-52 -163q0 -102 50.5 -155.5t124.5 -53.5zM150 649v55h272v-55h-272z" />
    <glyph glyph-name="aogonek.alt" horiz-adv-x="566" 
d="M528 -155v-50q-30 -16 -64 -16q-56 0 -86 25.5t-30 68.5q0 77 101 137l-8 65q-65 -86 -175 -86q-102 0 -168.5 71.5t-66.5 193.5q0 124 68.5 200.5t173.5 76.5q103 0 165 -80l6 69h56v-520q-88 -55 -88 -114q0 -52 59 -52q30 0 55 13zM271 45q100 0 164 75v283
q-61 72 -159 72q-76 0 -128 -58t-52 -163q0 -102 50.5 -155.5t124.5 -53.5z" />
    <glyph glyph-name="aring.alt" horiz-adv-x="566" 
d="M286 589q-47 0 -76 29t-29 74t29 73.5t76 28.5t76 -28.5t29 -73.5t-29 -74t-76 -29zM286 752q-26 0 -41.5 -16.5t-15.5 -43.5t15.5 -44t41.5 -17q27 0 42.5 17t15.5 44t-15.5 43.5t-42.5 16.5zM450 0l-9 75q-65 -86 -175 -86q-102 0 -168.5 71.5t-66.5 193.5
q0 124 68.5 200.5t173.5 76.5q103 0 165 -80l6 69h56v-520h-50zM271 45q100 0 164 75v283q-61 72 -159 72q-76 0 -128 -58t-52 -163q0 -102 50.5 -155.5t124.5 -53.5z" />
    <glyph glyph-name="aringacute.alt" horiz-adv-x="566" 
d="M286 589q-47 0 -76 29t-29 74t29 73.5t76 28.5t76 -28.5t29 -73.5t-29 -74t-76 -29zM286 752q-26 0 -41.5 -16.5t-15.5 -43.5t15.5 -44t41.5 -17q27 0 42.5 17t15.5 44t-15.5 43.5t-42.5 16.5zM450 0l-9 75q-65 -86 -175 -86q-102 0 -168.5 71.5t-66.5 193.5
q0 124 68.5 200.5t173.5 76.5q103 0 165 -80l6 69h56v-520h-50zM271 45q100 0 164 75v283q-61 72 -159 72q-76 0 -128 -58t-52 -163q0 -102 50.5 -155.5t124.5 -53.5zM316 821h-62l94 141h82z" />
    <glyph glyph-name="atilde.alt" horiz-adv-x="566" 
d="M359 658q28 -3 54 32l4 -1l12 -39q-11 -19 -31 -32t-42 -10q-26 2 -54.5 18t-42.5 17q-29 4 -58 -31l-3 2l-11 42q13 17 34 28.5t42 9.5q22 -2 50 -18.5t46 -17.5zM450 0l-9 75q-65 -86 -175 -86q-102 0 -168.5 71.5t-66.5 193.5q0 124 68.5 200.5t173.5 76.5
q103 0 165 -80l6 69h56v-520h-50zM271 45q100 0 164 75v283q-61 72 -159 72q-76 0 -128 -58t-52 -163q0 -102 50.5 -155.5t124.5 -53.5z" />
    <glyph glyph-name="gbreve.alt" horiz-adv-x="570" 
d="M273 45q103 0 169 76v281q-62 73 -164 73q-79 0 -130.5 -58t-51.5 -164q0 -103 49.5 -155.5t127.5 -52.5zM265 -220q-119 0 -187 42v58l3 2q73 -45 177 -45q89 0 136.5 37.5t47.5 111.5v83q-70 -80 -174 -80q-106 0 -171.5 71t-65.5 193q0 126 67.5 202t176.5 76
q106 0 169 -80l4 69h58v-530q0 -111 -66.5 -160.5t-174.5 -49.5zM286 613q-59 0 -97 37t-42 97h53q11 -80 86 -80q36 0 58 21t27 59h53q-4 -60 -41.5 -97t-96.5 -37z" />
    <glyph glyph-name="gcircumflex.alt" horiz-adv-x="570" 
d="M284 704l-85 -98h-62l116 147h64l116 -147h-62zM273 45q103 0 169 76v281q-62 73 -164 73q-79 0 -130.5 -58t-51.5 -164q0 -103 49.5 -155.5t127.5 -52.5zM265 -220q-119 0 -187 42v58l3 2q73 -45 177 -45q89 0 136.5 37.5t47.5 111.5v83q-70 -80 -174 -80
q-106 0 -171.5 71t-65.5 193q0 126 67.5 202t176.5 76q106 0 169 -80l4 69h58v-530q0 -111 -66.5 -160.5t-174.5 -49.5z" />
    <glyph glyph-name="gcommaaccent.alt" horiz-adv-x="570" 
d="M326 752l-12 -143h-71l-1 2l31 141h53zM273 45q103 0 169 76v281q-62 73 -164 73q-79 0 -130.5 -58t-51.5 -164q0 -103 49.5 -155.5t127.5 -52.5zM265 -220q-119 0 -187 42v58l3 2q73 -45 177 -45q89 0 136.5 37.5t47.5 111.5v83q-70 -80 -174 -80q-106 0 -171.5 71
t-65.5 193q0 126 67.5 202t176.5 76q106 0 169 -80l4 69h58v-530q0 -111 -66.5 -160.5t-174.5 -49.5z" />
    <glyph glyph-name="gdotaccent.alt" horiz-adv-x="570" 
d="M273 45q103 0 169 76v281q-62 73 -164 73q-79 0 -130.5 -58t-51.5 -164q0 -103 49.5 -155.5t127.5 -52.5zM265 -220q-119 0 -187 42v58l3 2q73 -45 177 -45q89 0 136.5 37.5t47.5 111.5v83q-70 -80 -174 -80q-106 0 -171.5 71t-65.5 193q0 126 67.5 202t176.5 76
q106 0 169 -80l4 69h58v-530q0 -111 -66.5 -160.5t-174.5 -49.5zM249 635v78h73v-78h-73z" />
    <glyph glyph-name="germandbls.alt" horiz-adv-x="535" 
d="M199 12v57l1 2q46 -24 105 -24q57 0 97 40.5t40 109.5q0 151 -198 210v43q143 32 143 141q0 48 -33.5 77.5t-87.5 29.5q-61 0 -98.5 -38t-37.5 -115v-545h-64v547q0 102 57.5 153.5t142.5 51.5q82 0 133.5 -43.5t51.5 -116.5q0 -63 -38.5 -103.5t-98.5 -55.5
q193 -66 193 -236q0 -97 -54 -152t-139 -55q-67 0 -115 22z" />
    <glyph glyph-name="kcommaaccent.alt" horiz-adv-x="467" 
d="M205 -199l12 144h71v-6l-30 -138h-53zM66 0v733l64 17v-750h-64zM456 0h-76l-237 272l220 248h69v-4l-214 -240l238 -272v-4z" />
    <glyph glyph-name="kcommaaccent.alt1" horiz-adv-x="490" 
d="M205 -199l12 144h71v-6l-30 -138h-53zM293 476q-80 0 -163 -77v-399h-64v733l64 17v-304q78 84 174 84q72 0 110 -37t38 -97q0 -128 -174 -185l187 -206v-5h-73l-197 214v13q89 25 140.5 67t51.5 98q0 41 -24.5 62.5t-69.5 21.5z" />
    <glyph glyph-name="lacute.alt" horiz-adv-x="234" 
d="M161 -2q-46 0 -70 22.5t-24 76.5v636l65 17v-651q0 -45 40 -45q20 0 41 7l2 -2v-51q-21 -10 -54 -10zM130 787h-62l94 141h82z" />
    <glyph glyph-name="lcaron.alt" horiz-adv-x="234" 
d="M161 -2q-46 0 -70 22.5t-24 76.5v636l65 17v-651q0 -45 40 -45q20 0 41 7l2 -2v-51q-21 -10 -54 -10zM183 581l8 158h65v-6l-27 -152h-46z" />
    <glyph glyph-name="lcommaaccent.alt" horiz-adv-x="234" 
d="M95 -199l12 144h71v-6l-30 -138h-53zM161 -2q-46 0 -70 22.5t-24 76.5v636l65 17v-651q0 -45 40 -45q20 0 41 7l2 -2v-51q-21 -10 -54 -10z" />
    <glyph glyph-name="ldot.alt" horiz-adv-x="263" 
d="M161 -2q-46 0 -70 22.5t-24 76.5v636l65 17v-651q0 -45 40 -45q20 0 41 7l2 -2v-51q-21 -10 -54 -10zM202 337v77h72v-77h-72z" />
    <glyph glyph-name="lslash.alt" horiz-adv-x="249" 
d="M173 -2q-46 0 -70 22.5t-24 76.5v277l-69 -41v59l69 41v300l65 17v-278l81 49v-59l-81 -49v-314q0 -45 40 -45q20 0 41 7l2 -2v-51q-21 -10 -54 -10z" />
    <glyph glyph-name="tbar.alt" horiz-adv-x="321" 
d="M291 299h-113v-299h-65v299h-85v48h85v119h-85v54h85v111l65 10v-121h113v-54h-113v-119h113v-48z" />
    <glyph glyph-name="tcaron.alt" horiz-adv-x="321" 
d="M291 466h-113v-466h-65v466h-85v54h85v111l65 10v-121h113v-54zM234 581l8 158h65v-6l-27 -152h-46z" />
    <glyph glyph-name="tcommaaccent.alt" horiz-adv-x="321" 
d="M98 -199l12 144h71v-6l-30 -138h-53zM291 466h-113v-466h-65v466h-85v54h85v111l65 10v-121h113v-54z" />
    <glyph glyph-name="yacute.alt" horiz-adv-x="485" 
d="M361 727l-92 -125h-53l74 125h71zM188 -210h-69v4l95 231l-206 491v4h70l170 -424l165 424h64v-4z" />
    <glyph glyph-name="yacute.alt1" horiz-adv-x="536" 
d="M381 727l-92 -125h-53l74 125h71zM254 -220q-105 0 -177 42v58l3 2q72 -45 167 -45q160 0 160 144v76q-81 -67 -175 -67q-81 0 -126.5 42t-45.5 122v366h64v-353q0 -123 123 -123q87 0 160 57v419h65v-535q0 -109 -60.5 -157t-157.5 -48z" />
    <glyph glyph-name="ycircumflex.alt" horiz-adv-x="485" 
d="M247 704l-85 -98h-62l116 147h64l116 -147h-62zM188 -210h-69v4l95 231l-206 491v4h70l170 -424l165 424h64v-4z" />
    <glyph glyph-name="ycircumflex.alt1" horiz-adv-x="536" 
d="M266 704l-85 -98h-62l116 147h64l116 -147h-62zM254 -220q-105 0 -177 42v58l3 2q72 -45 167 -45q160 0 160 144v76q-81 -67 -175 -67q-81 0 -126.5 42t-45.5 122v366h64v-353q0 -123 123 -123q87 0 160 57v419h65v-535q0 -109 -60.5 -157t-157.5 -48z" />
    <glyph glyph-name="ydieresis.alt" horiz-adv-x="485" 
d="M129 637v74h70v-74h-70zM297 637v74h70v-74h-70zM188 -210h-69v4l95 231l-206 491v4h70l170 -424l165 424h64v-4z" />
    <glyph glyph-name="ydieresis.alt1" horiz-adv-x="536" 
d="M148 637v74h70v-74h-70zM316 637v74h70v-74h-70zM254 -220q-105 0 -177 42v58l3 2q72 -45 167 -45q160 0 160 144v76q-81 -67 -175 -67q-81 0 -126.5 42t-45.5 122v366h64v-353q0 -123 123 -123q87 0 160 57v419h65v-535q0 -109 -60.5 -157t-157.5 -48z" />
    <glyph glyph-name="ygrave.alt" horiz-adv-x="485" 
d="M237 602l-92 125h71l74 -125h-53zM188 -210h-69v4l95 231l-206 491v4h70l170 -424l165 424h64v-4z" />
    <glyph glyph-name="ygrave.alt1" horiz-adv-x="536" 
d="M251 602l-92 125h71l74 -125h-53zM254 -220q-105 0 -177 42v58l3 2q72 -45 167 -45q160 0 160 144v76q-81 -67 -175 -67q-81 0 -126.5 42t-45.5 122v366h64v-353q0 -123 123 -123q87 0 160 57v419h65v-535q0 -109 -60.5 -157t-157.5 -48z" />
    <glyph glyph-name="space_uni0326.alt" horiz-adv-x="400" 
d="M237 752l-12 -143h-71l-1 2l31 141h53z" />
    <glyph glyph-name="ordfeminine.alt" horiz-adv-x="484" 
d="M231 292q82 0 134 61v232q-50 59 -130 59q-61 0 -104.5 -48t-43.5 -134q0 -84 41.5 -127t102.5 -43zM378 249l-8 63q-56 -71 -147 -71q-85 0 -141 59.5t-56 161.5q0 105 58 169.5t146 64.5q83 0 138 -67l5 58h54v-438h-49z" />
    <glyph glyph-name="asterisk.alt" horiz-adv-x="370" 
d="M265 409l-80 124l-81 -124l-43 34l92 108l-125 38l18 51l119 -53l-7 139h55l-8 -139l120 53l17 -51l-126 -38l92 -108z" />
    <glyph glyph-name="registered.alt" horiz-adv-x="795" 
d="M38 352q0 159 103 262t257 103t257 -103t103 -262q0 -158 -103 -261t-257 -103t-257 103t-103 261zM713 352q0 141 -90 233.5t-225 92.5t-225.5 -92.5t-90.5 -233.5q0 -138 90.5 -231.5t225.5 -93.5t225 93.5t90 231.5zM397 502h-69v-135h73q76 0 76 69q0 66 -80 66z
M495 163l-102 159h-65v-159h-57v385h125q138 0 138 -113q0 -87 -85 -105l104 -163v-4h-58z" />
    <glyph glyph-name="caron.alt" horiz-adv-x="400" 
d="M174 581l8 158h65v-6l-27 -152h-46z" />
    <glyph glyph-name="dollar.uc" horiz-adv-x="527" 
d="M110 540q0 -50 29.5 -81.5t102.5 -54.5l28 253h-11q-70 0 -109.5 -31t-39.5 -86zM248 52h5q78 0 122.5 35t44.5 98q0 54 -31 81t-109 53zM253 -7h-12l-15 -126h-48l15 130q-88 10 -155 53v69l4 2q74 -54 158 -66l34 281q-98 33 -143.5 79t-45.5 119q0 84 61 132.5
t151 48.5h20l10 88h48l-10 -92q65 -9 120 -42v-64l-3 -1q-67 41 -124 49l-30 -266q52 -18 84 -33t60.5 -38t41.5 -54t13 -73q0 -93 -65 -144.5t-169 -51.5z" />
    <glyph glyph-name="Euro.uc" horiz-adv-x="573" 
d="M546 107v-67q-82 -50 -170 -50q-123 0 -200.5 74t-96.5 207h-65v46h60q-1 13 -1 39q0 25 1 37h-60v47h65q20 130 97.5 202.5t195.5 72.5q94 0 160 -40v-61l-3 -2q-74 45 -154 45q-89 0 -147.5 -55t-75.5 -162h247v-47h-252q-1 -12 -1 -37q0 -27 1 -39h252v-46h-247
q32 -222 224 -222q87 0 167 60z" />
    <glyph glyph-name="sterling.uc" horiz-adv-x="534" 
d="M509 57v-57h-494v28q58 47 80 89.5t35 116.5l13 74h-76v51h85l32 182q17 97 63 135.5t125 38.5q74 0 128 -29v-60l-4 -1q-57 32 -124 32q-48 0 -78.5 -27t-41.5 -93l-32 -178h179v-51h-188l-11 -58q-9 -55 -14 -77.5t-23 -55t-51 -60.5h397z" />
    <glyph glyph-name="yen.uc" horiz-adv-x="561" 
d="M495 155h-179v-155h-69v155h-176v47h176v83h-176v47h172l-218 369v4h73l183 -322l187 322h68v-4l-216 -369h175v-47h-179v-83h179v-47z" />
    <glyph glyph-name="zero.uc" horiz-adv-x="627" 
d="M314 -10q-124 0 -201 99t-77 266t77 263.5t201 96.5q125 0 200.5 -96.5t75.5 -263.5t-76 -266t-200 -99zM314 49q92 0 147.5 80t55.5 226t-55 223.5t-148 77.5q-92 0 -148.5 -77.5t-56.5 -223.5q0 -145 56.5 -225.5t148.5 -80.5z" />
    <glyph glyph-name="one.uc" horiz-adv-x="335" 
d="M240 0h-70v619l-146 -82l-3 1v61l195 111h24v-710z" />
    <glyph glyph-name="two.uc" horiz-adv-x="494" 
d="M18 0v23l251 275q111 122 111 228q0 59 -38.5 95t-112.5 36q-55 0 -94 -13t-86 -41l-4 2v62q82 48 186 48q97 0 157 -50.5t60 -138.5q0 -70 -34.5 -134t-102.5 -136l-182 -199h329v-57h-440z" />
    <glyph glyph-name="three.uc" horiz-adv-x="511" 
d="M236 -10q-118 0 -206 53v66l3 2q46 -32 91.5 -47t108.5 -15q82 0 127.5 40.5t45.5 106.5q0 65 -45.5 104t-133.5 39h-83v60h79q78 0 117.5 37.5t39.5 95.5q0 61 -40.5 93t-113.5 32q-56 0 -92 -11.5t-80 -37.5l-4 1v62q73 44 178 44q97 0 158 -46.5t61 -135.5
q0 -58 -32 -99.5t-88 -60.5q69 -16 108 -59.5t39 -113.5q0 -97 -64 -153.5t-174 -56.5z" />
    <glyph glyph-name="four.uc" horiz-adv-x="541" 
d="M352 232v338l-256 -338h256zM530 176h-108v-176h-70v176h-345v28l382 506h33v-478h108v-56z" />
    <glyph glyph-name="five.uc" horiz-adv-x="494" 
d="M206 -10q-110 0 -188 49v65l3 2q88 -57 185 -57q89 0 135.5 44t46.5 120q0 74 -47.5 114.5t-132.5 40.5q-84 0 -150 -24l-4 2v359h368v-57h-308v-235q46 12 105 12q107 0 172.5 -57t65.5 -152q0 -103 -67 -164.5t-184 -61.5z" />
    <glyph glyph-name="six.uc" horiz-adv-x="560" 
d="M531 215q0 -93 -60 -159t-171 -66q-129 0 -195.5 89t-66.5 251q0 185 87 285t220 100q84 0 142 -34v-65l-3 -2q-59 42 -139 42q-101 0 -166 -76t-71 -228q77 77 196 77q98 0 162.5 -56.5t64.5 -157.5zM300 49q79 0 120 48t41 118q0 77 -46 118t-124 41q-103 0 -183 -70
q11 -255 192 -255z" />
    <glyph glyph-name="seven.uc" horiz-adv-x="499" 
d="M187 0h-71q21 100 67 205t116 239l104 204h-385v57h469v-26l-127 -253q-145 -291 -173 -426z" />
    <glyph glyph-name="eight.uc" horiz-adv-x="542" 
d="M276 -10q-107 0 -176.5 52.5t-69.5 138.5q0 66 45.5 110.5t115.5 69.5q-63 25 -100.5 70t-37.5 106q0 80 61 129t153 49q100 0 161.5 -47.5t61.5 -135.5q0 -55 -39.5 -97.5t-98.5 -66.5q159 -58 159 -186q0 -92 -62 -142t-173 -50zM279 392l14 -5q130 57 130 145
q0 59 -42.5 92.5t-113.5 33.5q-68 0 -109 -33t-41 -87q0 -95 162 -146zM276 48q79 0 124 36t45 94q0 55 -42 91t-135 66l-19 6q-70 -26 -110 -61.5t-40 -93.5q0 -66 46.5 -102t130.5 -36z" />
    <glyph glyph-name="nine.uc" horiz-adv-x="560" 
d="M268 328q104 0 183 69q-8 259 -187 259q-81 0 -123.5 -47.5t-42.5 -117.5q0 -80 44.5 -121.5t125.5 -41.5zM207 -10q-88 0 -144 33v66l3 1q60 -41 141 -41q233 0 244 300q-82 -76 -196 -76q-100 0 -163.5 57t-63.5 161q0 93 62 158.5t174 65.5q128 0 192.5 -88.5
t64.5 -250.5q0 -196 -85 -291t-229 -95z" />
    <glyph glyph-name="percent.uc" horiz-adv-x="826" 
d="M29 541q0 76 47.5 125t120.5 49t120.5 -49t47.5 -125q0 -78 -47 -126.5t-121 -48.5q-73 0 -120.5 48.5t-47.5 126.5zM143 0l484 705h60l-485 -705h-59zM197 416q50 0 80 35t30 90q0 54 -30 89t-80 35t-80 -35t-30 -89q0 -55 30 -90t80 -35zM630 339q73 0 120.5 -49
t47.5 -125q0 -79 -47 -127t-121 -48q-73 0 -121 48.5t-48 126.5q0 75 48.5 124.5t120.5 49.5zM630 40q50 0 79.5 35t29.5 90q0 54 -29.5 89t-79.5 35t-80.5 -35t-30.5 -89q0 -55 30.5 -90t80.5 -35z" />
    <glyph glyph-name="perthousand.uc" horiz-adv-x="1211" 
d="M197 366q-73 0 -120.5 48.5t-47.5 126.5q0 76 47.5 125t120.5 49t120.5 -49t47.5 -125q0 -78 -47 -126.5t-121 -48.5zM143 0l481 705h60l-482 -705h-59zM197 416q50 0 80 35t30 90q0 54 -30 89t-80 35t-80 -35t-30 -89q0 -55 30 -90t80 -35zM1014 -10q-74 0 -121 48
t-47 127q0 76 47.5 125t120.5 49t120.5 -49t47.5 -125q0 -79 -47 -127t-121 -48zM627 -8q-73 0 -119.5 48t-46.5 125q0 75 47 123t119 48t118 -48t46 -123q0 -78 -46 -125.5t-118 -47.5zM627 37q51 0 81.5 35.5t30.5 92.5q0 55 -31 90.5t-81 35.5q-51 0 -82.5 -35.5
t-31.5 -90.5q0 -57 31.5 -92.5t82.5 -35.5zM1014 40q50 0 80 35t30 90q0 54 -30 89t-80 35q-49 0 -79 -35t-30 -89q0 -55 29.5 -90t79.5 -35z" />
    <glyph glyph-name="questiondown.uc" horiz-adv-x="437" 
d="M288 705v-77h-73v77h73zM396 100v-62q-65 -48 -161 -48q-81 0 -133.5 45t-52.5 126q0 61 25 103.5t75 87.5q37 33 54.5 61.5t17.5 72.5v29h62v-29q0 -57 -20.5 -94t-70.5 -83q-42 -37 -59.5 -68t-17.5 -80q0 -52 31.5 -82t90.5 -30q83 0 156 53z" />
    <glyph glyph-name="exclamdown.uc" horiz-adv-x="206" 
d="M140 705v-77h-74v77h74zM127 515l9 -515h-67l9 515h49z" />
    <glyph glyph-name="hyphen.uc" horiz-adv-x="293" 
d="M39 306v60h216v-60h-216z" />
    <glyph glyph-name="endash.uc" horiz-adv-x="470" 
d="M34 308v57h403v-57h-403z" />
    <glyph glyph-name="emdash.uc" horiz-adv-x="883" 
d="M34 308v57h815v-57h-815z" />
    <glyph glyph-name="guilsinglleft.uc" horiz-adv-x="225" 
d="M132 104l-115 186l115 186h66l-113 -186l113 -186h-66z" />
    <glyph glyph-name="guilsinglright.uc" horiz-adv-x="225" 
d="M28 104l113 186l-113 186h65l115 -186l-115 -186h-65z" />
    <glyph glyph-name="guillemotleft.uc" horiz-adv-x="382" 
d="M289 104l-115 186l115 186h65l-113 -186l113 -186h-65zM132 104l-115 186l115 186h66l-113 -186l113 -186h-66z" />
    <glyph glyph-name="guillemotright.uc" horiz-adv-x="382" 
d="M185 104l113 186l-113 186h65l115 -186l-115 -186h-65zM28 104l113 186l-113 186h65l115 -186l-115 -186h-65z" />
    <glyph glyph-name="parenleft.uc" horiz-adv-x="301" 
d="M281 -100h-66q-166 204 -166 438q0 232 166 436h66q-164 -212 -164 -436q0 -226 164 -438z" />
    <glyph glyph-name="parenright.uc" horiz-adv-x="301" 
d="M86 -100h-65q164 218 164 438t-164 436h65q166 -204 166 -436q0 -234 -166 -438z" />
    <glyph glyph-name="bracketleft.uc" horiz-adv-x="342" 
d="M83 -100v874h220v-54h-154v-766h154v-54h-220z" />
    <glyph glyph-name="bracketright.uc" horiz-adv-x="342" 
d="M39 -100v54h154v766h-154v54h220v-874h-220z" />
    <glyph glyph-name="braceleft.uc" horiz-adv-x="356" 
d="M323 -49v-51q-109 0 -164.5 42.5t-33.5 140.5l25 112q14 60 -13 87t-106 29v52q78 2 105.5 29t13.5 87l-25 113q-22 97 33.5 139.5t164.5 42.5v-51q-85 0 -117.5 -31.5t-15.5 -108.5l25 -107q15 -58 -5 -91t-82 -48q62 -15 81.5 -47t5.5 -92l-25 -107
q-19 -77 14.5 -108.5t118.5 -31.5z" />
    <glyph glyph-name="braceright.uc" horiz-adv-x="356" 
d="M33 -100v51q85 0 118.5 31.5t14.5 108.5l-25 107q-14 58 5.5 90.5t81.5 48.5q-62 15 -81.5 47t-5.5 91l25 108q19 77 -14.5 108.5t-118.5 31.5v51q108 0 164 -42.5t34 -140.5l-25 -113q-14 -59 13.5 -86t105.5 -29v-53q-78 -1 -105.5 -28t-13.5 -87l25 -113
q22 -97 -33.5 -139.5t-164.5 -42.5z" />
    <glyph glyph-name="slash.uc" horiz-adv-x="396" 
d="M19 -100l285 874h62l-285 -874h-62z" />
    <glyph glyph-name="backslash.uc" horiz-adv-x="396" 
d="M27 774h62l285 -874h-62z" />
    <glyph glyph-name="bar.uc" horiz-adv-x="222" 
d="M82 -100v874h58v-874h-58z" />
    <glyph glyph-name="at.uc" horiz-adv-x="882" 
d="M452 -110q-191 0 -301.5 110.5t-110.5 277.5q0 195 120 315.5t303 120.5q174 0 277 -105t103 -272q0 -116 -55 -181.5t-130 -65.5q-101 0 -118 76q-60 -78 -145 -78q-78 0 -121.5 51t-43.5 131q0 106 60 175.5t153 69.5q79 0 125 -68l7 51h65l-35 -268q-6 -53 10.5 -73
t52.5 -20q45 0 83.5 51t38.5 149q0 154 -88 242.5t-240 88.5q-156 0 -262.5 -106.5t-106.5 -287.5q0 -146 96.5 -242t265.5 -96q118 0 200 45l3 -2v-45q-83 -44 -206 -44zM404 144q80 0 133 65q0 9 1 12l23 175q-47 64 -117 64q-66 0 -107.5 -53t-41.5 -137
q0 -61 29.5 -93.5t79.5 -32.5z" />
    <glyph glyph-name="grave.uc" horiz-adv-x="400" 
d="M182 764l-114 141h82l94 -141h-62z" />
    <glyph glyph-name="dieresis.uc" horiz-adv-x="400" 
d="M262 773v75h70v-75h-70zM68 773v75h70v-75h-70z" />
    <glyph glyph-name="macron.uc" horiz-adv-x="686" 
d="M201 775v55h279v-55h-279z" />
    <glyph glyph-name="acute.uc" horiz-adv-x="400" 
d="M218 764h-62l94 141h82z" />
    <glyph glyph-name="circumflex.uc" horiz-adv-x="400" 
d="M201 857l-90 -93h-64l121 144h64l121 -144h-64z" />
    <glyph glyph-name="caron.uc" horiz-adv-x="400" 
d="M201 815l88 93h64l-121 -144h-64l-121 144h64z" />
    <glyph glyph-name="breve.uc" horiz-adv-x="400" 
d="M200 756q-59 0 -97.5 37.5t-42.5 96.5h53q11 -79 87 -79q75 0 86 79h53q-4 -59 -41.5 -96.5t-97.5 -37.5z" />
    <glyph glyph-name="dotaccent.uc" horiz-adv-x="400" 
d="M163 773v78h73v-78h-73z" />
    <glyph glyph-name="ring.uc" horiz-adv-x="400" 
d="M200 749q-47 0 -76 28.5t-29 73.5t29 73.5t76 28.5t76 -28.5t29 -73.5t-29 -73.5t-76 -28.5zM200 912q-26 0 -41.5 -17t-15.5 -44t15.5 -44t41.5 -17q27 0 42.5 17t15.5 44t-15.5 44t-42.5 17z" />
    <glyph glyph-name="tilde.uc" horiz-adv-x="400" 
d="M259 828q38 0 68 40l4 -1l20 -42q-13 -22 -37.5 -37.5t-53.5 -15.5q-32 0 -70.5 15.5t-55.5 15.5q-41 0 -72 -39l-3 2l-19 45q15 21 40.5 35t53.5 14t66 -16t59 -16z" />
    <glyph glyph-name="hungarumlaut.uc" horiz-adv-x="400" 
d="M135 764h-52l60 141h75l-6 -9q-6 -10 -17 -29t-19 -33q-6 -11 -20 -34t-21 -36zM285 764h-53l61 141h75q-6 0 -43 -71z" />
    <glyph glyph-name="A.flat" 
d="M447 254l-138 358l-137 -358h275zM545 0l-76 196h-320l-75 -196h-66v4l274 701h57l275 -701v-4h-69z" />
    <glyph glyph-name="Aacute.flat" 
d="M407 881l-92 -125h-53l74 125h71zM447 254l-138 358l-137 -358h275zM545 0l-76 196h-320l-75 -196h-66v4l274 701h57l275 -701v-4h-69z" />
    <glyph glyph-name="Abreve.flat" 
d="M311 756q-56 0 -87 31t-35 82h49q8 -68 72 -68q65 0 73 68h49q-4 -51 -34.5 -82t-86.5 -31zM447 254l-138 358l-137 -358h275zM545 0l-76 196h-320l-75 -196h-66v4l274 701h57l275 -701v-4h-69z" />
    <glyph glyph-name="Acircumflex.flat" 
d="M312 833l-68 -77h-58l101 125h52l101 -125h-58zM447 254l-138 358l-137 -358h275zM545 0l-76 196h-320l-75 -196h-66v4l274 701h57l275 -701v-4h-69z" />
    <glyph glyph-name="Adieresis.flat" 
d="M447 254l-138 358l-137 -358h275zM545 0l-76 196h-320l-75 -196h-66v4l274 701h57l275 -701v-4h-69zM373 773v75h70v-75h-70zM179 773v75h70v-75h-70z" />
    <glyph glyph-name="Agrave.flat" 
d="M306 756l-92 125h71l74 -125h-53zM447 254l-138 358l-137 -358h275zM545 0l-76 196h-320l-75 -196h-66v4l274 701h57l275 -701v-4h-69z" />
    <glyph glyph-name="Amacron.flat" 
d="M447 254l-138 358l-137 -358h275zM545 0l-76 196h-320l-75 -196h-66v4l274 701h57l275 -701v-4h-69zM171 775v55h279v-55h-279z" />
    <glyph glyph-name="Aogonek.flat" 
d="M577 -221q-56 0 -86 25.5t-30 68.5q0 77 83 128l-75 195h-320l-75 -196h-66v4l274 701h57l275 -701v-4q-42 -24 -65.5 -55t-23.5 -59q0 -52 59 -52q30 0 55 13l2 -2v-50q-30 -16 -64 -16zM447 254l-138 358l-137 -358h275z" />
    <glyph glyph-name="Aring.flat" 
d="M447 254l-138 358l-137 -358h275zM545 0l-76 196h-320l-75 -196h-66v4l274 701h57l275 -701v-4h-69zM311 749q-47 0 -76 28.5t-29 73.5t29 73.5t76 28.5t76 -28.5t29 -73.5t-29 -73.5t-76 -28.5zM311 912q-26 0 -41.5 -17t-15.5 -44t15.5 -44t41.5 -17q27 0 42.5 17
t15.5 44t-15.5 44t-42.5 17z" />
    <glyph glyph-name="Aringacute.flat" 
d="M447 254l-138 358l-137 -358h275zM545 0l-76 196h-320l-75 -196h-66v4l274 701h57l275 -701v-4h-69zM340 950h-62l94 141h82zM311 726q-47 0 -76 28.5t-29 73.5t29 73.5t76 28.5t76 -28.5t29 -73.5t-29 -73.5t-76 -28.5zM311 889q-26 0 -41.5 -17t-15.5 -44t15.5 -44
t41.5 -17q27 0 42.5 17t15.5 44t-15.5 44t-42.5 17z" />
    <glyph glyph-name="Atilde.flat" 
d="M363 813q28 -3 54 32l4 -1l12 -39q-11 -19 -31 -32t-42 -10q-26 2 -54.5 18t-42.5 17q-29 4 -58 -31l-3 2l-11 42q13 17 34 28.5t42 9.5q22 -2 50 -18.5t46 -17.5zM447 254l-138 358l-137 -358h275zM545 0l-76 196h-320l-75 -196h-66v4l274 701h57l275 -701v-4h-69z" />
    <glyph glyph-name="Eng.flat" horiz-adv-x="711" 
d="M441 -171v60q56 12 83.5 39t34.5 82l-416 584v-594h-63v705h62l419 -589v5h4v584h64v-657q0 -106 -45 -154t-143 -65z" />
    <glyph glyph-name="M.flat" horiz-adv-x="808" 
d="M376 0l-233 611v-611h-63v705h90l232 -605l237 605h89v-705h-67v606l-238 -606h-47z" />
    <glyph glyph-name="M.flatalt" horiz-adv-x="839" 
d="M390 0l-217 555l-48 -555h-65l62 705h56l239 -609l238 609h54l70 -705h-67l-54 557l-218 -557h-50z" />
    <glyph glyph-name="N.flat" horiz-adv-x="709" 
d="M576 0l-433 595v-595h-63v705h62l423 -581v581h64v-705h-53z" />
    <glyph glyph-name="Nacute.flat" horiz-adv-x="709" 
d="M395 764h-62l94 141h82zM576 0l-433 595v-595h-63v705h62l423 -581v581h64v-705h-53z" />
    <glyph glyph-name="Ncaron.flat" horiz-adv-x="709" 
d="M367 815l88 93h64l-121 -144h-64l-121 144h64zM576 0l-433 595v-595h-63v705h62l423 -581v581h64v-705h-53z" />
    <glyph glyph-name="Ncommaaccent.flat" horiz-adv-x="709" 
d="M303 -199l12 144h71v-6l-30 -138h-53zM576 0l-433 595v-595h-63v705h62l423 -581v581h64v-705h-53z" />
    <glyph glyph-name="Ntilde.flat" horiz-adv-x="709" 
d="M429 828q38 0 68 40l4 -1l20 -42q-13 -22 -37.5 -37.5t-53.5 -15.5q-32 0 -70.5 15.5t-55.5 15.5q-41 0 -72 -39l-3 2l-19 45q15 21 40.5 35t53.5 14t66 -16t59 -16zM576 0l-433 595v-595h-63v705h62l423 -581v581h64v-705h-53z" />
    <glyph glyph-name="V.flat" horiz-adv-x="615" 
d="M336 0h-58l-264 701v4h70l226 -610l225 610h66v-4z" />
    <glyph glyph-name="W.flat" horiz-adv-x="899" 
d="M599 0l-140 433l-153 -433h-57l-234 701v4h70l195 -601l148 417l-60 180v4h67l194 -603l188 603h67v-4l-228 -701h-57z" />
    <glyph glyph-name="W.flatalt" horiz-adv-x="898" 
d="M622 0l-173 583l-175 -583h-60l-197 701v4h69l161 -599l180 599h47l180 -597l160 597h67v-4l-199 -701h-60z" />
    <glyph glyph-name="Wacute.flat" horiz-adv-x="899" 
d="M444 764h-62l94 141h82zM599 0l-140 433l-153 -433h-57l-234 701v4h70l195 -601l148 417l-60 180v4h67l194 -603l188 603h67v-4l-228 -701h-57z" />
    <glyph glyph-name="Wacute.flatalt" horiz-adv-x="898" 
d="M479 764h-62l94 141h82zM622 0l-173 583l-175 -583h-60l-197 701v4h69l161 -599l180 599h47l180 -597l160 597h67v-4l-199 -701h-60z" />
    <glyph glyph-name="Wcircumflex.flat" horiz-adv-x="899" 
d="M417 857l-90 -93h-64l121 144h64l121 -144h-64zM599 0l-140 433l-153 -433h-57l-234 701v4h70l195 -601l148 417l-60 180v4h67l194 -603l188 603h67v-4l-228 -701h-57z" />
    <glyph glyph-name="Wcircumflex.flatalt" horiz-adv-x="898" 
d="M451 857l-90 -93h-64l121 144h64l121 -144h-64zM622 0l-173 583l-175 -583h-60l-197 701v4h69l161 -599l180 599h47l180 -597l160 597h67v-4l-199 -701h-60z" />
    <glyph glyph-name="Wdieresis.flat" horiz-adv-x="899" 
d="M478 773v75h70v-75h-70zM284 773v75h70v-75h-70zM599 0l-140 433l-153 -433h-57l-234 701v4h70l195 -601l148 417l-60 180v4h67l194 -603l188 603h67v-4l-228 -701h-57z" />
    <glyph glyph-name="Wdieresis.flatalt" horiz-adv-x="898" 
d="M622 0l-173 583l-175 -583h-60l-197 701v4h69l161 -599l180 599h47l180 -597l160 597h67v-4l-199 -701h-60zM512 773v75h70v-75h-70zM318 773v75h70v-75h-70z" />
    <glyph glyph-name="Wgrave.flat" horiz-adv-x="899" 
d="M390 764l-114 141h82l94 -141h-62zM599 0l-140 433l-153 -433h-57l-234 701v4h70l195 -601l148 417l-60 180v4h67l194 -603l188 603h67v-4l-228 -701h-57z" />
    <glyph glyph-name="Wgrave.flatalt" horiz-adv-x="898" 
d="M424 764l-114 141h82l94 -141h-62zM622 0l-173 583l-175 -583h-60l-197 701v4h69l161 -599l180 599h47l180 -597l160 597h67v-4l-199 -701h-60z" />
    <glyph glyph-name="Z.flat" horiz-adv-x="570" 
d="M532 0h-501v55l419 591h-389v59h462v-64l-412 -582h421v-59z" />
    <glyph glyph-name="Zacute.flat" horiz-adv-x="570" 
d="M320 764h-62l94 141h82zM532 0h-501v55l419 591h-389v59h462v-64l-412 -582h421v-59z" />
    <glyph glyph-name="Zcaron.flat" horiz-adv-x="570" 
d="M292 815l88 93h64l-121 -144h-64l-121 144h64zM532 0h-501v55l419 591h-389v59h462v-64l-412 -582h421v-59z" />
    <glyph glyph-name="Zdotaccent.flat" horiz-adv-x="570" 
d="M532 0h-501v55l419 591h-389v59h462v-64l-412 -582h421v-59zM254 773v78h73v-78h-73z" />
    <glyph glyph-name="four.denflat" horiz-adv-x="309" 
d="M190 136v172l-121 -172h121zM299 94h-55v-94h-54v94h-178v32l177 252h55v-242h55v-42z" />
    <glyph glyph-name="four.flat" horiz-adv-x="519" 
d="M339 239v354l-246 -354h246zM509 184h-102v-184h-68v184h-322v40l323 466h67v-451h102v-55z" />
    <glyph glyph-name="four.numflat" horiz-adv-x="309" 
d="M190 449v172l-121 -172h121zM299 407h-55v-94h-54v94h-178v32l177 252h55v-242h55v-42z" />
    <glyph glyph-name="four.subflat" horiz-adv-x="309" 
d="M190 46v172l-121 -172h121zM299 3h-55v-93h-54v93h-178v33l177 252h55v-242h55v-43z" />
    <glyph glyph-name="four.supflat" horiz-adv-x="309" 
d="M190 509v172l-121 -172h121zM299 466h-55v-93h-54v93h-178v33l177 252h55v-242h55v-43z" />
    <glyph glyph-name="four.ucflat" horiz-adv-x="549" 
d="M359 244v366l-263 -366h263zM537 189h-108v-189h-70v189h-341v40l343 476h68v-461h108v-55z" />
    <glyph glyph-name="one.denflat" horiz-adv-x="195" 
d="M143 0h-56v317l-75 -48l-2 1v50l92 58h41v-378z" />
    <glyph glyph-name="one.flat" horiz-adv-x="316" 
d="M223 0h-68v609l-132 -85l-3 2v61l162 103h41v-690z" />
    <glyph glyph-name="one.numflat" horiz-adv-x="195" 
d="M143 313h-56v317l-75 -48l-2 1v50l92 58h41v-378z" />
    <glyph glyph-name="one.subflat" horiz-adv-x="195" 
d="M143 -90h-56v317l-75 -48l-2 1v50l92 58h41v-378z" />
    <glyph glyph-name="one.supflat" horiz-adv-x="195" 
d="M143 373h-56v317l-75 -48l-2 1v50l92 58h41v-378z" />
    <glyph glyph-name="one.ucflat" horiz-adv-x="335" 
d="M240 0h-70v626l-146 -89l-3 1v61l173 106h46v-705z" />
    <glyph glyph-name="oneeighth.flat" horiz-adv-x="741" 
d="M585 -6q-61 0 -98 27.5t-37 74.5q0 65 80 93q-70 31 -70 94q0 45 34.5 71.5t86.5 26.5q56 0 90 -24t34 -73q0 -55 -68 -85q80 -33 80 -100q0 -49 -35 -77t-97 -28zM591 214l5 -1q57 26 57 68q0 28 -19 43t-51 15q-31 0 -49.5 -14.5t-18.5 -39.5t18.5 -41t57.5 -30z
M584 36q37 0 57 16.5t20 44.5q0 27 -21 44t-65 32l-5 2q-66 -28 -66 -75q0 -30 21 -47t59 -17zM157 313h-56v317l-75 -48l-2 1v50l92 58h41v-378zM55 0l514 690h58l-514 -690h-58z" />
    <glyph glyph-name="onehalf.flat" horiz-adv-x="739" 
d="M475 0v33l116 127q55 65 55 111q0 63 -71 63q-47 0 -91 -28l-3 2v47q43 26 102 26q57 0 89 -27.5t32 -77.5q0 -37 -18 -69.5t-54 -73.5l-83 -89h160v-44h-234zM157 313h-56v317l-75 -48l-2 1v50l92 58h41v-378zM62 0l514 690h58l-514 -690h-58z" />
    <glyph glyph-name="onequarter.flat" horiz-adv-x="722" 
d="M157 313h-56v317l-75 -48l-2 1v50l92 58h41v-378zM62 0l514 690h58l-514 -690h-58zM597 136v172l-121 -172h121zM706 94h-55v-94h-54v94h-178v32l177 252h55v-242h55v-42z" />
    <glyph glyph-name="onethird.flat" horiz-adv-x="730" 
d="M571 -6q-59 0 -110 29v47l3 2q46 -31 101 -31q38 0 59 18.5t21 49.5q0 65 -81 65h-44v43h41q71 0 71 61q0 58 -72 58q-43 0 -87 -26l-2 2v45q37 24 98 24q53 0 86.5 -25t33.5 -72q0 -61 -64 -86q77 -17 77 -92q0 -52 -34.5 -82t-96.5 -30zM157 313h-56v317l-75 -48l-2 1
v50l92 58h41v-378zM55 0l514 690h58l-514 -690h-58z" />
    <glyph glyph-name="seven.denflat" horiz-adv-x="275" 
d="M119 0h-59q17 87 94 236l47 93h-188v46h246v-38l-54 -110q-71 -139 -86 -227z" />
    <glyph glyph-name="seven.flat" horiz-adv-x="466" 
d="M175 0h-68q13 68 44.5 152t55.5 136t70 145l97 199h-357v57h427v-48l-107 -225q-135 -273 -162 -416z" />
    <glyph glyph-name="seven.numflat" horiz-adv-x="275" 
d="M119 313h-59q17 87 94 236l47 93h-188v46h246v-38l-54 -110q-71 -139 -86 -227z" />
    <glyph glyph-name="seven.subflat" horiz-adv-x="275" 
d="M119 -90h-59q17 87 94 236l47 93h-188v46h246v-38l-54 -110q-71 -139 -86 -227z" />
    <glyph glyph-name="seven.supflat" horiz-adv-x="275" 
d="M119 373h-59q17 87 94 236l47 93h-188v46h246v-38l-54 -110q-71 -139 -86 -227z" />
    <glyph glyph-name="seven.ucflat" horiz-adv-x="498" 
d="M187 0h-71q15 69 50.5 159t57 133.5t75.5 151.5l103 204h-384v57h456v-49l-114 -230q-145 -291 -173 -426z" />
    <glyph glyph-name="seveneighths.flat" horiz-adv-x="751" 
d="M595 -6q-61 0 -98 27.5t-37 74.5q0 65 80 93q-70 31 -70 94q0 45 34.5 71.5t86.5 26.5q56 0 90 -24t34 -73q0 -55 -68 -85q80 -33 80 -100q0 -49 -35 -77t-97 -28zM601 214l5 -1q57 26 57 68q0 28 -19 43t-51 15q-31 0 -49.5 -14.5t-18.5 -39.5t18.5 -41t57.5 -30z
M594 36q37 0 57 16.5t20 44.5q0 27 -21 44t-65 32l-5 2q-66 -28 -66 -75q0 -30 21 -47t59 -17zM123 313h-59q17 87 94 236l47 93h-188v46h246v-38l-54 -110q-71 -139 -86 -227zM65 0l514 690h58l-514 -690h-58z" />
    <glyph glyph-name="sterling.flat" horiz-adv-x="497" 
d="M474 57v-57h-445v47q50 46 65 81t28 115l10 57h-69v51h77l30 175q15 93 58.5 131t117.5 38q68 0 118 -28v-60l-3 -1q-53 31 -115 31q-45 0 -72 -26t-38 -89l-29 -171h164v-51h-173l-10 -57q-13 -76 -28 -110.5t-60 -75.5h374z" />
    <glyph glyph-name="sterling.ucflat" horiz-adv-x="533" 
d="M509 57v-57h-479v47q53 49 69.5 85.5t32.5 117.5l10 58h-76v51h85l32 182q17 97 63.5 135.5t124.5 38.5q74 0 128 -29v-60l-3 -1q-60 32 -125 32q-48 0 -78.5 -27t-41.5 -93l-32 -178h179v-51h-188l-11 -58q-13 -78 -29 -115t-63 -78h402z" />
    <glyph glyph-name="threequarters.flat" horiz-adv-x="750" 
d="M625 136v172l-121 -172h121zM734 94h-55v-94h-54v94h-178v32l177 252h55v-242h55v-42zM90 0l514 690h58l-514 -690h-58zM130 307q-59 0 -110 29v47l3 2q46 -31 101 -31q38 0 59 18.5t21 49.5q0 65 -81 65h-44v43h41q71 0 71 61q0 58 -72 58q-43 0 -87 -26l-2 2v45
q37 24 98 24q53 0 86.5 -25t33.5 -72q0 -61 -64 -86q77 -17 77 -92q0 -52 -34.5 -82t-96.5 -30z" />
    <glyph glyph-name="trademark.flat" horiz-adv-x="681" 
d="M260 640h-99v-278h-55v278h-99v48h253v-48zM452 362l-92 251v-251h-49v326h67l90 -247l89 247h68v-326h-51v251l-92 -251h-30z" />
    <glyph glyph-name="two.denflat" horiz-adv-x="274" 
d="M17 0v33l116 127q55 65 55 111q0 63 -71 63q-47 0 -91 -28l-3 2v47q43 26 102 26q57 0 89 -27.5t32 -77.5q0 -37 -18 -69.5t-54 -73.5l-83 -89h160v-44h-234z" />
    <glyph glyph-name="two.flat" horiz-adv-x="459" 
d="M29 0v37l219 252q51 64 77 115.5t26 106.5q0 57 -34.5 91.5t-103.5 34.5q-88 0 -169 -51l-3 1v62q73 46 174 46q89 0 146 -49.5t57 -134.5q0 -66 -32.5 -126.5t-96.5 -138.5l-166 -189h302v-57h-396z" />
    <glyph glyph-name="two.numflat" horiz-adv-x="274" 
d="M17 313v33l116 127q55 65 55 111q0 63 -71 63q-47 0 -91 -28l-3 2v47q43 26 102 26q57 0 89 -27.5t32 -77.5q0 -37 -18 -69.5t-54 -73.5l-83 -89h160v-44h-234z" />
    <glyph glyph-name="two.subflat" horiz-adv-x="274" 
d="M17 -90v33l116 127q55 65 55 111q0 63 -71 63q-47 0 -91 -28l-3 2v47q43 26 102 26q57 0 89 -27.5t32 -77.5q0 -37 -18 -69.5t-54 -73.5l-83 -89h160v-44h-234z" />
    <glyph glyph-name="two.supflat" horiz-adv-x="274" 
d="M17 373v33l116 127q55 65 55 111q0 63 -71 63q-47 0 -91 -28l-3 2v47q43 26 102 26q57 0 89 -27.5t32 -77.5q0 -37 -18 -69.5t-54 -73.5l-83 -89h160v-44h-234z" />
    <glyph glyph-name="two.ucflat" horiz-adv-x="492" 
d="M30 0v38l237 260q55 62 83 116.5t28 111.5q0 59 -38.5 95t-111.5 36q-55 0 -94 -13t-86 -41l-4 2v62q81 48 186 48q96 0 156.5 -50.5t60.5 -138.5q0 -69 -35 -133t-102 -137l-182 -199h329v-57h-427z" />
    <glyph glyph-name="twothirds.flat" horiz-adv-x="771" 
d="M612 -6q-59 0 -110 29v47l3 2q46 -31 101 -31q38 0 59 18.5t21 49.5q0 65 -81 65h-44v43h41q71 0 71 61q0 58 -72 58q-43 0 -87 -26l-2 2v45q37 24 98 24q53 0 86.5 -25t33.5 -72q0 -61 -64 -86q77 -17 77 -92q0 -52 -34.5 -82t-96.5 -30zM21 313v33l116 127
q55 65 55 111q0 63 -71 63q-47 0 -91 -28l-3 2v47q43 26 102 26q57 0 89 -27.5t32 -77.5q0 -37 -18 -69.5t-54 -73.5l-83 -89h160v-44h-234zM96 0l514 690h58l-514 -690h-58z" />
    <glyph glyph-name="v.flat" horiz-adv-x="489" 
d="M267 0h-44l-215 514v6h66l172 -423l171 423h64v-4z" />
    <glyph glyph-name="w.flat" horiz-adv-x="704" 
d="M494 0l-143 417l-139 -417h-40l-159 516v4h65l119 -405l133 405h46l134 -404l120 404h61v-4l-157 -516h-40z" />
    <glyph glyph-name="wacute.flat" horiz-adv-x="704" 
d="M375 606h-63l102 164h81zM494 0l-143 417l-139 -417h-40l-159 516v4h65l119 -405l133 405h46l134 -404l120 404h61v-4l-157 -516h-40z" />
    <glyph glyph-name="wcircumflex.flat" horiz-adv-x="704" 
d="M351 704l-85 -98h-62l116 147h64l116 -147h-62zM494 0l-143 417l-139 -417h-40l-159 516v4h65l119 -405l133 405h46l134 -404l120 404h61v-4l-157 -516h-40z" />
    <glyph glyph-name="wdieresis.flat" horiz-adv-x="704" 
d="M233 637v74h70v-74h-70zM401 637v74h70v-74h-70zM494 0l-143 417l-139 -417h-40l-159 516v4h65l119 -405l133 405h46l134 -404l120 404h61v-4l-157 -516h-40z" />
    <glyph glyph-name="wgrave.flat" horiz-adv-x="704" 
d="M494 0l-143 417l-139 -417h-40l-159 516v4h65l119 -405l133 405h46l134 -404l120 404h61v-4l-157 -516h-40zM332 606l-120 164h81l102 -164h-63z" />
    <glyph glyph-name="z.flat" horiz-adv-x="455" 
d="M424 0h-394v39l310 427h-288v54h365v-47l-305 -419h312v-54z" />
    <glyph glyph-name="zacute.flat" horiz-adv-x="455" 
d="M264 606h-63l102 164h81zM424 0h-394v39l310 427h-288v54h365v-47l-305 -419h312v-54z" />
    <glyph glyph-name="zcaron.flat" horiz-adv-x="455" 
d="M242 653l85 98h62l-116 -147h-64l-116 147h62zM424 0h-394v39l310 427h-288v54h365v-47l-305 -419h312v-54z" />
    <glyph glyph-name="zdotaccent.flat" horiz-adv-x="455" 
d="M424 0h-394v39l310 427h-288v54h365v-47l-305 -419h312v-54zM204 635v78h73v-78h-73z" />
    <glyph glyph-name="uni00AD" horiz-adv-x="293" 
d="M39 265v61h216v-61h-216z" />
    <glyph glyph-name="uni1EA0.flat" 
d="M447 254l-138 358l-137 -358h275zM545 0l-76 196h-320l-75 -196h-66v4l274 701h57l275 -701v-4h-69zM271 -192v84h68v-84h-68z" />
    <glyph glyph-name="uni1EA2.flat" 
d="M447 254l-138 358l-137 -358h275zM545 0l-76 196h-320l-75 -196h-66v4l274 701h57l275 -701v-4h-69zM250 853v44q25 15 72 16q74 -2 80 -62q2 -39 -32 -59q-32 -20 -36 -36h-44q3 34 33 52q30 20 30 34q1 14 -7.5 20.5t-33.5 6.5q-35 -3 -62 -16z" />
    <glyph glyph-name="uni1EA4.flat" 
d="M312 833l-68 -77h-58l101 125h52l101 -125h-58zM447 254l-138 358l-137 -358h275zM545 0l-76 196h-320l-75 -196h-66v4l274 701h57l275 -701v-4h-69zM526 964l-72 -105h-53l54 105h71z" />
    <glyph glyph-name="uni1EA6.flat" 
d="M312 833l-68 -77h-58l101 125h52l101 -125h-58zM447 254l-138 358l-137 -358h275zM545 0l-76 196h-320l-75 -196h-66v4l274 701h57l275 -701v-4h-69zM422 859l-72 105h71l54 -105h-53z" />
    <glyph glyph-name="uni1EA8.flat" 
d="M312 833l-68 -77h-58l101 125h52l101 -125h-58zM447 254l-138 358l-137 -358h275zM545 0l-76 196h-320l-75 -196h-66v4l274 701h57l275 -701v-4h-69zM362 947v40q23 14 71 15q72 -2 78 -56q1 -35 -31 -54q-30 -17 -35 -33h-44q3 32 31 48t28 30q2 25 -39 25
q-30 -3 -59 -15z" />
    <glyph glyph-name="uni1EAA.flat" 
d="M312 833l-68 -77h-58l101 125h52l101 -125h-58zM447 254l-138 358l-137 -358h275zM545 0l-76 196h-320l-75 -196h-66v4l274 701h57l275 -701v-4h-69zM367 958q28 -3 54 32l4 -1l12 -39q-11 -19 -31 -32t-42 -10q-26 2 -54.5 18t-42.5 17q-29 4 -58 -31l-3 2l-11 42
q13 17 34 28.5t42 9.5q22 -2 50 -18.5t46 -17.5z" />
    <glyph glyph-name="uni1EAC.flat" 
d="M312 833l-68 -77h-58l101 125h52l101 -125h-58zM447 254l-138 358l-137 -358h275zM545 0l-76 196h-320l-75 -196h-66v4l274 701h57l275 -701v-4h-69zM271 -192v84h68v-84h-68z" />
    <glyph glyph-name="uni1EAE.flat" 
d="M311 756q-56 0 -87 31t-35 82h49q8 -68 72 -68q65 0 73 68h49q-4 -51 -34.5 -82t-86.5 -31zM447 254l-138 358l-137 -358h275zM545 0l-76 196h-320l-75 -196h-66v4l274 701h57l275 -701v-4h-69zM410 1004l-72 -105h-53l54 105h71z" />
    <glyph glyph-name="uni1EB0.flat" 
d="M311 756q-56 0 -87 31t-35 82h49q8 -68 72 -68q65 0 73 68h49q-4 -51 -34.5 -82t-86.5 -31zM447 254l-138 358l-137 -358h275zM545 0l-76 196h-320l-75 -196h-66v4l274 701h57l275 -701v-4h-69zM289 899l-72 105h71l54 -105h-53z" />
    <glyph glyph-name="uni1EB2.flat" 
d="M311 756q-56 0 -87 31t-35 82h49q8 -68 72 -68q65 0 73 68h49q-4 -51 -34.5 -82t-86.5 -31zM447 254l-138 358l-137 -358h275zM545 0l-76 196h-320l-75 -196h-66v4l274 701h57l275 -701v-4h-69zM253 987v40q23 14 71 15q72 -2 78 -56q1 -35 -31 -54q-30 -17 -35 -33h-44
q3 32 31 48t28 30q2 25 -39 25q-30 -3 -59 -15z" />
    <glyph glyph-name="uni1EB4.flat" 
d="M311 756q-56 0 -87 31t-35 82h49q8 -68 72 -68q65 0 73 68h49q-4 -51 -34.5 -82t-86.5 -31zM447 254l-138 358l-137 -358h275zM545 0l-76 196h-320l-75 -196h-66v4l274 701h57l275 -701v-4h-69zM365 948q28 -3 54 32l4 -1l12 -39q-11 -19 -31 -32t-42 -10q-26 2 -54.5 18
t-42.5 17q-29 4 -58 -31l-3 2l-11 42q13 17 34 28.5t42 9.5q22 -2 50 -18.5t46 -17.5z" />
    <glyph glyph-name="uni1EB6.flat" 
d="M311 756q-56 0 -87 31t-35 82h49q8 -68 72 -68q65 0 73 68h49q-4 -51 -34.5 -82t-86.5 -31zM447 254l-138 358l-137 -358h275zM545 0l-76 196h-320l-75 -196h-66v4l274 701h57l275 -701v-4h-69zM271 -192v84h68v-84h-68z" />
    <glyph glyph-name="uni1EA1.alt" horiz-adv-x="566" 
d="M450 0l-9 75q-65 -86 -175 -86q-102 0 -168.5 71.5t-66.5 193.5q0 124 68.5 200.5t173.5 76.5q103 0 165 -80l6 69h56v-520h-50zM271 45q100 0 164 75v283q-61 72 -159 72q-76 0 -128 -58t-52 -163q0 -102 50.5 -155.5t124.5 -53.5zM232 -192v84h68v-84h-68z" />
    <glyph glyph-name="uni1EA3.alt" horiz-adv-x="566" 
d="M450 0l-9 75q-65 -86 -175 -86q-102 0 -168.5 71.5t-66.5 193.5q0 124 68.5 200.5t173.5 76.5q103 0 165 -80l6 69h56v-520h-50zM271 45q100 0 164 75v283q-61 72 -159 72q-76 0 -128 -58t-52 -163q0 -102 50.5 -155.5t124.5 -53.5zM260 699v44q25 15 72 16q74 -2 80 -62
q2 -39 -32 -59q-32 -20 -36 -36h-44q3 34 33 52q30 20 30 34q1 14 -7.5 20.5t-33.5 6.5q-35 -3 -62 -16z" />
    <glyph glyph-name="uni1EA5.alt" horiz-adv-x="566" 
d="M450 0l-9 75q-65 -86 -175 -86q-102 0 -168.5 71.5t-66.5 193.5q0 124 68.5 200.5t173.5 76.5q103 0 165 -80l6 69h56v-520h-50zM271 45q100 0 164 75v283q-61 72 -159 72q-76 0 -128 -58t-52 -163q0 -102 50.5 -155.5t124.5 -53.5zM299 669l-68 -77h-58l101 125h52
l101 -125h-58zM513 800l-72 -105h-53l54 105h71z" />
    <glyph glyph-name="uni1EA7.alt" horiz-adv-x="566" 
d="M450 0l-9 75q-65 -86 -175 -86q-102 0 -168.5 71.5t-66.5 193.5q0 124 68.5 200.5t173.5 76.5q103 0 165 -80l6 69h56v-520h-50zM271 45q100 0 164 75v283q-61 72 -159 72q-76 0 -128 -58t-52 -163q0 -102 50.5 -155.5t124.5 -53.5zM299 669l-68 -77h-58l101 125h52
l101 -125h-58zM409 695l-72 105h71l54 -105h-53z" />
    <glyph glyph-name="uni1EA9.alt" horiz-adv-x="566" 
d="M450 0l-9 75q-65 -86 -175 -86q-102 0 -168.5 71.5t-66.5 193.5q0 124 68.5 200.5t173.5 76.5q103 0 165 -80l6 69h56v-520h-50zM271 45q100 0 164 75v283q-61 72 -159 72q-76 0 -128 -58t-52 -163q0 -102 50.5 -155.5t124.5 -53.5zM299 669l-68 -77h-58l101 125h52
l101 -125h-58zM349 783v40q23 14 71 15q72 -2 78 -56q1 -35 -31 -54q-30 -17 -35 -33h-44q3 32 31 48t28 30q2 25 -39 25q-30 -3 -59 -15z" />
    <glyph glyph-name="uni1EAB.alt" horiz-adv-x="566" 
d="M450 0l-9 75q-65 -86 -175 -86q-102 0 -168.5 71.5t-66.5 193.5q0 124 68.5 200.5t173.5 76.5q103 0 165 -80l6 69h56v-520h-50zM271 45q100 0 164 75v283q-61 72 -159 72q-76 0 -128 -58t-52 -163q0 -102 50.5 -155.5t124.5 -53.5zM299 669l-68 -77h-58l101 125h52
l101 -125h-58zM354 794q28 -3 54 32l4 -1l12 -39q-11 -19 -31 -32t-42 -10q-26 2 -54.5 18t-42.5 17q-29 4 -58 -31l-3 2l-11 42q13 17 34 28.5t42 9.5q22 -2 50 -18.5t46 -17.5z" />
    <glyph glyph-name="uni1EAD.alt" horiz-adv-x="566" 
d="M299 669l-68 -77h-58l101 125h52l101 -125h-58zM450 0l-9 75q-65 -86 -175 -86q-102 0 -168.5 71.5t-66.5 193.5q0 124 68.5 200.5t173.5 76.5q103 0 165 -80l6 69h56v-520h-50zM271 45q100 0 164 75v283q-61 72 -159 72q-76 0 -128 -58t-52 -163q0 -102 50.5 -155.5
t124.5 -53.5zM232 -192v84h68v-84h-68z" />
    <glyph glyph-name="uni1EAF.alt" horiz-adv-x="566" 
d="M321 595q-56 0 -87 31t-35 82h49q8 -68 72 -68q65 0 73 68h49q-4 -51 -34.5 -82t-86.5 -31zM450 0l-9 75q-65 -86 -175 -86q-102 0 -168.5 71.5t-66.5 193.5q0 124 68.5 200.5t173.5 76.5q103 0 165 -80l6 69h56v-520h-50zM271 45q100 0 164 75v283q-61 72 -159 72
q-76 0 -128 -58t-52 -163q0 -102 50.5 -155.5t124.5 -53.5zM420 843l-72 -105h-53l54 105h71z" />
    <glyph glyph-name="uni1EB1.alt" horiz-adv-x="566" 
d="M321 595q-56 0 -87 31t-35 82h49q8 -68 72 -68q65 0 73 68h49q-4 -51 -34.5 -82t-86.5 -31zM450 0l-9 75q-65 -86 -175 -86q-102 0 -168.5 71.5t-66.5 193.5q0 124 68.5 200.5t173.5 76.5q103 0 165 -80l6 69h56v-520h-50zM271 45q100 0 164 75v283q-61 72 -159 72
q-76 0 -128 -58t-52 -163q0 -102 50.5 -155.5t124.5 -53.5zM299 738l-72 105h71l54 -105h-53z" />
    <glyph glyph-name="uni1EB3.alt" horiz-adv-x="566" 
d="M321 595q-56 0 -87 31t-35 82h49q8 -68 72 -68q65 0 73 68h49q-4 -51 -34.5 -82t-86.5 -31zM450 0l-9 75q-65 -86 -175 -86q-102 0 -168.5 71.5t-66.5 193.5q0 124 68.5 200.5t173.5 76.5q103 0 165 -80l6 69h56v-520h-50zM271 45q100 0 164 75v283q-61 72 -159 72
q-76 0 -128 -58t-52 -163q0 -102 50.5 -155.5t124.5 -53.5zM263 826v40q23 14 71 15q72 -2 78 -56q1 -35 -31 -54q-30 -17 -35 -33h-44q3 32 31 48t28 30q2 25 -39 25q-30 -3 -59 -15z" />
    <glyph glyph-name="uni1EB5.alt" horiz-adv-x="566" 
d="M321 595q-56 0 -87 31t-35 82h49q8 -68 72 -68q65 0 73 68h49q-4 -51 -34.5 -82t-86.5 -31zM450 0l-9 75q-65 -86 -175 -86q-102 0 -168.5 71.5t-66.5 193.5q0 124 68.5 200.5t173.5 76.5q103 0 165 -80l6 69h56v-520h-50zM271 45q100 0 164 75v283q-61 72 -159 72
q-76 0 -128 -58t-52 -163q0 -102 50.5 -155.5t124.5 -53.5zM375 787q28 -3 54 32l4 -1l12 -39q-11 -19 -31 -32t-42 -10q-26 2 -54.5 18t-42.5 17q-29 4 -58 -31l-3 2l-11 42q13 17 34 28.5t42 9.5q22 -2 50 -18.5t46 -17.5z" />
    <glyph glyph-name="uni1EB7.alt" horiz-adv-x="566" 
d="M321 595q-56 0 -87 31t-35 82h49q8 -68 72 -68q65 0 73 68h49q-4 -51 -34.5 -82t-86.5 -31zM450 0l-9 75q-65 -86 -175 -86q-102 0 -168.5 71.5t-66.5 193.5q0 124 68.5 200.5t173.5 76.5q103 0 165 -80l6 69h56v-520h-50zM271 45q100 0 164 75v283q-61 72 -159 72
q-76 0 -128 -58t-52 -163q0 -102 50.5 -155.5t124.5 -53.5zM232 -192v84h68v-84h-68z" />
    <glyph glyph-name="uni1EF5.alt" horiz-adv-x="485" 
d="M188 -210h-69v4l95 231l-206 491v4h70l170 -424l165 424h64v-4zM326 -192v84h68v-84h-68z" />
    <glyph glyph-name="uni1EF7.alt" horiz-adv-x="485" 
d="M188 -210h-69v4l95 231l-206 491v4h70l170 -424l165 424h64v-4zM195 699v44q25 15 72 16q74 -2 80 -62q2 -39 -32 -59q-31 -20 -36 -36h-44q3 34 33 52q30 20 30 34q1 14 -7.5 20.5t-33.5 6.5q-35 -3 -62 -16z" />
    <glyph glyph-name="uni1EF9.alt" horiz-adv-x="485" 
d="M188 -210h-69v4l95 231l-206 491v4h70l170 -424l165 424h64v-4zM305 658q28 -3 54 32l4 -1l12 -39q-11 -19 -31 -32t-42 -10q-26 2 -54.5 18t-42.5 17q-29 4 -58 -31l-3 2l-11 42q13 17 34 28.5t42 9.5q22 -2 50 -18.5t46 -17.5z" />
    <glyph glyph-name="uni1EF5.alt1" horiz-adv-x="536" 
d="M254 -220q-105 0 -177 42v58l3 2q72 -45 167 -45q160 0 160 144v76q-81 -67 -175 -67q-81 0 -126.5 42t-45.5 122v366h64v-353q0 -123 123 -123q87 0 160 57v419h65v-535q0 -109 -60.5 -157t-157.5 -48zM536 -192v84h68v-84h-68z" />
    <glyph glyph-name="uni1EF7.alt1" horiz-adv-x="536" 
d="M254 -220q-105 0 -177 42v58l3 2q72 -45 167 -45q160 0 160 144v76q-81 -67 -175 -67q-81 0 -126.5 42t-45.5 122v366h64v-353q0 -123 123 -123q87 0 160 57v419h65v-535q0 -109 -60.5 -157t-157.5 -48zM219 699v44q25 15 72 16q74 -2 80 -62q2 -39 -32 -59
q-31 -20 -36 -36h-44q3 34 33 52q30 20 30 34q1 14 -7.5 20.5t-33.5 6.5q-35 -3 -62 -16z" />
    <glyph glyph-name="uni1EF9.alt1" horiz-adv-x="536" 
d="M254 -220q-105 0 -177 42v58l3 2q72 -45 167 -45q160 0 160 144v76q-81 -67 -175 -67q-81 0 -126.5 42t-45.5 122v366h64v-353q0 -123 123 -123q87 0 160 57v419h65v-535q0 -109 -60.5 -157t-157.5 -48zM327 658q28 -3 54 32l4 -1l12 -39q-11 -19 -31 -32t-42 -10
q-26 2 -54.5 18t-42.5 17q-29 4 -58 -31l-3 2l-11 42q13 17 34 28.5t42 9.5q22 -2 50 -18.5t46 -17.5z" />
    </font>
</defs>
</svg>
