<?xml version="1.0" standalone="no"?>
<!DOCTYPE svg PUBLIC "-//W3C//DTD SVG 1.1//EN" "http://www.w3.org/Graphics/SVG/1.1/DTD/svg11.dtd" >
<svg xmlns="http://www.w3.org/2000/svg" xmlns:xlink="http://www.w3.org/1999/xlink" version="1.1">
<metadata>
Created by FontForge 20170731 at Thu Nov  2 13:38:08 2017
 By Aleksey,,,
Copyright (C)2015 Commercial Type.
</metadata>
<defs>
<font id="SVN-SanomatSans" horiz-adv-x="632" >
  <font-face 
    font-family="SVN-Sanomat Sans"
    font-weight="400"
    font-stretch="normal"
    units-per-em="1000"
    panose-1="0 0 0 0 0 0 0 0 0 0"
    ascent="790"
    descent="-210"
    x-height="520"
    cap-height="705"
    bbox="-243 -222 1204 1108"
    underline-thickness="68"
    underline-position="-209"
    unicode-range="U+0020-FB04"
  />
<missing-glyph horiz-adv-x="364" 
d="M298 0h-265v666h265v-666zM66 633v-600h199v600h-199z" />
    <glyph glyph-name="f_f" unicode="ff" horiz-adv-x="596" 
d="M361 0v448h-186v-448h-86v448h-68v72h68v55q0 52 16.5 89.5t43.5 55t53.5 25t54.5 7.5q35 0 49 -6v-69q-21 3 -41 3q-38 0 -64 -25.5t-26 -83.5v-51h186v65q0 43 12.5 76t31 51.5t43.5 30t47.5 15.5t45.5 4q42 0 55 -5v-69q-16 2 -53 2q-38 0 -67 -25t-29 -84v-61h123
v-72h-123v-448h-86z" />
    <glyph glyph-name="f_i" unicode="fi" horiz-adv-x="550" 
d="M394 0v520h86v-520h-86zM298 448h-123v-448h-86v448h-68v72h68v65q0 43 12.5 76t31 51.5t43.5 30t47.5 15.5t45.5 4q42 0 55 -5v-69q-16 2 -53 2q-38 0 -67 -25t-29 -84v-61h123v-72zM394 624v91h86v-91h-86z" />
    <glyph glyph-name="f_l" unicode="fl" horiz-adv-x="550" 
d="M394 0v734l86 23v-757h-86zM298 448h-123v-448h-86v448h-68v72h68v65q0 43 12.5 76t31 51.5t43.5 30t47.5 15.5t45.5 4q42 0 55 -5v-69q-16 2 -53 2q-38 0 -67 -25t-29 -84v-61h123v-72z" />
    <glyph glyph-name="f_f_i" unicode="ffi" horiz-adv-x="822" 
d="M666 0v520h86v-520h-86zM361 0v448h-186v-448h-86v448h-68v72h68v55q0 52 16.5 89.5t43.5 55t53.5 25t54.5 7.5q35 0 49 -6v-69q-21 3 -41 3q-38 0 -64 -25.5t-26 -83.5v-51h186v65q0 43 12.5 76t31 51.5t43.5 30t47.5 15.5t45.5 4q42 0 55 -5v-69q-16 2 -53 2
q-38 0 -67 -25t-29 -84v-61h123v-72h-123v-448h-86zM666 624v91h86v-91h-86z" />
    <glyph glyph-name="f_f_l" unicode="ffl" horiz-adv-x="822" 
d="M666 0v734l86 23v-757h-86zM361 0v448h-186v-448h-86v448h-68v72h68v55q0 52 16.5 89.5t43.5 55t53.5 25t54.5 7.5q35 0 49 -6v-69q-21 3 -41 3q-38 0 -64 -25.5t-26 -83.5v-51h186v65q0 43 12.5 76t31 51.5t43.5 30t47.5 15.5t45.5 4q42 0 55 -5v-69q-16 2 -53 2
q-38 0 -67 -25t-29 -84v-61h123v-72h-123v-448h-86z" />
    <glyph glyph-name=".notdef" horiz-adv-x="364" 
d="M298 0h-265v666h265v-666zM66 633v-600h199v600h-199z" />
    <glyph glyph-name=".null" horiz-adv-x="0" 
 />
    <glyph glyph-name="nonmarkingreturn" horiz-adv-x="333" 
 />
    <glyph glyph-name="space" unicode=" " horiz-adv-x="240" 
 />
    <glyph glyph-name="exclam" unicode="!" horiz-adv-x="215" 
d="M75 203l-12 502h90l-12 -502h-66zM59 0v93h97v-93h-97z" />
    <glyph glyph-name="quotedbl" unicode="&#x22;" horiz-adv-x="316" 
d="M131 705l-14 -212h-61l-14 212h89zM274 705l-14 -212h-61l-14 212h89z" />
    <glyph glyph-name="numbersign" unicode="#" horiz-adv-x="517" 
d="M308 275l20 154h-116l-20 -154h116zM273 0l25 197h-116l-25 -197h-75l25 197h-100v78h110l20 154h-101v78h111l23 183h75l-23 -183h116l23 183h74l-23 -183h98v-78h-108l-20 -154h99v-78h-109l-25 -197h-74z" />
    <glyph glyph-name="dollar" unicode="$" horiz-adv-x="508" 
d="M124 518q0 -44 22.5 -71t77.5 -45l25 221q-62 0 -93.5 -28t-31.5 -77zM382 179q0 48 -24.5 73.5t-81.5 44.5l-26 -234q62 3 97 34t35 82zM228 -133h-63l14 125q-75 8 -139 47v85l4 2q77 -50 143 -59l28 251q-86 30 -131 75t-45 116q0 87 59.5 137.5t148.5 50.5h10l9 84
h63l-10 -89q59 -9 106 -38v-80l-4 -2q-61 38 -110 46l-26 -237q46 -15 76 -30t56.5 -37.5t39 -54.5t12.5 -75q0 -93 -64 -144.5t-164 -51.5z" />
    <glyph glyph-name="percent" unicode="%" horiz-adv-x="798" 
d="M191 350q-71 0 -117.5 48t-46.5 126q0 76 47 124.5t117 48.5t117 -48.5t47 -124.5q0 -78 -46.5 -126t-117.5 -48zM136 0l454 690h76l-454 -690h-76zM191 416q41 0 65 30.5t24 77.5q0 46 -24 76.5t-65 30.5t-65 -30.5t-24 -76.5q0 -47 24 -77.5t65 -30.5zM607 -12
q-71 0 -117.5 48t-46.5 126q0 76 47 124.5t117 48.5t117 -48.5t47 -124.5q0 -78 -46.5 -126t-117.5 -48zM607 54q41 0 65 30.5t24 77.5q0 46 -24 76.5t-65 30.5t-65 -30.5t-24 -76.5q0 -47 24 -77.5t65 -30.5z" />
    <glyph glyph-name="ampersand" unicode="&#x26;" horiz-adv-x="640" 
d="M272 62q87 0 146 66l-202 240q-48 -20 -75.5 -62.5t-27.5 -94.5q0 -66 42.5 -107.5t116.5 -41.5zM525 0l-59 71q-79 -85 -194 -85q-114 0 -181.5 61.5t-67.5 164.5q0 71 39.5 126t110.5 84q-40 61 -40 122q0 71 51 122t137 51q71 0 133 -31v-77l-4 -2q-63 34 -123 34
q-50 0 -78 -25.5t-28 -68.5q0 -58 71 -140l172 -204q23 60 33 207h80q-12 -197 -55 -276l109 -129v-5h-106z" />
    <glyph glyph-name="quotesingle" unicode="'" horiz-adv-x="173" 
d="M131 705l-14 -212h-61l-14 212h89z" />
    <glyph glyph-name="parenleft" unicode="(" horiz-adv-x="311" 
d="M299 -170h-87q-170 209 -170 473q0 262 170 471h87q-79 -106 -122.5 -218t-43.5 -253q0 -142 43.5 -254.5t122.5 -218.5z" />
    <glyph glyph-name="parenright" unicode=")" horiz-adv-x="311" 
d="M99 -170h-87q79 106 122.5 218.5t43.5 254.5q0 141 -43.5 253t-122.5 218h87q170 -209 170 -471q0 -264 -170 -473z" />
    <glyph glyph-name="asterisk" unicode="*" horiz-adv-x="381" 
d="M317 447l-102 74l11 -125h-72l13 126l-104 -75l-34 61l115 53l-115 53l34 61l104 -75l-13 126h72l-11 -125l102 74l35 -61l-114 -53l114 -53z" />
    <glyph glyph-name="plus" unicode="+" horiz-adv-x="528" 
d="M226 124v186h-169v72h169v186h76v-186h169v-72h-169v-186h-76z" />
    <glyph glyph-name="comma" unicode="," horiz-adv-x="221" 
d="M32 -126l41 219h97v-8l-72 -211h-66z" />
    <glyph glyph-name="hyphen" unicode="-" horiz-adv-x="313" 
d="M40 253v81h233v-81h-233z" />
    <glyph glyph-name="period" unicode="." horiz-adv-x="221" 
d="M62 0v93h97v-93h-97z" />
    <glyph glyph-name="slash" unicode="/" horiz-adv-x="403" 
d="M296 774h82l-306 -944h-82z" />
    <glyph glyph-name="zero" unicode="0" horiz-adv-x="595" 
d="M298 -12q-119 0 -191.5 97t-72.5 260t72.5 257.5t191.5 94.5t191 -94.5t72 -257.5t-72 -260t-191 -97zM298 66q79 0 124 70.5t45 208.5q0 136 -45 205t-124 69t-124.5 -69t-45.5 -205q0 -137 46 -208t124 -71z" />
    <glyph glyph-name="one" unicode="1" horiz-adv-x="334" 
d="M241 0h-90v575l-128 -73l-4 2v81l192 110h30v-695z" />
    <glyph glyph-name="two" unicode="2" horiz-adv-x="464" 
d="M15 0v30l228 271q91 109 91 208q0 49 -29.5 80t-91.5 31q-53 0 -89 -12t-82 -41l-4 2v82q74 46 178 46q90 0 148.5 -51t58.5 -137q0 -65 -31 -124t-94 -141l-143 -168h275v-76h-415z" />
    <glyph glyph-name="three" unicode="3" horiz-adv-x="484" 
d="M226 -12q-114 0 -198 53v88l4 2q50 -34 90.5 -49t100.5 -15q68 0 103.5 34t35.5 89q0 58 -37 93t-117 35h-73v79h65q137 0 137 116q0 107 -125 107q-53 0 -86 -11t-79 -40l-4 2v82q73 44 172 44q92 0 150.5 -46t58.5 -137q0 -53 -28.5 -92t-78.5 -60q134 -39 134 -167
q0 -96 -61 -151.5t-164 -55.5z" />
    <glyph glyph-name="four" unicode="4" horiz-adv-x="521" 
d="M324 244v265l-202 -265h202zM516 171h-102v-171h-90v171h-321v36l371 488h40v-451h102v-73z" />
    <glyph glyph-name="five" unicode="5" horiz-adv-x="465" 
d="M192 -12q-99 0 -180 51v87l4 2q85 -61 176 -61q76 0 112.5 38t36.5 103q0 134 -159 134q-65 0 -129 -19l-5 2v365h350v-76h-272v-203q33 7 70 7q106 0 170 -56t64 -149q0 -103 -62.5 -164t-175.5 -61z" />
    <glyph glyph-name="six" unicode="6" horiz-adv-x="530" 
d="M505 212q0 -92 -57.5 -158t-163.5 -66q-121 0 -184.5 87t-63.5 244q0 183 82 280.5t207 97.5q82 0 134 -33v-87l-4 -2q-55 44 -130 44q-84 0 -137 -64t-61 -199q71 67 166 67q92 0 152 -57t60 -154zM284 66q67 0 98.5 41.5t31.5 104.5q0 67 -35.5 102.5t-102.5 35.5
q-82 0 -150 -57q8 -227 158 -227z" />
    <glyph glyph-name="seven" unicode="7" horiz-adv-x="473" 
d="M189 0h-91q16 72 49 159.5t54.5 133.5t68.5 145l86 177h-337v75h449v-27l-119 -247q-128 -265 -160 -416z" />
    <glyph glyph-name="eight" unicode="8" horiz-adv-x="514" 
d="M261 -12q-104 0 -169 53t-65 139q0 60 37.5 103t94.5 68q-111 57 -111 165q0 82 59 131.5t145 49.5q96 0 155.5 -47.5t59.5 -136.5q0 -49 -32.5 -90t-80.5 -65q66 -28 99.5 -69t33.5 -105q0 -91 -61.5 -143.5t-164.5 -52.5zM273 386l10 -3q98 51 98 129q0 51 -34.5 80.5
t-94.5 29.5q-56 0 -88 -29.5t-32 -75.5q0 -85 141 -131zM261 65q66 0 103 31t37 83q0 47 -34 79t-121 61l-19 6q-112 -49 -112 -139q0 -57 38 -89t108 -32z" />
    <glyph glyph-name="nine" unicode="9" horiz-adv-x="530" 
d="M253 331q81 0 150 56q-3 116 -39.5 174t-113.5 58q-68 0 -101.5 -41t-33.5 -103q0 -144 138 -144zM192 -12q-82 0 -134 33v87l3 2q55 -44 131 -44q95 0 148.5 58t61.5 201q-71 -67 -166 -67q-94 0 -153 57.5t-59 159.5q0 92 60 157t166 65q120 0 181.5 -86.5t61.5 -244.5
q0 -195 -82.5 -286.5t-218.5 -91.5z" />
    <glyph glyph-name="colon" unicode=":" horiz-adv-x="229" 
d="M66 366v93h97v-93h-97zM66 0v93h97v-93h-97z" />
    <glyph glyph-name="semicolon" unicode=";" horiz-adv-x="229" 
d="M70 366v93h97v-93h-97zM32 -126l41 219h97v-8l-72 -211h-66z" />
    <glyph glyph-name="less" unicode="&#x3c;" horiz-adv-x="515" 
d="M435 115l-373 205v51l373 204l3 -2v-84l-264 -144l264 -144v-84z" />
    <glyph glyph-name="equal" unicode="=" horiz-adv-x="530" 
d="M72 369v73h386v-73h-386zM72 182v73h386v-73h-386z" />
    <glyph glyph-name="greater" unicode="&#x3e;" horiz-adv-x="515" 
d="M80 115l-3 2v84l264 144l-264 144v84l3 2l373 -205v-51z" />
    <glyph glyph-name="question" unicode="?" horiz-adv-x="443" 
d="M41 588v83q64 46 162 46q85 0 139 -45.5t54 -129.5q0 -61 -25 -103t-74 -87q-37 -32 -53.5 -57t-16.5 -63v-29h-82v29q0 56 20.5 93t73.5 83q36 30 53 60t17 74t-27 70.5t-82 26.5q-46 0 -80 -12.5t-75 -40.5zM138 0v93h97v-93h-97z" />
    <glyph glyph-name="at" unicode="@" horiz-adv-x="901" 
d="M465 -179q-201 0 -317 115.5t-116 294.5q0 202 125 330.5t314 128.5q181 0 289.5 -110t108.5 -284q0 -123 -59.5 -192t-142.5 -69q-102 0 -127 70q-55 -70 -139 -70q-81 0 -127.5 54.5t-46.5 134.5q0 108 61.5 179.5t159.5 71.5q73 0 119 -56l5 39h86l-34 -272
q-10 -90 57 -90q44 0 81 48.5t37 151.5q0 154 -89.5 244t-240.5 90q-73 0 -139 -27.5t-117 -78t-81 -128t-30 -170.5q0 -151 97.5 -248t265.5 -97q114 0 195 46l3 -2v-62q-75 -42 -198 -42zM414 108q70 0 120 50q0 11 1 14l23 180q-43 50 -109 50q-63 0 -99.5 -48.5
t-36.5 -129.5q0 -56 28.5 -86t72.5 -30z" />
    <glyph glyph-name="A" unicode="A" 
d="M424 264l-110 266l-110 -266h220zM534 0l-77 186h-285l-77 -186h-90v5l303 711h16l303 -711v-5h-93z" />
    <glyph glyph-name="B" unicode="B" horiz-adv-x="603" 
d="M305 625h-134v-215h141q125 0 125 110q0 55 -32 80t-100 25zM318 334h-147v-254h147q83 0 120.5 29t37.5 97q0 65 -38.5 96.5t-119.5 31.5zM81 0v705h217q109 0 169 -44.5t60 -135.5q0 -114 -106 -145q74 -17 110.5 -65.5t36.5 -108.5q0 -99 -63 -152.5t-180 -53.5h-244z
" />
    <glyph glyph-name="C" unicode="C" horiz-adv-x="661" 
d="M412 -12q-165 0 -270.5 104t-105.5 263q0 158 104.5 260t265.5 102q108 0 192 -42v-90l-4 -2q-78 56 -188 56q-127 0 -201.5 -78.5t-74.5 -205.5q0 -129 76.5 -208.5t205.5 -79.5q115 0 205 75l4 -2v-91q-82 -61 -209 -61z" />
    <glyph glyph-name="D" unicode="D" horiz-adv-x="694" 
d="M246 627h-75v-549h75q154 0 236 59.5t82 209.5q0 280 -318 280zM81 0v705h172q184 0 294.5 -89.5t110.5 -268.5q0 -177 -109.5 -262t-295.5 -85h-172z" />
    <glyph glyph-name="E" unicode="E" horiz-adv-x="510" 
d="M81 0v705h374v-78h-284v-223h247v-77h-247v-249h284v-78h-374z" />
    <glyph glyph-name="F" unicode="F" horiz-adv-x="494" 
d="M430 307h-259v-307h-90v705h378v-78h-288v-243h259v-77z" />
    <glyph glyph-name="G" unicode="G" horiz-adv-x="692" 
d="M631 379v-320q-109 -71 -229 -71q-169 0 -267.5 102.5t-98.5 264.5q0 158 103.5 260t264.5 102q112 0 198 -44v-89l-4 -2q-80 57 -194 57q-127 0 -200.5 -78t-73.5 -206q0 -131 69.5 -209.5t202.5 -78.5q74 0 140 32v203h-167v77h256z" />
    <glyph glyph-name="H" unicode="H" horiz-adv-x="727" 
d="M556 0v317h-385v-317h-90v705h90v-308h385v308h90v-705h-90z" />
    <glyph glyph-name="I" unicode="I" horiz-adv-x="256" 
d="M83 0v705h90v-705h-90z" />
    <glyph glyph-name="J" unicode="J" horiz-adv-x="262" 
d="M-24 -174v79q64 15 88.5 47t24.5 108v645h90v-650q0 -115 -48 -163.5t-155 -65.5z" />
    <glyph glyph-name="K" unicode="K" horiz-adv-x="611" 
d="M492 0l-229 353l-92 -100v-253h-90v705h90v-345l308 345h96v-5l-249 -281l267 -414v-5h-101z" />
    <glyph glyph-name="L" unicode="L" horiz-adv-x="481" 
d="M81 0v705h90v-628h281v-77h-371z" />
    <glyph glyph-name="M" unicode="M" horiz-adv-x="833" 
d="M662 0v541l-234 -549h-26l-237 557v-549h-84v705h101l236 -549l235 549h99v-705h-90z" />
    <glyph glyph-name="N" unicode="N" horiz-adv-x="734" 
d="M653 -17h-30l-455 539v-522h-87v719h31l454 -535v521h87v-722z" />
    <glyph glyph-name="O" unicode="O" horiz-adv-x="771" 
d="M386 -12q-151 0 -250.5 105t-99.5 262q0 156 99.5 259t250.5 103q152 0 250.5 -103t98.5 -259q0 -157 -99 -262t-250 -105zM386 66q114 0 184.5 79t70.5 210q0 130 -70 207t-185 77t-185.5 -77t-70.5 -207q0 -131 70.5 -210t185.5 -79z" />
    <glyph glyph-name="P" unicode="P" horiz-adv-x="564" 
d="M282 625h-111v-265h118q81 0 117.5 34.5t36.5 102.5q0 66 -38.5 97t-122.5 31zM301 285h-130v-285h-90v705h204q119 0 184.5 -54t65.5 -157q0 -101 -64 -155t-170 -54z" />
    <glyph glyph-name="Q" unicode="Q" horiz-adv-x="771" 
d="M607 -171q-110 0 -181.5 47t-97.5 117q-129 20 -210.5 121t-81.5 241q0 156 99.5 259t250.5 103q152 0 250.5 -103t98.5 -259q0 -144 -87 -247.5t-222 -117.5q23 -41 64.5 -64t119.5 -23q45 0 78 11l4 -4v-70q-30 -11 -85 -11zM386 66q121 0 188 77.5t67 211.5
q0 130 -70 207t-185 77t-185.5 -77t-70.5 -207q0 -131 70.5 -210t185.5 -79z" />
    <glyph glyph-name="R" unicode="R" horiz-adv-x="599" 
d="M282 625h-111v-262h118q158 0 158 136q0 65 -40 95.5t-125 30.5zM492 0l-203 288h-118v-288h-90v705h204q119 0 186.5 -53.5t67.5 -155.5q0 -78 -42.5 -126.5t-117.5 -64.5l214 -298v-7h-101z" />
    <glyph glyph-name="S" unicode="S" horiz-adv-x="508" 
d="M239 -12q-118 0 -199 51v92l4 2q47 -34 90.5 -50t104.5 -16q68 0 104.5 31.5t36.5 86.5q0 49 -25 73.5t-100 53.5l-52 19q-79 29 -121.5 75.5t-42.5 119.5q0 87 59.5 139t148.5 52q108 0 178 -43v-85l-4 -2q-46 29 -82 41t-89 12q-62 0 -93 -29.5t-31 -79.5
q0 -43 23.5 -70t79.5 -48l52 -19q96 -34 142 -77.5t46 -126.5q0 -96 -63.5 -149t-166.5 -53z" />
    <glyph glyph-name="T" unicode="T" horiz-adv-x="522" 
d="M511 627h-205v-627h-90v627h-205v78h500v-78z" />
    <glyph glyph-name="U" unicode="U" horiz-adv-x="685" 
d="M340 -12q-120 0 -194.5 71t-74.5 199v447h90v-443q0 -95 48 -145.5t131 -50.5q84 0 134 51t50 145v443h90v-447q0 -128 -76.5 -199t-197.5 -71z" />
    <glyph glyph-name="V" unicode="V" horiz-adv-x="628" 
d="M321 -13h-16l-291 713v5h93l211 -526l207 526h89v-5z" />
    <glyph glyph-name="W" unicode="W" horiz-adv-x="935" 
d="M650 -13l-188 475l-179 -475h-16l-253 713v5h93l175 -504l137 368l-53 131v5h93l196 -505l175 505h91v-5l-255 -713h-16z" />
    <glyph glyph-name="X" unicode="X" horiz-adv-x="616" 
d="M497 0l-196 303l-190 -303h-90v5l232 370l-212 325v5h98l172 -269l171 269h90v-5l-214 -334l237 -361v-5h-98z" />
    <glyph glyph-name="Y" unicode="Y" horiz-adv-x="569" 
d="M332 0h-90v291l-233 409v5h95l183 -330l184 330h89v-5l-228 -403v-297z" />
    <glyph glyph-name="Z" unicode="Z" horiz-adv-x="581" 
d="M539 0h-529v23l404 604h-350v78h486v-26l-400 -601h389v-78z" />
    <glyph glyph-name="bracketleft" unicode="[" horiz-adv-x="344" 
d="M77 -170v944h232v-72h-145v-800h145v-72h-232z" />
    <glyph glyph-name="backslash" unicode="\" horiz-adv-x="403" 
d="M102 774l306 -944h-82l-306 944h82z" />
    <glyph glyph-name="bracketright" unicode="]" horiz-adv-x="344" 
d="M35 -170v72h145v800h-145v72h232v-944h-232z" />
    <glyph glyph-name="asciicircum" unicode="^" horiz-adv-x="497" 
d="M116 398h-92l194 307h61l194 -307h-94l-131 211z" />
    <glyph glyph-name="underscore" unicode="_" horiz-adv-x="350" 
d="M-13 -141v68h376v-68h-376z" />
    <glyph glyph-name="grave" unicode="`" horiz-adv-x="400" 
d="M192 610l-124 165h109l98 -165h-83z" />
    <glyph glyph-name="a" unicode="a" horiz-adv-x="504" 
d="M215 61q94 0 141 66v122l-95 -15q-80 -12 -112.5 -32.5t-32.5 -62.5q0 -36 25 -57t74 -21zM368 0l-7 60q-53 -72 -152 -72q-80 0 -130 39.5t-50 111.5q0 74 54.5 109t158.5 51l114 18v5q0 74 -32 104t-101 30q-80 0 -151 -39l-4 2v72q60 41 162 41q103 0 157.5 -48
t54.5 -154v-330h-74z" />
    <glyph glyph-name="b" unicode="b" horiz-adv-x="579" 
d="M304 -12q-95 0 -157 71l-6 -59h-75v734l86 23v-294q63 69 159 69q106 0 172 -71.5t66 -192.5q0 -126 -67 -203t-178 -77zM300 62q71 0 117 53t46 153q0 96 -45 143t-114 47q-93 0 -152 -62v-277q60 -57 148 -57z" />
    <glyph glyph-name="c" unicode="c" horiz-adv-x="485" 
d="M301 -12q-120 0 -195.5 75t-75.5 198t76 197t191 74q91 0 143 -33v-77l-4 -2q-66 37 -139 37q-78 0 -129 -52t-51 -144q0 -93 49 -146t133 -53q81 0 150 48l4 -2v-75q-58 -45 -152 -45z" />
    <glyph glyph-name="d" unicode="d" horiz-adv-x="578" 
d="M446 0l-11 67q-60 -79 -167 -79q-106 0 -172 71.5t-66 192.5q0 126 67 203t178 77q92 0 151 -65v267l86 23v-757h-66zM275 62q93 0 151 61v279q-61 56 -147 56q-71 0 -117 -53t-46 -153q0 -96 44.5 -143t114.5 -47z" />
    <glyph glyph-name="e" unicode="e" horiz-adv-x="524" 
d="M276 457q-129 0 -155 -133h283q-3 64 -36 98.5t-92 34.5zM478 113v-80q-72 -45 -176 -45q-124 0 -198 73t-74 200q0 121 69.5 196t178.5 75q102 0 163.5 -68.5t50.5 -207.5h-377q2 -95 51.5 -144t138.5 -49t169 52z" />
    <glyph glyph-name="f" unicode="f" horiz-adv-x="324" 
d="M298 448h-123v-448h-86v448h-68v72h68v65q0 43 12.5 76t31 51.5t43.5 30t47.5 15.5t45.5 4q42 0 55 -5v-69q-16 2 -53 2q-38 0 -67 -25t-29 -84v-61h123v-72z" />
    <glyph glyph-name="g" unicode="g" horiz-adv-x="485" 
d="M231 237q49 0 81 31t32 83q0 53 -32 83.5t-81 30.5q-50 0 -81.5 -30.5t-31.5 -83.5q0 -52 31.5 -83t81.5 -31zM235 -222q-106 0 -167.5 34.5t-61.5 100.5q0 47 31 72h70l2 -3q-22 -30 -22 -62q0 -74 148 -74q79 0 120 29t41 74q0 32 -18 44t-64 14l-137 6q-123 6 -123 98
q0 63 63 95q-81 52 -81 145q0 80 55.5 129.5t138.5 49.5q44 0 83 -17l162 12v-70h-94q43 -43 43 -104q0 -79 -56 -127t-138 -48q-28 0 -55 6q-26 -8 -36.5 -20t-10.5 -33q0 -18 13 -25t46 -9l135 -6q79 -4 118 -35.5t39 -102.5q0 -78 -65.5 -125.5t-178.5 -47.5z" />
    <glyph glyph-name="h" unicode="h" horiz-adv-x="543" 
d="M291 460q-74 0 -139 -44v-416h-86v734l86 23v-285q78 60 160 60q81 0 125 -43t44 -124v-365h-86v347q0 113 -104 113z" />
    <glyph glyph-name="i" unicode="i" horiz-adv-x="226" 
d="M70 624v91h86v-91h-86zM70 0v520h86v-520h-86z" />
    <glyph glyph-name="j" unicode="j" horiz-adv-x="218" 
d="M-17 -222v77q43 4 63 29t20 86v550h86v-555q0 -93 -42.5 -137.5t-126.5 -49.5zM66 624v91h86v-91h-86z" />
    <glyph glyph-name="k" unicode="k" horiz-adv-x="499" 
d="M396 0l-173 258l-71 -79v-179h-86v734l86 23v-480l217 243h95v-5l-180 -197l204 -312v-6h-92z" />
    <glyph glyph-name="l" unicode="l" horiz-adv-x="226" 
d="M70 0v734l86 23v-757h-86z" />
    <glyph glyph-name="m" unicode="m" horiz-adv-x="836" 
d="M282 460q-69 0 -130 -44v-416h-86v520h75l7 -50q71 62 155 62q100 0 140 -76q80 76 171 76q76 0 118 -43t42 -124v-365h-86v347q0 63 -25.5 88t-69.5 25q-69 0 -130 -44v-416h-86v347q0 63 -25.5 88t-69.5 25z" />
    <glyph glyph-name="n" unicode="n" horiz-adv-x="543" 
d="M291 460q-74 0 -139 -44v-416h-86v520h75l7 -51q77 63 164 63q81 0 125 -43t44 -124v-365h-86v347q0 113 -104 113z" />
    <glyph glyph-name="o" unicode="o" horiz-adv-x="592" 
d="M295 -12q-115 0 -190 75.5t-75 197.5q0 121 75 196t190 75t191 -75t76 -196t-76 -197t-191 -76zM295 62q79 0 130 54t51 145q0 89 -51 143t-130 54t-129 -54t-50 -143q0 -91 50 -145t129 -54z" />
    <glyph glyph-name="p" unicode="p" horiz-adv-x="579" 
d="M300 62q71 0 117 53t46 153q0 96 -45 143t-114 47q-93 0 -151 -61v-279q61 -56 147 -56zM304 -12q-92 0 -151 65v-263h-87v730h76l7 -60q62 72 162 72q106 0 172 -71.5t66 -192.5q0 -126 -67 -203t-178 -77z" />
    <glyph glyph-name="q" unicode="q" horiz-adv-x="578" 
d="M512 -210h-86v266q-62 -68 -158 -68q-106 0 -172 71.5t-66 192.5q0 126 67 203t178 77q95 0 156 -70l7 58h74v-730zM275 62q93 0 151 61v279q-61 56 -147 56q-71 0 -117 -53t-46 -153q0 -96 44.5 -143t114.5 -47z" />
    <glyph glyph-name="r" unicode="r" horiz-adv-x="347" 
d="M288 450q-51 0 -81.5 -15t-54.5 -53v-382h-86v520h75l8 -69q47 77 139 77q21 0 42 -4v-77l-5 -3q-22 6 -37 6z" />
    <glyph glyph-name="s" unicode="s" horiz-adv-x="427" 
d="M205 -10q-104 0 -173 48v85l4 2q78 -62 169 -62q51 0 78.5 20.5t27.5 57.5q0 34 -19.5 51.5t-69.5 32.5l-55 16q-132 37 -132 145q0 68 50.5 108t129.5 40q83 0 147 -31v-76l-4 -2q-66 37 -146 37q-47 0 -69 -19.5t-22 -49.5q0 -54 70 -74l55 -16q81 -23 116.5 -56
t35.5 -99q0 -77 -56 -117.5t-137 -40.5z" />
    <glyph glyph-name="t" unicode="t" horiz-adv-x="345" 
d="M313 71v-67q-35 -13 -84 -13q-58 0 -96.5 29t-38.5 90v338h-68v72h68v98l86 14v-112h123v-72h-123v-329q0 -55 67 -55q31 0 62 9z" />
    <glyph glyph-name="u" unicode="u" horiz-adv-x="551" 
d="M410 0l-7 51q-79 -63 -169 -63q-82 0 -128 43.5t-46 123.5v365h86v-347q0 -113 109 -113q80 0 144 45v415h86v-520h-75z" />
    <glyph glyph-name="v" unicode="v" horiz-adv-x="502" 
d="M264 -10h-21l-236 525v5h88l159 -362l158 362h83v-5z" />
    <glyph glyph-name="w" unicode="w" horiz-adv-x="708" 
d="M504 -12l-150 370l-146 -370h-21l-175 527v5h89l106 -343l136 349h26l136 -350l105 344h86v-5l-172 -527h-20z" />
    <glyph glyph-name="x" unicode="x" horiz-adv-x="487" 
d="M377 0l-140 208l-138 -208h-84v5l178 267l-170 243v5h95l126 -187l125 187h84v-5l-165 -247l184 -263v-5h-95z" />
    <glyph glyph-name="y" unicode="y" horiz-adv-x="494" 
d="M54 -222v79q53 8 80.5 30.5t46.5 68.5l27 68l-201 491v5h91l155 -394l148 394h86v-5l-225 -578q-31 -79 -79.5 -116t-128.5 -43z" />
    <glyph glyph-name="z" unicode="z" horiz-adv-x="459" 
d="M425 0h-403v23l284 425h-249v72h378v-22l-287 -426h277v-72z" />
    <glyph glyph-name="braceleft" unicode="{" horiz-adv-x="354" 
d="M329 -102v-68q-112 0 -174 44t-40 139l31 139q14 59 -16 86.5t-108 29.5v69q77 2 107.5 29.5t16.5 86.5l-31 137q-12 50 0.5 86.5t44.5 57.5t74 30.5t95 9.5v-68q-82 0 -113 -28.5t-14 -99.5l31 -130q14 -60 -10 -94t-91 -51q67 -18 91 -52t10 -94l-31 -131
q-17 -71 14 -99.5t113 -28.5z" />
    <glyph glyph-name="bar" unicode="|" horiz-adv-x="235" 
d="M79 -170v944h77v-944h-77z" />
    <glyph glyph-name="braceright" unicode="}" horiz-adv-x="354" 
d="M25 -170v68q82 0 113 28.5t14 99.5l-31 131q-14 60 10 94t91 52q-67 17 -91 51t-10 94l31 130q17 71 -14 99.5t-113 28.5v68q53 0 95 -9.5t74 -30.5t44.5 -57.5t0.5 -86.5l-31 -137q-14 -59 16.5 -86.5t107.5 -29.5v-69q-78 -2 -108 -29.5t-16 -86.5l31 -139
q22 -95 -40 -139t-174 -44z" />
    <glyph glyph-name="asciitilde" unicode="~" horiz-adv-x="394" 
d="M351 379v-78q-30 -47 -89 -47q-37 0 -77 17.5t-57 17.5q-26 0 -43 -9.5t-37 -35.5l-5 2v78q27 46 89 46q36 0 78 -17.5t62 -17.5q39 0 74 46z" />
    <glyph glyph-name="exclamdown" unicode="&#xa1;" horiz-adv-x="215" 
d="M156 570v-93h-97v93h97zM140 367l12 -502h-90l12 502h66z" />
    <glyph glyph-name="cent" unicode="&#xa2;" horiz-adv-x="475" 
d="M114 261q0 -73 31 -122.5t87 -67.5l42 385q-71 -6 -115.5 -57.5t-44.5 -137.5zM298 -12h-11l-11 -101h-63l11 109q-90 23 -143.5 93t-53.5 172q0 119 72.5 193t182.5 78l8 75h63l-8 -78q59 -10 92 -30v-77l-4 -2q-45 25 -97 34l-42 -392h2q81 0 150 48l4 -2v-75
q-58 -45 -152 -45z" />
    <glyph glyph-name="sterling" unicode="&#xa3;" horiz-adv-x="495" 
d="M473 76v-76h-469v37q49 39 69.5 77.5t32.5 112.5l11 65h-61v67h72l24 141q19 110 69.5 153.5t128.5 43.5q63 0 113 -28v-79l-4 -2q-56 32 -109 32q-44 0 -71.5 -28t-38.5 -98l-23 -135h154v-67h-166l-8 -46q-8 -48 -13 -69.5t-19.5 -49.5t-38.5 -51h347z" />
    <glyph glyph-name="yen" unicode="&#xa5;" horiz-adv-x="545" 
d="M479 141h-159v-141h-90v141h-159v61h159v67h-159v61h154l-202 355v5h95l155 -289l160 289h89v-5l-200 -355h157v-61h-159v-67h159v-61z" />
    <glyph glyph-name="brokenbar" unicode="&#xa6;" horiz-adv-x="235" 
d="M79 369v405h77v-405h-77zM79 -170v434h77v-434h-77z" />
    <glyph glyph-name="section" unicode="&#xa7;" horiz-adv-x="490" 
d="M219 -139q-96 0 -151 41v81l4 2q66 -50 144 -50q101 0 101 79q0 50 -66 88l-89 53q-64 37 -99.5 78.5t-35.5 99.5q0 93 116 129q-47 49 -47 109q0 67 46 106.5t124 39.5q88 0 131 -30v-76l-4 -2q-62 35 -127 35q-87 0 -87 -70q0 -29 17.5 -51.5t59.5 -47.5l67 -38
q39 -23 58.5 -36t41.5 -34.5t31 -46.5t9 -59q0 -47 -31.5 -80.5t-78.5 -51.5q51 -42 51 -110q0 -76 -52 -117t-133 -41zM278 179l21 -12q79 32 79 90q0 27 -13.5 47.5t-25 28t-45.5 28.5l-67 38q-5 3 -21 13t-23 16q-74 -30 -74 -89q0 -36 19 -58.5t61 -48.5z" />
    <glyph glyph-name="dieresis" unicode="&#xa8;" horiz-adv-x="400" 
d="M64 639v91h92v-91h-92zM244 639v91h92v-91h-92z" />
    <glyph glyph-name="copyright" unicode="&#xa9;" horiz-adv-x="792" 
d="M36 352q0 159 103 262t257 103t257 -103t103 -262q0 -158 -103 -261t-257 -103t-257 103t-103 261zM698 352q0 135 -85.5 225t-216.5 90q-129 0 -215.5 -90t-86.5 -225q0 -133 86.5 -223.5t215.5 -90.5q130 0 216 90t86 224zM411 155q-88 0 -144 56t-56 145t56 144.5
t140 55.5q72 0 116 -27v-70l-3 -1q-50 29 -113 29q-52 0 -85.5 -35t-33.5 -96t32.5 -97.5t88.5 -36.5q67 0 121 39l4 -2v-68q-45 -36 -123 -36z" />
    <glyph glyph-name="ordfeminine" unicode="&#xaa;" horiz-adv-x="441" 
d="M186 300q74 0 116 58v96l-76 -12q-65 -10 -92.5 -27t-27.5 -51q0 -64 80 -64zM311 245l-6 52q-44 -61 -125 -61q-68 0 -110 32.5t-42 95.5q0 35 13 60t40 40t55.5 23t71.5 15l94 14v2q0 60 -24.5 83.5t-78.5 23.5q-77 0 -134 -32l-3 2v67q53 35 144 35q178 0 178 -172
v-280h-73z" />
    <glyph glyph-name="guillemotleft" unicode="&#xab;" horiz-adv-x="397" 
d="M119 84l-103 176l103 176h86l-100 -176l100 -176h-86zM286 84l-103 176l103 176h86l-100 -176l100 -176h-86z" />
    <glyph glyph-name="registered" unicode="&#xae;" horiz-adv-x="586" 
d="M22 443q0 119 78 196.5t193 77.5t193 -77.5t78 -196.5q0 -118 -78 -196t-193 -78t-193 78t-78 196zM510 443q0 98 -61 163t-156 65q-93 0 -155.5 -65.5t-62.5 -162.5q0 -96 62.5 -162t155.5 -66q94 0 155.5 65.5t61.5 162.5zM288 530h-30v-70h30q46 0 46 37
q0 18 -10 25.5t-36 7.5zM348 312l-63 100h-27v-100h-59v267h90q55 0 80.5 -20t25.5 -64q0 -56 -53 -73l68 -108v-2h-62z" />
    <glyph glyph-name="overscore" unicode="&#xaf;" horiz-adv-x="400" 
d="M54 651v73h292v-73h-292z" />
    <glyph glyph-name="degree" unicode="&#xb0;" horiz-adv-x="417" 
d="M42 532q0 69 47.5 117t118.5 48t119 -48t48 -117t-48 -117t-119 -48t-118.5 48t-47.5 117zM302 532q0 42 -26.5 71.5t-67.5 29.5t-67 -29t-26 -72q0 -42 26 -70.5t67 -28.5t67.5 28.5t26.5 70.5z" />
    <glyph glyph-name="acute" unicode="&#xb4;" horiz-adv-x="400" 
d="M208 610h-83l98 165h109z" />
    <glyph glyph-name="paragraph" unicode="&#xb6;" horiz-adv-x="556" 
d="M469 -130h-69v835h69v-835zM324 -130h-70v445h-14q-206 0 -206 194q0 196 206 196h84v-835z" />
    <glyph glyph-name="middot" unicode="&#xb7;" horiz-adv-x="221" 
d="M62 266v93h97v-93h-97z" />
    <glyph glyph-name="cedilla" unicode="&#xb8;" horiz-adv-x="400" 
d="M109 -200v55l3 2q30 -17 60 -17q41 0 41 32q0 31 -67 39v94h61v-53q41 -10 61.5 -27t20.5 -55q0 -42 -28 -65.5t-77 -23.5q-46 0 -75 19z" />
    <glyph glyph-name="ordmasculine" unicode="&#xba;" horiz-adv-x="496" 
d="M247 232q-97 0 -161 65t-64 169q0 103 64 167t161 64q98 0 162.5 -64t64.5 -167q0 -104 -65 -169t-162 -65zM247 304q64 0 105.5 44.5t41.5 117.5t-41.5 116.5t-105.5 43.5q-63 0 -103.5 -43.5t-40.5 -116.5t40.5 -117.5t103.5 -44.5z" />
    <glyph glyph-name="guillemotright" unicode="&#xbb;" horiz-adv-x="397" 
d="M25 84l100 176l-100 176h86l103 -176l-103 -176h-86zM192 84l100 176l-100 176h86l103 -176l-103 -176h-86z" />
    <glyph glyph-name="onequarter" unicode="&#xbc;" horiz-adv-x="707" 
d="M50 0l514 690h76l-514 -690h-76zM156 313h-73v290l-70 -36l-2 1v66l120 61h25v-382zM577 127v120l-91 -120h91zM701 71h-53v-71h-71v71h-179v30l215 282h35v-256h53v-56z" />
    <glyph glyph-name="onehalf" unicode="&#xbd;" horiz-adv-x="732" 
d="M51 0l514 690h76l-514 -690h-76zM156 313h-73v290l-70 -36l-2 1v66l120 61h25v-382zM459 0v25l125 142q47 53 47 100q0 54 -60 54q-46 0 -89 -28l-3 2v61q41 26 104 26q57 0 90.5 -29t33.5 -80q0 -60 -69 -141l-67 -74h141v-58h-253z" />
    <glyph glyph-name="threequarters" unicode="&#xbe;" horiz-adv-x="737" 
d="M80 0l514 690h76l-514 -690h-76zM607 127v120l-91 -120h91zM731 71h-53v-71h-71v71h-179v30l215 282h35v-256h53v-56zM130 306q-63 0 -114 29v62l3 2q50 -32 102 -32q32 0 49 15.5t17 40.5q0 56 -70 56h-41v56h36q63 0 63 52q0 49 -61 49q-43 0 -87 -26l-3 2v59
q40 24 102 24q55 0 89.5 -25.5t34.5 -74.5q0 -62 -62 -83q75 -19 75 -92q0 -54 -35 -84t-98 -30z" />
    <glyph glyph-name="questiondown" unicode="&#xbf;" horiz-adv-x="443" 
d="M305 570v-93h-97v93h97zM402 -18v-83q-64 -46 -162 -46q-85 0 -139 45.5t-54 129.5q0 61 25 103t74 87q37 32 53.5 57t16.5 63v29h82v-29q0 -56 -20.5 -93t-73.5 -83q-36 -30 -53 -59.5t-17 -74.5q0 -44 27 -70.5t82 -26.5q46 0 80 12.5t75 40.5z" />
    <glyph glyph-name="Agrave" unicode="&#xc0;" 
d="M305 756l-96 130h92l74 -130h-70zM424 264l-110 266l-110 -266h220zM534 0l-77 186h-285l-77 -186h-90v5l303 711h16l303 -711v-5h-93z" />
    <glyph glyph-name="Aacute" unicode="&#xc1;" 
d="M424 886l-96 -130h-70l74 130h92zM424 264l-110 266l-110 -266h220zM534 0l-77 186h-285l-77 -186h-90v5l303 711h16l303 -711v-5h-93z" />
    <glyph glyph-name="Acircumflex" unicode="&#xc2;" 
d="M317 825l-60 -69h-76l101 130h72l101 -130h-76zM424 264l-110 266l-110 -266h220zM534 0l-77 186h-285l-77 -186h-90v5l303 711h16l303 -711v-5h-93z" />
    <glyph glyph-name="Atilde" unicode="&#xc3;" 
d="M373 839q32 -5 61 32l5 -3l20 -55q-37 -49 -91 -44q-29 3 -59 19t-43 17q-39 4 -65 -31l-4 4l-17 58q38 44 91 38q27 -2 58 -17.5t44 -17.5zM424 264l-110 266l-110 -266h220zM534 0l-77 186h-285l-77 -186h-90v5l303 711h16l303 -711v-5h-93z" />
    <glyph glyph-name="Adieresis" unicode="&#xc4;" 
d="M424 264l-110 266l-110 -266h220zM534 0l-77 186h-285l-77 -186h-90v5l303 711h16l303 -711v-5h-93zM374 770v91h92v-91h-92zM166 770v91h92v-91h-92z" />
    <glyph glyph-name="Aring" unicode="&#xc5;" 
d="M424 264l-110 266l-110 -266h220zM534 0l-77 186h-285l-77 -186h-90v5l303 711h16l303 -711v-5h-93zM316 746q-51 0 -82 30.5t-31 78.5t31 78.5t82 30.5t82 -30.5t31 -78.5t-31 -78.5t-82 -30.5zM316 910q-23 0 -37 -15.5t-14 -39.5t14 -39.5t37 -15.5q24 0 38 15.5
t14 39.5t-14 39.5t-38 15.5z" />
    <glyph glyph-name="AE" unicode="&#xc6;" horiz-adv-x="874" 
d="M445 264v363h-6l-202 -363h208zM445 0v186h-251l-103 -186h-89v5l392 700h425v-78h-284v-223h247v-77h-247v-249h284v-78h-374z" />
    <glyph glyph-name="Ccedilla" unicode="&#xc7;" horiz-adv-x="661" 
d="M353 -219q-47 0 -75 19v55l3 2q30 -17 60 -17q41 0 41 32q0 31 -67 39v88q-126 28 -202.5 125.5t-76.5 230.5q0 158 104.5 260t265.5 102q108 0 192 -42v-90l-4 -2q-78 56 -188 56q-127 0 -201.5 -78.5t-74.5 -205.5q0 -129 76.5 -208.5t205.5 -79.5q115 0 205 75l4 -2
v-91q-82 -61 -209 -61q-24 0 -36 1v-37q41 -10 61.5 -27t20.5 -55q0 -42 -28 -65.5t-77 -23.5z" />
    <glyph glyph-name="Egrave" unicode="&#xc8;" horiz-adv-x="510" 
d="M256 756l-96 130h92l74 -130h-70zM81 0v705h374v-78h-284v-223h247v-77h-247v-249h284v-78h-374z" />
    <glyph glyph-name="Eacute" unicode="&#xc9;" horiz-adv-x="510" 
d="M390 886l-96 -130h-70l74 130h92zM81 0v705h374v-78h-284v-223h247v-77h-247v-249h284v-78h-374z" />
    <glyph glyph-name="Ecircumflex" unicode="&#xca;" horiz-adv-x="510" 
d="M265 825l-60 -69h-76l101 130h72l101 -130h-76zM81 0v705h374v-78h-284v-223h247v-77h-247v-249h284v-78h-374z" />
    <glyph glyph-name="Edieresis" unicode="&#xcb;" horiz-adv-x="510" 
d="M81 0v705h374v-78h-284v-223h247v-77h-247v-249h284v-78h-374zM330 770v91h92v-91h-92zM122 770v91h92v-91h-92z" />
    <glyph glyph-name="Igrave" unicode="&#xcc;" horiz-adv-x="256" 
d="M125 756l-96 130h92l74 -130h-70zM83 0v705h90v-705h-90z" />
    <glyph glyph-name="Iacute" unicode="&#xcd;" horiz-adv-x="256" 
d="M236 886l-96 -130h-70l74 130h92zM83 0v705h90v-705h-90z" />
    <glyph glyph-name="Icircumflex" unicode="&#xce;" horiz-adv-x="256" 
d="M83 0v705h90v-705h-90zM129 851l-81 -88h-85l122 156h86l122 -156h-85z" />
    <glyph glyph-name="Idieresis" unicode="&#xcf;" horiz-adv-x="256" 
d="M166 770v91h92v-91h-92zM-2 770v91h92v-91h-92zM83 0v705h90v-705h-90z" />
    <glyph glyph-name="Eth" unicode="&#xd0;" horiz-adv-x="700" 
d="M374 324h-197v-246h75q154 0 236 59.5t82 209.5q0 280 -318 280h-75v-230h197v-73zM87 0v324h-80v73h80v308h172q184 0 294.5 -89.5t110.5 -268.5q0 -177 -109.5 -262t-295.5 -85h-172z" />
    <glyph glyph-name="Ntilde" unicode="&#xd1;" horiz-adv-x="734" 
d="M653 -17h-30l-455 539v-522h-87v719h31l454 -535v521h87v-722zM440 838q38 0 66 40l5 -2l27 -56q-13 -23 -38.5 -40t-58.5 -17t-72 15t-53 15q-42 0 -71 -39l-4 2l-25 60q15 22 42 37t58 15q29 0 67 -15t57 -15z" />
    <glyph glyph-name="Ograve" unicode="&#xd2;" horiz-adv-x="771" 
d="M386 756l-96 130h92l74 -130h-70zM386 -12q-151 0 -250.5 105t-99.5 262q0 156 99.5 259t250.5 103q152 0 250.5 -103t98.5 -259q0 -157 -99 -262t-250 -105zM386 66q114 0 184.5 79t70.5 210q0 130 -70 207t-185 77t-185.5 -77t-70.5 -207q0 -131 70.5 -210t185.5 -79z
" />
    <glyph glyph-name="Oacute" unicode="&#xd3;" horiz-adv-x="771" 
d="M524 886l-96 -130h-70l74 130h92zM386 -12q-151 0 -250.5 105t-99.5 262q0 156 99.5 259t250.5 103q152 0 250.5 -103t98.5 -259q0 -157 -99 -262t-250 -105zM386 66q114 0 184.5 79t70.5 210q0 130 -70 207t-185 77t-185.5 -77t-70.5 -207q0 -131 70.5 -210t185.5 -79z
" />
    <glyph glyph-name="Ocircumflex" unicode="&#xd4;" horiz-adv-x="771" 
d="M386 825l-60 -69h-76l101 130h72l101 -130h-76zM386 -12q-151 0 -250.5 105t-99.5 262q0 156 99.5 259t250.5 103q152 0 250.5 -103t98.5 -259q0 -157 -99 -262t-250 -105zM386 66q114 0 184.5 79t70.5 210q0 130 -70 207t-185 77t-185.5 -77t-70.5 -207
q0 -131 70.5 -210t185.5 -79z" />
    <glyph glyph-name="Otilde" unicode="&#xd5;" horiz-adv-x="771" 
d="M463 839q32 -5 61 32l5 -3l20 -55q-37 -49 -91 -44q-29 3 -59 19t-43 17q-39 4 -65 -31l-4 4l-17 58q38 44 91 38q27 -2 58 -17.5t44 -17.5zM386 -12q-151 0 -250.5 105t-99.5 262q0 156 99.5 259t250.5 103q152 0 250.5 -103t98.5 -259q0 -157 -99 -262t-250 -105z
M386 66q114 0 184.5 79t70.5 210q0 130 -70 207t-185 77t-185.5 -77t-70.5 -207q0 -131 70.5 -210t185.5 -79z" />
    <glyph glyph-name="Odieresis" unicode="&#xd6;" horiz-adv-x="771" 
d="M386 -12q-151 0 -250.5 105t-99.5 262q0 156 99.5 259t250.5 103q152 0 250.5 -103t98.5 -259q0 -157 -99 -262t-250 -105zM386 66q114 0 184.5 79t70.5 210q0 130 -70 207t-185 77t-185.5 -77t-70.5 -207q0 -131 70.5 -210t185.5 -79zM443 770v91h92v-91h-92zM235 770
v91h92v-91h-92z" />
    <glyph glyph-name="multiply" unicode="&#xd7;" horiz-adv-x="510" 
d="M402 147l-147 147l-148 -148l-52 53l148 148l-148 147l53 52l147 -147l147 147l52 -53l-146 -146l147 -148z" />
    <glyph glyph-name="Oslash" unicode="&#xd8;" horiz-adv-x="771" 
d="M130 355q0 -113 52 -189l357 427q-62 46 -153 46q-115 0 -185.5 -77t-70.5 -207zM386 66q114 0 184.5 79t70.5 210q0 116 -53 189l-358 -428q64 -50 156 -50zM386 -12q-118 0 -207 67l-84 -100l-52 45l85 102q-92 101 -92 253q0 156 99.5 259t250.5 103q116 0 204 -63
l76 90l52 -45l-76 -91q93 -101 93 -253q0 -157 -99 -262t-250 -105z" />
    <glyph glyph-name="Ugrave" unicode="&#xd9;" horiz-adv-x="685" 
d="M335 756l-96 130h92l74 -130h-70zM340 -12q-120 0 -194.5 71t-74.5 199v447h90v-443q0 -95 48 -145.5t131 -50.5q84 0 134 51t50 145v443h90v-447q0 -128 -76.5 -199t-197.5 -71z" />
    <glyph glyph-name="Uacute" unicode="&#xda;" horiz-adv-x="685" 
d="M472 886l-96 -130h-70l74 130h92zM340 -12q-120 0 -194.5 71t-74.5 199v447h90v-443q0 -95 48 -145.5t131 -50.5q84 0 134 51t50 145v443h90v-447q0 -128 -76.5 -199t-197.5 -71z" />
    <glyph glyph-name="Ucircumflex" unicode="&#xdb;" horiz-adv-x="685" 
d="M340 -12q-120 0 -194.5 71t-74.5 199v447h90v-443q0 -95 48 -145.5t131 -50.5q84 0 134 51t50 145v443h90v-447q0 -128 -76.5 -199t-197.5 -71zM343 851l-81 -88h-85l122 156h86l122 -156h-85z" />
    <glyph glyph-name="Udieresis" unicode="&#xdc;" horiz-adv-x="685" 
d="M340 -12q-120 0 -194.5 71t-74.5 199v447h90v-443q0 -95 48 -145.5t131 -50.5q84 0 134 51t50 145v443h90v-447q0 -128 -76.5 -199t-197.5 -71zM400 770v91h92v-91h-92zM192 770v91h92v-91h-92z" />
    <glyph glyph-name="Yacute" unicode="&#xdd;" horiz-adv-x="569" 
d="M411 886l-96 -130h-70l74 130h92zM332 0h-90v291l-233 409v5h95l183 -330l184 330h89v-5l-228 -403v-297z" />
    <glyph glyph-name="Thorn" unicode="&#xde;" horiz-adv-x="564" 
d="M297 482h-126v-241h133q76 0 107.5 31.5t31.5 93.5q0 61 -33 88.5t-113 27.5zM316 166h-145v-166h-90v705h90v-143h129q114 0 174.5 -50.5t60.5 -148.5q0 -96 -58.5 -146.5t-160.5 -50.5z" />
    <glyph glyph-name="germandbls" unicode="&#xdf;" horiz-adv-x="556" 
d="M219 93l2 2q58 -33 115 -33q48 0 79.5 23t31.5 65q0 35 -32.5 64t-71.5 47.5t-71.5 48.5t-32.5 66q0 27 15 50.5t37 41.5t43.5 35.5t36.5 41t15 50.5q0 42 -28 66t-79 24q-56 0 -91.5 -32t-35.5 -101v-552h-86v554q0 103 60 153.5t153 50.5q82 0 137.5 -44t55.5 -118
q0 -41 -22.5 -77.5t-49.5 -56.5t-49.5 -41.5t-22.5 -36.5t21 -30.5t51 -33t60.5 -38.5t51.5 -54.5t21 -74.5q0 -80 -51.5 -122.5t-131.5 -42.5q-84 0 -131 30v75z" />
    <glyph glyph-name="agrave" unicode="&#xe0;" horiz-adv-x="504" 
d="M237 602l-96 130h95l74 -130h-73zM215 61q94 0 141 66v122l-95 -15q-80 -12 -112.5 -32.5t-32.5 -62.5q0 -36 25 -57t74 -21zM368 0l-7 60q-53 -72 -152 -72q-80 0 -130 39.5t-50 111.5q0 74 54.5 109t158.5 51l114 18v5q0 74 -32 104t-101 30q-80 0 -151 -39l-4 2v72
q60 41 162 41q103 0 157.5 -48t54.5 -154v-330h-74z" />
    <glyph glyph-name="aacute" unicode="&#xe1;" horiz-adv-x="504" 
d="M377 732l-96 -130h-70l74 130h92zM215 61q94 0 141 66v122l-95 -15q-80 -12 -112.5 -32.5t-32.5 -62.5q0 -36 25 -57t74 -21zM368 0l-7 60q-53 -72 -152 -72q-80 0 -130 39.5t-50 111.5q0 74 54.5 109t158.5 51l114 18v5q0 74 -32 104t-101 30q-80 0 -151 -39l-4 2v72
q60 41 162 41q103 0 157.5 -48t54.5 -154v-330h-74z" />
    <glyph glyph-name="acircumflex" unicode="&#xe2;" horiz-adv-x="504" 
d="M249 661l-60 -69h-76l101 130h72l101 -130h-76zM215 61q94 0 141 66v122l-95 -15q-80 -12 -112.5 -32.5t-32.5 -62.5q0 -36 25 -57t74 -21zM368 0l-7 60q-53 -72 -152 -72q-80 0 -130 39.5t-50 111.5q0 74 54.5 109t158.5 51l114 18v5q0 74 -32 104t-101 30
q-80 0 -151 -39l-4 2v72q60 41 162 41q103 0 157.5 -48t54.5 -154v-330h-74z" />
    <glyph glyph-name="atilde" unicode="&#xe3;" horiz-adv-x="504" 
d="M306 675q32 -5 61 32l5 -3l20 -55q-37 -49 -91 -44q-29 3 -59 19t-43 17q-39 4 -65 -31l-4 4l-17 58q38 44 91 38q27 -2 58 -17.5t44 -17.5zM215 61q94 0 141 66v122l-95 -15q-80 -12 -112.5 -32.5t-32.5 -62.5q0 -36 25 -57t74 -21zM368 0l-7 60q-53 -72 -152 -72
q-80 0 -130 39.5t-50 111.5q0 74 54.5 109t158.5 51l114 18v5q0 74 -32 104t-101 30q-80 0 -151 -39l-4 2v72q60 41 162 41q103 0 157.5 -48t54.5 -154v-330h-74z" />
    <glyph glyph-name="adieresis" unicode="&#xe4;" horiz-adv-x="504" 
d="M215 61q94 0 141 66v122l-95 -15q-80 -12 -112.5 -32.5t-32.5 -62.5q0 -36 25 -57t74 -21zM368 0l-7 60q-53 -72 -152 -72q-80 0 -130 39.5t-50 111.5q0 74 54.5 109t158.5 51l114 18v5q0 74 -32 104t-101 30q-80 0 -151 -39l-4 2v72q60 41 162 41q103 0 157.5 -48
t54.5 -154v-330h-74zM104 639v91h92v-91h-92zM284 639v91h92v-91h-92z" />
    <glyph glyph-name="aring" unicode="&#xe5;" horiz-adv-x="504" 
d="M215 61q94 0 141 66v122l-95 -15q-80 -12 -112.5 -32.5t-32.5 -62.5q0 -36 25 -57t74 -21zM368 0l-7 60q-53 -72 -152 -72q-80 0 -130 39.5t-50 111.5q0 74 54.5 109t158.5 51l114 18v5q0 74 -32 104t-101 30q-80 0 -151 -39l-4 2v72q60 41 162 41q103 0 157.5 -48
t54.5 -154v-330h-74zM240 591q-51 0 -82 30.5t-31 78.5t31 78.5t82 30.5t82 -30.5t31 -78.5t-31 -78.5t-82 -30.5zM240 755q-23 0 -37 -15.5t-14 -39.5t14 -39.5t37 -15.5q24 0 38 15.5t14 39.5t-14 39.5t-38 15.5z" />
    <glyph glyph-name="ae" unicode="&#xe6;" horiz-adv-x="848" 
d="M602 457q-129 0 -155 -133h283q-3 64 -36 98.5t-92 34.5zM804 113v-80q-72 -45 -176 -45q-140 0 -213 90q-77 -90 -204 -90q-80 0 -130 40t-50 112q0 74 54.5 108.5t158.5 50.5l114 18v5q0 74 -32 104t-101 30q-80 0 -151 -39l-4 2v72q60 41 162 41q145 0 187 -90
q63 90 185 90q102 0 163.5 -68.5t50.5 -207.5h-377q2 -95 51.5 -144t138.5 -49t169 52zM217 61q116 0 157 92q-11 28 -17 94l-94 -15q-81 -12 -113 -31t-32 -61q0 -36 25 -57.5t74 -21.5z" />
    <glyph glyph-name="ccedilla" unicode="&#xe7;" horiz-adv-x="485" 
d="M247 -219q-47 0 -75 19v55l3 2q30 -17 60 -17q41 0 41 32q0 31 -67 39v90q-83 27 -131 95t-48 165q0 123 76 197t191 74q91 0 143 -33v-77l-4 -2q-66 37 -139 37q-78 0 -129 -52t-51 -144q0 -93 49 -146t133 -53q81 0 150 48l4 -2v-75q-58 -45 -152 -45q-20 0 -31 1v-37
q41 -10 61.5 -27t20.5 -55q0 -42 -28 -65.5t-77 -23.5z" />
    <glyph glyph-name="egrave" unicode="&#xe8;" horiz-adv-x="524" 
d="M268 602l-96 130h92l74 -130h-70zM276 457q-129 0 -155 -133h283q-3 64 -36 98.5t-92 34.5zM478 113v-80q-72 -45 -176 -45q-124 0 -198 73t-74 200q0 121 69.5 196t178.5 75q102 0 163.5 -68.5t50.5 -207.5h-377q2 -95 51.5 -144t138.5 -49t169 52z" />
    <glyph glyph-name="eacute" unicode="&#xe9;" horiz-adv-x="524" 
d="M417 732l-96 -130h-70l74 130h92zM276 457q-129 0 -155 -133h283q-3 64 -36 98.5t-92 34.5zM478 113v-80q-72 -45 -176 -45q-124 0 -198 73t-74 200q0 121 69.5 196t178.5 75q102 0 163.5 -68.5t50.5 -207.5h-377q2 -95 51.5 -144t138.5 -49t169 52z" />
    <glyph glyph-name="ecircumflex" unicode="&#xea;" horiz-adv-x="524" 
d="M287 661l-60 -69h-76l101 130h72l101 -130h-76zM276 457q-129 0 -155 -133h283q-3 64 -36 98.5t-92 34.5zM478 113v-80q-72 -45 -176 -45q-124 0 -198 73t-74 200q0 121 69.5 196t178.5 75q102 0 163.5 -68.5t50.5 -207.5h-377q2 -95 51.5 -144t138.5 -49t169 52z" />
    <glyph glyph-name="edieresis" unicode="&#xeb;" horiz-adv-x="524" 
d="M276 457q-129 0 -155 -133h283q-3 64 -36 98.5t-92 34.5zM478 113v-80q-72 -45 -176 -45q-124 0 -198 73t-74 200q0 121 69.5 196t178.5 75q102 0 163.5 -68.5t50.5 -207.5h-377q2 -95 51.5 -144t138.5 -49t169 52zM133 639v91h92v-91h-92zM313 639v91h92v-91h-92z" />
    <glyph glyph-name="igrave" unicode="&#xec;" horiz-adv-x="226" 
d="M105 602l-96 130h92l74 -130h-70zM70 0v520h86v-520h-86z" />
    <glyph glyph-name="iacute" unicode="&#xed;" horiz-adv-x="226" 
d="M214 732l-96 -130h-70l74 130h92zM70 0v520h86v-520h-86z" />
    <glyph glyph-name="icircumflex" unicode="&#xee;" horiz-adv-x="226" 
d="M70 0v520h86v-520h-86zM112 701l-75 -91h-82l115 156h86l115 -156h-82z" />
    <glyph glyph-name="idieresis" unicode="&#xef;" horiz-adv-x="226" 
d="M-10 639v91h92v-91h-92zM144 639v91h92v-91h-92zM70 0v520h86v-520h-86z" />
    <glyph glyph-name="eth" unicode="&#xf0;" horiz-adv-x="589" 
d="M293 -12q-114 0 -188.5 75.5t-74.5 197.5q0 121 72 196t178 75q95 0 153 -52q-41 77 -139 149l-145 -78l-27 52l117 62q-23 15 -67.5 42t-58.5 36l1 3h125q43 -24 71 -43l102 55l27 -52l-75 -40q192 -147 192 -364q0 -162 -72 -238t-191 -76zM293 62q178 0 178 228
q0 66 -8 99q-63 69 -170 69q-79 0 -128 -52.5t-49 -144.5t50 -145.5t127 -53.5z" />
    <glyph glyph-name="ntilde" unicode="&#xf1;" horiz-adv-x="543" 
d="M291 460q-74 0 -139 -44v-416h-86v520h75l7 -51q77 63 164 63q81 0 125 -43t44 -124v-365h-86v347q0 113 -104 113zM332 716q36 0 64 40l5 -2l27 -56q-13 -23 -38 -40t-56 -17q-34 0 -67.5 13.5t-48.5 13.5q-39 0 -68 -39l-4 2l-25 60q37 52 95 52q30 0 63.5 -13.5
t52.5 -13.5z" />
    <glyph glyph-name="ograve" unicode="&#xf2;" horiz-adv-x="592" 
d="M289 602l-96 130h92l74 -130h-70zM295 -12q-115 0 -190 75.5t-75 197.5q0 121 75 196t190 75t191 -75t76 -196t-76 -197t-191 -76zM295 62q79 0 130 54t51 145q0 89 -51 143t-130 54t-129 -54t-50 -143q0 -91 50 -145t129 -54z" />
    <glyph glyph-name="oacute" unicode="&#xf3;" horiz-adv-x="592" 
d="M431 732l-96 -130h-70l74 130h92zM295 -12q-115 0 -190 75.5t-75 197.5q0 121 75 196t190 75t191 -75t76 -196t-76 -197t-191 -76zM295 62q79 0 130 54t51 145q0 89 -51 143t-130 54t-129 -54t-50 -143q0 -91 50 -145t129 -54z" />
    <glyph glyph-name="ocircumflex" unicode="&#xf4;" horiz-adv-x="592" 
d="M295 661l-60 -69h-76l101 130h72l101 -130h-76zM295 -12q-115 0 -190 75.5t-75 197.5q0 121 75 196t190 75t191 -75t76 -196t-76 -197t-191 -76zM295 62q79 0 130 54t51 145q0 89 -51 143t-130 54t-129 -54t-50 -143q0 -91 50 -145t129 -54z" />
    <glyph glyph-name="otilde" unicode="&#xf5;" horiz-adv-x="592" 
d="M369 675q32 -5 61 32l5 -3l20 -55q-37 -49 -91 -44q-29 3 -59 19t-43 17q-39 4 -65 -31l-4 4l-17 58q38 44 91 38q27 -2 58 -17.5t44 -17.5zM295 -12q-115 0 -190 75.5t-75 197.5q0 121 75 196t190 75t191 -75t76 -196t-76 -197t-191 -76zM295 62q79 0 130 54t51 145
q0 89 -51 143t-130 54t-129 -54t-50 -143q0 -91 50 -145t129 -54z" />
    <glyph glyph-name="odieresis" unicode="&#xf6;" horiz-adv-x="592" 
d="M295 -12q-115 0 -190 75.5t-75 197.5q0 121 75 196t190 75t191 -75t76 -196t-76 -197t-191 -76zM295 62q79 0 130 54t51 145q0 89 -51 143t-130 54t-129 -54t-50 -143q0 -91 50 -145t129 -54zM160 639v91h92v-91h-92zM340 639v91h92v-91h-92z" />
    <glyph glyph-name="divide" unicode="&#xf7;" horiz-adv-x="528" 
d="M211 471v103h107v-103h-107zM57 310v72h414v-72h-414zM211 118v103h107v-103h-107z" />
    <glyph glyph-name="oslash" unicode="&#xf8;" horiz-adv-x="592" 
d="M115 261q0 -76 32 -126l249 297q-44 26 -101 26q-79 0 -129.5 -54t-50.5 -143zM295 62q80 0 131.5 54t51.5 145q0 80 -37 130l-250 -300q44 -29 104 -29zM295 -12q-86 0 -153 45l-62 -74l-48 39l64 76q-66 72 -66 187q0 121 75 196t190 75q85 0 149 -42l61 73l48 -39
l-61 -73q70 -75 70 -190q0 -121 -76 -197t-191 -76z" />
    <glyph glyph-name="ugrave" unicode="&#xf9;" horiz-adv-x="551" 
d="M261 602l-96 130h92l74 -130h-70zM410 0l-7 51q-79 -63 -169 -63q-82 0 -128 43.5t-46 123.5v365h86v-347q0 -113 109 -113q80 0 144 45v415h86v-520h-75z" />
    <glyph glyph-name="uacute" unicode="&#xfa;" horiz-adv-x="551" 
d="M408 732l-96 -130h-70l74 130h92zM410 0l-7 51q-79 -63 -169 -63q-82 0 -128 43.5t-46 123.5v365h86v-347q0 -113 109 -113q80 0 144 45v415h86v-520h-75z" />
    <glyph glyph-name="ucircumflex" unicode="&#xfb;" horiz-adv-x="551" 
d="M410 0l-7 51q-79 -63 -169 -63q-82 0 -128 43.5t-46 123.5v365h86v-347q0 -113 109 -113q80 0 144 45v415h86v-520h-75zM274 701l-75 -91h-82l115 156h86l115 -156h-82z" />
    <glyph glyph-name="udieresis" unicode="&#xfc;" horiz-adv-x="551" 
d="M410 0l-7 51q-79 -63 -169 -63q-82 0 -128 43.5t-46 123.5v365h86v-347q0 -113 109 -113q80 0 144 45v415h86v-520h-75zM139 639v91h92v-91h-92zM319 639v91h92v-91h-92z" />
    <glyph glyph-name="yacute" unicode="&#xfd;" horiz-adv-x="494" 
d="M379 732l-96 -130h-70l74 130h92zM54 -222v79q53 8 80.5 30.5t46.5 68.5l27 68l-201 491v5h91l155 -394l148 394h86v-5l-225 -578q-31 -79 -79.5 -116t-128.5 -43z" />
    <glyph glyph-name="thorn" unicode="&#xfe;" horiz-adv-x="579" 
d="M300 62q71 0 117 53t46 153q0 96 -45 143t-114 47q-93 0 -151 -61v-279q61 -56 147 -56zM304 -12q-92 0 -151 65v-263h-87v944l87 23v-293q62 68 158 68q106 0 172 -71.5t66 -192.5q0 -126 -67 -203t-178 -77z" />
    <glyph glyph-name="ydieresis" unicode="&#xff;" horiz-adv-x="494" 
d="M54 -222v79q53 8 80.5 30.5t46.5 68.5l27 68l-201 491v5h91l155 -394l148 394h86v-5l-225 -578q-31 -79 -79.5 -116t-128.5 -43zM117 639v91h92v-91h-92zM297 639v91h92v-91h-92z" />
    <glyph glyph-name="Amacron" unicode="&#x100;" 
d="M424 264l-110 266l-110 -266h220zM534 0l-77 186h-285l-77 -186h-90v5l303 711h16l303 -711v-5h-93zM167 769v73h298v-73h-298z" />
    <glyph glyph-name="amacron" unicode="&#x101;" horiz-adv-x="504" 
d="M215 61q94 0 141 66v122l-95 -15q-80 -12 -112.5 -32.5t-32.5 -62.5q0 -36 25 -57t74 -21zM368 0l-7 60q-53 -72 -152 -72q-80 0 -130 39.5t-50 111.5q0 74 54.5 109t158.5 51l114 18v5q0 74 -32 104t-101 30q-80 0 -151 -39l-4 2v72q60 41 162 41q103 0 157.5 -48
t54.5 -154v-330h-74zM98 651v73h292v-73h-292z" />
    <glyph glyph-name="Abreve" unicode="&#x102;" 
d="M316 756q-60 0 -94.5 32t-38.5 91h65q8 -60 67 -60q61 0 68 60h65q-4 -59 -38 -91t-94 -32zM424 264l-110 266l-110 -266h220zM534 0l-77 186h-285l-77 -186h-90v5l303 711h16l303 -711v-5h-93z" />
    <glyph glyph-name="abreve" unicode="&#x103;" horiz-adv-x="504" 
d="M215 61q94 0 141 66v122l-95 -15q-80 -12 -112.5 -32.5t-32.5 -62.5q0 -36 25 -57t74 -21zM368 0l-7 60q-53 -72 -152 -72q-80 0 -130 39.5t-50 111.5q0 74 54.5 109t158.5 51l114 18v5q0 74 -32 104t-101 30q-80 0 -151 -39l-4 2v72q60 41 162 41q103 0 157.5 -48
t54.5 -154v-330h-74zM261 595q-60 0 -94.5 32t-38.5 91h65q7 -60 67 -60t68 60h65q-4 -59 -38 -91t-94 -32z" />
    <glyph glyph-name="Aogonek" unicode="&#x104;" 
d="M582 -222q-62 0 -93.5 26t-31.5 72q0 75 77 122l-77 188h-285l-77 -186h-90v5l303 711h16l303 -711v-5q-41 -23 -63 -52.5t-22 -54.5q0 -22 11 -32.5t39 -10.5t53 12l3 -2v-66q-30 -16 -66 -16zM424 264l-110 266l-110 -266h220z" />
    <glyph glyph-name="aogonek" unicode="&#x105;" horiz-adv-x="504" 
d="M215 61q94 0 141 66v122l-95 -15q-80 -12 -112.5 -32.5t-32.5 -62.5q0 -36 25 -57t74 -21zM463 -140v-66q-30 -16 -66 -16q-62 0 -93.5 26t-31.5 72q0 79 95 132l-6 52q-53 -72 -152 -72q-80 0 -130 39.5t-50 111.5q0 74 54.5 109t158.5 51l114 18v5q0 74 -32 104
t-101 30q-80 0 -151 -39l-4 2v72q60 41 162 41q103 0 157.5 -48t54.5 -154v-330q-41 -23 -63 -52.5t-22 -54.5q0 -22 11 -32.5t39 -10.5q27 0 53 12z" />
    <glyph glyph-name="Cacute" unicode="&#x106;" horiz-adv-x="661" 
d="M412 -12q-165 0 -270.5 104t-105.5 263q0 158 104.5 260t265.5 102q108 0 192 -42v-90l-4 -2q-78 56 -188 56q-127 0 -201.5 -78.5t-74.5 -205.5q0 -129 76.5 -208.5t205.5 -79.5q115 0 205 75l4 -2v-91q-82 -61 -209 -61zM421 763h-83l88 145h109z" />
    <glyph glyph-name="cacute" unicode="&#x107;" horiz-adv-x="485" 
d="M301 -12q-120 0 -195.5 75t-75.5 198t76 197t191 74q91 0 143 -33v-77l-4 -2q-66 37 -139 37q-78 0 -129 -52t-51 -144q0 -93 49 -146t133 -53q81 0 150 48l4 -2v-75q-58 -45 -152 -45zM306 610h-83l98 165h109z" />
    <glyph glyph-name="Ccircumflex" unicode="&#x108;" horiz-adv-x="661" 
d="M412 -12q-165 0 -270.5 104t-105.5 263q0 158 104.5 260t265.5 102q108 0 192 -42v-90l-4 -2q-78 56 -188 56q-127 0 -201.5 -78.5t-74.5 -205.5q0 -129 76.5 -208.5t205.5 -79.5q115 0 205 75l4 -2v-91q-82 -61 -209 -61zM382 851l-81 -88h-85l122 156h86l122 -156h-85z
" />
    <glyph glyph-name="ccircumflex" unicode="&#x109;" horiz-adv-x="485" 
d="M301 -12q-120 0 -195.5 75t-75.5 198t76 197t191 74q91 0 143 -33v-77l-4 -2q-66 37 -139 37q-78 0 -129 -52t-51 -144q0 -93 49 -146t133 -53q81 0 150 48l4 -2v-75q-58 -45 -152 -45zM274 701l-75 -91h-82l115 156h86l115 -156h-82z" />
    <glyph glyph-name="Cdotaccent" unicode="&#x10a;" horiz-adv-x="661" 
d="M412 -12q-165 0 -270.5 104t-105.5 263q0 158 104.5 260t265.5 102q108 0 192 -42v-90l-4 -2q-78 56 -188 56q-127 0 -201.5 -78.5t-74.5 -205.5q0 -129 76.5 -208.5t205.5 -79.5q115 0 205 75l4 -2v-91q-82 -61 -209 -61zM333 770v95h96v-95h-96z" />
    <glyph glyph-name="cdotaccent" unicode="&#x10b;" horiz-adv-x="485" 
d="M301 -12q-120 0 -195.5 75t-75.5 198t76 197t191 74q91 0 143 -33v-77l-4 -2q-66 37 -139 37q-78 0 -129 -52t-51 -144q0 -93 49 -146t133 -53q81 0 150 48l4 -2v-75q-58 -45 -152 -45zM227 637v95h96v-95h-96z" />
    <glyph glyph-name="Ccaron" unicode="&#x10c;" horiz-adv-x="661" 
d="M412 -12q-165 0 -270.5 104t-105.5 263q0 158 104.5 260t265.5 102q108 0 192 -42v-90l-4 -2q-78 56 -188 56q-127 0 -201.5 -78.5t-74.5 -205.5q0 -129 76.5 -208.5t205.5 -79.5q115 0 205 75l4 -2v-91q-82 -61 -209 -61zM382 831l79 88h85l-122 -156h-86l-122 156h85z
" />
    <glyph glyph-name="ccaron" unicode="&#x10d;" horiz-adv-x="485" 
d="M301 -12q-120 0 -195.5 75t-75.5 198t76 197t191 74q91 0 143 -33v-77l-4 -2q-66 37 -139 37q-78 0 -129 -52t-51 -144q0 -93 49 -146t133 -53q81 0 150 48l4 -2v-75q-58 -45 -152 -45zM276 675l75 91h82l-115 -156h-86l-115 156h82z" />
    <glyph glyph-name="Dcaron" unicode="&#x10e;" horiz-adv-x="694" 
d="M246 627h-75v-549h75q154 0 236 59.5t82 209.5q0 280 -318 280zM81 0v705h172q184 0 294.5 -89.5t110.5 -268.5q0 -177 -109.5 -262t-295.5 -85h-172zM328 831l79 88h85l-122 -156h-86l-122 156h85z" />
    <glyph glyph-name="dcaron" unicode="&#x10f;" horiz-adv-x="578" 
d="M446 0l-11 67q-60 -79 -167 -79q-106 0 -172 71.5t-66 192.5q0 126 67 203t178 77q92 0 151 -65v267l86 23v-757h-66zM275 62q93 0 151 61v279q-61 56 -147 56q-71 0 -117 -53t-46 -153q0 -96 44.5 -143t114.5 -47zM561 581l7 162h86v-8l-32 -154h-61z" />
    <glyph glyph-name="Dcroat" unicode="&#x110;" horiz-adv-x="700" 
d="M374 299h-197v-221h75q154 0 236 59.5t82 209.5q0 280 -318 280h-75v-255h197v-73zM87 0v299h-62v73h62v333h172q184 0 294.5 -89.5t110.5 -268.5q0 -177 -109.5 -262t-295.5 -85h-172z" />
    <glyph glyph-name="dslash" unicode="&#x111;" horiz-adv-x="578" 
d="M446 0l-11 67q-60 -79 -167 -79q-106 0 -172 71.5t-66 192.5q0 126 67 203t178 77q92 0 151 -65v128h-162v63h162v76l86 23v-99h69v-63h-69v-595h-66zM275 62q93 0 151 61v279q-61 56 -147 56q-71 0 -117 -53t-46 -153q0 -96 44.5 -143t114.5 -47z" />
    <glyph glyph-name="Emacron" unicode="&#x112;" horiz-adv-x="510" 
d="M81 0v705h374v-78h-284v-223h247v-77h-247v-249h284v-78h-374zM123 769v73h298v-73h-298z" />
    <glyph glyph-name="emacron" unicode="&#x113;" horiz-adv-x="524" 
d="M276 457q-129 0 -155 -133h283q-3 64 -36 98.5t-92 34.5zM478 113v-80q-72 -45 -176 -45q-124 0 -198 73t-74 200q0 121 69.5 196t178.5 75q102 0 163.5 -68.5t50.5 -207.5h-377q2 -95 51.5 -144t138.5 -49t169 52zM123 651v73h292v-73h-292z" />
    <glyph glyph-name="Ebreve" unicode="&#x114;" horiz-adv-x="510" 
d="M81 0v705h374v-78h-284v-223h247v-77h-247v-249h284v-78h-374zM273 751q-61 0 -101.5 39.5t-44.5 103.5h70q12 -71 76 -71q63 0 75 71h70q-4 -64 -44 -103.5t-101 -39.5z" />
    <glyph glyph-name="ebreve" unicode="&#x115;" horiz-adv-x="524" 
d="M276 457q-129 0 -155 -133h283q-3 64 -36 98.5t-92 34.5zM478 113v-80q-72 -45 -176 -45q-124 0 -198 73t-74 200q0 121 69.5 196t178.5 75q102 0 163.5 -68.5t50.5 -207.5h-377q2 -95 51.5 -144t138.5 -49t169 52zM270 618q-61 0 -101.5 39.5t-44.5 103.5h70
q12 -71 76 -71q63 0 75 71h70q-4 -64 -44 -103.5t-101 -39.5z" />
    <glyph glyph-name="Edotaccent" unicode="&#x116;" horiz-adv-x="510" 
d="M81 0v705h374v-78h-284v-223h247v-77h-247v-249h284v-78h-374zM224 770v95h96v-95h-96z" />
    <glyph glyph-name="edotaccent" unicode="&#x117;" horiz-adv-x="524" 
d="M276 457q-129 0 -155 -133h283q-3 64 -36 98.5t-92 34.5zM478 113v-80q-72 -45 -176 -45q-124 0 -198 73t-74 200q0 121 69.5 196t178.5 75q102 0 163.5 -68.5t50.5 -207.5h-377q2 -95 51.5 -144t138.5 -49t169 52zM221 637v95h96v-95h-96z" />
    <glyph glyph-name="Eogonek" unicode="&#x118;" horiz-adv-x="510" 
d="M81 0v705h374v-78h-284v-223h247v-77h-247v-249h284v-78h-374zM428 -140v-66q-30 -16 -66 -16q-62 0 -93.5 26t-31.5 72q0 38 19 67t68 57h83q-41 -23 -63 -52.5t-22 -54.5q0 -22 11 -32.5t39 -10.5t53 12z" />
    <glyph glyph-name="eogonek" unicode="&#x119;" horiz-adv-x="524" 
d="M276 457q-129 0 -155 -133h283q-3 64 -36 98.5t-92 34.5zM435 -140v-66q-30 -16 -66 -16q-62 0 -93.5 26t-31.5 72q0 34 15 60.5t53 51.5h-10q-124 0 -198 73t-74 200q0 121 69.5 196t178.5 75q102 0 163.5 -68.5t50.5 -207.5h-377q2 -95 51.5 -144t138.5 -49t169 52
l4 -2v-80q-4 -2 -35.5 -18.5t-48.5 -27.5q-65 -45 -65 -94q0 -22 11 -32.5t39 -10.5q27 0 53 12z" />
    <glyph glyph-name="Ecaron" unicode="&#x11a;" horiz-adv-x="510" 
d="M81 0v705h374v-78h-284v-223h247v-77h-247v-249h284v-78h-374zM273 831l79 88h85l-122 -156h-86l-122 156h85z" />
    <glyph glyph-name="ecaron" unicode="&#x11b;" horiz-adv-x="524" 
d="M276 457q-129 0 -155 -133h283q-3 64 -36 98.5t-92 34.5zM478 113v-80q-72 -45 -176 -45q-124 0 -198 73t-74 200q0 121 69.5 196t178.5 75q102 0 163.5 -68.5t50.5 -207.5h-377q2 -95 51.5 -144t138.5 -49t169 52zM270 675l75 91h82l-115 -156h-86l-115 156h82z" />
    <glyph glyph-name="Gcircumflex" unicode="&#x11c;" horiz-adv-x="692" 
d="M631 379v-320q-109 -71 -229 -71q-169 0 -267.5 102.5t-98.5 264.5q0 158 103.5 260t264.5 102q112 0 198 -44v-89l-4 -2q-80 57 -194 57q-127 0 -200.5 -78t-73.5 -206q0 -131 69.5 -209.5t202.5 -78.5q74 0 140 32v203h-167v77h256zM381 851l-81 -88h-85l122 156h86
l122 -156h-85z" />
    <glyph glyph-name="gcircumflex" unicode="&#x11d;" horiz-adv-x="485" 
d="M231 237q49 0 81 31t32 83q0 53 -32 83.5t-81 30.5q-50 0 -81.5 -30.5t-31.5 -83.5q0 -52 31.5 -83t81.5 -31zM235 -222q-106 0 -167.5 34.5t-61.5 100.5q0 47 31 72h70l2 -3q-22 -30 -22 -62q0 -74 148 -74q79 0 120 29t41 74q0 32 -18 44t-64 14l-137 6q-123 6 -123 98
q0 63 63 95q-81 52 -81 145q0 80 55.5 129.5t138.5 49.5q44 0 83 -17l162 12v-70h-94q43 -43 43 -104q0 -79 -56 -127t-138 -48q-28 0 -55 6q-26 -8 -36.5 -20t-10.5 -33q0 -18 13 -25t46 -9l135 -6q79 -4 118 -35.5t39 -102.5q0 -78 -65.5 -125.5t-178.5 -47.5zM240 701
l-75 -91h-82l115 156h86l115 -156h-82z" />
    <glyph glyph-name="Gbreve" unicode="&#x11e;" horiz-adv-x="692" 
d="M631 379v-320q-109 -71 -229 -71q-169 0 -267.5 102.5t-98.5 264.5q0 158 103.5 260t264.5 102q112 0 198 -44v-89l-4 -2q-80 57 -194 57q-127 0 -200.5 -78t-73.5 -206q0 -131 69.5 -209.5t202.5 -78.5q74 0 140 32v203h-167v77h256zM381 751q-61 0 -101.5 39.5
t-44.5 103.5h70q12 -71 76 -71q63 0 75 71h70q-4 -64 -44 -103.5t-101 -39.5z" />
    <glyph glyph-name="gbreve" unicode="&#x11f;" horiz-adv-x="485" 
d="M231 237q49 0 81 31t32 83q0 53 -32 83.5t-81 30.5q-50 0 -81.5 -30.5t-31.5 -83.5q0 -52 31.5 -83t81.5 -31zM235 -222q-106 0 -167.5 34.5t-61.5 100.5q0 47 31 72h70l2 -3q-22 -30 -22 -62q0 -74 148 -74q79 0 120 29t41 74q0 32 -18 44t-64 14l-137 6q-123 6 -123 98
q0 63 63 95q-81 52 -81 145q0 80 55.5 129.5t138.5 49.5q44 0 83 -17l162 12v-70h-94q43 -43 43 -104q0 -79 -56 -127t-138 -48q-28 0 -55 6q-26 -8 -36.5 -20t-10.5 -33q0 -18 13 -25t46 -9l135 -6q79 -4 118 -35.5t39 -102.5q0 -78 -65.5 -125.5t-178.5 -47.5zM242 618
q-61 0 -101.5 39.5t-44.5 103.5h70q12 -71 76 -71q63 0 75 71h70q-4 -64 -44 -103.5t-101 -39.5z" />
    <glyph glyph-name="Gdotaccent" unicode="&#x120;" horiz-adv-x="692" 
d="M631 379v-320q-109 -71 -229 -71q-169 0 -267.5 102.5t-98.5 264.5q0 158 103.5 260t264.5 102q112 0 198 -44v-89l-4 -2q-80 57 -194 57q-127 0 -200.5 -78t-73.5 -206q0 -131 69.5 -209.5t202.5 -78.5q74 0 140 32v203h-167v77h256zM332 770v95h96v-95h-96z" />
    <glyph glyph-name="gdotaccent" unicode="&#x121;" horiz-adv-x="485" 
d="M231 237q49 0 81 31t32 83q0 53 -32 83.5t-81 30.5q-50 0 -81.5 -30.5t-31.5 -83.5q0 -52 31.5 -83t81.5 -31zM235 -222q-106 0 -167.5 34.5t-61.5 100.5q0 47 31 72h70l2 -3q-22 -30 -22 -62q0 -74 148 -74q79 0 120 29t41 74q0 32 -18 44t-64 14l-137 6q-123 6 -123 98
q0 63 63 95q-81 52 -81 145q0 80 55.5 129.5t138.5 49.5q44 0 83 -17l162 12v-70h-94q43 -43 43 -104q0 -79 -56 -127t-138 -48q-28 0 -55 6q-26 -8 -36.5 -20t-10.5 -33q0 -18 13 -25t46 -9l135 -6q79 -4 118 -35.5t39 -102.5q0 -78 -65.5 -125.5t-178.5 -47.5zM193 637v95
h96v-95h-96z" />
    <glyph glyph-name="uni0122" unicode="&#x122;" horiz-adv-x="692" 
d="M631 379v-320q-109 -71 -229 -71q-169 0 -267.5 102.5t-98.5 264.5q0 158 103.5 260t264.5 102q112 0 198 -44v-89l-4 -2q-80 57 -194 57q-127 0 -200.5 -78t-73.5 -206q0 -131 69.5 -209.5t202.5 -78.5q74 0 140 32v203h-167v77h256zM324 -213l9 155h95v-8l-34 -147h-70
z" />
    <glyph glyph-name="uni0123" unicode="&#x123;" horiz-adv-x="485" 
d="M231 237q49 0 81 31t32 83q0 53 -32 83.5t-81 30.5q-50 0 -81.5 -30.5t-31.5 -83.5q0 -52 31.5 -83t81.5 -31zM235 -222q-106 0 -167.5 34.5t-61.5 100.5q0 47 31 72h70l2 -3q-22 -30 -22 -62q0 -74 148 -74q79 0 120 29t41 74q0 32 -18 44t-64 14l-137 6q-123 6 -123 98
q0 63 63 95q-81 52 -81 145q0 80 55.5 129.5t138.5 49.5q44 0 83 -17l162 12v-70h-94q43 -43 43 -104q0 -79 -56 -127t-138 -48q-28 0 -55 6q-26 -8 -36.5 -20t-10.5 -33q0 -18 13 -25t46 -9l135 -6q79 -4 118 -35.5t39 -102.5q0 -78 -65.5 -125.5t-178.5 -47.5zM290 765
l-9 -155h-94l-2 3l35 152h70z" />
    <glyph glyph-name="Hcircumflex" unicode="&#x124;" horiz-adv-x="727" 
d="M556 0v317h-385v-317h-90v705h90v-308h385v308h90v-705h-90zM364 851l-81 -88h-85l122 156h86l122 -156h-85z" />
    <glyph glyph-name="hcircumflex" unicode="&#x125;" horiz-adv-x="543" 
d="M291 460q-74 0 -139 -44v-416h-86v734l86 23v-285q78 60 160 60q81 0 125 -43t44 -124v-365h-86v347q0 113 -104 113zM272 879l-81 -88h-85l122 156h86l122 -156h-85z" />
    <glyph glyph-name="Hbar" unicode="&#x126;" horiz-adv-x="727" 
d="M556 397v105h-385v-105h385zM556 0v317h-385v-317h-90v502h-86v70h86v133h90v-133h385v133h90v-133h82v-70h-82v-502h-90z" />
    <glyph glyph-name="hbar" unicode="&#x127;" horiz-adv-x="543" 
d="M291 460q-74 0 -139 -44v-416h-86v595h-69v63h69v76l86 23v-99h162v-63h-162v-123q78 60 160 60q81 0 125 -43t44 -124v-365h-86v347q0 113 -104 113z" />
    <glyph glyph-name="Itilde" unicode="&#x128;" horiz-adv-x="256" 
d="M184 839q32 -5 61 32l5 -3l20 -55q-37 -49 -91 -44q-29 3 -59 19t-43 17q-39 4 -65 -31l-4 4l-17 58q38 44 91 38q27 -2 58 -17.5t44 -17.5zM83 0v705h90v-705h-90z" />
    <glyph glyph-name="itilde" unicode="&#x129;" horiz-adv-x="226" 
d="M169 675q32 -5 61 32l5 -3l20 -55q-37 -49 -91 -44q-29 3 -59 19t-43 17q-39 4 -65 -31l-4 4l-17 58q38 44 91 38q27 -2 58 -17.5t44 -17.5zM70 0v520h86v-520h-86z" />
    <glyph glyph-name="Imacron" unicode="&#x12a;" horiz-adv-x="256" 
d="M9 769v73h238v-73h-238zM83 0v705h90v-705h-90z" />
    <glyph glyph-name="imacron" unicode="&#x12b;" horiz-adv-x="226" 
d="M7 651v73h212v-73h-212zM70 0v520h86v-520h-86z" />
    <glyph glyph-name="Ibreve" unicode="&#x12c;" horiz-adv-x="256" 
d="M83 0v705h90v-705h-90zM129 751q-61 0 -101.5 39.5t-44.5 103.5h70q12 -71 76 -71q63 0 75 71h70q-4 -64 -44 -103.5t-101 -39.5z" />
    <glyph glyph-name="ibreve" unicode="&#x12d;" horiz-adv-x="226" 
d="M70 0v520h86v-520h-86zM114 618q-61 0 -101.5 39.5t-44.5 103.5h70q12 -71 76 -71q63 0 75 71h70q-4 -64 -44 -103.5t-101 -39.5z" />
    <glyph glyph-name="Iogonek" unicode="&#x12e;" horiz-adv-x="256" 
d="M192 -140v-66q-30 -16 -66 -16q-62 0 -93.5 26t-31.5 72q0 78 82 126v703h90v-705q-41 -23 -64 -52.5t-23 -54.5q0 -22 11 -32.5t39 -10.5t53 12z" />
    <glyph glyph-name="iogonek" unicode="&#x12f;" horiz-adv-x="226" 
d="M67 639v91h92v-91h-92zM182 -140v-66q-30 -16 -66 -16q-62 0 -93.5 26t-31.5 72q0 81 79 128v516h86v-520q-37 -23 -58.5 -53t-21.5 -54q0 -22 11 -32.5t39 -10.5t53 12z" />
    <glyph glyph-name="Idot" unicode="&#x130;" horiz-adv-x="256" 
d="M83 0v705h90v-705h-90zM80 770v95h96v-95h-96z" />
    <glyph glyph-name="dotlessi" unicode="&#x131;" horiz-adv-x="226" 
d="M70 0v520h86v-520h-86z" />
    <glyph glyph-name="IJ" unicode="&#x132;" horiz-adv-x="508" 
d="M222 -174v79q64 15 88.5 47t24.5 108v645h90v-650q0 -115 -48 -163.5t-155 -65.5zM83 0v705h90v-705h-90z" />
    <glyph glyph-name="ij" unicode="&#x133;" horiz-adv-x="470" 
d="M315 639v91h92v-91h-92zM67 639v91h92v-91h-92zM70 0v520h86v-520h-86zM235 -222v77q43 4 63 29t20 86v550h86v-555q0 -93 -42.5 -137.5t-126.5 -49.5z" />
    <glyph glyph-name="Jcircumflex" unicode="&#x134;" horiz-adv-x="262" 
d="M-24 -174v79q64 15 88.5 47t24.5 108v645h90v-650q0 -115 -48 -163.5t-155 -65.5zM133 851l-81 -88h-85l122 156h86l122 -156h-85z" />
    <glyph glyph-name="jcircumflex" unicode="&#x135;" horiz-adv-x="218" 
d="M-17 -222v77q43 4 63 29t20 86v550h86v-555q0 -93 -42.5 -137.5t-126.5 -49.5zM109 701l-75 -91h-82l115 156h86l115 -156h-82z" />
    <glyph glyph-name="uni0136" unicode="&#x136;" horiz-adv-x="611" 
d="M492 0l-229 353l-92 -100v-253h-90v705h90v-345l308 345h96v-5l-249 -281l267 -414v-5h-101zM267 -213l9 155h95v-8l-34 -147h-70z" />
    <glyph glyph-name="uni0137" unicode="&#x137;" horiz-adv-x="499" 
d="M396 0l-173 258l-71 -79v-179h-86v734l86 23v-480l217 243h95v-5l-180 -197l204 -312v-6h-92zM202 -213l9 155h95v-8l-34 -147h-70z" />
    <glyph glyph-name="Lacute" unicode="&#x139;" horiz-adv-x="481" 
d="M81 0v705h90v-628h281v-77h-371zM166 763h-83l88 145h109z" />
    <glyph glyph-name="lacute" unicode="&#x13a;" horiz-adv-x="226" 
d="M70 0v734l86 23v-757h-86zM153 791h-83l88 145h109z" />
    <glyph glyph-name="uni013B" unicode="&#x13b;" horiz-adv-x="481" 
d="M81 0v705h90v-628h281v-77h-371zM206 -213l9 155h95v-8l-34 -147h-70z" />
    <glyph glyph-name="uni013C" unicode="&#x13c;" horiz-adv-x="226" 
d="M70 0v734l86 23v-757h-86zM57 -213l9 155h95v-8l-34 -147h-70z" />
    <glyph glyph-name="Lcaron" unicode="&#x13d;" horiz-adv-x="481" 
d="M81 0v705h90v-628h281v-77h-371zM233 543l7 162h86v-8l-32 -154h-61z" />
    <glyph glyph-name="lcaron" unicode="&#x13e;" horiz-adv-x="226" 
d="M70 0v734l86 23v-757h-86zM208 581l7 162h86v-8l-32 -154h-61z" />
    <glyph glyph-name="Ldot" unicode="&#x13f;" horiz-adv-x="481" 
d="M334 333v93h97v-93h-97zM81 0v705h90v-628h281v-77h-371z" />
    <glyph glyph-name="ldot" unicode="&#x140;" horiz-adv-x="313" 
d="M70 0v734l86 23v-757h-86zM221 326v93h97v-93h-97z" />
    <glyph glyph-name="Lslash" unicode="&#x141;" horiz-adv-x="481" 
d="M81 0v257l-72 -28v76l72 28v372h90v-337l182 70v-76l-182 -70v-215h281v-77h-371z" />
    <glyph glyph-name="lslash" unicode="&#x142;" horiz-adv-x="251" 
d="M166 0h-86v345l-70 -42v78l70 42v311l86 23v-283l80 47v-78l-80 -47v-396z" />
    <glyph glyph-name="Nacute" unicode="&#x143;" horiz-adv-x="734" 
d="M653 -17h-30l-455 539v-522h-87v719h31l454 -535v521h87v-722zM417 763h-83l88 145h109z" />
    <glyph glyph-name="nacute" unicode="&#x144;" horiz-adv-x="543" 
d="M291 460q-74 0 -139 -44v-416h-86v520h75l7 -51q77 63 164 63q81 0 125 -43t44 -124v-365h-86v347q0 113 -104 113zM305 610h-83l98 165h109z" />
    <glyph glyph-name="uni0145" unicode="&#x145;" horiz-adv-x="734" 
d="M653 -17h-30l-455 539v-522h-87v719h31l454 -535v521h87v-722zM314 -213l9 155h95v-8l-34 -147h-70z" />
    <glyph glyph-name="uni0146" unicode="&#x146;" horiz-adv-x="543" 
d="M291 460q-74 0 -139 -44v-416h-86v520h75l7 -51q77 63 164 63q81 0 125 -43t44 -124v-365h-86v347q0 113 -104 113zM218 -213l9 155h95v-8l-34 -147h-70z" />
    <glyph glyph-name="Ncaron" unicode="&#x147;" horiz-adv-x="734" 
d="M653 -17h-30l-455 539v-522h-87v719h31l454 -535v521h87v-722zM378 831l79 88h85l-122 -156h-86l-122 156h85z" />
    <glyph glyph-name="ncaron" unicode="&#x148;" horiz-adv-x="543" 
d="M291 460q-74 0 -139 -44v-416h-86v520h75l7 -51q77 63 164 63q81 0 125 -43t44 -124v-365h-86v347q0 113 -104 113zM275 675l75 91h82l-115 -156h-86l-115 156h82z" />
    <glyph glyph-name="napostrophe" unicode="&#x149;" horiz-adv-x="563" 
d="M311 460q-74 0 -139 -44v-416h-86v520h75l7 -51q77 63 164 63q81 0 125 -43t44 -124v-365h-86v347q0 113 -104 113zM77 705v-8l-57 -194h-63l31 202h89z" />
    <glyph glyph-name="Eng" unicode="&#x14a;" horiz-adv-x="734" 
d="M450 -174v79q64 15 88.5 45.5t24.5 103.5l-395 468v-522h-87v719h31l454 -535v521h87v-650q0 -115 -48 -163.5t-155 -65.5z" />
    <glyph glyph-name="eng" unicode="&#x14b;" horiz-adv-x="543" 
d="M312 -222v77q43 4 63 29t20 86v377q0 113 -104 113q-74 0 -139 -44v-416h-86v520h75l7 -51q77 63 164 63q81 0 125 -43t44 -124v-400q0 -93 -42.5 -137.5t-126.5 -49.5z" />
    <glyph glyph-name="Omacron" unicode="&#x14c;" horiz-adv-x="771" 
d="M386 -12q-151 0 -250.5 105t-99.5 262q0 156 99.5 259t250.5 103q152 0 250.5 -103t98.5 -259q0 -157 -99 -262t-250 -105zM386 66q114 0 184.5 79t70.5 210q0 130 -70 207t-185 77t-185.5 -77t-70.5 -207q0 -131 70.5 -210t185.5 -79zM236 769v73h298v-73h-298z" />
    <glyph glyph-name="omacron" unicode="&#x14d;" horiz-adv-x="592" 
d="M295 -12q-115 0 -190 75.5t-75 197.5q0 121 75 196t190 75t191 -75t76 -196t-76 -197t-191 -76zM295 62q79 0 130 54t51 145q0 89 -51 143t-130 54t-129 -54t-50 -143q0 -91 50 -145t129 -54zM150 651v73h292v-73h-292z" />
    <glyph glyph-name="Obreve" unicode="&#x14e;" horiz-adv-x="771" 
d="M386 -12q-151 0 -250.5 105t-99.5 262q0 156 99.5 259t250.5 103q152 0 250.5 -103t98.5 -259q0 -157 -99 -262t-250 -105zM386 66q114 0 184.5 79t70.5 210q0 130 -70 207t-185 77t-185.5 -77t-70.5 -207q0 -131 70.5 -210t185.5 -79zM386 751q-61 0 -101.5 39.5
t-44.5 103.5h70q12 -71 76 -71q63 0 75 71h70q-4 -64 -44 -103.5t-101 -39.5z" />
    <glyph glyph-name="obreve" unicode="&#x14f;" horiz-adv-x="592" 
d="M295 -12q-115 0 -190 75.5t-75 197.5q0 121 75 196t190 75t191 -75t76 -196t-76 -197t-191 -76zM295 62q79 0 130 54t51 145q0 89 -51 143t-130 54t-129 -54t-50 -143q0 -91 50 -145t129 -54zM297 618q-61 0 -101.5 39.5t-44.5 103.5h70q12 -71 76 -71q63 0 75 71h70
q-4 -64 -44 -103.5t-101 -39.5z" />
    <glyph glyph-name="Ohungarumlaut" unicode="&#x150;" horiz-adv-x="771" 
d="M386 -12q-151 0 -250.5 105t-99.5 262q0 156 99.5 259t250.5 103q152 0 250.5 -103t98.5 -259q0 -157 -99 -262t-250 -105zM386 66q114 0 184.5 79t70.5 210q0 130 -70 207t-185 77t-185.5 -77t-70.5 -207q0 -131 70.5 -210t185.5 -79zM338 763h-69l52 145h100
q-1 0 -42 -73q-36 -63 -41 -72zM504 763h-69l52 145h100q-2 0 -43 -73z" />
    <glyph glyph-name="ohungarumlaut" unicode="&#x151;" horiz-adv-x="592" 
d="M295 -12q-115 0 -190 75.5t-75 197.5q0 121 75 196t190 75t191 -75t76 -196t-76 -197t-191 -76zM295 62q79 0 130 54t51 145q0 89 -51 143t-130 54t-129 -54t-50 -143q0 -91 50 -145t129 -54zM257 610h-69l59 165h96zM409 610h-69l59 165h96z" />
    <glyph glyph-name="OE" unicode="&#x152;" horiz-adv-x="892" 
d="M394 78h69v549h-69q-121 0 -192.5 -72.5t-71.5 -199.5t72 -202t192 -75zM837 0h-443q-156 0 -257 101t-101 254q0 152 101 251t257 99h443v-78h-284v-223h247v-77h-247v-249h284v-78z" />
    <glyph glyph-name="oe" unicode="&#x153;" horiz-adv-x="968" 
d="M295 62q79 0 130 54t51 145q0 89 -51 143t-130 54t-129 -54t-50 -143q0 -91 50 -145t129 -54zM722 457q-129 0 -155 -133h283q-3 64 -36 98.5t-92 34.5zM924 113v-80q-72 -45 -176 -45q-169 0 -230 140q-31 -66 -89.5 -103t-133.5 -37q-115 0 -190 75.5t-75 197.5
q0 121 75 196t190 75q75 0 133.5 -36.5t89.5 -101.5q27 66 80.5 102t125.5 36q102 0 163.5 -68.5t50.5 -207.5h-377q2 -95 51.5 -144t138.5 -49t169 52z" />
    <glyph glyph-name="Racute" unicode="&#x154;" horiz-adv-x="599" 
d="M282 625h-111v-262h118q158 0 158 136q0 65 -40 95.5t-125 30.5zM492 0l-203 288h-118v-288h-90v705h204q119 0 186.5 -53.5t67.5 -155.5q0 -78 -42.5 -126.5t-117.5 -64.5l214 -298v-7h-101zM328 763h-83l88 145h109z" />
    <glyph glyph-name="racute" unicode="&#x155;" horiz-adv-x="347" 
d="M288 450q-51 0 -81.5 -15t-54.5 -53v-382h-86v520h75l8 -69q47 77 139 77q21 0 42 -4v-77l-5 -3q-22 6 -37 6zM233 610h-83l98 165h109z" />
    <glyph glyph-name="uni0156" unicode="&#x156;" horiz-adv-x="599" 
d="M282 625h-111v-262h118q158 0 158 136q0 65 -40 95.5t-125 30.5zM492 0l-203 288h-118v-288h-90v705h204q119 0 186.5 -53.5t67.5 -155.5q0 -78 -42.5 -126.5t-117.5 -64.5l214 -298v-7h-101zM258 -213l9 155h95v-8l-34 -147h-70z" />
    <glyph glyph-name="uni0157" unicode="&#x157;" horiz-adv-x="347" 
d="M288 450q-51 0 -81.5 -15t-54.5 -53v-382h-86v520h75l8 -69q47 77 139 77q21 0 42 -4v-77l-5 -3q-22 6 -37 6zM48 -213l9 155h95v-8l-34 -147h-70z" />
    <glyph glyph-name="Rcaron" unicode="&#x158;" horiz-adv-x="599" 
d="M282 625h-111v-262h118q158 0 158 136q0 65 -40 95.5t-125 30.5zM492 0l-203 288h-118v-288h-90v705h204q119 0 186.5 -53.5t67.5 -155.5q0 -78 -42.5 -126.5t-117.5 -64.5l214 -298v-7h-101zM289 831l79 88h85l-122 -156h-86l-122 156h85z" />
    <glyph glyph-name="rcaron" unicode="&#x159;" horiz-adv-x="347" 
d="M288 450q-51 0 -81.5 -15t-54.5 -53v-382h-86v520h75l8 -69q47 77 139 77q21 0 42 -4v-77l-5 -3q-22 6 -37 6zM203 675l75 91h82l-115 -156h-86l-115 156h82z" />
    <glyph glyph-name="Sacute" unicode="&#x15a;" horiz-adv-x="508" 
d="M239 -12q-118 0 -199 51v92l4 2q47 -34 90.5 -50t104.5 -16q68 0 104.5 31.5t36.5 86.5q0 49 -25 73.5t-100 53.5l-52 19q-79 29 -121.5 75.5t-42.5 119.5q0 87 59.5 139t148.5 52q108 0 178 -43v-85l-4 -2q-46 29 -82 41t-89 12q-62 0 -93 -29.5t-31 -79.5
q0 -43 23.5 -70t79.5 -48l52 -19q96 -34 142 -77.5t46 -126.5q0 -96 -63.5 -149t-166.5 -53zM291 763h-83l88 145h109z" />
    <glyph glyph-name="sacute" unicode="&#x15b;" horiz-adv-x="427" 
d="M205 -10q-104 0 -173 48v85l4 2q78 -62 169 -62q51 0 78.5 20.5t27.5 57.5q0 34 -19.5 51.5t-69.5 32.5l-55 16q-132 37 -132 145q0 68 50.5 108t129.5 40q83 0 147 -31v-76l-4 -2q-66 37 -146 37q-47 0 -69 -19.5t-22 -49.5q0 -54 70 -74l55 -16q81 -23 116.5 -56
t35.5 -99q0 -77 -56 -117.5t-137 -40.5zM243 610h-83l98 165h109z" />
    <glyph glyph-name="Scircumflex" unicode="&#x15c;" horiz-adv-x="508" 
d="M239 -12q-118 0 -199 51v92l4 2q47 -34 90.5 -50t104.5 -16q68 0 104.5 31.5t36.5 86.5q0 49 -25 73.5t-100 53.5l-52 19q-79 29 -121.5 75.5t-42.5 119.5q0 87 59.5 139t148.5 52q108 0 178 -43v-85l-4 -2q-46 29 -82 41t-89 12q-62 0 -93 -29.5t-31 -79.5
q0 -43 23.5 -70t79.5 -48l52 -19q96 -34 142 -77.5t46 -126.5q0 -96 -63.5 -149t-166.5 -53zM252 851l-81 -88h-85l122 156h86l122 -156h-85z" />
    <glyph glyph-name="scircumflex" unicode="&#x15d;" horiz-adv-x="427" 
d="M205 -10q-104 0 -173 48v85l4 2q78 -62 169 -62q51 0 78.5 20.5t27.5 57.5q0 34 -19.5 51.5t-69.5 32.5l-55 16q-132 37 -132 145q0 68 50.5 108t129.5 40q83 0 147 -31v-76l-4 -2q-66 37 -146 37q-47 0 -69 -19.5t-22 -49.5q0 -54 70 -74l55 -16q81 -23 116.5 -56
t35.5 -99q0 -77 -56 -117.5t-137 -40.5zM211 701l-75 -91h-82l115 156h86l115 -156h-82z" />
    <glyph glyph-name="uni015E" unicode="&#x15e;" horiz-adv-x="508" 
d="M230 -219q-46 0 -75 19v55l3 2q30 -17 60 -17q41 0 41 32q0 31 -67 39v79q-82 8 -152 49v92l4 2q47 -34 90.5 -50t104.5 -16q68 0 104.5 31.5t36.5 86.5q0 49 -25 73.5t-100 53.5l-52 19q-79 29 -121.5 75.5t-42.5 119.5q0 87 59.5 139t148.5 52q108 0 178 -43v-85l-4 -2
q-46 29 -82 41t-89 12q-62 0 -93 -29.5t-31 -79.5q0 -43 23.5 -70t79.5 -48l52 -19q96 -34 142 -77.5t46 -126.5q0 -93 -59.5 -145.5t-156.5 -56.5v-36q41 -10 61.5 -27t20.5 -55q0 -42 -28 -65.5t-77 -23.5z" />
    <glyph glyph-name="uni015F" unicode="&#x15f;" horiz-adv-x="427" 
d="M187 -219q-47 0 -75 19v55l3 2q30 -17 60 -17q41 0 41 32q0 31 -67 39v83q-66 9 -117 44v85l4 2q78 -62 169 -62q51 0 78.5 20.5t27.5 57.5q0 34 -19.5 51.5t-69.5 32.5l-55 16q-132 37 -132 145q0 68 50.5 108t129.5 40q83 0 147 -31v-76l-4 -2q-66 37 -146 37
q-47 0 -69 -19.5t-22 -49.5q0 -54 70 -74l55 -16q81 -23 116.5 -56t35.5 -99q0 -76 -55 -117t-133 -41v-38q41 -10 61.5 -27t20.5 -55q0 -42 -28 -65.5t-77 -23.5z" />
    <glyph glyph-name="Scaron" unicode="&#x160;" horiz-adv-x="508" 
d="M239 -12q-118 0 -199 51v92l4 2q47 -34 90.5 -50t104.5 -16q68 0 104.5 31.5t36.5 86.5q0 49 -25 73.5t-100 53.5l-52 19q-79 29 -121.5 75.5t-42.5 119.5q0 87 59.5 139t148.5 52q108 0 178 -43v-85l-4 -2q-46 29 -82 41t-89 12q-62 0 -93 -29.5t-31 -79.5
q0 -43 23.5 -70t79.5 -48l52 -19q96 -34 142 -77.5t46 -126.5q0 -96 -63.5 -149t-166.5 -53zM252 831l79 88h85l-122 -156h-86l-122 156h85z" />
    <glyph glyph-name="scaron" unicode="&#x161;" horiz-adv-x="427" 
d="M205 -10q-104 0 -173 48v85l4 2q78 -62 169 -62q51 0 78.5 20.5t27.5 57.5q0 34 -19.5 51.5t-69.5 32.5l-55 16q-132 37 -132 145q0 68 50.5 108t129.5 40q83 0 147 -31v-76l-4 -2q-66 37 -146 37q-47 0 -69 -19.5t-22 -49.5q0 -54 70 -74l55 -16q81 -23 116.5 -56
t35.5 -99q0 -77 -56 -117.5t-137 -40.5zM213 675l75 91h82l-115 -156h-86l-115 156h82z" />
    <glyph glyph-name="Tcommaaccent" unicode="&#x162;" horiz-adv-x="522" 
d="M511 627h-205v-627h-90v627h-205v78h500v-78zM205 -213l9 155h95v-8l-34 -147h-70z" />
    <glyph glyph-name="tcommaaccent" unicode="&#x163;" horiz-adv-x="345" 
d="M313 71v-67q-35 -13 -84 -13q-58 0 -96.5 29t-38.5 90v338h-68v72h68v98l86 14v-112h123v-72h-123v-329q0 -55 67 -55q31 0 62 9zM126 -213l9 155h95v-8l-34 -147h-70z" />
    <glyph glyph-name="Tcaron" unicode="&#x164;" horiz-adv-x="522" 
d="M511 627h-205v-627h-90v627h-205v78h500v-78zM262 831l79 88h85l-122 -156h-86l-122 156h85z" />
    <glyph glyph-name="tcaron" unicode="&#x165;" horiz-adv-x="345" 
d="M313 71v-67q-35 -13 -84 -13q-58 0 -96.5 29t-38.5 90v338h-68v72h68v98l86 14v-112h123v-72h-123v-329q0 -55 67 -55q31 0 62 9zM228 581l7 162h86v-8l-32 -154h-61z" />
    <glyph glyph-name="Tbar" unicode="&#x166;" horiz-adv-x="522" 
d="M461 359h-155v-359h-90v359h-155v70h155v198h-205v78h500v-78h-205v-198h155v-70z" />
    <glyph glyph-name="tbar" unicode="&#x167;" horiz-adv-x="345" 
d="M313 71v-67q-35 -13 -84 -13q-58 0 -96.5 29t-38.5 90v167h-68v63h68v108h-68v72h68v98l86 14v-112h123v-72h-123v-108h123v-63h-123v-158q0 -55 67 -55q31 0 62 9z" />
    <glyph glyph-name="Utilde" unicode="&#x168;" horiz-adv-x="685" 
d="M399 839q32 -5 61 32l5 -3l20 -55q-37 -49 -91 -44q-29 3 -59 19t-43 17q-39 4 -65 -31l-4 4l-17 58q38 44 91 38q27 -2 58 -17.5t44 -17.5zM340 -12q-120 0 -194.5 71t-74.5 199v447h90v-443q0 -95 48 -145.5t131 -50.5q84 0 134 51t50 145v443h90v-447
q0 -128 -76.5 -199t-197.5 -71z" />
    <glyph glyph-name="utilde" unicode="&#x169;" horiz-adv-x="551" 
d="M331 675q32 -5 61 32l5 -3l20 -55q-37 -49 -91 -44q-29 3 -59 19t-43 17q-39 4 -65 -31l-4 4l-17 58q38 44 91 38q27 -2 58 -17.5t44 -17.5zM410 0l-7 51q-79 -63 -169 -63q-82 0 -128 43.5t-46 123.5v365h86v-347q0 -113 109 -113q80 0 144 45v415h86v-520h-75z" />
    <glyph glyph-name="Umacron" unicode="&#x16a;" horiz-adv-x="685" 
d="M340 -12q-120 0 -194.5 71t-74.5 199v447h90v-443q0 -95 48 -145.5t131 -50.5q84 0 134 51t50 145v443h90v-447q0 -128 -76.5 -199t-197.5 -71zM193 769v73h298v-73h-298z" />
    <glyph glyph-name="umacron" unicode="&#x16b;" horiz-adv-x="551" 
d="M410 0l-7 51q-79 -63 -169 -63q-82 0 -128 43.5t-46 123.5v365h86v-347q0 -113 109 -113q80 0 144 45v415h86v-520h-75zM129 651v73h292v-73h-292z" />
    <glyph glyph-name="Ubreve" unicode="&#x16c;" horiz-adv-x="685" 
d="M340 -12q-120 0 -194.5 71t-74.5 199v447h90v-443q0 -95 48 -145.5t131 -50.5q84 0 134 51t50 145v443h90v-447q0 -128 -76.5 -199t-197.5 -71zM343 751q-61 0 -101.5 39.5t-44.5 103.5h70q12 -71 76 -71q63 0 75 71h70q-4 -64 -44 -103.5t-101 -39.5z" />
    <glyph glyph-name="ubreve" unicode="&#x16d;" horiz-adv-x="551" 
d="M410 0l-7 51q-79 -63 -169 -63q-82 0 -128 43.5t-46 123.5v365h86v-347q0 -113 109 -113q80 0 144 45v415h86v-520h-75zM276 618q-61 0 -101.5 39.5t-44.5 103.5h70q12 -71 76 -71q63 0 75 71h70q-4 -64 -44 -103.5t-101 -39.5z" />
    <glyph glyph-name="Uring" unicode="&#x16e;" horiz-adv-x="685" 
d="M340 -12q-120 0 -194.5 71t-74.5 199v447h90v-443q0 -95 48 -145.5t131 -50.5q84 0 134 51t50 145v443h90v-447q0 -128 -76.5 -199t-197.5 -71zM342 711q-51 0 -82 30.5t-31 78.5t31 78.5t82 30.5t82 -30.5t31 -78.5t-31 -78.5t-82 -30.5zM342 875q-23 0 -37 -15.5
t-14 -39.5t14 -39.5t37 -15.5q24 0 38 15.5t14 39.5t-14 39.5t-38 15.5z" />
    <glyph glyph-name="uring" unicode="&#x16f;" horiz-adv-x="551" 
d="M410 0l-7 51q-79 -63 -169 -63q-82 0 -128 43.5t-46 123.5v365h86v-347q0 -113 109 -113q80 0 144 45v415h86v-520h-75zM275 591q-51 0 -82 30.5t-31 78.5t31 78.5t82 30.5t82 -30.5t31 -78.5t-31 -78.5t-82 -30.5zM275 755q-23 0 -37 -15.5t-14 -39.5t14 -39.5t37 -15.5
q24 0 38 15.5t14 39.5t-14 39.5t-38 15.5z" />
    <glyph glyph-name="Uhungarumlaut" unicode="&#x170;" horiz-adv-x="685" 
d="M340 -12q-120 0 -194.5 71t-74.5 199v447h90v-443q0 -95 48 -145.5t131 -50.5q84 0 134 51t50 145v443h90v-447q0 -128 -76.5 -199t-197.5 -71zM295 763h-69l52 145h100q-1 0 -42 -73q-36 -63 -41 -72zM461 763h-69l52 145h100q-2 0 -43 -73z" />
    <glyph glyph-name="uhungarumlaut" unicode="&#x171;" horiz-adv-x="551" 
d="M410 0l-7 51q-79 -63 -169 -63q-82 0 -128 43.5t-46 123.5v365h86v-347q0 -113 109 -113q80 0 144 45v415h86v-520h-75zM236 610h-69l59 165h96zM388 610h-69l59 165h96z" />
    <glyph glyph-name="Uogonek" unicode="&#x172;" horiz-adv-x="685" 
d="M413 -222q-62 0 -93.5 26t-31.5 72q0 72 68 112h-16q-120 0 -194.5 71t-74.5 199v447h90v-443q0 -95 48 -145.5t131 -50.5q84 0 134 51t50 145v443h90v-447q0 -149 -103 -220q-7 -5 -24 -16.5t-24 -16t-21 -14.5t-20 -15.5t-16 -14.5t-14.5 -16t-9.5 -16t-7 -17.5
t-2 -18.5q0 -22 11 -32.5t39 -10.5q27 0 53 12l3 -2v-66q-30 -16 -66 -16z" />
    <glyph glyph-name="uogonek" unicode="&#x173;" horiz-adv-x="551" 
d="M506 -140v-66q-30 -16 -66 -16q-62 0 -93.5 26t-31.5 72q0 79 94 131l-6 44q-79 -63 -169 -63q-82 0 -128 43.5t-46 123.5v365h86v-347q0 -113 109 -113q80 0 144 45v415h86v-520q-41 -23 -63 -52.5t-22 -54.5q0 -22 11 -32.5t39 -10.5q27 0 53 12z" />
    <glyph glyph-name="Wcircumflex" unicode="&#x174;" horiz-adv-x="935" 
d="M650 -13l-188 475l-179 -475h-16l-253 713v5h93l175 -504l137 368l-53 131v5h93l196 -505l175 505h91v-5l-255 -713h-16zM431 851l-81 -88h-85l122 156h86l122 -156h-85z" />
    <glyph glyph-name="wcircumflex" unicode="&#x175;" horiz-adv-x="708" 
d="M504 -12l-150 370l-146 -370h-21l-175 527v5h89l106 -343l136 349h26l136 -350l105 344h86v-5l-172 -527h-20zM353 701l-75 -91h-82l115 156h86l115 -156h-82z" />
    <glyph glyph-name="Ycircumflex" unicode="&#x176;" horiz-adv-x="569" 
d="M332 0h-90v291l-233 409v5h95l183 -330l184 330h89v-5l-228 -403v-297zM288 851l-81 -88h-85l122 156h86l122 -156h-85z" />
    <glyph glyph-name="ycircumflex" unicode="&#x177;" horiz-adv-x="494" 
d="M54 -222v79q53 8 80.5 30.5t46.5 68.5l27 68l-201 491v5h91l155 -394l148 394h86v-5l-225 -578q-31 -79 -79.5 -116t-128.5 -43zM252 701l-75 -91h-82l115 156h86l115 -156h-82z" />
    <glyph glyph-name="Ydieresis" unicode="&#x178;" horiz-adv-x="569" 
d="M332 0h-90v291l-233 409v5h95l183 -330l184 330h89v-5l-228 -403v-297zM345 770v91h92v-91h-92zM137 770v91h92v-91h-92z" />
    <glyph glyph-name="Zacute" unicode="&#x179;" horiz-adv-x="581" 
d="M539 0h-529v23l404 604h-350v78h486v-26l-400 -601h389v-78zM331 763h-83l88 145h109z" />
    <glyph glyph-name="zacute" unicode="&#x17a;" horiz-adv-x="459" 
d="M425 0h-403v23l284 425h-249v72h378v-22l-287 -426h277v-72zM270 610h-83l98 165h109z" />
    <glyph glyph-name="Zdotaccent" unicode="&#x17b;" horiz-adv-x="581" 
d="M539 0h-529v23l404 604h-350v78h486v-26l-400 -601h389v-78zM243 770v95h96v-95h-96z" />
    <glyph glyph-name="zdotaccent" unicode="&#x17c;" horiz-adv-x="459" 
d="M425 0h-403v23l284 425h-249v72h378v-22l-287 -426h277v-72zM191 637v95h96v-95h-96z" />
    <glyph glyph-name="Zcaron" unicode="&#x17d;" horiz-adv-x="581" 
d="M539 0h-529v23l404 604h-350v78h486v-26l-400 -601h389v-78zM292 831l79 88h85l-122 -156h-86l-122 156h85z" />
    <glyph glyph-name="zcaron" unicode="&#x17e;" horiz-adv-x="459" 
d="M425 0h-403v23l284 425h-249v72h378v-22l-287 -426h277v-72zM240 675l75 91h82l-115 -156h-86l-115 156h82z" />
    <glyph glyph-name="uni0192" unicode="&#x192;" horiz-adv-x="384" 
d="M341 314h-147l-65 -524h-86l65 524h-81v76h90l16 125q7 54 27 92t49 56.5t57 26t60 7.5q34 0 61 -9v-68l-3 -3q-30 8 -58 8q-38 0 -69 -25t-38 -85l-16 -125h138v-76z" />
    <glyph glyph-name="Ohorn" unicode="&#x1a0;" horiz-adv-x="771" 
d="M386 -12q-151 0 -250.5 105t-99.5 262q0 156 99.5 259t250.5 103q51 0 99 -14q55 0 65 1q49 4 49 71h78q0 -100 -83 -125q24 -18 42 -37q99 -101 99 -258t-99 -262t-250 -105zM386 66q114 0 184.5 79t70.5 210q0 130 -70 207t-185 77t-185.5 -77t-70.5 -207
q0 -131 70.5 -210t185.5 -79z" />
    <glyph glyph-name="ohorn" unicode="&#x1a1;" horiz-adv-x="592" 
d="M295 -12q-115 0 -190 75.5t-75 197.5q0 121 75 196t190 75q45 0 89 -14q35 0 41 1q49 5 49 71h78q0 -96 -77 -123q2 -1 5.5 -4t4.5 -5q77 -75 77 -197q0 -121 -76 -197t-191 -76zM295 62q79 0 130 54t51 145q0 89 -51 143t-130 54t-129 -54t-50 -143q0 -91 50 -145
t129 -54z" />
    <glyph glyph-name="Uhorn" unicode="&#x1af;" horiz-adv-x="685" 
d="M340 -12q-120 0 -194.5 71t-74.5 199v447h90v-443q0 -95 48 -145.5t131 -50.5q84 0 134 51t50 145v443h64q41 10 41 70h78q0 -106 -93 -128v-389q0 -128 -76.5 -199t-197.5 -71z" />
    <glyph glyph-name="uhorn" unicode="&#x1b0;" horiz-adv-x="551" 
d="M410 0l-7 51q-79 -63 -169 -63q-82 0 -128 43.5t-46 123.5v365h86v-347q0 -113 109 -113q80 0 144 45v415h61q41 10 41 70h78q0 -106 -94 -128v-462h-75z" />
    <glyph glyph-name="Aringacute" unicode="&#x1fa;" 
d="M424 264l-110 266l-110 -266h220zM534 0l-77 186h-285l-77 -186h-90v5l303 711h16l303 -711v-5h-93zM316 726q-51 0 -82 30.5t-31 78.5t31 78.5t82 30.5t82 -30.5t31 -78.5t-31 -78.5t-82 -30.5zM316 890q-23 0 -37 -15.5t-14 -39.5t14 -39.5t37 -15.5q24 0 38 15.5
t14 39.5t-14 39.5t-38 15.5zM356 963h-83l88 145h109z" />
    <glyph glyph-name="aringacute" unicode="&#x1fb;" horiz-adv-x="504" 
d="M215 61q94 0 141 66v122l-95 -15q-80 -12 -112.5 -32.5t-32.5 -62.5q0 -36 25 -57t74 -21zM368 0l-7 60q-53 -72 -152 -72q-80 0 -130 39.5t-50 111.5q0 74 54.5 109t158.5 51l114 18v5q0 74 -32 104t-101 30q-80 0 -151 -39l-4 2v72q60 41 162 41q103 0 157.5 -48
t54.5 -154v-330h-74zM248 591q-51 0 -82 30.5t-31 78.5t31 78.5t82 30.5t82 -30.5t31 -78.5t-31 -78.5t-82 -30.5zM248 755q-23 0 -37 -15.5t-14 -39.5t14 -39.5t37 -15.5q24 0 38 15.5t14 39.5t-14 39.5t-38 15.5zM289 833h-83l88 145h109z" />
    <glyph glyph-name="AEacute" unicode="&#x1fc;" horiz-adv-x="874" 
d="M445 264v363h-6l-202 -363h208zM445 0v186h-251l-103 -186h-89v5l392 700h425v-78h-284v-223h247v-77h-247v-249h284v-78h-374zM609 763h-83l88 145h109z" />
    <glyph glyph-name="aeacute" unicode="&#x1fd;" horiz-adv-x="848" 
d="M602 457q-129 0 -155 -133h283q-3 64 -36 98.5t-92 34.5zM804 113v-80q-72 -45 -176 -45q-140 0 -213 90q-77 -90 -204 -90q-80 0 -130 40t-50 112q0 74 54.5 108.5t158.5 50.5l114 18v5q0 74 -32 104t-101 30q-80 0 -151 -39l-4 2v72q60 41 162 41q145 0 187 -90
q63 90 185 90q102 0 163.5 -68.5t50.5 -207.5h-377q2 -95 51.5 -144t138.5 -49t169 52zM217 61q116 0 157 92q-11 28 -17 94l-94 -15q-81 -12 -113 -31t-32 -61q0 -36 25 -57.5t74 -21.5zM465 610h-83l98 165h109z" />
    <glyph glyph-name="Oslashacute" unicode="&#x1fe;" horiz-adv-x="771" 
d="M130 355q0 -113 52 -189l357 427q-62 46 -153 46q-115 0 -185.5 -77t-70.5 -207zM386 66q114 0 184.5 79t70.5 210q0 116 -53 189l-358 -428q64 -50 156 -50zM386 -12q-118 0 -207 67l-84 -100l-52 45l85 102q-92 101 -92 253q0 156 99.5 259t250.5 103q116 0 204 -63
l76 90l52 -45l-76 -91q93 -101 93 -253q0 -157 -99 -262t-250 -105zM425 763h-83l88 145h109z" />
    <glyph glyph-name="oslashacute" unicode="&#x1ff;" horiz-adv-x="592" 
d="M115 261q0 -76 32 -126l249 297q-44 26 -101 26q-79 0 -129.5 -54t-50.5 -143zM295 62q80 0 131.5 54t51.5 145q0 80 -37 130l-250 -300q44 -29 104 -29zM295 -12q-86 0 -153 45l-62 -74l-48 39l64 76q-66 72 -66 187q0 121 75 196t190 75q85 0 149 -42l61 73l48 -39
l-61 -73q70 -75 70 -190q0 -121 -76 -197t-191 -76zM327 610h-83l98 165h109z" />
    <glyph glyph-name="uni0218" unicode="&#x218;" horiz-adv-x="508" 
d="M239 -12q-118 0 -199 51v92l4 2q47 -34 90.5 -50t104.5 -16q68 0 104.5 31.5t36.5 86.5q0 49 -25 73.5t-100 53.5l-52 19q-79 29 -121.5 75.5t-42.5 119.5q0 87 59.5 139t148.5 52q108 0 178 -43v-85l-4 -2q-46 29 -82 41t-89 12q-62 0 -93 -29.5t-31 -79.5
q0 -43 23.5 -70t79.5 -48l52 -19q96 -34 142 -77.5t46 -126.5q0 -96 -63.5 -149t-166.5 -53zM195 -213l9 155h95v-8l-34 -147h-70z" />
    <glyph glyph-name="uni0219" unicode="&#x219;" horiz-adv-x="427" 
d="M205 -10q-104 0 -173 48v85l4 2q78 -62 169 -62q51 0 78.5 20.5t27.5 57.5q0 34 -19.5 51.5t-69.5 32.5l-55 16q-132 37 -132 145q0 68 50.5 108t129.5 40q83 0 147 -31v-76l-4 -2q-66 37 -146 37q-47 0 -69 -19.5t-22 -49.5q0 -54 70 -74l55 -16q81 -23 116.5 -56
t35.5 -99q0 -77 -56 -117.5t-137 -40.5zM151 -213l9 155h95v-8l-34 -147h-70z" />
    <glyph glyph-name="uni021A" unicode="&#x21a;" horiz-adv-x="522" 
d="M511 627h-205v-627h-90v627h-205v78h500v-78zM205 -213l9 155h95v-8l-34 -147h-70z" />
    <glyph glyph-name="uni021B" unicode="&#x21b;" horiz-adv-x="345" 
d="M313 71v-67q-35 -13 -84 -13q-58 0 -96.5 29t-38.5 90v338h-68v72h68v98l86 14v-112h123v-72h-123v-329q0 -55 67 -55q31 0 62 9zM126 -213l9 155h95v-8l-34 -147h-70z" />
    <glyph glyph-name="uni0237" unicode="&#x237;" horiz-adv-x="218" 
d="M-17 -222v77q43 4 63 29t20 86v550h86v-555q0 -93 -42.5 -137.5t-126.5 -49.5z" />
    <glyph glyph-name="circumflex" unicode="&#x2c6;" horiz-adv-x="400" 
d="M199 701l-75 -91h-82l115 156h86l115 -156h-82z" />
    <glyph glyph-name="caron" unicode="&#x2c7;" horiz-adv-x="400" 
d="M201 675l75 91h82l-115 -156h-86l-115 156h82z" />
    <glyph glyph-name="breve" unicode="&#x2d8;" horiz-adv-x="400" 
d="M200 618q-61 0 -101.5 39.5t-44.5 103.5h70q12 -71 76 -71q63 0 75 71h70q-4 -64 -44 -103.5t-101 -39.5z" />
    <glyph glyph-name="dotaccent" unicode="&#x2d9;" horiz-adv-x="400" 
d="M152 637v95h96v-95h-96z" />
    <glyph glyph-name="ring" unicode="&#x2da;" horiz-adv-x="400" 
d="M200 591q-51 0 -82 30.5t-31 78.5t31 78.5t82 30.5t82 -30.5t31 -78.5t-31 -78.5t-82 -30.5zM200 755q-23 0 -37 -15.5t-14 -39.5t14 -39.5t37 -15.5q24 0 38 15.5t14 39.5t-14 39.5t-38 15.5z" />
    <glyph glyph-name="ogonek" unicode="&#x2db;" horiz-adv-x="400" 
d="M297 -140v-66q-30 -16 -66 -16q-62 0 -93.5 26t-31.5 72q0 38 19 67t68 57h83q-41 -23 -63 -52.5t-22 -54.5q0 -22 11 -32.5t39 -10.5q27 0 53 12z" />
    <glyph glyph-name="tilde" unicode="&#x2dc;" horiz-adv-x="400" 
d="M247 716q36 0 64 40l5 -2l27 -56q-13 -23 -38 -40t-56 -17q-34 0 -67.5 13.5t-48.5 13.5q-39 0 -68 -39l-4 2l-25 60q37 52 95 52q30 0 63.5 -13.5t52.5 -13.5z" />
    <glyph glyph-name="hungarumlaut" unicode="&#x2dd;" horiz-adv-x="400" 
d="M145 610h-69l59 165h96zM297 610h-69l59 165h96z" />
    <glyph glyph-name="Wgrave" unicode="&#x1e80;" horiz-adv-x="935" 
d="M650 -13l-188 475l-179 -475h-16l-253 713v5h93l175 -504l137 368l-53 131v5h93l196 -505l175 505h91v-5l-255 -713h-16zM394 763l-114 145h109l88 -145h-83z" />
    <glyph glyph-name="wgrave" unicode="&#x1e81;" horiz-adv-x="708" 
d="M504 -12l-150 370l-146 -370h-21l-175 527v5h89l106 -343l136 349h26l136 -350l105 344h86v-5l-172 -527h-20zM328 610l-124 165h109l98 -165h-83z" />
    <glyph glyph-name="Wacute" unicode="&#x1e82;" horiz-adv-x="935" 
d="M650 -13l-188 475l-179 -475h-16l-253 713v5h93l175 -504l137 368l-53 131v5h93l196 -505l175 505h91v-5l-255 -713h-16zM470 763h-83l88 145h109z" />
    <glyph glyph-name="wacute" unicode="&#x1e83;" horiz-adv-x="708" 
d="M504 -12l-150 370l-146 -370h-21l-175 527v5h89l106 -343l136 349h26l136 -350l105 344h86v-5l-172 -527h-20zM385 610h-83l98 165h109z" />
    <glyph glyph-name="Wdieresis" unicode="&#x1e84;" horiz-adv-x="935" 
d="M650 -13l-188 475l-179 -475h-16l-253 713v5h93l175 -504l137 368l-53 131v5h93l196 -505l175 505h91v-5l-255 -713h-16zM488 770v91h92v-91h-92zM280 770v91h92v-91h-92z" />
    <glyph glyph-name="wdieresis" unicode="&#x1e85;" horiz-adv-x="708" 
d="M504 -12l-150 370l-146 -370h-21l-175 527v5h89l106 -343l136 349h26l136 -350l105 344h86v-5l-172 -527h-20zM218 639v91h92v-91h-92zM398 639v91h92v-91h-92z" />
    <glyph glyph-name="uni1EA0" unicode="&#x1ea0;" 
d="M268 -199v91h86v-91h-86zM424 264l-110 266l-110 -266h220zM534 0l-77 186h-285l-77 -186h-90v5l303 711h16l303 -711v-5h-93z" />
    <glyph glyph-name="uni1EA1" unicode="&#x1ea1;" horiz-adv-x="504" 
d="M191 -199v91h86v-91h-86zM215 61q94 0 141 66v122l-95 -15q-80 -12 -112.5 -32.5t-32.5 -62.5q0 -36 25 -57t74 -21zM368 0l-7 60q-53 -72 -152 -72q-80 0 -130 39.5t-50 111.5q0 74 54.5 109t158.5 51l114 18v5q0 74 -32 104t-101 30q-80 0 -151 -39l-4 2v72
q60 41 162 41q103 0 157.5 -48t54.5 -154v-330h-74z" />
    <glyph glyph-name="uni1EA2" unicode="&#x1ea2;" 
d="M249 854v51q26 16 73 17q84 -2 88 -65q2 -43 -32 -63q-34 -19 -34 -38h-55q0 37 28 56q29 20 29 34q1 11 -8.5 16.5t-29.5 5.5q-33 -2 -59 -14zM424 264l-110 266l-110 -266h220zM534 0l-77 186h-285l-77 -186h-90v5l303 711h16l303 -711v-5h-93z" />
    <glyph glyph-name="uni1EA3" unicode="&#x1ea3;" horiz-adv-x="504" 
d="M186 700v51q26 16 73 17q84 -2 88 -65q2 -43 -32 -63q-34 -19 -34 -38h-55q0 37 28 56q29 20 29 34q1 11 -8.5 16.5t-29.5 5.5q-33 -2 -59 -14zM215 61q94 0 141 66v122l-95 -15q-80 -12 -112.5 -32.5t-32.5 -62.5q0 -36 25 -57t74 -21zM368 0l-7 60q-53 -72 -152 -72
q-80 0 -130 39.5t-50 111.5q0 74 54.5 109t158.5 51l114 18v5q0 74 -32 104t-101 30q-80 0 -151 -39l-4 2v72q60 41 162 41q103 0 157.5 -48t54.5 -154v-330h-74z" />
    <glyph glyph-name="uni1EA4" unicode="&#x1ea4;" 
d="M317 825l-60 -69h-76l101 130h72l101 -130h-76zM424 264l-110 266l-110 -266h220zM534 0l-77 186h-285l-77 -186h-90v5l303 711h16l303 -711v-5h-93zM554 975l-76 -110h-66l54 110h88z" />
    <glyph glyph-name="uni1EA5" unicode="&#x1ea5;" horiz-adv-x="504" 
d="M486 811l-76 -110h-66l54 110h88zM249 661l-60 -69h-76l101 130h72l101 -130h-76zM215 61q94 0 141 66v122l-95 -15q-80 -12 -112.5 -32.5t-32.5 -62.5q0 -36 25 -57t74 -21zM368 0l-7 60q-53 -72 -152 -72q-80 0 -130 39.5t-50 111.5q0 74 54.5 109t158.5 51l114 18v5
q0 74 -32 104t-101 30q-80 0 -151 -39l-4 2v72q60 41 162 41q103 0 157.5 -48t54.5 -154v-330h-74z" />
    <glyph glyph-name="uni1EA6" unicode="&#x1ea6;" 
d="M257 756l60 69l62 -69h76l-101 130h-72l-101 -130h76zM314 530l110 -266h-220zM457 186l77 -186h93v5l-303 711h-16l-303 -711v-5h90l77 186h285zM423 865l-76 110h88l54 -110h-66z" />
    <glyph glyph-name="uni1EA7" unicode="&#x1ea7;" horiz-adv-x="504" 
d="M355 701l-76 110h88l54 -110h-66zM189 592l60 69l62 -69h76l-101 130h-72l-101 -130h76zM215 61q-49 0 -74 21t-25 57q0 42 32.5 62.5t112.5 32.5l95 15v-122q-47 -66 -141 -66zM361 60l7 -60h74v330q0 106 -54.5 154t-157.5 48q-102 0 -162 -41v-72l4 -2q71 39 151 39
q69 0 101 -30t32 -104v-5l-114 -18q-104 -16 -158.5 -51t-54.5 -109q0 -72 50 -111.5t130 -39.5q99 0 152 72z" />
    <glyph glyph-name="uni1EA8" unicode="&#x1ea8;" 
d="M317 825l-60 -69h-76l101 130h72l101 -130h-76zM424 264l-110 266l-110 -266h220zM534 0l-77 186h-285l-77 -186h-90v5l303 711h16l303 -711v-5h-93zM380 951v46q24 14 65 15q77 -2 83 -58q3 -37 -29 -55t-32 -34h-52q0 32 23 49q24 18 24 30q2 20 -33 20q-25 -2 -49 -13
z" />
    <glyph glyph-name="uni1EA9" unicode="&#x1ea9;" horiz-adv-x="504" 
d="M312 787v46q24 14 65 15q77 -2 83 -58q3 -37 -29 -55t-32 -34h-52q0 32 23 49q24 18 24 30q2 20 -33 20q-25 -2 -49 -13zM249 661l-60 -69h-76l101 130h72l101 -130h-76zM215 61q94 0 141 66v122l-95 -15q-80 -12 -112.5 -32.5t-32.5 -62.5q0 -36 25 -57t74 -21zM368 0
l-7 60q-53 -72 -152 -72q-80 0 -130 39.5t-50 111.5q0 74 54.5 109t158.5 51l114 18v5q0 74 -32 104t-101 30q-80 0 -151 -39l-4 2v72q60 41 162 41q103 0 157.5 -48t54.5 -154v-330h-74z" />
    <glyph glyph-name="uni1EAA" unicode="&#x1eaa;" 
d="M317 825l-60 -69h-76l101 130h72l101 -130h-76zM424 264l-110 266l-110 -266h220zM534 0l-77 186h-285l-77 -186h-90v5l303 711h16l303 -711v-5h-93zM373 986q31 -4 58 32l5 -3l19 -55q-14 -20 -37 -33.5t-49 -10.5q-29 3 -57.5 19t-38.5 17q-21 2 -34.5 -4.5
t-27.5 -26.5l-4 4l-16 58q36 44 86 38q26 -2 55.5 -17.5t40.5 -17.5z" />
    <glyph glyph-name="uni1EAB" unicode="&#x1eab;" horiz-adv-x="504" 
d="M305 822q31 -4 58 32l5 -3l19 -55q-14 -20 -37 -33.5t-49 -10.5q-29 3 -57.5 19t-38.5 17q-21 2 -34.5 -4.5t-27.5 -26.5l-4 4l-16 58q36 44 86 38q26 -2 55.5 -17.5t40.5 -17.5zM249 661l-60 -69h-76l101 130h72l101 -130h-76zM215 61q94 0 141 66v122l-95 -15
q-80 -12 -112.5 -32.5t-32.5 -62.5q0 -36 25 -57t74 -21zM368 0l-7 60q-53 -72 -152 -72q-80 0 -130 39.5t-50 111.5q0 74 54.5 109t158.5 51l114 18v5q0 74 -32 104t-101 30q-80 0 -151 -39l-4 2v72q60 41 162 41q103 0 157.5 -48t54.5 -154v-330h-74z" />
    <glyph glyph-name="uni1EAC" unicode="&#x1eac;" 
d="M268 -199v91h86v-91h-86zM317 825l-60 -69h-76l101 130h72l101 -130h-76zM424 264l-110 266l-110 -266h220zM534 0l-77 186h-285l-77 -186h-90v5l303 711h16l303 -711v-5h-93z" />
    <glyph glyph-name="uni1EAD" unicode="&#x1ead;" horiz-adv-x="504" 
d="M191 -199v91h86v-91h-86zM249 661l-60 -69h-76l101 130h72l101 -130h-76zM215 61q94 0 141 66v122l-95 -15q-80 -12 -112.5 -32.5t-32.5 -62.5q0 -36 25 -57t74 -21zM368 0l-7 60q-53 -72 -152 -72q-80 0 -130 39.5t-50 111.5q0 74 54.5 109t158.5 51l114 18v5
q0 74 -32 104t-101 30q-80 0 -151 -39l-4 2v72q60 41 162 41q103 0 157.5 -48t54.5 -154v-330h-74z" />
    <glyph glyph-name="uni1EAE" unicode="&#x1eae;" 
d="M316 756q-60 0 -94.5 32t-38.5 91h65q8 -60 67 -60q61 0 68 60h65q-4 -59 -38 -91t-94 -32zM424 264l-110 266l-110 -266h220zM534 0l-77 186h-285l-77 -186h-90v5l303 711h16l303 -711v-5h-93zM419 1016l-76 -110h-66l54 110h88z" />
    <glyph glyph-name="uni1EAF" unicode="&#x1eaf;" horiz-adv-x="504" 
d="M365 855l-76 -110h-66l54 110h88zM215 61q94 0 141 66v122l-95 -15q-80 -12 -112.5 -32.5t-32.5 -62.5q0 -36 25 -57t74 -21zM368 0l-7 60q-53 -72 -152 -72q-80 0 -130 39.5t-50 111.5q0 74 54.5 109t158.5 51l114 18v5q0 74 -32 104t-101 30q-80 0 -151 -39l-4 2v72
q60 41 162 41q103 0 157.5 -48t54.5 -154v-330h-74zM261 595q-60 0 -94.5 32t-38.5 91h65q7 -60 67 -60t68 60h65q-4 -59 -38 -91t-94 -32z" />
    <glyph glyph-name="uni1EB0" unicode="&#x1eb0;" 
d="M316 756q60 0 94 32t38 91h-65q-7 -60 -68 -60q-59 0 -67 60h-65q4 -59 38.5 -91t94.5 -32zM314 530l110 -266h-220zM457 186l77 -186h93v5l-303 711h-16l-303 -711v-5h90l77 186h285zM291 906l-76 110h88l54 -110h-66z" />
    <glyph glyph-name="uni1EB1" unicode="&#x1eb1;" horiz-adv-x="504" 
d="M234 745l-76 110h88l54 -110h-66zM215 61q-49 0 -74 21t-25 57q0 42 32.5 62.5t112.5 32.5l95 15v-122q-47 -66 -141 -66zM361 60l7 -60h74v330q0 106 -54.5 154t-157.5 48q-102 0 -162 -41v-72l4 -2q71 39 151 39q69 0 101 -30t32 -104v-5l-114 -18q-104 -16 -158.5 -51
t-54.5 -109q0 -72 50 -111.5t130 -39.5q99 0 152 72zM261 595q60 0 94 32t38 91h-65q-8 -60 -68 -60t-67 60h-65q4 -59 38.5 -91t94.5 -32z" />
    <glyph glyph-name="uni1EB2" unicode="&#x1eb2;" 
d="M316 756q-60 0 -94.5 32t-38.5 91h65q8 -60 67 -60q61 0 68 60h65q-4 -59 -38 -91t-94 -32zM424 264l-110 266l-110 -266h220zM534 0l-77 186h-285l-77 -186h-90v5l303 711h16l303 -711v-5h-93zM256 992v46q24 14 65 15q77 -2 83 -58q3 -37 -29 -55t-32 -34h-52
q0 32 23 49q24 18 24 30q2 20 -33 20q-25 -2 -49 -13z" />
    <glyph glyph-name="uni1EB3" unicode="&#x1eb3;" horiz-adv-x="504" 
d="M201 831v46q24 14 65 15q77 -2 83 -58q3 -37 -29 -55t-32 -34h-52q0 32 23 49q24 18 24 30q2 20 -33 20q-25 -2 -49 -13zM215 61q94 0 141 66v122l-95 -15q-80 -12 -112.5 -32.5t-32.5 -62.5q0 -36 25 -57t74 -21zM368 0l-7 60q-53 -72 -152 -72q-80 0 -130 39.5
t-50 111.5q0 74 54.5 109t158.5 51l114 18v5q0 74 -32 104t-101 30q-80 0 -151 -39l-4 2v72q60 41 162 41q103 0 157.5 -48t54.5 -154v-330h-74zM261 595q-60 0 -94.5 32t-38.5 91h65q7 -60 67 -60t68 60h65q-4 -59 -38 -91t-94 -32z" />
    <glyph glyph-name="uni1EB4" unicode="&#x1eb4;" 
d="M316 756q-60 0 -94.5 32t-38.5 91h65q8 -60 67 -60q61 0 68 60h65q-4 -59 -38 -91t-94 -32zM424 264l-110 266l-110 -266h220zM534 0l-77 186h-285l-77 -186h-90v5l303 711h16l303 -711v-5h-93zM366 982q31 -4 58 32l5 -3l19 -55q-14 -20 -37 -33.5t-49 -10.5
q-29 3 -57.5 19t-38.5 17q-21 2 -34.5 -4.5t-27.5 -26.5l-4 4l-16 58q36 44 86 38q26 -2 55.5 -17.5t40.5 -17.5z" />
    <glyph glyph-name="uni1EB5" unicode="&#x1eb5;" horiz-adv-x="504" 
d="M311 821q31 -4 58 32l5 -3l19 -55q-14 -20 -37 -33.5t-49 -10.5q-29 3 -57.5 19t-38.5 17q-21 2 -34.5 -4.5t-27.5 -26.5l-4 4l-16 58q36 44 86 38q26 -2 55.5 -17.5t40.5 -17.5zM215 61q94 0 141 66v122l-95 -15q-80 -12 -112.5 -32.5t-32.5 -62.5q0 -36 25 -57t74 -21z
M368 0l-7 60q-53 -72 -152 -72q-80 0 -130 39.5t-50 111.5q0 74 54.5 109t158.5 51l114 18v5q0 74 -32 104t-101 30q-80 0 -151 -39l-4 2v72q60 41 162 41q103 0 157.5 -48t54.5 -154v-330h-74zM261 595q-60 0 -94.5 32t-38.5 91h65q7 -60 67 -60t68 60h65q-4 -59 -38 -91
t-94 -32z" />
    <glyph glyph-name="uni1EB6" unicode="&#x1eb6;" 
d="M268 -199v91h86v-91h-86zM316 756q-60 0 -94.5 32t-38.5 91h65q8 -60 67 -60q61 0 68 60h65q-4 -59 -38 -91t-94 -32zM424 264l-110 266l-110 -266h220zM534 0l-77 186h-285l-77 -186h-90v5l303 711h16l303 -711v-5h-93z" />
    <glyph glyph-name="uni1EB7" unicode="&#x1eb7;" horiz-adv-x="504" 
d="M191 -199v91h86v-91h-86zM215 61q94 0 141 66v122l-95 -15q-80 -12 -112.5 -32.5t-32.5 -62.5q0 -36 25 -57t74 -21zM368 0l-7 60q-53 -72 -152 -72q-80 0 -130 39.5t-50 111.5q0 74 54.5 109t158.5 51l114 18v5q0 74 -32 104t-101 30q-80 0 -151 -39l-4 2v72
q60 41 162 41q103 0 157.5 -48t54.5 -154v-330h-74zM261 595q-60 0 -94.5 32t-38.5 91h65q7 -60 67 -60t68 60h65q-4 -59 -38 -91t-94 -32z" />
    <glyph glyph-name="uni1EB8" unicode="&#x1eb8;" horiz-adv-x="510" 
d="M218 -199v91h86v-91h-86zM81 0v705h374v-78h-284v-223h247v-77h-247v-249h284v-78h-374z" />
    <glyph glyph-name="uni1EB9" unicode="&#x1eb9;" horiz-adv-x="524" 
d="M239 -199v91h86v-91h-86zM276 457q-129 0 -155 -133h283q-3 64 -36 98.5t-92 34.5zM478 113v-80q-72 -45 -176 -45q-124 0 -198 73t-74 200q0 121 69.5 196t178.5 75q102 0 163.5 -68.5t50.5 -207.5h-377q2 -95 51.5 -144t138.5 -49t169 52z" />
    <glyph glyph-name="uni1EBA" unicode="&#x1eba;" horiz-adv-x="510" 
d="M209 854v51q26 16 73 17q84 -2 88 -65q2 -43 -32 -63q-34 -19 -34 -38h-55q0 37 28 56q29 20 29 34q1 11 -8.5 16.5t-29.5 5.5q-33 -2 -59 -14zM81 0v705h374v-78h-284v-223h247v-77h-247v-249h284v-78h-374z" />
    <glyph glyph-name="uni1EBB" unicode="&#x1ebb;" horiz-adv-x="524" 
d="M225 700v51q26 16 73 17q84 -2 88 -65q2 -43 -32 -63q-34 -19 -34 -38h-55q0 37 28 56q29 20 29 34q1 11 -8.5 16.5t-29.5 5.5q-33 -2 -59 -14zM276 457q-129 0 -155 -133h283q-3 64 -36 98.5t-92 34.5zM478 113v-80q-72 -45 -176 -45q-124 0 -198 73t-74 200
q0 121 69.5 196t178.5 75q102 0 163.5 -68.5t50.5 -207.5h-377q2 -95 51.5 -144t138.5 -49t169 52z" />
    <glyph glyph-name="uni1EBC" unicode="&#x1ebc;" horiz-adv-x="510" 
d="M322 839q32 -5 61 32l5 -3l20 -55q-37 -49 -91 -44q-29 3 -59 19t-43 17q-39 4 -65 -31l-4 4l-17 58q38 44 91 38q27 -2 58 -17.5t44 -17.5zM81 0v705h374v-78h-284v-223h247v-77h-247v-249h284v-78h-374z" />
    <glyph glyph-name="uni1EBD" unicode="&#x1ebd;" horiz-adv-x="524" 
d="M355 675q32 -5 61 32l5 -3l20 -55q-37 -49 -91 -44q-29 3 -59 19t-43 17q-39 4 -65 -31l-4 4l-17 58q38 44 91 38q27 -2 58 -17.5t44 -17.5zM276 457q-129 0 -155 -133h283q-3 64 -36 98.5t-92 34.5zM478 113v-80q-72 -45 -176 -45q-124 0 -198 73t-74 200
q0 121 69.5 196t178.5 75q102 0 163.5 -68.5t50.5 -207.5h-377q2 -95 51.5 -144t138.5 -49t169 52z" />
    <glyph glyph-name="uni1EBE" unicode="&#x1ebe;" horiz-adv-x="510" 
d="M502 975l-76 -110h-66l54 110h88zM265 825l-60 -69h-76l101 130h72l101 -130h-76zM81 0v705h374v-78h-284v-223h247v-77h-247v-249h284v-78h-374z" />
    <glyph glyph-name="uni1EBF" unicode="&#x1ebf;" horiz-adv-x="524" 
d="M524 811l-76 -110h-66l54 110h88zM287 661l-60 -69h-76l101 130h72l101 -130h-76zM276 457q-129 0 -155 -133h283q-3 64 -36 98.5t-92 34.5zM478 113v-80q-72 -45 -176 -45q-124 0 -198 73t-74 200q0 121 69.5 196t178.5 75q102 0 163.5 -68.5t50.5 -207.5h-377
q2 -95 51.5 -144t138.5 -49t169 52z" />
    <glyph glyph-name="uni1EC0" unicode="&#x1ec0;" horiz-adv-x="510" 
d="M371 865l-76 110h88l54 -110h-66zM205 756l60 69l62 -69h76l-101 130h-72l-101 -130h76zM81 705v-705h374v78h-284v249h247v77h-247v223h284v78h-374z" />
    <glyph glyph-name="uni1EC1" unicode="&#x1ec1;" horiz-adv-x="524" 
d="M393 701l-76 110h88l54 -110h-66zM227 592l60 69l62 -69h76l-101 130h-72l-101 -130h76zM276 457q59 0 92 -34.5t36 -98.5h-283q26 133 155 133zM478 33v80l-4 2q-80 -52 -169 -52t-138.5 49t-51.5 144h377q11 139 -50.5 207.5t-163.5 68.5q-109 0 -178.5 -75t-69.5 -196
q0 -127 74 -200t198 -73q104 0 176 45z" />
    <glyph glyph-name="uni1EC2" unicode="&#x1ec2;" horiz-adv-x="510" 
d="M328 951v46q24 14 65 15q77 -2 83 -58q3 -37 -29 -55t-32 -34h-52q0 32 23 49q24 18 24 30q2 20 -33 20q-25 -2 -49 -13zM265 825l-60 -69h-76l101 130h72l101 -130h-76zM81 0v705h374v-78h-284v-223h247v-77h-247v-249h284v-78h-374z" />
    <glyph glyph-name="uni1EC3" unicode="&#x1ec3;" horiz-adv-x="524" 
d="M350 787v46q24 14 65 15q77 -2 83 -58q3 -37 -29 -55t-32 -34h-52q0 32 23 49q24 18 24 30q2 20 -33 20q-25 -2 -49 -13zM287 661l-60 -69h-76l101 130h72l101 -130h-76zM276 457q-129 0 -155 -133h283q-3 64 -36 98.5t-92 34.5zM478 113v-80q-72 -45 -176 -45
q-124 0 -198 73t-74 200q0 121 69.5 196t178.5 75q102 0 163.5 -68.5t50.5 -207.5h-377q2 -95 51.5 -144t138.5 -49t169 52z" />
    <glyph glyph-name="uni1EC4" unicode="&#x1ec4;" horiz-adv-x="510" 
d="M321 986q31 -4 58 32l5 -3l19 -55q-14 -20 -37 -33.5t-49 -10.5q-29 3 -57.5 19t-38.5 17q-21 2 -34.5 -4.5t-27.5 -26.5l-4 4l-16 58q36 44 86 38q26 -2 55.5 -17.5t40.5 -17.5zM265 825l-60 -69h-76l101 130h72l101 -130h-76zM81 0v705h374v-78h-284v-223h247v-77h-247
v-249h284v-78h-374z" />
    <glyph glyph-name="uni1EC5" unicode="&#x1ec5;" horiz-adv-x="524" 
d="M343 822q31 -4 58 32l5 -3l19 -55q-14 -20 -37 -33.5t-49 -10.5q-29 3 -57.5 19t-38.5 17q-21 2 -34.5 -4.5t-27.5 -26.5l-4 4l-16 58q36 44 86 38q26 -2 55.5 -17.5t40.5 -17.5zM287 661l-60 -69h-76l101 130h72l101 -130h-76zM276 457q-129 0 -155 -133h283
q-3 64 -36 98.5t-92 34.5zM478 113v-80q-72 -45 -176 -45q-124 0 -198 73t-74 200q0 121 69.5 196t178.5 75q102 0 163.5 -68.5t50.5 -207.5h-377q2 -95 51.5 -144t138.5 -49t169 52z" />
    <glyph glyph-name="uni1EC6" unicode="&#x1ec6;" horiz-adv-x="510" 
d="M218 -199v91h86v-91h-86zM265 825l-60 -69h-76l101 130h72l101 -130h-76zM81 0v705h374v-78h-284v-223h247v-77h-247v-249h284v-78h-374z" />
    <glyph glyph-name="uni1EC7" unicode="&#x1ec7;" horiz-adv-x="524" 
d="M239 -199v91h86v-91h-86zM287 661l-60 -69h-76l101 130h72l101 -130h-76zM276 457q-129 0 -155 -133h283q-3 64 -36 98.5t-92 34.5zM478 113v-80q-72 -45 -176 -45q-124 0 -198 73t-74 200q0 121 69.5 196t178.5 75q102 0 163.5 -68.5t50.5 -207.5h-377q2 -95 51.5 -144
t138.5 -49t169 52z" />
    <glyph glyph-name="uni1EC8" unicode="&#x1ec8;" horiz-adv-x="256" 
d="M61 854v51q26 16 73 17q84 -2 88 -65q2 -43 -32 -63q-34 -19 -34 -38h-55q0 37 28 56q29 20 29 34q1 11 -8.5 16.5t-29.5 5.5q-33 -2 -59 -14zM83 0v705h90v-705h-90z" />
    <glyph glyph-name="uni1EC9" unicode="&#x1ec9;" horiz-adv-x="226" 
d="M47 700v51q26 16 73 17q84 -2 88 -65q2 -43 -32 -63q-34 -19 -34 -38h-55q0 37 28 56q29 20 29 34q1 11 -8.5 16.5t-29.5 5.5q-33 -2 -59 -14zM70 0v520h86v-520h-86z" />
    <glyph glyph-name="uni1ECA" unicode="&#x1eca;" horiz-adv-x="256" 
d="M83 -199v91h90v-91h-90zM83 0v705h90v-705h-90z" />
    <glyph glyph-name="uni1ECB" unicode="&#x1ecb;" horiz-adv-x="226" 
d="M70 -199v91h86v-91h-86zM70 624v91h86v-91h-86zM70 0v520h86v-520h-86z" />
    <glyph glyph-name="uni1ECC" unicode="&#x1ecc;" horiz-adv-x="771" 
d="M345 -199v91h86v-91h-86zM386 -12q-151 0 -250.5 105t-99.5 262q0 156 99.5 259t250.5 103q152 0 250.5 -103t98.5 -259q0 -157 -99 -262t-250 -105zM386 66q114 0 184.5 79t70.5 210q0 130 -70 207t-185 77t-185.5 -77t-70.5 -207q0 -131 70.5 -210t185.5 -79z" />
    <glyph glyph-name="uni1ECD" unicode="&#x1ecd;" horiz-adv-x="592" 
d="M252 -199v91h86v-91h-86zM295 -12q-115 0 -190 75.5t-75 197.5q0 121 75 196t190 75t191 -75t76 -196t-76 -197t-191 -76zM295 62q79 0 130 54t51 145q0 89 -51 143t-130 54t-129 -54t-50 -143q0 -91 50 -145t129 -54z" />
    <glyph glyph-name="uni1ECE" unicode="&#x1ece;" horiz-adv-x="771" 
d="M337 854v51q26 16 73 17q84 -2 88 -65q2 -43 -32 -63q-34 -19 -34 -38h-55q0 37 28 56q29 20 29 34q1 11 -8.5 16.5t-29.5 5.5q-33 -2 -59 -14zM386 -12q-151 0 -250.5 105t-99.5 262q0 156 99.5 259t250.5 103q152 0 250.5 -103t98.5 -259q0 -157 -99 -262t-250 -105z
M386 66q114 0 184.5 79t70.5 210q0 130 -70 207t-185 77t-185.5 -77t-70.5 -207q0 -131 70.5 -210t185.5 -79z" />
    <glyph glyph-name="uni1ECF" unicode="&#x1ecf;" horiz-adv-x="592" 
d="M245 700v51q26 16 73 17q84 -2 88 -65q2 -43 -32 -63q-34 -19 -34 -38h-55q0 37 28 56q29 20 29 34q1 11 -8.5 16.5t-29.5 5.5q-33 -2 -59 -14zM295 -12q-115 0 -190 75.5t-75 197.5q0 121 75 196t190 75t191 -75t76 -196t-76 -197t-191 -76zM295 62q79 0 130 54t51 145
q0 89 -51 143t-130 54t-129 -54t-50 -143q0 -91 50 -145t129 -54z" />
    <glyph glyph-name="uni1ED0" unicode="&#x1ed0;" horiz-adv-x="771" 
d="M623 975l-76 -110h-66l54 110h88zM386 825l-60 -69h-76l101 130h72l101 -130h-76zM386 -12q-151 0 -250.5 105t-99.5 262q0 156 99.5 259t250.5 103q152 0 250.5 -103t98.5 -259q0 -157 -99 -262t-250 -105zM386 66q114 0 184.5 79t70.5 210q0 130 -70 207t-185 77
t-185.5 -77t-70.5 -207q0 -131 70.5 -210t185.5 -79z" />
    <glyph glyph-name="uni1ED1" unicode="&#x1ed1;" horiz-adv-x="592" 
d="M532 811l-76 -110h-66l54 110h88zM295 661l-60 -69h-76l101 130h72l101 -130h-76zM295 -12q-115 0 -190 75.5t-75 197.5q0 121 75 196t190 75t191 -75t76 -196t-76 -197t-191 -76zM295 62q79 0 130 54t51 145q0 89 -51 143t-130 54t-129 -54t-50 -143q0 -91 50 -145
t129 -54z" />
    <glyph glyph-name="uni1ED2" unicode="&#x1ed2;" horiz-adv-x="771" 
d="M492 865l-76 110h88l54 -110h-66zM326 756l60 69l62 -69h76l-101 130h-72l-101 -130h76zM386 -12q151 0 250 105t99 262q0 156 -98.5 259t-250.5 103q-151 0 -250.5 -103t-99.5 -259q0 -157 99.5 -262t250.5 -105zM386 66q-115 0 -185.5 79t-70.5 210q0 130 70.5 207
t185.5 77t185 -77t70 -207q0 -131 -70.5 -210t-184.5 -79z" />
    <glyph glyph-name="uni1ED3" unicode="&#x1ed3;" horiz-adv-x="592" 
d="M401 701l-76 110h88l54 -110h-66zM235 592l60 69l62 -69h76l-101 130h-72l-101 -130h76zM295 -12q115 0 191 76t76 197t-76 196t-191 75t-190 -75t-75 -196q0 -122 75 -197.5t190 -75.5zM295 62q-79 0 -129 54t-50 145q0 89 50 143t129 54t130 -54t51 -143
q0 -91 -51 -145t-130 -54z" />
    <glyph glyph-name="uni1ED4" unicode="&#x1ed4;" horiz-adv-x="771" 
d="M449 951v46q24 14 65 15q77 -2 83 -58q3 -37 -29 -55t-32 -34h-52q0 32 23 49q24 18 24 30q2 20 -33 20q-25 -2 -49 -13zM386 825l-60 -69h-76l101 130h72l101 -130h-76zM386 -12q-151 0 -250.5 105t-99.5 262q0 156 99.5 259t250.5 103q152 0 250.5 -103t98.5 -259
q0 -157 -99 -262t-250 -105zM386 66q114 0 184.5 79t70.5 210q0 130 -70 207t-185 77t-185.5 -77t-70.5 -207q0 -131 70.5 -210t185.5 -79z" />
    <glyph glyph-name="uni1ED5" unicode="&#x1ed5;" horiz-adv-x="592" 
d="M358 787v46q24 14 65 15q77 -2 83 -58q3 -37 -29 -55t-32 -34h-52q0 32 23 49q24 18 24 30q2 20 -33 20q-25 -2 -49 -13zM295 661l-60 -69h-76l101 130h72l101 -130h-76zM295 -12q-115 0 -190 75.5t-75 197.5q0 121 75 196t190 75t191 -75t76 -196t-76 -197t-191 -76z
M295 62q79 0 130 54t51 145q0 89 -51 143t-130 54t-129 -54t-50 -143q0 -91 50 -145t129 -54z" />
    <glyph glyph-name="uni1ED6" unicode="&#x1ed6;" horiz-adv-x="771" 
d="M442 986q31 -4 58 32l5 -3l19 -55q-14 -20 -37 -33.5t-49 -10.5q-29 3 -57.5 19t-38.5 17q-21 2 -34.5 -4.5t-27.5 -26.5l-4 4l-16 58q36 44 86 38q26 -2 55.5 -17.5t40.5 -17.5zM386 825l-60 -69h-76l101 130h72l101 -130h-76zM386 -12q-151 0 -250.5 105t-99.5 262
q0 156 99.5 259t250.5 103q152 0 250.5 -103t98.5 -259q0 -157 -99 -262t-250 -105zM386 66q114 0 184.5 79t70.5 210q0 130 -70 207t-185 77t-185.5 -77t-70.5 -207q0 -131 70.5 -210t185.5 -79z" />
    <glyph glyph-name="uni1ED7" unicode="&#x1ed7;" horiz-adv-x="592" 
d="M351 822q31 -4 58 32l5 -3l19 -55q-14 -20 -37 -33.5t-49 -10.5q-29 3 -57.5 19t-38.5 17q-21 2 -34.5 -4.5t-27.5 -26.5l-4 4l-16 58q36 44 86 38q26 -2 55.5 -17.5t40.5 -17.5zM295 661l-60 -69h-76l101 130h72l101 -130h-76zM295 -12q-115 0 -190 75.5t-75 197.5
q0 121 75 196t190 75t191 -75t76 -196t-76 -197t-191 -76zM295 62q79 0 130 54t51 145q0 89 -51 143t-130 54t-129 -54t-50 -143q0 -91 50 -145t129 -54z" />
    <glyph glyph-name="uni1ED8" unicode="&#x1ed8;" horiz-adv-x="771" 
d="M345 -199v91h86v-91h-86zM386 825l-60 -69h-76l101 130h72l101 -130h-76zM386 -12q-151 0 -250.5 105t-99.5 262q0 156 99.5 259t250.5 103q152 0 250.5 -103t98.5 -259q0 -157 -99 -262t-250 -105zM386 66q114 0 184.5 79t70.5 210q0 130 -70 207t-185 77t-185.5 -77
t-70.5 -207q0 -131 70.5 -210t185.5 -79z" />
    <glyph glyph-name="uni1ED9" unicode="&#x1ed9;" horiz-adv-x="592" 
d="M252 -199v91h86v-91h-86zM295 661l-60 -69h-76l101 130h72l101 -130h-76zM295 -12q-115 0 -190 75.5t-75 197.5q0 121 75 196t190 75t191 -75t76 -196t-76 -197t-191 -76zM295 62q79 0 130 54t51 145q0 89 -51 143t-130 54t-129 -54t-50 -143q0 -91 50 -145t129 -54z" />
    <glyph glyph-name="uni1EDA" unicode="&#x1eda;" horiz-adv-x="771" 
d="M524 886l-96 -130h-70l74 130h92zM386 -12q-151 0 -250.5 105t-99.5 262q0 156 99.5 259t250.5 103q51 0 99 -14q55 0 65 1q49 4 49 71h78q0 -100 -83 -125q24 -18 42 -37q99 -101 99 -258t-99 -262t-250 -105zM386 66q114 0 184.5 79t70.5 210q0 130 -70 207t-185 77
t-185.5 -77t-70.5 -207q0 -131 70.5 -210t185.5 -79z" />
    <glyph glyph-name="uni1EDB" unicode="&#x1edb;" horiz-adv-x="592" 
d="M431 732l-96 -130h-70l74 130h92zM295 -12q-115 0 -190 75.5t-75 197.5q0 121 75 196t190 75q45 0 89 -14q35 0 41 1q49 5 49 71h78q0 -96 -77 -123q2 -1 5.5 -4t4.5 -5q77 -75 77 -197q0 -121 -76 -197t-191 -76zM295 62q79 0 130 54t51 145q0 89 -51 143t-130 54
t-129 -54t-50 -143q0 -91 50 -145t129 -54z" />
    <glyph glyph-name="uni1EDC" unicode="&#x1edc;" horiz-adv-x="771" 
d="M386 756l-96 130h92l74 -130h-70zM386 -12q-151 0 -250.5 105t-99.5 262q0 156 99.5 259t250.5 103q51 0 99 -14q55 0 65 1q49 4 49 71h78q0 -100 -83 -125q24 -18 42 -37q99 -101 99 -258t-99 -262t-250 -105zM386 66q114 0 184.5 79t70.5 210q0 130 -70 207t-185 77
t-185.5 -77t-70.5 -207q0 -131 70.5 -210t185.5 -79z" />
    <glyph glyph-name="uni1EDD" unicode="&#x1edd;" horiz-adv-x="592" 
d="M289 602l-96 130h92l74 -130h-70zM295 -12q-115 0 -190 75.5t-75 197.5q0 121 75 196t190 75q45 0 89 -14q35 0 41 1q49 5 49 71h78q0 -96 -77 -123q2 -1 5.5 -4t4.5 -5q77 -75 77 -197q0 -121 -76 -197t-191 -76zM295 62q79 0 130 54t51 145q0 89 -51 143t-130 54
t-129 -54t-50 -143q0 -91 50 -145t129 -54z" />
    <glyph glyph-name="uni1EDE" unicode="&#x1ede;" horiz-adv-x="771" 
d="M337 854v51q26 16 73 17q84 -2 88 -65q2 -43 -32 -63q-34 -19 -34 -38h-55q0 37 28 56q29 20 29 34q1 11 -8.5 16.5t-29.5 5.5q-33 -2 -59 -14zM386 -12q-151 0 -250.5 105t-99.5 262q0 156 99.5 259t250.5 103q51 0 99 -14q55 0 65 1q49 4 49 71h78q0 -100 -83 -125
q24 -18 42 -37q99 -101 99 -258t-99 -262t-250 -105zM386 66q114 0 184.5 79t70.5 210q0 130 -70 207t-185 77t-185.5 -77t-70.5 -207q0 -131 70.5 -210t185.5 -79z" />
    <glyph glyph-name="uni1EDF" unicode="&#x1edf;" horiz-adv-x="592" 
d="M245 700v51q26 16 73 17q84 -2 88 -65q2 -43 -32 -63q-34 -19 -34 -38h-55q0 37 28 56q29 20 29 34q1 11 -8.5 16.5t-29.5 5.5q-33 -2 -59 -14zM295 -12q-115 0 -190 75.5t-75 197.5q0 121 75 196t190 75q45 0 89 -14q35 0 41 1q49 5 49 71h78q0 -96 -77 -123
q2 -1 5.5 -4t4.5 -5q77 -75 77 -197q0 -121 -76 -197t-191 -76zM295 62q79 0 130 54t51 145q0 89 -51 143t-130 54t-129 -54t-50 -143q0 -91 50 -145t129 -54z" />
    <glyph glyph-name="uni1EE0" unicode="&#x1ee0;" horiz-adv-x="771" 
d="M463 839q32 -5 61 32l5 -3l20 -55q-37 -49 -91 -44q-29 3 -59 19t-43 17q-39 4 -65 -31l-4 4l-17 58q38 44 91 38q27 -2 58 -17.5t44 -17.5zM386 -12q-151 0 -250.5 105t-99.5 262q0 156 99.5 259t250.5 103q51 0 99 -14q55 0 65 1q49 4 49 71h78q0 -100 -83 -125
q24 -18 42 -37q99 -101 99 -258t-99 -262t-250 -105zM386 66q114 0 184.5 79t70.5 210q0 130 -70 207t-185 77t-185.5 -77t-70.5 -207q0 -131 70.5 -210t185.5 -79z" />
    <glyph glyph-name="uni1EE1" unicode="&#x1ee1;" horiz-adv-x="592" 
d="M369 675q32 -5 61 32l5 -3l20 -55q-37 -49 -91 -44q-29 3 -59 19t-43 17q-39 4 -65 -31l-4 4l-17 58q38 44 91 38q27 -2 58 -17.5t44 -17.5zM295 -12q-115 0 -190 75.5t-75 197.5q0 121 75 196t190 75q45 0 89 -14q35 0 41 1q49 5 49 71h78q0 -96 -77 -123q2 -1 5.5 -4
t4.5 -5q77 -75 77 -197q0 -121 -76 -197t-191 -76zM295 62q79 0 130 54t51 145q0 89 -51 143t-130 54t-129 -54t-50 -143q0 -91 50 -145t129 -54z" />
    <glyph glyph-name="uni1EE2" unicode="&#x1ee2;" horiz-adv-x="771" 
d="M345 -199v91h86v-91h-86zM386 -12q-151 0 -250.5 105t-99.5 262q0 156 99.5 259t250.5 103q51 0 99 -14q55 0 65 1q49 4 49 71h78q0 -100 -83 -125q24 -18 42 -37q99 -101 99 -258t-99 -262t-250 -105zM386 66q114 0 184.5 79t70.5 210q0 130 -70 207t-185 77t-185.5 -77
t-70.5 -207q0 -131 70.5 -210t185.5 -79z" />
    <glyph glyph-name="uni1EE3" unicode="&#x1ee3;" horiz-adv-x="592" 
d="M252 -199v91h86v-91h-86zM295 -12q-115 0 -190 75.5t-75 197.5q0 121 75 196t190 75q45 0 89 -14q35 0 41 1q49 5 49 71h78q0 -96 -77 -123q2 -1 5.5 -4t4.5 -5q77 -75 77 -197q0 -121 -76 -197t-191 -76zM295 62q79 0 130 54t51 145q0 89 -51 143t-130 54t-129 -54
t-50 -143q0 -91 50 -145t129 -54z" />
    <glyph glyph-name="uni1EE4" unicode="&#x1ee4;" horiz-adv-x="685" 
d="M297 -199v91h86v-91h-86zM340 -12q-120 0 -194.5 71t-74.5 199v447h90v-443q0 -95 48 -145.5t131 -50.5q84 0 134 51t50 145v443h90v-447q0 -128 -76.5 -199t-197.5 -71z" />
    <glyph glyph-name="uni1EE5" unicode="&#x1ee5;" horiz-adv-x="551" 
d="M220 -199v91h86v-91h-86zM410 0l-7 51q-79 -63 -169 -63q-82 0 -128 43.5t-46 123.5v365h86v-347q0 -113 109 -113q80 0 144 45v415h86v-520h-75z" />
    <glyph glyph-name="uni1EE6" unicode="&#x1ee6;" horiz-adv-x="685" 
d="M284 854v51q26 16 73 17q84 -2 88 -65q2 -43 -32 -63q-34 -19 -34 -38h-55q0 37 28 56q29 20 29 34q1 11 -8.5 16.5t-29.5 5.5q-33 -2 -59 -14zM340 -12q-120 0 -194.5 71t-74.5 199v447h90v-443q0 -95 48 -145.5t131 -50.5q84 0 134 51t50 145v443h90v-447
q0 -128 -76.5 -199t-197.5 -71z" />
    <glyph glyph-name="uni1EE7" unicode="&#x1ee7;" horiz-adv-x="551" 
d="M216 700v51q26 16 73 17q84 -2 88 -65q2 -43 -32 -63q-34 -19 -34 -38h-55q0 37 28 56q29 20 29 34q1 11 -8.5 16.5t-29.5 5.5q-33 -2 -59 -14zM410 0l-7 51q-79 -63 -169 -63q-82 0 -128 43.5t-46 123.5v365h86v-347q0 -113 109 -113q80 0 144 45v415h86v-520h-75z" />
    <glyph glyph-name="uni1EE8" unicode="&#x1ee8;" horiz-adv-x="685" 
d="M472 886l-96 -130h-70l74 130h92zM340 -12q-120 0 -194.5 71t-74.5 199v447h90v-443q0 -95 48 -145.5t131 -50.5q84 0 134 51t50 145v443h64q41 10 41 70h78q0 -106 -93 -128v-389q0 -128 -76.5 -199t-197.5 -71z" />
    <glyph glyph-name="uni1EE9" unicode="&#x1ee9;" horiz-adv-x="551" 
d="M408 732l-96 -130h-70l74 130h92zM410 0l-7 51q-79 -63 -169 -63q-82 0 -128 43.5t-46 123.5v365h86v-347q0 -113 109 -113q80 0 144 45v415h61q41 10 41 70h78q0 -106 -94 -128v-462h-75z" />
    <glyph glyph-name="uni1EEA" unicode="&#x1eea;" horiz-adv-x="685" 
d="M335 756l-96 130h92l74 -130h-70zM340 -12q-120 0 -194.5 71t-74.5 199v447h90v-443q0 -95 48 -145.5t131 -50.5q84 0 134 51t50 145v443h64q41 10 41 70h78q0 -106 -93 -128v-389q0 -128 -76.5 -199t-197.5 -71z" />
    <glyph glyph-name="uni1EEB" unicode="&#x1eeb;" horiz-adv-x="551" 
d="M261 602l-96 130h92l74 -130h-70zM410 0l-7 51q-79 -63 -169 -63q-82 0 -128 43.5t-46 123.5v365h86v-347q0 -113 109 -113q80 0 144 45v415h61q41 10 41 70h78q0 -106 -94 -128v-462h-75z" />
    <glyph glyph-name="uni1EEC" unicode="&#x1eec;" horiz-adv-x="685" 
d="M284 854v51q26 16 73 17q84 -2 88 -65q2 -43 -32 -63q-34 -19 -34 -38h-55q0 37 28 56q29 20 29 34q1 11 -8.5 16.5t-29.5 5.5q-33 -2 -59 -14zM340 -12q-120 0 -194.5 71t-74.5 199v447h90v-443q0 -95 48 -145.5t131 -50.5q84 0 134 51t50 145v443h64q41 10 41 70h78
q0 -106 -93 -128v-389q0 -128 -76.5 -199t-197.5 -71z" />
    <glyph glyph-name="uni1EED" unicode="&#x1eed;" horiz-adv-x="551" 
d="M216 700v51q26 16 73 17q84 -2 88 -65q2 -43 -32 -63q-34 -19 -34 -38h-55q0 37 28 56q29 20 29 34q1 11 -8.5 16.5t-29.5 5.5q-33 -2 -59 -14zM410 0l-7 51q-79 -63 -169 -63q-82 0 -128 43.5t-46 123.5v365h86v-347q0 -113 109 -113q80 0 144 45v415h61q41 10 41 70h78
q0 -106 -94 -128v-462h-75z" />
    <glyph glyph-name="uni1EEE" unicode="&#x1eee;" horiz-adv-x="685" 
d="M399 839q32 -5 61 32l5 -3l20 -55q-37 -49 -91 -44q-29 3 -59 19t-43 17q-39 4 -65 -31l-4 4l-17 58q38 44 91 38q27 -2 58 -17.5t44 -17.5zM340 -12q-120 0 -194.5 71t-74.5 199v447h90v-443q0 -95 48 -145.5t131 -50.5q84 0 134 51t50 145v443h64q41 10 41 70h78
q0 -106 -93 -128v-389q0 -128 -76.5 -199t-197.5 -71z" />
    <glyph glyph-name="uni1EEF" unicode="&#x1eef;" horiz-adv-x="551" 
d="M331 675q32 -5 61 32l5 -3l20 -55q-37 -49 -91 -44q-29 3 -59 19t-43 17q-39 4 -65 -31l-4 4l-17 58q38 44 91 38q27 -2 58 -17.5t44 -17.5zM410 0l-7 51q-79 -63 -169 -63q-82 0 -128 43.5t-46 123.5v365h86v-347q0 -113 109 -113q80 0 144 45v415h61q41 10 41 70h78
q0 -106 -94 -128v-462h-75z" />
    <glyph glyph-name="uni1EF0" unicode="&#x1ef0;" horiz-adv-x="685" 
d="M297 -199v91h86v-91h-86zM340 -12q-120 0 -194.5 71t-74.5 199v447h90v-443q0 -95 48 -145.5t131 -50.5q84 0 134 51t50 145v443h64q41 10 41 70h78q0 -106 -93 -128v-389q0 -128 -76.5 -199t-197.5 -71z" />
    <glyph glyph-name="uni1EF1" unicode="&#x1ef1;" horiz-adv-x="551" 
d="M220 -199v91h86v-91h-86zM410 0l-7 51q-79 -63 -169 -63q-82 0 -128 43.5t-46 123.5v365h86v-347q0 -113 109 -113q80 0 144 45v415h61q41 10 41 70h78q0 -106 -94 -128v-462h-75z" />
    <glyph glyph-name="Ygrave" unicode="&#x1ef2;" horiz-adv-x="569" 
d="M265 756l-96 130h92l74 -130h-70zM332 0h-90v291l-233 409v5h95l183 -330l184 330h89v-5l-228 -403v-297z" />
    <glyph glyph-name="ygrave" unicode="&#x1ef3;" horiz-adv-x="494" 
d="M224 602l-96 130h92l74 -130h-70zM54 -222v79q53 8 80.5 30.5t46.5 68.5l27 68l-201 491v5h91l155 -394l148 394h86v-5l-225 -578q-31 -79 -79.5 -116t-128.5 -43z" />
    <glyph glyph-name="uni1EF4" unicode="&#x1ef4;" horiz-adv-x="569" 
d="M242 -199v91h90v-91h-90zM332 0h-90v291l-233 409v5h95l183 -330l184 330h89v-5l-228 -403v-297z" />
    <glyph glyph-name="uni1EF5" unicode="&#x1ef5;" horiz-adv-x="494" 
d="M347 -199v91h86v-91h-86zM54 -222v79q53 8 80.5 30.5t46.5 68.5l27 68l-201 491v5h91l155 -394l148 394h86v-5l-225 -578q-31 -79 -79.5 -116t-128.5 -43z" />
    <glyph glyph-name="uni1EF6" unicode="&#x1ef6;" horiz-adv-x="569" 
d="M226 854v51q26 16 73 17q84 -2 88 -65q2 -43 -32 -63q-34 -19 -34 -38h-55q0 37 28 56q29 20 29 34q1 11 -8.5 16.5t-29.5 5.5q-33 -2 -59 -14zM332 0h-90v291l-233 409v5h95l183 -330l184 330h89v-5l-228 -403v-297z" />
    <glyph glyph-name="uni1EF7" unicode="&#x1ef7;" horiz-adv-x="494" 
d="M187 700v51q26 16 73 17q84 -2 88 -65q2 -43 -32 -63q-34 -19 -34 -38h-55q0 37 28 56q29 20 29 34q1 11 -8.5 16.5t-29.5 5.5q-33 -2 -59 -14zM54 -222v79q53 8 80.5 30.5t46.5 68.5l27 68l-201 491v5h91l155 -394l148 394h86v-5l-225 -578q-31 -79 -79.5 -116
t-128.5 -43z" />
    <glyph glyph-name="uni1EF8" unicode="&#x1ef8;" horiz-adv-x="569" 
d="M341 839q32 -5 61 32l5 -3l20 -55q-37 -49 -91 -44q-29 3 -59 19t-43 17q-39 4 -65 -31l-4 4l-17 58q38 44 91 38q27 -2 58 -17.5t44 -17.5zM332 0h-90v291l-233 409v5h95l183 -330l184 330h89v-5l-228 -403v-297z" />
    <glyph glyph-name="uni1EF9" unicode="&#x1ef9;" horiz-adv-x="494" 
d="M312 675q32 -5 61 32l5 -3l20 -55q-37 -49 -91 -44q-29 3 -59 19t-43 17q-39 4 -65 -31l-4 4l-17 58q38 44 91 38q27 -2 58 -17.5t44 -17.5zM54 -222v79q53 8 80.5 30.5t46.5 68.5l27 68l-201 491v5h91l155 -394l148 394h86v-5l-225 -578q-31 -79 -79.5 -116t-128.5 -43z
" />
    <glyph glyph-name="uni1EFA" unicode="&#x1efa;" horiz-adv-x="0" 
d="M444 457v61q31 1 44 18.5t13 53.5h78q0 -126 -135 -133z" />
    <glyph glyph-name="endash" unicode="&#x2013;" horiz-adv-x="494" 
d="M35 255v76h424v-76h-424z" />
    <glyph glyph-name="emdash" unicode="&#x2014;" horiz-adv-x="914" 
d="M35 255v76h844v-76h-844z" />
    <glyph glyph-name="quoteleft" unicode="&#x2018;" horiz-adv-x="187" 
d="M26 503v8l57 194h63l-31 -202h-89z" />
    <glyph glyph-name="quoteright" unicode="&#x2019;" horiz-adv-x="187" 
d="M161 705v-8l-57 -194h-63l31 202h89z" />
    <glyph glyph-name="quotesinglbase" unicode="&#x201a;" horiz-adv-x="187" 
d="M151 93v-8l-57 -194h-63l31 202h89z" />
    <glyph glyph-name="quotedblleft" unicode="&#x201c;" horiz-adv-x="329" 
d="M26 503v8l57 194h63l-31 -202h-89zM168 503v8l57 194h63l-31 -202h-89z" />
    <glyph glyph-name="quotedblright" unicode="&#x201d;" horiz-adv-x="329" 
d="M303 705v-8l-57 -194h-63l31 202h89zM161 705v-8l-57 -194h-63l31 202h89z" />
    <glyph glyph-name="quotedblbase" unicode="&#x201e;" horiz-adv-x="329" 
d="M151 93v-8l-57 -194h-63l31 202h89zM293 93v-8l-57 -194h-63l31 202h89z" />
    <glyph glyph-name="dagger" unicode="&#x2020;" horiz-adv-x="354" 
d="M322 509h-106v-350h-78v350h-106v70h106v127l78 23v-150h106v-70z" />
    <glyph glyph-name="daggerdbl" unicode="&#x2021;" horiz-adv-x="354" 
d="M216 159l-78 -23v150h-106v70h106v153h-106v70h106v127l78 23v-150h106v-70h-106v-153h106v-70h-106v-127z" />
    <glyph glyph-name="bullet" unicode="&#x2022;" horiz-adv-x="343" 
d="M171 433q55 0 91.5 -37.5t36.5 -92.5t-36.5 -92.5t-91.5 -37.5t-91.5 37.5t-36.5 92.5t36.5 92.5t91.5 37.5z" />
    <glyph glyph-name="ellipsis" unicode="&#x2026;" horiz-adv-x="695" 
d="M536 0v93h97v-93h-97zM299 0v93h97v-93h-97zM62 0v93h97v-93h-97z" />
    <glyph glyph-name="perthousand" unicode="&#x2030;" horiz-adv-x="1179" 
d="M191 350q-71 0 -117.5 48t-46.5 126q0 76 47 124.5t117 48.5t117 -48.5t47 -124.5q0 -78 -46.5 -126t-117.5 -48zM136 0l454 690h76l-454 -690h-76zM191 416q41 0 65 30.5t24 77.5q0 46 -24 76.5t-65 30.5t-65 -30.5t-24 -76.5q0 -47 24 -77.5t65 -30.5zM988 -12
q-71 0 -117.5 48t-46.5 126q0 76 47 124.5t117 48.5t117 -48.5t47 -124.5q0 -78 -46.5 -126t-117.5 -48zM607 -12q-71 0 -117.5 48t-46.5 126q0 76 47 124.5t117 48.5t117 -48.5t47 -124.5q0 -78 -46.5 -126t-117.5 -48zM988 54q41 0 65 30.5t24 77.5q0 46 -24 76.5
t-65 30.5t-65 -30.5t-24 -76.5q0 -47 24 -77.5t65 -30.5zM607 54q41 0 65 30.5t24 77.5q0 46 -24 76.5t-65 30.5t-65 -30.5t-24 -76.5q0 -47 24 -77.5t65 -30.5z" />
    <glyph glyph-name="uni2032" unicode="&#x2032;" horiz-adv-x="177" 
d="M145 705l-57 -212h-61l29 212h89z" />
    <glyph glyph-name="uni2033" unicode="&#x2033;" horiz-adv-x="320" 
d="M145 705l-57 -212h-61l29 212h89zM288 705l-57 -212h-61l29 212h89z" />
    <glyph glyph-name="guilsinglleft" unicode="&#x2039;" horiz-adv-x="230" 
d="M119 84l-103 176l103 176h86l-100 -176l100 -176h-86z" />
    <glyph glyph-name="guilsinglright" unicode="&#x203a;" horiz-adv-x="230" 
d="M25 84l100 176l-100 176h86l103 -176l-103 -176h-86z" />
    <glyph glyph-name="fraction" unicode="&#x2044;" horiz-adv-x="104" 
d="M-243 0l514 690h76l-514 -690h-76z" />
    <glyph glyph-name="Euro" unicode="&#x20ac;" horiz-adv-x="530" 
d="M510 122v-88q-63 -46 -163 -46q-116 0 -186 68.5t-91 193.5h-61v61h55q-1 11 -1 34q0 22 1 33h-55v61h62q21 122 93.5 190t181.5 68q84 0 149 -37v-82l-4 -2q-68 44 -141 44q-154 0 -188 -181h214v-61h-220q-1 -11 -1 -33q0 -23 1 -34h220v-61h-214q30 -184 193 -184
q75 0 151 58z" />
    <glyph glyph-name="trademark" unicode="&#x2122;" horiz-adv-x="666" 
d="M264 625h-95v-266h-72v266h-95v63h262v-63zM563 359l-23 176l-77 -177h-26l-73 170l-26 -169h-65l46 332h36l98 -228l95 228h36l46 -332h-67z" />
    <glyph glyph-name="onethird" unicode="&#x2153;" horiz-adv-x="721" 
d="M42 0l514 690h76l-514 -690h-76zM156 313h-73v290l-70 -36l-2 1v66l120 61h25v-382zM572 -7q-63 0 -114 29v62l3 2q50 -32 102 -32q32 0 49 15.5t17 40.5q0 56 -70 56h-41v56h36q63 0 63 52q0 49 -61 49q-43 0 -87 -26l-3 2v59q40 24 102 24q55 0 89.5 -25.5t34.5 -74.5
q0 -62 -62 -83q75 -19 75 -92q0 -54 -35 -84t-98 -30z" />
    <glyph glyph-name="twothirds" unicode="&#x2154;" horiz-adv-x="766" 
d="M1 313v25l125 142q47 53 47 100q0 54 -60 54q-46 0 -89 -28l-3 2v61q41 26 104 26q57 0 90.5 -29t33.5 -80q0 -60 -69 -141l-67 -74h141v-58h-253zM617 -7q-63 0 -114 29v62l3 2q50 -32 102 -32q32 0 49 15.5t17 40.5q0 56 -70 56h-41v56h36q63 0 63 52q0 49 -61 49
q-43 0 -87 -26l-3 2v59q40 24 102 24q55 0 89.5 -25.5t34.5 -74.5q0 -62 -62 -83q75 -19 75 -92q0 -54 -35 -84t-98 -30zM86 0l514 690h76l-514 -690h-76z" />
    <glyph glyph-name="oneeighth" unicode="&#x215b;" horiz-adv-x="728" 
d="M41 0l514 690h76l-514 -690h-76zM156 313h-73v290l-70 -36l-2 1v66l120 61h25v-382zM577 -7q-63 0 -101 28t-38 76q0 62 71 89q-61 31 -61 93q0 47 36 75t89 28q58 0 93.5 -25t35.5 -76q0 -53 -60 -81q71 -33 71 -98q0 -51 -36.5 -80t-99.5 -29zM589 218h2q42 26 42 59
q0 24 -15.5 37.5t-42.5 13.5q-26 0 -40 -13t-14 -34q0 -38 68 -63zM576 48q30 0 46.5 14t16.5 37q0 22 -17.5 37.5t-60.5 29.5l-4 1q-48 -23 -48 -64q0 -55 67 -55z" />
    <glyph glyph-name="threeeighths" unicode="&#x215c;" horiz-adv-x="791" 
d="M104 0l514 690h76l-514 -690h-76zM640 -7q-63 0 -101 28t-38 76q0 62 71 89q-61 31 -61 93q0 47 36 75t89 28q58 0 93.5 -25t35.5 -76q0 -53 -60 -81q71 -33 71 -98q0 -51 -36.5 -80t-99.5 -29zM652 218h2q42 26 42 59q0 24 -15.5 37.5t-42.5 13.5q-26 0 -40 -13t-14 -34
q0 -38 68 -63zM639 48q30 0 46.5 14t16.5 37q0 22 -17.5 37.5t-60.5 29.5l-4 1q-48 -23 -48 -64q0 -55 67 -55zM130 306q-63 0 -114 29v62l3 2q50 -32 102 -32q32 0 49 15.5t17 40.5q0 56 -70 56h-41v56h36q63 0 63 52q0 49 -61 49q-43 0 -87 -26l-3 2v59q40 24 102 24
q55 0 89.5 -25.5t34.5 -74.5q0 -62 -62 -83q75 -19 75 -92q0 -54 -35 -84t-98 -30z" />
    <glyph glyph-name="fiveeighths" unicode="&#x215d;" horiz-adv-x="774" 
d="M88 0l514 690h76l-514 -690h-76zM123 306q-65 0 -108 28v60l4 2q46 -30 93 -30q74 0 74 64q0 59 -80 59q-28 0 -69 -11l-3 2v208h211v-58h-147v-86q18 2 30 2q63 0 98.5 -30t35.5 -84q0 -58 -37 -92t-102 -34zM623 -7q-63 0 -101 28t-38 76q0 62 71 89q-61 31 -61 93
q0 47 36 75t89 28q58 0 93.5 -25t35.5 -76q0 -53 -60 -81q71 -33 71 -98q0 -51 -36.5 -80t-99.5 -29zM635 218h2q42 26 42 59q0 24 -15.5 37.5t-42.5 13.5q-26 0 -40 -13t-14 -34q0 -38 68 -63zM622 48q30 0 46.5 14t16.5 37q0 22 -17.5 37.5t-60.5 29.5l-4 1
q-48 -23 -48 -64q0 -55 67 -55z" />
    <glyph glyph-name="seveneighths" unicode="&#x215e;" horiz-adv-x="743" 
d="M45 0l514 690h76l-514 -690h-76zM128 313h-77q17 86 96 239l38 75h-173v61h265v-25l-62 -123q-72 -145 -87 -227zM592 -7q-63 0 -101 28t-38 76q0 62 71 89q-61 31 -61 93q0 47 36 75t89 28q58 0 93.5 -25t35.5 -76q0 -53 -60 -81q71 -33 71 -98q0 -51 -36.5 -80
t-99.5 -29zM604 218h2q42 26 42 59q0 24 -15.5 37.5t-42.5 13.5q-26 0 -40 -13t-14 -34q0 -38 68 -63zM591 48q30 0 46.5 14t16.5 37q0 22 -17.5 37.5t-60.5 29.5l-4 1q-48 -23 -48 -64q0 -55 67 -55z" />
    <glyph glyph-name="minus" unicode="&#x2212;" horiz-adv-x="528" 
d="M57 310v72h414v-72h-414z" />
    <glyph glyph-name="uni24C5" unicode="&#x24c5;" horiz-adv-x="792" 
d="M36 352q0 159 103 262t257 103t257 -103t103 -262q0 -158 -103 -261t-257 -103t-257 103t-103 261zM698 352q0 135 -85.5 225t-216.5 90q-129 0 -215.5 -90t-86.5 -225q0 -133 86.5 -223.5t215.5 -90.5q130 0 216 90t86 224zM408 488h-58v-115h58q67 0 67 59
q0 29 -16 42.5t-51 13.5zM413 313h-63v-151h-75v387h133q144 0 144 -118t-139 -118z" />
    <glyph glyph-name="J.alt" unicode="&#xe489;" horiz-adv-x="378" 
d="M115 -6q-56 0 -101 22v73l4 2q35 -19 85 -19q59 0 86.5 28t27.5 97v508h90v-513q0 -106 -54.5 -152t-137.5 -46z" />
    <glyph glyph-name="K.alt" unicode="&#xe48a;" horiz-adv-x="596" 
d="M81 0v705h90v-705h-90zM584 0h-103l-291 366l269 339h97v-5l-264 -328l292 -367v-5z" />
    <glyph glyph-name="M.alt" unicode="&#xe48c;" horiz-adv-x="853" 
d="M702 0l-55 473l-214 -481h-26l-212 476l-47 -468h-87l76 716h34l252 -559l251 559h32l86 -716h-90z" />
    <glyph glyph-name="Q.alt" unicode="&#xe490;" horiz-adv-x="771" 
d="M386 66q84 0 145 39l-148 149l2 11h98l104 -105q54 74 54 195q0 130 -70 207t-185 77t-185.5 -77t-70.5 -207q0 -131 70.5 -210t185.5 -79zM635 0l-50 50q-89 -62 -199 -62q-151 0 -250.5 105t-99.5 262q0 156 99.5 259t250.5 103q152 0 250.5 -103t98.5 -259
q0 -148 -91 -252l91 -92l-2 -11h-98z" />
    <glyph glyph-name="W.alt" unicode="&#xe496;" horiz-adv-x="914" 
d="M652 -13l-195 525l-196 -525h-20l-227 713v5h93l153 -499l188 505h23l189 -505l151 499h89v-5l-228 -713h-20z" />
    <glyph glyph-name="a.alt" unicode="&#xe4c0;" horiz-adv-x="572" 
d="M440 0l-10 66q-62 -78 -164 -78q-103 0 -169.5 72t-66.5 193q0 125 68 202t175 77q91 0 152 -69l7 57h74v-520h-66zM273 62q91 0 147 61v279q-58 56 -143 56q-67 0 -114 -53t-47 -152q0 -95 45.5 -143t111.5 -48z" />
    <glyph glyph-name="g.alt" unicode="&#xe4c6;" horiz-adv-x="575" 
d="M275 62q93 0 151 61v279q-61 56 -147 56q-71 0 -117 -53t-46 -153q0 -96 44.5 -143t114.5 -47zM264 -222q-120 0 -187 42v78l4 2q73 -46 173 -46q172 0 172 135v67q-62 -68 -158 -68q-106 0 -172 71.5t-66 192.5q0 126 67 203t178 77q94 0 155 -69l5 57h77v-525
q0 -115 -68 -166t-180 -51z" />
    <glyph glyph-name="k.alt" unicode="&#xe4ca;" horiz-adv-x="485" 
d="M66 0v734l86 23v-757h-86zM480 0h-101l-221 272l205 248h91v-5l-198 -237l224 -273v-5z" />
    <glyph glyph-name="l.alt" unicode="&#xe4cb;" horiz-adv-x="256" 
d="M178 -2q-112 0 -112 116v620l86 23v-640q0 -45 40 -45q20 0 41 7l3 -2v-67q-26 -12 -58 -12z" />
    <glyph glyph-name="t.alt" unicode="&#xe4d3;" horiz-adv-x="337" 
d="M306 448h-109v-448h-86v448h-82v72h82v109l86 14v-123h109v-72z" />
    <glyph glyph-name="y.alt" unicode="&#xe4d8;" horiz-adv-x="494" 
d="M204 -210h-92v5l95 233l-200 487v5h93l153 -394l149 394h85v-5z" />
    <glyph glyph-name="k.alt1" unicode="&#xe4ea;" horiz-adv-x="507" 
d="M301 460q-44 0 -77.5 -16.5t-71.5 -49.5v-394h-86v734l86 23v-303q71 78 164 78q76 0 115 -37.5t39 -99.5q0 -122 -163 -186l181 -203v-6h-96l-192 211v17q184 60 184 161q0 71 -83 71z" />
    <glyph glyph-name="y.alt1" unicode="&#xe4f8;" horiz-adv-x="551" 
d="M264 -222q-113 0 -180 42v78l4 2q73 -46 166 -46q79 0 113 34.5t34 100.5v59q-78 -60 -167 -60q-82 0 -128 43.5t-46 123.5v365h86v-347q0 -113 109 -113q82 0 146 45v415h86v-525q0 -115 -61 -166t-162 -51z" />
    <glyph glyph-name="NULL" horiz-adv-x="0" 
 />
    <glyph glyph-name="CR" horiz-adv-x="333" 
 />
    <glyph glyph-name="idotaccent" horiz-adv-x="226" 
d="M70 624v91h86v-91h-86zM70 0v520h86v-520h-86z" />
    <glyph glyph-name="space_uni0326" horiz-adv-x="400" 
d="M141 -213l9 155h95v-8l-34 -147h-70z" />
    <glyph glyph-name="zero.num" horiz-adv-x="348" 
d="M174 306q-69 0 -113 53t-44 143t43.5 141.5t113.5 51.5q71 0 113.5 -51t43.5 -142q0 -91 -43 -143.5t-114 -52.5zM174 366q77 0 77 136q0 133 -77 133t-77 -133q0 -136 77 -136z" />
    <glyph glyph-name="one.num" horiz-adv-x="203" 
d="M156 313h-73v290l-70 -36l-2 1v66l120 61h25v-382z" />
    <glyph glyph-name="two.num" horiz-adv-x="274" 
d="M1 313v25l125 142q47 53 47 100q0 54 -60 54q-46 0 -89 -28l-3 2v61q41 26 104 26q57 0 90.5 -29t33.5 -80q0 -60 -69 -141l-67 -74h141v-58h-253z" />
    <glyph glyph-name="three.num" horiz-adv-x="279" 
d="M130 306q-63 0 -114 29v62l3 2q50 -32 102 -32q32 0 49 15.5t17 40.5q0 56 -70 56h-41v56h36q63 0 63 52q0 49 -61 49q-43 0 -87 -26l-3 2v59q40 24 102 24q55 0 89.5 -25.5t34.5 -74.5q0 -62 -62 -83q75 -19 75 -92q0 -54 -35 -84t-98 -30z" />
    <glyph glyph-name="four.num" horiz-adv-x="305" 
d="M175 440v120l-91 -120h91zM299 384h-53v-71h-71v71h-179v30l215 282h35v-256h53v-56z" />
    <glyph glyph-name="five.num" horiz-adv-x="279" 
d="M123 306q-65 0 -108 28v60l4 2q46 -30 93 -30q74 0 74 64q0 59 -80 59q-28 0 -69 -11l-3 2v208h211v-58h-147v-86q18 2 30 2q63 0 98.5 -30t35.5 -84q0 -58 -37 -92t-102 -34z" />
    <glyph glyph-name="six.num" horiz-adv-x="311" 
d="M298 432q0 -54 -34.5 -90t-97.5 -36q-70 0 -109 47t-39 133q0 102 48 155.5t123 53.5q52 0 84 -18v-63l-4 -2q-29 23 -74 23q-88 0 -99 -115q36 30 86 30t83 -31t33 -87zM164 364q58 0 58 68q0 65 -62 65q-36 0 -65 -23q5 -110 69 -110z" />
    <glyph glyph-name="seven.num" horiz-adv-x="280" 
d="M128 313h-77q17 86 96 239l38 75h-173v61h265v-25l-62 -123q-72 -145 -87 -227z" />
    <glyph glyph-name="eight.num" horiz-adv-x="305" 
d="M154 306q-63 0 -101 28t-38 76q0 62 71 89q-61 31 -61 93q0 47 36 75t89 28q58 0 93.5 -25t35.5 -76q0 -53 -60 -81q71 -33 71 -98q0 -51 -36.5 -80t-99.5 -29zM166 531h2q42 25 42 59q0 24 -15.5 37.5t-42.5 13.5q-26 0 -40 -13t-14 -34q0 -38 68 -63zM153 361
q30 0 46.5 14t16.5 37q0 22 -17.5 37.5t-60.5 29.5l-4 1q-48 -23 -48 -64q0 -55 67 -55z" />
    <glyph glyph-name="nine.num" horiz-adv-x="311" 
d="M151 505q33 0 65 22q-3 110 -67 110q-60 0 -60 -67q0 -65 62 -65zM116 306q-54 0 -85 19v63l4 1q34 -23 75 -23q48 0 74 26t31 89q-34 -29 -85 -29q-53 0 -85 30t-32 88q0 54 35.5 89.5t98.5 35.5q70 0 107.5 -46t37.5 -133q0 -108 -47 -159t-129 -51z" />
    <glyph glyph-name="zero.den" horiz-adv-x="348" 
d="M174 -7q-69 0 -113 53t-44 143t43.5 141.5t113.5 51.5q71 0 113.5 -51t43.5 -142q0 -91 -43 -143.5t-114 -52.5zM174 53q77 0 77 136q0 133 -77 133t-77 -133q0 -136 77 -136z" />
    <glyph glyph-name="one.den" horiz-adv-x="203" 
d="M156 0h-73v290l-70 -36l-2 1v66l120 61h25v-382z" />
    <glyph glyph-name="two.den" horiz-adv-x="274" 
d="M1 0v25l125 142q47 53 47 100q0 54 -60 54q-46 0 -89 -28l-3 2v61q41 26 104 26q57 0 90.5 -29t33.5 -80q0 -60 -69 -141l-67 -74h141v-58h-253z" />
    <glyph glyph-name="three.den" horiz-adv-x="279" 
d="M130 -7q-63 0 -114 29v62l3 2q50 -32 102 -32q32 0 49 15.5t17 40.5q0 56 -70 56h-41v56h36q63 0 63 52q0 49 -61 49q-43 0 -87 -26l-3 2v59q40 24 102 24q55 0 89.5 -25.5t34.5 -74.5q0 -62 -62 -83q75 -19 75 -92q0 -54 -35 -84t-98 -30z" />
    <glyph glyph-name="four.den" horiz-adv-x="305" 
d="M175 127v120l-91 -120h91zM299 71h-53v-71h-71v71h-179v30l215 282h35v-256h53v-56z" />
    <glyph glyph-name="five.den" horiz-adv-x="279" 
d="M123 -7q-65 0 -108 28v60l4 2q46 -30 93 -30q74 0 74 64q0 59 -80 59q-28 0 -69 -11l-3 2v208h211v-58h-147v-86q18 2 30 2q63 0 98.5 -30t35.5 -84q0 -58 -37 -92t-102 -34z" />
    <glyph glyph-name="six.den" horiz-adv-x="311" 
d="M298 119q0 -54 -34.5 -90t-97.5 -36q-70 0 -109 47t-39 133q0 102 48 155.5t123 53.5q52 0 84 -18v-63l-4 -2q-29 23 -74 23q-88 0 -99 -115q36 30 86 30t83 -31t33 -87zM164 51q58 0 58 68q0 65 -62 65q-36 0 -65 -23q5 -110 69 -110z" />
    <glyph glyph-name="seven.den" horiz-adv-x="280" 
d="M128 0h-77q17 86 96 239l38 75h-173v61h265v-25l-62 -123q-72 -145 -87 -227z" />
    <glyph glyph-name="eight.den" horiz-adv-x="305" 
d="M154 -7q-63 0 -101 28t-38 76q0 62 71 89q-61 31 -61 93q0 47 36 75t89 28q58 0 93.5 -25t35.5 -76q0 -53 -60 -81q71 -33 71 -98q0 -51 -36.5 -80t-99.5 -29zM166 218h2q42 26 42 59q0 24 -15.5 37.5t-42.5 13.5q-26 0 -40 -13t-14 -34q0 -38 68 -63zM153 48
q30 0 46.5 14t16.5 37q0 22 -17.5 37.5t-60.5 29.5l-4 1q-48 -23 -48 -64q0 -55 67 -55z" />
    <glyph glyph-name="nine.den" horiz-adv-x="311" 
d="M151 192q33 0 65 22q-3 110 -67 110q-60 0 -60 -67q0 -65 62 -65zM116 -7q-54 0 -85 19v63l4 1q34 -23 75 -23q48 0 74 26t31 89q-34 -29 -85 -29q-53 0 -85 30t-32 88q0 54 35.5 89.5t98.5 35.5q70 0 107.5 -46t37.5 -133q0 -108 -47 -159t-129 -51z" />
    <glyph glyph-name="zero.sub" horiz-adv-x="348" 
d="M174 -97q-69 0 -113 53t-44 143t43.5 141.5t113.5 51.5q71 0 113.5 -51t43.5 -142q0 -91 -43 -143.5t-114 -52.5zM174 -37q77 0 77 136q0 133 -77 133t-77 -133q0 -136 77 -136z" />
    <glyph glyph-name="one.sub" horiz-adv-x="203" 
d="M156 -90h-73v290l-70 -36l-2 1v66l120 61h25v-382z" />
    <glyph glyph-name="two.sub" horiz-adv-x="274" 
d="M1 -90v25l125 142q47 53 47 100q0 54 -60 54q-46 0 -89 -28l-3 2v61q41 26 104 26q57 0 90.5 -29t33.5 -80q0 -60 -69 -141l-67 -74h141v-58h-253z" />
    <glyph glyph-name="three.sub" horiz-adv-x="279" 
d="M130 -97q-63 0 -114 29v62l3 2q50 -32 102 -32q32 0 49 15.5t17 40.5q0 56 -70 56h-41v56h36q63 0 63 52q0 49 -61 49q-43 0 -87 -26l-3 2v59q40 24 102 24q55 0 89.5 -25.5t34.5 -74.5q0 -62 -62 -83q75 -19 75 -92q0 -54 -35 -84t-98 -30z" />
    <glyph glyph-name="four.sub" horiz-adv-x="305" 
d="M175 37v120l-91 -120h91zM299 -19h-53v-71h-71v71h-179v30l215 282h35v-256h53v-56z" />
    <glyph glyph-name="five.sub" horiz-adv-x="279" 
d="M123 -100q-65 0 -108 28v60l4 2q46 -30 93 -30q74 0 74 64q0 59 -80 59q-28 0 -69 -11l-3 2v208h211v-58h-147v-86q18 2 30 2q63 0 98.5 -30t35.5 -84q0 -58 -37 -92t-102 -34z" />
    <glyph glyph-name="six.sub" horiz-adv-x="311" 
d="M298 29q0 -54 -34.5 -90t-97.5 -36q-70 0 -109 47t-39 133q0 102 48 155.5t123 53.5q52 0 84 -18v-63l-4 -2q-29 23 -74 23q-88 0 -99 -115q36 30 86 30t83 -31t33 -87zM164 -39q58 0 58 68q0 65 -62 65q-36 0 -65 -23q5 -110 69 -110z" />
    <glyph glyph-name="seven.sub" horiz-adv-x="280" 
d="M128 -90h-77q17 86 96 239l38 75h-173v61h265v-25l-62 -123q-72 -145 -87 -227z" />
    <glyph glyph-name="eight.sub" horiz-adv-x="305" 
d="M154 -97q-63 0 -101 28t-38 76q0 62 71 89q-61 31 -61 93q0 47 36 75t89 28q58 0 93.5 -25t35.5 -76q0 -53 -60 -81q71 -33 71 -98q0 -51 -36.5 -80t-99.5 -29zM166 128h2q42 26 42 59q0 24 -15.5 37.5t-42.5 13.5q-26 0 -40 -13t-14 -34q0 -38 68 -63zM153 -42
q30 0 46.5 14t16.5 37q0 22 -17.5 37.5t-60.5 29.5l-4 1q-48 -23 -48 -64q0 -55 67 -55z" />
    <glyph glyph-name="nine.sub" horiz-adv-x="311" 
d="M151 102q33 0 65 22q-3 110 -67 110q-60 0 -60 -67q0 -65 62 -65zM116 -97q-54 0 -85 19v63l4 1q34 -23 75 -23q48 0 74 26t31 89q-34 -29 -85 -29q-53 0 -85 30t-32 88q0 54 35.5 89.5t98.5 35.5q70 0 107.5 -46t37.5 -133q0 -108 -47 -159t-129 -51z" />
    <glyph glyph-name="plus.sub" horiz-adv-x="324" 
d="M132 -49v117h-105v58h105v117h60v-117h105v-58h-105v-117h-60z" />
    <glyph glyph-name="minus.sub" horiz-adv-x="324" 
d="M27 68v58h270v-58h-270z" />
    <glyph glyph-name="zero.sup" horiz-adv-x="348" 
d="M174 366q-69 0 -113 53t-44 143t43.5 141.5t113.5 51.5q71 0 113.5 -51t43.5 -142q0 -91 -43 -143.5t-114 -52.5zM174 426q77 0 77 136q0 133 -77 133t-77 -133q0 -136 77 -136z" />
    <glyph glyph-name="one.sup" horiz-adv-x="203" 
d="M156 373h-73v290l-70 -36l-2 1v66l120 61h25v-382z" />
    <glyph glyph-name="two.sup" horiz-adv-x="274" 
d="M1 373v25l125 142q47 53 47 100q0 54 -60 54q-46 0 -89 -28l-3 2v61q41 26 104 26q57 0 90.5 -29t33.5 -80q0 -60 -69 -141l-67 -74h141v-58h-253z" />
    <glyph glyph-name="three.sup" horiz-adv-x="279" 
d="M130 366q-63 0 -114 29v62l3 2q50 -32 102 -32q32 0 49 15.5t17 40.5q0 56 -70 56h-41v56h36q63 0 63 52q0 49 -61 49q-43 0 -87 -26l-3 2v59q40 24 102 24q55 0 89.5 -25.5t34.5 -74.5q0 -62 -62 -83q75 -19 75 -92q0 -54 -35 -84t-98 -30z" />
    <glyph glyph-name="four.sup" horiz-adv-x="305" 
d="M175 500v120l-91 -120h91zM299 444h-53v-71h-71v71h-179v30l215 282h35v-256h53v-56z" />
    <glyph glyph-name="five.sup" horiz-adv-x="279" 
d="M123 366q-65 0 -108 28v60l4 2q46 -30 93 -30q74 0 74 64q0 59 -80 59q-28 0 -69 -11l-3 2v208h211v-58h-147v-86q18 2 30 2q63 0 98.5 -30t35.5 -84q0 -58 -37 -92t-102 -34z" />
    <glyph glyph-name="six.sup" horiz-adv-x="311" 
d="M298 492q0 -54 -34.5 -90t-97.5 -36q-70 0 -109 47t-39 133q0 102 48 155.5t123 53.5q52 0 84 -18v-63l-4 -2q-29 23 -74 23q-88 0 -99 -115q36 30 86 30t83 -31t33 -87zM164 424q58 0 58 68q0 65 -62 65q-36 0 -65 -23q5 -110 69 -110z" />
    <glyph glyph-name="seven.sup" horiz-adv-x="280" 
d="M128 373h-77q17 86 96 239l38 75h-173v61h265v-25l-62 -123q-72 -145 -87 -227z" />
    <glyph glyph-name="eight.sup" horiz-adv-x="305" 
d="M154 366q-63 0 -101 28t-38 76q0 62 71 89q-61 31 -61 93q0 47 36 75t89 28q58 0 93.5 -25t35.5 -76q0 -53 -60 -81q71 -33 71 -98q0 -51 -36.5 -80t-99.5 -29zM166 591h2q42 25 42 59q0 24 -15.5 37.5t-42.5 13.5q-26 0 -40 -13t-14 -34q0 -38 68 -63zM153 421
q30 0 46.5 14t16.5 37q0 22 -17.5 37.5t-60.5 29.5l-4 1q-48 -23 -48 -64q0 -55 67 -55z" />
    <glyph glyph-name="nine.sup" horiz-adv-x="311" 
d="M151 565q33 0 65 22q-3 110 -67 110q-60 0 -60 -67q0 -65 62 -65zM116 366q-54 0 -85 19v63l4 1q34 -23 75 -23q48 0 74 26t31 89q-34 -29 -85 -29q-53 0 -85 30t-32 88q0 54 35.5 89.5t98.5 35.5q70 0 107.5 -46t37.5 -133q0 -108 -47 -159t-129 -51z" />
    <glyph glyph-name="plus.sup" horiz-adv-x="324" 
d="M132 414v117h-105v58h105v117h60v-117h105v-58h-105v-117h-60z" />
    <glyph glyph-name="minus.sup" horiz-adv-x="324" 
d="M27 531v58h270v-58h-270z" />
    <glyph glyph-name="IJ.alt" horiz-adv-x="629" 
d="M83 0v705h90v-705h-90zM374 -6q-56 0 -101 22v73l4 2q35 -19 85 -19q59 0 86.5 28t27.5 97v508h90v-513q0 -106 -54.5 -152t-137.5 -46z" />
    <glyph glyph-name="Jcircumflex.alt" horiz-adv-x="378" 
d="M115 -6q-56 0 -101 22v73l4 2q35 -19 85 -19q59 0 86.5 28t27.5 97v508h90v-513q0 -106 -54.5 -152t-137.5 -46zM265 851l-81 -88h-85l122 156h86l122 -156h-85z" />
    <glyph glyph-name="Kcommaaccent.alt" horiz-adv-x="596" 
d="M81 0v705h90v-705h-90zM584 0h-103l-291 366l269 339h97v-5l-264 -328l292 -367v-5zM262 -213l9 155h95v-8l-34 -147h-70z" />
    <glyph glyph-name="Wacute.alt" horiz-adv-x="914" 
d="M652 -13l-195 525l-196 -525h-20l-227 713v5h93l153 -499l188 505h23l189 -505l151 499h89v-5l-228 -713h-20zM497 763h-83l88 145h109z" />
    <glyph glyph-name="Wcircumflex.alt" horiz-adv-x="914" 
d="M652 -13l-195 525l-196 -525h-20l-227 713v5h93l153 -499l188 505h23l189 -505l151 499h89v-5l-228 -713h-20zM458 851l-81 -88h-85l122 156h86l122 -156h-85z" />
    <glyph glyph-name="Wdieresis.alt" horiz-adv-x="914" 
d="M652 -13l-195 525l-196 -525h-20l-227 713v5h93l153 -499l188 505h23l189 -505l151 499h89v-5l-228 -713h-20zM515 770v91h92v-91h-92zM307 770v91h92v-91h-92z" />
    <glyph glyph-name="Wgrave.alt" horiz-adv-x="914" 
d="M652 -13l-195 525l-196 -525h-20l-227 713v5h93l153 -499l188 505h23l189 -505l151 499h89v-5l-228 -713h-20zM421 763l-114 145h109l88 -145h-83z" />
    <glyph glyph-name="aacute.alt" horiz-adv-x="572" 
d="M427 722l-96 -130h-70l74 130h92zM440 0l-10 66q-62 -78 -164 -78q-103 0 -169.5 72t-66.5 193q0 125 68 202t175 77q91 0 152 -69l7 57h74v-520h-66zM273 62q91 0 147 61v279q-58 56 -143 56q-67 0 -114 -53t-47 -152q0 -95 45.5 -143t111.5 -48z" />
    <glyph glyph-name="abreve.alt" horiz-adv-x="572" 
d="M318 595q-60 0 -94.5 32t-38.5 91h65q8 -60 67 -60q61 0 68 60h65q-4 -59 -38 -91t-94 -32zM440 0l-10 66q-62 -78 -164 -78q-103 0 -169.5 72t-66.5 193q0 125 68 202t175 77q91 0 152 -69l7 57h74v-520h-66zM273 62q91 0 147 61v279q-58 56 -143 56q-67 0 -114 -53
t-47 -152q0 -95 45.5 -143t111.5 -48z" />
    <glyph glyph-name="acircumflex.alt" horiz-adv-x="572" 
d="M307 661l-60 -69h-76l101 130h72l101 -130h-76zM440 0l-10 66q-62 -78 -164 -78q-103 0 -169.5 72t-66.5 193q0 125 68 202t175 77q91 0 152 -69l7 57h74v-520h-66zM273 62q91 0 147 61v279q-58 56 -143 56q-67 0 -114 -53t-47 -152q0 -95 45.5 -143t111.5 -48z" />
    <glyph glyph-name="adieresis.alt" horiz-adv-x="572" 
d="M440 0l-10 66q-62 -78 -164 -78q-103 0 -169.5 72t-66.5 193q0 125 68 202t175 77q91 0 152 -69l7 57h74v-520h-66zM273 62q91 0 147 61v279q-58 56 -143 56q-67 0 -114 -53t-47 -152q0 -95 45.5 -143t111.5 -48zM150 639v91h92v-91h-92zM330 639v91h92v-91h-92z" />
    <glyph glyph-name="agrave.alt" horiz-adv-x="572" 
d="M300 602l-96 130h95l74 -130h-73zM440 0l-10 66q-62 -78 -164 -78q-103 0 -169.5 72t-66.5 193q0 125 68 202t175 77q91 0 152 -69l7 57h74v-520h-66zM273 62q91 0 147 61v279q-58 56 -143 56q-67 0 -114 -53t-47 -152q0 -95 45.5 -143t111.5 -48z" />
    <glyph glyph-name="amacron.alt" horiz-adv-x="572" 
d="M440 0l-10 66q-62 -78 -164 -78q-103 0 -169.5 72t-66.5 193q0 125 68 202t175 77q91 0 152 -69l7 57h74v-520h-66zM273 62q91 0 147 61v279q-58 56 -143 56q-67 0 -114 -53t-47 -152q0 -95 45.5 -143t111.5 -48zM140 651v73h292v-73h-292z" />
    <glyph glyph-name="aogonek.alt" horiz-adv-x="572" 
d="M527 -140v-66q-30 -16 -66 -16q-62 0 -93.5 26t-31.5 72q0 80 102 136l-8 54q-62 -78 -164 -78q-103 0 -169.5 72t-66.5 193q0 125 68 202t175 77q91 0 152 -69l7 57h74v-520q-41 -23 -63 -52.5t-22 -54.5q0 -22 11 -32.5t39 -10.5q27 0 53 12zM273 62q91 0 147 61v279
q-58 56 -143 56q-67 0 -114 -53t-47 -152q0 -95 45.5 -143t111.5 -48z" />
    <glyph glyph-name="aring.alt" horiz-adv-x="572" 
d="M440 0l-10 66q-62 -78 -164 -78q-103 0 -169.5 72t-66.5 193q0 125 68 202t175 77q91 0 152 -69l7 57h74v-520h-66zM273 62q91 0 147 61v279q-58 56 -143 56q-67 0 -114 -53t-47 -152q0 -95 45.5 -143t111.5 -48zM286 591q-51 0 -82 30.5t-31 78.5t31 78.5t82 30.5
t82 -30.5t31 -78.5t-31 -78.5t-82 -30.5zM286 755q-23 0 -37 -15.5t-14 -39.5t14 -39.5t37 -15.5q24 0 38 15.5t14 39.5t-14 39.5t-38 15.5z" />
    <glyph glyph-name="aringacute.alt" horiz-adv-x="572" 
d="M440 0l-10 66q-62 -78 -164 -78q-103 0 -169.5 72t-66.5 193q0 125 68 202t175 77q91 0 152 -69l7 57h74v-520h-66zM273 62q91 0 147 61v279q-58 56 -143 56q-67 0 -114 -53t-47 -152q0 -95 45.5 -143t111.5 -48zM286 591q-51 0 -82 30.5t-31 78.5t31 78.5t82 30.5
t82 -30.5t31 -78.5t-31 -78.5t-82 -30.5zM286 755q-23 0 -37 -15.5t-14 -39.5t14 -39.5t37 -15.5q24 0 38 15.5t14 39.5t-14 39.5t-38 15.5zM328 833h-83l88 145h109z" />
    <glyph glyph-name="atilde.alt" horiz-adv-x="572" 
d="M373 675q32 -5 61 32l5 -3l20 -55q-37 -49 -91 -44q-29 3 -59 19t-43 17q-39 4 -65 -31l-4 4l-17 58q38 44 91 38q27 -2 58 -17.5t44 -17.5zM440 0l-10 66q-62 -78 -164 -78q-103 0 -169.5 72t-66.5 193q0 125 68 202t175 77q91 0 152 -69l7 57h74v-520h-66zM273 62
q91 0 147 61v279q-58 56 -143 56q-67 0 -114 -53t-47 -152q0 -95 45.5 -143t111.5 -48z" />
    <glyph glyph-name="gbreve.alt" horiz-adv-x="575" 
d="M275 62q93 0 151 61v279q-61 56 -147 56q-71 0 -117 -53t-46 -153q0 -96 44.5 -143t114.5 -47zM264 -222q-120 0 -187 42v78l4 2q73 -46 173 -46q172 0 172 135v67q-62 -68 -158 -68q-106 0 -172 71.5t-66 192.5q0 126 67 203t178 77q94 0 155 -69l5 57h77v-525
q0 -115 -68 -166t-180 -51zM286 618q-61 0 -101.5 39.5t-44.5 103.5h70q12 -71 76 -71q63 0 75 71h70q-4 -64 -44 -103.5t-101 -39.5z" />
    <glyph glyph-name="gcircumflex.alt" horiz-adv-x="575" 
d="M275 62q93 0 151 61v279q-61 56 -147 56q-71 0 -117 -53t-46 -153q0 -96 44.5 -143t114.5 -47zM264 -222q-120 0 -187 42v78l4 2q73 -46 173 -46q172 0 172 135v67q-62 -68 -158 -68q-106 0 -172 71.5t-66 192.5q0 126 67 203t178 77q94 0 155 -69l5 57h77v-525
q0 -115 -68 -166t-180 -51zM284 701l-75 -91h-82l115 156h86l115 -156h-82z" />
    <glyph glyph-name="gcommaaccent.alt" horiz-adv-x="575" 
d="M275 62q93 0 151 61v279q-61 56 -147 56q-71 0 -117 -53t-46 -153q0 -96 44.5 -143t114.5 -47zM264 -222q-120 0 -187 42v78l4 2q73 -46 173 -46q172 0 172 135v67q-62 -68 -158 -68q-106 0 -172 71.5t-66 192.5q0 126 67 203t178 77q94 0 155 -69l5 57h77v-525
q0 -115 -68 -166t-180 -51zM334 765l-9 -155h-94l-2 3l35 152h70z" />
    <glyph glyph-name="gdotaccent.alt" horiz-adv-x="575" 
d="M275 62q93 0 151 61v279q-61 56 -147 56q-71 0 -117 -53t-46 -153q0 -96 44.5 -143t114.5 -47zM264 -222q-120 0 -187 42v78l4 2q73 -46 173 -46q172 0 172 135v67q-62 -68 -158 -68q-106 0 -172 71.5t-66 192.5q0 126 67 203t178 77q94 0 155 -69l5 57h77v-525
q0 -115 -68 -166t-180 -51zM237 637v95h96v-95h-96z" />
    <glyph glyph-name="germandbls.alt" horiz-adv-x="553" 
d="M210 9v75l2 2q42 -23 100 -23q51 0 89.5 38.5t38.5 101.5q0 78 -48 123.5t-140 73.5v56q66 17 100 48.5t34 85.5q0 44 -30.5 70.5t-79.5 26.5q-57 0 -90.5 -36.5t-33.5 -106.5v-544h-86v548q0 103 61 157t149 54q86 0 141 -45.5t55 -122.5q0 -62 -36 -100.5t-93 -55.5
q183 -64 183 -232q0 -98 -57 -156.5t-145 -58.5q-70 0 -114 21z" />
    <glyph glyph-name="kcommaaccent.alt" horiz-adv-x="485" 
d="M66 0v734l86 23v-757h-86zM480 0h-101l-221 272l205 248h91v-5l-198 -237l224 -273v-5zM208 -213l9 155h95v-8l-34 -147h-70z" />
    <glyph glyph-name="kcommaaccent.alt1" horiz-adv-x="507" 
d="M301 460q-44 0 -77.5 -16.5t-71.5 -49.5v-394h-86v734l86 23v-303q71 78 164 78q76 0 115 -37.5t39 -99.5q0 -122 -163 -186l181 -203v-6h-96l-192 211v17q184 60 184 161q0 71 -83 71zM207 -213l9 155h95v-8l-34 -147h-70z" />
    <glyph glyph-name="lacute.alt" horiz-adv-x="256" 
d="M178 -2q-112 0 -112 116v620l86 23v-640q0 -45 40 -45q20 0 41 7l3 -2v-67q-26 -12 -58 -12zM150 791h-83l88 145h109z" />
    <glyph glyph-name="lcaron.alt" horiz-adv-x="256" 
d="M178 -2q-112 0 -112 116v620l86 23v-640q0 -45 40 -45q20 0 41 7l3 -2v-67q-26 -12 -58 -12zM204 581l7 162h86v-8l-32 -154h-61z" />
    <glyph glyph-name="lcommaaccent.alt" horiz-adv-x="256" 
d="M178 -2q-112 0 -112 116v620l86 23v-640q0 -45 40 -45q20 0 41 7l3 -2v-67q-26 -12 -58 -12zM97 -213l9 155h95v-8l-34 -147h-70z" />
    <glyph glyph-name="ldot.alt" horiz-adv-x="288" 
d="M178 -2q-112 0 -112 116v620l86 23v-640q0 -45 40 -45q20 0 41 7l3 -2v-67q-26 -12 -58 -12zM215 326v93h97v-93h-97z" />
    <glyph glyph-name="lslash.alt" horiz-adv-x="274" 
d="M190 -2q-112 0 -112 116v229l-68 -40v78l68 40v313l86 23v-285l82 49v-78l-82 -49v-277q0 -45 40 -45q20 0 41 7l3 -2v-67q-26 -12 -58 -12z" />
    <glyph glyph-name="tbar.alt" horiz-adv-x="337" 
d="M306 277h-109v-277h-86v277h-82v63h82v108h-82v72h82v109l86 14v-123h109v-72h-109v-108h109v-63z" />
    <glyph glyph-name="tcaron.alt" horiz-adv-x="337" 
d="M306 448h-109v-448h-86v448h-82v72h82v109l86 14v-123h109v-72zM246 581l7 162h86v-8l-32 -154h-61z" />
    <glyph glyph-name="tcommaaccent.alt" horiz-adv-x="337" 
d="M306 448h-109v-448h-86v448h-82v72h82v109l86 14v-123h109v-72zM98 -213l9 155h95v-8l-34 -147h-70z" />
    <glyph glyph-name="yacute.alt" horiz-adv-x="494" 
d="M382 732l-96 -130h-70l74 130h92zM204 -210h-92v5l95 233l-200 487v5h93l153 -394l149 394h85v-5z" />
    <glyph glyph-name="yacute.alt1" horiz-adv-x="551" 
d="M410 732l-96 -130h-70l74 130h92zM264 -222q-113 0 -180 42v78l4 2q73 -46 166 -46q79 0 113 34.5t34 100.5v59q-78 -60 -167 -60q-82 0 -128 43.5t-46 123.5v365h86v-347q0 -113 109 -113q82 0 146 45v415h86v-525q0 -115 -61 -166t-162 -51z" />
    <glyph glyph-name="ycircumflex.alt" horiz-adv-x="494" 
d="M204 -210h-92v5l95 233l-200 487v5h93l153 -394l149 394h85v-5zM251 701l-75 -91h-82l115 156h86l115 -156h-82z" />
    <glyph glyph-name="ycircumflex.alt1" horiz-adv-x="551" 
d="M264 -222q-113 0 -180 42v78l4 2q73 -46 166 -46q79 0 113 34.5t34 100.5v59q-78 -60 -167 -60q-82 0 -128 43.5t-46 123.5v365h86v-347q0 -113 109 -113q82 0 146 45v415h86v-525q0 -115 -61 -166t-162 -51zM274 701l-75 -91h-82l115 156h86l115 -156h-82z" />
    <glyph glyph-name="ydieresis.alt" horiz-adv-x="494" 
d="M204 -210h-92v5l95 233l-200 487v5h93l153 -394l149 394h85v-5zM116 639v91h92v-91h-92zM296 639v91h92v-91h-92z" />
    <glyph glyph-name="ydieresis.alt1" horiz-adv-x="551" 
d="M264 -222q-113 0 -180 42v78l4 2q73 -46 166 -46q79 0 113 34.5t34 100.5v59q-78 -60 -167 -60q-82 0 -128 43.5t-46 123.5v365h86v-347q0 -113 109 -113q82 0 146 45v415h86v-525q0 -115 -61 -166t-162 -51zM139 639v91h92v-91h-92zM319 639v91h92v-91h-92z" />
    <glyph glyph-name="ygrave.alt" horiz-adv-x="494" 
d="M229 602l-96 130h95l74 -130h-73zM204 -210h-92v5l95 233l-200 487v5h93l153 -394l149 394h85v-5z" />
    <glyph glyph-name="ygrave.alt1" horiz-adv-x="551" 
d="M261 602l-96 130h95l74 -130h-73zM264 -222q-113 0 -180 42v78l4 2q73 -46 166 -46q79 0 113 34.5t34 100.5v59q-78 -60 -167 -60q-82 0 -128 43.5t-46 123.5v365h86v-347q0 -113 109 -113q82 0 146 45v415h86v-525q0 -115 -61 -166t-162 -51z" />
    <glyph glyph-name="space_uni0326.alt" horiz-adv-x="400" 
d="M244 765l-9 -155h-94l-2 3l35 152h70z" />
    <glyph glyph-name="ordfeminine.alt" horiz-adv-x="495" 
d="M236 303q43 0 69 12t51 39v228q-47 47 -117 47q-56 0 -95 -44t-39 -126q0 -79 37.5 -117.5t93.5 -38.5zM373 245l-9 57q-51 -67 -139 -67q-87 0 -144 60.5t-57 163.5q0 106 58.5 172t148.5 66q81 0 129 -59l6 49h72v-442h-65z" />
    <glyph glyph-name="asterisk.alt" horiz-adv-x="381" 
d="M268 397l-78 123l-78 -123l-56 44l91 104l-122 35l24 67l114 -54l-8 133h72l-9 -134l115 55l23 -67l-123 -35l91 -104z" />
    <glyph glyph-name="registered.alt" horiz-adv-x="792" 
d="M36 352q0 159 103 262t257 103t257 -103t103 -262q0 -158 -103 -261t-257 -103t-257 103t-103 261zM698 352q0 135 -85.5 225t-216.5 90q-129 0 -215.5 -90t-86.5 -225q0 -133 86.5 -223.5t215.5 -90.5q130 0 216 90t86 224zM396 488h-58v-115h58q67 0 67 59
q0 29 -16 42.5t-51 13.5zM481 162l-96 152h-47v-152h-75v387h132q143 0 143 -118q0 -84 -80 -105l99 -158v-6h-76z" />
    <glyph glyph-name="caron.alt" horiz-adv-x="400" 
d="M169 581l7 162h86v-8l-32 -154h-61z" />
    <glyph glyph-name="dollar.uc" horiz-adv-x="526" 
d="M127 536q0 -46 23.5 -73.5t83.5 -48.5l25 226q-66 0 -99 -28t-33 -76zM398 185q0 47 -22.5 69t-91.5 47l-27 -231q141 5 141 115zM234 -133h-63l15 128q-80 10 -147 48v92l4 2q79 -54 152 -64l28 250q-94 37 -138.5 83t-44.5 121q0 87 62 138.5t155 51.5h11l10 86h63
l-10 -91q63 -9 113 -39v-85l-4 -2q-67 41 -118 49l-28 -244q101 -34 147 -75t46 -125q0 -97 -66 -148.5t-173 -51.5z" />
    <glyph glyph-name="Euro.uc" horiz-adv-x="567" 
d="M546 129v-89q-84 -52 -168 -52q-123 0 -201 71.5t-100 199.5h-67v61h60q-1 11 -1 35q0 23 1 34h-60v61h67q21 128 97 197.5t194 69.5q95 0 162 -41v-82l-4 -2q-78 48 -154 48q-78 0 -129.5 -47.5t-68.5 -142.5h229v-61h-236q-1 -11 -1 -34q0 -24 1 -35h236v-61h-230
q33 -193 205 -193q43 0 79.5 15t84.5 50z" />
    <glyph glyph-name="sterling.uc" horiz-adv-x="532" 
d="M509 76v-76h-501v38q53 42 74 82.5t34 110.5l12 69h-68v67h80l31 177q17 95 66 134t133 39q75 0 129 -29v-79l-5 -2q-62 33 -124 33q-90 0 -108 -102l-31 -171h168v-67h-180l-9 -47l-4 -24t-4 -23l-4 -20t-5 -21t-6.5 -18t-9 -19t-10.5 -17t-14 -18t-18 -17h374z" />
    <glyph glyph-name="yen.uc" horiz-adv-x="574" 
d="M506 144h-172v-144h-91v144h-169v61h169v70h-169v61h164l-214 364v5h98l166 -298l171 298h91v-5l-212 -364h168v-61h-172v-70h172v-61z" />
    <glyph glyph-name="zero.uc" horiz-adv-x="631" 
d="M317 -12q-127 0 -204.5 99.5t-77.5 267.5t77.5 265t204.5 97t203 -97t76 -265t-76.5 -267.5t-202.5 -99.5zM317 66q84 0 133 74t49 215t-48.5 212.5t-133.5 71.5t-135 -72t-50 -212q0 -141 50.5 -215t134.5 -74z" />
    <glyph glyph-name="one.uc" horiz-adv-x="353" 
d="M257 0h-93v591l-140 -76l-4 2v81l205 112h32v-710z" />
    <glyph glyph-name="two.uc" horiz-adv-x="497" 
d="M15 0v31l248 280q97 109 97 213q0 51 -32.5 83.5t-100.5 32.5q-56 0 -93 -13t-88 -43l-5 3v82q87 48 189 48q98 0 159.5 -52t61.5 -141q0 -68 -33 -131t-99 -138l-159 -179h302v-76h-447z" />
    <glyph glyph-name="three.uc" horiz-adv-x="517" 
d="M242 -12q-114 0 -213 55v88l4 2q52 -34 97.5 -50t108.5 -16q74 0 113 35.5t39 93.5q0 61 -40.5 96.5t-127.5 35.5h-78v79h70q80 0 115 34t35 87q0 112 -137 112q-57 0 -92 -11.5t-84 -40.5l-5 2v82q74 45 184 45q99 0 161.5 -47t62.5 -141q0 -55 -30.5 -95t-83.5 -61
q141 -39 141 -172q0 -99 -64.5 -156t-175.5 -57z" />
    <glyph glyph-name="four.uc" horiz-adv-x="543" 
d="M336 245v280l-215 -280h215zM537 172h-108v-172h-93v172h-333v37l383 501h43v-465h108v-73z" />
    <glyph glyph-name="five.uc" horiz-adv-x="494" 
d="M205 -12q-109 0 -192 52v87l4 2q89 -63 188 -63q81 0 121 39.5t40 107.5q0 66 -42 102.5t-120 36.5q-89 0 -147 -22l-5 2v373h373v-76h-293v-210q37 8 87 8q106 0 172.5 -58t66.5 -151q0 -105 -67 -167.5t-186 -62.5z" />
    <glyph glyph-name="six.uc" horiz-adv-x="563" 
d="M537 218q0 -95 -61 -162.5t-175 -67.5q-129 0 -196.5 89t-67.5 251q0 189 87 289t221 100q90 0 145 -34v-87l-4 -2q-58 45 -141 45q-90 0 -148 -67.5t-66 -207.5q75 71 180 71q98 0 162 -58.5t64 -158.5zM301 66q73 0 107.5 43.5t34.5 108.5q0 69 -38.5 106.5
t-111.5 37.5q-87 0 -163 -60q11 -236 171 -236z" />
    <glyph glyph-name="seven.uc" horiz-adv-x="504" 
d="M200 0h-94q17 73 52 161t60 139.5t74 147.5l91 182h-364v75h474v-34l-120 -246q-110 -228 -142 -318q-21 -59 -31 -107z" />
    <glyph glyph-name="eight.uc" horiz-adv-x="547" 
d="M277 -12q-106 0 -177.5 54.5t-71.5 140.5q0 117 143 175q-55 27 -87.5 72t-32.5 101q0 84 62 135t155 51q103 0 166 -49t63 -140q0 -99 -122 -160q143 -56 143 -183q0 -93 -64.5 -145t-176.5 -52zM291 396l9 -3q108 54 108 134q0 53 -37.5 84t-102.5 31q-61 0 -96 -30.5
t-35 -79.5q0 -89 154 -136zM277 65q71 0 112 32.5t41 82.5q0 48 -37 82t-130 63l-19 6q-60 -25 -92.5 -57t-32.5 -84q0 -60 41.5 -92.5t116.5 -32.5z" />
    <glyph glyph-name="nine.uc" horiz-adv-x="563" 
d="M269 339q88 0 163 59q-3 120 -42.5 180.5t-123.5 60.5q-73 0 -110 -43.5t-37 -106.5q0 -150 150 -150zM203 -12q-89 0 -144 34v87l4 2q58 -45 140 -45q102 0 161 61.5t67 208.5q-77 -70 -180 -70q-102 0 -164 58.5t-62 164.5q0 95 63 161.5t178 66.5q129 0 194 -88.5
t65 -251.5q0 -201 -87.5 -295t-234.5 -94z" />
    <glyph glyph-name="percent.uc" horiz-adv-x="839" 
d="M28 540q0 78 49 127.5t124 49.5t123.5 -49.5t48.5 -127.5q0 -80 -48.5 -129t-123.5 -49t-124 49t-49 129zM144 0l477 705h79l-478 -705h-78zM201 428q44 0 69.5 31.5t25.5 80.5t-25.5 80t-69.5 31q-43 0 -69.5 -31.5t-26.5 -79.5q0 -49 26 -80.5t70 -31.5zM639 343
q75 0 123.5 -49.5t48.5 -127.5q0 -80 -48.5 -129t-123.5 -49t-124 49t-49 129q0 78 49 127.5t124 49.5zM639 54q44 0 69.5 31.5t25.5 80.5t-25.5 80t-69.5 31t-70 -31.5t-26 -79.5q0 -49 26 -80.5t70 -31.5z" />
    <glyph glyph-name="perthousand.uc" horiz-adv-x="1233" 
d="M201 362q-75 0 -124 49t-49 129q0 78 49 127.5t124 49.5t123.5 -49.5t48.5 -127.5q0 -80 -48.5 -129t-123.5 -49zM144 0l473 705h79l-474 -705h-78zM201 428q44 0 69.5 31.5t25.5 80.5t-25.5 80t-69.5 31q-43 0 -69.5 -31.5t-26.5 -79.5q0 -49 26 -80.5t70 -31.5z
M1032 -12q-74 0 -123.5 49t-49.5 129q0 77 49.5 127t123.5 50q75 0 123.5 -49.5t48.5 -127.5q0 -80 -48.5 -129t-123.5 -49zM635 -12q-75 0 -124 49t-49 129q0 78 49 127.5t124 49.5t123.5 -49.5t48.5 -127.5q0 -80 -48.5 -129t-123.5 -49zM1032 54q44 0 69.5 31.5
t25.5 80.5t-25.5 80t-69.5 31q-43 0 -69 -31.5t-26 -79.5q0 -49 26 -80.5t69 -31.5zM635 54q44 0 69.5 31.5t25.5 80.5t-25.5 80t-69.5 31t-70 -31.5t-26 -79.5q0 -49 26 -80.5t70 -31.5z" />
    <glyph glyph-name="questiondown.uc" horiz-adv-x="443" 
d="M305 705v-93h-97v93h97zM402 117v-83q-64 -46 -162 -46q-85 0 -139 45.5t-54 129.5q0 61 25 103t74 87q37 32 53.5 57t16.5 63v29h82v-29q0 -56 -20.5 -93t-73.5 -83q-36 -30 -53 -59.5t-17 -74.5q0 -44 27 -70.5t82 -26.5q46 0 80 12.5t75 40.5z" />
    <glyph glyph-name="exclamdown.uc" horiz-adv-x="215" 
d="M156 705v-93h-97v93h97zM140 502l12 -502h-90l12 502h66z" />
    <glyph glyph-name="hyphen.uc" horiz-adv-x="313" 
d="M40 302v81h233v-81h-233z" />
    <glyph glyph-name="endash.uc" horiz-adv-x="494" 
d="M35 305v76h424v-76h-424z" />
    <glyph glyph-name="emdash.uc" horiz-adv-x="914" 
d="M35 305v76h844v-76h-844z" />
    <glyph glyph-name="guilsinglleft.uc" horiz-adv-x="234" 
d="M123 104l-107 186l107 186h86l-104 -186l104 -186h-86z" />
    <glyph glyph-name="guilsinglright.uc" horiz-adv-x="234" 
d="M25 104l104 186l-104 186h86l107 -186l-107 -186h-86z" />
    <glyph glyph-name="guillemotleft.uc" horiz-adv-x="401" 
d="M290 104l-107 186l107 186h86l-104 -186l104 -186h-86zM123 104l-107 186l107 186h86l-104 -186l104 -186h-86z" />
    <glyph glyph-name="guillemotright.uc" horiz-adv-x="401" 
d="M192 104l104 186l-104 186h86l107 -186l-107 -186h-86zM25 104l104 186l-104 186h86l107 -186l-107 -186h-86z" />
    <glyph glyph-name="parenleft.uc" horiz-adv-x="311" 
d="M297 -100h-87q-166 211 -166 438q0 223 166 436h87q-163 -230 -163 -436q0 -208 163 -438z" />
    <glyph glyph-name="parenright.uc" horiz-adv-x="311" 
d="M101 -100h-87q163 230 163 438q0 206 -163 436h87q166 -213 166 -436q0 -227 -166 -438z" />
    <glyph glyph-name="bracketleft.uc" horiz-adv-x="344" 
d="M77 -100v874h232v-72h-145v-730h145v-72h-232z" />
    <glyph glyph-name="bracketright.uc" horiz-adv-x="344" 
d="M35 -100v72h145v730h-145v72h232v-874h-232z" />
    <glyph glyph-name="braceleft.uc" horiz-adv-x="354" 
d="M329 -32v-68q-113 0 -174.5 43t-39.5 141l23 103q14 60 -13 87t-103 29v69q77 2 103.5 29t12.5 87l-23 103q-22 95 40 139t174 44v-68q-82 0 -113 -29t-14 -99l23 -95q14 -61 -6.5 -94.5t-86.5 -51.5q66 -17 86.5 -50.5t6.5 -94.5l-23 -96q-17 -70 14 -99t113 -29z" />
    <glyph glyph-name="braceright.uc" horiz-adv-x="354" 
d="M25 -100v68q82 0 113 29t14 99l-23 95q-14 61 6.5 94.5t86.5 51.5q-66 17 -86.5 50.5t-6.5 94.5l23 96q17 70 -14 99t-113 29v68q113 0 174.5 -43t39.5 -141l-23 -103q-14 -60 13 -87t103 -29v-69q-77 -2 -103.5 -29t-12.5 -87l23 -103q22 -95 -40 -139t-174 -44z" />
    <glyph glyph-name="slash.uc" horiz-adv-x="406" 
d="M13 -100l286 874h82l-286 -874h-82z" />
    <glyph glyph-name="backslash.uc" horiz-adv-x="406" 
d="M20 774h82l286 -874h-82z" />
    <glyph glyph-name="bar.uc" horiz-adv-x="235" 
d="M79 -100v874h77v-874h-77z" />
    <glyph glyph-name="at.uc" horiz-adv-x="885" 
d="M451 -110q-190 0 -300.5 110.5t-110.5 277.5q0 195 120 315.5t303 120.5q175 0 278.5 -104.5t103.5 -272.5q0 -116 -56 -183t-133 -67q-100 0 -125 70q-55 -70 -138 -70q-79 0 -123.5 52.5t-44.5 130.5q0 104 61.5 174.5t155.5 70.5q70 0 116 -55l5 38h87l-34 -260
q-6 -51 7.5 -70.5t46.5 -19.5q38 0 71.5 47t33.5 142q0 149 -84 233t-230 84t-248.5 -102.5t-102.5 -278.5q0 -140 92 -231.5t252 -91.5q116 0 198 45l3 -2v-59q-82 -44 -204 -44zM406 161q69 0 119 47q0 13 1 16l23 170q-23 26 -47 37t-59 11q-59 0 -95.5 -47t-36.5 -125
q0 -54 26.5 -81.5t68.5 -27.5z" />
    <glyph glyph-name="grave.uc" horiz-adv-x="400" 
d="M165 763l-114 145h109l88 -145h-83z" />
    <glyph glyph-name="dieresis.uc" horiz-adv-x="400" 
d="M258 770v91h92v-91h-92zM50 770v91h92v-91h-92z" />
    <glyph glyph-name="macron.uc" horiz-adv-x="797" 
d="M246 769v73h298v-73h-298z" />
    <glyph glyph-name="acute.uc" horiz-adv-x="400" 
d="M235 763h-83l88 145h109z" />
    <glyph glyph-name="circumflex.uc" horiz-adv-x="400" 
d="M201 851l-81 -88h-85l122 156h86l122 -156h-85z" />
    <glyph glyph-name="caron.uc" horiz-adv-x="400" 
d="M201 831l79 88h85l-122 -156h-86l-122 156h85z" />
    <glyph glyph-name="breve.uc" horiz-adv-x="400" 
d="M200 751q-61 0 -101.5 39.5t-44.5 103.5h70q12 -71 76 -71q63 0 75 71h70q-4 -64 -44 -103.5t-101 -39.5z" />
    <glyph glyph-name="dotaccent.uc" horiz-adv-x="400" 
d="M152 770v95h96v-95h-96z" />
    <glyph glyph-name="ring.uc" horiz-adv-x="400" 
d="M200 746q-51 0 -82 30.5t-31 78.5t31 78.5t82 30.5t82 -30.5t31 -78.5t-31 -78.5t-82 -30.5zM200 910q-23 0 -37 -15.5t-14 -39.5t14 -39.5t37 -15.5q24 0 38 15.5t14 39.5t-14 39.5t-38 15.5z" />
    <glyph glyph-name="tilde.uc" horiz-adv-x="400" 
d="M257 838q38 0 66 40l5 -2l27 -56q-13 -23 -38.5 -40t-58.5 -17q-32 0 -71 15t-54 15q-42 0 -71 -39l-4 2l-25 60q15 22 42 37t58 15q29 0 67 -15t57 -15z" />
    <glyph glyph-name="hungarumlaut.uc" horiz-adv-x="400" 
d="M138 763h-69l52 145h100q-1 0 -42 -73q-36 -63 -41 -72zM304 763h-69l52 145h100q-2 0 -43 -73z" />
    <glyph glyph-name="A.flat" 
d="M434 264l-120 317l-121 -317h241zM535 0l-71 186h-300l-71 -186h-88v5l273 700h76l273 -700v-5h-92z" />
    <glyph glyph-name="Aacute.flat" 
d="M431 886l-96 -130h-70l74 130h92zM434 264l-120 317l-121 -317h241zM535 0l-71 186h-300l-71 -186h-88v5l273 700h76l273 -700v-5h-92z" />
    <glyph glyph-name="Abreve.flat" 
d="M316 756q-60 0 -94.5 32t-38.5 91h65q8 -60 67 -60q61 0 68 60h65q-4 -59 -38 -91t-94 -32zM434 264l-120 317l-121 -317h241zM535 0l-71 186h-300l-71 -186h-88v5l273 700h76l273 -700v-5h-92z" />
    <glyph glyph-name="Acircumflex.flat" 
d="M317 825l-60 -69h-76l101 130h72l101 -130h-76zM434 264l-120 317l-121 -317h241zM535 0l-71 186h-300l-71 -186h-88v5l273 700h76l273 -700v-5h-92z" />
    <glyph glyph-name="Adieresis.flat" 
d="M434 264l-120 317l-121 -317h241zM535 0l-71 186h-300l-71 -186h-88v5l273 700h76l273 -700v-5h-92zM374 770v91h92v-91h-92zM166 770v91h92v-91h-92z" />
    <glyph glyph-name="Agrave.flat" 
d="M302 756l-96 130h92l74 -130h-70zM434 264l-120 317l-121 -317h241zM535 0l-71 186h-300l-71 -186h-88v5l273 700h76l273 -700v-5h-92z" />
    <glyph glyph-name="Amacron.flat" 
d="M434 264l-120 317l-121 -317h241zM535 0l-71 186h-300l-71 -186h-88v5l273 700h76l273 -700v-5h-92zM167 769v73h298v-73h-298z" />
    <glyph glyph-name="Aogonek.flat" 
d="M582 -222q-62 0 -93.5 26t-31.5 72q0 77 78 125l-71 185h-300l-71 -186h-88v5l273 700h76l273 -700v-5q-41 -23 -63 -52.5t-22 -54.5q0 -22 11 -32.5t39 -10.5t53 12l3 -2v-66q-30 -16 -66 -16zM434 264l-120 317l-121 -317h241z" />
    <glyph glyph-name="Aring.flat" 
d="M434 264l-120 317l-121 -317h241zM535 0l-71 186h-300l-71 -186h-88v5l273 700h76l273 -700v-5h-92zM316 746q-51 0 -82 30.5t-31 78.5t31 78.5t82 30.5t82 -30.5t31 -78.5t-31 -78.5t-82 -30.5zM316 910q-23 0 -37 -15.5t-14 -39.5t14 -39.5t37 -15.5q24 0 38 15.5
t14 39.5t-14 39.5t-38 15.5z" />
    <glyph glyph-name="Aringacute.flat" 
d="M434 264l-120 317l-121 -317h241zM535 0l-71 186h-300l-71 -186h-88v5l273 700h76l273 -700v-5h-92zM316 726q-51 0 -82 30.5t-31 78.5t31 78.5t82 30.5t82 -30.5t31 -78.5t-31 -78.5t-82 -30.5zM316 890q-23 0 -37 -15.5t-14 -39.5t14 -39.5t37 -15.5q24 0 38 15.5
t14 39.5t-14 39.5t-38 15.5zM356 963h-83l88 145h109z" />
    <glyph glyph-name="Atilde.flat" 
d="M370 839q32 -5 61 32l5 -3l20 -55q-37 -49 -91 -44q-29 3 -59 19t-43 17q-39 4 -65 -31l-4 4l-17 58q38 44 91 38q27 -2 58 -17.5t44 -17.5zM434 264l-120 317l-121 -317h241zM535 0l-71 186h-300l-71 -186h-88v5l273 700h76l273 -700v-5h-92z" />
    <glyph glyph-name="Eng.flat" horiz-adv-x="736" 
d="M450 -174v79q53 13 78 36t32 71l-395 544v-556h-84v705h81l407 -561v561h84v-650q0 -115 -48 -163.5t-155 -65.5z" />
    <glyph glyph-name="M.flat" horiz-adv-x="833" 
d="M379 0l-214 579v-579h-84v705h120l213 -571l220 571h118v-705h-90v573l-221 -573h-62z" />
    <glyph glyph-name="M.flatalt" horiz-adv-x="853" 
d="M387 0l-199 506l-40 -506h-87l60 705h74l228 -578l227 578h72l70 -705h-90l-49 510l-200 -510h-66z" />
    <glyph glyph-name="N.flat" horiz-adv-x="734" 
d="M583 0l-418 559v-559h-84v705h81l407 -544v544h84v-705h-70z" />
    <glyph glyph-name="Nacute.flat" horiz-adv-x="734" 
d="M583 0l-418 559v-559h-84v705h81l407 -544v544h84v-705h-70zM417 763h-83l88 145h109z" />
    <glyph glyph-name="Ncaron.flat" horiz-adv-x="734" 
d="M583 0l-418 559v-559h-84v705h81l407 -544v544h84v-705h-70zM378 831l79 88h85l-122 -156h-86l-122 156h85z" />
    <glyph glyph-name="Ncommaaccent.flat" horiz-adv-x="734" 
d="M583 0l-418 559v-559h-84v705h81l407 -544v544h84v-705h-70zM305 -213l9 155h95v-8l-34 -147h-70z" />
    <glyph glyph-name="Ntilde.flat" horiz-adv-x="734" 
d="M583 0l-418 559v-559h-84v705h81l407 -544v544h84v-705h-70zM440 838q38 0 66 40l5 -2l27 -56q-13 -23 -38.5 -40t-58.5 -17t-72 15t-53 15q-42 0 -71 -39l-4 2l-25 60q15 22 42 37t58 15q29 0 67 -15t57 -15z" />
    <glyph glyph-name="V.flat" horiz-adv-x="628" 
d="M351 0h-76l-261 700v5h93l209 -577l209 577h89v-5z" />
    <glyph glyph-name="W.flat" horiz-adv-x="905" 
d="M592 0l-130 405l-141 -405h-76l-231 700v5h93l180 -566l134 384l-58 177v5h89l181 -568l169 568h89v-5l-223 -700h-76z" />
    <glyph glyph-name="W.flatalt" horiz-adv-x="919" 
d="M622 0l-163 544l-164 -544h-80l-199 700v5h93l150 -564l171 564h63l172 -563l148 563h90v-5l-201 -700h-80z" />
    <glyph glyph-name="Wacute.flat" horiz-adv-x="905" 
d="M592 0l-130 405l-141 -405h-76l-231 700v5h93l180 -566l134 384l-58 177v5h89l181 -568l169 568h89v-5l-223 -700h-76zM464 763h-83l88 145h109z" />
    <glyph glyph-name="Wacute.flatalt" horiz-adv-x="919" 
d="M622 0l-163 544l-164 -544h-80l-199 700v5h93l150 -564l171 564h63l172 -563l148 563h90v-5l-201 -700h-80zM501 763h-83l88 145h109z" />
    <glyph glyph-name="Wcircumflex.flat" horiz-adv-x="905" 
d="M592 0l-130 405l-141 -405h-76l-231 700v5h93l180 -566l134 384l-58 177v5h89l181 -568l169 568h89v-5l-223 -700h-76zM425 851l-81 -88h-85l122 156h86l122 -156h-85z" />
    <glyph glyph-name="Wcircumflex.flatalt" horiz-adv-x="919" 
d="M622 0l-163 544l-164 -544h-80l-199 700v5h93l150 -564l171 564h63l172 -563l148 563h90v-5l-201 -700h-80zM462 851l-81 -88h-85l122 156h86l122 -156h-85z" />
    <glyph glyph-name="Wdieresis.flat" horiz-adv-x="905" 
d="M592 0l-130 405l-141 -405h-76l-231 700v5h93l180 -566l134 384l-58 177v5h89l181 -568l169 568h89v-5l-223 -700h-76zM482 770v91h92v-91h-92zM274 770v91h92v-91h-92z" />
    <glyph glyph-name="Wdieresis.flatalt" horiz-adv-x="919" 
d="M622 0l-163 544l-164 -544h-80l-199 700v5h93l150 -564l171 564h63l172 -563l148 563h90v-5l-201 -700h-80zM519 770v91h92v-91h-92zM311 770v91h92v-91h-92z" />
    <glyph glyph-name="Wgrave.flat" horiz-adv-x="905" 
d="M592 0l-130 405l-141 -405h-76l-231 700v5h93l180 -566l134 384l-58 177v5h89l181 -568l169 568h89v-5l-223 -700h-76zM388 763l-114 145h109l88 -145h-83z" />
    <glyph glyph-name="Wgrave.flatalt" horiz-adv-x="919" 
d="M622 0l-163 544l-164 -544h-80l-199 700v5h93l150 -564l171 564h63l172 -563l148 563h90v-5l-201 -700h-80zM425 763l-114 145h109l88 -145h-83z" />
    <glyph glyph-name="Z.flat" horiz-adv-x="581" 
d="M539 0h-505v73l399 554h-369v78h466v-86l-390 -541h399v-78z" />
    <glyph glyph-name="Zacute.flat" horiz-adv-x="581" 
d="M539 0h-505v73l399 554h-369v78h466v-86l-390 -541h399v-78zM337 763h-83l88 145h109z" />
    <glyph glyph-name="Zcaron.flat" horiz-adv-x="581" 
d="M539 0h-505v73l399 554h-369v78h466v-86l-390 -541h399v-78zM298 831l79 88h85l-122 -156h-86l-122 156h85z" />
    <glyph glyph-name="Zdotaccent.flat" horiz-adv-x="581" 
d="M539 0h-505v73l399 554h-369v78h466v-86l-390 -541h399v-78zM249 770v95h96v-95h-96z" />
    <glyph glyph-name="four.denflat" horiz-adv-x="311" 
d="M181 147v140l-97 -140h97zM305 91h-53v-91h-71v91h-171v43l169 244h73v-231h53v-56z" />
    <glyph glyph-name="four.flat" horiz-adv-x="524" 
d="M327 257v307l-210 -307h210zM519 184h-102v-184h-90v184h-311v53l312 453h89v-433h102v-73z" />
    <glyph glyph-name="four.numflat" horiz-adv-x="311" 
d="M181 460v140l-97 -140h97zM305 404h-53v-91h-71v91h-171v43l169 244h73v-231h53v-56z" />
    <glyph glyph-name="four.subflat" horiz-adv-x="311" 
d="M181 56v141l-98 -141h98zM305 0h-53v-90h-71v90h-171v44l169 244h73v-232h53v-56z" />
    <glyph glyph-name="four.supflat" horiz-adv-x="311" 
d="M181 519v141l-98 -141h98zM305 463h-53v-90h-71v90h-171v44l169 244h73v-232h53v-56z" />
    <glyph glyph-name="four.ucflat" horiz-adv-x="553" 
d="M346 262v318l-226 -318h226zM547 189h-108v-189h-93v189h-329v53l331 463h91v-443h108v-73z" />
    <glyph glyph-name="one.denflat" horiz-adv-x="203" 
d="M156 0h-73v298l-70 -44l-2 1v66l92 57h53v-378z" />
    <glyph glyph-name="one.flat" horiz-adv-x="334" 
d="M241 0h-90v582l-128 -80l-4 2v81l168 105h54v-690z" />
    <glyph glyph-name="one.numflat" horiz-adv-x="203" 
d="M156 313h-73v298l-70 -44l-2 1v66l92 57h53v-378z" />
    <glyph glyph-name="one.subflat" horiz-adv-x="203" 
d="M156 -90h-73v298l-70 -44l-2 1v66l92 57h53v-378z" />
    <glyph glyph-name="one.supflat" horiz-adv-x="203" 
d="M156 373h-73v298l-70 -44l-2 1v66l92 57h53v-378z" />
    <glyph glyph-name="one.ucflat" horiz-adv-x="353" 
d="M257 0h-93v600l-140 -85l-4 2v81l177 107h60v-705z" />
    <glyph glyph-name="oneeighth.flat" horiz-adv-x="728" 
d="M156 313h-73v298l-70 -44l-2 1v66l92 57h53v-378zM41 0l514 690h76l-514 -690h-76zM577 -7q-63 0 -101 28t-38 76q0 62 71 89q-61 31 -61 93q0 47 36 75t89 28q58 0 93.5 -25t35.5 -76q0 -53 -60 -81q71 -33 71 -98q0 -51 -36.5 -80t-99.5 -29zM589 218h2q42 26 42 59
q0 24 -15.5 37.5t-42.5 13.5q-26 0 -40 -13t-14 -34q0 -38 68 -63zM576 48q30 0 46.5 14t16.5 37q0 22 -17.5 37.5t-60.5 29.5l-4 1q-48 -23 -48 -64q0 -55 67 -55z" />
    <glyph glyph-name="onehalf.flat" horiz-adv-x="732" 
d="M156 313h-73v298l-70 -44l-2 1v66l92 57h53v-378zM475 0v43l109 124q47 55 47 100q0 54 -60 54q-46 0 -89 -28l-3 2v61q41 26 104 26q57 0 90.5 -29t33.5 -80q0 -60 -69 -141l-67 -74h141v-58h-237zM51 0l514 690h76l-514 -690h-76z" />
    <glyph glyph-name="onequarter.flat" horiz-adv-x="716" 
d="M156 313h-73v298l-70 -44l-2 1v66l92 57h53v-378zM586 147v140l-97 -140h97zM710 91h-53v-91h-71v91h-171v43l169 244h73v-231h53v-56zM51 0l514 690h76l-514 -690h-76z" />
    <glyph glyph-name="onethird.flat" horiz-adv-x="721" 
d="M156 313h-73v298l-70 -44l-2 1v66l92 57h53v-378zM41 0l514 690h76l-514 -690h-76zM572 -7q-63 0 -114 29v62l3 2q50 -32 102 -32q32 0 49 15.5t17 40.5q0 56 -70 56h-41v56h36q63 0 63 52q0 49 -61 49q-43 0 -87 -26l-3 2v59q40 24 102 24q55 0 89.5 -25.5t34.5 -74.5
q0 -62 -62 -83q75 -19 75 -92q0 -54 -35 -84t-98 -30z" />
    <glyph glyph-name="seven.denflat" horiz-adv-x="277" 
d="M128 0h-77q17 86 96 239l38 75h-173v61h250v-50l-48 -98q-70 -142 -86 -227z" />
    <glyph glyph-name="seven.flat" horiz-adv-x="472" 
d="M188 0h-91q6 25 12.5 50.5t16.5 53t17 48t20.5 52t20 47t22.5 50t21 45t23 48.5t21 44l84 177h-337v75h430v-63l-98 -211q-48 -101 -97 -214q-46 -108 -65 -202z" />
    <glyph glyph-name="seven.numflat" horiz-adv-x="277" 
d="M128 313h-77q17 86 96 239l38 75h-173v61h250v-50l-48 -98q-70 -142 -86 -227z" />
    <glyph glyph-name="seven.subflat" horiz-adv-x="277" 
d="M128 -90h-77q17 86 96 239l38 75h-173v61h250v-50l-48 -98q-70 -142 -86 -227z" />
    <glyph glyph-name="seven.supflat" horiz-adv-x="277" 
d="M128 373h-77q17 86 96 239l38 75h-173v61h250v-50l-48 -98q-70 -142 -86 -227z" />
    <glyph glyph-name="seven.ucflat" horiz-adv-x="502" 
d="M200 0h-94q17 73 52 161t60 139.5t74 147.5l91 182h-364v75h458v-64l-104 -216q-110 -228 -142 -318q-21 -59 -31 -107z" />
    <glyph glyph-name="seveneighths.flat" horiz-adv-x="743" 
d="M128 313h-77q17 86 96 239l38 75h-173v61h250v-50l-48 -98q-70 -142 -86 -227zM57 0l514 690h76l-514 -690h-76zM592 -7q-63 0 -101 28t-38 76q0 62 71 89q-61 31 -61 93q0 47 36 75t89 28q58 0 93.5 -25t35.5 -76q0 -53 -60 -81q71 -33 71 -98q0 -51 -36.5 -80
t-99.5 -29zM604 218h2q42 26 42 59q0 24 -15.5 37.5t-42.5 13.5q-26 0 -40 -13t-14 -34q0 -38 68 -63zM591 48q30 0 46.5 14t16.5 37q0 22 -17.5 37.5t-60.5 29.5l-4 1q-48 -23 -48 -64q0 -55 67 -55z" />
    <glyph glyph-name="sterling.flat" horiz-adv-x="495" 
d="M473 76v-76h-446v64q31 29 47 56.5t20.5 46.5t14.5 79l8 46h-61v67h72l29 170q15 92 62 130t125 38q69 0 119 -28v-79l-4 -2q-56 32 -115 32q-83 0 -99 -97l-28 -164h154v-67h-166l-8 -46q-11 -69 -24.5 -102t-52.5 -68h353z" />
    <glyph glyph-name="sterling.ucflat" horiz-adv-x="531" 
d="M508 76v-76h-480v64q47 43 61 75t30 114l8 47h-68v67h80l31 177q17 95 66 134t133 39q75 0 129 -29v-79l-5 -2q-62 33 -124 33q-90 0 -108 -102l-31 -171h168v-67h-180l-9 -47q-14 -75 -27 -107t-54 -70h380z" />
    <glyph glyph-name="threequarters.flat" horiz-adv-x="745" 
d="M615 147v140l-97 -140h97zM739 91h-53v-91h-71v91h-171v43l169 244h73v-231h53v-56zM80 0l514 690h76l-514 -690h-76zM130 306q-63 0 -114 29v62l3 2q50 -32 102 -32q32 0 49 15.5t17 40.5q0 56 -70 56h-41v56h36q63 0 63 52q0 49 -61 49q-43 0 -87 -26l-3 2v59
q40 24 102 24q55 0 89.5 -25.5t34.5 -74.5q0 -62 -62 -83q75 -19 75 -92q0 -54 -35 -84t-98 -30z" />
    <glyph glyph-name="trademark.flat" horiz-adv-x="695" 
d="M264 625h-95v-266h-72v266h-95v63h262v-63zM455 359l-78 229v-229h-64v329h89l74 -219l73 219h89v-329h-67v228l-77 -228h-39z" />
    <glyph glyph-name="two.denflat" horiz-adv-x="273" 
d="M16 0v43l109 124q47 55 47 100q0 54 -60 54q-46 0 -89 -28l-3 2v61q41 26 104 26q57 0 90.5 -29t33.5 -80q0 -60 -69 -141l-67 -74h141v-58h-237z" />
    <glyph glyph-name="two.flat" horiz-adv-x="462" 
d="M29 0v49l213 253q90 115 90 207q0 49 -29.5 80t-91.5 31q-53 0 -89 -12t-82 -41l-4 2v82q74 46 178 46q90 0 148.5 -51t58.5 -137q0 -65 -31 -124t-94 -141l-143 -168h275v-76h-399z" />
    <glyph glyph-name="two.numflat" horiz-adv-x="273" 
d="M16 313v43l109 124q47 55 47 100q0 54 -60 54q-46 0 -89 -28l-3 2v61q41 26 104 26q57 0 90.5 -29t33.5 -80q0 -60 -69 -141l-67 -74h141v-58h-237z" />
    <glyph glyph-name="two.subflat" horiz-adv-x="273" 
d="M16 -90v43l109 124q47 55 47 100q0 54 -60 54q-46 0 -89 -28l-3 2v61q41 26 104 26q57 0 90.5 -29t33.5 -80q0 -60 -69 -141l-67 -74h141v-58h-237z" />
    <glyph glyph-name="two.supflat" horiz-adv-x="273" 
d="M16 373v43l109 124q47 55 47 100q0 54 -60 54q-46 0 -89 -28l-3 2v61q41 26 104 26q57 0 90.5 -29t33.5 -80q0 -60 -69 -141l-67 -74h141v-58h-237z" />
    <glyph glyph-name="two.ucflat" horiz-adv-x="495" 
d="M30 0v50l231 261q50 60 73.5 109.5t23.5 103.5q0 51 -32.5 83.5t-100.5 32.5q-56 0 -93 -13t-88 -43l-5 3v82q87 48 189 48q98 0 159.5 -52t61.5 -141q0 -68 -33 -131t-99 -138l-159 -179h302v-76h-430z" />
    <glyph glyph-name="twothirds.flat" horiz-adv-x="766" 
d="M16 313v43l109 124q47 55 47 100q0 54 -60 54q-46 0 -89 -28l-3 2v61q41 26 104 26q57 0 90.5 -29t33.5 -80q0 -60 -69 -141l-67 -74h141v-58h-237zM617 -7q-63 0 -114 29v62l3 2q50 -32 102 -32q32 0 49 15.5t17 40.5q0 56 -70 56h-41v56h36q63 0 63 52q0 49 -61 49
q-43 0 -87 -26l-3 2v59q40 24 102 24q55 0 89.5 -25.5t34.5 -74.5q0 -62 -62 -83q75 -19 75 -92q0 -54 -35 -84t-98 -30zM86 0l514 690h76l-514 -690h-76z" />
    <glyph glyph-name="v.flat" horiz-adv-x="502" 
d="M281 0h-59l-215 512v8h88l159 -391l157 391h84v-5z" />
    <glyph glyph-name="w.flat" horiz-adv-x="706" 
d="M487 0l-135 384l-129 -384h-53l-158 515v5h86l106 -365l120 365h62l121 -364l106 364h81v-5l-155 -515h-52z" />
    <glyph glyph-name="wacute.flat" horiz-adv-x="706" 
d="M487 0l-135 384l-129 -384h-53l-158 515v5h86l106 -365l120 365h62l121 -364l106 364h81v-5l-155 -515h-52zM384 610h-83l98 165h109z" />
    <glyph glyph-name="wcircumflex.flat" horiz-adv-x="706" 
d="M487 0l-135 384l-129 -384h-53l-158 515v5h86l106 -365l120 365h62l121 -364l106 364h81v-5l-155 -515h-52zM352 701l-75 -91h-82l115 156h86l115 -156h-82z" />
    <glyph glyph-name="wdieresis.flat" horiz-adv-x="706" 
d="M487 0l-135 384l-129 -384h-53l-158 515v5h86l106 -365l120 365h62l121 -364l106 364h81v-5l-155 -515h-52zM217 639v91h92v-91h-92zM397 639v91h92v-91h-92z" />
    <glyph glyph-name="wgrave.flat" horiz-adv-x="706" 
d="M487 0l-135 384l-129 -384h-53l-158 515v5h86l106 -365l120 365h62l121 -364l106 364h81v-5l-155 -515h-52zM327 610l-124 165h109l98 -165h-83z" />
    <glyph glyph-name="z.flat" horiz-adv-x="462" 
d="M431 0h-398v51l286 397h-267v72h369v-62l-278 -386h288v-72z" />
    <glyph glyph-name="zacute.flat" horiz-adv-x="462" 
d="M431 0h-398v51l286 397h-267v72h369v-62l-278 -386h288v-72zM273 610h-83l98 165h109z" />
    <glyph glyph-name="zcaron.flat" horiz-adv-x="462" 
d="M431 0h-398v51l286 397h-267v72h369v-62l-278 -386h288v-72zM243 675l75 91h82l-115 -156h-86l-115 156h82z" />
    <glyph glyph-name="zdotaccent.flat" horiz-adv-x="462" 
d="M431 0h-398v51l286 397h-267v72h369v-62l-278 -386h288v-72zM194 637v95h96v-95h-96z" />
    <glyph glyph-name="uni00AD" horiz-adv-x="313" 
d="M40 253v81h233v-81h-233z" />
    <glyph glyph-name="uni1EA0.flat" 
d="M434 264l-120 317l-121 -317h241zM535 0l-71 186h-300l-71 -186h-88v5l273 700h76l273 -700v-5h-92zM272 -199v91h86v-91h-86z" />
    <glyph glyph-name="uni1EA2.flat" 
d="M434 264l-120 317l-121 -317h241zM535 0l-71 186h-300l-71 -186h-88v5l273 700h76l273 -700v-5h-92zM249 854v51q26 16 73 17q84 -2 88 -65q2 -43 -32 -63q-34 -19 -34 -38h-55q0 37 28 56q29 20 29 34q1 11 -8.5 16.5t-29.5 5.5q-33 -2 -59 -14z" />
    <glyph glyph-name="uni1EA4.flat" 
d="M317 825l-60 -69h-76l101 130h72l101 -130h-76zM434 264l-120 317l-121 -317h241zM535 0l-71 186h-300l-71 -186h-88v5l273 700h76l273 -700v-5h-92zM554 975l-76 -110h-66l54 110h88z" />
    <glyph glyph-name="uni1EA6.flat" 
d="M257 756l60 69l62 -69h76l-101 130h-72l-101 -130h76zM314 581l120 -317h-241zM464 186l71 -186h92v5l-273 700h-76l-273 -700v-5h88l71 186h300zM423 865l-76 110h88l54 -110h-66z" />
    <glyph glyph-name="uni1EA8.flat" 
d="M317 825l-60 -69h-76l101 130h72l101 -130h-76zM434 264l-120 317l-121 -317h241zM535 0l-71 186h-300l-71 -186h-88v5l273 700h76l273 -700v-5h-92zM380 951v46q24 14 65 15q77 -2 83 -58q3 -37 -29 -55t-32 -34h-52q0 32 23 49q24 18 24 30q2 20 -33 20q-25 -2 -49 -13
z" />
    <glyph glyph-name="uni1EAA.flat" 
d="M317 825l-60 -69h-76l101 130h72l101 -130h-76zM434 264l-120 317l-121 -317h241zM535 0l-71 186h-300l-71 -186h-88v5l273 700h76l273 -700v-5h-92zM373 986q31 -4 58 32l5 -3l19 -55q-14 -20 -37 -33.5t-49 -10.5q-29 3 -57.5 19t-38.5 17q-21 2 -34.5 -4.5
t-27.5 -26.5l-4 4l-16 58q36 44 86 38q26 -2 55.5 -17.5t40.5 -17.5z" />
    <glyph glyph-name="uni1EAC.flat" 
d="M317 825l-60 -69h-76l101 130h72l101 -130h-76zM434 264l-120 317l-121 -317h241zM535 0l-71 186h-300l-71 -186h-88v5l273 700h76l273 -700v-5h-92zM272 -199v91h86v-91h-86z" />
    <glyph glyph-name="uni1EAE.flat" 
d="M316 756q-60 0 -94.5 32t-38.5 91h65q8 -60 67 -60q61 0 68 60h65q-4 -59 -38 -91t-94 -32zM434 264l-120 317l-121 -317h241zM535 0l-71 186h-300l-71 -186h-88v5l273 700h76l273 -700v-5h-92zM419 1016l-76 -110h-66l54 110h88z" />
    <glyph glyph-name="uni1EB0.flat" 
d="M316 756q60 0 94 32t38 91h-65q-7 -60 -68 -60q-59 0 -67 60h-65q4 -59 38.5 -91t94.5 -32zM314 581l120 -317h-241zM464 186l71 -186h92v5l-273 700h-76l-273 -700v-5h88l71 186h300zM291 906l-76 110h88l54 -110h-66z" />
    <glyph glyph-name="uni1EB2.flat" 
d="M316 756q-60 0 -94.5 32t-38.5 91h65q8 -60 67 -60q61 0 68 60h65q-4 -59 -38 -91t-94 -32zM434 264l-120 317l-121 -317h241zM535 0l-71 186h-300l-71 -186h-88v5l273 700h76l273 -700v-5h-92zM256 992v46q24 14 65 15q77 -2 83 -58q3 -37 -29 -55t-32 -34h-52
q0 32 23 49q24 18 24 30q2 20 -33 20q-25 -2 -49 -13z" />
    <glyph glyph-name="uni1EB4.flat" 
d="M316 756q-60 0 -94.5 32t-38.5 91h65q8 -60 67 -60q61 0 68 60h65q-4 -59 -38 -91t-94 -32zM434 264l-120 317l-121 -317h241zM535 0l-71 186h-300l-71 -186h-88v5l273 700h76l273 -700v-5h-92zM370 981q32 -5 61 32l5 -3l20 -55q-37 -49 -91 -44q-29 3 -59 19t-43 17
q-39 4 -65 -31l-4 4l-17 58q38 44 91 38q27 -2 58 -17.5t44 -17.5z" />
    <glyph glyph-name="uni1EB6.flat" 
d="M316 756q-60 0 -94.5 32t-38.5 91h65q8 -60 67 -60q61 0 68 60h65q-4 -59 -38 -91t-94 -32zM434 264l-120 317l-121 -317h241zM535 0l-71 186h-300l-71 -186h-88v5l273 700h76l273 -700v-5h-92zM272 -199v91h86v-91h-86z" />
    <glyph glyph-name="uni1EA1.alt" horiz-adv-x="572" 
d="M440 0l-10 66q-62 -78 -164 -78q-103 0 -169.5 72t-66.5 193q0 125 68 202t175 77q91 0 152 -69l7 57h74v-520h-66zM273 62q91 0 147 61v279q-58 56 -143 56q-67 0 -114 -53t-47 -152q0 -95 45.5 -143t111.5 -48zM236 -199v91h86v-91h-86z" />
    <glyph glyph-name="uni1EA3.alt" horiz-adv-x="572" 
d="M440 0l-10 66q-62 -78 -164 -78q-103 0 -169.5 72t-66.5 193q0 125 68 202t175 77q91 0 152 -69l7 57h74v-520h-66zM273 62q91 0 147 61v279q-58 56 -143 56q-67 0 -114 -53t-47 -152q0 -95 45.5 -143t111.5 -48zM248 700v51q26 16 73 17q84 -2 88 -65q2 -43 -32 -63
q-34 -19 -34 -38h-55q0 37 28 56q29 20 29 34q1 11 -8.5 16.5t-29.5 5.5q-33 -2 -59 -14z" />
    <glyph glyph-name="uni1EA5.alt" horiz-adv-x="572" 
d="M307 661l-60 -69h-76l101 130h72l101 -130h-76zM440 0l-10 66q-62 -78 -164 -78q-103 0 -169.5 72t-66.5 193q0 125 68 202t175 77q91 0 152 -69l7 57h74v-520h-66zM273 62q91 0 147 61v279q-58 56 -143 56q-67 0 -114 -53t-47 -152q0 -95 45.5 -143t111.5 -48zM544 811
l-76 -110h-66l54 110h88z" />
    <glyph glyph-name="uni1EA7.alt" horiz-adv-x="572" 
d="M247 592l60 69l62 -69h76l-101 130h-72l-101 -130h76zM430 66l10 -66h66v520h-74l-7 -57q-61 69 -152 69q-107 0 -175 -77t-68 -202q0 -121 66.5 -193t169.5 -72q102 0 164 78zM273 62q-66 0 -111.5 48t-45.5 143q0 99 47 152t114 53q85 0 143 -56v-279q-56 -61 -147 -61
zM413 701l-76 110h88l54 -110h-66z" />
    <glyph glyph-name="uni1EA9.alt" horiz-adv-x="572" 
d="M307 661l-60 -69h-76l101 130h72l101 -130h-76zM440 0l-10 66q-62 -78 -164 -78q-103 0 -169.5 72t-66.5 193q0 125 68 202t175 77q91 0 152 -69l7 57h74v-520h-66zM273 62q91 0 147 61v279q-58 56 -143 56q-67 0 -114 -53t-47 -152q0 -95 45.5 -143t111.5 -48zM370 787
v46q24 14 65 15q77 -2 83 -58q3 -37 -29 -55t-32 -34h-52q0 32 23 49q24 18 24 30q2 20 -33 20q-25 -2 -49 -13z" />
    <glyph glyph-name="uni1EAB.alt" horiz-adv-x="572" 
d="M307 661l-60 -69h-76l101 130h72l101 -130h-76zM440 0l-10 66q-62 -78 -164 -78q-103 0 -169.5 72t-66.5 193q0 125 68 202t175 77q91 0 152 -69l7 57h74v-520h-66zM273 62q91 0 147 61v279q-58 56 -143 56q-67 0 -114 -53t-47 -152q0 -95 45.5 -143t111.5 -48zM363 822
q31 -4 58 32l5 -3l19 -55q-14 -20 -37 -33.5t-49 -10.5q-29 3 -57.5 19t-38.5 17q-21 2 -34.5 -4.5t-27.5 -26.5l-4 4l-16 58q36 44 86 38q26 -2 55.5 -17.5t40.5 -17.5z" />
    <glyph glyph-name="uni1EAD.alt" horiz-adv-x="572" 
d="M307 661l-60 -69h-76l101 130h72l101 -130h-76zM440 0l-10 66q-62 -78 -164 -78q-103 0 -169.5 72t-66.5 193q0 125 68 202t175 77q91 0 152 -69l7 57h74v-520h-66zM273 62q91 0 147 61v279q-58 56 -143 56q-67 0 -114 -53t-47 -152q0 -95 45.5 -143t111.5 -48zM236 -199
v91h86v-91h-86z" />
    <glyph glyph-name="uni1EAF.alt" horiz-adv-x="572" 
d="M318 595q-60 0 -94.5 32t-38.5 91h65q8 -60 67 -60q61 0 68 60h65q-4 -59 -38 -91t-94 -32zM440 0l-10 66q-62 -78 -164 -78q-103 0 -169.5 72t-66.5 193q0 125 68 202t175 77q91 0 152 -69l7 57h74v-520h-66zM273 62q91 0 147 61v279q-58 56 -143 56q-67 0 -114 -53
t-47 -152q0 -95 45.5 -143t111.5 -48zM421 855l-76 -110h-66l54 110h88z" />
    <glyph glyph-name="uni1EB1.alt" horiz-adv-x="572" 
d="M318 595q60 0 94 32t38 91h-65q-7 -60 -68 -60q-59 0 -67 60h-65q4 -59 38.5 -91t94.5 -32zM430 66l10 -66h66v520h-74l-7 -57q-61 69 -152 69q-107 0 -175 -77t-68 -202q0 -121 66.5 -193t169.5 -72q102 0 164 78zM273 62q-66 0 -111.5 48t-45.5 143q0 99 47 152t114 53
q85 0 143 -56v-279q-56 -61 -147 -61zM293 745l-76 110h88l54 -110h-66z" />
    <glyph glyph-name="uni1EB3.alt" horiz-adv-x="572" 
d="M318 595q-60 0 -94.5 32t-38.5 91h65q8 -60 67 -60q61 0 68 60h65q-4 -59 -38 -91t-94 -32zM440 0l-10 66q-62 -78 -164 -78q-103 0 -169.5 72t-66.5 193q0 125 68 202t175 77q91 0 152 -69l7 57h74v-520h-66zM273 62q91 0 147 61v279q-58 56 -143 56q-67 0 -114 -53
t-47 -152q0 -95 45.5 -143t111.5 -48zM258 831v46q24 14 65 15q77 -2 83 -58q3 -37 -29 -55t-32 -34h-52q0 32 23 49q24 18 24 30q2 20 -33 20q-25 -2 -49 -13z" />
    <glyph glyph-name="uni1EB5.alt" horiz-adv-x="572" 
d="M318 595q-60 0 -94.5 32t-38.5 91h65q8 -60 67 -60q61 0 68 60h65q-4 -59 -38 -91t-94 -32zM440 0l-10 66q-62 -78 -164 -78q-103 0 -169.5 72t-66.5 193q0 125 68 202t175 77q91 0 152 -69l7 57h74v-520h-66zM273 62q91 0 147 61v279q-58 56 -143 56q-67 0 -114 -53
t-47 -152q0 -95 45.5 -143t111.5 -48zM368 821q31 -4 58 32l5 -3l19 -55q-14 -20 -37 -33.5t-49 -10.5q-29 3 -57.5 19t-38.5 17q-21 2 -34.5 -4.5t-27.5 -26.5l-4 4l-16 58q36 44 86 38q26 -2 55.5 -17.5t40.5 -17.5z" />
    <glyph glyph-name="uni1EB7.alt" horiz-adv-x="572" 
d="M318 595q-60 0 -94.5 32t-38.5 91h65q8 -60 67 -60q61 0 68 60h65q-4 -59 -38 -91t-94 -32zM440 0l-10 66q-62 -78 -164 -78q-103 0 -169.5 72t-66.5 193q0 125 68 202t175 77q91 0 152 -69l7 57h74v-520h-66zM273 62q91 0 147 61v279q-58 56 -143 56q-67 0 -114 -53
t-47 -152q0 -95 45.5 -143t111.5 -48zM236 -199v91h86v-91h-86z" />
    <glyph glyph-name="uni1EF5.alt" horiz-adv-x="494" 
d="M204 -210h-92v5l95 233l-200 487v5h93l153 -394l149 394h85v-5zM341 -199v91h86v-91h-86z" />
    <glyph glyph-name="uni1EF7.alt" horiz-adv-x="494" 
d="M204 -210h-92v5l95 233l-200 487v5h93l153 -394l149 394h85v-5zM191 700v51q26 16 73 17q84 -2 88 -65q2 -43 -32 -63q-34 -19 -34 -38h-55q0 37 28 56q29 20 29 34q1 11 -8.5 16.5t-29.5 5.5q-33 -2 -59 -14z" />
    <glyph glyph-name="uni1EF9.alt" horiz-adv-x="494" 
d="M204 -210h-92v5l95 233l-200 487v5h93l153 -394l149 394h85v-5zM304 675q32 -5 61 32l5 -3l20 -55q-37 -49 -91 -44q-29 3 -59 19t-43 17q-39 4 -65 -31l-4 4l-17 58q38 44 91 38q27 -2 58 -17.5t44 -17.5z" />
    <glyph glyph-name="uni1EF5.alt1" horiz-adv-x="551" 
d="M264 -222q-113 0 -180 42v78l4 2q73 -46 166 -46q79 0 113 34.5t34 100.5v59q-78 -60 -167 -60q-82 0 -128 43.5t-46 123.5v365h86v-347q0 -113 109 -113q82 0 146 45v415h86v-525q0 -115 -61 -166t-162 -51zM551 -199v91h86v-91h-86z" />
    <glyph glyph-name="uni1EF7.alt1" horiz-adv-x="551" 
d="M264 -222q-113 0 -180 42v78l4 2q73 -46 166 -46q79 0 113 34.5t34 100.5v59q-78 -60 -167 -60q-82 0 -128 43.5t-46 123.5v365h86v-347q0 -113 109 -113q82 0 146 45v415h86v-525q0 -115 -61 -166t-162 -51zM210 700v51q26 16 73 17q84 -2 88 -65q2 -43 -32 -63
q-34 -19 -34 -38h-55q0 37 28 56q29 20 29 34q1 11 -8.5 16.5t-29.5 5.5q-33 -2 -59 -14z" />
    <glyph glyph-name="uni1EF9.alt1" horiz-adv-x="551" 
d="M264 -222q-113 0 -180 42v78l4 2q73 -46 166 -46q79 0 113 34.5t34 100.5v59q-78 -60 -167 -60q-82 0 -128 43.5t-46 123.5v365h86v-347q0 -113 109 -113q82 0 146 45v415h86v-525q0 -115 -61 -166t-162 -51zM328 675q32 -5 61 32l5 -3l20 -55q-37 -49 -91 -44
q-29 3 -59 19t-43 17q-39 4 -65 -31l-4 4l-17 58q38 44 91 38q27 -2 58 -17.5t44 -17.5z" />
    </font>
</defs>
</svg>
