<?xml version="1.0" standalone="no"?>
<!DOCTYPE svg PUBLIC "-//W3C//DTD SVG 1.1//EN" "http://www.w3.org/Graphics/SVG/1.1/DTD/svg11.dtd" >
<svg xmlns="http://www.w3.org/2000/svg" xmlns:xlink="http://www.w3.org/1999/xlink" version="1.1">
<metadata>
Created by FontForge 20170731 at Fri Dec 15 21:27:50 2017
 By Aleksey,,,
Copyright (C)2015 Commercial Type.
</metadata>
<defs>
<font id="SVN-SanomatSansBold" horiz-adv-x="796" >
  <font-face 
    font-family="SVN-Sanomat Sans"
    font-weight="700"
    font-stretch="normal"
    units-per-em="1000"
    panose-1="0 0 0 0 0 0 0 0 0 0"
    ascent="790"
    descent="-210"
    x-height="550"
    cap-height="705"
    bbox="-238 -241 1251 1133"
    underline-thickness="68"
    underline-position="-209"
    unicode-range="U+0020-FB04"
  />
<missing-glyph horiz-adv-x="364" 
d="M298 0h-265v666h265v-666zM66 633v-600h199v600h-199z" />
    <glyph glyph-name="f_f" unicode="ff" horiz-adv-x="719" 
d="M412 0v428h-158v-428h-172v428h-64v122h64v10q0 98 57 141.5t148 43.5q52 0 79 -9v-110q-16 2 -42 2q-70 0 -70 -74v-4h158v18q0 98 56.5 141.5t149.5 43.5q55 0 90 -8v-111q-24 3 -51 3q-73 0 -73 -76v-11h110v-122h-110v-428h-172z" />
    <glyph glyph-name="f_i" unicode="fi" horiz-adv-x="660" 
d="M440 0v550h172v-550h-172zM364 428h-110v-428h-172v428h-64v122h64v18q0 98 56.5 141.5t149.5 43.5q55 0 85 -8v-111q-27 3 -46 3q-73 0 -73 -76v-11h110v-122zM440 612v113h171v-113h-171z" />
    <glyph glyph-name="f_l" unicode="fl" horiz-adv-x="661" 
d="M440 0v722l172 29v-751h-172zM364 428h-110v-428h-172v428h-64v122h64v18q0 98 56.5 141.5t149.5 43.5q55 0 85 -8v-111q-27 3 -46 3q-73 0 -73 -76v-11h110v-122z" />
    <glyph glyph-name="f_f_i" unicode="ffi" horiz-adv-x="989" 
d="M769 0v550h172v-550h-172zM412 0v428h-158v-428h-172v428h-64v122h64v10q0 98 57 141.5t148 43.5q52 0 79 -9v-110q-16 2 -42 2q-70 0 -70 -74v-4h158v18q0 98 56.5 141.5t149.5 43.5q54 0 84 -8v-111q-27 3 -45 3q-73 0 -73 -76v-11h110v-122h-110v-428h-172zM769 631
v113h172v-113h-172z" />
    <glyph glyph-name="f_f_l" unicode="ffl" horiz-adv-x="990" 
d="M769 0v722l172 29v-751h-172zM412 0v428h-158v-428h-172v428h-64v122h64v10q0 98 57 141.5t148 43.5q52 0 79 -9v-110q-16 2 -42 2q-70 0 -70 -74v-4h158v18q0 98 56.5 141.5t149.5 43.5q54 0 84 -8v-111q-27 3 -45 3q-73 0 -73 -76v-11h110v-122h-110v-428h-172z" />
    <glyph glyph-name=".notdef" horiz-adv-x="364" 
d="M298 0h-265v666h265v-666zM66 633v-600h199v600h-199z" />
    <glyph glyph-name=".null" horiz-adv-x="0" 
 />
    <glyph glyph-name="nonmarkingreturn" horiz-adv-x="333" 
 />
    <glyph glyph-name="space" unicode=" " horiz-adv-x="208" 
 />
    <glyph glyph-name="exclam" unicode="!" horiz-adv-x="280" 
d="M71 233l-25 472h188l-26 -472h-137zM48 0v157h182v-157h-182z" />
    <glyph glyph-name="quotedbl" unicode="&#x22;" horiz-adv-x="416" 
d="M187 705l-22 -253h-114l-22 253h158zM387 705l-22 -253h-114l-22 253h158z" />
    <glyph glyph-name="numbersign" unicode="#" horiz-adv-x="569" 
d="M320 301l13 102h-85l-13 -102h85zM282 0l20 158h-87l-21 -158h-114l20 158h-88v143h106l13 102h-90v143h109l18 144h119l-19 -144h84l18 144h119l-18 -144h86v-143h-105l-13 -102h89v-143h-107l-20 -158h-119z" />
    <glyph glyph-name="dollar" unicode="$" horiz-adv-x="539" 
d="M186 510q0 -46 56 -68l29 128q-85 -4 -85 -60zM336 189q0 24 -11.5 37.5t-41.5 24.5l-30 -132q83 5 83 70zM243 -13h-20l-26 -116h-92l28 127q-56 12 -103 38v148l6 2q70 -45 126 -59l35 153q-171 54 -171 202q0 103 67.5 160.5t184.5 57.5h23l19 85h93l-22 -96
q45 -11 78 -27v-141l-6 -1q-47 28 -101 40l-33 -146q102 -31 142.5 -73.5t40.5 -126.5q0 -110 -70 -168.5t-199 -58.5z" />
    <glyph glyph-name="percent" unicode="%" horiz-adv-x="814" 
d="M200 348q-81 0 -131.5 49.5t-50.5 126.5q0 75 50.5 125t131.5 50q82 0 132 -49.5t50 -125.5q0 -77 -50 -126.5t-132 -49.5zM127 0l471 690h92l-471 -690h-92zM200 438q29 0 45 23t16 63q0 39 -16 62t-45 23q-30 0 -46 -23t-16 -62q0 -40 16 -63t46 -23zM614 -14
q-82 0 -132.5 49.5t-50.5 126.5q0 75 51 125t132 50q82 0 132 -49.5t50 -125.5q0 -77 -50 -126.5t-132 -49.5zM614 76q29 0 45 23.5t16 62.5t-16 62t-45 23q-30 0 -46 -23t-16 -62t16.5 -62.5t45.5 -23.5z" />
    <glyph glyph-name="ampersand" unicode="&#x26;" horiz-adv-x="711" 
d="M307 110q46 0 80 22l-155 199q-49 -40 -49 -103q0 -53 32 -85.5t92 -32.5zM490 0l-31 40q-68 -55 -180 -55q-122 0 -192 60.5t-70 163.5q0 152 153 216q-20 48 -20 99q0 81 59 138t164 57q97 0 152 -26v-141l-7 -4q-54 26 -102 26q-39 0 -60 -16t-21 -43q0 -18 8 -36
t16.5 -29.5t32.5 -43.5l103 -132q18 54 28 142h145q-10 -157 -74 -270l107 -138v-8h-211z" />
    <glyph glyph-name="quotesingle" unicode="'" horiz-adv-x="216" 
d="M187 705l-22 -253h-114l-22 253h158z" />
    <glyph glyph-name="parenleft" unicode="(" horiz-adv-x="360" 
d="M352 -170h-151q-83 103 -126.5 215.5t-43.5 257.5t43 256.5t127 214.5h151q-73 -109 -112 -219.5t-39 -251.5t39.5 -253t111.5 -220z" />
    <glyph glyph-name="parenright" unicode=")" horiz-adv-x="360" 
d="M159 -170h-151q72 108 111.5 220t39.5 253t-39 251.5t-112 219.5h151q84 -103 127 -214.5t43 -256.5t-43.5 -257.5t-126.5 -215.5z" />
    <glyph glyph-name="asterisk" unicode="*" horiz-adv-x="412" 
d="M337 405l-91 77l20 -120h-121l21 120l-92 -77l-54 98l115 42l-115 43l54 98l92 -77l-21 120h121l-20 -120l91 77l55 -98l-115 -42l115 -43z" />
    <glyph glyph-name="plus" unicode="+" horiz-adv-x="531" 
d="M202 106v180h-165v119h165v181h127v-181h165v-119h-165v-180h-127z" />
    <glyph glyph-name="comma" unicode="," horiz-adv-x="271" 
d="M25 -105l30 262h181l4 -10l-83 -252h-132z" />
    <glyph glyph-name="hyphen" unicode="-" horiz-adv-x="342" 
d="M33 251v136h276v-136h-276z" />
    <glyph glyph-name="period" unicode="." horiz-adv-x="270" 
d="M44 0v157h182v-157h-182z" />
    <glyph glyph-name="slash" unicode="/" horiz-adv-x="426" 
d="M286 774h134l-314 -944h-134z" />
    <glyph glyph-name="zero" unicode="0" horiz-adv-x="654" 
d="M327 -12q-136 0 -220 95t-84 262t83.5 259.5t220.5 92.5t220.5 -92.5t83.5 -259.5t-83.5 -262t-220.5 -95zM327 122q116 0 116 223q0 218 -116 218t-116 -218q0 -223 116 -223z" />
    <glyph glyph-name="one" unicode="1" horiz-adv-x="387" 
d="M320 0h-181v499l-115 -68l-6 3v151l192 112h110v-697z" />
    <glyph glyph-name="two" unicode="2" horiz-adv-x="510" 
d="M17 0v86l197 222q83 94 83 162q0 40 -24.5 64t-76.5 24q-77 0 -154 -49l-7 4v135q74 49 198 49q115 0 180 -54t65 -154q0 -66 -32.5 -124t-96.5 -128l-99 -107h237v-130h-470z" />
    <glyph glyph-name="three" unicode="3" horiz-adv-x="519" 
d="M239 -12q-122 0 -217 53v133l7 5q47 -28 86 -41t96 -13q105 0 105 83t-106 83h-75v122h65q98 0 98 76q0 74 -99 74q-49 0 -80 -9.5t-73 -33.5l-8 4v128q72 45 199 45q105 0 171.5 -47t66.5 -136q0 -115 -115 -151q136 -34 136 -168q0 -98 -66.5 -152.5t-190.5 -54.5z" />
    <glyph glyph-name="four" unicode="4" horiz-adv-x="589" 
d="M309 251v183l-127 -183h127zM579 125h-94v-125h-176v125h-306v81l342 488h140v-443h94v-126z" />
    <glyph glyph-name="five" unicode="5" horiz-adv-x="516" 
d="M224 -12q-131 0 -209 49v130l8 5q81 -51 166 -51q122 0 122 96q0 46 -32 67t-101 21q-65 0 -123 -21l-8 5v396h413v-130h-264v-125q26 2 42 2q122 0 188 -55t66 -158q0 -106 -70.5 -168.5t-197.5 -62.5z" />
    <glyph glyph-name="six" unicode="6" horiz-adv-x="586" 
d="M569 221q0 -104 -68 -168.5t-190 -64.5q-133 0 -209.5 84.5t-76.5 239.5q0 190 90.5 287.5t237.5 97.5q110 0 170 -32v-139l-9 -3q-64 40 -141 40q-72 0 -112 -39t-52 -129q59 44 147 44q91 0 152 -56.5t61 -161.5zM306 116q86 0 86 107q0 100 -95 100q-54 0 -92 -30
q3 -94 27.5 -135.5t73.5 -41.5z" />
    <glyph glyph-name="seven" unicode="7" horiz-adv-x="512" 
d="M264 0h-182q21 103 63.5 204t110.5 231l57 109h-295v141h484v-99l-86 -173q-121 -243 -152 -413z" />
    <glyph glyph-name="eight" unicode="8" horiz-adv-x="577" 
d="M291 -12q-127 0 -199 50.5t-72 138.5q0 55 34.5 95.5t91.5 61.5q-108 59 -108 168q0 90 71 142.5t176 52.5q113 0 183 -44.5t70 -138.5q0 -95 -108 -144q65 -30 96 -72t31 -107q0 -94 -70 -148.5t-196 -54.5zM209 510q0 -32 26 -56.5t86 -44.5q58 40 58 92q0 39 -24 59.5
t-64 20.5q-38 0 -60 -20t-22 -51zM287 106q46 0 70.5 21.5t24.5 56.5q0 36 -29.5 61t-96.5 47q-71 -40 -71 -100q0 -42 26.5 -64t75.5 -22z" />
    <glyph glyph-name="nine" unicode="9" horiz-adv-x="585" 
d="M288 365q49 0 93 30q-3 94 -26.5 134t-72.5 40q-89 0 -89 -104q0 -53 23 -76.5t72 -23.5zM221 -12q-108 0 -172 33v138l9 3q63 -40 143 -40q83 0 124.5 38t51.5 131q-51 -42 -147 -42q-93 0 -153 55t-60 161q0 102 70 167t191 65q133 0 207.5 -82.5t74.5 -241.5
q0 -199 -89.5 -292t-249.5 -93z" />
    <glyph glyph-name="colon" unicode=":" horiz-adv-x="274" 
d="M46 331v156h182v-156h-182zM46 0v157h182v-157h-182z" />
    <glyph glyph-name="semicolon" unicode=";" horiz-adv-x="277" 
d="M53 331v156h182v-156h-182zM25 -105l31 262h180l4 -10l-82 -252h-133z" />
    <glyph glyph-name="less" unicode="&#x3c;" horiz-adv-x="504" 
d="M446 86l-404 222v75l404 221l5 -4v-136l-225 -119l225 -119v-136z" />
    <glyph glyph-name="equal" unicode="=" horiz-adv-x="533" 
d="M44 353v110h445v-110h-445zM44 161v110h445v-110h-445z" />
    <glyph glyph-name="greater" unicode="&#x3e;" horiz-adv-x="504" 
d="M58 86l-5 4v136l225 119l-225 119v136l5 4l404 -221v-76z" />
    <glyph glyph-name="question" unicode="?" horiz-adv-x="475" 
d="M29 531v142q74 46 188 46q105 0 166.5 -48.5t61.5 -139.5q0 -62 -26.5 -106t-84.5 -87q-31 -24 -43.5 -42t-12.5 -46v-17h-159v23q0 58 20 93t68 73q32 25 45 44.5t13 47.5q0 61 -78 61q-77 0 -151 -48zM106 0v157h183v-157h-183z" />
    <glyph glyph-name="at" unicode="@" horiz-adv-x="903" 
d="M463 -180q-198 0 -318.5 116t-120.5 295q0 200 129 330.5t320 130.5q181 0 294 -104.5t113 -261.5q0 -142 -60.5 -221.5t-157.5 -79.5q-113 0 -148 74q-52 -74 -130 -74q-76 0 -122.5 55t-46.5 144q0 114 60 185.5t149 71.5q68 0 108 -52l6 43h142l-35 -287
q-6 -46 6 -64.5t39 -18.5q47 0 80.5 55.5t33.5 168.5q0 137 -91 218.5t-242 81.5q-153 0 -262 -109t-109 -291q0 -150 98.5 -245t266.5 -95q110 0 194 45l6 -3v-65q-78 -43 -202 -43zM432 146q42 0 68 32l19 149q-28 35 -67 35t-62 -35.5t-23 -93.5q0 -41 17.5 -64t47.5 -23
z" />
    <glyph glyph-name="A" unicode="A" horiz-adv-x="710" 
d="M413 241l-71 187l-72 -187h143zM505 0l-44 115h-238l-44 -115h-173v8l299 703h101l299 -703v-8h-200z" />
    <glyph glyph-name="B" unicode="B" horiz-adv-x="651" 
d="M327 570h-77v-144h80q45 0 65 17.5t20 55.5q0 71 -88 71zM331 301h-81v-165h81q57 0 82 18.5t25 63.5t-25.5 64t-81.5 19zM59 0v705h288q249 0 249 -181q0 -116 -116 -145q149 -38 149 -177q0 -97 -66.5 -149.5t-201.5 -52.5h-302z" />
    <glyph glyph-name="C" unicode="C" horiz-adv-x="661" 
d="M416 -14q-178 0 -284.5 102.5t-106.5 266.5t106 264t277 100q127 0 203 -40v-156l-7 -4q-74 53 -172 53q-94 0 -151.5 -58t-57.5 -159q0 -102 58.5 -161t157.5 -59q103 0 179 61l8 -4v-152q-81 -54 -210 -54z" />
    <glyph glyph-name="D" unicode="D" horiz-adv-x="736" 
d="M301 563h-50v-421h50q103 0 158.5 48t55.5 159q0 214 -214 214zM59 0v705h252q181 0 290.5 -87.5t109.5 -268.5q0 -92 -30 -160.5t-85 -109t-126 -60t-159 -19.5h-252z" />
    <glyph glyph-name="E" unicode="E" horiz-adv-x="565" 
d="M59 0v705h460v-139h-269v-136h230v-138h-230v-153h274v-139h-465z" />
    <glyph glyph-name="F" unicode="F" horiz-adv-x="538" 
d="M480 262h-230v-262h-191v705h450v-139h-259v-165h230v-139z" />
    <glyph glyph-name="G" unicode="G" horiz-adv-x="718" 
d="M676 400v-334q-113 -80 -265 -80q-181 0 -283.5 100t-102.5 269q0 164 108.5 264t283.5 100q142 0 225 -46v-153l-7 -4q-92 55 -196 55q-103 0 -160 -58t-57 -163q0 -106 49 -161.5t145 -55.5q45 0 76 10v125h-122v132h306z" />
    <glyph glyph-name="H" unicode="H" horiz-adv-x="767" 
d="M514 0v281h-262v-281h-193v705h193v-272h262v272h194v-705h-194z" />
    <glyph glyph-name="I" unicode="I" horiz-adv-x="315" 
d="M61 0v705h193v-705h-193z" />
    <glyph glyph-name="J" unicode="J" horiz-adv-x="315" 
d="M-38 -198v138q58 8 79.5 33t21.5 89v643h193v-640q0 -133 -63 -193.5t-231 -69.5z" />
    <glyph glyph-name="K" unicode="K" horiz-adv-x="694" 
d="M476 0l-163 284l-61 -80v-204h-193v705h193v-286l228 286h192v-7l-223 -274l236 -417v-7h-209z" />
    <glyph glyph-name="L" unicode="L" horiz-adv-x="534" 
d="M59 0v705h193v-556h251v-149h-444z" />
    <glyph glyph-name="M" unicode="M" horiz-adv-x="875" 
d="M639 0v428l-180 -432h-63l-182 439v-435h-155v705h213l163 -391l162 391h219v-705h-177z" />
    <glyph glyph-name="N" unicode="N" horiz-adv-x="745" 
d="M686 -8h-111l-351 402v-394h-165v712h115l347 -397v390h165v-713z" />
    <glyph glyph-name="O" unicode="O" 
d="M398 -14q-167 0 -270 105t-103 264t102.5 261.5t270.5 102.5t270.5 -102.5t102.5 -261.5t-103 -264t-270 -105zM398 130q83 0 130 61t47 164q0 101 -48 161t-129 60t-128.5 -60t-47.5 -161q0 -103 47 -164t129 -61z" />
    <glyph glyph-name="P" unicode="P" horiz-adv-x="625" 
d="M317 567h-67v-201h70q56 0 81 24.5t25 78.5q0 51 -27 74.5t-82 23.5zM328 234h-78v-234h-191v705h261q136 0 211 -59.5t75 -179.5q0 -115 -74 -173.5t-204 -58.5z" />
    <glyph glyph-name="Q" unicode="Q" 
d="M632 -180q-126 0 -201 48.5t-105 123.5q-138 22 -219.5 122t-81.5 241q0 159 102.5 261.5t270.5 102.5t270.5 -102.5t102.5 -261.5q0 -134 -71.5 -228.5t-198.5 -122.5q33 -53 144 -53q44 0 74 11l5 -4v-127q-36 -11 -92 -11zM398 130q86 0 131.5 60.5t45.5 164.5
q0 101 -48 161t-129 60t-128.5 -60t-47.5 -161q0 -103 47 -164t129 -61z" />
    <glyph glyph-name="R" unicode="R" horiz-adv-x="661" 
d="M317 570h-67v-191h70q59 0 85.5 24.5t26.5 73.5t-27 71t-88 22zM459 0l-130 247h-79v-247h-191v705h278q137 0 207.5 -58t70.5 -165q0 -138 -114 -189l156 -283v-10h-198z" />
    <glyph glyph-name="S" unicode="S" horiz-adv-x="539" 
d="M244 -13q-126 0 -213 50v159l6 3q98 -65 196 -65t98 67q0 27 -19 40.5t-71 30.5l-48 14q-166 51 -166 210q0 104 68.5 163t183.5 59q117 0 189 -39v-152l-6 -3q-81 48 -176 48q-43 0 -65 -15.5t-22 -41.5q0 -25 16 -40t58 -29l46 -14q105 -31 149.5 -78.5t44.5 -136.5
q0 -111 -70 -170.5t-199 -59.5z" />
    <glyph glyph-name="T" unicode="T" horiz-adv-x="592" 
d="M577 555h-184v-555h-194v555h-184v150h562v-150z" />
    <glyph glyph-name="U" unicode="U" horiz-adv-x="720" 
d="M363 -12q-153 0 -232.5 74t-79.5 217v426h194v-423q0 -140 126 -140q61 0 94 35.5t33 104.5v423h171v-426q0 -137 -79 -214t-227 -77z" />
    <glyph glyph-name="V" unicode="V" horiz-adv-x="703" 
d="M402 -6h-103l-291 703v8h201l153 -388l152 388h181v-8z" />
    <glyph glyph-name="W" unicode="W" horiz-adv-x="1004" 
d="M636 -6l-140 366l-141 -366h-113l-234 703v8h200l127 -385l85 225l-49 152v8h195l132 -375l120 375h176l2 -8l-232 -703h-128z" />
    <glyph glyph-name="X" unicode="X" horiz-adv-x="689" 
d="M464 0l-137 251l-139 -251h-176v8l214 366l-199 323v8h212l118 -216l123 216h175v-8l-198 -328l220 -361v-8h-213z" />
    <glyph glyph-name="Y" unicode="Y" horiz-adv-x="639" 
d="M418 0h-194v278l-220 419v8h198l130 -275l129 275h174v-8l-217 -413v-284z" />
    <glyph glyph-name="Z" unicode="Z" horiz-adv-x="609" 
d="M583 0h-571v71l321 493h-285v141h534v-80l-313 -483h314v-142z" />
    <glyph glyph-name="bracketleft" unicode="[" horiz-adv-x="394" 
d="M65 -170v944h291v-122h-127v-700h127v-122h-291z" />
    <glyph glyph-name="backslash" unicode="\" horiz-adv-x="426" 
d="M137 774l314 -944h-134l-314 944h134z" />
    <glyph glyph-name="bracketright" unicode="]" horiz-adv-x="394" 
d="M38 -170v122h127v700h-127v122h291v-944h-291z" />
    <glyph glyph-name="asciicircum" unicode="^" horiz-adv-x="539" 
d="M172 381h-155l205 324h94l206 -324h-156l-97 154z" />
    <glyph glyph-name="underscore" unicode="_" horiz-adv-x="408" 
d="M-9 -146v85h426v-85h-426z" />
    <glyph glyph-name="grave" unicode="`" horiz-adv-x="399" 
d="M165 597l-120 171h171l77 -171h-128z" />
    <glyph glyph-name="a" unicode="a" horiz-adv-x="552" 
d="M255 100q51 0 83 40v98l-65 -9q-46 -7 -66.5 -22t-20.5 -45q0 -62 69 -62zM361 0l-11 61q-53 -74 -151 -74q-79 0 -129 43t-50 121q0 82 53.5 121t162.5 54l102 13q0 52 -24 72t-80 20q-85 0 -164 -42l-7 2v129q74 43 200 43q123 0 184.5 -53t61.5 -171v-339h-148z" />
    <glyph glyph-name="b" unicode="b" horiz-adv-x="624" 
d="M359 -13q-100 0 -158 71l-19 -58h-136v722l172 29v-262q57 74 157 74q103 0 165.5 -73.5t62.5 -210.5q0 -141 -67 -216.5t-177 -75.5zM316 114q53 0 82.5 42.5t29.5 122.5q0 76 -30 113.5t-80 37.5q-63 0 -100 -42v-242q41 -32 98 -32z" />
    <glyph glyph-name="c" unicode="c" horiz-adv-x="503" 
d="M319 -13q-139 0 -219 76t-80 213t82.5 212t213.5 75q96 0 150 -33v-127l-7 -3q-55 35 -121 35q-62 0 -101.5 -40.5t-39.5 -118.5q0 -81 38.5 -122t104.5 -41q70 0 130 41l8 -3v-121q-58 -43 -159 -43z" />
    <glyph glyph-name="d" unicode="d" horiz-adv-x="622" 
d="M305 120q60 0 99 36v245q-38 35 -96 35q-54 0 -83.5 -42.5t-29.5 -122.5q0 -76 30 -113.5t80 -37.5zM436 0l-17 71q-62 -84 -168 -84t-168 73t-62 211q0 141 64.5 216.5t170.5 75.5q92 0 148 -62v221l172 29v-751h-140z" />
    <glyph glyph-name="e" unicode="e" horiz-adv-x="564" 
d="M296 447q-88 0 -105 -106h193q-3 54 -24 80t-64 26zM530 153v-125q-76 -41 -198 -41q-155 0 -233.5 76.5t-78.5 216.5q0 125 75.5 204t199.5 79q127 0 194 -81.5t52 -248.5h-352q10 -62 48 -89.5t111 -27.5q92 0 175 40z" />
    <glyph glyph-name="f" unicode="f" horiz-adv-x="389" 
d="M364 428h-110v-428h-172v428h-64v122h64v18q0 98 56.5 141.5t149.5 43.5q55 0 90 -8v-111q-24 3 -51 3q-73 0 -73 -76v-11h110v-122z" />
    <glyph glyph-name="g" unicode="g" horiz-adv-x="556" 
d="M262 291q34 0 55.5 22.5t21.5 60.5q0 39 -21.5 61.5t-55.5 22.5t-55.5 -22.5t-21.5 -61.5q0 -38 21.5 -60.5t55.5 -22.5zM262 -222q-132 0 -197.5 31.5t-64.5 96.5q0 44 29 69h134l3 -6q-10 -14 -10 -33q0 -48 106 -48q61 0 92.5 18.5t31.5 48.5q0 19 -11 25.5t-42 8.5
l-149 6q-72 2 -107.5 34t-35.5 79q0 80 80 118q-91 48 -91 149q0 83 63.5 135t167.5 52q65 0 121 -24l166 19v-120h-72q17 -32 17 -72q0 -75 -62 -123t-170 -48q-34 0 -54 4q-26 -14 -26 -38q0 -13 9.5 -18t31.5 -6l152 -7q87 -4 132 -41t45 -115q0 -91 -75 -143t-214 -52z
" />
    <glyph glyph-name="h" unicode="h" horiz-adv-x="601" 
d="M307 427q-47 0 -89 -33v-394h-172v722l172 29v-268q69 80 167 80q81 0 127 -47.5t46 -145.5v-370h-173v342q0 85 -78 85z" />
    <glyph glyph-name="i" unicode="i" horiz-adv-x="268" 
d="M48 0v550h172v-550h-172zM48 631v113h172v-113h-172z" />
    <glyph glyph-name="j" unicode="j" horiz-adv-x="266" 
d="M-24 -211v130q38 4 55 23.5t17 68.5v539h172v-550q0 -107 -60 -156t-184 -55zM48 631v113h172v-113h-172z" />
    <glyph glyph-name="k" unicode="k" horiz-adv-x="572" 
d="M380 0l-117 215l-45 -59v-156h-172v722l172 29v-419l164 218h172v-8l-162 -211l173 -323v-8h-185z" />
    <glyph glyph-name="l" unicode="l" horiz-adv-x="270" 
d="M49 0v722l172 29v-751h-172z" />
    <glyph glyph-name="m" unicode="m" horiz-adv-x="902" 
d="M298 427q-44 0 -80 -30v-397h-172v550h151l11 -69q70 82 162 82q109 0 147 -88q68 88 174 88q77 0 122.5 -47.5t45.5 -145.5v-370h-173v343q0 84 -68 84q-44 0 -80 -30v-397h-172v343q0 84 -68 84z" />
    <glyph glyph-name="n" unicode="n" horiz-adv-x="601" 
d="M307 427q-48 0 -89 -32v-395h-172v550h151l11 -72q73 85 173 85q80 0 128.5 -48t48.5 -145v-370h-173v342q0 85 -78 85z" />
    <glyph glyph-name="o" unicode="o" horiz-adv-x="629" 
d="M314 -13q-129 0 -211.5 78.5t-82.5 210.5t82.5 209.5t211.5 77.5t212 -77.5t83 -209.5t-83 -210.5t-212 -78.5zM314 112q56 0 88 41t32 122t-32 122t-88 41t-87.5 -41t-31.5 -122t31.5 -122t87.5 -41z" />
    <glyph glyph-name="p" unicode="p" horiz-adv-x="624" 
d="M316 114q53 0 82.5 42.5t29.5 122.5q0 76 -30 113.5t-80 37.5q-63 0 -99 -41v-240q38 -35 97 -35zM369 -13q-94 0 -150 62v-243h-173v744h152l11 -73q57 86 166 86q103 0 165.5 -73.5t62.5 -210.5q0 -140 -65.5 -216t-168.5 -76z" />
    <glyph glyph-name="q" unicode="q" horiz-adv-x="622" 
d="M576 -194h-172v254q-56 -73 -156 -73q-102 0 -164.5 73.5t-62.5 210.5q0 140 65.5 216t169.5 76q100 0 157 -70l9 58h154v-745zM305 120q63 0 99 41v240q-38 35 -96 35q-54 0 -83.5 -42.5t-29.5 -122.5q0 -76 30 -113.5t80 -37.5z" />
    <glyph glyph-name="r" unicode="r" horiz-adv-x="422" 
d="M352 394q-93 0 -134 -45v-349h-172v550h151l12 -94q59 103 153 103q29 0 44 -4v-162l-6 -4q-25 5 -48 5z" />
    <glyph glyph-name="s" unicode="s" horiz-adv-x="459" 
d="M215 -12q-115 0 -192 47v129l6 3q72 -56 172 -56q79 0 79 47q0 19 -12.5 28t-51.5 18l-49 12q-146 35 -146 168q0 82 57.5 131t157.5 49q101 0 169 -30v-124l-6 -3q-70 36 -158 36q-37 0 -52.5 -10.5t-15.5 -31.5q0 -18 12 -28t40 -17l49 -12q89 -23 127.5 -58.5
t38.5 -107.5q0 -90 -59.5 -140t-165.5 -50z" />
    <glyph glyph-name="t" unicode="t" horiz-adv-x="390" 
d="M363 122v-119q-47 -14 -112 -14q-80 0 -125.5 32.5t-45.5 113.5v293h-62v122h62v88l172 27v-115h109v-122h-109v-260q0 -27 13 -38.5t41 -11.5q23 0 51 7z" />
    <glyph glyph-name="u" unicode="u" horiz-adv-x="604" 
d="M407 0l-11 67q-73 -80 -169 -80q-85 0 -135 49t-50 144v370h172v-342q0 -85 80 -85q53 0 92 30v397h172v-550h-151z" />
    <glyph glyph-name="v" unicode="v" horiz-adv-x="575" 
d="M333 -5h-87l-242 548v7h182l112 -274l112 274h161v-7z" />
    <glyph glyph-name="w" unicode="w" horiz-adv-x="783" 
d="M513 -6l-122 305l-119 -305h-84l-181 548v8h173l77 -271l104 274h70l106 -277l77 274h162v-8l-178 -548h-85z" />
    <glyph glyph-name="x" unicode="x" horiz-adv-x="568" 
d="M370 0l-100 167l-99 -167h-160v9l174 276l-164 256v9h187l87 -147l90 147h161v-8l-167 -258l178 -275v-9h-187z" />
    <glyph glyph-name="y" unicode="y" horiz-adv-x="576" 
d="M75 -207v136q92 10 114 62l14 34l-197 517v8h181l112 -323l111 323h160v-8l-209 -575q-33 -92 -95 -129t-191 -45z" />
    <glyph glyph-name="z" unicode="z" horiz-adv-x="502" 
d="M477 0h-459v45l233 379h-207v126h437v-51l-229 -372h225v-127z" />
    <glyph glyph-name="braceleft" unicode="{" horiz-adv-x="388" 
d="M355 -49v-121q-167 0 -226.5 52t-34.5 158l25 111q12 51 -7 70.5t-88 21.5v119q69 2 88 22t7 71l-25 108q-25 108 34.5 159.5t226.5 51.5v-121q-68 0 -88.5 -19.5t-8.5 -71.5l21 -91q16 -71 -4.5 -111t-85.5 -57q66 -18 86.5 -56t4.5 -108l-22 -97q-12 -51 8.5 -71
t88.5 -20z" />
    <glyph glyph-name="bar" unicode="|" horiz-adv-x="238" 
d="M59 -170v944h120v-944h-120z" />
    <glyph glyph-name="braceright" unicode="}" horiz-adv-x="388" 
d="M33 -170v121q68 0 88.5 20.5t8.5 70.5l-22 97q-16 70 4.5 108t86.5 56q-65 17 -85.5 57t-4.5 111l21 91q12 52 -8.5 71.5t-88.5 19.5v121q167 0 226.5 -51.5t34.5 -159.5l-25 -108q-12 -51 7 -71t88 -22v-119q-69 -2 -88 -21.5t-7 -70.5l25 -111q25 -106 -34.5 -158
t-226.5 -52z" />
    <glyph glyph-name="asciitilde" unicode="~" horiz-adv-x="433" 
d="M405 410v-129q-39 -57 -108 -57q-43 0 -92.5 20t-72.5 20q-32 0 -53.5 -11.5t-43.5 -38.5l-7 3v130q35 56 108 56q42 0 93.5 -20.5t77.5 -20.5q50 0 90 51z" />
    <glyph glyph-name="exclamdown" unicode="&#xa1;" horiz-adv-x="280" 
d="M232 570v-157h-182v157h182zM209 337l25 -472h-188l26 472h137z" />
    <glyph glyph-name="cent" unicode="&#xa2;" horiz-adv-x="498" 
d="M476 151v-121q-45 -34 -120 -41l-6 -98h-102l6 100q-112 17 -174 91t-62 194q0 130 75.5 205t197.5 81l5 74h102l-5 -80q45 -9 71 -26v-127l-7 -1q-41 23 -72 31l-21 -320q55 5 104 39zM187 276q0 -112 76 -149l20 304q-96 -33 -96 -155z" />
    <glyph glyph-name="sterling" unicode="&#xa3;" horiz-adv-x="568" 
d="M539 130v-130h-526v81q51 35 68 71t26 101l3 19h-58v111h74l17 114q29 200 228 200q93 0 160 -33v-126l-8 -5q-54 30 -105 30q-41 0 -65 -19.5t-33 -68.5l-16 -92h149v-111h-168l-1 -7q-9 -51 -22 -79t-45 -56h322z" />
    <glyph glyph-name="yen" unicode="&#xa5;" horiz-adv-x="613" 
d="M557 136h-152v-136h-194v136h-151v87h151v48h-151v87h133l-182 324v8h197l111 -230l110 230h173v-8l-181 -324h136v-87h-152v-48h152v-87z" />
    <glyph glyph-name="brokenbar" unicode="&#xa6;" horiz-adv-x="238" 
d="M59 365v409h120v-409h-120zM59 -170v439h120v-439h-120z" />
    <glyph glyph-name="section" unicode="&#xa7;" horiz-adv-x="522" 
d="M234 -142q-100 0 -169 39v124l6 3q72 -49 150 -49q74 0 74 47q0 18 -13 29t-42 26l-68 36q-82 39 -116 82t-34 109q0 85 98 138q-36 42 -36 105q0 85 53 128t148 43q94 0 155 -32v-117l-6 -3q-70 36 -139 36q-60 0 -60 -44q0 -17 12.5 -29t47.5 -31l52 -28
q86 -47 119.5 -85t33.5 -101q0 -89 -92 -141q46 -44 46 -110q0 -86 -61 -130.5t-159 -44.5zM233 250l92 -50q28 21 28 53q0 27 -14 42t-49 35l-83 45l-13 8q-28 -22 -28 -55q0 -26 16 -42t51 -36z" />
    <glyph glyph-name="dieresis" unicode="&#xa8;" horiz-adv-x="404" 
d="M24 611v136h148v-136h-148zM232 611v136h148v-136h-148z" />
    <glyph glyph-name="copyright" unicode="&#xa9;" horiz-adv-x="783" 
d="M30 352q0 159 103.5 263t257.5 104t258 -104t104 -263q0 -158 -104 -262t-258 -104t-257.5 104t-103.5 262zM685 352q0 132 -83 219t-211 87q-126 0 -210 -87t-84 -219q0 -129 84 -217t210 -88q127 0 210.5 87.5t83.5 217.5zM416 154q-100 0 -157 53.5t-57 148.5
q0 94 59 147.5t152 53.5q69 0 113 -25v-97l-5 -2q-42 27 -92 27q-42 0 -68.5 -27t-26.5 -77q0 -51 26.5 -79t70.5 -28q54 0 98 31l6 -2v-92q-43 -32 -119 -32z" />
    <glyph glyph-name="ordfeminine" unicode="&#xaa;" horiz-adv-x="477" 
d="M215 327q45 0 72 34v76l-52 -7q-39 -6 -55.5 -18.5t-16.5 -36.5q0 -48 52 -48zM305 243l-9 50q-43 -60 -126 -60q-64 0 -104.5 33t-40.5 99q0 68 45.5 98t132.5 41l84 10q-1 42 -20 58t-67 16q-73 0 -133 -35l-6 2v107q56 36 168 36q102 0 152 -43.5t50 -141.5v-270h-126
z" />
    <glyph glyph-name="guillemotleft" unicode="&#xab;" horiz-adv-x="428" 
d="M115 74l-101 186l106 186h113l-103 -186l98 -186h-113zM290 74l-101 186l107 186h113l-103 -186l97 -186h-113z" />
    <glyph glyph-name="registered" unicode="&#xae;" horiz-adv-x="584" 
d="M21 443q0 119 78 196.5t193 77.5t193 -77.5t78 -196.5q0 -118 -78 -196t-193 -78t-193 78t-78 196zM505 443q0 97 -60 160.5t-153 63.5t-153.5 -64t-60.5 -160q0 -95 61 -159.5t153 -64.5q93 0 153 64.5t60 159.5zM288 519h-20v-60h20q20 0 28 7.5t8 24.5q0 28 -36 28z
M333 312l-44 91h-21v-91h-84v267h111q111 0 111 -87q0 -52 -40 -71l53 -106v-3h-86z" />
    <glyph glyph-name="overscore" unicode="&#xaf;" horiz-adv-x="400" 
d="M35 623v107h330v-107h-330z" />
    <glyph glyph-name="degree" unicode="&#xb0;" horiz-adv-x="435" 
d="M44 525q0 72 49.5 122t123.5 50t124 -50t50 -122t-50 -121.5t-124 -49.5t-123.5 49.5t-49.5 121.5zM301 524q0 39 -23.5 65.5t-60.5 26.5t-60.5 -26.5t-23.5 -65.5q0 -37 23.5 -63t60.5 -26t60.5 26t23.5 63z" />
    <glyph glyph-name="acute" unicode="&#xb4;" horiz-adv-x="401" 
d="M247 597h-129l78 171h171z" />
    <glyph glyph-name="paragraph" unicode="&#xb6;" horiz-adv-x="568" 
d="M507 -130h-106v835h106v-835zM344 -130h-106v424h-12q-90 0 -146 53.5t-56 150.5q0 101 55.5 154t146.5 53h118v-835z" />
    <glyph glyph-name="middot" unicode="&#xb7;" horiz-adv-x="264" 
d="M41 258v157h182v-157h-182z" />
    <glyph glyph-name="cedilla" unicode="&#xb8;" horiz-adv-x="400" 
d="M98 -210v72l7 3q30 -17 58 -17q38 0 38 30q0 31 -62 37v90h79v-46q42 -9 64.5 -28.5t22.5 -63.5q0 -48 -31.5 -73.5t-88.5 -25.5q-53 0 -87 22z" />
    <glyph glyph-name="ordmasculine" unicode="&#xba;" horiz-adv-x="528" 
d="M264 231q-106 0 -174.5 64.5t-68.5 169.5t68.5 169t174.5 64t174.5 -64.5t68.5 -168.5t-68.5 -169t-174.5 -65zM264 338q44 0 70.5 33t26.5 94t-26.5 93.5t-70.5 32.5q-45 0 -71 -32.5t-26 -93.5q0 -62 26 -94.5t71 -32.5z" />
    <glyph glyph-name="guillemotright" unicode="&#xbb;" horiz-adv-x="428" 
d="M24 74l98 186l-103 186h113l106 -186l-101 -186h-113zM200 74l98 186l-104 186h114l106 -186l-101 -186h-113z" />
    <glyph glyph-name="onequarter" unicode="&#xbc;" horiz-adv-x="764" 
d="M63 0l535 690h97l-536 -690h-96zM212 305h-123v260l-74 -42l-3 2v103l123 67h77v-390zM581 148v94l-70 -94h70zM749 67h-53v-67h-115v67h-174v57l195 264h94v-240h53v-81z" />
    <glyph glyph-name="onehalf" unicode="&#xbd;" horiz-adv-x="797" 
d="M67 0l535 690h97l-536 -690h-96zM212 305h-123v260l-74 -42l-3 2v103l123 67h77v-390zM487 0v65l112 113q27 27 37.5 43.5t10.5 35.5q0 39 -57 39q-48 0 -89 -28l-5 3v90q43 30 124 30q147 0 147 -120q0 -40 -17 -70t-55 -66l-48 -48h127v-87h-287z" />
    <glyph glyph-name="threequarters" unicode="&#xbe;" horiz-adv-x="790" 
d="M89 0l535 690h97l-536 -690h-96zM150 298q-79 0 -131 31v88l4 3q49 -30 108 -30q56 0 56 38q0 36 -55 36h-48v74h42q50 0 50 33q0 35 -53 35q-50 0 -92 -24l-5 3v85q43 26 122 26q64 0 104.5 -26.5t40.5 -77.5q0 -65 -70 -84q83 -17 83 -91q0 -57 -39.5 -88t-116.5 -31z
M607 148v94l-70 -94h70zM775 67h-53v-67h-115v67h-174v57l195 264h94v-240h53v-81z" />
    <glyph glyph-name="questiondown" unicode="&#xbf;" horiz-adv-x="475" 
d="M369 570v-157h-183v157h183zM446 39v-142q-74 -46 -188 -46q-105 0 -166.5 48.5t-61.5 139.5q0 62 26.5 106t84.5 87q31 24 43.5 42t12.5 46v17h159v-23q0 -58 -20 -92t-68 -74q-32 -25 -45 -44.5t-13 -47.5q0 -61 78 -61q77 0 151 48z" />
    <glyph glyph-name="Agrave" unicode="&#xc0;" horiz-adv-x="710" 
d="M304 756l-93 130h138l71 -130h-116zM413 241l-71 187l-72 -187h143zM505 0l-44 115h-238l-44 -115h-173v8l299 703h101l299 -703v-8h-200z" />
    <glyph glyph-name="Aacute" unicode="&#xc1;" horiz-adv-x="710" 
d="M501 886l-93 -130h-116l71 130h138zM413 241l-71 187l-72 -187h143zM505 0l-44 115h-238l-44 -115h-173v8l299 703h101l299 -703v-8h-200z" />
    <glyph glyph-name="Acircumflex" unicode="&#xc2;" horiz-adv-x="710" 
d="M355 808l-47 -52h-114l101 130h122l101 -130h-114zM413 241l-71 187l-72 -187h143zM505 0l-44 115h-238l-44 -115h-173v8l299 703h101l299 -703v-8h-200z" />
    <glyph glyph-name="Atilde" unicode="&#xc3;" horiz-adv-x="710" 
d="M425 863q32 0 64 36l6 -3v-85q-31 -41 -77 -41q-31 0 -64.5 15t-48.5 15q-35 0 -69 -35l-6 3v85q26 41 79 41q28 0 63.5 -15.5t52.5 -15.5zM413 241l-71 187l-72 -187h143zM505 0l-44 115h-238l-44 -115h-173v8l299 703h101l299 -703v-8h-200z" />
    <glyph glyph-name="Adieresis" unicode="&#xc4;" horiz-adv-x="710" 
d="M413 241l-71 187l-72 -187h143zM505 0l-44 115h-238l-44 -115h-173v8l299 703h101l299 -703v-8h-200zM392 744v133h155v-133h-155zM165 744v133h155v-133h-155z" />
    <glyph glyph-name="Aring" unicode="&#xc5;" horiz-adv-x="710" 
d="M413 241l-71 187l-72 -187h143zM505 0l-44 115h-238l-44 -115h-173v8l299 703h101l299 -703v-8h-200zM355 742q-54 0 -86.5 32t-32.5 83t32.5 83t86.5 32t86.5 -32t32.5 -83t-32.5 -83t-86.5 -32zM355 902q-20 0 -31.5 -13t-11.5 -32q0 -20 11.5 -32.5t31.5 -12.5
t31.5 12.5t11.5 32.5q0 19 -11.5 32t-31.5 13z" />
    <glyph glyph-name="AE" unicode="&#xc6;" horiz-adv-x="962" 
d="M457 263v251l-138 -251h138zM457 0v133h-209l-73 -133h-172v8l390 697h524v-139h-269v-140h229v-130h-229v-157h273v-139h-464z" />
    <glyph glyph-name="Ccedilla" unicode="&#xc7;" horiz-adv-x="661" 
d="M354 -232q-53 0 -87 22v72l7 3q30 -17 58 -17q38 0 38 30q0 31 -62 37v82q-132 30 -207.5 125.5t-75.5 232.5q0 164 106 264t277 100q127 0 203 -40v-156l-7 -4q-74 53 -172 53q-94 0 -151.5 -58t-57.5 -159q0 -102 58.5 -161t157.5 -59q103 0 179 61l8 -4v-152
q-81 -54 -210 -54h-29v-27q42 -9 64.5 -28.5t22.5 -63.5q0 -48 -31.5 -73.5t-88.5 -25.5z" />
    <glyph glyph-name="Egrave" unicode="&#xc8;" horiz-adv-x="565" 
d="M258 756l-93 130h138l71 -130h-116zM59 0v705h460v-139h-269v-136h230v-138h-230v-153h274v-139h-465z" />
    <glyph glyph-name="Eacute" unicode="&#xc9;" horiz-adv-x="565" 
d="M432 886l-93 -130h-116l71 130h138zM59 0v705h460v-139h-269v-136h230v-138h-230v-153h274v-139h-465z" />
    <glyph glyph-name="Ecircumflex" unicode="&#xca;" horiz-adv-x="565" 
d="M285 808l-47 -52h-114l101 130h122l101 -130h-114zM59 0v705h460v-139h-269v-136h230v-138h-230v-153h274v-139h-465z" />
    <glyph glyph-name="Edieresis" unicode="&#xcb;" horiz-adv-x="565" 
d="M59 0v705h460v-139h-269v-136h230v-138h-230v-153h274v-139h-465zM327 744v133h155v-133h-155zM100 744v133h155v-133h-155z" />
    <glyph glyph-name="Igrave" unicode="&#xcc;" horiz-adv-x="315" 
d="M111 756l-93 130h138l71 -130h-116zM61 0v705h193v-705h-193z" />
    <glyph glyph-name="Iacute" unicode="&#xcd;" horiz-adv-x="315" 
d="M303 886l-93 -130h-116l71 130h138zM61 0v705h193v-705h-193z" />
    <glyph glyph-name="Icircumflex" unicode="&#xce;" horiz-adv-x="315" 
d="M61 0v705h193v-705h-193zM157 823l-61 -66h-132l128 160h130l128 -160h-132z" />
    <glyph glyph-name="Idieresis" unicode="&#xcf;" horiz-adv-x="315" 
d="M186 752v130h142v-130h-142zM-13 752v130h143v-130h-143zM61 0v705h193v-705h-193z" />
    <glyph glyph-name="Eth" unicode="&#xd0;" horiz-adv-x="748" 
d="M395 295h-132v-153h50q103 0 159 48t56 159q0 214 -215 214h-50v-141h132v-127zM71 0v295h-63v127h63v283h253q87 0 158 -20.5t125.5 -62t85 -111.5t30.5 -162t-30 -160.5t-85.5 -109t-126 -60t-157.5 -19.5h-253z" />
    <glyph glyph-name="Ntilde" unicode="&#xd1;" horiz-adv-x="745" 
d="M686 -8h-111l-351 402v-394h-165v712h115l347 -397v390h165v-713zM447 870q44 0 85 45l8 -3v-103q-37 -50 -105 -50q-39 0 -85.5 19t-66.5 19q-51 0 -91 -44l-8 3v103q34 49 105 49q38 0 86 -19t72 -19z" />
    <glyph glyph-name="Ograve" unicode="&#xd2;" 
d="M366 756l-93 130h138l71 -130h-116zM398 -14q-167 0 -270 105t-103 264t102.5 261.5t270.5 102.5t270.5 -102.5t102.5 -261.5t-103 -264t-270 -105zM398 130q83 0 130 61t47 164q0 101 -48 161t-129 60t-128.5 -60t-47.5 -161q0 -103 47 -164t129 -61z" />
    <glyph glyph-name="Oacute" unicode="&#xd3;" 
d="M557 886l-93 -130h-116l71 130h138zM398 -14q-167 0 -270 105t-103 264t102.5 261.5t270.5 102.5t270.5 -102.5t102.5 -261.5t-103 -264t-270 -105zM398 130q83 0 130 61t47 164q0 101 -48 161t-129 60t-128.5 -60t-47.5 -161q0 -103 47 -164t129 -61z" />
    <glyph glyph-name="Ocircumflex" unicode="&#xd4;" 
d="M398 808l-47 -52h-114l101 130h122l101 -130h-114zM398 -14q-167 0 -270 105t-103 264t102.5 261.5t270.5 102.5t270.5 -102.5t102.5 -261.5t-103 -264t-270 -105zM398 130q83 0 130 61t47 164q0 101 -48 161t-129 60t-128.5 -60t-47.5 -161q0 -103 47 -164t129 -61z" />
    <glyph glyph-name="Otilde" unicode="&#xd5;" 
d="M472 863q32 0 64 36l6 -3v-85q-31 -41 -77 -41q-31 0 -64.5 15t-48.5 15q-35 0 -69 -35l-6 3v85q26 41 79 41q28 0 63.5 -15.5t52.5 -15.5zM398 -14q-167 0 -270 105t-103 264t102.5 261.5t270.5 102.5t270.5 -102.5t102.5 -261.5t-103 -264t-270 -105zM398 130
q83 0 130 61t47 164q0 101 -48 161t-129 60t-128.5 -60t-47.5 -161q0 -103 47 -164t129 -61z" />
    <glyph glyph-name="Odieresis" unicode="&#xd6;" 
d="M434 744v133h155v-133h-155zM207 744v133h155v-133h-155zM398 -14q-167 0 -270 105t-103 264t102.5 261.5t270.5 102.5t270.5 -102.5t102.5 -261.5t-103 -264t-270 -105zM398 130q83 0 130 61t47 164q0 101 -48 161t-129 60t-128.5 -60t-47.5 -161q0 -103 47 -164
t129 -61z" />
    <glyph glyph-name="multiply" unicode="&#xd7;" horiz-adv-x="527" 
d="M405 119l-141 142l-142 -142l-86 86l142 141l-142 142l86 85l142 -141l141 141l85 -86l-141 -141l142 -141z" />
    <glyph glyph-name="Oslash" unicode="&#xd8;" 
d="M218 355q0 -69 21 -120l261 312q-44 29 -102 29q-82 0 -131 -60t-49 -161zM398 130q85 0 132.5 61t47.5 164q0 76 -25 127l-265 -316q45 -36 110 -36zM398 -14q-120 0 -212 58l-79 -94l-62 54l78 93q-98 100 -98 258q0 159 102.5 261.5t270.5 102.5q116 0 203 -51l68 81
l62 -54l-64 -77q104 -101 104 -263q0 -159 -103 -264t-270 -105z" />
    <glyph glyph-name="Ugrave" unicode="&#xd9;" horiz-adv-x="720" 
d="M331 756l-93 130h138l71 -130h-116zM363 -12q-153 0 -232.5 74t-79.5 217v426h194v-423q0 -140 126 -140q61 0 94 35.5t33 104.5v423h171v-426q0 -137 -79 -214t-227 -77z" />
    <glyph glyph-name="Uacute" unicode="&#xda;" horiz-adv-x="720" 
d="M522 886l-93 -130h-116l71 130h138zM363 -12q-153 0 -232.5 74t-79.5 217v426h194v-423q0 -140 126 -140q61 0 94 35.5t33 104.5v423h171v-426q0 -137 -79 -214t-227 -77z" />
    <glyph glyph-name="Ucircumflex" unicode="&#xdb;" horiz-adv-x="720" 
d="M364 823l-61 -66h-132l128 160h130l128 -160h-132zM363 -12q-153 0 -232.5 74t-79.5 217v426h194v-423q0 -140 126 -140q61 0 94 35.5t33 104.5v423h171v-426q0 -137 -79 -214t-227 -77z" />
    <glyph glyph-name="Udieresis" unicode="&#xdc;" horiz-adv-x="720" 
d="M363 -12q-153 0 -232.5 74t-79.5 217v426h194v-423q0 -140 126 -140q61 0 94 35.5t33 104.5v423h171v-426q0 -137 -79 -214t-227 -77zM401 744v133h155v-133h-155zM174 744v133h155v-133h-155z" />
    <glyph glyph-name="Yacute" unicode="&#xdd;" horiz-adv-x="639" 
d="M477 886l-93 -130h-116l71 130h138zM418 0h-194v278l-220 419v8h198l130 -275l129 275h174v-8l-217 -413v-284z" />
    <glyph glyph-name="Thorn" unicode="&#xde;" horiz-adv-x="629" 
d="M329 452h-79v-187h81q54 0 77 23.5t23 73.5q0 48 -24 69t-78 21zM340 137h-90v-137h-191v705h191v-115h82q133 0 205.5 -56.5t72.5 -173.5q0 -111 -71.5 -167t-198.5 -56z" />
    <glyph glyph-name="germandbls" unicode="&#xdf;" horiz-adv-x="635" 
d="M265 142l7 3q40 -26 90 -26q35 0 57.5 16.5t22.5 47.5q0 27 -26 52.5t-57 43.5t-57 46.5t-26 60.5q0 26 17 48.5t37 37t37 37.5t17 49q0 31 -21.5 50.5t-53.5 19.5q-88 0 -88 -100v-528h-175v508q0 128 71.5 186t195.5 58q110 0 177 -50.5t67 -130.5q0 -35 -17 -65
t-38 -46.5t-38 -33t-17 -28.5t18 -25.5t43.5 -29.5t51 -37.5t43.5 -56.5t18 -78q0 -88 -59 -136.5t-154 -48.5q-86 0 -143 31v125z" />
    <glyph glyph-name="agrave" unicode="&#xe0;" horiz-adv-x="552" 
d="M243 612l-93 130h138l71 -130h-116zM255 100q51 0 83 40v98l-65 -9q-46 -7 -66.5 -22t-20.5 -45q0 -62 69 -62zM361 0l-11 61q-53 -74 -151 -74q-79 0 -129 43t-50 121q0 82 53.5 121t162.5 54l102 13q0 52 -24 72t-80 20q-85 0 -164 -42l-7 2v129q74 43 200 43
q123 0 184.5 -53t61.5 -171v-339h-148z" />
    <glyph glyph-name="aacute" unicode="&#xe1;" horiz-adv-x="552" 
d="M419 742l-93 -130h-116l71 130h138zM255 100q51 0 83 40v98l-65 -9q-46 -7 -66.5 -22t-20.5 -45q0 -62 69 -62zM361 0l-11 61q-53 -74 -151 -74q-79 0 -129 43t-50 121q0 82 53.5 121t162.5 54l102 13q0 52 -24 72t-80 20q-85 0 -164 -42l-7 2v129q74 43 200 43
q123 0 184.5 -53t61.5 -171v-339h-148z" />
    <glyph glyph-name="acircumflex" unicode="&#xe2;" horiz-adv-x="552" 
d="M277 654l-47 -52h-114l101 130h122l101 -130h-114zM255 100q51 0 83 40v98l-65 -9q-46 -7 -66.5 -22t-20.5 -45q0 -62 69 -62zM361 0l-11 61q-53 -74 -151 -74q-79 0 -129 43t-50 121q0 82 53.5 121t162.5 54l102 13q0 52 -24 72t-80 20q-85 0 -164 -42l-7 2v129
q74 43 200 43q123 0 184.5 -53t61.5 -171v-339h-148z" />
    <glyph glyph-name="atilde" unicode="&#xe3;" horiz-adv-x="552" 
d="M340 700q32 0 64 36l6 -3v-85q-31 -41 -77 -41q-31 0 -64.5 15t-48.5 15q-35 0 -69 -35l-6 3v85q26 41 79 41q28 0 63.5 -15.5t52.5 -15.5zM255 100q51 0 83 40v98l-65 -9q-46 -7 -66.5 -22t-20.5 -45q0 -62 69 -62zM361 0l-11 61q-53 -74 -151 -74q-79 0 -129 43
t-50 121q0 82 53.5 121t162.5 54l102 13q0 52 -24 72t-80 20q-85 0 -164 -42l-7 2v129q74 43 200 43q123 0 184.5 -53t61.5 -171v-339h-148z" />
    <glyph glyph-name="adieresis" unicode="&#xe4;" horiz-adv-x="552" 
d="M255 100q51 0 83 40v98l-65 -9q-46 -7 -66.5 -22t-20.5 -45q0 -62 69 -62zM361 0l-11 61q-53 -74 -151 -74q-79 0 -129 43t-50 121q0 82 53.5 121t162.5 54l102 13q0 52 -24 72t-80 20q-85 0 -164 -42l-7 2v129q74 43 200 43q123 0 184.5 -53t61.5 -171v-339h-148z
M93 611v136h148v-136h-148zM301 611v136h148v-136h-148z" />
    <glyph glyph-name="aring" unicode="&#xe5;" horiz-adv-x="552" 
d="M255 100q51 0 83 40v98l-65 -9q-46 -7 -66.5 -22t-20.5 -45q0 -62 69 -62zM361 0l-11 61q-53 -74 -151 -74q-79 0 -129 43t-50 121q0 82 53.5 121t162.5 54l102 13q0 52 -24 72t-80 20q-85 0 -164 -42l-7 2v129q74 43 200 43q123 0 184.5 -53t61.5 -171v-339h-148z
M269 585q-54 0 -86.5 32t-32.5 83t32.5 83t86.5 32t86.5 -32t32.5 -83t-32.5 -83t-86.5 -32zM269 745q-20 0 -31.5 -12.5t-11.5 -32.5t11.5 -32t31.5 -12t31.5 12t11.5 32t-11.5 32.5t-31.5 12.5z" />
    <glyph glyph-name="ae" unicode="&#xe6;" horiz-adv-x="879" 
d="M612 447q-88 0 -105 -106h193q-3 54 -24 80t-64 26zM846 153v-125q-76 -41 -198 -41q-165 0 -246 89q-61 -89 -187 -89q-92 0 -143 40.5t-51 119.5q0 81 56.5 122t159.5 54l102 13q-1 55 -25.5 75t-84.5 20q-79 0 -158 -42l-7 2v129q74 43 200 43q128 0 179 -61
q61 61 168 61q126 0 193.5 -81t52.5 -246h-352q9 -63 46.5 -91.5t112.5 -28.5q92 0 175 40zM252 100q80 0 101 65q-11 31 -15 69l-64 -9q-47 -7 -67 -21.5t-20 -43.5q0 -60 65 -60z" />
    <glyph glyph-name="ccedilla" unicode="&#xe7;" horiz-adv-x="503" 
d="M257 -232q-53 0 -87 22v72l7 3q30 -17 58 -17q38 0 38 30q0 31 -62 37v86q-92 27 -141.5 97t-49.5 178q0 137 82.5 212t213.5 75q96 0 150 -33v-127l-7 -3q-55 35 -121 35q-62 0 -101.5 -40.5t-39.5 -118.5q0 -81 38.5 -122t104.5 -41q70 0 130 41l8 -3v-121
q-58 -43 -159 -43q-20 0 -29 1v-29q42 -9 64.5 -28.5t22.5 -63.5q0 -48 -31.5 -73.5t-88.5 -25.5z" />
    <glyph glyph-name="egrave" unicode="&#xe8;" horiz-adv-x="564" 
d="M272 612l-93 130h138l71 -130h-116zM296 447q-88 0 -105 -106h193q-3 54 -24 80t-64 26zM530 153v-125q-76 -41 -198 -41q-155 0 -233.5 76.5t-78.5 216.5q0 125 75.5 204t199.5 79q127 0 194 -81.5t52 -248.5h-352q10 -62 48 -89.5t111 -27.5q92 0 175 40z" />
    <glyph glyph-name="eacute" unicode="&#xe9;" horiz-adv-x="564" 
d="M450 742l-93 -130h-116l71 130h138zM296 447q-88 0 -105 -106h193q-3 54 -24 80t-64 26zM530 153v-125q-76 -41 -198 -41q-155 0 -233.5 76.5t-78.5 216.5q0 125 75.5 204t199.5 79q127 0 194 -81.5t52 -248.5h-352q10 -62 48 -89.5t111 -27.5q92 0 175 40z" />
    <glyph glyph-name="ecircumflex" unicode="&#xea;" horiz-adv-x="564" 
d="M296 447q-88 0 -105 -106h193q-3 54 -24 80t-64 26zM530 153v-125q-76 -41 -198 -41q-155 0 -233.5 76.5t-78.5 216.5q0 125 75.5 204t199.5 79q127 0 194 -81.5t52 -248.5h-352q10 -62 48 -89.5t111 -27.5q92 0 175 40zM303 654l-47 -52h-114l101 130h122l101 -130h-114
z" />
    <glyph glyph-name="edieresis" unicode="&#xeb;" horiz-adv-x="564" 
d="M115 611v136h148v-136h-148zM323 611v136h148v-136h-148zM296 447q-88 0 -105 -106h193q-3 54 -24 80t-64 26zM530 153v-125q-76 -41 -198 -41q-155 0 -233.5 76.5t-78.5 216.5q0 125 75.5 204t199.5 79q127 0 194 -81.5t52 -248.5h-352q10 -62 48 -89.5t111 -27.5
q92 0 175 40z" />
    <glyph glyph-name="igrave" unicode="&#xec;" horiz-adv-x="268" 
d="M84 612l-93 130h138l71 -130h-116zM50 0v550h172v-550h-172z" />
    <glyph glyph-name="iacute" unicode="&#xed;" horiz-adv-x="268" 
d="M284 742l-93 -130h-116l71 130h138zM50 0v550h172v-550h-172z" />
    <glyph glyph-name="icircumflex" unicode="&#xee;" horiz-adv-x="268" 
d="M135 665l-58 -68h-130l128 166h120l128 -166h-130zM50 0v550h172v-550h-172z" />
    <glyph glyph-name="idieresis" unicode="&#xef;" horiz-adv-x="268" 
d="M-18 611v130h130v-130h-130zM159 611v130h130v-130h-130zM50 0v550h172v-550h-172z" />
    <glyph glyph-name="eth" unicode="&#xf0;" horiz-adv-x="628" 
d="M313 -13q-129 0 -211 78t-82 214q0 132 68.5 206.5t169.5 74.5q65 0 112 -37q-34 45 -96 91l-140 -45l-23 60l97 31q-14 9 -120 76l2 6h222q6 -4 24 -14.5t28 -17.5l110 36l23 -60l-70 -22q179 -145 179 -345q0 -168 -80.5 -250t-212.5 -82zM313 112q119 0 119 181
q0 59 -9 111q-44 40 -106 40q-57 0 -89.5 -44t-32.5 -127q0 -79 32 -120t86 -41z" />
    <glyph glyph-name="ntilde" unicode="&#xf1;" horiz-adv-x="601" 
d="M307 427q-48 0 -89 -32v-395h-172v550h151l11 -72q73 85 173 85q80 0 128.5 -48t48.5 -145v-370h-173v342q0 85 -78 85zM375 719q42 0 83 45l8 -3v-103q-37 -50 -102 -50q-39 0 -82.5 19t-62.5 19q-49 0 -89 -44l-8 3v103q34 49 102 49q38 0 83 -19t68 -19z" />
    <glyph glyph-name="ograve" unicode="&#xf2;" horiz-adv-x="629" 
d="M285 612l-93 130h138l71 -130h-116zM314 -13q-129 0 -211.5 78.5t-82.5 210.5t82.5 209.5t211.5 77.5t212 -77.5t83 -209.5t-83 -210.5t-212 -78.5zM314 112q56 0 88 41t32 122t-32 122t-88 41t-87.5 -41t-31.5 -122t31.5 -122t87.5 -41z" />
    <glyph glyph-name="oacute" unicode="&#xf3;" horiz-adv-x="629" 
d="M470 742l-93 -130h-116l71 130h138zM314 -13q-129 0 -211.5 78.5t-82.5 210.5t82.5 209.5t211.5 77.5t212 -77.5t83 -209.5t-83 -210.5t-212 -78.5zM314 112q56 0 88 41t32 122t-32 122t-88 41t-87.5 -41t-31.5 -122t31.5 -122t87.5 -41z" />
    <glyph glyph-name="ocircumflex" unicode="&#xf4;" horiz-adv-x="629" 
d="M314 654l-47 -52h-114l101 130h122l101 -130h-114zM314 -13q-129 0 -211.5 78.5t-82.5 210.5t82.5 209.5t211.5 77.5t212 -77.5t83 -209.5t-83 -210.5t-212 -78.5zM314 112q56 0 88 41t32 122t-32 122t-88 41t-87.5 -41t-31.5 -122t31.5 -122t87.5 -41z" />
    <glyph glyph-name="otilde" unicode="&#xf5;" horiz-adv-x="629" 
d="M392 700q32 0 64 36l6 -3v-85q-31 -41 -77 -41q-31 0 -64.5 15t-48.5 15q-35 0 -69 -35l-6 3v85q26 41 79 41q28 0 63.5 -15.5t52.5 -15.5zM314 -13q-129 0 -211.5 78.5t-82.5 210.5t82.5 209.5t211.5 77.5t212 -77.5t83 -209.5t-83 -210.5t-212 -78.5zM314 112
q56 0 88 41t32 122t-32 122t-88 41t-87.5 -41t-31.5 -122t31.5 -122t87.5 -41z" />
    <glyph glyph-name="odieresis" unicode="&#xf6;" horiz-adv-x="629" 
d="M138 611v136h148v-136h-148zM346 611v136h148v-136h-148zM314 -13q-129 0 -211.5 78.5t-82.5 210.5t82.5 209.5t211.5 77.5t212 -77.5t83 -209.5t-83 -210.5t-212 -78.5zM314 112q56 0 88 41t32 122t-32 122t-88 41t-87.5 -41t-31.5 -122t31.5 -122t87.5 -41z" />
    <glyph glyph-name="divide" unicode="&#xf7;" horiz-adv-x="531" 
d="M188 467v139h156v-139h-156zM37 286v119h457v-119h-457zM188 85v139h156v-139h-156z" />
    <glyph glyph-name="oslash" unicode="&#xf8;" horiz-adv-x="629" 
d="M195 275q0 -46 10 -75l177 216q-28 22 -68 22q-56 0 -87.5 -41t-31.5 -122zM314 112q56 0 88 41t32 122q0 47 -12 82l-180 -220q28 -25 72 -25zM314 -13q-93 0 -161 41l-55 -67l-53 44l53 65q-78 81 -78 206q0 132 82.5 209.5t211.5 77.5q89 0 157 -38l60 73l53 -44
l-57 -70q82 -79 82 -208q0 -132 -83 -210.5t-212 -78.5z" />
    <glyph glyph-name="ugrave" unicode="&#xf9;" horiz-adv-x="604" 
d="M257 612l-93 130h138l71 -130h-116zM407 0l-11 67q-73 -80 -169 -80q-85 0 -135 49t-50 144v370h172v-342q0 -85 80 -85q53 0 92 30v397h172v-550h-151z" />
    <glyph glyph-name="uacute" unicode="&#xfa;" horiz-adv-x="604" 
d="M452 742l-93 -130h-116l71 130h138zM407 0l-11 67q-73 -80 -169 -80q-85 0 -135 49t-50 144v370h172v-342q0 -85 80 -85q53 0 92 30v397h172v-550h-151z" />
    <glyph glyph-name="ucircumflex" unicode="&#xfb;" horiz-adv-x="604" 
d="M301 665l-58 -68h-130l128 166h120l128 -166h-130zM407 0l-11 67q-73 -80 -169 -80q-85 0 -135 49t-50 144v370h172v-342q0 -85 80 -85q53 0 92 30v397h172v-550h-151z" />
    <glyph glyph-name="udieresis" unicode="&#xfc;" horiz-adv-x="604" 
d="M125 611v136h148v-136h-148zM333 611v136h148v-136h-148zM407 0l-11 67q-73 -80 -169 -80q-85 0 -135 49t-50 144v370h172v-342q0 -85 80 -85q53 0 92 30v397h172v-550h-151z" />
    <glyph glyph-name="yacute" unicode="&#xfd;" horiz-adv-x="576" 
d="M443 742l-93 -130h-116l71 130h138zM75 -207v136q92 10 114 62l14 34l-197 517v8h181l112 -323l111 323h160v-8l-209 -575q-33 -92 -95 -129t-191 -45z" />
    <glyph glyph-name="thorn" unicode="&#xfe;" horiz-adv-x="624" 
d="M316 114q53 0 82.5 42.5t29.5 122.5q0 76 -30 113.5t-80 37.5q-63 0 -99 -41v-240q38 -35 97 -35zM369 -13q-94 0 -150 62v-243h-173v916l173 29v-261q56 73 156 73q103 0 165.5 -73.5t62.5 -210.5q0 -140 -65.5 -216t-168.5 -76z" />
    <glyph glyph-name="ydieresis" unicode="&#xff;" horiz-adv-x="576" 
d="M75 -207v136q92 10 114 62l14 34l-197 517v8h181l112 -323l111 323h160v-8l-209 -575q-33 -92 -95 -129t-191 -45zM122 611v136h148v-136h-148zM330 611v136h148v-136h-148z" />
    <glyph glyph-name="Amacron" unicode="&#x100;" horiz-adv-x="710" 
d="M413 241l-71 187l-72 -187h143zM505 0l-44 115h-238l-44 -115h-173v8l299 703h101l299 -703v-8h-200zM184 775v110h341v-110h-341z" />
    <glyph glyph-name="amacron" unicode="&#x101;" horiz-adv-x="552" 
d="M255 100q51 0 83 40v98l-65 -9q-46 -7 -66.5 -22t-20.5 -45q0 -62 69 -62zM361 0l-11 61q-53 -74 -151 -74q-79 0 -129 43t-50 121q0 82 53.5 121t162.5 54l102 13q0 52 -24 72t-80 20q-85 0 -164 -42l-7 2v129q74 43 200 43q123 0 184.5 -53t61.5 -171v-339h-148z
M104 623v107h330v-107h-330z" />
    <glyph glyph-name="Abreve" unicode="&#x102;" horiz-adv-x="710" 
d="M357 756q-74 0 -109 31t-39 92h101q1 -43 46 -43q46 0 47 43h101q-4 -61 -38.5 -92t-108.5 -31zM413 241l-71 187l-72 -187h143zM505 0l-44 115h-238l-44 -115h-173v8l299 703h101l299 -703v-8h-200z" />
    <glyph glyph-name="abreve" unicode="&#x103;" horiz-adv-x="552" 
d="M255 100q51 0 83 40v98l-65 -9q-46 -7 -66.5 -22t-20.5 -45q0 -62 69 -62zM361 0l-11 61q-53 -74 -151 -74q-79 0 -129 43t-50 121q0 82 53.5 121t162.5 54l102 13q0 52 -24 72t-80 20q-85 0 -164 -42l-7 2v129q74 43 200 43q123 0 184.5 -53t61.5 -171v-339h-148z
M289 605q-74 0 -109 31t-39 92h101q1 -43 46 -43q46 0 47 43h101q-4 -61 -38.5 -92t-108.5 -31z" />
    <glyph glyph-name="Aogonek" unicode="&#x104;" horiz-adv-x="710" 
d="M617 -217q-130 0 -130 95q0 39 20.5 66t76.5 56h-79l-44 115h-238l-44 -115h-173v8l299 703h101l299 -703v-8q-39 -18 -61 -42t-22 -43q0 -35 42 -35q19 0 37 8l6 -3v-85q-40 -17 -90 -17zM413 241l-71 187l-72 -187h143z" />
    <glyph glyph-name="aogonek" unicode="&#x105;" horiz-adv-x="552" 
d="M255 100q51 0 83 40v98l-65 -9q-46 -7 -66.5 -22t-20.5 -45q0 -62 69 -62zM516 -115v-85q-40 -17 -90 -17q-130 0 -130 95q0 71 95 122h-30l-11 61q-53 -74 -151 -74q-79 0 -129 43t-50 121q0 82 53.5 121t162.5 54l102 13q0 52 -24 72t-80 20q-85 0 -164 -42l-7 2v129
q74 43 200 43q123 0 184.5 -53t61.5 -171v-339q-78 -49 -78 -85q0 -35 42 -35q19 0 37 8z" />
    <glyph glyph-name="Cacute" unicode="&#x106;" horiz-adv-x="661" 
d="M416 -14q-178 0 -284.5 102.5t-106.5 266.5t106 264t277 100q127 0 203 -40v-156l-7 -4q-74 53 -172 53q-94 0 -151.5 -58t-57.5 -159q0 -102 58.5 -161t157.5 -59q103 0 179 61l8 -4v-152q-81 -54 -210 -54zM444 757h-131l80 155h169z" />
    <glyph glyph-name="cacute" unicode="&#x107;" horiz-adv-x="503" 
d="M347 597h-129l78 171h171zM319 -13q-139 0 -219 76t-80 213t82.5 212t213.5 75q96 0 150 -33v-127l-7 -3q-55 35 -121 35q-62 0 -101.5 -40.5t-39.5 -118.5q0 -81 38.5 -122t104.5 -41q70 0 130 41l8 -3v-121q-58 -43 -159 -43z" />
    <glyph glyph-name="Ccircumflex" unicode="&#x108;" horiz-adv-x="661" 
d="M388 823l-61 -66h-132l128 160h130l128 -160h-132zM416 -14q-178 0 -284.5 102.5t-106.5 266.5t106 264t277 100q127 0 203 -40v-156l-7 -4q-74 53 -172 53q-94 0 -151.5 -58t-57.5 -159q0 -102 58.5 -161t157.5 -59q103 0 179 61l8 -4v-152q-81 -54 -210 -54z" />
    <glyph glyph-name="ccircumflex" unicode="&#x109;" horiz-adv-x="503" 
d="M291 665l-58 -68h-130l128 166h120l128 -166h-130zM319 -13q-139 0 -219 76t-80 213t82.5 212t213.5 75q96 0 150 -33v-127l-7 -3q-55 35 -121 35q-62 0 -101.5 -40.5t-39.5 -118.5q0 -81 38.5 -122t104.5 -41q70 0 130 41l8 -3v-121q-58 -43 -159 -43z" />
    <glyph glyph-name="Cdotaccent" unicode="&#x10a;" horiz-adv-x="661" 
d="M416 -14q-178 0 -284.5 102.5t-106.5 266.5t106 264t277 100q127 0 203 -40v-156l-7 -4q-74 53 -172 53q-94 0 -151.5 -58t-57.5 -159q0 -102 58.5 -161t157.5 -59q103 0 179 61l8 -4v-152q-81 -54 -210 -54zM306 765v135h164v-135h-164z" />
    <glyph glyph-name="cdotaccent" unicode="&#x10b;" horiz-adv-x="503" 
d="M319 -13q-139 0 -219 76t-80 213t82.5 212t213.5 75q96 0 150 -33v-127l-7 -3q-55 35 -121 35q-62 0 -101.5 -40.5t-39.5 -118.5q0 -81 38.5 -122t104.5 -41q70 0 130 41l8 -3v-121q-58 -43 -159 -43zM209 611v135h164v-135h-164z" />
    <glyph glyph-name="Ccaron" unicode="&#x10c;" horiz-adv-x="661" 
d="M388 851l61 66h132l-128 -160h-130l-128 160h132zM416 -14q-178 0 -284.5 102.5t-106.5 266.5t106 264t277 100q127 0 203 -40v-156l-7 -4q-74 53 -172 53q-94 0 -151.5 -58t-57.5 -159q0 -102 58.5 -161t157.5 -59q103 0 179 61l8 -4v-152q-81 -54 -210 -54z" />
    <glyph glyph-name="ccaron" unicode="&#x10d;" horiz-adv-x="503" 
d="M291 696l58 67h130l-128 -166h-120l-128 166h130zM319 -13q-139 0 -219 76t-80 213t82.5 212t213.5 75q96 0 150 -33v-127l-7 -3q-55 35 -121 35q-62 0 -101.5 -40.5t-39.5 -118.5q0 -81 38.5 -122t104.5 -41q70 0 130 41l8 -3v-121q-58 -43 -159 -43z" />
    <glyph glyph-name="Dcaron" unicode="&#x10e;" horiz-adv-x="736" 
d="M346 851l61 66h132l-128 -160h-130l-128 160h132zM301 563h-50v-421h50q103 0 158.5 48t55.5 159q0 214 -214 214zM59 0v705h252q181 0 290.5 -87.5t109.5 -268.5q0 -92 -30 -160.5t-85 -109t-126 -60t-159 -19.5h-252z" />
    <glyph glyph-name="dcaron" unicode="&#x10f;" horiz-adv-x="622" 
d="M305 120q60 0 99 36v245q-38 35 -96 35q-54 0 -83.5 -42.5t-29.5 -122.5q0 -76 30 -113.5t80 -37.5zM436 0l-17 71q-62 -84 -168 -84t-168 73t-62 211q0 141 64.5 216.5t170.5 75.5q92 0 148 -62v221l172 29v-751h-140zM613 581l7 162h119v-33l-30 -129h-96z" />
    <glyph glyph-name="Dcroat" unicode="&#x110;" horiz-adv-x="748" 
d="M395 291h-132v-149h50q103 0 159 48t56 159q0 214 -215 214h-50v-152h132v-120zM71 0v291h-48v120h48v294h253q87 0 158 -20.5t125.5 -62t85 -111.5t30.5 -162t-30 -160.5t-85.5 -109t-126 -60t-157.5 -19.5h-253z" />
    <glyph glyph-name="dslash" unicode="&#x111;" horiz-adv-x="622" 
d="M305 120q60 0 99 36v245q-38 35 -96 35q-54 0 -83.5 -42.5t-29.5 -122.5q0 -76 30 -113.5t80 -37.5zM436 0l-17 71q-62 -84 -168 -84t-168 73t-62 211q0 141 64.5 216.5t170.5 75.5q92 0 148 -62v94h-139v82h139v45l172 29v-74h53v-82h-53v-595h-140z" />
    <glyph glyph-name="Emacron" unicode="&#x112;" horiz-adv-x="565" 
d="M59 0v705h460v-139h-269v-136h230v-138h-230v-153h274v-139h-465zM120 775v110h341v-110h-341z" />
    <glyph glyph-name="emacron" unicode="&#x113;" horiz-adv-x="564" 
d="M296 447q-88 0 -105 -106h193q-3 54 -24 80t-64 26zM530 153v-125q-76 -41 -198 -41q-155 0 -233.5 76.5t-78.5 216.5q0 125 75.5 204t199.5 79q127 0 194 -81.5t52 -248.5h-352q10 -62 48 -89.5t111 -27.5q92 0 175 40zM126 623v107h330v-107h-330z" />
    <glyph glyph-name="Ebreve" unicode="&#x114;" horiz-adv-x="565" 
d="M59 0v705h460v-139h-269v-136h230v-138h-230v-153h274v-139h-465zM291 753q-74 0 -120.5 42t-53.5 116h112q11 -56 62 -56q50 0 62 56h112q-7 -74 -53.5 -116t-120.5 -42z" />
    <glyph glyph-name="ebreve" unicode="&#x115;" horiz-adv-x="564" 
d="M296 447q-88 0 -105 -106h193q-3 54 -24 80t-64 26zM530 153v-125q-76 -41 -198 -41q-155 0 -233.5 76.5t-78.5 216.5q0 125 75.5 204t199.5 79q127 0 194 -81.5t52 -248.5h-352q10 -62 48 -89.5t111 -27.5q92 0 175 40zM291 597q-72 0 -118 42.5t-53 116.5h108
q10 -57 63 -57q51 0 63 57h108q-8 -75 -53.5 -117t-117.5 -42z" />
    <glyph glyph-name="Edotaccent" unicode="&#x116;" horiz-adv-x="565" 
d="M208 765v135h164v-135h-164zM59 0v705h460v-139h-269v-136h230v-138h-230v-153h274v-139h-465z" />
    <glyph glyph-name="edotaccent" unicode="&#x117;" horiz-adv-x="564" 
d="M296 447q-88 0 -105 -106h193q-3 54 -24 80t-64 26zM530 153v-125q-76 -41 -198 -41q-155 0 -233.5 76.5t-78.5 216.5q0 125 75.5 204t199.5 79q127 0 194 -81.5t52 -248.5h-352q10 -62 48 -89.5t111 -27.5q92 0 175 40zM209 611v135h164v-135h-164z" />
    <glyph glyph-name="Eogonek" unicode="&#x118;" horiz-adv-x="565" 
d="M495 -115v-85q-40 -17 -90 -17q-130 0 -130 95q0 38 21.5 66t72.5 56h105q-64 -48 -64 -85q0 -35 42 -35q19 0 37 8zM59 0v705h460v-139h-269v-136h230v-138h-230v-153h274v-139h-465z" />
    <glyph glyph-name="eogonek" unicode="&#x119;" horiz-adv-x="564" 
d="M296 447q-88 0 -105 -106h193q-3 54 -24 80t-64 26zM486 -115v-85q-40 -17 -90 -17q-130 0 -130 95q0 34 19.5 59t65.5 50h-19q-155 0 -233.5 76.5t-78.5 216.5q0 125 75.5 204t199.5 79q127 0 194 -81.5t52 -248.5h-352q10 -62 48 -89.5t111 -27.5q92 0 175 40l7 -3
v-125q-5 -3 -12.5 -6.5t-17.5 -8t-17 -7.5q-82 -40 -82 -91q0 -35 42 -35q19 0 37 8z" />
    <glyph glyph-name="Ecaron" unicode="&#x11a;" horiz-adv-x="565" 
d="M290 851l61 66h132l-128 -160h-130l-128 160h132zM59 0v705h460v-139h-269v-136h230v-138h-230v-153h274v-139h-465z" />
    <glyph glyph-name="ecaron" unicode="&#x11b;" horiz-adv-x="564" 
d="M291 696l58 67h130l-128 -166h-120l-128 166h130zM296 447q-88 0 -105 -106h193q-3 54 -24 80t-64 26zM530 153v-125q-76 -41 -198 -41q-155 0 -233.5 76.5t-78.5 216.5q0 125 75.5 204t199.5 79q127 0 194 -81.5t52 -248.5h-352q10 -62 48 -89.5t111 -27.5q92 0 175 40z
" />
    <glyph glyph-name="Gcircumflex" unicode="&#x11c;" horiz-adv-x="718" 
d="M398 823l-61 -66h-132l128 160h130l128 -160h-132zM676 400v-334q-113 -80 -265 -80q-181 0 -283.5 100t-102.5 269q0 164 108.5 264t283.5 100q142 0 225 -46v-153l-7 -4q-92 55 -196 55q-103 0 -160 -58t-57 -163q0 -106 49 -161.5t145 -55.5q45 0 76 10v125h-122v132
h306z" />
    <glyph glyph-name="gcircumflex" unicode="&#x11d;" horiz-adv-x="556" 
d="M278 665l-58 -68h-130l128 166h120l128 -166h-130zM262 291q34 0 55.5 22.5t21.5 60.5q0 39 -21.5 61.5t-55.5 22.5t-55.5 -22.5t-21.5 -61.5q0 -38 21.5 -60.5t55.5 -22.5zM262 -222q-132 0 -197.5 31.5t-64.5 96.5q0 44 29 69h134l3 -6q-10 -14 -10 -33q0 -48 106 -48
q61 0 92.5 18.5t31.5 48.5q0 19 -11 25.5t-42 8.5l-149 6q-72 2 -107.5 34t-35.5 79q0 80 80 118q-91 48 -91 149q0 83 63.5 135t167.5 52q65 0 121 -24l166 19v-120h-72q17 -32 17 -72q0 -75 -62 -123t-170 -48q-34 0 -54 4q-26 -14 -26 -38q0 -13 9.5 -18t31.5 -6l152 -7
q87 -4 132 -41t45 -115q0 -91 -75 -143t-214 -52z" />
    <glyph glyph-name="Gbreve" unicode="&#x11e;" horiz-adv-x="718" 
d="M399 753q-74 0 -120.5 42t-53.5 116h112q11 -56 62 -56q50 0 62 56h112q-7 -74 -53.5 -116t-120.5 -42zM676 400v-334q-113 -80 -265 -80q-181 0 -283.5 100t-102.5 269q0 164 108.5 264t283.5 100q142 0 225 -46v-153l-7 -4q-92 55 -196 55q-103 0 -160 -58t-57 -163
q0 -106 49 -161.5t145 -55.5q45 0 76 10v125h-122v132h306z" />
    <glyph glyph-name="gbreve" unicode="&#x11f;" horiz-adv-x="556" 
d="M262 291q34 0 55.5 22.5t21.5 60.5q0 39 -21.5 61.5t-55.5 22.5t-55.5 -22.5t-21.5 -61.5q0 -38 21.5 -60.5t55.5 -22.5zM262 -222q-132 0 -197.5 31.5t-64.5 96.5q0 44 29 69h134l3 -6q-10 -14 -10 -33q0 -48 106 -48q61 0 92.5 18.5t31.5 48.5q0 19 -11 25.5t-42 8.5
l-149 6q-72 2 -107.5 34t-35.5 79q0 80 80 118q-91 48 -91 149q0 83 63.5 135t167.5 52q65 0 121 -24l166 19v-120h-72q17 -32 17 -72q0 -75 -62 -123t-170 -48q-34 0 -54 4q-26 -14 -26 -38q0 -13 9.5 -18t31.5 -6l152 -7q87 -4 132 -41t45 -115q0 -91 -75 -143t-214 -52z
M279 597q-72 0 -118 42.5t-53 116.5h108q10 -57 63 -57q51 0 63 57h108q-8 -75 -53.5 -117t-117.5 -42z" />
    <glyph glyph-name="Gdotaccent" unicode="&#x120;" horiz-adv-x="718" 
d="M316 765v135h164v-135h-164zM676 400v-334q-113 -80 -265 -80q-181 0 -283.5 100t-102.5 269q0 164 108.5 264t283.5 100q142 0 225 -46v-153l-7 -4q-92 55 -196 55q-103 0 -160 -58t-57 -163q0 -106 49 -161.5t145 -55.5q45 0 76 10v125h-122v132h306z" />
    <glyph glyph-name="gdotaccent" unicode="&#x121;" horiz-adv-x="556" 
d="M262 291q34 0 55.5 22.5t21.5 60.5q0 39 -21.5 61.5t-55.5 22.5t-55.5 -22.5t-21.5 -61.5q0 -38 21.5 -60.5t55.5 -22.5zM262 -222q-132 0 -197.5 31.5t-64.5 96.5q0 44 29 69h134l3 -6q-10 -14 -10 -33q0 -48 106 -48q61 0 92.5 18.5t31.5 48.5q0 19 -11 25.5t-42 8.5
l-149 6q-72 2 -107.5 34t-35.5 79q0 80 80 118q-91 48 -91 149q0 83 63.5 135t167.5 52q65 0 121 -24l166 19v-120h-72q17 -32 17 -72q0 -75 -62 -123t-170 -48q-34 0 -54 4q-26 -14 -26 -38q0 -13 9.5 -18t31.5 -6l152 -7q87 -4 132 -41t45 -115q0 -91 -75 -143t-214 -52z
M196 611v135h164v-135h-164z" />
    <glyph glyph-name="uni0122" unicode="&#x122;" horiz-adv-x="718" 
d="M315 -241l9 185h144l3 -11l-53 -174h-103zM676 400v-334q-113 -80 -265 -80q-181 0 -283.5 100t-102.5 269q0 164 108.5 264t283.5 100q142 0 225 -46v-153l-7 -4q-92 55 -196 55q-103 0 -160 -58t-57 -163q0 -106 49 -161.5t145 -55.5q45 0 76 10v125h-122v132h306z" />
    <glyph glyph-name="uni0123" unicode="&#x123;" horiz-adv-x="556" 
d="M353 782l-9 -185h-143l-5 8l55 177h102zM262 291q34 0 55.5 22.5t21.5 60.5q0 39 -21.5 61.5t-55.5 22.5t-55.5 -22.5t-21.5 -61.5q0 -38 21.5 -60.5t55.5 -22.5zM262 -222q-132 0 -197.5 31.5t-64.5 96.5q0 44 29 69h134l3 -6q-10 -14 -10 -33q0 -48 106 -48
q61 0 92.5 18.5t31.5 48.5q0 19 -11 25.5t-42 8.5l-149 6q-72 2 -107.5 34t-35.5 79q0 80 80 118q-91 48 -91 149q0 83 63.5 135t167.5 52q65 0 121 -24l166 19v-120h-72q17 -32 17 -72q0 -75 -62 -123t-170 -48q-34 0 -54 4q-26 -14 -26 -38q0 -13 9.5 -18t31.5 -6l152 -7
q87 -4 132 -41t45 -115q0 -91 -75 -143t-214 -52z" />
    <glyph glyph-name="Hcircumflex" unicode="&#x124;" horiz-adv-x="767" 
d="M514 0v281h-262v-281h-193v705h193v-272h262v272h194v-705h-194zM383 823l-61 -66h-132l128 160h130l128 -160h-132z" />
    <glyph glyph-name="hcircumflex" unicode="&#x125;" horiz-adv-x="601" 
d="M307 427q-47 0 -89 -33v-394h-172v722l172 29v-268q69 80 167 80q81 0 127 -47.5t46 -145.5v-370h-173v342q0 85 -78 85zM305 852l-61 -66h-132l128 160h130l128 -160h-132z" />
    <glyph glyph-name="Hbar" unicode="&#x126;" horiz-adv-x="767" 
d="M514 433v82h-262v-82h262zM514 0v281h-262v-281h-193v515h-67v91h67v99h193v-99h262v99h194v-99h64v-91h-64v-515h-194z" />
    <glyph glyph-name="hbar" unicode="&#x127;" horiz-adv-x="601" 
d="M307 427q-47 0 -89 -33v-394h-172v595h-53v82h53v45l172 29v-74h139v-82h-139v-112q69 80 167 80q81 0 127 -47.5t46 -145.5v-370h-173v342q0 85 -78 85z" />
    <glyph glyph-name="Itilde" unicode="&#x128;" horiz-adv-x="315" 
d="M219 863q32 0 64 36l6 -3v-85q-31 -41 -77 -41q-31 0 -64.5 15t-48.5 15q-35 0 -69 -35l-6 3v85q26 41 79 41q28 0 63.5 -15.5t52.5 -15.5zM61 0v705h193v-705h-193z" />
    <glyph glyph-name="itilde" unicode="&#x129;" horiz-adv-x="268" 
d="M201 700q33 0 64 36l6 -3v-85q-31 -41 -77 -41q-31 0 -64.5 15t-48.5 15q-35 0 -69 -35l-6 3v85q26 41 79 41q28 0 63.5 -15.5t52.5 -15.5zM50 0v550h172v-550h-172z" />
    <glyph glyph-name="Imacron" unicode="&#x12a;" horiz-adv-x="315" 
d="M6 757v110h303v-110h-303zM61 0v705h193v-705h-193z" />
    <glyph glyph-name="imacron" unicode="&#x12b;" horiz-adv-x="268" 
d="M-3 623v107h277v-107h-277zM50 0v550h172v-550h-172z" />
    <glyph glyph-name="Ibreve" unicode="&#x12c;" horiz-adv-x="315" 
d="M61 0v705h193v-705h-193zM158 753q-74 0 -120.5 42t-53.5 116h112q11 -56 62 -56q50 0 62 56h112q-7 -74 -53.5 -116t-120.5 -42z" />
    <glyph glyph-name="ibreve" unicode="&#x12d;" horiz-adv-x="268" 
d="M50 0v550h172v-550h-172zM136 597q-72 0 -118 42.5t-53 116.5h108q11 -57 63 -57q51 0 63 57h108q-8 -75 -53.5 -117t-117.5 -42z" />
    <glyph glyph-name="Iogonek" unicode="&#x12e;" horiz-adv-x="315" 
d="M258 -115v-85q-40 -17 -90 -17q-130 0 -130 95q0 75 84 122h-61v705h193v-705q-81 -42 -81 -85q0 -35 42 -35q19 0 37 8z" />
    <glyph glyph-name="iogonek" unicode="&#x12f;" horiz-adv-x="268" 
d="M48 606v139h171v-139h-171zM228 -115v-85q-40 -17 -90 -17q-130 0 -130 95q0 74 87 122h-47v550h172v-550q-77 -40 -77 -85q0 -35 42 -35q19 0 37 8z" />
    <glyph glyph-name="Idot" unicode="&#x130;" horiz-adv-x="315" 
d="M61 0v705h193v-705h-193zM75 765v135h164v-135h-164z" />
    <glyph glyph-name="dotlessi" unicode="&#x131;" horiz-adv-x="272" 
d="M50 0v550h172v-550h-172z" />
    <glyph glyph-name="IJ" unicode="&#x132;" horiz-adv-x="639" 
d="M286 -198v138q58 8 79 33t21 89v643h194v-640q0 -133 -63 -193.5t-231 -69.5zM61 0v705h193v-705h-193z" />
    <glyph glyph-name="ij" unicode="&#x133;" horiz-adv-x="548" 
d="M330 606v139h171v-139h-171zM48 606v139h171v-139h-171zM48 0v550h172v-550h-172zM258 -211v130q38 4 55 23.5t17 68.5v539h172v-550q0 -107 -60 -156t-184 -55z" />
    <glyph glyph-name="Jcircumflex" unicode="&#x134;" horiz-adv-x="315" 
d="M159 823l-61 -66h-132l128 160h130l128 -160h-132zM-38 -198v138q58 8 79.5 33t21.5 89v643h193v-640q0 -133 -63 -193.5t-231 -69.5z" />
    <glyph glyph-name="jcircumflex" unicode="&#x135;" horiz-adv-x="266" 
d="M-24 -211v130q38 4 55 23.5t17 68.5v525h172v-536q0 -107 -60 -156t-184 -55zM134 665l-58 -68h-130l128 166h120l128 -166h-130z" />
    <glyph glyph-name="uni0136" unicode="&#x136;" horiz-adv-x="695" 
d="M277 -241l9 185h144l3 -11l-53 -174h-103zM476 0l-163 284l-61 -80v-204h-193v705h193v-286l228 286h192v-7l-223 -274l236 -417v-7h-209z" />
    <glyph glyph-name="uni0137" unicode="&#x137;" horiz-adv-x="572" 
d="M208 -241l9 185h144l3 -11l-53 -174h-103zM380 0l-117 215l-45 -59v-156h-172v722l172 29v-419l164 218h172v-8l-162 -211l173 -323v-8h-185z" />
    <glyph glyph-name="Lacute" unicode="&#x139;" horiz-adv-x="534" 
d="M205 757h-131l80 155h169zM59 0v705h193v-556h251v-149h-444z" />
    <glyph glyph-name="lacute" unicode="&#x13a;" horiz-adv-x="270" 
d="M192 786h-131l80 155h169zM49 0v722l172 29v-751h-172z" />
    <glyph glyph-name="uni013B" unicode="&#x13b;" horiz-adv-x="529" 
d="M194 -241l9 185h144l3 -11l-53 -174h-103zM59 0v705h193v-556h251v-149h-444z" />
    <glyph glyph-name="uni013C" unicode="&#x13c;" horiz-adv-x="270" 
d="M52 -241l9 185h144l3 -11l-53 -174h-103zM49 0v722l172 29v-751h-172z" />
    <glyph glyph-name="Lcaron" unicode="&#x13d;" horiz-adv-x="534" 
d="M291 543l7 162h119v-33l-30 -129h-96zM59 0v705h193v-556h251v-149h-444z" />
    <glyph glyph-name="lcaron" unicode="&#x13e;" horiz-adv-x="270" 
d="M259 581l7 162h119v-33l-30 -129h-96zM49 0v722l172 29v-751h-172z" />
    <glyph glyph-name="Ldot" unicode="&#x13f;" horiz-adv-x="552" 
d="M352 292v156h183v-156h-183zM59 0v705h192v-556h251v-149h-443z" />
    <glyph glyph-name="ldot" unicode="&#x140;" horiz-adv-x="418" 
d="M49 0v722l172 29v-751h-172zM263 308v147h162v-147h-162z" />
    <glyph glyph-name="Lslash" unicode="&#x141;" horiz-adv-x="541" 
d="M67 0v241l-64 -24v108l64 24v356h192v-285l168 63v-108l-168 -63v-163h251v-149h-443z" />
    <glyph glyph-name="lslash" unicode="&#x142;" horiz-adv-x="301" 
d="M234 0h-172v326l-53 -24v120l53 24v276l172 29v-226l60 27v-120l-60 -27v-405z" />
    <glyph glyph-name="Nacute" unicode="&#x143;" horiz-adv-x="745" 
d="M686 -8h-111l-351 402v-394h-165v712h115l347 -397v390h165v-713zM427 757h-131l80 155h169z" />
    <glyph glyph-name="nacute" unicode="&#x144;" horiz-adv-x="601" 
d="M357 597h-129l78 171h171zM307 427q-48 0 -89 -32v-395h-172v550h151l11 -72q73 85 173 85q80 0 128.5 -48t48.5 -145v-370h-173v342q0 85 -78 85z" />
    <glyph glyph-name="uni0145" unicode="&#x145;" horiz-adv-x="744" 
d="M296 -241l9 185h144l3 -11l-53 -174h-103zM686 -8h-111l-351 402v-394h-165v712h115l347 -397v390h165v-713z" />
    <glyph glyph-name="uni0146" unicode="&#x146;" horiz-adv-x="600" 
d="M219 -241l9 185h144l3 -11l-53 -174h-103zM307 427q-48 0 -89 -32v-395h-172v550h151l11 -72q73 85 173 85q80 0 128.5 -48t48.5 -145v-370h-173v342q0 85 -78 85z" />
    <glyph glyph-name="Ncaron" unicode="&#x147;" horiz-adv-x="745" 
d="M686 -8h-111l-351 402v-394h-165v712h115l347 -397v390h165v-713zM371 851l61 66h132l-128 -160h-130l-128 160h132z" />
    <glyph glyph-name="ncaron" unicode="&#x148;" horiz-adv-x="601" 
d="M302 696l58 67h130l-128 -166h-120l-128 166h130zM307 427q-48 0 -89 -32v-395h-172v550h151l11 -72q73 85 173 85q80 0 128.5 -48t48.5 -145v-370h-173v342q0 85 -78 85z" />
    <glyph glyph-name="napostrophe" unicode="&#x149;" horiz-adv-x="663" 
d="M103 705l4 -10l-69 -228h-117l24 238h158zM369 427q-48 0 -89 -32v-395h-172v550h151l11 -72q73 85 173 85q80 0 128.5 -48t48.5 -145v-370h-173v342q0 85 -78 85z" />
    <glyph glyph-name="Eng" unicode="&#x14a;" horiz-adv-x="745" 
d="M399 -198v138q58 8 79.5 33t21.5 89v16l-276 316v-394h-165v712h115l347 -397v390h165v-633l-1 -1v-11q0 -129 -64 -189.5t-222 -68.5z" />
    <glyph glyph-name="eng" unicode="&#x14b;" horiz-adv-x="601" 
d="M313 -211v130q40 4 56 23.5t16 68.5v331q0 85 -78 85q-48 0 -89 -32v-395h-172v550h151l11 -72q73 85 173 85q80 0 128.5 -48t48.5 -145v-370q0 -107 -60 -156t-185 -55z" />
    <glyph glyph-name="Omacron" unicode="&#x14c;" 
d="M227 775v110h341v-110h-341zM398 -14q-167 0 -270 105t-103 264t102.5 261.5t270.5 102.5t270.5 -102.5t102.5 -261.5t-103 -264t-270 -105zM398 130q83 0 130 61t47 164q0 101 -48 161t-129 60t-128.5 -60t-47.5 -161q0 -103 47 -164t129 -61z" />
    <glyph glyph-name="omacron" unicode="&#x14d;" horiz-adv-x="629" 
d="M149 623v107h330v-107h-330zM314 -13q-129 0 -211.5 78.5t-82.5 210.5t82.5 209.5t211.5 77.5t212 -77.5t83 -209.5t-83 -210.5t-212 -78.5zM314 112q56 0 88 41t32 122t-32 122t-88 41t-87.5 -41t-31.5 -122t31.5 -122t87.5 -41z" />
    <glyph glyph-name="Obreve" unicode="&#x14e;" 
d="M398 753q-74 0 -120.5 42t-53.5 116h112q11 -56 62 -56q50 0 62 56h112q-7 -74 -53.5 -116t-120.5 -42zM398 -14q-167 0 -270 105t-103 264t102.5 261.5t270.5 102.5t270.5 -102.5t102.5 -261.5t-103 -264t-270 -105zM398 130q83 0 130 61t47 164q0 101 -48 161t-129 60
t-128.5 -60t-47.5 -161q0 -103 47 -164t129 -61z" />
    <glyph glyph-name="obreve" unicode="&#x14f;" horiz-adv-x="629" 
d="M314 -13q-129 0 -211.5 78.5t-82.5 210.5t82.5 209.5t211.5 77.5t212 -77.5t83 -209.5t-83 -210.5t-212 -78.5zM314 112q56 0 88 41t32 122t-32 122t-88 41t-87.5 -41t-31.5 -122t31.5 -122t87.5 -41zM315 597q-72 0 -118 42.5t-53 116.5h108q10 -57 63 -57q51 0 63 57
h108q-8 -75 -53.5 -117t-117.5 -42z" />
    <glyph glyph-name="Ohungarumlaut" unicode="&#x150;" 
d="M358 757h-114l42 152h158q-2 0 -43 -76q-21 -38 -43 -76zM558 757h-113l46 152h159q-2 0 -47 -76q-3 -5 -19 -32t-26 -44zM398 -14q-167 0 -270 105t-103 264t102.5 261.5t270.5 102.5t270.5 -102.5t102.5 -261.5t-103 -264t-270 -105zM398 130q83 0 130 61t47 164
q0 101 -48 161t-129 60t-128.5 -60t-47.5 -161q0 -103 47 -164t129 -61z" />
    <glyph glyph-name="ohungarumlaut" unicode="&#x151;" horiz-adv-x="629" 
d="M278 597h-106l45 171h148zM460 597h-106l50 171h148zM314 -13q-129 0 -211.5 78.5t-82.5 210.5t82.5 209.5t211.5 77.5t212 -77.5t83 -209.5t-83 -210.5t-212 -78.5zM314 112q56 0 88 41t32 122t-32 122t-88 41t-87.5 -41t-31.5 -122t31.5 -122t87.5 -41z" />
    <glyph glyph-name="OE" unicode="&#x152;" horiz-adv-x="967" 
d="M406 139h56v427h-56q-86 0 -135 -57.5t-49 -153.5q0 -98 48.5 -157t135.5 -59zM926 0h-524q-170 0 -273.5 100.5t-103.5 254.5q0 153 103.5 251.5t273.5 98.5h520v-139h-269v-140h229v-130h-229v-157h273v-139z" />
    <glyph glyph-name="oe" unicode="&#x153;" horiz-adv-x="977" 
d="M710 447q-88 0 -105 -106h193q-3 54 -24 80t-64 26zM314 112q56 0 88 41t32 122t-32 122t-88 41t-87.5 -41t-31.5 -122t31.5 -122t87.5 -41zM944 153v-125q-76 -41 -198 -41q-154 0 -228 83q-77 -83 -204 -83q-129 0 -211.5 78.5t-82.5 210.5t82.5 209.5t211.5 77.5
q128 0 204 -82q71 82 191 82q127 0 194 -81.5t52 -248.5h-352q10 -62 48 -89.5t111 -27.5q92 0 175 40z" />
    <glyph glyph-name="Racute" unicode="&#x154;" horiz-adv-x="661" 
d="M377 757h-131l80 155h169zM317 570h-67v-191h70q59 0 85.5 24.5t26.5 73.5t-27 71t-88 22zM459 0l-130 247h-79v-247h-191v705h278q137 0 207.5 -58t70.5 -165q0 -138 -114 -189l156 -283v-10h-198z" />
    <glyph glyph-name="racute" unicode="&#x155;" horiz-adv-x="422" 
d="M298 597h-129l78 171h171zM352 394q-93 0 -134 -45v-349h-172v550h151l12 -94q59 103 153 103q29 0 44 -4v-162l-6 -4q-25 5 -48 5z" />
    <glyph glyph-name="uni0156" unicode="&#x156;" horiz-adv-x="661" 
d="M253 -241l9 185h144l3 -11l-53 -174h-103zM317 570h-67v-191h70q59 0 85.5 24.5t26.5 73.5t-27 71t-88 22zM459 0l-130 247h-79v-247h-191v705h278q137 0 207.5 -58t70.5 -165q0 -138 -114 -189l156 -283v-10h-198z" />
    <glyph glyph-name="uni0157" unicode="&#x157;" horiz-adv-x="422" 
d="M43 -241l9 185h144l3 -11l-53 -174h-103zM352 394q-93 0 -134 -45v-349h-172v550h151l12 -94q59 103 153 103q29 0 44 -4v-162l-6 -4q-25 5 -48 5z" />
    <glyph glyph-name="Rcaron" unicode="&#x158;" horiz-adv-x="661" 
d="M321 851l61 66h132l-128 -160h-130l-128 160h132zM317 570h-67v-191h70q59 0 85.5 24.5t26.5 73.5t-27 71t-88 22zM459 0l-130 247h-79v-247h-191v705h278q137 0 207.5 -58t70.5 -165q0 -138 -114 -189l156 -283v-10h-198z" />
    <glyph glyph-name="rcaron" unicode="&#x159;" horiz-adv-x="422" 
d="M243 696l58 67h130l-128 -166h-120l-128 166h130zM352 394q-93 0 -134 -45v-349h-172v550h151l12 -94q59 103 153 103q29 0 44 -4v-162l-6 -4q-25 5 -48 5z" />
    <glyph glyph-name="Sacute" unicode="&#x15a;" horiz-adv-x="539" 
d="M244 -13q-126 0 -213 50v159l6 3q98 -65 196 -65t98 67q0 27 -19 40.5t-71 30.5l-48 14q-166 51 -166 210q0 104 68.5 163t183.5 59q117 0 189 -39v-152l-6 -3q-81 48 -176 48q-43 0 -65 -15.5t-22 -41.5q0 -25 16 -40t58 -29l46 -14q105 -31 149.5 -78.5t44.5 -136.5
q0 -111 -70 -170.5t-199 -59.5zM334 757h-131l80 155h169z" />
    <glyph glyph-name="sacute" unicode="&#x15b;" horiz-adv-x="459" 
d="M290 597h-129l78 171h171zM215 -12q-115 0 -192 47v129l6 3q72 -56 172 -56q79 0 79 47q0 19 -12.5 28t-51.5 18l-49 12q-146 35 -146 168q0 82 57.5 131t157.5 49q101 0 169 -30v-124l-6 -3q-70 36 -158 36q-37 0 -52.5 -10.5t-15.5 -31.5q0 -18 12 -28t40 -17l49 -12
q89 -23 127.5 -58.5t38.5 -107.5q0 -90 -59.5 -140t-165.5 -50z" />
    <glyph glyph-name="Scircumflex" unicode="&#x15c;" horiz-adv-x="539" 
d="M278 823l-61 -66h-132l128 160h130l128 -160h-132zM244 -13q-126 0 -213 50v159l6 3q98 -65 196 -65t98 67q0 27 -19 40.5t-71 30.5l-48 14q-166 51 -166 210q0 104 68.5 163t183.5 59q117 0 189 -39v-152l-6 -3q-81 48 -176 48q-43 0 -65 -15.5t-22 -41.5q0 -25 16 -40
t58 -29l46 -14q105 -31 149.5 -78.5t44.5 -136.5q0 -111 -70 -170.5t-199 -59.5z" />
    <glyph glyph-name="scircumflex" unicode="&#x15d;" horiz-adv-x="459" 
d="M234 665l-58 -68h-130l128 166h120l128 -166h-130zM215 -12q-115 0 -192 47v129l6 3q72 -56 172 -56q79 0 79 47q0 19 -12.5 28t-51.5 18l-49 12q-146 35 -146 168q0 82 57.5 131t157.5 49q101 0 169 -30v-124l-6 -3q-70 36 -158 36q-37 0 -52.5 -10.5t-15.5 -31.5
q0 -18 12 -28t40 -17l49 -12q89 -23 127.5 -58.5t38.5 -107.5q0 -90 -59.5 -140t-165.5 -50z" />
    <glyph glyph-name="uni015E" unicode="&#x15e;" horiz-adv-x="548" 
d="M245 -232q-53 0 -87 22v72l7 3q30 -17 58 -17q38 0 38 30q0 31 -62 37v74q-97 6 -168 48v159l6 3q98 -65 196 -65t98 67q0 27 -19 40.5t-71 30.5l-48 14q-166 51 -166 210q0 104 68.5 163t183.5 59q117 0 189 -39v-152l-6 -3q-81 48 -176 48q-43 0 -65 -15.5t-22 -41.5
q0 -25 16 -40t58 -29l46 -14q105 -31 149.5 -78.5t44.5 -136.5q0 -102 -61.5 -161.5t-173.5 -67.5v-29q42 -9 64.5 -28.5t22.5 -63.5q0 -48 -31.5 -73.5t-88.5 -25.5z" />
    <glyph glyph-name="uni015F" unicode="&#x15f;" horiz-adv-x="460" 
d="M201 -232q-53 0 -87 22v72l7 3q30 -17 58 -17q38 0 38 30q0 31 -62 37v76q-73 9 -132 44v129l6 3q72 -56 172 -56q79 0 79 47q0 19 -12.5 28t-51.5 18l-49 12q-146 35 -146 168q0 82 57.5 131t157.5 49q101 0 169 -30v-124l-6 -3q-70 36 -158 36q-37 0 -52.5 -10.5
t-15.5 -31.5q0 -18 12 -28t40 -17l49 -12q89 -23 127.5 -58.5t38.5 -107.5q0 -86 -54.5 -135.5t-151.5 -54.5v-29q42 -9 64.5 -28.5t22.5 -63.5q0 -48 -31.5 -73.5t-88.5 -25.5z" />
    <glyph glyph-name="Scaron" unicode="&#x160;" horiz-adv-x="539" 
d="M278 851l61 66h132l-128 -160h-130l-128 160h132zM244 -13q-126 0 -213 50v159l6 3q98 -65 196 -65t98 67q0 27 -19 40.5t-71 30.5l-48 14q-166 51 -166 210q0 104 68.5 163t183.5 59q117 0 189 -39v-152l-6 -3q-81 48 -176 48q-43 0 -65 -15.5t-22 -41.5q0 -25 16 -40
t58 -29l46 -14q105 -31 149.5 -78.5t44.5 -136.5q0 -111 -70 -170.5t-199 -59.5z" />
    <glyph glyph-name="scaron" unicode="&#x161;" horiz-adv-x="459" 
d="M234 696l58 67h130l-128 -166h-120l-128 166h130zM215 -12q-115 0 -192 47v129l6 3q72 -56 172 -56q79 0 79 47q0 19 -12.5 28t-51.5 18l-49 12q-146 35 -146 168q0 82 57.5 131t157.5 49q101 0 169 -30v-124l-6 -3q-70 36 -158 36q-37 0 -52.5 -10.5t-15.5 -31.5
q0 -18 12 -28t40 -17l49 -12q89 -23 127.5 -58.5t38.5 -107.5q0 -90 -59.5 -140t-165.5 -50z" />
    <glyph glyph-name="Tcommaaccent" unicode="&#x162;" horiz-adv-x="593" 
d="M213 -241l9 185h144l3 -11l-53 -174h-103zM577 555h-184v-555h-194v555h-184v150h562v-150z" />
    <glyph glyph-name="tcommaaccent" unicode="&#x163;" horiz-adv-x="393" 
d="M363 122v-119q-47 -14 -112 -14q-80 0 -125.5 32.5t-45.5 113.5v293h-62v122h62v88l172 27v-115h109v-122h-109v-260q0 -27 13 -38.5t41 -11.5q23 0 51 7zM134 -241l9 185h144l3 -11l-53 -174h-103z" />
    <glyph glyph-name="Tcaron" unicode="&#x164;" horiz-adv-x="592" 
d="M296 851l61 66h132l-128 -160h-130l-128 160h132zM577 555h-184v-555h-194v555h-184v150h562v-150z" />
    <glyph glyph-name="tcaron" unicode="&#x165;" horiz-adv-x="390" 
d="M363 122v-119q-47 -14 -112 -14q-80 0 -125.5 32.5t-45.5 113.5v293h-62v122h62v88l172 27v-115h109v-122h-109v-260q0 -27 13 -38.5t41 -11.5q23 0 51 7zM278 581l7 162h119v-33l-30 -129h-96z" />
    <glyph glyph-name="Tbar" unicode="&#x166;" horiz-adv-x="592" 
d="M526 301h-133v-301h-194v301h-132v113h132v141h-184v150h562v-150h-184v-141h133v-113z" />
    <glyph glyph-name="tbar" unicode="&#x167;" horiz-adv-x="390" 
d="M363 122v-119q-47 -14 -112 -14q-80 0 -125.5 32.5t-45.5 113.5v128h-62v89h62v76h-62v122h62v88l172 27v-115h109v-122h-109v-76h109v-89h-109v-95q0 -27 13 -38.5t41 -11.5q23 0 51 7z" />
    <glyph glyph-name="Utilde" unicode="&#x168;" horiz-adv-x="720" 
d="M427 863q33 0 64 36l6 -3v-85q-31 -41 -77 -41q-31 0 -64.5 15t-48.5 15q-35 0 -69 -35l-6 3v85q26 41 79 41q28 0 63.5 -15.5t52.5 -15.5zM363 -12q-153 0 -232.5 74t-79.5 217v426h194v-423q0 -140 126 -140q61 0 94 35.5t33 104.5v423h171v-426q0 -137 -79 -214
t-227 -77z" />
    <glyph glyph-name="utilde" unicode="&#x169;" horiz-adv-x="604" 
d="M364 700q32 0 64 36l6 -3v-85q-31 -41 -77 -41q-31 0 -64.5 15t-48.5 15q-35 0 -69 -35l-6 3v85q26 41 79 41q28 0 63.5 -15.5t52.5 -15.5zM407 0l-11 67q-73 -80 -169 -80q-85 0 -135 49t-50 144v370h172v-342q0 -85 80 -85q53 0 92 30v397h172v-550h-151z" />
    <glyph glyph-name="Umacron" unicode="&#x16a;" horiz-adv-x="720" 
d="M363 -12q-153 0 -232.5 74t-79.5 217v426h194v-423q0 -140 126 -140q61 0 94 35.5t33 104.5v423h171v-426q0 -137 -79 -214t-227 -77zM194 775v110h341v-110h-341z" />
    <glyph glyph-name="umacron" unicode="&#x16b;" horiz-adv-x="604" 
d="M407 0l-11 67q-73 -80 -169 -80q-85 0 -135 49t-50 144v370h172v-342q0 -85 80 -85q53 0 92 30v397h172v-550h-151zM136 623v107h330v-107h-330z" />
    <glyph glyph-name="Ubreve" unicode="&#x16c;" horiz-adv-x="720" 
d="M363 -12q-153 0 -232.5 74t-79.5 217v426h194v-423q0 -140 126 -140q61 0 94 35.5t33 104.5v423h171v-426q0 -137 -79 -214t-227 -77zM365 753q-74 0 -120.5 42t-53.5 116h112q11 -56 62 -56q50 0 62 56h112q-7 -74 -53.5 -116t-120.5 -42z" />
    <glyph glyph-name="ubreve" unicode="&#x16d;" horiz-adv-x="604" 
d="M407 0l-11 67q-73 -80 -169 -80q-85 0 -135 49t-50 144v370h172v-342q0 -85 80 -85q53 0 92 30v397h172v-550h-151zM301 597q-72 0 -118 42.5t-53 116.5h108q10 -57 63 -57q51 0 63 57h108q-8 -75 -53.5 -117t-117.5 -42z" />
    <glyph glyph-name="Uring" unicode="&#x16e;" horiz-adv-x="720" 
d="M363 -12q-153 0 -232.5 74t-79.5 217v426h194v-423q0 -140 126 -140q61 0 94 35.5t33 104.5v423h171v-426q0 -137 -79 -214t-227 -77zM368 717q-54 0 -86.5 32t-32.5 83t32.5 83t86.5 32t86.5 -32t32.5 -83t-32.5 -83t-86.5 -32zM368 877q-20 0 -31.5 -13t-11.5 -32
q0 -20 11.5 -32.5t31.5 -12.5t31.5 12.5t11.5 32.5q0 19 -11.5 32t-31.5 13z" />
    <glyph glyph-name="uring" unicode="&#x16f;" horiz-adv-x="604" 
d="M301 585q-54 0 -86.5 32t-32.5 83t32.5 83t86.5 32t86.5 -32t32.5 -83t-32.5 -83t-86.5 -32zM301 745q-20 0 -31.5 -12.5t-11.5 -32.5t11.5 -32t31.5 -12t31.5 12t11.5 32t-11.5 32.5t-31.5 12.5zM407 0l-11 67q-73 -80 -169 -80q-85 0 -135 49t-50 144v370h172v-342
q0 -85 80 -85q53 0 92 30v397h172v-550h-151z" />
    <glyph glyph-name="Uhungarumlaut" unicode="&#x170;" horiz-adv-x="720" 
d="M325 757h-114l42 152h158q-2 0 -43 -76q-21 -38 -43 -76zM525 757h-113l46 152h159q-2 0 -47 -76q-3 -5 -19 -32t-26 -44zM363 -12q-153 0 -232.5 74t-79.5 217v426h194v-423q0 -140 126 -140q61 0 94 35.5t33 104.5v423h171v-426q0 -137 -79 -214t-227 -77z" />
    <glyph glyph-name="uhungarumlaut" unicode="&#x171;" horiz-adv-x="604" 
d="M407 0l-11 67q-73 -80 -169 -80q-85 0 -135 49t-50 144v370h172v-342q0 -85 80 -85q53 0 92 30v397h172v-550h-151zM265 597h-106l45 171h148zM447 597h-106l50 171h148z" />
    <glyph glyph-name="Uogonek" unicode="&#x172;" horiz-adv-x="720" 
d="M423 -217q-130 0 -130 95q0 35 18.5 60.5t60.5 49.5h-9q-153 0 -232.5 74t-79.5 217v426h194v-423q0 -140 126 -140q61 0 94 35.5t33 104.5v423h171v-426q0 -165 -112 -241q-11 -8 -53.5 -33t-59 -43.5t-16.5 -43.5q0 -38 42 -38q19 0 37 8l6 -3v-85q-40 -17 -90 -17z
" />
    <glyph glyph-name="uogonek" unicode="&#x173;" horiz-adv-x="604" 
d="M565 -115v-85q-40 -17 -90 -17q-130 0 -130 95q0 71 95 122h-33l-11 67q-73 -80 -169 -80q-85 0 -135 49t-50 144v370h172v-342q0 -85 80 -85q53 0 92 30v397h172v-550q-78 -49 -78 -85q0 -35 42 -35q19 0 37 8z" />
    <glyph glyph-name="Wcircumflex" unicode="&#x174;" horiz-adv-x="1004" 
d="M636 -6l-140 366l-141 -366h-113l-234 703v8h200l127 -385l85 225l-49 152v8h195l132 -375l120 375h176l2 -8l-232 -703h-128zM475 823l-61 -66h-132l128 160h130l128 -160h-132z" />
    <glyph glyph-name="wcircumflex" unicode="&#x175;" horiz-adv-x="783" 
d="M513 -6l-122 305l-119 -305h-84l-181 548v8h173l77 -271l104 274h70l106 -277l77 274h162v-8l-178 -548h-85zM391 665l-58 -68h-130l128 166h120l128 -166h-130z" />
    <glyph glyph-name="Ycircumflex" unicode="&#x176;" horiz-adv-x="639" 
d="M418 0h-194v278l-220 419v8h198l130 -275l129 275h174v-8l-217 -413v-284zM331 823l-61 -66h-132l128 160h130l128 -160h-132z" />
    <glyph glyph-name="ycircumflex" unicode="&#x177;" horiz-adv-x="576" 
d="M75 -207v136q92 10 114 62l14 34l-197 517v8h181l112 -323l111 323h160v-8l-209 -575q-33 -92 -95 -129t-191 -45zM298 665l-58 -68h-130l128 166h120l128 -166h-130z" />
    <glyph glyph-name="Ydieresis" unicode="&#x178;" horiz-adv-x="639" 
d="M418 0h-194v278l-220 419v8h198l130 -275l129 275h174v-8l-217 -413v-284zM367 744v133h155v-133h-155zM140 744v133h155v-133h-155z" />
    <glyph glyph-name="Zacute" unicode="&#x179;" horiz-adv-x="609" 
d="M365 757h-131l80 155h169zM583 0h-571v71l321 493h-285v141h534v-80l-313 -483h314v-142z" />
    <glyph glyph-name="zacute" unicode="&#x17a;" horiz-adv-x="502" 
d="M314 597h-129l78 171h171zM477 0h-459v45l233 379h-207v126h437v-51l-229 -372h225v-127z" />
    <glyph glyph-name="Zdotaccent" unicode="&#x17b;" horiz-adv-x="609" 
d="M227 765v135h164v-135h-164zM583 0h-571v71l321 493h-285v141h534v-80l-313 -483h314v-142z" />
    <glyph glyph-name="zdotaccent" unicode="&#x17c;" horiz-adv-x="502" 
d="M477 0h-459v45l233 379h-207v126h437v-51l-229 -372h225v-127zM176 611v135h164v-135h-164z" />
    <glyph glyph-name="Zcaron" unicode="&#x17d;" horiz-adv-x="609" 
d="M309 851l61 66h132l-128 -160h-130l-128 160h132zM583 0h-571v71l321 493h-285v141h534v-80l-313 -483h314v-142z" />
    <glyph glyph-name="zcaron" unicode="&#x17e;" horiz-adv-x="502" 
d="M258 696l58 67h130l-128 -166h-120l-128 166h130zM477 0h-459v45l233 379h-207v126h437v-51l-229 -372h225v-127z" />
    <glyph glyph-name="uni0192" unicode="&#x192;" horiz-adv-x="438" 
d="M397 271h-132l-58 -481h-172l58 481h-65v123h79l12 97q27 207 218 207q54 0 89 -13v-107l-5 -4q-22 6 -46 6q-73 0 -84 -89l-12 -97h118v-123z" />
    <glyph glyph-name="Ohorn" unicode="&#x1a0;" 
d="M398 -14q-167 0 -270 105t-103 264t102.5 261.5t270.5 102.5q66 0 120 -16q9 0 22 0.5t23 0.5h10q30 3 39.5 22t9.5 57h132q0 -122 -98 -155q7 -6 13 -13q102 -100 102 -260q0 -159 -103 -264t-270 -105zM398 130q83 0 130 61t47 164q0 101 -48 161t-129 60t-128.5 -60
t-47.5 -161q0 -103 47 -164t129 -61z" />
    <glyph glyph-name="ohorn" unicode="&#x1a1;" horiz-adv-x="629" 
d="M314 -13q-129 0 -211.5 78.5t-82.5 210.5t82.5 209.5t211.5 77.5q54 0 102 -15q17 1 36 1q30 3 39.5 22t9.5 57h132q0 -121 -96 -154q31 -32 49 -78q23 -54 23 -120q0 -132 -83 -210.5t-212 -78.5zM314 112q56 0 88 41t32 122t-32 122t-88 41t-87.5 -41t-31.5 -122
t31.5 -122t87.5 -41z" />
    <glyph glyph-name="Uhorn" unicode="&#x1af;" horiz-adv-x="720" 
d="M363 -12q-153 0 -232.5 74t-79.5 217v426h194v-423q0 -140 126 -140q61 0 94 35.5t33 104.5v423h90q24 6 32 24.5t8 53.5h132q0 -117 -91 -152v-352q0 -137 -79 -214t-227 -77z" />
    <glyph glyph-name="uhorn" unicode="&#x1b0;" horiz-adv-x="604" 
d="M407 0l-11 67q-73 -80 -169 -80q-85 0 -135 49t-50 144v370h172v-342q0 -85 80 -85q53 0 92 30v397h98q24 6 32 24.5t8 53.5h132q0 -122 -98 -155v-473h-151z" />
    <glyph glyph-name="Aringacute" unicode="&#x1fa;" horiz-adv-x="710" 
d="M413 241l-71 187l-72 -187h143zM505 0l-44 115h-238l-44 -115h-173v8l299 703h101l299 -703v-8h-200zM416 978h-131l80 155h169zM355 727q-54 0 -86.5 32t-32.5 83t32.5 83t86.5 32t86.5 -32t32.5 -83t-32.5 -83t-86.5 -32zM355 887q-20 0 -31.5 -13t-11.5 -32
q0 -20 11.5 -32.5t31.5 -12.5t31.5 12.5t11.5 32.5q0 19 -11.5 32t-31.5 13z" />
    <glyph glyph-name="aringacute" unicode="&#x1fb;" horiz-adv-x="552" 
d="M255 100q51 0 83 40v98l-65 -9q-46 -7 -66.5 -22t-20.5 -45q0 -62 69 -62zM361 0l-11 61q-53 -74 -151 -74q-79 0 -129 43t-50 121q0 82 53.5 121t162.5 54l102 13q0 52 -24 72t-80 20q-85 0 -164 -42l-7 2v129q74 43 200 43q123 0 184.5 -53t61.5 -171v-339h-148z
M273 585q-54 0 -86.5 32t-32.5 83t32.5 83t86.5 32t86.5 -32t32.5 -83t-32.5 -83t-86.5 -32zM273 745q-20 0 -31.5 -12.5t-11.5 -32.5t11.5 -32t31.5 -12t31.5 12t11.5 32t-11.5 32.5t-31.5 12.5zM334 844h-131l80 155h169z" />
    <glyph glyph-name="AEacute" unicode="&#x1fc;" horiz-adv-x="962" 
d="M646 757h-131l80 155h169zM457 263v251l-138 -251h138zM457 0v133h-209l-73 -133h-172v8l390 697h524v-139h-269v-140h229v-130h-229v-157h273v-139h-464z" />
    <glyph glyph-name="aeacute" unicode="&#x1fd;" horiz-adv-x="879" 
d="M507 597h-129l78 171h171zM612 447q-88 0 -105 -106h193q-3 54 -24 80t-64 26zM846 153v-125q-76 -41 -198 -41q-165 0 -246 89q-61 -89 -187 -89q-92 0 -143 40.5t-51 119.5q0 81 56.5 122t159.5 54l102 13q-1 55 -25.5 75t-84.5 20q-79 0 -158 -42l-7 2v129
q74 43 200 43q128 0 179 -61q61 61 168 61q126 0 193.5 -81t52.5 -246h-352q9 -63 46.5 -91.5t112.5 -28.5q92 0 175 40zM252 100q80 0 101 65q-11 31 -15 69l-64 -9q-47 -7 -67 -21.5t-20 -43.5q0 -60 65 -60z" />
    <glyph glyph-name="Oslashacute" unicode="&#x1fe;" 
d="M218 355q0 -69 21 -120l261 312q-44 29 -102 29q-82 0 -131 -60t-49 -161zM398 130q85 0 132.5 61t47.5 164q0 76 -25 127l-265 -316q45 -36 110 -36zM398 -14q-120 0 -212 58l-79 -94l-62 54l78 93q-98 100 -98 258q0 159 102.5 261.5t270.5 102.5q116 0 203 -51l68 81
l62 -54l-64 -77q104 -101 104 -263q0 -159 -103 -264t-270 -105zM454 757h-131l80 155h169z" />
    <glyph glyph-name="oslashacute" unicode="&#x1ff;" horiz-adv-x="629" 
d="M195 275q0 -46 10 -75l177 216q-28 22 -68 22q-56 0 -87.5 -41t-31.5 -122zM314 112q56 0 88 41t32 122q0 47 -12 82l-180 -220q28 -25 72 -25zM314 -13q-93 0 -161 41l-55 -67l-53 44l53 65q-78 81 -78 206q0 132 82.5 209.5t211.5 77.5q89 0 157 -38l60 73l53 -44
l-57 -70q82 -79 82 -208q0 -132 -83 -210.5t-212 -78.5zM370 597h-129l78 171h171z" />
    <glyph glyph-name="uni0218" unicode="&#x218;" horiz-adv-x="548" 
d="M184 -241l9 185h144l3 -11l-53 -174h-103zM244 -13q-126 0 -213 50v159l6 3q98 -65 196 -65t98 67q0 27 -19 40.5t-71 30.5l-48 14q-166 51 -166 210q0 104 68.5 163t183.5 59q117 0 189 -39v-152l-6 -3q-81 48 -176 48q-43 0 -65 -15.5t-22 -41.5q0 -25 16 -40t58 -29
l46 -14q105 -31 149.5 -78.5t44.5 -136.5q0 -111 -70 -170.5t-199 -59.5z" />
    <glyph glyph-name="uni0219" unicode="&#x219;" horiz-adv-x="460" 
d="M140 -241l9 185h144l3 -11l-53 -174h-103zM215 -12q-115 0 -192 47v129l6 3q72 -56 172 -56q79 0 79 47q0 19 -12.5 28t-51.5 18l-49 12q-146 35 -146 168q0 82 57.5 131t157.5 49q101 0 169 -30v-124l-6 -3q-70 36 -158 36q-37 0 -52.5 -10.5t-15.5 -31.5q0 -18 12 -28
t40 -17l49 -12q89 -23 127.5 -58.5t38.5 -107.5q0 -90 -59.5 -140t-165.5 -50z" />
    <glyph glyph-name="uni021A" unicode="&#x21a;" horiz-adv-x="593" 
d="M213 -241l9 185h144l3 -11l-53 -174h-103zM577 555h-184v-555h-194v555h-184v150h562v-150z" />
    <glyph glyph-name="uni021B" unicode="&#x21b;" horiz-adv-x="393" 
d="M363 122v-119q-47 -14 -112 -14q-80 0 -125.5 32.5t-45.5 113.5v293h-62v122h62v88l172 27v-115h109v-122h-109v-260q0 -27 13 -38.5t41 -11.5q23 0 51 7zM134 -241l9 185h144l3 -11l-53 -174h-103z" />
    <glyph glyph-name="uni0237" unicode="&#x237;" horiz-adv-x="268" 
d="M-24 -211v130q38 4 55 23.5t17 68.5v525h172v-536q0 -107 -60 -156t-184 -55z" />
    <glyph glyph-name="circumflex" unicode="&#x2c6;" horiz-adv-x="400" 
d="M200 665l-58 -68h-130l128 166h120l128 -166h-130z" />
    <glyph glyph-name="caron" unicode="&#x2c7;" horiz-adv-x="400" 
d="M200 696l58 67h130l-128 -166h-120l-128 166h130z" />
    <glyph glyph-name="breve" unicode="&#x2d8;" horiz-adv-x="400" 
d="M200 597q-72 0 -118 42.5t-53 116.5h108q11 -57 63 -57q51 0 63 57h108q-8 -75 -53.5 -117t-117.5 -42z" />
    <glyph glyph-name="dotaccent" unicode="&#x2d9;" horiz-adv-x="400" 
d="M118 611v135h164v-135h-164z" />
    <glyph glyph-name="ring" unicode="&#x2da;" horiz-adv-x="400" 
d="M200 585q-54 0 -86.5 32t-32.5 83t32.5 83t86.5 32t86.5 -32t32.5 -83t-32.5 -83t-86.5 -32zM200 745q-20 0 -31.5 -12.5t-11.5 -32.5t11.5 -32t31.5 -12t31.5 12t11.5 32t-11.5 32.5t-31.5 12.5z" />
    <glyph glyph-name="ogonek" unicode="&#x2db;" horiz-adv-x="402" 
d="M312 -115v-85q-40 -17 -90 -17q-130 0 -130 95q0 38 21.5 66t72.5 56h105q-64 -48 -64 -85q0 -35 42 -35q19 0 37 8z" />
    <glyph glyph-name="tilde" unicode="&#x2dc;" horiz-adv-x="384" 
d="M268 719q42 0 83 45l8 -3v-103q-37 -50 -102 -50q-39 0 -82.5 19t-62.5 19q-49 0 -89 -44l-8 3v103q34 49 102 49q38 0 83 -19t68 -19z" />
    <glyph glyph-name="hungarumlaut" unicode="&#x2dd;" horiz-adv-x="400" 
d="M156 597h-106l45 171h148zM338 597h-106l50 171h148z" />
    <glyph glyph-name="Wgrave" unicode="&#x1e80;" horiz-adv-x="1004" 
d="M636 -6l-140 366l-141 -366h-113l-234 703v8h200l127 -385l85 225l-49 152v8h195l132 -375l120 375h176l2 -8l-232 -703h-128zM423 757l-117 155h168l80 -155h-131z" />
    <glyph glyph-name="wgrave" unicode="&#x1e81;" horiz-adv-x="783" 
d="M513 -6l-122 305l-119 -305h-84l-181 548v8h173l77 -271l104 274h70l106 -277l77 274h162v-8l-178 -548h-85zM341 597l-120 171h171l77 -171h-128z" />
    <glyph glyph-name="Wacute" unicode="&#x1e82;" horiz-adv-x="1004" 
d="M636 -6l-140 366l-141 -366h-113l-234 703v8h200l127 -385l85 225l-49 152v8h195l132 -375l120 375h176l2 -8l-232 -703h-128zM531 757h-131l80 155h169z" />
    <glyph glyph-name="wacute" unicode="&#x1e83;" horiz-adv-x="783" 
d="M513 -6l-122 305l-119 -305h-84l-181 548v8h173l77 -271l104 274h70l106 -277l77 274h162v-8l-178 -548h-85zM447 597h-129l78 171h171z" />
    <glyph glyph-name="Wdieresis" unicode="&#x1e84;" horiz-adv-x="1004" 
d="M636 -6l-140 366l-141 -366h-113l-234 703v8h200l127 -385l85 225l-49 152v8h195l132 -375l120 375h176l2 -8l-232 -703h-128zM512 744v133h155v-133h-155zM285 744v133h155v-133h-155z" />
    <glyph glyph-name="wdieresis" unicode="&#x1e85;" horiz-adv-x="783" 
d="M513 -6l-122 305l-119 -305h-84l-181 548v8h173l77 -271l104 274h70l106 -277l77 274h162v-8l-178 -548h-85zM215 611v136h148v-136h-148zM423 611v136h148v-136h-148z" />
    <glyph glyph-name="uni1EA0" unicode="&#x1ea0;" horiz-adv-x="710" 
d="M261 -191v113h156v-113h-156zM413 241l-71 187l-72 -187h143zM505 0l-44 115h-238l-44 -115h-173v8l299 703h101l299 -703v-8h-200z" />
    <glyph glyph-name="uni1EA1" unicode="&#x1ea1;" horiz-adv-x="552" 
d="M178 -191v113h156v-113h-156zM255 100q51 0 83 40v98l-65 -9q-46 -7 -66.5 -22t-20.5 -45q0 -62 69 -62zM361 0l-11 61q-53 -74 -151 -74q-79 0 -129 43t-50 121q0 82 53.5 121t162.5 54l102 13q0 52 -24 72t-80 20q-85 0 -164 -42l-7 2v129q74 43 200 43
q123 0 184.5 -53t61.5 -171v-339h-148z" />
    <glyph glyph-name="uni1EA2" unicode="&#x1ea2;" horiz-adv-x="710" 
d="M277 853v56q32 16 87 17q100 -2 106 -66q1 -43 -35 -65q-37 -21 -37 -39h-81q0 37 23 55t23 32q1 11 -6 16t-17 5q-30 0 -63 -11zM413 241l-71 187l-72 -187h143zM505 0l-44 115h-238l-44 -115h-173v8l299 703h101l299 -703v-8h-200z" />
    <glyph glyph-name="uni1EA3" unicode="&#x1ea3;" horiz-adv-x="552" 
d="M207 709v56q32 16 87 17q100 -2 106 -66q1 -43 -35 -65q-37 -21 -37 -39h-81q0 37 23 55t23 32q1 11 -6 16t-17 5q-30 0 -63 -11zM255 100q51 0 83 40v98l-65 -9q-46 -7 -66.5 -22t-20.5 -45q0 -62 69 -62zM361 0l-11 61q-53 -74 -151 -74q-79 0 -129 43t-50 121
q0 82 53.5 121t162.5 54l102 13q0 52 -24 72t-80 20q-85 0 -164 -42l-7 2v129q74 43 200 43q123 0 184.5 -53t61.5 -171v-339h-148z" />
    <glyph glyph-name="uni1EA4" unicode="&#x1ea4;" horiz-adv-x="710" 
d="M656 976l-73 -110h-116l51 110h138zM355 808l-47 -52h-114l101 130h122l101 -130h-114zM413 241l-71 187l-72 -187h143zM505 0l-44 115h-238l-44 -115h-173v8l299 703h101l299 -703v-8h-200z" />
    <glyph glyph-name="uni1EA5" unicode="&#x1ea5;" horiz-adv-x="552" 
d="M578 822l-73 -110h-116l51 110h138zM277 654l-47 -52h-114l101 130h122l101 -130h-114zM255 100q51 0 83 40v98l-65 -9q-46 -7 -66.5 -22t-20.5 -45q0 -62 69 -62zM361 0l-11 61q-53 -74 -151 -74q-79 0 -129 43t-50 121q0 82 53.5 121t162.5 54l102 13q0 52 -24 72
t-80 20q-85 0 -164 -42l-7 2v129q74 43 200 43q123 0 184.5 -53t61.5 -171v-339h-148z" />
    <glyph glyph-name="uni1EA6" unicode="&#x1ea6;" horiz-adv-x="710" 
d="M473 866l-73 110h138l51 -110h-116zM355 808l-47 -52h-114l101 130h122l101 -130h-114zM413 241l-71 187l-72 -187h143zM505 0l-44 115h-238l-44 -115h-173v8l299 703h101l299 -703v-8h-200z" />
    <glyph glyph-name="uni1EA7" unicode="&#x1ea7;" horiz-adv-x="552" 
d="M395 712l-73 110h138l51 -110h-116zM277 654l-47 -52h-114l101 130h122l101 -130h-114zM255 100q51 0 83 40v98l-65 -9q-46 -7 -66.5 -22t-20.5 -45q0 -62 69 -62zM361 0l-11 61q-53 -74 -151 -74q-79 0 -129 43t-50 121q0 82 53.5 121t162.5 54l102 13q0 52 -24 72
t-80 20q-85 0 -164 -42l-7 2v129q74 43 200 43q123 0 184.5 -53t61.5 -171v-339h-148z" />
    <glyph glyph-name="uni1EA8" unicode="&#x1ea8;" horiz-adv-x="710" 
d="M426 947v50q25 14 80 15q41 -1 67.5 -15.5t29.5 -41.5q1 -37 -30 -56q-31 -18 -31 -34h-79q0 31 19 47q20 18 20 26q1 10 -5 14t-16 4q-27 0 -55 -9zM355 808l-47 -52h-114l101 130h122l101 -130h-114zM413 241l-71 187l-72 -187h143zM505 0l-44 115h-238l-44 -115h-173
v8l299 703h101l299 -703v-8h-200z" />
    <glyph glyph-name="uni1EA9" unicode="&#x1ea9;" horiz-adv-x="552" 
d="M348 793v50q25 14 80 15q41 -1 67.5 -15.5t29.5 -41.5q1 -37 -30 -56q-31 -18 -31 -34h-79q0 31 19 47q20 18 20 26q1 10 -5 14t-16 4q-27 0 -55 -9zM277 654l-47 -52h-114l101 130h122l101 -130h-114zM255 100q51 0 83 40v98l-65 -9q-46 -7 -66.5 -22t-20.5 -45
q0 -62 69 -62zM361 0l-11 61q-53 -74 -151 -74q-79 0 -129 43t-50 121q0 82 53.5 121t162.5 54l102 13q0 52 -24 72t-80 20q-85 0 -164 -42l-7 2v129q74 43 200 43q123 0 184.5 -53t61.5 -171v-339h-148z" />
    <glyph glyph-name="uni1EAA" unicode="&#x1eaa;" horiz-adv-x="710" 
d="M418 1001q32 0 64 36l6 -3v-85q-31 -41 -77 -41q-31 0 -64.5 15t-48.5 15q-35 0 -69 -35l-6 3v85q26 41 79 41q28 0 63.5 -15.5t52.5 -15.5zM355 808l-47 -52h-114l101 130h122l101 -130h-114zM413 241l-71 187l-72 -187h143zM505 0l-44 115h-238l-44 -115h-173v8
l299 703h101l299 -703v-8h-200z" />
    <glyph glyph-name="uni1EAB" unicode="&#x1eab;" horiz-adv-x="552" 
d="M340 847q32 0 64 36l6 -3v-85q-31 -41 -77 -41q-31 0 -64.5 15t-48.5 15q-35 0 -69 -35l-6 3v85q26 41 79 41q28 0 63.5 -15.5t52.5 -15.5zM277 654l-47 -52h-114l101 130h122l101 -130h-114zM255 100q51 0 83 40v98l-65 -9q-46 -7 -66.5 -22t-20.5 -45q0 -62 69 -62z
M361 0l-11 61q-53 -74 -151 -74q-79 0 -129 43t-50 121q0 82 53.5 121t162.5 54l102 13q0 52 -24 72t-80 20q-85 0 -164 -42l-7 2v129q74 43 200 43q123 0 184.5 -53t61.5 -171v-339h-148z" />
    <glyph glyph-name="uni1EAC" unicode="&#x1eac;" horiz-adv-x="710" 
d="M261 -191v113h156v-113h-156zM355 808l-47 -52h-114l101 130h122l101 -130h-114zM413 241l-71 187l-72 -187h143zM505 0l-44 115h-238l-44 -115h-173v8l299 703h101l299 -703v-8h-200z" />
    <glyph glyph-name="uni1EAD" unicode="&#x1ead;" horiz-adv-x="552" 
d="M178 -191v113h156v-113h-156zM277 654l-47 -52h-114l101 130h122l101 -130h-114zM255 100q51 0 83 40v98l-65 -9q-46 -7 -66.5 -22t-20.5 -45q0 -62 69 -62zM361 0l-11 61q-53 -74 -151 -74q-79 0 -129 43t-50 121q0 82 53.5 121t162.5 54l102 13q0 52 -24 72t-80 20
q-85 0 -164 -42l-7 2v129q74 43 200 43q123 0 184.5 -53t61.5 -171v-339h-148z" />
    <glyph glyph-name="uni1EAE" unicode="&#x1eae;" horiz-adv-x="710" 
d="M482 1016l-73 -110h-116l51 110h138zM357 756q-74 0 -109 31t-39 92h101q1 -43 46 -43q46 0 47 43h101q-4 -61 -38.5 -92t-108.5 -31zM413 241l-71 187l-72 -187h143zM505 0l-44 115h-238l-44 -115h-173v8l299 703h101l299 -703v-8h-200z" />
    <glyph glyph-name="uni1EAF" unicode="&#x1eaf;" horiz-adv-x="552" 
d="M414 865l-73 -110h-116l51 110h138zM255 100q51 0 83 40v98l-65 -9q-46 -7 -66.5 -22t-20.5 -45q0 -62 69 -62zM361 0l-11 61q-53 -74 -151 -74q-79 0 -129 43t-50 121q0 82 53.5 121t162.5 54l102 13q0 52 -24 72t-80 20q-85 0 -164 -42l-7 2v129q74 43 200 43
q123 0 184.5 -53t61.5 -171v-339h-148zM289 605q-74 0 -109 31t-39 92h101q1 -43 46 -43q46 0 47 43h101q-4 -61 -38.5 -92t-108.5 -31z" />
    <glyph glyph-name="uni1EB0" unicode="&#x1eb0;" horiz-adv-x="710" 
d="M300 906l-73 110h138l51 -110h-116zM357 756q-74 0 -109 31t-39 92h101q1 -43 46 -43q46 0 47 43h101q-4 -61 -38.5 -92t-108.5 -31zM413 241l-71 187l-72 -187h143zM505 0l-44 115h-238l-44 -115h-173v8l299 703h101l299 -703v-8h-200z" />
    <glyph glyph-name="uni1EB1" unicode="&#x1eb1;" horiz-adv-x="552" 
d="M232 755l-73 110h138l51 -110h-116zM255 100q51 0 83 40v98l-65 -9q-46 -7 -66.5 -22t-20.5 -45q0 -62 69 -62zM361 0l-11 61q-53 -74 -151 -74q-79 0 -129 43t-50 121q0 82 53.5 121t162.5 54l102 13q0 52 -24 72t-80 20q-85 0 -164 -42l-7 2v129q74 43 200 43
q123 0 184.5 -53t61.5 -171v-339h-148zM289 605q-74 0 -109 31t-39 92h101q1 -43 46 -43q46 0 47 43h101q-4 -61 -38.5 -92t-108.5 -31z" />
    <glyph glyph-name="uni1EB2" unicode="&#x1eb2;" horiz-adv-x="710" 
d="M279 988v50q25 14 80 15q41 -1 67.5 -15.5t29.5 -41.5q1 -37 -30 -56q-31 -18 -31 -34h-79q0 31 19 47q20 18 20 26q1 10 -5 14t-16 4q-26 0 -55 -9zM357 756q-74 0 -109 31t-39 92h101q1 -43 46 -43q46 0 47 43h101q-4 -61 -38.5 -92t-108.5 -31zM413 241l-71 187
l-72 -187h143zM505 0l-44 115h-238l-44 -115h-173v8l299 703h101l299 -703v-8h-200z" />
    <glyph glyph-name="uni1EB3" unicode="&#x1eb3;" horiz-adv-x="552" 
d="M211 837v50q25 14 80 15q41 -1 67.5 -15.5t29.5 -41.5q1 -37 -30 -56q-31 -18 -31 -34h-79q0 31 19 47q20 18 20 26q1 10 -5 14t-16 4q-27 0 -55 -9zM255 100q51 0 83 40v98l-65 -9q-46 -7 -66.5 -22t-20.5 -45q0 -62 69 -62zM361 0l-11 61q-53 -74 -151 -74
q-79 0 -129 43t-50 121q0 82 53.5 121t162.5 54l102 13q0 52 -24 72t-80 20q-85 0 -164 -42l-7 2v129q74 43 200 43q123 0 184.5 -53t61.5 -171v-339h-148zM289 605q-74 0 -109 31t-39 92h101q1 -43 46 -43q46 0 47 43h101q-4 -61 -38.5 -92t-108.5 -31z" />
    <glyph glyph-name="uni1EB4" unicode="&#x1eb4;" horiz-adv-x="710" 
d="M419 995q33 0 64 36l6 -3v-85q-31 -41 -77 -41q-31 0 -64.5 15t-48.5 15q-35 0 -69 -35l-6 3v85q26 41 79 41q28 0 63.5 -15.5t52.5 -15.5zM357 756q-74 0 -109 31t-39 92h101q1 -43 46 -43q46 0 47 43h101q-4 -61 -38.5 -92t-108.5 -31zM413 241l-71 187l-72 -187h143z
M505 0l-44 115h-238l-44 -115h-173v8l299 703h101l299 -703v-8h-200z" />
    <glyph glyph-name="uni1EB5" unicode="&#x1eb5;" horiz-adv-x="552" 
d="M351 844q33 0 64 36l6 -3v-85q-31 -41 -77 -41q-31 0 -64.5 15t-48.5 15q-35 0 -69 -35l-6 3v85q26 41 79 41q28 0 63.5 -15.5t52.5 -15.5zM255 100q51 0 83 40v98l-65 -9q-46 -7 -66.5 -22t-20.5 -45q0 -62 69 -62zM361 0l-11 61q-53 -74 -151 -74q-79 0 -129 43
t-50 121q0 82 53.5 121t162.5 54l102 13q0 52 -24 72t-80 20q-85 0 -164 -42l-7 2v129q74 43 200 43q123 0 184.5 -53t61.5 -171v-339h-148zM289 605q-74 0 -109 31t-39 92h101q1 -43 46 -43q46 0 47 43h101q-4 -61 -38.5 -92t-108.5 -31z" />
    <glyph glyph-name="uni1EB6" unicode="&#x1eb6;" horiz-adv-x="710" 
d="M261 -191v113h156v-113h-156zM357 756q-74 0 -109 31t-39 92h101q1 -43 46 -43q46 0 47 43h101q-4 -61 -38.5 -92t-108.5 -31zM413 241l-71 187l-72 -187h143zM505 0l-44 115h-238l-44 -115h-173v8l299 703h101l299 -703v-8h-200z" />
    <glyph glyph-name="uni1EB7" unicode="&#x1eb7;" horiz-adv-x="552" 
d="M178 -191v113h156v-113h-156zM255 100q51 0 83 40v98l-65 -9q-46 -7 -66.5 -22t-20.5 -45q0 -62 69 -62zM361 0l-11 61q-53 -74 -151 -74q-79 0 -129 43t-50 121q0 82 53.5 121t162.5 54l102 13q0 52 -24 72t-80 20q-85 0 -164 -42l-7 2v129q74 43 200 43
q123 0 184.5 -53t61.5 -171v-339h-148zM289 605q-74 0 -109 31t-39 92h101q1 -43 46 -43q46 0 47 43h101q-4 -61 -38.5 -92t-108.5 -31z" />
    <glyph glyph-name="uni1EB8" unicode="&#x1eb8;" horiz-adv-x="565" 
d="M205 -191v113h156v-113h-156zM59 0v705h460v-139h-269v-136h230v-138h-230v-153h274v-139h-465z" />
    <glyph glyph-name="uni1EB9" unicode="&#x1eb9;" horiz-adv-x="564" 
d="M225 -191v113h156v-113h-156zM296 447q-88 0 -105 -106h193q-3 54 -24 80t-64 26zM530 153v-125q-76 -41 -198 -41q-155 0 -233.5 76.5t-78.5 216.5q0 125 75.5 204t199.5 79q127 0 194 -81.5t52 -248.5h-352q10 -62 48 -89.5t111 -27.5q92 0 175 40z" />
    <glyph glyph-name="uni1EBA" unicode="&#x1eba;" horiz-adv-x="565" 
d="M214 853v56q32 16 87 17q100 -2 106 -66q1 -43 -35 -65q-37 -21 -37 -39h-81q0 37 23 55t23 32q1 11 -6 16t-17 5q-30 0 -63 -11zM59 0v705h460v-139h-269v-136h230v-138h-230v-153h274v-139h-465z" />
    <glyph glyph-name="uni1EBB" unicode="&#x1ebb;" horiz-adv-x="564" 
d="M232 709v56q32 16 87 17q100 -2 106 -66q1 -43 -35 -65q-37 -21 -37 -39h-81q0 37 23 55t23 32q1 11 -6 16t-17 5q-30 0 -63 -11zM296 447q-88 0 -105 -106h193q-3 54 -24 80t-64 26zM530 153v-125q-76 -41 -198 -41q-155 0 -233.5 76.5t-78.5 216.5q0 125 75.5 204
t199.5 79q127 0 194 -81.5t52 -248.5h-352q10 -62 48 -89.5t111 -27.5q92 0 175 40z" />
    <glyph glyph-name="uni1EBC" unicode="&#x1ebc;" horiz-adv-x="565" 
d="M354 863q32 0 64 36l6 -3v-85q-31 -41 -77 -41q-31 0 -64.5 15t-48.5 15q-35 0 -69 -35l-6 3v85q26 41 79 41q28 0 63.5 -15.5t52.5 -15.5zM59 0v705h460v-139h-269v-136h230v-138h-230v-153h274v-139h-465z" />
    <glyph glyph-name="uni1EBD" unicode="&#x1ebd;" horiz-adv-x="564" 
d="M372 700q32 0 64 36l6 -3v-85q-31 -41 -77 -41q-31 0 -64.5 15t-48.5 15q-35 0 -69 -35l-6 3v85q26 41 79 41q28 0 63.5 -15.5t52.5 -15.5zM296 447q-88 0 -105 -106h193q-3 54 -24 80t-64 26zM530 153v-125q-76 -41 -198 -41q-155 0 -233.5 76.5t-78.5 216.5
q0 125 75.5 204t199.5 79q127 0 194 -81.5t52 -248.5h-352q10 -62 48 -89.5t111 -27.5q92 0 175 40z" />
    <glyph glyph-name="uni1EBE" unicode="&#x1ebe;" horiz-adv-x="565" 
d="M586 976l-73 -110h-116l51 110h138zM285 808l-47 -52h-114l101 130h122l101 -130h-114zM59 0v705h460v-139h-269v-136h230v-138h-230v-153h274v-139h-465z" />
    <glyph glyph-name="uni1EBF" unicode="&#x1ebf;" horiz-adv-x="564" 
d="M604 822l-73 -110h-116l51 110h138zM296 447q-88 0 -105 -106h193q-3 54 -24 80t-64 26zM530 153v-125q-76 -41 -198 -41q-155 0 -233.5 76.5t-78.5 216.5q0 125 75.5 204t199.5 79q127 0 194 -81.5t52 -248.5h-352q10 -62 48 -89.5t111 -27.5q92 0 175 40zM303 654
l-47 -52h-114l101 130h122l101 -130h-114z" />
    <glyph glyph-name="uni1EC0" unicode="&#x1ec0;" horiz-adv-x="565" 
d="M403 866l-73 110h138l51 -110h-116zM285 808l-47 -52h-114l101 130h122l101 -130h-114zM59 0v705h460v-139h-269v-136h230v-138h-230v-153h274v-139h-465z" />
    <glyph glyph-name="uni1EC1" unicode="&#x1ec1;" horiz-adv-x="564" 
d="M421 712l-73 110h138l51 -110h-116zM296 447q-88 0 -105 -106h193q-3 54 -24 80t-64 26zM530 153v-125q-76 -41 -198 -41q-155 0 -233.5 76.5t-78.5 216.5q0 125 75.5 204t199.5 79q127 0 194 -81.5t52 -248.5h-352q10 -62 48 -89.5t111 -27.5q92 0 175 40zM303 654
l-47 -52h-114l101 130h122l101 -130h-114z" />
    <glyph glyph-name="uni1EC2" unicode="&#x1ec2;" horiz-adv-x="565" 
d="M356 947v50q25 14 80 15q41 -1 67.5 -15.5t29.5 -41.5q1 -37 -30 -56q-31 -18 -31 -34h-79q0 31 19 47q20 18 20 26q1 10 -5 14t-16 4q-27 0 -55 -9zM285 808l-47 -52h-114l101 130h122l101 -130h-114zM59 0v705h460v-139h-269v-136h230v-138h-230v-153h274v-139h-465z
" />
    <glyph glyph-name="uni1EC3" unicode="&#x1ec3;" horiz-adv-x="564" 
d="M374 793v50q25 14 80 15q41 -1 67.5 -15.5t29.5 -41.5q1 -37 -30 -56q-31 -18 -31 -34h-79q0 31 19 47q20 18 20 26q1 10 -5 14t-16 4q-27 0 -55 -9zM296 447q-88 0 -105 -106h193q-3 54 -24 80t-64 26zM530 153v-125q-76 -41 -198 -41q-155 0 -233.5 76.5t-78.5 216.5
q0 125 75.5 204t199.5 79q127 0 194 -81.5t52 -248.5h-352q10 -62 48 -89.5t111 -27.5q92 0 175 40zM303 654l-47 -52h-114l101 130h122l101 -130h-114z" />
    <glyph glyph-name="uni1EC4" unicode="&#x1ec4;" horiz-adv-x="565" 
d="M348 1001q32 0 64 36l6 -3v-85q-31 -41 -77 -41q-31 0 -64.5 15t-48.5 15q-35 0 -69 -35l-6 3v85q26 41 79 41q28 0 63.5 -15.5t52.5 -15.5zM285 808l-47 -52h-114l101 130h122l101 -130h-114zM59 0v705h460v-139h-269v-136h230v-138h-230v-153h274v-139h-465z" />
    <glyph glyph-name="uni1EC5" unicode="&#x1ec5;" horiz-adv-x="564" 
d="M366 847q32 0 64 36l6 -3v-85q-31 -41 -77 -41q-31 0 -64.5 15t-48.5 15q-35 0 -69 -35l-6 3v85q26 41 79 41q28 0 63.5 -15.5t52.5 -15.5zM296 447q-88 0 -105 -106h193q-3 54 -24 80t-64 26zM530 153v-125q-76 -41 -198 -41q-155 0 -233.5 76.5t-78.5 216.5
q0 125 75.5 204t199.5 79q127 0 194 -81.5t52 -248.5h-352q10 -62 48 -89.5t111 -27.5q92 0 175 40zM303 654l-47 -52h-114l101 130h122l101 -130h-114z" />
    <glyph glyph-name="uni1EC6" unicode="&#x1ec6;" horiz-adv-x="565" 
d="M205 -191v113h156v-113h-156zM285 808l-47 -52h-114l101 130h122l101 -130h-114zM59 0v705h460v-139h-269v-136h230v-138h-230v-153h274v-139h-465z" />
    <glyph glyph-name="uni1EC7" unicode="&#x1ec7;" horiz-adv-x="564" 
d="M225 -191v113h156v-113h-156zM296 447q-88 0 -105 -106h193q-3 54 -24 80t-64 26zM530 153v-125q-76 -41 -198 -41q-155 0 -233.5 76.5t-78.5 216.5q0 125 75.5 204t199.5 79q127 0 194 -81.5t52 -248.5h-352q10 -62 48 -89.5t111 -27.5q92 0 175 40zM303 654l-47 -52
h-114l101 130h122l101 -130h-114z" />
    <glyph glyph-name="uni1EC8" unicode="&#x1ec8;" horiz-adv-x="315" 
d="M78 853v56q32 16 87 17q100 -2 106 -66q1 -43 -35 -65q-37 -21 -37 -39h-81q0 37 23 55t23 32q1 11 -6 16t-17 5q-30 0 -63 -11zM61 0v705h193v-705h-193z" />
    <glyph glyph-name="uni1EC9" unicode="&#x1ec9;" horiz-adv-x="272" 
d="M56 709v56q32 16 87 17q100 -2 106 -66q1 -43 -35 -65q-37 -21 -37 -39h-81q0 37 23 55t23 32q1 11 -6 16t-17 5q-30 0 -63 -11zM50 0v550h172v-550h-172z" />
    <glyph glyph-name="uni1ECA" unicode="&#x1eca;" horiz-adv-x="315" 
d="M61 -191v113h193v-113h-193zM61 0v705h193v-705h-193z" />
    <glyph glyph-name="uni1ECB" unicode="&#x1ecb;" horiz-adv-x="268" 
d="M48 0v550h172v-550h-172zM48 612v113h171v-113h-171zM48 -191v113h172v-113h-172z" />
    <glyph glyph-name="uni1ECC" unicode="&#x1ecc;" 
d="M320 -191v113h156v-113h-156zM398 -14q-167 0 -270 105t-103 264t102.5 261.5t270.5 102.5t270.5 -102.5t102.5 -261.5t-103 -264t-270 -105zM398 130q83 0 130 61t47 164q0 101 -48 161t-129 60t-128.5 -60t-47.5 -161q0 -103 47 -164t129 -61z" />
    <glyph glyph-name="uni1ECD" unicode="&#x1ecd;" horiz-adv-x="629" 
d="M237 -191v113h156v-113h-156zM314 -13q-129 0 -211.5 78.5t-82.5 210.5t82.5 209.5t211.5 77.5t212 -77.5t83 -209.5t-83 -210.5t-212 -78.5zM314 112q56 0 88 41t32 122t-32 122t-88 41t-87.5 -41t-31.5 -122t31.5 -122t87.5 -41z" />
    <glyph glyph-name="uni1ECE" unicode="&#x1ece;" 
d="M338 853v56q32 16 87 17q100 -2 106 -66q1 -43 -35 -65q-37 -21 -37 -39h-81q0 37 23 55t23 32q1 11 -6 16t-17 5q-30 0 -63 -11zM398 -14q-167 0 -270 105t-103 264t102.5 261.5t270.5 102.5t270.5 -102.5t102.5 -261.5t-103 -264t-270 -105zM398 130q83 0 130 61
t47 164q0 101 -48 161t-129 60t-128.5 -60t-47.5 -161q0 -103 47 -164t129 -61z" />
    <glyph glyph-name="uni1ECF" unicode="&#x1ecf;" horiz-adv-x="629" 
d="M255 709v56q32 16 87 17q100 -2 106 -66q1 -43 -35 -65q-37 -21 -37 -39h-81q0 37 23 55t23 32q1 11 -6 16t-17 5q-30 0 -63 -11zM314 -13q-129 0 -211.5 78.5t-82.5 210.5t82.5 209.5t211.5 77.5t212 -77.5t83 -209.5t-83 -210.5t-212 -78.5zM314 112q56 0 88 41t32 122
t-32 122t-88 41t-87.5 -41t-31.5 -122t31.5 -122t87.5 -41z" />
    <glyph glyph-name="uni1ED0" unicode="&#x1ed0;" 
d="M699 976l-73 -110h-116l51 110h138zM398 808l-47 -52h-114l101 130h122l101 -130h-114zM398 -14q-167 0 -270 105t-103 264t102.5 261.5t270.5 102.5t270.5 -102.5t102.5 -261.5t-103 -264t-270 -105zM398 130q83 0 130 61t47 164q0 101 -48 161t-129 60t-128.5 -60
t-47.5 -161q0 -103 47 -164t129 -61z" />
    <glyph glyph-name="uni1ED1" unicode="&#x1ed1;" horiz-adv-x="629" 
d="M615 822l-73 -110h-116l51 110h138zM314 654l-47 -52h-114l101 130h122l101 -130h-114zM314 -13q-129 0 -211.5 78.5t-82.5 210.5t82.5 209.5t211.5 77.5t212 -77.5t83 -209.5t-83 -210.5t-212 -78.5zM314 112q56 0 88 41t32 122t-32 122t-88 41t-87.5 -41t-31.5 -122
t31.5 -122t87.5 -41z" />
    <glyph glyph-name="uni1ED2" unicode="&#x1ed2;" 
d="M516 866l-73 110h138l51 -110h-116zM398 808l-47 -52h-114l101 130h122l101 -130h-114zM398 -14q-167 0 -270 105t-103 264t102.5 261.5t270.5 102.5t270.5 -102.5t102.5 -261.5t-103 -264t-270 -105zM398 130q83 0 130 61t47 164q0 101 -48 161t-129 60t-128.5 -60
t-47.5 -161q0 -103 47 -164t129 -61z" />
    <glyph glyph-name="uni1ED3" unicode="&#x1ed3;" horiz-adv-x="629" 
d="M432 712l-73 110h138l51 -110h-116zM314 654l-47 -52h-114l101 130h122l101 -130h-114zM314 -13q-129 0 -211.5 78.5t-82.5 210.5t82.5 209.5t211.5 77.5t212 -77.5t83 -209.5t-83 -210.5t-212 -78.5zM314 112q56 0 88 41t32 122t-32 122t-88 41t-87.5 -41t-31.5 -122
t31.5 -122t87.5 -41z" />
    <glyph glyph-name="uni1ED4" unicode="&#x1ed4;" 
d="M469 947v50q25 14 80 15q41 -1 67.5 -15.5t29.5 -41.5q1 -37 -30 -56q-31 -18 -31 -34h-79q0 31 19 47q20 18 20 26q1 10 -5 14t-16 4q-26 0 -55 -9zM398 808l-47 -52h-114l101 130h122l101 -130h-114zM398 -14q-167 0 -270 105t-103 264t102.5 261.5t270.5 102.5
t270.5 -102.5t102.5 -261.5t-103 -264t-270 -105zM398 130q83 0 130 61t47 164q0 101 -48 161t-129 60t-128.5 -60t-47.5 -161q0 -103 47 -164t129 -61z" />
    <glyph glyph-name="uni1ED5" unicode="&#x1ed5;" horiz-adv-x="629" 
d="M385 793v50q25 14 80 15q41 -1 67.5 -15.5t29.5 -41.5q1 -37 -30 -56q-31 -18 -31 -34h-79q0 31 19 47q20 18 20 26q1 10 -5 14t-16 4q-26 0 -55 -9zM314 654l-47 -52h-114l101 130h122l101 -130h-114zM314 -13q-129 0 -211.5 78.5t-82.5 210.5t82.5 209.5t211.5 77.5
t212 -77.5t83 -209.5t-83 -210.5t-212 -78.5zM314 112q56 0 88 41t32 122t-32 122t-88 41t-87.5 -41t-31.5 -122t31.5 -122t87.5 -41z" />
    <glyph glyph-name="uni1ED6" unicode="&#x1ed6;" 
d="M461 1001q33 0 64 36l6 -3v-85q-31 -41 -77 -41q-31 0 -64.5 15t-48.5 15q-35 0 -69 -35l-6 3v85q26 41 79 41q28 0 63.5 -15.5t52.5 -15.5zM398 808l-47 -52h-114l101 130h122l101 -130h-114zM398 -14q-167 0 -270 105t-103 264t102.5 261.5t270.5 102.5t270.5 -102.5
t102.5 -261.5t-103 -264t-270 -105zM398 130q83 0 130 61t47 164q0 101 -48 161t-129 60t-128.5 -60t-47.5 -161q0 -103 47 -164t129 -61z" />
    <glyph glyph-name="uni1ED7" unicode="&#x1ed7;" horiz-adv-x="629" 
d="M377 847q33 0 64 36l6 -3v-85q-31 -41 -77 -41q-31 0 -64.5 15t-48.5 15q-35 0 -69 -35l-6 3v85q26 41 79 41q28 0 63.5 -15.5t52.5 -15.5zM314 654l-47 -52h-114l101 130h122l101 -130h-114zM314 -13q-129 0 -211.5 78.5t-82.5 210.5t82.5 209.5t211.5 77.5t212 -77.5
t83 -209.5t-83 -210.5t-212 -78.5zM314 112q56 0 88 41t32 122t-32 122t-88 41t-87.5 -41t-31.5 -122t31.5 -122t87.5 -41z" />
    <glyph glyph-name="uni1ED8" unicode="&#x1ed8;" 
d="M320 -191v113h156v-113h-156zM398 808l-47 -52h-114l101 130h122l101 -130h-114zM398 -14q-167 0 -270 105t-103 264t102.5 261.5t270.5 102.5t270.5 -102.5t102.5 -261.5t-103 -264t-270 -105zM398 130q83 0 130 61t47 164q0 101 -48 161t-129 60t-128.5 -60t-47.5 -161
q0 -103 47 -164t129 -61z" />
    <glyph glyph-name="uni1ED9" unicode="&#x1ed9;" horiz-adv-x="629" 
d="M237 -191v113h156v-113h-156zM314 654l-47 -52h-114l101 130h122l101 -130h-114zM314 -13q-129 0 -211.5 78.5t-82.5 210.5t82.5 209.5t211.5 77.5t212 -77.5t83 -209.5t-83 -210.5t-212 -78.5zM314 112q56 0 88 41t32 122t-32 122t-88 41t-87.5 -41t-31.5 -122
t31.5 -122t87.5 -41z" />
    <glyph glyph-name="uni1EDA" unicode="&#x1eda;" 
d="M557 886l-93 -130h-116l71 130h138zM398 -14q-167 0 -270 105t-103 264t102.5 261.5t270.5 102.5q66 0 120 -16q9 0 22 0.5t23 0.5h10q30 3 39.5 22t9.5 57h132q0 -122 -98 -155q7 -6 13 -13q102 -100 102 -260q0 -159 -103 -264t-270 -105zM398 130q83 0 130 61t47 164
q0 101 -48 161t-129 60t-128.5 -60t-47.5 -161q0 -103 47 -164t129 -61z" />
    <glyph glyph-name="uni1EDB" unicode="&#x1edb;" horiz-adv-x="629" 
d="M470 742l-93 -130h-116l71 130h138zM314 -13q-129 0 -211.5 78.5t-82.5 210.5t82.5 209.5t211.5 77.5q54 0 102 -15q17 1 36 1q30 3 39.5 22t9.5 57h132q0 -121 -96 -154q31 -32 49 -78q23 -54 23 -120q0 -132 -83 -210.5t-212 -78.5zM314 112q56 0 88 41t32 122t-32 122
t-88 41t-87.5 -41t-31.5 -122t31.5 -122t87.5 -41z" />
    <glyph glyph-name="uni1EDC" unicode="&#x1edc;" 
d="M366 756l-93 130h138l71 -130h-116zM398 -14q-167 0 -270 105t-103 264t102.5 261.5t270.5 102.5q66 0 120 -16q9 0 22 0.5t23 0.5h10q30 3 39.5 22t9.5 57h132q0 -122 -98 -155q7 -6 13 -13q102 -100 102 -260q0 -159 -103 -264t-270 -105zM398 130q83 0 130 61t47 164
q0 101 -48 161t-129 60t-128.5 -60t-47.5 -161q0 -103 47 -164t129 -61z" />
    <glyph glyph-name="uni1EDD" unicode="&#x1edd;" horiz-adv-x="629" 
d="M285 612l-93 130h138l71 -130h-116zM314 -13q-129 0 -211.5 78.5t-82.5 210.5t82.5 209.5t211.5 77.5q54 0 102 -15q17 1 36 1q30 3 39.5 22t9.5 57h132q0 -121 -96 -154q31 -32 49 -78q23 -54 23 -120q0 -132 -83 -210.5t-212 -78.5zM314 112q56 0 88 41t32 122t-32 122
t-88 41t-87.5 -41t-31.5 -122t31.5 -122t87.5 -41z" />
    <glyph glyph-name="uni1EDE" unicode="&#x1ede;" 
d="M338 853v56q32 16 87 17q100 -2 106 -66q1 -43 -35 -65q-37 -21 -37 -39h-81q0 37 23 55t23 32q1 11 -6 16t-17 5q-30 0 -63 -11zM398 -14q-167 0 -270 105t-103 264t102.5 261.5t270.5 102.5q66 0 120 -16q9 0 22 0.5t23 0.5h10q30 3 39.5 22t9.5 57h132
q0 -122 -98 -155q7 -6 13 -13q102 -100 102 -260q0 -159 -103 -264t-270 -105zM398 130q83 0 130 61t47 164q0 101 -48 161t-129 60t-128.5 -60t-47.5 -161q0 -103 47 -164t129 -61z" />
    <glyph glyph-name="uni1EDF" unicode="&#x1edf;" horiz-adv-x="629" 
d="M255 709v56q32 16 87 17q100 -2 106 -66q1 -43 -35 -65q-37 -21 -37 -39h-81q0 37 23 55t23 32q1 11 -6 16t-17 5q-30 0 -63 -11zM314 -13q-129 0 -211.5 78.5t-82.5 210.5t82.5 209.5t211.5 77.5q54 0 102 -15q17 1 36 1q30 3 39.5 22t9.5 57h132q0 -121 -96 -154
q31 -32 49 -78q23 -54 23 -120q0 -132 -83 -210.5t-212 -78.5zM314 112q56 0 88 41t32 122t-32 122t-88 41t-87.5 -41t-31.5 -122t31.5 -122t87.5 -41z" />
    <glyph glyph-name="uni1EE0" unicode="&#x1ee0;" 
d="M472 863q32 0 64 36l6 -3v-85q-31 -41 -77 -41q-31 0 -64.5 15t-48.5 15q-35 0 -69 -35l-6 3v85q26 41 79 41q28 0 63.5 -15.5t52.5 -15.5zM398 -14q-167 0 -270 105t-103 264t102.5 261.5t270.5 102.5q66 0 120 -16q9 0 22 0.5t23 0.5h10q30 3 39.5 22t9.5 57h132
q0 -122 -98 -155q7 -6 13 -13q102 -100 102 -260q0 -159 -103 -264t-270 -105zM398 130q83 0 130 61t47 164q0 101 -48 161t-129 60t-128.5 -60t-47.5 -161q0 -103 47 -164t129 -61z" />
    <glyph glyph-name="uni1EE1" unicode="&#x1ee1;" horiz-adv-x="629" 
d="M392 700q32 0 64 36l6 -3v-85q-31 -41 -77 -41q-31 0 -64.5 15t-48.5 15q-35 0 -69 -35l-6 3v85q26 41 79 41q28 0 63.5 -15.5t52.5 -15.5zM314 -13q-129 0 -211.5 78.5t-82.5 210.5t82.5 209.5t211.5 77.5q54 0 102 -15q17 1 36 1q30 3 39.5 22t9.5 57h132
q0 -121 -96 -154q31 -32 49 -78q23 -54 23 -120q0 -132 -83 -210.5t-212 -78.5zM314 112q56 0 88 41t32 122t-32 122t-88 41t-87.5 -41t-31.5 -122t31.5 -122t87.5 -41z" />
    <glyph glyph-name="uni1EE2" unicode="&#x1ee2;" 
d="M320 -191v113h156v-113h-156zM398 -14q-167 0 -270 105t-103 264t102.5 261.5t270.5 102.5q66 0 120 -16q9 0 22 0.5t23 0.5h10q30 3 39.5 22t9.5 57h132q0 -122 -98 -155q7 -6 13 -13q102 -100 102 -260q0 -159 -103 -264t-270 -105zM398 130q83 0 130 61t47 164
q0 101 -48 161t-129 60t-128.5 -60t-47.5 -161q0 -103 47 -164t129 -61z" />
    <glyph glyph-name="uni1EE3" unicode="&#x1ee3;" horiz-adv-x="629" 
d="M237 -191v113h156v-113h-156zM314 -13q-129 0 -211.5 78.5t-82.5 210.5t82.5 209.5t211.5 77.5q54 0 102 -15q17 1 36 1q30 3 39.5 22t9.5 57h132q0 -121 -96 -154q31 -32 49 -78q23 -54 23 -120q0 -132 -83 -210.5t-212 -78.5zM314 112q56 0 88 41t32 122t-32 122
t-88 41t-87.5 -41t-31.5 -122t31.5 -122t87.5 -41z" />
    <glyph glyph-name="uni1EE4" unicode="&#x1ee4;" horiz-adv-x="720" 
d="M285 -191v113h156v-113h-156zM363 -12q-153 0 -232.5 74t-79.5 217v426h194v-423q0 -140 126 -140q61 0 94 35.5t33 104.5v423h171v-426q0 -137 -79 -214t-227 -77z" />
    <glyph glyph-name="uni1EE5" unicode="&#x1ee5;" horiz-adv-x="604" 
d="M208 -191v113h156v-113h-156zM407 0l-11 67q-73 -80 -169 -80q-85 0 -135 49t-50 144v370h172v-342q0 -85 80 -85q53 0 92 30v397h172v-550h-151z" />
    <glyph glyph-name="uni1EE6" unicode="&#x1ee6;" horiz-adv-x="720" 
d="M294 853v56q32 16 87 17q100 -2 106 -66q1 -43 -35 -65q-37 -21 -37 -39h-81q0 37 23 55t23 32q1 11 -6 16t-17 5q-30 0 -63 -11zM363 -12q-153 0 -232.5 74t-79.5 217v426h194v-423q0 -140 126 -140q61 0 94 35.5t33 104.5v423h171v-426q0 -137 -79 -214t-227 -77z" />
    <glyph glyph-name="uni1EE7" unicode="&#x1ee7;" horiz-adv-x="604" 
d="M220 709v56q32 16 87 17q100 -2 106 -66q1 -43 -35 -65q-37 -21 -37 -39h-81q0 37 23 55t23 32q1 11 -6 16t-17 5q-30 0 -63 -11zM407 0l-11 67q-73 -80 -169 -80q-85 0 -135 49t-50 144v370h172v-342q0 -85 80 -85q53 0 92 30v397h172v-550h-151z" />
    <glyph glyph-name="uni1EE8" unicode="&#x1ee8;" horiz-adv-x="720" 
d="M522 886l-93 -130h-116l71 130h138zM363 -12q-153 0 -232.5 74t-79.5 217v426h194v-423q0 -140 126 -140q61 0 94 35.5t33 104.5v423h90q24 6 32 24.5t8 53.5h132q0 -117 -91 -152v-352q0 -137 -79 -214t-227 -77z" />
    <glyph glyph-name="uni1EE9" unicode="&#x1ee9;" horiz-adv-x="604" 
d="M452 742l-93 -130h-116l71 130h138zM407 0l-11 67q-73 -80 -169 -80q-85 0 -135 49t-50 144v370h172v-342q0 -85 80 -85q53 0 92 30v397h98q24 6 32 24.5t8 53.5h132q0 -122 -98 -155v-473h-151z" />
    <glyph glyph-name="uni1EEA" unicode="&#x1eea;" horiz-adv-x="720" 
d="M331 756l-93 130h138l71 -130h-116zM363 -12q-153 0 -232.5 74t-79.5 217v426h194v-423q0 -140 126 -140q61 0 94 35.5t33 104.5v423h90q24 6 32 24.5t8 53.5h132q0 -117 -91 -152v-352q0 -137 -79 -214t-227 -77z" />
    <glyph glyph-name="uni1EEB" unicode="&#x1eeb;" horiz-adv-x="604" 
d="M257 612l-93 130h138l71 -130h-116zM407 0l-11 67q-73 -80 -169 -80q-85 0 -135 49t-50 144v370h172v-342q0 -85 80 -85q53 0 92 30v397h98q24 6 32 24.5t8 53.5h132q0 -122 -98 -155v-473h-151z" />
    <glyph glyph-name="uni1EEC" unicode="&#x1eec;" horiz-adv-x="720" 
d="M294 853v56q32 16 87 17q100 -2 106 -66q1 -43 -35 -65q-37 -21 -37 -39h-81q0 37 23 55t23 32q1 11 -6 16t-17 5q-30 0 -63 -11zM363 -12q-153 0 -232.5 74t-79.5 217v426h194v-423q0 -140 126 -140q61 0 94 35.5t33 104.5v423h90q24 6 32 24.5t8 53.5h132
q0 -117 -91 -152v-352q0 -137 -79 -214t-227 -77z" />
    <glyph glyph-name="uni1EED" unicode="&#x1eed;" horiz-adv-x="604" 
d="M220 709v56q32 16 87 17q100 -2 106 -66q1 -43 -35 -65q-37 -21 -37 -39h-81q0 37 23 55t23 32q1 11 -6 16t-17 5q-30 0 -63 -11zM407 0l-11 67q-73 -80 -169 -80q-85 0 -135 49t-50 144v370h172v-342q0 -85 80 -85q53 0 92 30v397h98q24 6 32 24.5t8 53.5h132
q0 -122 -98 -155v-473h-151z" />
    <glyph glyph-name="uni1EEE" unicode="&#x1eee;" horiz-adv-x="720" 
d="M427 863q33 0 64 36l6 -3v-85q-31 -41 -77 -41q-31 0 -64.5 15t-48.5 15q-35 0 -69 -35l-6 3v85q26 41 79 41q28 0 63.5 -15.5t52.5 -15.5zM363 -12q-153 0 -232.5 74t-79.5 217v426h194v-423q0 -140 126 -140q61 0 94 35.5t33 104.5v423h90q24 6 32 24.5t8 53.5h132
q0 -117 -91 -152v-352q0 -137 -79 -214t-227 -77z" />
    <glyph glyph-name="uni1EEF" unicode="&#x1eef;" horiz-adv-x="604" 
d="M364 700q32 0 64 36l6 -3v-85q-31 -41 -77 -41q-31 0 -64.5 15t-48.5 15q-35 0 -69 -35l-6 3v85q26 41 79 41q28 0 63.5 -15.5t52.5 -15.5zM407 0l-11 67q-73 -80 -169 -80q-85 0 -135 49t-50 144v370h172v-342q0 -85 80 -85q53 0 92 30v397h98q24 6 32 24.5t8 53.5h132
q0 -122 -98 -155v-473h-151z" />
    <glyph glyph-name="uni1EF0" unicode="&#x1ef0;" horiz-adv-x="720" 
d="M285 -191v113h156v-113h-156zM363 -12q-153 0 -232.5 74t-79.5 217v426h194v-423q0 -140 126 -140q61 0 94 35.5t33 104.5v423h90q24 6 32 24.5t8 53.5h132q0 -117 -91 -152v-352q0 -137 -79 -214t-227 -77z" />
    <glyph glyph-name="uni1EF1" unicode="&#x1ef1;" horiz-adv-x="604" 
d="M208 -191v113h156v-113h-156zM407 0l-11 67q-73 -80 -169 -80q-85 0 -135 49t-50 144v370h172v-342q0 -85 80 -85q53 0 92 30v397h98q24 6 32 24.5t8 53.5h132q0 -122 -98 -155v-473h-151z" />
    <glyph glyph-name="Ygrave" unicode="&#x1ef2;" horiz-adv-x="639" 
d="M279 756l-93 130h138l71 -130h-116zM418 0h-194v278l-220 419v8h198l130 -275l129 275h174v-8l-217 -413v-284z" />
    <glyph glyph-name="ygrave" unicode="&#x1ef3;" horiz-adv-x="576" 
d="M251 612l-93 130h138l71 -130h-116zM75 -207v136q92 10 114 62l14 34l-197 517v8h181l112 -323l111 323h160v-8l-209 -575q-33 -92 -95 -129t-191 -45z" />
    <glyph glyph-name="uni1EF4" unicode="&#x1ef4;" horiz-adv-x="639" 
d="M224 -191v113h194v-113h-194zM418 0h-194v278l-220 419v8h198l130 -275l129 275h174v-8l-217 -413v-284z" />
    <glyph glyph-name="uni1EF5" unicode="&#x1ef5;" horiz-adv-x="576" 
d="M419 -191v113h156v-113h-156zM75 -207v136q92 10 114 62l14 34l-197 517v8h181l112 -323l111 323h160v-8l-209 -575q-33 -92 -95 -129t-191 -45z" />
    <glyph glyph-name="uni1EF6" unicode="&#x1ef6;" horiz-adv-x="639" 
d="M251 853v56q32 16 87 17q100 -2 106 -66q1 -43 -35 -65q-37 -21 -37 -39h-81q0 37 23 55t23 32q1 11 -6 16t-17 5q-30 0 -63 -11zM418 0h-194v278l-220 419v8h198l130 -275l129 275h174v-8l-217 -413v-284z" />
    <glyph glyph-name="uni1EF7" unicode="&#x1ef7;" horiz-adv-x="576" 
d="M218 709v56q32 16 87 17q100 -2 106 -66q1 -43 -35 -65q-37 -21 -37 -39h-81q0 37 23 55t23 32q1 11 -6 16t-17 5q-30 0 -63 -11zM75 -207v136q92 10 114 62l14 34l-197 517v8h181l112 -323l111 323h160v-8l-209 -575q-33 -92 -95 -129t-191 -45z" />
    <glyph glyph-name="uni1EF8" unicode="&#x1ef8;" horiz-adv-x="639" 
d="M389 863q33 0 64 36l6 -3v-85q-31 -41 -77 -41q-31 0 -64.5 15t-48.5 15q-35 0 -69 -35l-6 3v85q26 41 79 41q28 0 63.5 -15.5t52.5 -15.5zM418 0h-194v278l-220 419v8h198l130 -275l129 275h174v-8l-217 -413v-284z" />
    <glyph glyph-name="uni1EF9" unicode="&#x1ef9;" horiz-adv-x="576" 
d="M349 700q33 0 64 36l6 -3v-85q-31 -41 -77 -41q-31 0 -64.5 15t-48.5 15q-35 0 -69 -35l-6 3v85q26 41 79 41q28 0 63.5 -15.5t52.5 -15.5zM75 -207v136q92 10 114 62l14 34l-197 517v8h181l112 -323l111 323h160v-8l-209 -575q-33 -92 -95 -129t-191 -45z" />
    <glyph glyph-name="uni1EFA" unicode="&#x1efa;" horiz-adv-x="0" 
d="M467 459v89q35 1 46 20.5t11 59.5h132q0 -85 -44.5 -125t-144.5 -44z" />
    <glyph glyph-name="endash" unicode="&#x2013;" horiz-adv-x="527" 
d="M30 265v115h467v-115h-467z" />
    <glyph glyph-name="emdash" unicode="&#x2014;" horiz-adv-x="969" 
d="M30 265v115h909v-115h-909z" />
    <glyph glyph-name="quoteleft" unicode="&#x2018;" horiz-adv-x="233" 
d="M22 467l-3 10l68 228h117l-24 -238h-158z" />
    <glyph glyph-name="quoteright" unicode="&#x2019;" horiz-adv-x="234" 
d="M211 705l4 -10l-69 -228h-117l24 238h158z" />
    <glyph glyph-name="quotesinglbase" unicode="&#x201a;" horiz-adv-x="233" 
d="M206 157l3 -10l-68 -228h-117l24 238h158z" />
    <glyph glyph-name="quotedblleft" unicode="&#x201c;" horiz-adv-x="433" 
d="M22 467l-3 10l68 228h117l-24 -238h-158zM222 467l-4 10l69 228h117l-24 -238h-158z" />
    <glyph glyph-name="quotedblright" unicode="&#x201d;" horiz-adv-x="433" 
d="M411 705l3 -10l-68 -228h-117l24 238h158zM211 705l4 -10l-69 -228h-117l24 238h158z" />
    <glyph glyph-name="quotedblbase" unicode="&#x201e;" horiz-adv-x="433" 
d="M206 157l4 -10l-69 -228h-117l24 238h158zM406 157l3 -10l-68 -228h-117l24 238h158z" />
    <glyph glyph-name="dagger" unicode="&#x2020;" horiz-adv-x="398" 
d="M372 469h-106v-310h-134v310h-106v121h106v116l134 23v-139h106v-121z" />
    <glyph glyph-name="daggerdbl" unicode="&#x2021;" horiz-adv-x="398" 
d="M266 159l-134 -23v132h-106v112h106v105h-106v112h106v109l134 23v-132h106v-112h-106v-105h106v-112h-106v-109z" />
    <glyph glyph-name="bullet" unicode="&#x2022;" horiz-adv-x="362" 
d="M181 454q63 0 105.5 -43.5t42.5 -107.5t-42.5 -107.5t-105.5 -43.5t-106 43.5t-43 107.5t43 107.5t106 43.5z" />
    <glyph glyph-name="ellipsis" unicode="&#x2026;" horiz-adv-x="824" 
d="M44 0v157h182v-157h-182zM321 0v157h182v-157h-182zM598 0v157h182v-157h-182z" />
    <glyph glyph-name="perthousand" unicode="&#x2030;" horiz-adv-x="1214" 
d="M200 348q-81 0 -131.5 49.5t-50.5 126.5q0 75 50.5 125t131.5 50q82 0 132 -49.5t50 -125.5q0 -77 -50 -126.5t-132 -49.5zM127 0l471 690h92l-471 -690h-92zM200 438q29 0 45 23t16 63q0 39 -16 62t-45 23q-30 0 -46 -23t-16 -62q0 -40 16 -63t46 -23zM1013 -14
q-81 0 -131.5 49.5t-50.5 126.5q0 75 50.5 125t131.5 50q83 0 133 -49.5t50 -125.5q0 -78 -50 -127t-133 -49zM614 -14q-82 0 -132.5 49.5t-50.5 126.5q0 75 51 125t132 50q82 0 132 -49.5t50 -125.5q0 -77 -50 -126.5t-132 -49.5zM1013 76q30 0 46 23.5t16 62.5t-16 62
t-46 23q-29 0 -45 -23t-16 -62t16 -62.5t45 -23.5zM614 76q29 0 45 23.5t16 62.5t-16 62t-45 23q-30 0 -46 -23t-16 -62t16.5 -62.5t45.5 -23.5z" />
    <glyph glyph-name="uni2032" unicode="&#x2032;" horiz-adv-x="235" 
d="M209 705l-65 -251h-116l23 251h158z" />
    <glyph glyph-name="uni2033" unicode="&#x2033;" horiz-adv-x="435" 
d="M209 705l-65 -251h-116l23 251h158zM409 705l-65 -251h-116l23 251h158z" />
    <glyph glyph-name="guilsinglleft" unicode="&#x2039;" horiz-adv-x="249" 
d="M115 74l-101 186l106 186h110l-104 -186l98 -186h-109z" />
    <glyph glyph-name="guilsinglright" unicode="&#x203a;" horiz-adv-x="249" 
d="M24 74l98 186l-103 186h109l107 -186l-101 -186h-110z" />
    <glyph glyph-name="fraction" unicode="&#x2044;" horiz-adv-x="156" 
d="M-238 0l535 690h97l-536 -690h-96z" />
    <glyph glyph-name="Euro" unicode="&#x20ac;" horiz-adv-x="569" 
d="M547 176v-138q-74 -50 -167 -50q-124 0 -202.5 63.5t-104.5 182.5h-61v89h50q-1 9 -1 27v21h-49v87h60q25 115 105.5 177t190.5 62q99 0 164 -40v-133l-8 -4q-35 23 -64 32t-71 9q-108 0 -141 -103h174v-87h-189q-1 -8 -1 -25v-23h190v-89h-175q35 -108 147 -108
q43 0 75 13t71 41z" />
    <glyph glyph-name="trademark" unicode="&#x2122;" horiz-adv-x="747" 
d="M288 596h-87v-244h-111v244h-86v92h284v-92zM614 352l-27 147l-64 -148h-44l-63 148l-26 -147h-97l57 337h75l81 -181l75 181h83l57 -337h-107z" />
    <glyph glyph-name="onethird" unicode="&#x2153;" horiz-adv-x="787" 
d="M57 0l535 690h97l-536 -690h-96zM212 305h-123v260l-74 -42l-3 2v103l123 67h77v-390zM610 -7q-79 0 -131 31v88l4 3q49 -30 108 -30q56 0 56 38q0 36 -55 36h-48v74h42q50 0 50 34t-53 34q-50 0 -92 -24l-5 3v85q43 26 122 26q64 0 104.5 -26.5t40.5 -77.5
q0 -65 -70 -84q83 -17 83 -91q0 -57 -39.5 -88t-116.5 -31z" />
    <glyph glyph-name="twothirds" unicode="&#x2154;" horiz-adv-x="837" 
d="M106 0l535 690h97l-536 -690h-96zM660 -7q-79 0 -131 31v88l4 3q49 -30 108 -30q56 0 56 38q0 36 -55 36h-48v74h42q50 0 50 34t-53 34q-50 0 -92 -24l-5 3v85q43 26 122 26q64 0 104.5 -26.5t40.5 -77.5q0 -65 -70 -84q83 -17 83 -91q0 -57 -39.5 -88t-116.5 -31z
M12 305v65l112 113q27 27 37.5 43.5t10.5 35.5q0 39 -57 39q-48 0 -89 -28l-5 3v90q43 30 124 30q147 0 147 -120q0 -40 -17 -70t-55 -66l-48 -48h127v-87h-287z" />
    <glyph glyph-name="oneeighth" unicode="&#x215b;" horiz-adv-x="794" 
d="M62 0l535 690h97l-536 -690h-96zM212 305h-123v260l-74 -42l-3 2v103l123 67h77v-390zM619 -7q-77 0 -119.5 29.5t-42.5 79.5q0 67 69 87q-58 34 -58 93q0 54 41 81.5t106 27.5q67 0 109.5 -26.5t42.5 -78.5q0 -54 -62 -80q37 -18 55 -41t18 -60q0 -54 -41 -83t-118 -29z
M579 285q0 -15 13.5 -26t45.5 -24q23 17 23 43q0 39 -43 39q-39 0 -39 -32zM615 68q23 0 35 10.5t12 26.5q0 17 -14.5 28t-52.5 27q-30 -19 -30 -50q0 -42 50 -42z" />
    <glyph glyph-name="threeeighths" unicode="&#x215c;" horiz-adv-x="832" 
d="M99 0l535 690h97l-536 -690h-96zM657 -7q-77 0 -119.5 29.5t-42.5 79.5q0 67 69 87q-58 34 -58 93q0 54 41 81.5t106 27.5q67 0 109.5 -26.5t42.5 -78.5q0 -54 -62 -80q37 -18 55 -41t18 -60q0 -54 -41 -83t-118 -29zM617 285q0 -15 13.5 -26t45.5 -24q23 17 23 43
q0 39 -43 39q-39 0 -39 -32zM653 68q23 0 35 10.5t12 26.5q0 17 -14.5 28t-52.5 27q-30 -19 -30 -50q0 -42 50 -42zM150 298q-79 0 -131 31v88l4 3q49 -30 108 -30q56 0 56 38q0 36 -55 36h-48v74h42q50 0 50 33q0 35 -53 35q-50 0 -92 -24l-5 3v85q43 26 122 26
q64 0 104.5 -26.5t40.5 -77.5q0 -65 -70 -84q83 -17 83 -91q0 -57 -39.5 -88t-116.5 -31z" />
    <glyph glyph-name="fiveeighths" unicode="&#x215d;" horiz-adv-x="822" 
d="M147 299q-84 0 -129 29v84l6 3q46 -27 95 -27q64 0 64 43q0 23 -17 32.5t-54 9.5q-29 0 -70 -11l-5 3v225h247v-84h-148v-56q7 1 20 1q73 0 110.5 -30.5t37.5 -88.5q0 -62 -40.5 -97.5t-116.5 -35.5zM93 0l535 690h97l-536 -690h-96zM647 -7q-77 0 -119.5 29.5
t-42.5 79.5q0 67 69 87q-58 34 -58 93q0 54 41 81.5t106 27.5q67 0 109.5 -26.5t42.5 -78.5q0 -54 -62 -80q37 -18 55 -41t18 -60q0 -54 -41 -83t-118 -29zM607 285q0 -15 13.5 -26t45.5 -24q23 17 23 43q0 39 -43 39q-39 0 -39 -32zM643 68q23 0 35 10.5t12 26.5
q0 17 -14.5 28t-52.5 27q-30 -19 -30 -50q0 -42 50 -42z" />
    <glyph glyph-name="seveneighths" unicode="&#x215e;" horiz-adv-x="794" 
d="M64 0l535 690h97l-536 -690h-96zM182 306h-128q11 43 29 87.5t30.5 68.5t43.5 83l28 50h-168v95h298v-67l-45 -91q-64 -132 -88 -226zM619 -7q-77 0 -119.5 29.5t-42.5 79.5q0 67 69 87q-58 34 -58 93q0 54 41 81.5t106 27.5q67 0 109.5 -26.5t42.5 -78.5q0 -54 -62 -80
q37 -18 55 -41t18 -60q0 -54 -41 -83t-118 -29zM579 285q0 -15 13.5 -26t45.5 -24q23 17 23 43q0 39 -43 39q-39 0 -39 -32zM615 68q23 0 35 10.5t12 26.5q0 17 -14.5 28t-52.5 27q-30 -19 -30 -50q0 -42 50 -42z" />
    <glyph glyph-name="minus" unicode="&#x2212;" horiz-adv-x="531" 
d="M37 285v122h457v-122h-457z" />
    <glyph glyph-name="uni24C5" unicode="&#x24c5;" horiz-adv-x="783" 
d="M30 352q0 159 103.5 263t257.5 104t258 -104t104 -263q0 -158 -104 -262t-258 -104t-257.5 104t-103.5 262zM685 352q0 132 -83 219t-211 87q-126 0 -210 -87t-84 -219q0 -129 84 -217t210 -88q127 0 210.5 87.5t83.5 217.5zM404 464h-35v-97h35q27 0 39 12t12 38
q0 47 -51 47zM408 287h-39v-126h-117v387h153q161 0 161 -132q0 -65 -41.5 -97t-116.5 -32z" />
    <glyph glyph-name="J.alt" unicode="&#xe489;" horiz-adv-x="446" 
d="M156 -6q-85 0 -139 27v139l4 2q42 -20 88 -20q47 0 69 21.5t22 73.5v468h194v-485q0 -226 -238 -226z" />
    <glyph glyph-name="K.alt" unicode="&#xe48a;" horiz-adv-x="682" 
d="M467 0l-215 344v-344h-193v705h193v-323l204 323h200v-7l-214 -322l233 -369v-7h-208z" />
    <glyph glyph-name="M.alt" unicode="&#xe48c;" horiz-adv-x="896" 
d="M672 0l-44 358l-165 -362h-58l-158 360l-43 -356h-170l86 710h147l181 -417l180 417h143l91 -710h-190z" />
    <glyph glyph-name="Q.alt" unicode="&#xe490;" horiz-adv-x="800" 
d="M398 124q40 0 76 17l-101 124l2 11h192q8 40 8 79q0 101 -48 161t-129 60t-128.5 -60t-47.5 -161q0 -103 47 -167t129 -64zM589 0l-28 34q-67 -48 -174 -48q-159 0 -260.5 105.5t-101.5 263.5q0 159 102.5 261.5t270.5 102.5t270.5 -102.5t102.5 -261.5q0 -132 -74 -231
l89 -113l-2 -11h-195z" />
    <glyph glyph-name="W.alt" unicode="&#xe496;" horiz-adv-x="980" 
d="M636 -6l-148 395l-150 -395h-118l-211 703v8h193l107 -383l142 386h86l146 -388l107 385h181v-8l-212 -703h-123z" />
    <glyph glyph-name="a.alt" unicode="&#xe4c0;" horiz-adv-x="616" 
d="M305 120q55 0 93 32v253q-37 31 -90 31q-54 0 -83.5 -42.5t-29.5 -122.5q0 -76 30 -113.5t80 -37.5zM430 0l-16 66q-57 -79 -163 -79t-168 73t-62 211q0 141 64.5 216.5t170.5 75.5q91 0 148 -64l8 51h158v-550h-140z" />
    <glyph glyph-name="g.alt" unicode="&#xe4c6;" horiz-adv-x="621" 
d="M305 144q62 0 99 42v215q-38 35 -96 35q-53 0 -83 -40t-30 -113q0 -69 30 -104t80 -35zM283 -210q-134 0 -216 42v138l6 2q80 -46 183 -46q80 0 114 24.5t34 76.5v64q-58 -69 -156 -69q-102 0 -164.5 68.5t-62.5 192.5q0 133 65.5 206.5t169.5 73.5q98 0 157 -70l7 57
h156v-526q0 -234 -293 -234z" />
    <glyph glyph-name="k.alt" unicode="&#xe4ca;" horiz-adv-x="565" 
d="M372 0l-154 267v-267h-172v722l172 29v-448l161 247h169v-8l-159 -240l172 -294v-8h-189z" />
    <glyph glyph-name="l.alt" unicode="&#xe4cb;" horiz-adv-x="303" 
d="M199 -8q-75 0 -114 31.5t-39 105.5v593l172 29v-592q0 -40 34 -40q12 0 30 6l6 -4v-114q-41 -15 -89 -15z" />
    <glyph glyph-name="t.alt" unicode="&#xe4d3;" horiz-adv-x="378" 
d="M352 428h-91v-428h-172v428h-67v122h67v88l172 27v-115h91v-122z" />
    <glyph glyph-name="y.alt" unicode="&#xe4d8;" horiz-adv-x="576" 
d="M297 -194h-173v8l82 213l-200 515v8h182l112 -323l111 323h159v-8z" />
    <glyph glyph-name="k.alt1" unicode="&#xe4ea;" horiz-adv-x="586" 
d="M327 427q-45 0 -109 -47v-380h-172v722l172 29v-264q80 76 178 76q69 0 114 -42t45 -109q0 -122 -127 -187l145 -215v-10h-189l-135 209v35q68 29 99.5 60.5t31.5 69.5q0 53 -53 53z" />
    <glyph glyph-name="y.alt1" unicode="&#xe4f8;" horiz-adv-x="603" 
d="M275 -210q-125 0 -207 42v138l6 2q80 -46 174 -46q75 0 106.5 24.5t31.5 76.5v37q-65 -69 -159 -69q-85 0 -135 49t-50 144v362h172v-334q0 -85 80 -85q53 0 92 30v389h172v-526q0 -121 -75 -177.5t-208 -56.5z" />
    <glyph glyph-name="NULL" horiz-adv-x="0" 
 />
    <glyph glyph-name="CR" horiz-adv-x="333" 
 />
    <glyph glyph-name="idotaccent" horiz-adv-x="268" 
d="M48 0v550h172v-550h-172zM48 612v113h171v-113h-171z" />
    <glyph glyph-name="space_uni0326" horiz-adv-x="400" 
d="M117 -241l9 185h144l3 -11l-53 -174h-103z" />
    <glyph glyph-name="zero.num" horiz-adv-x="406" 
d="M203 298q-82 0 -134 53.5t-52 147.5t51.5 145.5t134.5 51.5q84 0 135 -51.5t51 -145.5t-51.5 -147.5t-134.5 -53.5zM203 385q58 0 58 114q0 111 -58 111t-58 -111q0 -114 58 -114z" />
    <glyph glyph-name="one.num" horiz-adv-x="258" 
d="M212 305h-123v260l-74 -42l-3 2v103l123 67h77v-390z" />
    <glyph glyph-name="two.num" horiz-adv-x="326" 
d="M12 305v65l112 113q27 27 37.5 43.5t10.5 35.5q0 39 -57 39q-48 0 -89 -28l-5 3v90q43 30 124 30q147 0 147 -120q0 -40 -17 -70t-55 -66l-48 -48h127v-87h-287z" />
    <glyph glyph-name="three.num" horiz-adv-x="327" 
d="M150 298q-79 0 -131 31v88l4 3q49 -30 108 -30q56 0 56 38q0 36 -55 36h-48v74h42q50 0 50 33q0 35 -53 35q-50 0 -92 -24l-5 3v85q43 26 122 26q64 0 104.5 -26.5t40.5 -77.5q0 -65 -70 -84q83 -17 83 -91q0 -57 -39.5 -88t-116.5 -31z" />
    <glyph glyph-name="four.num" horiz-adv-x="358" 
d="M179 453v94l-70 -94h70zM347 372h-53v-67h-115v67h-174v57l195 264h94v-240h53v-81z" />
    <glyph glyph-name="five.num" horiz-adv-x="321" 
d="M147 299q-84 0 -129 29v84l6 3q46 -27 95 -27q64 0 64 43q0 23 -17 32.5t-54 9.5q-29 0 -70 -11l-5 3v225h247v-84h-148v-56q7 1 20 1q73 0 110.5 -30.5t37.5 -88.5q0 -62 -40.5 -97.5t-116.5 -35.5z" />
    <glyph glyph-name="six.num" horiz-adv-x="359" 
d="M346 433q0 -63 -40.5 -99t-114.5 -36q-80 0 -126.5 47.5t-46.5 138.5q0 106 55 159t143 53q62 0 102 -22v-84l-6 -3q-37 24 -81 24q-42 0 -64.5 -20t-28.5 -68q31 29 86 29q53 0 87.5 -29t34.5 -90zM187 381q43 0 43 53q0 28 -12 40t-37 12q-28 0 -45 -13q2 -50 14.5 -71
t36.5 -21z" />
    <glyph glyph-name="seven.num" horiz-adv-x="329" 
d="M182 306h-128q11 43 29 87.5t30.5 68.5t43.5 83l28 50h-168v95h298v-67l-45 -91q-64 -132 -88 -226z" />
    <glyph glyph-name="eight.num" horiz-adv-x="353" 
d="M178 298q-77 0 -119.5 29.5t-42.5 79.5q0 67 69 87q-58 34 -58 93q0 54 41 81.5t106 27.5q67 0 109.5 -26.5t42.5 -78.5q0 -54 -62 -80q37 -18 55 -41t18 -60q0 -54 -41 -83t-118 -29zM138 590q0 -28 59 -51q23 18 23 44q0 39 -43 39q-39 0 -39 -32zM174 373
q23 0 35 10.5t12 26.5q0 17 -14.5 28t-52.5 27q-30 -19 -30 -50q0 -42 50 -42z" />
    <glyph glyph-name="nine.num" horiz-adv-x="358" 
d="M178 507q25 0 44 12q-2 52 -13.5 73t-35.5 21q-44 0 -44 -53q0 -29 12 -41t37 -12zM139 298q-65 0 -105 22v85l6 1q41 -23 83 -23q46 0 68.5 18.5t28.5 67.5q-28 -28 -85 -28q-54 0 -88 29t-34 91q0 63 41 99t115 36q80 0 125.5 -47t45.5 -139q0 -109 -54 -160.5
t-147 -51.5z" />
    <glyph glyph-name="zero.den" horiz-adv-x="406" 
d="M203 -7q-82 0 -134 53.5t-52 147.5t51.5 145.5t134.5 51.5q84 0 135 -51.5t51 -145.5t-51.5 -147.5t-134.5 -53.5zM203 80q58 0 58 114q0 111 -58 111t-58 -111q0 -114 58 -114z" />
    <glyph glyph-name="one.den" horiz-adv-x="258" 
d="M212 0h-123v260l-74 -42l-3 2v103l123 67h77v-390z" />
    <glyph glyph-name="two.den" horiz-adv-x="326" 
d="M12 0v65l112 113q27 27 37.5 43.5t10.5 35.5q0 39 -57 39q-48 0 -89 -28l-5 3v90q43 30 124 30q147 0 147 -120q0 -40 -17 -70t-55 -66l-48 -48h127v-87h-287z" />
    <glyph glyph-name="three.den" horiz-adv-x="327" 
d="M150 -7q-79 0 -131 31v88l4 3q49 -30 108 -30q56 0 56 38q0 36 -55 36h-48v74h42q50 0 50 34t-53 34q-50 0 -92 -24l-5 3v85q43 26 122 26q64 0 104.5 -26.5t40.5 -77.5q0 -65 -70 -84q83 -17 83 -91q0 -57 -39.5 -88t-116.5 -31z" />
    <glyph glyph-name="four.den" horiz-adv-x="358" 
d="M179 148v94l-70 -94h70zM347 67h-53v-67h-115v67h-174v57l195 264h94v-240h53v-81z" />
    <glyph glyph-name="five.den" horiz-adv-x="321" 
d="M147 -7q-84 0 -129 29v84l6 3q46 -27 95 -27q64 0 64 44q0 41 -71 41q-29 0 -70 -11l-5 4v224h247v-84h-148v-56q7 1 20 1q73 0 110.5 -30.5t37.5 -88.5q0 -62 -40.5 -97.5t-116.5 -35.5z" />
    <glyph glyph-name="six.den" horiz-adv-x="359" 
d="M346 128q0 -63 -40.5 -99t-114.5 -36q-80 0 -126.5 47.5t-46.5 138.5q0 106 55 159t143 53q62 0 102 -22v-84l-6 -3q-37 24 -81 24q-42 0 -64.5 -20t-28.5 -68q31 29 86 29q53 0 87.5 -29t34.5 -90zM187 76q43 0 43 53q0 28 -12 40t-37 12q-28 0 -45 -13q2 -50 14.5 -71
t36.5 -21z" />
    <glyph glyph-name="seven.den" horiz-adv-x="329" 
d="M182 0h-128q11 43 29 87.5t30.5 68.5t43.5 83l28 50h-168v95h298v-67l-45 -91q-64 -132 -88 -226z" />
    <glyph glyph-name="eight.den" horiz-adv-x="353" 
d="M178 -7q-77 0 -119.5 29.5t-42.5 79.5q0 67 69 87q-58 34 -58 93q0 54 41 81.5t106 27.5q67 0 109.5 -26.5t42.5 -78.5q0 -54 -62 -80q37 -18 55 -41t18 -60q0 -54 -41 -83t-118 -29zM138 285q0 -15 13.5 -26t45.5 -24q23 17 23 43q0 39 -43 39q-39 0 -39 -32zM174 68
q23 0 35 10.5t12 26.5q0 17 -14.5 28t-52.5 27q-30 -19 -30 -50q0 -42 50 -42z" />
    <glyph glyph-name="nine.den" horiz-adv-x="358" 
d="M178 202q25 0 44 12q-2 52 -13.5 73t-35.5 21q-44 0 -44 -53q0 -29 12 -41t37 -12zM139 -7q-65 0 -105 22v85l6 1q41 -23 83 -23q46 0 68.5 18.5t28.5 67.5q-28 -28 -85 -28q-54 0 -88 29t-34 91q0 63 41 99t115 36q80 0 125.5 -47t45.5 -139q0 -109 -54 -160.5
t-147 -51.5z" />
    <glyph glyph-name="zero.sub" horiz-adv-x="406" 
d="M203 -106q-82 0 -134 53.5t-52 147.5t51.5 145.5t134.5 51.5q84 0 135 -51.5t51 -145.5t-51.5 -147.5t-134.5 -53.5zM203 -19q58 0 58 114q0 111 -58 111t-58 -111q0 -114 58 -114z" />
    <glyph glyph-name="one.sub" horiz-adv-x="258" 
d="M212 -100h-123v260l-74 -42l-3 2v103l123 67h77v-390z" />
    <glyph glyph-name="two.sub" horiz-adv-x="326" 
d="M12 -99v65l112 113q27 27 37.5 43.5t10.5 35.5q0 39 -57 39q-48 0 -89 -28l-5 3v90q43 30 124 30q147 0 147 -120q0 -40 -17 -70t-55 -66l-48 -48h127v-87h-287z" />
    <glyph glyph-name="three.sub" horiz-adv-x="327" 
d="M150 -106q-79 0 -131 31v88l4 3q49 -30 108 -30q56 0 56 38q0 36 -55 36h-48v74h42q50 0 50 33q0 35 -53 35q-50 0 -92 -24l-5 3v85q43 26 122 26q64 0 104.5 -26.5t40.5 -77.5q0 -65 -70 -84q83 -17 83 -91q0 -57 -39.5 -88t-116.5 -31z" />
    <glyph glyph-name="four.sub" horiz-adv-x="358" 
d="M179 48v94l-70 -94h70zM347 -33h-53v-67h-115v67h-174v57l195 264h94v-240h53v-81z" />
    <glyph glyph-name="five.sub" horiz-adv-x="321" 
d="M147 -106q-84 0 -129 29v84l6 3q46 -27 95 -27q64 0 64 43q0 23 -17 32.5t-54 9.5q-29 0 -70 -11l-5 3v225h247v-84h-148v-56q7 1 20 1q73 0 110.5 -30.5t37.5 -88.5q0 -62 -40.5 -97.5t-116.5 -35.5z" />
    <glyph glyph-name="six.sub" horiz-adv-x="359" 
d="M346 29q0 -63 -40.5 -99t-114.5 -36q-80 0 -126.5 47.5t-46.5 138.5q0 106 55 159t143 53q62 0 102 -22v-84l-6 -3q-37 24 -81 24q-42 0 -64.5 -20t-28.5 -67q34 28 86 28q53 0 87.5 -29t34.5 -90zM187 -23q43 0 43 53q0 28 -12 40t-37 12q-28 0 -45 -13q2 -50 14.5 -71
t36.5 -21z" />
    <glyph glyph-name="seven.sub" horiz-adv-x="329" 
d="M182 -99h-128q11 43 29 87.5t30.5 68.5t43.5 83l28 50h-168v95h298v-67l-45 -91q-64 -132 -88 -226z" />
    <glyph glyph-name="eight.sub" horiz-adv-x="353" 
d="M178 -106q-77 0 -119.5 29.5t-42.5 79.5q0 67 69 87q-58 34 -58 93q0 54 41 81.5t106 27.5q67 0 109.5 -26.5t42.5 -78.5q0 -54 -62 -80q37 -18 55 -41t18 -60q0 -54 -41 -83t-118 -29zM138 186q0 -28 59 -51q23 18 23 44q0 39 -43 39q-39 0 -39 -32zM174 -31
q23 0 35 10.5t12 26.5q0 17 -14.5 28t-52.5 27q-30 -21 -30 -50q0 -42 50 -42z" />
    <glyph glyph-name="nine.sub" horiz-adv-x="358" 
d="M178 103q25 0 44 12q-2 52 -13.5 73t-35.5 21q-44 0 -44 -53q0 -29 12 -41t37 -12zM139 -106q-65 0 -105 22v85l6 1q41 -23 83 -23q46 0 68.5 18.5t28.5 67.5q-28 -28 -85 -28q-54 0 -88 29t-34 91q0 63 41 99t115 36q80 0 125.5 -47t45.5 -139q0 -109 -54 -160.5
t-147 -51.5z" />
    <glyph glyph-name="plus.sub" horiz-adv-x="338" 
d="M126 -56v106h-100v85h100v106h86v-106h100v-85h-100v-106h-86z" />
    <glyph glyph-name="minus.sub" horiz-adv-x="338" 
d="M26 50v85h286v-85h-286z" />
    <glyph glyph-name="zero.sup" horiz-adv-x="406" 
d="M203 357q-82 0 -134 53.5t-52 147.5t51.5 145.5t134.5 51.5q84 0 135 -51.5t51 -145.5t-51.5 -147.5t-134.5 -53.5zM203 444q58 0 58 114q0 111 -58 111t-58 -111q0 -114 58 -114z" />
    <glyph glyph-name="one.sup" horiz-adv-x="258" 
d="M212 363h-123v260l-74 -42l-3 2v103l123 67h77v-390z" />
    <glyph glyph-name="two.sup" horiz-adv-x="326" 
d="M12 364v65l112 113q27 27 37.5 43.5t10.5 35.5q0 39 -57 39q-48 0 -89 -28l-5 3v90q43 30 124 30q147 0 147 -120q0 -40 -17 -70t-55 -66l-48 -48h127v-87h-287z" />
    <glyph glyph-name="three.sup" horiz-adv-x="327" 
d="M150 357q-79 0 -131 31v88l4 3q49 -30 108 -30q56 0 56 38q0 36 -55 36h-48v74h42q50 0 50 33q0 35 -53 35q-50 0 -92 -24l-5 3v85q43 26 122 26q64 0 104.5 -26.5t40.5 -77.5q0 -65 -70 -84q83 -17 83 -91q0 -57 -39.5 -88t-116.5 -31z" />
    <glyph glyph-name="four.sup" horiz-adv-x="358" 
d="M179 511v94l-70 -94h70zM347 430h-53v-67h-115v67h-174v57l195 263h94v-239h53v-81z" />
    <glyph glyph-name="five.sup" horiz-adv-x="321" 
d="M147 357q-84 0 -129 29v84l6 3q46 -27 95 -27q64 0 64 43q0 23 -17 32.5t-54 9.5q-29 0 -70 -11l-5 3v225h247v-84h-148v-56q7 1 20 1q73 0 110.5 -30.5t37.5 -88.5q0 -62 -40.5 -97.5t-116.5 -35.5z" />
    <glyph glyph-name="six.sup" horiz-adv-x="359" 
d="M346 492q0 -63 -40.5 -99t-114.5 -36q-80 0 -126.5 47.5t-46.5 138.5q0 106 55 159t143 53q62 0 102 -22v-84l-6 -3q-37 24 -81 24q-42 0 -64.5 -20t-28.5 -67q34 28 86 28q53 0 87.5 -29t34.5 -90zM187 440q43 0 43 53q0 28 -12 40t-37 12q-28 0 -45 -13q2 -50 14.5 -71
t36.5 -21z" />
    <glyph glyph-name="seven.sup" horiz-adv-x="329" 
d="M182 364h-128q11 43 29 87.5t30.5 68.5t43.5 83l28 50h-168v95h298v-67l-45 -91q-64 -132 -88 -226z" />
    <glyph glyph-name="eight.sup" horiz-adv-x="353" 
d="M178 357q-77 0 -119.5 29.5t-42.5 79.5q0 67 69 87q-58 34 -58 93q0 54 41 81.5t106 27.5q67 0 109.5 -26.5t42.5 -78.5q0 -54 -62 -80q37 -18 55 -41t18 -60q0 -54 -41 -83t-118 -29zM138 649q0 -28 59 -51q23 18 23 44q0 39 -43 39q-39 0 -39 -32zM174 432
q23 0 35 10.5t12 26.5q0 17 -14.5 28t-52.5 27q-30 -21 -30 -50q0 -42 50 -42z" />
    <glyph glyph-name="nine.sup" horiz-adv-x="358" 
d="M178 566q25 0 44 12q-2 52 -13.5 73t-35.5 21q-44 0 -44 -53q0 -29 12 -41t37 -12zM139 357q-65 0 -105 22v85l6 1q41 -23 83 -23q46 0 68.5 18.5t28.5 67.5q-28 -28 -85 -28q-54 0 -88 29t-34 91q0 63 41 99t115 36q80 0 125.5 -47t45.5 -139q0 -109 -54 -160.5
t-147 -51.5z" />
    <glyph glyph-name="plus.sup" horiz-adv-x="338" 
d="M126 407v106h-100v85h100v106h86v-106h100v-85h-100v-106h-86z" />
    <glyph glyph-name="minus.sup" horiz-adv-x="338" 
d="M26 513v85h286v-85h-286z" />
    <glyph glyph-name="IJ.alt" horiz-adv-x="755" 
d="M61 0v705h193v-705h-193zM466 -6q-85 0 -139 27v139l4 2q42 -20 88 -20q47 0 69 21.5t22 73.5v468h194v-485q0 -226 -238 -226z" />
    <glyph glyph-name="Jcircumflex.alt" horiz-adv-x="446" 
d="M299 823l-61 -66h-132l128 160h130l128 -160h-132zM156 -6q-85 0 -139 27v139l4 2q42 -20 88 -20q47 0 69 21.5t22 73.5v468h194v-485q0 -226 -238 -226z" />
    <glyph glyph-name="Kcommaaccent.alt" horiz-adv-x="680" 
d="M268 -241l9 185h144l3 -11l-53 -174h-103zM467 0l-215 344v-344h-193v705h193v-323l204 323h200v-7l-214 -322l233 -369v-7h-208z" />
    <glyph glyph-name="Wacute.alt" horiz-adv-x="980" 
d="M551 757h-131l80 155h169zM636 -6l-148 395l-150 -395h-118l-211 703v8h193l107 -383l142 386h86l146 -388l107 385h181v-8l-212 -703h-123z" />
    <glyph glyph-name="Wcircumflex.alt" horiz-adv-x="980" 
d="M489 823l-61 -66h-132l128 160h130l128 -160h-132zM636 -6l-148 395l-150 -395h-118l-211 703v8h193l107 -383l142 386h86l146 -388l107 385h181v-8l-212 -703h-123z" />
    <glyph glyph-name="Wdieresis.alt" horiz-adv-x="980" 
d="M526 744v133h155v-133h-155zM299 744v133h155v-133h-155zM636 -6l-148 395l-150 -395h-118l-211 703v8h193l107 -383l142 386h86l146 -388l107 385h181v-8l-212 -703h-123z" />
    <glyph glyph-name="Wgrave.alt" horiz-adv-x="980" 
d="M432 757l-117 155h168l80 -155h-131zM636 -6l-148 395l-150 -395h-118l-211 703v8h193l107 -383l142 386h86l146 -388l107 385h181v-8l-212 -703h-123z" />
    <glyph glyph-name="aacute.alt" horiz-adv-x="616" 
d="M472 742l-93 -130h-116l71 130h138zM305 120q55 0 93 32v253q-37 31 -90 31q-54 0 -83.5 -42.5t-29.5 -122.5q0 -76 30 -113.5t80 -37.5zM430 0l-16 66q-57 -79 -163 -79t-168 73t-62 211q0 141 64.5 216.5t170.5 75.5q91 0 148 -64l8 51h158v-550h-140z" />
    <glyph glyph-name="abreve.alt" horiz-adv-x="616" 
d="M305 120q55 0 93 32v253q-37 31 -90 31q-54 0 -83.5 -42.5t-29.5 -122.5q0 -76 30 -113.5t80 -37.5zM430 0l-16 66q-57 -79 -163 -79t-168 73t-62 211q0 141 64.5 216.5t170.5 75.5q91 0 148 -64l8 51h158v-550h-140zM334 605q-74 0 -109 31t-39 92h101q1 -43 46 -43
q46 0 47 43h101q-4 -61 -38.5 -92t-108.5 -31z" />
    <glyph glyph-name="acircumflex.alt" horiz-adv-x="616" 
d="M324 654l-47 -52h-114l101 130h122l101 -130h-114zM305 120q55 0 93 32v253q-37 31 -90 31q-54 0 -83.5 -42.5t-29.5 -122.5q0 -76 30 -113.5t80 -37.5zM430 0l-16 66q-57 -79 -163 -79t-168 73t-62 211q0 141 64.5 216.5t170.5 75.5q91 0 148 -64l8 51h158v-550h-140z
" />
    <glyph glyph-name="adieresis.alt" horiz-adv-x="616" 
d="M132 611v136h148v-136h-148zM340 611v136h148v-136h-148zM305 120q55 0 93 32v253q-37 31 -90 31q-54 0 -83.5 -42.5t-29.5 -122.5q0 -76 30 -113.5t80 -37.5zM430 0l-16 66q-57 -79 -163 -79t-168 73t-62 211q0 141 64.5 216.5t170.5 75.5q91 0 148 -64l8 51h158v-550
h-140z" />
    <glyph glyph-name="agrave.alt" horiz-adv-x="616" 
d="M283 612l-93 130h138l71 -130h-116zM305 120q55 0 93 32v253q-37 31 -90 31q-54 0 -83.5 -42.5t-29.5 -122.5q0 -76 30 -113.5t80 -37.5zM430 0l-16 66q-57 -79 -163 -79t-168 73t-62 211q0 141 64.5 216.5t170.5 75.5q91 0 148 -64l8 51h158v-550h-140z" />
    <glyph glyph-name="amacron.alt" horiz-adv-x="616" 
d="M305 120q55 0 93 32v253q-37 31 -90 31q-54 0 -83.5 -42.5t-29.5 -122.5q0 -76 30 -113.5t80 -37.5zM430 0l-16 66q-57 -79 -163 -79t-168 73t-62 211q0 141 64.5 216.5t170.5 75.5q91 0 148 -64l8 51h158v-550h-140zM143 623v107h330v-107h-330z" />
    <glyph glyph-name="aogonek.alt" horiz-adv-x="616" 
d="M305 120q55 0 93 32v253q-37 31 -90 31q-54 0 -83.5 -42.5t-29.5 -122.5q0 -76 30 -113.5t80 -37.5zM577 -115v-85q-40 -17 -90 -17q-130 0 -130 95q0 69 99 122h-31l-13 64q-58 -77 -161 -77q-106 0 -168 73t-62 211q0 141 64.5 216.5t170.5 75.5q91 0 148 -64l8 51h158
v-550q-78 -49 -78 -85q0 -35 42 -35q19 0 37 8z" />
    <glyph glyph-name="aring.alt" horiz-adv-x="616" 
d="M308 585q-54 0 -86.5 32t-32.5 83t32.5 83t86.5 32t86.5 -32t32.5 -83t-32.5 -83t-86.5 -32zM308 745q-20 0 -31.5 -12.5t-11.5 -32.5t11.5 -32t31.5 -12t31.5 12t11.5 32t-11.5 32.5t-31.5 12.5zM305 120q55 0 93 32v253q-37 31 -90 31q-54 0 -83.5 -42.5t-29.5 -122.5
q0 -76 30 -113.5t80 -37.5zM430 0l-16 66q-57 -79 -163 -79t-168 73t-62 211q0 141 64.5 216.5t170.5 75.5q91 0 148 -64l8 51h158v-550h-140z" />
    <glyph glyph-name="aringacute.alt" horiz-adv-x="616" 
d="M308 585q-54 0 -86.5 32t-32.5 83t32.5 83t86.5 32t86.5 -32t32.5 -83t-32.5 -83t-86.5 -32zM308 745q-20 0 -31.5 -12.5t-11.5 -32.5t11.5 -32t31.5 -12t31.5 12t11.5 32t-11.5 32.5t-31.5 12.5zM305 120q55 0 93 32v253q-37 31 -90 31q-54 0 -83.5 -42.5t-29.5 -122.5
q0 -76 30 -113.5t80 -37.5zM430 0l-16 66q-57 -79 -163 -79t-168 73t-62 211q0 141 64.5 216.5t170.5 75.5q91 0 148 -64l8 51h158v-550h-140zM369 844h-131l80 155h169z" />
    <glyph glyph-name="atilde.alt" horiz-adv-x="616" 
d="M390 700q32 0 64 36l6 -3v-85q-31 -41 -77 -41q-31 0 -64.5 15t-48.5 15q-35 0 -69 -35l-6 3v85q26 41 79 41q28 0 63.5 -15.5t52.5 -15.5zM305 120q55 0 93 32v253q-37 31 -90 31q-54 0 -83.5 -42.5t-29.5 -122.5q0 -76 30 -113.5t80 -37.5zM430 0l-16 66
q-57 -79 -163 -79t-168 73t-62 211q0 141 64.5 216.5t170.5 75.5q91 0 148 -64l8 51h158v-550h-140z" />
    <glyph glyph-name="gbreve.alt" horiz-adv-x="621" 
d="M305 144q62 0 99 42v215q-38 35 -96 35q-53 0 -83 -40t-30 -113q0 -69 30 -104t80 -35zM283 -210q-134 0 -216 42v138l6 2q80 -46 183 -46q80 0 114 24.5t34 76.5v64q-58 -69 -156 -69q-102 0 -164.5 68.5t-62.5 192.5q0 133 65.5 206.5t169.5 73.5q98 0 157 -70l7 57
h156v-526q0 -234 -293 -234zM308 597q-72 0 -118 42.5t-53 116.5h108q11 -57 63 -57q51 0 63 57h108q-8 -75 -53.5 -117t-117.5 -42z" />
    <glyph glyph-name="gcircumflex.alt" horiz-adv-x="621" 
d="M308 665l-58 -68h-130l128 166h120l128 -166h-130zM305 144q62 0 99 42v215q-38 35 -96 35q-53 0 -83 -40t-30 -113q0 -69 30 -104t80 -35zM283 -210q-134 0 -216 42v138l6 2q80 -46 183 -46q80 0 114 24.5t34 76.5v64q-58 -69 -156 -69q-102 0 -164.5 68.5t-62.5 192.5
q0 133 65.5 206.5t169.5 73.5q98 0 157 -70l7 57h156v-526q0 -234 -293 -234z" />
    <glyph glyph-name="gcommaaccent.alt" horiz-adv-x="621" 
d="M382 782l-9 -185h-143l-5 8l55 177h102zM305 144q62 0 99 42v215q-38 35 -96 35q-53 0 -83 -40t-30 -113q0 -69 30 -104t80 -35zM283 -210q-134 0 -216 42v138l6 2q80 -46 183 -46q80 0 114 24.5t34 76.5v64q-58 -69 -156 -69q-102 0 -164.5 68.5t-62.5 192.5
q0 133 65.5 206.5t169.5 73.5q98 0 157 -70l7 57h156v-526q0 -234 -293 -234z" />
    <glyph glyph-name="gdotaccent.alt" horiz-adv-x="621" 
d="M305 144q62 0 99 42v215q-38 35 -96 35q-53 0 -83 -40t-30 -113q0 -69 30 -104t80 -35zM283 -210q-134 0 -216 42v138l6 2q80 -46 183 -46q80 0 114 24.5t34 76.5v64q-58 -69 -156 -69q-102 0 -164.5 68.5t-62.5 192.5q0 133 65.5 206.5t169.5 73.5q98 0 157 -70l7 57
h156v-526q0 -234 -293 -234zM226 611v135h164v-135h-164z" />
    <glyph glyph-name="germandbls.alt" horiz-adv-x="632" 
d="M258 8v125l5 3q34 -18 82 -18q37 0 64 26.5t27 75.5q0 54 -37 85t-113 49v99q101 22 101 104q0 35 -22 55t-58 20q-86 0 -86 -105v-527h-175v508q0 128 71.5 187.5t193.5 59.5q114 0 181.5 -49.5t67.5 -131.5q0 -115 -123 -151q177 -53 177 -224q0 -97 -59 -155t-161 -58
q-76 0 -136 22z" />
    <glyph glyph-name="kcommaaccent.alt" horiz-adv-x="565" 
d="M213 -241l9 185h144l3 -11l-53 -174h-103zM372 0l-154 267v-267h-172v722l172 29v-448l161 247h169v-8l-159 -240l172 -294v-8h-189z" />
    <glyph glyph-name="kcommaaccent.alt1" horiz-adv-x="581" 
d="M213 -241l9 185h144l3 -11l-53 -174h-103zM327 427q-45 0 -109 -47v-380h-172v722l172 29v-264q80 76 178 76q69 0 114 -42t45 -109q0 -122 -127 -187l145 -215v-10h-189l-135 209v35q68 29 99.5 60.5t31.5 69.5q0 53 -53 53z" />
    <glyph glyph-name="lacute.alt" horiz-adv-x="303" 
d="M199 -8q-75 0 -114 31.5t-39 105.5v593l172 29v-592q0 -40 34 -40q12 0 30 6l6 -4v-114q-41 -15 -89 -15zM193 786h-131l80 155h169z" />
    <glyph glyph-name="lcaron.alt" horiz-adv-x="303" 
d="M199 -8q-75 0 -114 31.5t-39 105.5v593l172 29v-592q0 -40 34 -40q12 0 30 6l6 -4v-114q-41 -15 -89 -15zM259 581l7 162h119v-33l-30 -129h-96z" />
    <glyph glyph-name="lcommaaccent.alt" horiz-adv-x="303" 
d="M88 -241l9 185h144l3 -11l-53 -174h-103zM199 -8q-75 0 -114 31.5t-39 105.5v593l172 29v-592q0 -40 34 -40q12 0 30 6l6 -4v-114q-41 -15 -89 -15z" />
    <glyph glyph-name="ldot.alt" horiz-adv-x="407" 
d="M199 -8q-75 0 -114 31.5t-39 105.5v593l172 29v-592q0 -40 34 -40q12 0 30 6l6 -4v-114q-41 -15 -89 -15zM261 308v147h162v-147h-162z" />
    <glyph glyph-name="lslash.alt" horiz-adv-x="319" 
d="M212 -8q-75 0 -114 31.5t-39 105.5v194l-50 -22v120l50 22v279l172 29v-232l71 32v-120l-71 -32v-240q0 -40 34 -40q12 0 30 6l6 -4v-114q-41 -15 -89 -15z" />
    <glyph glyph-name="tbar.alt" horiz-adv-x="378" 
d="M352 263h-91v-263h-172v263h-67v89h67v76h-67v122h67v88l172 27v-115h91v-122h-91v-76h91v-89z" />
    <glyph glyph-name="tcaron.alt" horiz-adv-x="378" 
d="M289 581l7 162h119v-33l-30 -129h-96zM352 428h-91v-428h-172v428h-67v122h67v88l172 27v-115h91v-122z" />
    <glyph glyph-name="tcommaaccent.alt" horiz-adv-x="387" 
d="M98 -241l9 185h144l3 -11l-53 -174h-103zM352 428h-91v-428h-172v428h-67v122h67v88l172 27v-115h91v-122z" />
    <glyph glyph-name="yacute.alt" horiz-adv-x="576" 
d="M441 742l-93 -130h-116l71 130h138zM297 -194h-173v8l82 213l-200 515v8h182l112 -323l111 323h159v-8z" />
    <glyph glyph-name="yacute.alt1" horiz-adv-x="603" 
d="M450 742l-93 -130h-116l71 130h138zM275 -210q-125 0 -207 42v138l6 2q80 -46 174 -46q75 0 106.5 24.5t31.5 76.5v37q-65 -69 -159 -69q-85 0 -135 49t-50 144v362h172v-334q0 -85 80 -85q53 0 92 30v389h172v-526q0 -121 -75 -177.5t-208 -56.5z" />
    <glyph glyph-name="ycircumflex.alt" horiz-adv-x="576" 
d="M300 665l-58 -68h-130l128 166h120l128 -166h-130zM297 -194h-173v8l82 213l-200 515v8h182l112 -323l111 323h159v-8z" />
    <glyph glyph-name="ycircumflex.alt1" horiz-adv-x="603" 
d="M302 665l-58 -68h-130l128 166h120l128 -166h-130zM275 -210q-125 0 -207 42v138l6 2q80 -46 174 -46q75 0 106.5 24.5t31.5 76.5v37q-65 -69 -159 -69q-85 0 -135 49t-50 144v362h172v-334q0 -85 80 -85q53 0 92 30v389h172v-526q0 -121 -75 -177.5t-208 -56.5z" />
    <glyph glyph-name="ydieresis.alt" horiz-adv-x="576" 
d="M124 611v136h148v-136h-148zM332 611v136h148v-136h-148zM297 -194h-173v8l82 213l-200 515v8h182l112 -323l111 323h159v-8z" />
    <glyph glyph-name="ydieresis.alt1" horiz-adv-x="603" 
d="M126 611v136h148v-136h-148zM334 611v136h148v-136h-148zM275 -210q-125 0 -207 42v138l6 2q80 -46 174 -46q75 0 106.5 24.5t31.5 76.5v37q-65 -69 -159 -69q-85 0 -135 49t-50 144v362h172v-334q0 -85 80 -85q53 0 92 30v389h172v-526q0 -121 -75 -177.5t-208 -56.5z
" />
    <glyph glyph-name="ygrave.alt" horiz-adv-x="576" 
d="M245 612l-93 130h138l71 -130h-116zM297 -194h-173v8l82 213l-200 515v8h182l112 -323l111 323h159v-8z" />
    <glyph glyph-name="ygrave.alt1" horiz-adv-x="603" 
d="M247 612l-93 130h138l71 -130h-116zM275 -210q-125 0 -207 42v138l6 2q80 -46 174 -46q75 0 106.5 24.5t31.5 76.5v37q-65 -69 -159 -69q-85 0 -135 49t-50 144v362h172v-334q0 -85 80 -85q53 0 92 30v389h172v-526q0 -121 -75 -177.5t-208 -56.5z" />
    <glyph glyph-name="space_uni0326.alt" horiz-adv-x="400" 
d="M272 782l-9 -185h-143l-5 8l55 177h102z" />
    <glyph glyph-name="ordfeminine.alt" horiz-adv-x="518" 
d="M255 341q44 0 73 23v206q-30 25 -71 25q-42 0 -65.5 -35t-23.5 -100q0 -60 23.5 -89.5t63.5 -29.5zM354 243l-12 49q-47 -59 -131 -59q-87 0 -138 57.5t-51 169.5q0 114 53.5 176t139.5 62q74 0 119 -50l6 40h132v-445h-118z" />
    <glyph glyph-name="asterisk.alt" horiz-adv-x="399" 
d="M261 361l-61 125l-62 -125l-97 72l84 88l-118 22l39 117l109 -62l-20 131h129l-20 -131l109 62l38 -117l-117 -22l84 -88z" />
    <glyph glyph-name="registered.alt" horiz-adv-x="783" 
d="M30 352q0 159 103.5 263t257.5 104t258 -104t104 -263q0 -158 -104 -262t-258 -104t-257.5 104t-103.5 262zM685 352q0 132 -83 219t-211 87q-126 0 -210 -87t-84 -219q0 -129 84 -217t210 -88q127 0 210.5 87.5t83.5 217.5zM392 467h-36v-93h36q53 0 53 47q0 46 -53 46z
M456 161l-66 135h-34v-135h-117v387h162q155 0 155 -123q0 -74 -59 -103l77 -155v-6h-118z" />
    <glyph glyph-name="caron.alt" horiz-adv-x="402" 
d="M148 581l7 162h119v-33l-30 -129h-96z" />
    <glyph glyph-name="dollar.uc" horiz-adv-x="568" 
d="M191 524q0 -25 15 -41.5t50 -30.5l32 136q-97 -1 -97 -64zM360 196q0 25 -14.5 40t-48.5 27l-34 -142q97 6 97 75zM256 -10h-24l-28 -119h-95l31 130q-65 12 -113 39v148l6 2q74 -46 137 -60l38 160q-94 30 -138 79t-44 128q0 105 71 163t196 58h26l21 87h96l-23 -98
q48 -10 85 -28v-141l-7 -1q-51 29 -109 42l-36 -155q109 -35 152 -78.5t43 -129.5q0 -112 -73 -169t-212 -57z" />
    <glyph glyph-name="Euro.uc" horiz-adv-x="608" 
d="M586 178v-138q-78 -52 -179 -52q-133 0 -216.5 66.5t-110.5 188.5h-67v89h56q-1 9 -1 29v23h-55v87h67q27 120 112 184t203 64q105 0 175 -41v-133l-8 -5q-43 24 -71.5 33.5t-73.5 9.5q-121 0 -157 -112h192v-87h-207q-1 -9 -1 -27q0 -17 1 -25h207v-89h-193
q37 -117 163 -117q78 0 157 56z" />
    <glyph glyph-name="sterling.uc" horiz-adv-x="603" 
d="M574 130v-130h-560v83q29 21 47.5 41.5t29.5 47t15 43t10 52.5l2 16h-66v111h83l18 118q31 207 241 207q97 0 172 -34v-126l-10 -5q-60 31 -112 31q-46 0 -73 -21t-36 -74l-17 -96h163v-111h-182l-2 -10q-8 -41 -13.5 -59.5t-20 -41t-40.5 -42.5h351z" />
    <glyph glyph-name="yen.uc" horiz-adv-x="642" 
d="M585 139h-162v-139h-200v139h-163v87h163v51h-163v87h143l-192 333v8h202l120 -239l119 239h179v-8l-192 -333h146v-87h-162v-51h162v-87z" />
    <glyph glyph-name="zero.uc" horiz-adv-x="694" 
d="M347 -12q-144 0 -232 98t-90 270q0 172 88 268t234 96t234 -96t88 -268t-88 -270t-234 -98zM347 122q128 0 128 234q0 230 -128 230t-128 -230q0 -114 32.5 -174t95.5 -60z" />
    <glyph glyph-name="one.uc" horiz-adv-x="407" 
d="M336 0h-186v512l-125 -73l-7 3v151l208 119h110v-712z" />
    <glyph glyph-name="two.uc" horiz-adv-x="548" 
d="M17 0v87l217 230q89 92 89 173q0 41 -28 65.5t-85 24.5q-82 0 -166 -50l-8 4v134q84 51 214 51q124 0 192 -55.5t68 -159.5q0 -68 -34 -124.5t-104 -131.5l-114 -118h266v-130h-507z" />
    <glyph glyph-name="three.uc" horiz-adv-x="554" 
d="M257 -12q-139 0 -234 55v133l8 5q46 -29 90 -42.5t106 -13.5q116 0 116 90q0 87 -117 87h-81v122h69q110 0 110 80q0 42 -26 61.5t-85 19.5q-52 0 -85.5 -10t-78.5 -35l-9 4v128q79 47 215 47q111 0 181 -48.5t70 -140.5q0 -116 -120 -156q143 -35 143 -173
q0 -101 -69.5 -157t-202.5 -56z" />
    <glyph glyph-name="four.uc" horiz-adv-x="624" 
d="M333 254v195l-143 -195h143zM615 128h-102v-128h-180v128h-326v81l366 502h140v-457h102v-126z" />
    <glyph glyph-name="five.uc" horiz-adv-x="549" 
d="M240 -12q-142 0 -223 50v130l8 5q87 -52 178 -52q67 0 100.5 27t33.5 75q0 50 -35 72t-111 22q-78 0 -132 -22l-8 5v405h443v-130h-290v-134q24 3 52 3q131 0 199.5 -56t68.5 -163q0 -109 -74 -173t-210 -64z" />
    <glyph glyph-name="six.uc" horiz-adv-x="621" 
d="M603 228q0 -108 -71 -174t-202 -66q-143 0 -223.5 87t-80.5 247q0 196 95 296.5t253 100.5q117 0 182 -33v-139l-9 -3q-71 41 -151 41t-124.5 -43t-56.5 -139q61 47 162 47q98 0 162 -56.5t64 -165.5zM314 334q-57 0 -103 -34q4 -97 32 -141.5t81 -42.5q96 4 96 114
q0 104 -106 104z" />
    <glyph glyph-name="seven.uc" horiz-adv-x="549" 
d="M278 0h-187q40 179 186 447l63 117h-322v141h517v-100l-96 -180q-123 -227 -161 -425z" />
    <glyph glyph-name="eight.uc" horiz-adv-x="609" 
d="M307 -12q-136 0 -211 52t-75 143q0 57 36.5 99.5t98.5 63.5q-116 59 -116 172q0 92 74.5 146.5t186.5 54.5q120 0 194 -46t74 -143q0 -100 -117 -150q69 -31 102.5 -74t33.5 -109q0 -98 -72.5 -153.5t-208.5 -55.5zM338 423l2 -1q65 41 65 95q0 41 -27 63.5t-71 22.5
q-42 0 -66.5 -21.5t-24.5 -55.5q0 -32 28 -56t94 -47zM303 106q51 0 78 23t27 61q0 36 -31.5 62t-103.5 51q-82 -42 -82 -105q0 -45 29.5 -68.5t82.5 -23.5z" />
    <glyph glyph-name="nine.uc" horiz-adv-x="619" 
d="M305 375q58 0 103 36q-3 97 -29 138.5t-80 41.5q-100 0 -100 -111q0 -105 106 -105zM233 -12q-116 0 -183 34v138l9 3q70 -41 153 -41q91 0 137 42t56 142q-54 -47 -162 -47q-99 0 -162 55.5t-63 165.5q0 106 73.5 172.5t203.5 66.5q142 0 220 -85.5t78 -248.5
q0 -397 -360 -397z" />
    <glyph glyph-name="percent.uc" horiz-adv-x="856" 
d="M18 540q0 76 53.5 127.5t138.5 51.5q86 0 139 -51t53 -128q0 -79 -52.5 -129.5t-139.5 -50.5q-86 0 -139 50.5t-53 129.5zM134 0l496 705h94l-495 -705h-95zM210 450q32 0 49.5 25t17.5 65t-17.5 64.5t-49.5 24.5t-50 -24t-18 -65q0 -40 18 -65t50 -25zM646 345
q86 0 139 -51t53 -128q0 -79 -52.5 -129.5t-139.5 -50.5q-86 0 -139 50.5t-53 129.5q0 76 53.5 127.5t138.5 51.5zM646 76q31 0 49 25t18 65t-17.5 64.5t-49.5 24.5t-50 -24t-18 -65q0 -40 18 -65t50 -25z" />
    <glyph glyph-name="perthousand.uc" horiz-adv-x="1270" 
d="M210 360q-86 0 -139 50.5t-53 129.5q0 76 53.5 127.5t138.5 51.5q86 0 139 -51t53 -128q0 -79 -52.5 -129.5t-139.5 -50.5zM130 0l496 705h94l-495 -705h-95zM210 450q32 0 49.5 25t17.5 65t-17.5 64.5t-49.5 24.5t-50 -24t-18 -65q0 -40 18 -65t50 -25zM1059 -14
q-86 0 -139 50.5t-53 129.5q0 76 53.5 127.5t138.5 51.5q86 0 139 -51t53 -128q0 -79 -52.5 -129.5t-139.5 -50.5zM642 -14q-86 0 -139.5 50.5t-53.5 129.5q0 76 53.5 127.5t139.5 51.5q85 0 138.5 -51.5t53.5 -127.5q0 -79 -53 -129.5t-139 -50.5zM1059 76q31 0 49 25
t18 65t-17.5 64.5t-49.5 24.5t-50 -24t-18 -65q0 -40 18 -65t50 -25zM642 76q31 0 49 25t18 65t-17.5 64.5t-49.5 24.5t-50 -24t-18 -65q0 -40 18 -65t50 -25z" />
    <glyph glyph-name="questiondown.uc" horiz-adv-x="475" 
d="M369 705v-157h-183v157h183zM446 174v-142q-74 -46 -188 -46q-105 0 -166.5 48.5t-61.5 139.5q0 62 26.5 106t84.5 87q31 24 43.5 42t12.5 46v17h159v-23q0 -58 -20 -92t-68 -74q-32 -25 -45 -44.5t-13 -47.5q0 -61 78 -61q77 0 151 48z" />
    <glyph glyph-name="exclamdown.uc" horiz-adv-x="280" 
d="M232 705v-157h-182v157h182zM209 472l25 -472h-188l26 472h137z" />
    <glyph glyph-name="hyphen.uc" horiz-adv-x="342" 
d="M33 270v136h276v-136h-276z" />
    <glyph glyph-name="endash.uc" horiz-adv-x="527" 
d="M30 285v115h467v-115h-467z" />
    <glyph glyph-name="emdash.uc" horiz-adv-x="969" 
d="M30 285v115h909v-115h-909z" />
    <glyph glyph-name="guilsinglleft.uc" horiz-adv-x="258" 
d="M121 94l-107 196l112 196h113l-109 -196l104 -196h-113z" />
    <glyph glyph-name="guilsinglright.uc" horiz-adv-x="258" 
d="M24 94l104 196l-109 196h113l112 -196l-107 -196h-113z" />
    <glyph glyph-name="guillemotleft.uc" horiz-adv-x="434" 
d="M296 94l-107 196l113 196h113l-109 -196l103 -196h-113zM121 94l-107 196l112 196h113l-109 -196l104 -196h-113z" />
    <glyph glyph-name="guillemotright.uc" horiz-adv-x="434" 
d="M200 94l104 196l-109 196h113l112 -196l-107 -196h-113zM25 94l103 196l-109 196h113l113 -196l-107 -196h-113z" />
    <glyph glyph-name="parenleft.uc" horiz-adv-x="361" 
d="M347 -100h-151q-164 203 -164 438q0 234 164 436h151q-70 -106 -107.5 -210t-37.5 -226q0 -220 145 -438z" />
    <glyph glyph-name="parenright.uc" horiz-adv-x="361" 
d="M165 -100h-151q145 218 145 438q0 122 -37.5 226t-107.5 210h151q164 -202 164 -436q0 -235 -164 -438z" />
    <glyph glyph-name="bracketleft.uc" horiz-adv-x="394" 
d="M65 -100v874h291v-122h-127v-630h127v-122h-291z" />
    <glyph glyph-name="bracketright.uc" horiz-adv-x="394" 
d="M38 -100v122h127v630h-127v122h291v-874h-291z" />
    <glyph glyph-name="braceleft.uc" horiz-adv-x="388" 
d="M355 21v-121q-166 0 -225.5 52.5t-34.5 158.5l17 75q12 52 -4 71t-84 21v119q68 2 84 21.5t4 71.5l-17 72q-25 108 34 160t226 52v-121q-68 0 -88 -20.5t-8 -72.5l13 -54q19 -69 0.5 -110t-83.5 -58q65 -18 83.5 -56t0.5 -108l-15 -59q-12 -50 9 -72t88 -22z" />
    <glyph glyph-name="braceright.uc" horiz-adv-x="388" 
d="M33 -100v121q67 0 88 22t9 72l-15 59q-18 70 0.5 108t83.5 56q-65 17 -83.5 58t0.5 110l13 54q12 52 -8 72.5t-88 20.5v121q167 0 226 -52t34 -160l-17 -72q-12 -52 4 -71.5t84 -21.5v-119q-68 -2 -84 -21t-4 -71l17 -75q25 -106 -34.5 -158.5t-225.5 -52.5z" />
    <glyph glyph-name="slash.uc" horiz-adv-x="426" 
d="M-4 -100l290 874h134l-290 -874h-134z" />
    <glyph glyph-name="backslash.uc" horiz-adv-x="426" 
d="M3 774h134l291 -874h-134z" />
    <glyph glyph-name="bar.uc" horiz-adv-x="238" 
d="M59 -100v874h120v-874h-120z" />
    <glyph glyph-name="at.uc" horiz-adv-x="884" 
d="M452 -120q-193 0 -307.5 113.5t-114.5 285.5q0 188 124 314.5t308 126.5q171 0 282 -101.5t111 -244.5q0 -140 -61 -218t-150 -78q-108 0 -142 72q-52 -72 -129 -72q-75 0 -120.5 55t-45.5 142q0 110 60.5 179.5t147.5 69.5q68 0 106 -51l6 42h142l-35 -277
q-6 -46 4 -64.5t36 -18.5q39 0 72 54t33 165q0 123 -89 201.5t-230 78.5q-147 0 -250.5 -105t-103.5 -275q0 -145 93.5 -236.5t254.5 -91.5q112 0 194 44l6 -3v-65q-76 -42 -202 -42zM421 199q42 0 68 32l19 140q-26 34 -65 34t-61.5 -32t-22.5 -89q0 -41 17 -63t45 -22z
" />
    <glyph glyph-name="grave.uc" horiz-adv-x="400" 
d="M150 757l-117 155h168l80 -155h-131z" />
    <glyph glyph-name="dieresis.uc" horiz-adv-x="401" 
d="M236 744v133h155v-133h-155zM9 744v133h155v-133h-155z" />
    <glyph glyph-name="macron.uc" horiz-adv-x="585" 
d="M120 775v110h341v-110h-341z" />
    <glyph glyph-name="acute.uc" horiz-adv-x="401" 
d="M262 757h-131l80 155h169z" />
    <glyph glyph-name="circumflex.uc" horiz-adv-x="400" 
d="M200 823l-61 -66h-132l128 160h130l128 -160h-132z" />
    <glyph glyph-name="caron.uc" horiz-adv-x="400" 
d="M200 851l61 66h132l-128 -160h-130l-128 160h132z" />
    <glyph glyph-name="breve.uc" horiz-adv-x="400" 
d="M200 753q-74 0 -120.5 42t-53.5 116h112q11 -56 62 -56q50 0 62 56h112q-7 -74 -53.5 -116t-120.5 -42z" />
    <glyph glyph-name="dotaccent.uc" horiz-adv-x="400" 
d="M118 765v135h164v-135h-164z" />
    <glyph glyph-name="ring.uc" horiz-adv-x="400" 
d="M200 742q-54 0 -86.5 32t-32.5 83t32.5 83t86.5 32t86.5 -32t32.5 -83t-32.5 -83t-86.5 -32zM200 902q-20 0 -31.5 -13t-11.5 -32q0 -20 11.5 -32.5t31.5 -12.5t31.5 12.5t11.5 32.5q0 19 -11.5 32t-31.5 13z" />
    <glyph glyph-name="tilde.uc" horiz-adv-x="382" 
d="M273 870q44 0 85 45l8 -3v-103q-37 -50 -105 -50q-39 0 -85.5 19t-66.5 19q-51 0 -91 -44l-8 3v103q34 49 105 49q38 0 86 -19t72 -19z" />
    <glyph glyph-name="hungarumlaut.uc" horiz-adv-x="400" 
d="M134 757h-114l42 152h158q-2 0 -43 -76q-21 -38 -43 -76zM334 757h-113l46 152h159q-2 0 -47 -76q-3 -5 -19 -32t-26 -44z" />
    <glyph glyph-name="A.flat" horiz-adv-x="711" 
d="M419 263l-78 240l-79 -240h157zM505 0l-43 133h-242l-44 -133h-170v8l253 697h193l253 -697v-8h-200z" />
    <glyph glyph-name="Aacute.flat" horiz-adv-x="711" 
d="M501 886l-93 -130h-116l71 130h138zM419 263l-78 240l-79 -240h157zM505 0l-43 133h-242l-44 -133h-170v8l253 697h193l253 -697v-8h-200z" />
    <glyph glyph-name="Abreve.flat" horiz-adv-x="711" 
d="M357 756q-74 0 -109 31t-39 92h101q1 -43 46 -43q46 0 47 43h101q-4 -61 -38.5 -92t-108.5 -31zM419 263l-78 240l-79 -240h157zM505 0l-43 133h-242l-44 -133h-170v8l253 697h193l253 -697v-8h-200z" />
    <glyph glyph-name="Acircumflex.flat" horiz-adv-x="711" 
d="M355 808l-47 -52h-114l101 130h122l101 -130h-114zM419 263l-78 240l-79 -240h157zM505 0l-43 133h-242l-44 -133h-170v8l253 697h193l253 -697v-8h-200z" />
    <glyph glyph-name="Adieresis.flat" horiz-adv-x="711" 
d="M419 263l-78 240l-79 -240h157zM505 0l-43 133h-242l-44 -133h-170v8l253 697h193l253 -697v-8h-200zM392 744v133h155v-133h-155zM165 744v133h155v-133h-155z" />
    <glyph glyph-name="Agrave.flat" horiz-adv-x="711" 
d="M304 756l-93 130h138l71 -130h-116zM419 263l-78 240l-79 -240h157zM505 0l-43 133h-242l-44 -133h-170v8l253 697h193l253 -697v-8h-200z" />
    <glyph glyph-name="Amacron.flat" horiz-adv-x="711" 
d="M419 263l-78 240l-79 -240h157zM505 0l-43 133h-242l-44 -133h-170v8l253 697h193l253 -697v-8h-200zM184 775v110h341v-110h-341z" />
    <glyph glyph-name="Aogonek.flat" horiz-adv-x="711" 
d="M617 -217q-130 0 -130 95q0 39 20.5 66t76.5 56h-79l-43 133h-242l-44 -133h-170v8l253 697h193l253 -697v-8q-39 -18 -61 -42t-22 -43q0 -35 42 -35q19 0 37 8l6 -3v-85q-40 -17 -90 -17zM419 263l-78 240l-79 -240h157z" />
    <glyph glyph-name="Aring.flat" horiz-adv-x="711" 
d="M419 263l-78 240l-79 -240h157zM505 0l-43 133h-242l-44 -133h-170v8l253 697h193l253 -697v-8h-200zM355 742q-54 0 -86.5 32t-32.5 83t32.5 83t86.5 32t86.5 -32t32.5 -83t-32.5 -83t-86.5 -32zM355 902q-20 0 -31.5 -13t-11.5 -32q0 -20 11.5 -32.5t31.5 -12.5
t31.5 12.5t11.5 32.5q0 19 -11.5 32t-31.5 13z" />
    <glyph glyph-name="Aringacute.flat" horiz-adv-x="711" 
d="M419 263l-78 240l-79 -240h157zM505 0l-43 133h-242l-44 -133h-170v8l253 697h193l253 -697v-8h-200zM415 978h-131l80 155h169zM355 727q-54 0 -86.5 32t-32.5 83t32.5 83t86.5 32t86.5 -32t32.5 -83t-32.5 -83t-86.5 -32zM355 887q-20 0 -31.5 -13t-11.5 -32
q0 -20 11.5 -32.5t31.5 -12.5t31.5 12.5t11.5 32.5q0 19 -11.5 32t-31.5 13z" />
    <glyph glyph-name="Atilde.flat" horiz-adv-x="711" 
d="M420 863q32 0 64 36l6 -3v-85q-31 -41 -77 -41q-31 0 -64.5 15t-48.5 15q-35 0 -69 -35l-6 3v85q26 41 79 41q28 0 63.5 -15.5t52.5 -15.5zM419 263l-78 240l-79 -240h157zM505 0l-43 133h-242l-44 -133h-170v8l253 697h193l253 -697v-8h-200z" />
    <glyph glyph-name="Eng.flat" horiz-adv-x="754" 
d="M409 -198v138q48 7 70.5 25t28.5 58l-286 426v-449h-163v705h197l276 -413v413h163v-645q0 -129 -64 -189.5t-222 -68.5z" />
    <glyph glyph-name="M.flat" horiz-adv-x="875" 
d="M369 0l-155 429v-429h-155v705h225l149 -405l153 405h230v-705h-177v427l-158 -427h-112z" />
    <glyph glyph-name="M.flatalt" horiz-adv-x="906" 
d="M388 0l-152 413l-34 -413h-163l63 705h199l151 -409l153 409h194l68 -705h-188l-37 414l-154 -414h-100z" />
    <glyph glyph-name="N.flat" horiz-adv-x="754" 
d="M529 0l-300 436v-436h-170v705h197l269 -391v391h170v-705h-166z" />
    <glyph glyph-name="Nacute.flat" horiz-adv-x="754" 
d="M451 757h-131l80 155h169zM529 0l-300 436v-436h-170v705h197l269 -391v391h170v-705h-166z" />
    <glyph glyph-name="Ncaron.flat" horiz-adv-x="754" 
d="M396 851l61 66h132l-128 -160h-130l-128 160h132zM529 0l-300 436v-436h-170v705h197l269 -391v391h170v-705h-166z" />
    <glyph glyph-name="Ncommaaccent.flat" horiz-adv-x="754" 
d="M288 -241l9 185h144l3 -11l-53 -174h-103zM529 0l-300 436v-436h-170v705h197l269 -391v391h170v-705h-166z" />
    <glyph glyph-name="Ntilde.flat" horiz-adv-x="754" 
d="M472 870q44 0 85 45l8 -3v-103q-37 -50 -105 -50q-39 0 -85.5 19t-66.5 19q-51 0 -91 -44l-8 3v103q34 49 105 49q38 0 86 -19t72 -19zM529 0l-300 436v-436h-170v705h197l269 -391v391h170v-705h-166z" />
    <glyph glyph-name="V.flat" horiz-adv-x="707" 
d="M452 0h-198l-244 697v8h201l153 -490l154 490h179v-8z" />
    <glyph glyph-name="W.flat" horiz-adv-x="995" 
d="M586 0l-91 304l-101 -304h-179l-205 697v8h198l126 -464l87 281l-45 175v8h185l128 -475l121 475h173l2 -8l-200 -697h-199z" />
    <glyph glyph-name="W.flatalt" horiz-adv-x="989" 
d="M613 0l-121 427l-123 -427h-174l-182 697v8h189l106 -447l120 447h140l125 -449l105 449h178v-8l-184 -697h-179z" />
    <glyph glyph-name="Wacute.flat" horiz-adv-x="995" 
d="M534 757h-131l80 155h169zM586 0l-91 304l-101 -304h-179l-205 697v8h198l126 -464l87 281l-45 175v8h185l128 -475l121 475h173l2 -8l-200 -697h-199z" />
    <glyph glyph-name="Wacute.flatalt" horiz-adv-x="989" 
d="M557 757h-131l80 155h169zM613 0l-121 427l-123 -427h-174l-182 697v8h189l106 -447l120 447h140l125 -449l105 449h178v-8l-184 -697h-179z" />
    <glyph glyph-name="Wcircumflex.flat" horiz-adv-x="995" 
d="M479 823l-61 -66h-132l128 160h130l128 -160h-132zM586 0l-91 304l-101 -304h-179l-205 697v8h198l126 -464l87 281l-45 175v8h185l128 -475l121 475h173l2 -8l-200 -697h-199z" />
    <glyph glyph-name="Wcircumflex.flatalt" horiz-adv-x="989" 
d="M496 823l-61 -66h-132l128 160h130l128 -160h-132zM613 0l-121 427l-123 -427h-174l-182 697v8h189l106 -447l120 447h140l125 -449l105 449h178v-8l-184 -697h-179z" />
    <glyph glyph-name="Wdieresis.flat" horiz-adv-x="995" 
d="M515 744v133h155v-133h-155zM288 744v133h155v-133h-155zM586 0l-91 304l-101 -304h-179l-205 697v8h198l126 -464l87 281l-45 175v8h185l128 -475l121 475h173l2 -8l-200 -697h-199z" />
    <glyph glyph-name="Wdieresis.flatalt" horiz-adv-x="989" 
d="M613 0l-121 427l-123 -427h-174l-182 697v8h189l106 -447l120 447h140l125 -449l105 449h178v-8l-184 -697h-179zM532 744v133h155v-133h-155zM305 744v133h155v-133h-155z" />
    <glyph glyph-name="Wgrave.flat" horiz-adv-x="995" 
d="M426 757l-117 155h168l80 -155h-131zM586 0l-91 304l-101 -304h-179l-205 697v8h198l126 -464l87 281l-45 175v8h185l128 -475l121 475h173l2 -8l-200 -697h-199z" />
    <glyph glyph-name="Wgrave.flatalt" horiz-adv-x="989" 
d="M440 757l-117 155h168l80 -155h-131zM613 0l-121 427l-123 -427h-174l-182 697v8h189l106 -447l120 447h140l125 -449l105 449h178v-8l-184 -697h-179z" />
    <glyph glyph-name="Z.flat" horiz-adv-x="614" 
d="M583 0h-560v127l328 435h-303v143h525v-140l-319 -422h329v-143z" />
    <glyph glyph-name="Zacute.flat" horiz-adv-x="614" 
d="M367 757h-131l80 155h169zM583 0h-560v127l328 435h-303v143h525v-140l-319 -422h329v-143z" />
    <glyph glyph-name="Zcaron.flat" horiz-adv-x="614" 
d="M311 851l61 66h132l-128 -160h-130l-128 160h132zM583 0h-560v127l328 435h-303v143h525v-140l-319 -422h329v-143z" />
    <glyph glyph-name="Zdotaccent.flat" horiz-adv-x="614" 
d="M583 0h-560v127l328 435h-303v143h525v-140l-319 -422h329v-143zM229 765v135h164v-135h-164z" />
    <glyph glyph-name="four.denflat" horiz-adv-x="362" 
d="M180 158v106l-72 -106h72zM351 77h-53v-77h-118v77h-168v64l167 244h119v-227h53v-81z" />
    <glyph glyph-name="four.flat" horiz-adv-x="593" 
d="M311 273v196l-136 -196h136zM583 147h-94v-147h-178v147h-297v101l305 442h170v-417h94v-126z" />
    <glyph glyph-name="four.numflat" horiz-adv-x="362" 
d="M180 463v105l-72 -105h72zM351 382h-53v-77h-118v77h-168v64l167 244h119v-227h53v-81z" />
    <glyph glyph-name="four.subflat" horiz-adv-x="362" 
d="M180 57v106l-73 -106h73zM351 -24h-53v-76h-118v76h-168v65l167 244h119v-228h53v-81z" />
    <glyph glyph-name="four.supflat" horiz-adv-x="362" 
d="M180 521v105l-72 -105h72zM351 440h-53v-77h-118v77h-168v64l167 244h119v-227h53v-81z" />
    <glyph glyph-name="four.ucflat" horiz-adv-x="625" 
d="M330 277v209l-149 -209h149zM615 151h-102v-151h-183v151h-316v101l324 453h175v-428h102v-126z" />
    <glyph glyph-name="one.denflat" horiz-adv-x="258" 
d="M212 0h-123v263l-74 -45l-3 2v103l105 62h95v-385z" />
    <glyph glyph-name="one.flat" horiz-adv-x="387" 
d="M320 0h-181v504l-115 -73l-6 3v151l168 105h134v-690z" />
    <glyph glyph-name="one.numflat" horiz-adv-x="258" 
d="M212 305h-123v262l-74 -44l-3 1v104l105 62h95v-385z" />
    <glyph glyph-name="one.subflat" horiz-adv-x="258" 
d="M212 -100h-123v262l-74 -44l-3 1v104l105 62h95v-385z" />
    <glyph glyph-name="one.supflat" horiz-adv-x="258" 
d="M212 363h-123v262l-74 -44l-3 1v104l105 62h95v-385z" />
    <glyph glyph-name="one.ucflat" horiz-adv-x="408" 
d="M337 0h-186v519l-125 -80l-7 3v151l180 112h138v-705z" />
    <glyph glyph-name="oneeighth.flat" horiz-adv-x="794" 
d="M212 305h-123v262l-74 -44l-3 1v104l105 62h95v-385zM62 0l535 690h97l-536 -690h-96zM619 -7q-77 0 -119.5 29.5t-42.5 79.5q0 67 69 87q-58 34 -58 93q0 54 41 81.5t106 27.5q67 0 109.5 -26.5t42.5 -78.5q0 -54 -62 -80q37 -18 55 -41t18 -60q0 -54 -41 -83t-118 -29z
M579 285q0 -15 13.5 -26t45.5 -24q23 17 23 43q0 39 -43 39q-39 0 -39 -32zM615 68q23 0 35 10.5t12 26.5q0 17 -14.5 28t-52.5 27q-30 -19 -30 -50q0 -42 50 -42z" />
    <glyph glyph-name="onehalf.flat" horiz-adv-x="799" 
d="M494 0v73l107 105q27 27 37.5 43.5t10.5 35.5q0 39 -57 39q-48 0 -89 -28l-5 3v90q43 30 124 30q147 0 147 -120q0 -39 -17 -69.5t-54 -66.5l-49 -48h127v-87h-282zM212 305h-123v262l-74 -44l-3 1v104l105 62h95v-385zM67 0l535 690h97l-536 -690h-96z" />
    <glyph glyph-name="onequarter.flat" horiz-adv-x="777" 
d="M212 305h-123v262l-74 -44l-3 1v104l105 62h95v-385zM63 0l535 690h97l-536 -690h-96zM591 158v106l-72 -106h72zM762 77h-53v-77h-118v77h-168v64l167 244h119v-227h53v-81z" />
    <glyph glyph-name="onethird.flat" horiz-adv-x="787" 
d="M212 305h-123v262l-74 -44l-3 1v104l105 62h95v-385zM57 0l535 690h97l-536 -690h-96zM610 -7q-79 0 -131 31v88l4 3q49 -30 108 -30q56 0 56 38q0 36 -55 36h-48v74h42q50 0 50 34t-53 34q-50 0 -92 -24l-5 3v85q43 26 122 26q64 0 104.5 -26.5t40.5 -77.5
q0 -65 -70 -84q83 -17 83 -91q0 -57 -39.5 -88t-116.5 -31z" />
    <glyph glyph-name="seven.denflat" horiz-adv-x="330" 
d="M182 0h-128q27 105 104 239l28 50h-169v95h293v-80l-39 -78q-63 -122 -89 -226z" />
    <glyph glyph-name="seven.flat" horiz-adv-x="516" 
d="M264 0h-182q35 174 176 435l57 109h-297v141h477v-117l-77 -155q-123 -244 -154 -413z" />
    <glyph glyph-name="seven.numflat" horiz-adv-x="330" 
d="M182 306h-128q27 105 104 239l28 50h-169v95h293v-80l-39 -78q-63 -122 -89 -226z" />
    <glyph glyph-name="seven.subflat" horiz-adv-x="330" 
d="M182 -99h-128q27 105 104 239l28 50h-169v95h293v-80l-39 -78q-63 -122 -89 -226z" />
    <glyph glyph-name="seven.supflat" horiz-adv-x="330" 
d="M182 364h-128q27 105 104 239l28 50h-169v95h293v-80l-39 -78q-63 -122 -89 -226z" />
    <glyph glyph-name="seven.ucflat" horiz-adv-x="553" 
d="M279 0h-187q39 176 187 447l64 117h-324v141h511v-116l-89 -164q-124 -230 -162 -425z" />
    <glyph glyph-name="seveneighths.flat" horiz-adv-x="794" 
d="M182 306h-128q27 105 104 239l28 50h-169v95h293v-80l-39 -78q-63 -122 -89 -226zM64 0l535 690h97l-536 -690h-96zM619 -7q-77 0 -119.5 29.5t-42.5 79.5q0 67 69 87q-58 34 -58 93q0 54 41 81.5t106 27.5q67 0 109.5 -26.5t42.5 -78.5q0 -54 -62 -80q37 -18 55 -41
t18 -60q0 -54 -41 -83t-118 -29zM579 285q0 -15 13.5 -26t45.5 -24q23 17 23 43q0 39 -43 39q-39 0 -39 -32zM615 68q23 0 35 10.5t12 26.5q0 17 -14.5 28t-52.5 27q-30 -19 -30 -50q0 -42 50 -42z" />
    <glyph glyph-name="sterling.flat" horiz-adv-x="563" 
d="M534 130v-130h-511v107q43 33 56 61.5t24 90.5l2 13h-53v111h69l17 114q29 200 228 200q93 0 160 -33v-126l-8 -5q-54 30 -105 30q-41 0 -65 -19.5t-33 -68.5l-16 -92h149v-111h-168l-1 -7q-9 -52 -22.5 -80t-47.5 -55h325z" />
    <glyph glyph-name="sterling.ucflat" horiz-adv-x="603" 
d="M573 130v-130h-549v107q47 36 63 67.5t28 92.5l2 16h-61v111h78l18 118q31 207 241 207q97 0 172 -34v-126l-10 -5q-60 31 -112 31q-46 0 -73 -21t-36 -74l-17 -96h163v-111h-182l-2 -10q-11 -58 -24.5 -87t-50.5 -56h352z" />
    <glyph glyph-name="threequarters.flat" horiz-adv-x="802" 
d="M89 0l535 690h97l-536 -690h-96zM616 158v106l-72 -106h72zM787 77h-53v-77h-118v77h-168v64l167 244h119v-227h53v-81zM150 298q-79 0 -131 31v88l4 3q49 -30 108 -30q56 0 56 38q0 36 -55 36h-48v74h42q50 0 50 33q0 35 -53 35q-50 0 -92 -24l-5 3v85q43 26 122 26
q64 0 104.5 -26.5t40.5 -77.5q0 -65 -70 -84q83 -17 83 -91q0 -57 -39.5 -88t-116.5 -31z" />
    <glyph glyph-name="trademark.flat" horiz-adv-x="778" 
d="M288 596h-87v-244h-111v244h-86v92h284v-92zM496 352l-68 199v-199h-94v336h133l65 -176l59 176h141v-336h-104v200l-70 -200h-62z" />
    <glyph glyph-name="two.denflat" horiz-adv-x="328" 
d="M19 0v73l107 105q27 27 37.5 43.5t10.5 35.5q0 39 -57 39q-48 0 -89 -28l-5 3v90q43 30 124 30q147 0 147 -120q0 -39 -17 -69.5t-54 -66.5l-49 -48h127v-87h-282z" />
    <glyph glyph-name="two.flat" horiz-adv-x="505" 
d="M23 0v103l188 205q81 92 81 162q0 40 -24.5 64t-76.5 24q-77 0 -154 -49l-7 4v135q74 49 198 49q115 0 180 -54t65 -154q0 -66 -31.5 -124.5t-95.5 -127.5l-102 -107h238v-130h-459z" />
    <glyph glyph-name="two.numflat" horiz-adv-x="328" 
d="M19 305v73l107 105q27 27 37.5 43.5t10.5 35.5q0 39 -57 39q-48 0 -89 -28l-5 3v90q43 30 124 30q147 0 147 -120q0 -39 -17 -69.5t-54 -66.5l-49 -48h127v-87h-282z" />
    <glyph glyph-name="two.subflat" horiz-adv-x="328" 
d="M19 -99v73l107 105q27 27 37.5 43.5t10.5 35.5q0 39 -57 39q-48 0 -89 -28l-5 3v90q43 30 124 30q147 0 147 -120q0 -39 -17 -69.5t-54 -66.5l-49 -48h127v-87h-282z" />
    <glyph glyph-name="two.supflat" horiz-adv-x="328" 
d="M19 364v73l107 105q27 27 37.5 43.5t10.5 35.5q0 39 -57 39q-48 0 -89 -28l-5 3v90q43 30 124 30q147 0 147 -120q0 -39 -17 -69.5t-54 -66.5l-49 -48h127v-87h-282z" />
    <glyph glyph-name="two.ucflat" horiz-adv-x="545" 
d="M25 0v103l206 214q88 91 88 173q0 41 -28 65.5t-85 24.5q-82 0 -166 -50l-8 4v134q84 51 214 51q124 0 192 -55.5t68 -159.5q0 -68 -35 -128.5t-102 -127.5l-116 -118h267v-130h-495z" />
    <glyph glyph-name="twothirds.flat" horiz-adv-x="837" 
d="M106 0l535 690h97l-536 -690h-96zM660 -7q-79 0 -131 31v88l4 3q49 -30 108 -30q56 0 56 38q0 36 -55 36h-48v74h42q50 0 50 34t-53 34q-50 0 -92 -24l-5 3v85q43 26 122 26q64 0 104.5 -26.5t40.5 -77.5q0 -65 -70 -84q83 -17 83 -91q0 -57 -39.5 -88t-116.5 -31z
M19 305v73l107 105q27 27 37.5 43.5t10.5 35.5q0 39 -57 39q-48 0 -89 -28l-5 3v90q43 30 124 30q147 0 147 -120q0 -39 -17 -69.5t-54 -66.5l-49 -48h127v-87h-282z" />
    <glyph glyph-name="v.flat" horiz-adv-x="586" 
d="M374 0h-158l-210 542v8h181l117 -341l115 341h161v-7z" />
    <glyph glyph-name="w.flat" horiz-adv-x="787" 
d="M489 0l-96 313l-92 -313h-134l-157 542v8h171l71 -306l88 306h117l91 -307l69 307h160v-8l-154 -542h-134z" />
    <glyph glyph-name="wacute.flat" horiz-adv-x="787" 
d="M449 597h-129l78 171h171zM489 0l-96 313l-92 -313h-134l-157 542v8h171l71 -306l88 306h117l91 -307l69 307h160v-8l-154 -542h-134z" />
    <glyph glyph-name="wcircumflex.flat" horiz-adv-x="787" 
d="M394 665l-58 -68h-130l128 166h120l128 -166h-130zM489 0l-96 313l-92 -313h-134l-157 542v8h171l71 -306l88 306h117l91 -307l69 307h160v-8l-154 -542h-134z" />
    <glyph glyph-name="wdieresis.flat" horiz-adv-x="787" 
d="M218 611v136h148v-136h-148zM426 611v136h148v-136h-148zM489 0l-96 313l-92 -313h-134l-157 542v8h171l71 -306l88 306h117l91 -307l69 307h160v-8l-154 -542h-134z" />
    <glyph glyph-name="wgrave.flat" horiz-adv-x="787" 
d="M489 0l-96 313l-92 -313h-134l-157 542v8h171l71 -306l88 306h117l91 -307l69 307h160v-8l-154 -542h-134zM343 597l-120 171h171l77 -171h-128z" />
    <glyph glyph-name="z.flat" horiz-adv-x="500" 
d="M475 0h-450v91l243 334h-226v125h428v-102l-235 -323h240v-125z" />
    <glyph glyph-name="zacute.flat" horiz-adv-x="500" 
d="M316 597h-129l78 171h171zM475 0h-450v91l243 334h-226v125h428v-102l-235 -323h240v-125z" />
    <glyph glyph-name="zcaron.flat" horiz-adv-x="500" 
d="M261 696l58 67h130l-128 -166h-120l-128 166h130zM475 0h-450v91l243 334h-226v125h428v-102l-235 -323h240v-125z" />
    <glyph glyph-name="zdotaccent.flat" horiz-adv-x="500" 
d="M475 0h-450v91l243 334h-226v125h428v-102l-235 -323h240v-125zM179 611v135h164v-135h-164z" />
    <glyph glyph-name="uni00AD" horiz-adv-x="342" 
d="M33 251v136h276v-136h-276z" />
    <glyph glyph-name="uni1EA0.flat" horiz-adv-x="711" 
d="M419 263l-78 240l-79 -240h157zM505 0l-43 133h-242l-44 -133h-170v8l253 697h193l253 -697v-8h-200zM261 -191v113h156v-113h-156z" />
    <glyph glyph-name="uni1EA2.flat" horiz-adv-x="711" 
d="M419 263l-78 240l-79 -240h157zM505 0l-43 133h-242l-44 -133h-170v8l253 697h193l253 -697v-8h-200zM277 853v56q32 16 87 17q100 -2 106 -66q1 -43 -35 -65q-37 -21 -37 -39h-81q0 37 23 55t23 32q1 11 -6 16t-17 5q-30 0 -63 -11z" />
    <glyph glyph-name="uni1EA4.flat" horiz-adv-x="711" 
d="M355 808l-47 -52h-114l101 130h122l101 -130h-114zM419 263l-78 240l-79 -240h157zM505 0l-43 133h-242l-44 -133h-170v8l253 697h193l253 -697v-8h-200zM656 976l-73 -110h-116l51 110h138z" />
    <glyph glyph-name="uni1EA6.flat" horiz-adv-x="711" 
d="M355 808l-47 -52h-114l101 130h122l101 -130h-114zM419 263l-78 240l-79 -240h157zM505 0l-43 133h-242l-44 -133h-170v8l253 697h193l253 -697v-8h-200zM473 866l-73 110h138l51 -110h-116z" />
    <glyph glyph-name="uni1EA8.flat" horiz-adv-x="711" 
d="M355 808l-47 -52h-114l101 130h122l101 -130h-114zM419 263l-78 240l-79 -240h157zM505 0l-43 133h-242l-44 -133h-170v8l253 697h193l253 -697v-8h-200zM426 947v50q25 14 80 15q41 -1 67.5 -15.5t29.5 -41.5q1 -37 -30 -56q-31 -18 -31 -34h-79q0 31 19 47q20 18 20 26
q1 10 -5 14t-16 4q-27 0 -55 -9z" />
    <glyph glyph-name="uni1EAA.flat" horiz-adv-x="711" 
d="M355 808l-47 -52h-114l101 130h122l101 -130h-114zM419 263l-78 240l-79 -240h157zM505 0l-43 133h-242l-44 -133h-170v8l253 697h193l253 -697v-8h-200zM418 1001q32 0 64 36l6 -3v-85q-31 -41 -77 -41q-31 0 -64.5 15t-48.5 15q-35 0 -69 -35l-6 3v85q26 41 79 41
q28 0 63.5 -15.5t52.5 -15.5z" />
    <glyph glyph-name="uni1EAC.flat" horiz-adv-x="711" 
d="M355 808l-47 -52h-114l101 130h122l101 -130h-114zM419 263l-78 240l-79 -240h157zM505 0l-43 133h-242l-44 -133h-170v8l253 697h193l253 -697v-8h-200zM261 -191v113h156v-113h-156z" />
    <glyph glyph-name="uni1EAE.flat" horiz-adv-x="711" 
d="M357 756q-74 0 -109 31t-39 92h101q1 -43 46 -43q46 0 47 43h101q-4 -61 -38.5 -92t-108.5 -31zM419 263l-78 240l-79 -240h157zM505 0l-43 133h-242l-44 -133h-170v8l253 697h193l253 -697v-8h-200zM482 1016l-73 -110h-116l51 110h138z" />
    <glyph glyph-name="uni1EB0.flat" horiz-adv-x="711" 
d="M357 756q-74 0 -109 31t-39 92h101q1 -43 46 -43q46 0 47 43h101q-4 -61 -38.5 -92t-108.5 -31zM419 263l-78 240l-79 -240h157zM505 0l-43 133h-242l-44 -133h-170v8l253 697h193l253 -697v-8h-200zM300 906l-73 110h138l51 -110h-116z" />
    <glyph glyph-name="uni1EB2.flat" horiz-adv-x="711" 
d="M357 756q-74 0 -109 31t-39 92h101q1 -43 46 -43q46 0 47 43h101q-4 -61 -38.5 -92t-108.5 -31zM419 263l-78 240l-79 -240h157zM505 0l-43 133h-242l-44 -133h-170v8l253 697h193l253 -697v-8h-200zM279 988v50q25 14 80 15q41 -1 67.5 -15.5t29.5 -41.5q1 -37 -30 -56
q-31 -18 -31 -34h-79q0 31 19 47q20 18 20 26q1 10 -5 14t-16 4q-26 0 -55 -9z" />
    <glyph glyph-name="uni1EB4.flat" horiz-adv-x="711" 
d="M357 756q-74 0 -109 31t-39 92h101q1 -43 46 -43q46 0 47 43h101q-4 -61 -38.5 -92t-108.5 -31zM419 263l-78 240l-79 -240h157zM505 0l-43 133h-242l-44 -133h-170v8l253 697h193l253 -697v-8h-200zM419 995q33 0 64 36l6 -3v-85q-31 -41 -77 -41q-31 0 -64.5 15
t-48.5 15q-35 0 -69 -35l-6 3v85q26 41 79 41q28 0 63.5 -15.5t52.5 -15.5z" />
    <glyph glyph-name="uni1EB6.flat" horiz-adv-x="711" 
d="M357 756q-74 0 -109 31t-39 92h101q1 -43 46 -43q46 0 47 43h101q-4 -61 -38.5 -92t-108.5 -31zM419 263l-78 240l-79 -240h157zM505 0l-43 133h-242l-44 -133h-170v8l253 697h193l253 -697v-8h-200zM261 -191v113h156v-113h-156z" />
    <glyph glyph-name="uni1EA1.alt" horiz-adv-x="616" 
d="M305 120q55 0 93 32v253q-37 31 -90 31q-54 0 -83.5 -42.5t-29.5 -122.5q0 -76 30 -113.5t80 -37.5zM430 0l-16 66q-57 -79 -163 -79t-168 73t-62 211q0 141 64.5 216.5t170.5 75.5q91 0 148 -64l8 51h158v-550h-140zM214 -191v113h156v-113h-156z" />
    <glyph glyph-name="uni1EA3.alt" horiz-adv-x="616" 
d="M305 120q55 0 93 32v253q-37 31 -90 31q-54 0 -83.5 -42.5t-29.5 -122.5q0 -76 30 -113.5t80 -37.5zM430 0l-16 66q-57 -79 -163 -79t-168 73t-62 211q0 141 64.5 216.5t170.5 75.5q91 0 148 -64l8 51h158v-550h-140zM242 709v56q32 16 87 17q100 -2 106 -66
q1 -43 -35 -65q-37 -21 -37 -39h-81q0 37 23 55t23 32q1 11 -6 16t-17 5q-30 0 -63 -11z" />
    <glyph glyph-name="uni1EA5.alt" horiz-adv-x="616" 
d="M324 654l-47 -52h-114l101 130h122l101 -130h-114zM305 120q55 0 93 32v253q-37 31 -90 31q-54 0 -83.5 -42.5t-29.5 -122.5q0 -76 30 -113.5t80 -37.5zM430 0l-16 66q-57 -79 -163 -79t-168 73t-62 211q0 141 64.5 216.5t170.5 75.5q91 0 148 -64l8 51h158v-550h-140z
M625 822l-73 -110h-116l51 110h138z" />
    <glyph glyph-name="uni1EA7.alt" horiz-adv-x="616" 
d="M324 654l-47 -52h-114l101 130h122l101 -130h-114zM305 120q55 0 93 32v253q-37 31 -90 31q-54 0 -83.5 -42.5t-29.5 -122.5q0 -76 30 -113.5t80 -37.5zM430 0l-16 66q-57 -79 -163 -79t-168 73t-62 211q0 141 64.5 216.5t170.5 75.5q91 0 148 -64l8 51h158v-550h-140z
M442 712l-73 110h138l51 -110h-116z" />
    <glyph glyph-name="uni1EA9.alt" horiz-adv-x="616" 
d="M324 654l-47 -52h-114l101 130h122l101 -130h-114zM305 120q55 0 93 32v253q-37 31 -90 31q-54 0 -83.5 -42.5t-29.5 -122.5q0 -76 30 -113.5t80 -37.5zM430 0l-16 66q-57 -79 -163 -79t-168 73t-62 211q0 141 64.5 216.5t170.5 75.5q91 0 148 -64l8 51h158v-550h-140z
M395 793v50q25 14 80 15q41 -1 67.5 -15.5t29.5 -41.5q1 -37 -30 -56q-31 -18 -31 -34h-79q0 31 19 47q20 18 20 26q1 10 -5 14t-16 4q-26 0 -55 -9z" />
    <glyph glyph-name="uni1EAB.alt" horiz-adv-x="616" 
d="M324 654l-47 -52h-114l101 130h122l101 -130h-114zM305 120q55 0 93 32v253q-37 31 -90 31q-54 0 -83.5 -42.5t-29.5 -122.5q0 -76 30 -113.5t80 -37.5zM430 0l-16 66q-57 -79 -163 -79t-168 73t-62 211q0 141 64.5 216.5t170.5 75.5q91 0 148 -64l8 51h158v-550h-140z
M387 847q33 0 64 36l6 -3v-85q-31 -41 -77 -41q-31 0 -64.5 15t-48.5 15q-35 0 -69 -35l-6 3v85q26 41 79 41q28 0 63.5 -15.5t52.5 -15.5z" />
    <glyph glyph-name="uni1EAD.alt" horiz-adv-x="616" 
d="M324 654l-47 -52h-114l101 130h122l101 -130h-114zM305 120q55 0 93 32v253q-37 31 -90 31q-54 0 -83.5 -42.5t-29.5 -122.5q0 -76 30 -113.5t80 -37.5zM430 0l-16 66q-57 -79 -163 -79t-168 73t-62 211q0 141 64.5 216.5t170.5 75.5q91 0 148 -64l8 51h158v-550h-140z
M214 -191v113h156v-113h-156z" />
    <glyph glyph-name="uni1EAF.alt" horiz-adv-x="616" 
d="M305 120q55 0 93 32v253q-37 31 -90 31q-54 0 -83.5 -42.5t-29.5 -122.5q0 -76 30 -113.5t80 -37.5zM430 0l-16 66q-57 -79 -163 -79t-168 73t-62 211q0 141 64.5 216.5t170.5 75.5q91 0 148 -64l8 51h158v-550h-140zM334 605q-74 0 -109 31t-39 92h101q1 -43 46 -43
q46 0 47 43h101q-4 -61 -38.5 -92t-108.5 -31zM459 865l-73 -110h-116l51 110h138z" />
    <glyph glyph-name="uni1EB1.alt" horiz-adv-x="616" 
d="M305 120q55 0 93 32v253q-37 31 -90 31q-54 0 -83.5 -42.5t-29.5 -122.5q0 -76 30 -113.5t80 -37.5zM430 0l-16 66q-57 -79 -163 -79t-168 73t-62 211q0 141 64.5 216.5t170.5 75.5q91 0 148 -64l8 51h158v-550h-140zM334 605q-74 0 -109 31t-39 92h101q1 -43 46 -43
q46 0 47 43h101q-4 -61 -38.5 -92t-108.5 -31zM277 755l-73 110h138l51 -110h-116z" />
    <glyph glyph-name="uni1EB3.alt" horiz-adv-x="616" 
d="M305 120q55 0 93 32v253q-37 31 -90 31q-54 0 -83.5 -42.5t-29.5 -122.5q0 -76 30 -113.5t80 -37.5zM430 0l-16 66q-57 -79 -163 -79t-168 73t-62 211q0 141 64.5 216.5t170.5 75.5q91 0 148 -64l8 51h158v-550h-140zM334 605q-74 0 -109 31t-39 92h101q1 -43 46 -43
q46 0 47 43h101q-4 -61 -38.5 -92t-108.5 -31zM256 837v50q25 14 80 15q41 -1 67.5 -15.5t29.5 -41.5q1 -37 -30 -56q-31 -18 -31 -34h-79q0 31 19 47q20 18 20 26q1 10 -5 14t-16 4q-27 0 -55 -9z" />
    <glyph glyph-name="uni1EB5.alt" horiz-adv-x="616" 
d="M305 120q55 0 93 32v253q-37 31 -90 31q-54 0 -83.5 -42.5t-29.5 -122.5q0 -76 30 -113.5t80 -37.5zM430 0l-16 66q-57 -79 -163 -79t-168 73t-62 211q0 141 64.5 216.5t170.5 75.5q91 0 148 -64l8 51h158v-550h-140zM334 605q-74 0 -109 31t-39 92h101q1 -43 46 -43
q46 0 47 43h101q-4 -61 -38.5 -92t-108.5 -31zM396 844q32 0 64 36l6 -3v-85q-31 -41 -77 -41q-31 0 -64.5 15t-48.5 15q-35 0 -69 -35l-6 3v85q26 41 79 41q28 0 63.5 -15.5t52.5 -15.5z" />
    <glyph glyph-name="uni1EB7.alt" horiz-adv-x="616" 
d="M305 120q55 0 93 32v253q-37 31 -90 31q-54 0 -83.5 -42.5t-29.5 -122.5q0 -76 30 -113.5t80 -37.5zM430 0l-16 66q-57 -79 -163 -79t-168 73t-62 211q0 141 64.5 216.5t170.5 75.5q91 0 148 -64l8 51h158v-550h-140zM334 605q-74 0 -109 31t-39 92h101q1 -43 46 -43
q46 0 47 43h101q-4 -61 -38.5 -92t-108.5 -31zM214 -191v113h156v-113h-156z" />
    <glyph glyph-name="uni1EF5.alt" horiz-adv-x="576" 
d="M297 -194h-173v8l82 213l-200 515v8h182l112 -323l111 323h159v-8zM419 -191v113h156v-113h-156z" />
    <glyph glyph-name="uni1EF7.alt" horiz-adv-x="576" 
d="M297 -194h-173v8l82 213l-200 515v8h182l112 -323l111 323h159v-8zM218 709v56q32 16 87 17q100 -2 106 -66q1 -43 -35 -65q-37 -21 -37 -39h-81q0 37 23 55t23 32q1 11 -6 16t-17 5q-30 0 -63 -11z" />
    <glyph glyph-name="uni1EF9.alt" horiz-adv-x="576" 
d="M297 -194h-173v8l82 213l-200 515v8h182l112 -323l111 323h159v-8zM358 700q32 0 64 36l6 -3v-85q-31 -41 -77 -41q-31 0 -64.5 15t-48.5 15q-35 0 -69 -35l-6 3v85q26 41 79 41q28 0 63.5 -15.5t52.5 -15.5z" />
    <glyph glyph-name="uni1EF5.alt1" horiz-adv-x="603" 
d="M275 -210q-125 0 -207 42v138l6 2q80 -46 174 -46q75 0 106.5 24.5t31.5 76.5v37q-65 -69 -159 -69q-85 0 -135 49t-50 144v362h172v-334q0 -85 80 -85q53 0 92 30v389h172v-526q0 -121 -75 -177.5t-208 -56.5zM606 -191v113h156v-113h-156z" />
    <glyph glyph-name="uni1EF7.alt1" horiz-adv-x="603" 
d="M275 -210q-125 0 -207 42v138l6 2q80 -46 174 -46q75 0 106.5 24.5t31.5 76.5v37q-65 -69 -159 -69q-85 0 -135 49t-50 144v362h172v-334q0 -85 80 -85q53 0 92 30v389h172v-526q0 -121 -75 -177.5t-208 -56.5zM218 709v56q32 16 87 17q100 -2 106 -66q1 -43 -35 -65
q-37 -21 -37 -39h-81q0 37 23 55t23 32q1 11 -6 16t-17 5q-30 0 -63 -11z" />
    <glyph glyph-name="uni1EF9.alt1" horiz-adv-x="603" 
d="M275 -210q-125 0 -207 42v138l6 2q80 -46 174 -46q75 0 106.5 24.5t31.5 76.5v37q-65 -69 -159 -69q-85 0 -135 49t-50 144v362h172v-334q0 -85 80 -85q53 0 92 30v389h172v-526q0 -121 -75 -177.5t-208 -56.5zM359 700q33 0 64 36l6 -3v-85q-31 -41 -77 -41
q-31 0 -64.5 15t-48.5 15q-35 0 -69 -35l-6 3v85q26 41 79 41q28 0 63.5 -15.5t52.5 -15.5z" />
    </font>
</defs>
</svg>
