<svg width="12" height="6" viewBox="0 0 12 6" fill="none" xmlns="http://www.w3.org/2000/svg">
<path d="M8.78587 0.854579C9.01259 0.661132 9.01259 0.315594 8.78587 0.122147C8.59982 -0.0365903 8.32306 -0.0365904 8.13702 0.122147L5.07009 2.73895L5.82373 3.38197L8.78587 0.854579ZM11.8109 0.112102C11.6175 -0.041969 11.339 -0.0366845 11.1517 0.124611L5.82371 4.71395L3.88723 3.06169C3.70119 2.90295 3.42443 2.90295 3.23838 3.06169C3.01166 3.25513 3.01166 3.60067 3.23838 3.79412L5.82371 6L11.8242 0.880156C12.0639 0.675677 12.0575 0.308475 11.8109 0.112102ZM0.170042 3.06169C-0.0566808 3.25513 -0.0566808 3.60067 0.170042 3.79412L2.75536 6L3.509 5.35698L0.818888 3.06169C0.632846 2.90295 0.356084 2.90295 0.170042 3.06169Z" fill="#141414"/>
</svg>
