<svg width="24" height="24" viewBox="0 0 24 24" fill="none" xmlns="http://www.w3.org/2000/svg">
<circle cx="12" cy="12" r="11.5" stroke="#141414"/>
<path d="M9.6 7.5502H9.35505C9.41818 7.48834 9.50463 7.4502 9.6 7.4502H14.4C14.4954 7.4502 14.5818 7.48834 14.6449 7.5502H14.4H9.6ZM9.25 7.8002C9.25 7.70483 9.28814 7.61837 9.35 7.55525V7.8002V8.4002V8.6502H9.6H10.2H13.8H14.4H14.65V8.4002V7.8002V7.55525C14.7119 7.61837 14.75 7.70483 14.75 7.8002V8.4002V8.6502H15H15.6H16.8C17.3251 8.6502 17.75 9.07549 17.75 9.6002V15.6002C17.75 16.1249 17.3251 16.5502 16.8 16.5502H15.6H15H14.4H13.8H10.2H9.6H9H8.4H7.2C6.67487 16.5502 6.25 16.1249 6.25 15.6002V9.6002C6.25 9.07549 6.67487 8.6502 7.2 8.6502H8.4H9H9.25V8.4002V7.8002ZM15.25 9.0002V8.7502H15H14.4H14.15V9.0002V16.2002V16.4502H14.4H15H15.25V16.2002V9.0002ZM14.05 9.0002V8.7502H13.8H10.2H9.95V9.0002V16.2002V16.4502H10.2H13.8H14.05V16.2002V9.0002ZM9.85 9.0002V8.7502H9.6H9H8.75V9.0002V16.2002V16.4502H9H9.6H9.85V16.2002V9.0002ZM15.35 16.2002V16.4502H15.6H16.8C17.0402 16.4502 17.258 16.3505 17.4124 16.1903L17.4133 16.1894C17.5583 16.0373 17.65 15.8296 17.65 15.6002V9.6002C17.65 9.34421 17.537 9.1136 17.356 8.95774C17.2071 8.8289 17.0126 8.7502 16.8 8.7502H15.6H15.35V9.0002V16.2002ZM8.4 16.4502H8.65V16.2002V9.0002V8.7502H8.4H7.2C6.92619 8.7502 6.68189 8.88021 6.52738 9.08136C6.41658 9.22462 6.35 9.4047 6.35 9.6002V15.6002C6.35 16.0695 6.73021 16.4502 7.2 16.4502H8.4Z" fill="white" stroke="#141414" stroke-width="0.5"/>
</svg>
